<svg xmlns="http://www.w3.org/2000/svg" width="85" height="85" viewBox="0 0 85 85">
  <g id="_1" data-name="1" transform="translate(-179.848 -411)">
    <circle id="Elipse_11540" data-name="Elipse 11540" cx="42.5" cy="42.5" r="42.5" transform="translate(179.848 411)" fill="#10314b"/>
    <g id="Page-1" transform="translate(198.848 424)">
      <g id="_054---Satisfaction-Survey" data-name="054---Satisfaction-Survey">
        <path id="Path" d="M33,5H44a3,3,0,0,1,3,3V56a3,3,0,0,1-3,3H4a3,3,0,0,1-3-3V8A3,3,0,0,1,4,5Z" fill="#91562d" fill-rule="evenodd"/>
        <path id="Path-2" data-name="Path" d="M44,5H41a3,3,0,0,1,3,3V56a3,3,0,0,1-3,3h3a3,3,0,0,0,3-3V8A3,3,0,0,0,44,5Z" fill="#6d4122" fill-rule="evenodd"/>
        <rect id="Rectangle" width="46" height="38" rx="1" transform="translate(43 9) rotate(90)" fill="#f5f5f5"/>
        <path id="Path-3" data-name="Path" d="M42,9H39a1,1,0,0,1,1,1V54a1,1,0,0,1-1,1h3a1,1,0,0,0,1-1V10A1,1,0,0,0,42,9Z" fill="#cfd8dc" fill-rule="evenodd"/>
        <circle id="Oval" cx="6" cy="6" r="6" transform="translate(11 26)" fill="#ffdc00"/>
        <circle id="Oval-2" data-name="Oval" cx="6" cy="6" r="6" transform="translate(11 14)" fill="#ffdc00"/>
        <circle id="Oval-3" data-name="Oval" cx="6" cy="6" r="6" transform="translate(11 38)" fill="#ffdc00"/>
        <rect id="Rectangle-2" data-name="Rectangle" width="8" height="8" rx="1" transform="translate(29 16)" fill="#60a917"/>
        <rect id="Rectangle-3" data-name="Rectangle" width="8" height="8" rx="1" transform="translate(29 28)" fill="#60a917"/>
        <rect id="Rectangle-4" data-name="Rectangle" width="8" height="8" rx="1" transform="translate(29 40)" fill="#60a917"/>
        <path id="Path-4" data-name="Path" d="M33,5V7a2.006,2.006,0,0,1-2,2H17a2.006,2.006,0,0,1-2-2V5a1,1,0,0,1,1-1h2V3a2.006,2.006,0,0,1,2-2h8a2.006,2.006,0,0,1,2,2V4h2A1,1,0,0,1,33,5Z" fill="#7f8e94" fill-rule="evenodd"/>
        <path id="Path-5" data-name="Path" d="M32,4H30V3a2.006,2.006,0,0,0-2-2H25a2.006,2.006,0,0,1,2,2V4h2a1,1,0,0,1,1,1V7a2.006,2.006,0,0,1-2,2h3a2.006,2.006,0,0,0,2-2V5A1,1,0,0,0,32,4Z" fill="#545c60" fill-rule="evenodd"/>
        <g id="Grupo_1107461" data-name="Grupo 1107461">
          <path id="Shape" d="M44,60a4,4,0,0,0,4-4V8a4,4,0,0,0-4-4H33.722A1.993,1.993,0,0,0,32,3H31a3,3,0,0,0-3-3H20a3,3,0,0,0-3,3H16a1.993,1.993,0,0,0-1.722,1H4A4,4,0,0,0,0,8V56a4,4,0,0,0,4,4ZM17,10H42V54H6V10Zm1-5a1,1,0,0,0,1-1V3a1,1,0,0,1,1-1h8a1,1,0,0,1,1,1V4a1,1,0,0,0,1,1h2V7a1,1,0,0,1-1,1H17a1,1,0,0,1-1-1V5ZM2,56V8A2,2,0,0,1,4,6H14V7a2.966,2.966,0,0,0,.184,1H6a2,2,0,0,0-2,2V54a2,2,0,0,0,2,2H42a2,2,0,0,0,2-2V10a2,2,0,0,0-2-2H33.816A2.966,2.966,0,0,0,34,7V6H44a2,2,0,0,1,2,2V56a2,2,0,0,1-2,2H4A2,2,0,0,1,2,56Z"/>
          <circle id="Oval-4" data-name="Oval" cx="1" cy="1" r="1" transform="translate(14 29)"/>
          <circle id="Oval-5" data-name="Oval" cx="1" cy="1" r="1" transform="translate(18 29)"/>
          <circle id="Oval-6" data-name="Oval" cx="1" cy="1" r="1" transform="translate(14 17)"/>
          <circle id="Oval-7" data-name="Oval" cx="1" cy="1" r="1" transform="translate(18 17)"/>
          <circle id="Oval-8" data-name="Oval" cx="1" cy="1" r="1" transform="translate(14 41)"/>
          <circle id="Oval-9" data-name="Oval" cx="1" cy="1" r="1" transform="translate(18 41)"/>
          <path id="Path-6" data-name="Path" d="M18,33H16a1,1,0,0,0,0,2h2a1,1,0,0,0,0-2Z" fill-rule="evenodd"/>
          <path id="Shape-2" data-name="Shape" d="M10,44a7,7,0,1,0,10.587-6,6.98,6.98,0,0,0,0-12,7,7,0,1,0-7.174,0,6.98,6.98,0,0,0,0,12A7,7,0,0,0,10,44Zm2-24a5,5,0,1,1,5,5A5,5,0,0,1,12,20Zm0,12a5,5,0,1,1,5,5A5,5,0,0,1,12,32ZM22,44a5,5,0,1,1-5-5A5,5,0,0,1,22,44Z"/>
          <path id="Shape-3" data-name="Shape" d="M30,25h6a2,2,0,0,0,2-2V17.762l1.768-2.121a1,1,0,0,0-1.536-1.282l-.939,1.128A1.985,1.985,0,0,0,36,15H30a2,2,0,0,0-2,2v6a2,2,0,0,0,2,2Zm0-8h6v.038l-2.067,2.481-.226-.226a1,1,0,0,0-1.414,1.414l1,1A1,1,0,0,0,34,22h.045a1,1,0,0,0,.723-.358L36,20.161V23H30Z"/>
          <path id="Shape-4" data-name="Shape" d="M30,37h6a2,2,0,0,0,2-2V29.762l1.768-2.121a1,1,0,1,0-1.536-1.282l-.939,1.128A1.985,1.985,0,0,0,36,27H30a2,2,0,0,0-2,2v6a2,2,0,0,0,2,2Zm0-8h6v.038l-2.067,2.481-.226-.226a1,1,0,0,0-1.414,1.414l1,1A1,1,0,0,0,34,34h.045a1,1,0,0,0,.723-.358L36,32.161V35H30Z"/>
          <path id="Shape-5" data-name="Shape" d="M30,49h6a2,2,0,0,0,2-2V41.762l1.768-2.121a1,1,0,1,0-1.536-1.282l-.939,1.128A1.985,1.985,0,0,0,36,39H30a2,2,0,0,0-2,2v6a2,2,0,0,0,2,2Zm0-8h6v.038l-2.067,2.481-.226-.226a1,1,0,0,0-1.414,1.414l1,1A1,1,0,0,0,34,46h.045a1,1,0,0,0,.723-.358L36,44.161V47H30Z"/>
          <path id="Path-7" data-name="Path" d="M14.4,45.5a1,1,0,0,0,1.731,1,1.044,1.044,0,0,1,1.734,0,1,1,0,0,0,1.731-1,3,3,0,0,0-5.2,0Z" fill-rule="evenodd"/>
          <path id="Path-8" data-name="Path" d="M19.234,20.135a1,1,0,0,0-1.367.364,1.044,1.044,0,0,1-1.734,0,1,1,0,0,0-1.731,1,3,3,0,0,0,5.2,0,1,1,0,0,0-.368-1.364Z" fill-rule="evenodd"/>
        </g>
      </g>
    </g>
  </g>
</svg>
