<svg xmlns="http://www.w3.org/2000/svg" xmlns:xlink="http://www.w3.org/1999/xlink" width="400" height="147" viewBox="0 0 400 147">
  <defs>
    <clipPath id="clip-path">
      <rect id="Rectángulo_402345" data-name="Rectángulo 402345" width="154.302" height="141.08" fill="none"/>
    </clipPath>
    <clipPath id="clip-path-2">
      <rect id="Rectángulo_402344" data-name="Rectángulo 402344" width="154.302" height="141.08" fill="none" style="mix-blend-mode: multiply;isolation: isolate"/>
    </clipPath>
    <clipPath id="clip-path-3">
      <rect id="Rectángulo_402341" data-name="Rectángulo 402341" width="22.231" height="1.121" fill="none"/>
    </clipPath>
    <clipPath id="clip-path-4">
      <rect id="Rectángulo_402342" data-name="Rectángulo 402342" width="22.33" height="34.841" fill="none"/>
    </clipPath>
    <clipPath id="clip-path-5">
      <rect id="Rectángulo_402343" data-name="Rectángulo 402343" width="7.828" height="46.907" fill="none"/>
    </clipPath>
  </defs>
  <g id="_1" data-name="1" transform="translate(-180.051 -389)">
    <g id="Grupo_1101738" data-name="Grupo 1101738" transform="translate(0 36.766)">
      <rect id="Rectángulo_402393" data-name="Rectángulo 402393" width="400" height="110" rx="13" transform="translate(180.051 389.234)" fill="#10314b"/>
    </g>
    <g id="Grupo_1107348" data-name="Grupo 1107348" transform="translate(210.637 394.92)">
      <g id="Enmascarar_grupo_1107347" data-name="Enmascarar grupo 1107347" clip-path="url(#clip-path)">
        <g id="Grupo_1107346" data-name="Grupo 1107346">
          <g id="Grupo_1107345" data-name="Grupo 1107345" clip-path="url(#clip-path-2)">
            <path id="Trazado_879311" data-name="Trazado 879311" d="M1.036,119.06c0,1.808,35.975,3.274,76.549,3.274s76.549-1.466,76.549-3.274-35.975-3.274-76.549-3.274S1.036,117.252,1.036,119.06" transform="translate(0.168 18.746)" fill="#7da0b6" opacity="0.47" style="mix-blend-mode: multiply;isolation: isolate"/>
            <path id="Trazado_879312" data-name="Trazado 879312" d="M23.406,61.773v9.791c0,3.851,2.765,6.975,6.174,6.975H131.992v-3.3h-3.91V58.1h3.91v-3.3H29.58a5.962,5.962,0,0,0-4.874,2.69,7.558,7.558,0,0,0-1.3,4.289" transform="translate(3.789 8.871)" fill="#508be2"/>
            <path id="Trazado_879313" data-name="Trazado 879313" d="M67.624,78.537h57.665v-3.3h-3.909V58.1h3.909V54.8H67.624a26.325,26.325,0,0,0,0,23.741" transform="translate(10.492 8.871)" fill="#64abff"/>
            <path id="Trazado_879314" data-name="Trazado 879314" d="M121.9,57.767v17.19H69.169a20.028,20.028,0,0,1,0-17.19Z" transform="translate(10.885 9.352)" fill="#fff"/>
            <path id="Trazado_879315" data-name="Trazado 879315" d="M118.909,59.943v1.516H86.022c-.447,0-.447-1.516,0-1.516Z" transform="translate(13.873 9.705)" fill="#c5d0dd"/>
            <path id="Trazado_879316" data-name="Trazado 879316" d="M119.829,64.73v1.516H80.675c-.9,0-.9-1.516,0-1.516Z" transform="translate(12.952 10.48)" fill="#c5d0dd"/>
            <path id="Trazado_879317" data-name="Trazado 879317" d="M0,81.633V95.485c0,3.537,2.536,6.4,5.668,6.4H131.629v-3.03h-3.588v-20.6h3.588V75.231H5.668C2.536,75.231,0,78.1,0,81.633" transform="translate(0 12.18)" fill="#46a585"/>
            <path id="Trazado_879318" data-name="Trazado 879318" d="M57.173,101.886h65.709v-3.03h-3.588v-20.6h3.588V75.231H57.173s-7.077,13.332,0,26.655" transform="translate(8.747 12.18)" fill="#4abc93"/>
            <path id="Trazado_879319" data-name="Trazado 879319" d="M119.848,77.784V98.513H59.205a22.977,22.977,0,0,1,0-20.729Z" transform="translate(9.185 12.593)" fill="#fff"/>
            <path id="Trazado_879320" data-name="Trazado 879320" d="M112.286,83.006v1.516h-8.505c-.448,0-.448-1.516,0-1.516Z" transform="translate(16.748 13.439)" fill="#c5d0dd"/>
            <path id="Trazado_879321" data-name="Trazado 879321" d="M114.483,89.1v1.516H90.543c-.895,0-.895-1.516,0-1.516Z" transform="translate(14.55 14.425)" fill="#c5d0dd"/>
            <path id="Trazado_879322" data-name="Trazado 879322" d="M142.062,118.616h3.91v3.3H17.347c-3.412,0-6.18-3.122-6.18-6.976v-9.789a7.5,7.5,0,0,1,1.3-4.285,5.954,5.954,0,0,1,4.876-2.69H145.972v3.3h-3.91Z" transform="translate(1.808 15.894)" fill="#464977"/>
            <path id="Trazado_879323" data-name="Trazado 879323" d="M136.021,98.171v3.3h-3.91v17.144h3.91v3.3H75.436a26.33,26.33,0,0,1,0-23.741Z" transform="translate(11.757 15.894)" fill="#5d5e8b"/>
            <path id="Trazado_879324" data-name="Trazado 879324" d="M132.589,118.159v.022H76.979a20.023,20.023,0,0,1,0-17.188h54.741v17.166Z" transform="translate(12.149 16.351)" fill="#fff"/>
            <g id="Grupo_1107338" data-name="Grupo 1107338" transform="translate(113.114 128.951)" opacity="0.5">
              <g id="Grupo_1107337" data-name="Grupo 1107337">
                <g id="Grupo_1107336" data-name="Grupo 1107336" clip-path="url(#clip-path-3)">
                  <path id="Trazado_879325" data-name="Trazado 879325" d="M97.832,110.983H119.1c.639,0,.64,1.121,0,1.121H97.832c-.639,0-.639-1.121,0-1.121" transform="translate(-97.353 -110.983)" fill="#c5d0dd"/>
                </g>
              </g>
            </g>
            <path id="Trazado_879326" data-name="Trazado 879326" d="M127.055,104.764v1.011H104.2c-.446,0-.446-1.011,0-1.011Z" transform="translate(16.815 16.961)" fill="#c5d0dd"/>
            <g id="Grupo_1107341" data-name="Grupo 1107341" transform="translate(103.101 64.22)" style="mix-blend-mode: multiply;isolation: isolate">
              <g id="Grupo_1107340" data-name="Grupo 1107340">
                <g id="Grupo_1107339" data-name="Grupo 1107339" clip-path="url(#clip-path-4)">
                  <path id="Trazado_879327" data-name="Trazado 879327" d="M111.065,90.071s-4.519.778-2.922-4.368c0,0-8.707-4-19.408-23.438V55.272l6.959,4.39s15.359,21.328,15.372,30.409" transform="translate(-88.735 -55.272)" fill="#c5d0dd"/>
                </g>
              </g>
            </g>
            <g id="Grupo_1107344" data-name="Grupo 1107344" transform="translate(88.189 61.545)" style="mix-blend-mode: multiply;isolation: isolate">
              <g id="Grupo_1107343" data-name="Grupo 1107343">
                <g id="Grupo_1107342" data-name="Grupo 1107342" clip-path="url(#clip-path-5)">
                  <path id="Trazado_879328" data-name="Trazado 879328" d="M78.758,99.876s-2.526-.677-.653-4.929a105.411,105.411,0,0,1-.691-39.409l6.042-2.569s1.976,38.964-4.7,46.907" transform="translate(-75.9 -52.969)" fill="#c5d0dd"/>
                </g>
              </g>
            </g>
            <path id="Trazado_879329" data-name="Trazado 879329" d="M63.66,1.759A6.263,6.263,0,0,0,56.986.424,6.338,6.338,0,0,0,52.991,5.99c-.036,1.014.178,2.025.12,3.038-.122,2.127-1.412,3.993-2.737,5.663s-2.776,3.344-3.324,5.4c-.916,3.439,1.062,7.2,4.069,9.11s6.8,2.206,10.315,1.673c3.4-.515,5.937-1.522,8.179-4.126s3.968-7.584,1.148-9.547c-8.534-5.942-3.4-15.044-7.1-15.446" transform="translate(7.581 0)" fill="#c94b5a"/>
            <path id="Trazado_879330" data-name="Trazado 879330" d="M56.734,7.3a24.27,24.27,0,0,1,.667,2.829c.052.289.1.573.132.857.01.056.02.122.024.179a18.143,18.143,0,0,1,.217,2.532v.7c0,.194-.014.388-.019.587q-.03.709-.1,1.42c1.022.984,1.9,1.779,2.65,2.418.109.009.217.019.331.023A5.372,5.372,0,0,0,63.9,17.9c-.194-.5-.383-.9-.459-1.07a.277.277,0,0,1-.028-.057.172.172,0,0,1-.015-.023,13.178,13.178,0,0,1-1.164-2.607.066.066,0,0,1-.009-.028c-.019-.052-.033-.1-.051-.162-.038-.128-.077-.26-.114-.393-.076-.251-.137-.5-.2-.752,0-.029-.015-.057-.02-.081-.08-.336-.156-.667-.222-1.007-.023-.089-.038-.185-.057-.279-.057-.289-.109-.582-.151-.871a1.442,1.442,0,0,0-.024-.156c-.033-.237-.066-.478-.089-.719a13.557,13.557,0,0,0-4.562-2.4" transform="translate(9.185 1.182)" fill="#ffa49c"/>
            <path id="Trazado_879331" data-name="Trazado 879331" d="M57.861,10.142a5.394,5.394,0,0,0,4.133,3.38c-.041-.13-.078-.261-.116-.4-.073-.247-.137-.5-.2-.752,0-.027-.013-.056-.017-.08-.084-.333-.159-.666-.225-1.009-.022-.087-.038-.184-.056-.278-.058-.288-.106-.579-.149-.868-.008-.052-.016-.1-.023-.157Z" transform="translate(9.368 1.616)" fill="#f07784"/>
            <path id="Trazado_879332" data-name="Trazado 879332" d="M64.563,11.656c-.74,1.15-2.779,1.466-4.111,1.153a5.251,5.251,0,0,1-3.05-2.051c-.048-.064-.1-.128-.148-.194-.024-.159-.055-.32-.094-.48-.1-.425-.253-.845-.393-1.262a4.929,4.929,0,0,1-.35-2.146,3.646,3.646,0,0,1,1.356-2.249,29.588,29.588,0,0,1,3.782-2.058.191.191,0,0,1,.257.107l.61,1.6a6.512,6.512,0,0,0,.263.694c.51,1.156,1.259,2.2,1.727,3.375s.831,2.445.151,3.51" transform="translate(9.13 0.381)" fill="#ffa49c"/>
            <path id="Trazado_879333" data-name="Trazado 879333" d="M56.884,7.678c-.089-.252-.243-.529-.507-.57a.679.679,0,0,0-.627.4A1.664,1.664,0,0,0,57.765,9.9c-.251-.737-.622-1.491-.881-2.225" transform="translate(8.991 1.15)" fill="#ffa49c"/>
            <path id="Trazado_879334" data-name="Trazado 879334" d="M61.013,7.383c0,.04.1.059.243.014a.855.855,0,0,0,.471-.358.883.883,0,0,0,.137-.4.6.6,0,0,0-.065-.376c-.026-.037-.045-.05-.067-.041a.045.045,0,0,0-.027.019,2.3,2.3,0,0,0-.078.279,1.333,1.333,0,0,1-.129.307.129.129,0,0,1-.021.037,1.413,1.413,0,0,1-.325.357c-.088.074-.149.123-.138.162" transform="translate(9.878 1.007)" fill="#dc6478"/>
            <path id="Trazado_879335" data-name="Trazado 879335" d="M60.458,8.134a4.181,4.181,0,0,0,2.159-.7.241.241,0,0,1,.36.146c.617,2.679-1.845,2.129-2.626.9-.1-.164-.088-.339.107-.345" transform="translate(9.76 1.198)" fill="#fff"/>
            <path id="Trazado_879336" data-name="Trazado 879336" d="M75.664,16.159s6.028-3.173,6.686,2.628H76.058Z" transform="translate(12.25 2.476)" fill="#ffa49c"/>
            <path id="Trazado_879337" data-name="Trazado 879337" d="M85.442,20.478a4.976,4.976,0,0,0,6.8-1.355c-1.8-.062-3.616-.092-5.414-.153a1.552,1.552,0,0,0-.823.121c-.426.239-.505.9-.56,1.387" transform="translate(13.833 3.07)" fill="#fa7e7c"/>
            <path id="Trazado_879338" data-name="Trazado 879338" d="M62.715,18.436a8.05,8.05,0,0,0,.692,1.859c.146.3.328.619.581,1.031.2.328.433.665.744,1.082a21.149,21.149,0,0,0,1.954,2.27,27.67,27.67,0,0,0,2.553,2.282,35.362,35.362,0,0,0,3.1,2.186c1.127.7,2.321,1.375,3.561,1.989l.135.073a2.672,2.672,0,0,0,1.273.366,2.81,2.81,0,0,0,1.036-.163,2.962,2.962,0,0,0,.665-.367l1.048-.783.338-.27.451-.367c2.969-1.909,10.31-10.039,10.31-10.039l-1.426-1.279-.107-.1L77.5,25.235c-.433-.382-.874-.771-1.341-1.189C75.566,23.518,75,23,74.451,22.5c-.237-.208-.462-.417-.688-.625-.039-.04-.079-.073-.113-.107-.27-.243-.529-.48-.783-.71q-.769-.711-1.476-1.33c-.653-.58-1.313-1.149-2.039-1.723-.3-.254-.609-.474-.941-.722-.293-.214-.575-.4-.89-.615a11.052,11.052,0,0,0-1.628-.873,4.13,4.13,0,0,0-1.392-.332h-.039a1.823,1.823,0,0,0-1.189.354,1.73,1.73,0,0,0-.625,1.093,3.728,3.728,0,0,0,.067,1.527" transform="translate(10.134 2.503)" fill="#fa7e7c"/>
            <path id="Trazado_879339" data-name="Trazado 879339" d="M63.161,14.775S67.544,15.32,73.173,21c0,0,.386,3.512-3.512,6.808Z" transform="translate(10.226 2.392)" fill="#9fd0cc"/>
            <path id="Trazado_879340" data-name="Trazado 879340" d="M56.139,28.642c.033.048.071.1.109.151.113.157.231.322.354.5s.242.34.354.521a.544.544,0,0,0,.038.057c3.53,5.527,4.089,15.658,4.089,15.658,3.251,3.62,13.7-.023,13.7-.023-2.153-3.2-2.295-9.536-2.295-9.536a47.079,47.079,0,0,0-.591-9.473c-1.477-8.376-5.2-10.836-6.511-11.456-.142-.062-.294-.119-.445-.175a.062.062,0,0,0-.023,0,.117.117,0,0,0-.043-.009,9.258,9.258,0,0,0-1.411-.156c-1.77-.057-3.288-.507-5.053-.407-.034,0-.071,0-.1.009a4.845,4.845,0,0,0-.993.189.5.5,0,0,0-.062,0c-.123.009-.246.023-.364.037a.132.132,0,0,0-.043,0c-1.926.266-8.826,2.082-.71,14.111" transform="translate(8.464 2.311)" fill="#9fd0cc"/>
            <path id="Trazado_879341" data-name="Trazado 879341" d="M69.482,28.273a27.15,27.15,0,0,0-1.555-7.265c-.117-.331.409-.473.524-.145a27.611,27.611,0,0,1,1.574,7.411c.022.35-.523.349-.544,0" transform="translate(10.995 3.348)" fill="#5d8884"/>
            <path id="Trazado_879342" data-name="Trazado 879342" d="M59,25.924s3.46,4.131,12.4,8.342a47.362,47.362,0,0,0-.588-9.474Z" transform="translate(9.552 4.014)" fill="#5d8884"/>
            <path id="Trazado_879343" data-name="Trazado 879343" d="M105.438,80.293a3.443,3.443,0,0,1,.892,1.735c.321,1.343.3,2.9,1.271,3.855s2.495.9,3.851.93c1.806.034,3.605.32,5.407.214A6.946,6.946,0,0,0,121.732,85a1.156,1.156,0,0,0,.371-1.061c-.178-.557-.932-.6-1.52-.572a16.61,16.61,0,0,1-3.854-.271,17.161,17.161,0,0,1-9.387-5.127c-.593.844-1.312,1.473-1.9,2.321" transform="translate(17.07 12.624)" fill="#ffa49c"/>
            <path id="Trazado_879344" data-name="Trazado 879344" d="M106.206,81.463c.321,1.343.3,2.9,1.271,3.855s2.495.9,3.851.93c1.806.034,3.605.321,5.407.214a6.946,6.946,0,0,0,4.873-2.024,1.156,1.156,0,0,0,.371-1.061c-.178-.557-.932-.6-1.52-.572a16.547,16.547,0,0,1-3.854-.271,5.148,5.148,0,0,1-3.2,1.556,8.137,8.137,0,0,1-4.3-.855,19.634,19.634,0,0,1-2.9-1.772" transform="translate(17.195 13.189)" fill="#3e3e63"/>
            <path id="Trazado_879345" data-name="Trazado 879345" d="M79.467,88.8a3.173,3.173,0,0,1-.17,1.789c-.419,1.2-1.211,2.4-.93,3.625s1.488,1.938,2.526,2.635c1.385.924,2.639,2.04,4.091,2.855a6.4,6.4,0,0,0,4.788.85,1.06,1.06,0,0,0,.814-.639c.139-.519-.424-.93-.895-1.2a15.259,15.259,0,0,1-2.857-2.125A15.823,15.823,0,0,1,82.1,87.944c-.878.36-1.751.491-2.632.855" transform="translate(12.678 14.238)" fill="#ffa49c"/>
            <path id="Trazado_879346" data-name="Trazado 879346" d="M79.3,90.221c-.418,1.2-1.211,2.4-.93,3.624s1.488,1.939,2.526,2.636c1.385.924,2.639,2.04,4.091,2.854a6.4,6.4,0,0,0,4.788.852,1.062,1.062,0,0,0,.815-.639c.139-.521-.424-.931-.895-1.2a15.3,15.3,0,0,1-2.857-2.126,4.746,4.746,0,0,1-3.253-.381,7.5,7.5,0,0,1-2.913-2.8A18.108,18.108,0,0,1,79.3,90.221" transform="translate(12.678 14.607)" fill="#3e3e63"/>
            <path id="Trazado_879347" data-name="Trazado 879347" d="M64.382,56.175c.194.065.392.124.595.184.367.109.749.208,1.156.293l.209.044c.208.041.416.08.634.12.382.064.78.124,1.191.173,2.109.249,4.773.358,7.77.422,2.288.045,4.778.07,7.363.1,0,0-4.664,22.327-1.5,39.657l4.222-.605s2.863-17.921,7.636-31.992c.323-.942.645-1.86.983-2.758.247.541,8.087,17.48,18.169,25.313l4.043-2.291s-11.516-22.456-16.075-37.37A6.662,6.662,0,0,0,95.1,42.813c-5.344-.565-14.577-1.423-23.21-1.711a117.474,117.474,0,0,0-11.789.094,17.8,17.8,0,0,0-1.628,4.987c-.575,3.547.06,8.023,5.9,9.992" transform="translate(9.44 6.638)" fill="#364f8a"/>
            <path id="Trazado_879348" data-name="Trazado 879348" d="M58.455,46.183A65.15,65.15,0,0,1,71.871,41.1a117.47,117.47,0,0,0-11.789.094,17.751,17.751,0,0,0-1.628,4.987" transform="translate(9.464 6.638)" fill="#223759"/>
            <path id="Trazado_879349" data-name="Trazado 879349" d="M63.536,54.993c2.3.967,5.163,1.22,11.555,1.235l.278-.278c1.162-1.161,5.131-3.2,12.235-6.242,1.793-.767,4.58-1.334,5.726.933a8.907,8.907,0,0,1,.68,4.059c0,2.942-.481,6.887-.208,5.949a20.171,20.171,0,0,0,.813-7.363c-.149-1.761-.669-3.984-2.56-4.748-1.4-.561-2.848.024-4.172.421-1.91.576-3.811,1.162-5.717,1.742q-4.584,1.393-9.173,2.789c-3.3.853-6.132,1.788-9.457,1.5" transform="translate(10.286 7.821)" fill="#223759"/>
            <path id="Trazado_879350" data-name="Trazado 879350" d="M57.136,14.458c1.022.984,1.9,1.779,2.65,2.418,5.266,4.448,4.368,1.055,3.591-.913-.194-.5-.383-.9-.459-1.069a.291.291,0,0,1-.029-.057.184.184,0,0,1-.014-.024,4.528,4.528,0,0,0-5.74-.354" transform="translate(9.25 2.2)" fill="#ffa49c"/>
            <path id="Trazado_879351" data-name="Trazado 879351" d="M103.977,3.5H82.166a1.146,1.146,0,0,0-1.138,1.012L79.308,20.543h24.116l1.689-15.761A1.145,1.145,0,0,0,103.977,3.5" transform="translate(12.84 0.567)" fill="#272744"/>
            <path id="Trazado_879352" data-name="Trazado 879352" d="M71.9,18.17a.607.607,0,0,0-.606.607v.531a.607.607,0,0,0,.606.607h33.072a.607.607,0,0,0,.607-.607V18.17Z" transform="translate(11.542 2.942)" fill="#393963"/>
            <path id="Trazado_879353" data-name="Trazado 879353" d="M71.9,18.17a.607.607,0,0,0-.606.607v.531a.607.607,0,0,0,.606.607h9.562V18.17Z" transform="translate(11.542 2.942)" fill="#272744"/>
            <path id="Trazado_879354" data-name="Trazado 879354" d="M104.712,3.5H82.9a1.145,1.145,0,0,0-1.138,1.012L80.043,20.543h24.116l1.689-15.761A1.145,1.145,0,0,0,104.712,3.5" transform="translate(12.959 0.567)" fill="#4a4a84"/>
            <path id="Trazado_879355" data-name="Trazado 879355" d="M93.831,12.217h-5l.228-2.007h5Z" transform="translate(14.382 1.653)" fill="#fff"/>
            <path id="Trazado_879356" data-name="Trazado 879356" d="M82.377,6.013C81.97,9.877,81.41,14.869,81,18.734c-.045.439.641.436.687,0,.407-3.866.967-8.857,1.373-12.722.046-.439-.641-.436-.687,0" transform="translate(13.114 0.92)" fill="#6363aa"/>
            <path id="Trazado_879357" data-name="Trazado 879357" d="M59,27.34c.935.676,1.887,1.29,2.828,1.843,1.206.692,2.478,1.363,3.8,1.954l.141.079a2.86,2.86,0,0,0,2.423.129,3.064,3.064,0,0,0,.682-.405L79.956,18.512l-.2-.315-1.392-2.159S67.444,24.63,67.089,24.906c-.468-.378-.935-.771-1.437-1.194-.637-.534-1.244-1.053-1.842-1.566-.253-.208-.5-.422-.733-.625-.044-.04-.089-.079-.129-.119-.287-.242-.569-.473-.845-.709A21.484,21.484,0,0,1,59,27.34" transform="translate(9.552 2.597)" fill="#ffa49c"/>
            <path id="Trazado_879358" data-name="Trazado 879358" d="M57.637,5.227a1.753,1.753,0,0,1,1.225-.754c.152-.008.178.178-.01.271a3.915,3.915,0,0,0-1.091.687c-.182.159-.336.03-.123-.2" transform="translate(9.315 0.724)" fill="#c94b5a"/>
            <path id="Trazado_879359" data-name="Trazado 879359" d="M61.962,3.418a1.761,1.761,0,0,0-1.376.424c-.106.109.016.251.21.171a3.946,3.946,0,0,1,1.236-.368c.239-.031.244-.231-.071-.227" transform="translate(9.803 0.553)" fill="#c94b5a"/>
            <path id="Trazado_879360" data-name="Trazado 879360" d="M61.317,4.815a.2.2,0,0,1,.278-.027.654.654,0,0,1,.2.565.2.2,0,0,1-.229.159.188.188,0,0,1-.113-.067.53.53,0,0,1-.136-.63" transform="translate(9.918 0.768)" fill="#4c3e42"/>
            <path id="Trazado_879361" data-name="Trazado 879361" d="M58.626,5.864a.2.2,0,0,1,.278-.027.654.654,0,0,1,.2.565.2.2,0,0,1-.229.159.188.188,0,0,1-.113-.067.53.53,0,0,1-.136-.63" transform="translate(9.482 0.938)" fill="#4c3e42"/>
            <path id="Trazado_879362" data-name="Trazado 879362" d="M62.826,3.733a1.219,1.219,0,0,0-.174-.036.772.772,0,0,0-.114-.012,1.287,1.287,0,0,0-.438.056,1.129,1.129,0,0,0-.23.1.86.86,0,0,0-.143.088,1.53,1.53,0,0,0-.587,1.321.7.7,0,0,0-.748.308A1.53,1.53,0,0,0,58.8,5.026c-.019,0-.037.009-.056.014a1.552,1.552,0,0,0-.834.624,1.57,1.57,0,0,0-.232,1.221,2.465,2.465,0,0,0-.713.4,2.665,2.665,0,0,0-.559.532c-.051.136.17.186.22.052.034-.094.209-.209.239-.236a2.64,2.64,0,0,1,.88-.533,1.561,1.561,0,0,0,2.949-1.02,1.819,1.819,0,0,0-.156-.321c.006-.014.012-.029.015-.035a.66.66,0,0,1,.1-.142.459.459,0,0,1,.516-.1,1.559,1.559,0,0,0,.04.162,1.513,1.513,0,0,0,1.728,1.1,1.256,1.256,0,0,0,.835-.651,1.826,1.826,0,0,0,.131-1.27,1.731,1.731,0,0,0-1.075-1.093M57.919,6.922a1.337,1.337,0,0,1,2.557-.776,1.337,1.337,0,0,1-2.557.776m5.717-1.061a1.065,1.065,0,0,1-.695.652,1.276,1.276,0,0,1-1.519-.935,1.6,1.6,0,0,1-.045-.2.047.047,0,0,0,0-.026,1.3,1.3,0,0,1,.567-1.3,1.082,1.082,0,0,1,.224-.1l.084-.021a1.03,1.03,0,0,1,.38-.015.613.613,0,0,1,.078.015c.023,0,.045.012.067.017a1.487,1.487,0,0,1,.911.94,1.632,1.632,0,0,1-.049.97" transform="translate(9.131 0.596)" fill="#4c3e42"/>
          </g>
        </g>
      </g>
    </g>
    <g id="matematicas_3_" data-name="matematicas (3)" transform="translate(394.701 388)">
      <g id="Grupo_1101389" data-name="Grupo 1101389" transform="translate(2.55 1)">
        <g id="Grupo_1101347" data-name="Grupo 1101347" transform="translate(1.07 1.092)">
          <path id="Trazado_878800" data-name="Trazado 878800" d="M83.079,11.78H7.417A4.38,4.38,0,0,0,3.05,16.147v88.479L25.323,126.9H83.079a4.38,4.38,0,0,0,4.367-4.367V16.147a4.366,4.366,0,0,0-4.367-4.367Z" transform="translate(-3.028 10.667)" fill="#e7e7e7"/>
          <g id="Grupo_1101325" data-name="Grupo 1101325" transform="translate(0 55.878)" opacity="0.1">
            <path id="Trazado_878801" data-name="Trazado 878801" d="M80.885,27.09V40.1a62.13,62.13,0,0,1-62.123,62.123L3.04,86.506l22.273,22.273H83.091a4.38,4.38,0,0,0,4.367-4.367V27.09Z" transform="translate(-3.04 -27.09)"/>
          </g>
          <path id="Trazado_878802" data-name="Trazado 878802" d="M0,0H11.77V11.77H0Z" transform="translate(21.454 89.634) rotate(180)" fill="#f38177"/>
          <path id="Trazado_878803" data-name="Trazado 878803" d="M0,0H11.77V11.77H0Z" transform="translate(21.454 107.293) rotate(180)" fill="#f38177"/>
          <path id="Trazado_878804" data-name="Trazado 878804" d="M89.556,1.5H37.477A4.38,4.38,0,0,0,33.11,5.867V77.576a4.38,4.38,0,0,0,4.367,4.367H89.556a4.38,4.38,0,0,0,4.367-4.367V5.867A4.38,4.38,0,0,0,89.556,1.5Z" transform="translate(32.551 -1.5)" fill="#3d5670"/>
          <g id="Grupo_1101326" data-name="Grupo 1101326" transform="translate(65.661)" opacity="0.1">
            <path id="Trazado_878805" data-name="Trazado 878805" d="M89.556,1.5V73.187a4.38,4.38,0,0,1-4.367,4.367H33.11a4.38,4.38,0,0,0,4.367,4.367H89.556a4.38,4.38,0,0,0,4.367-4.367V5.867A4.38,4.38,0,0,0,89.556,1.5Z" transform="translate(-33.11 -1.5)"/>
          </g>
          <path id="Trazado_878806" data-name="Trazado 878806" d="M36.11,4.5H83.822V24.873H36.11Z" transform="translate(36.101 2.051)" fill="#55a6ef"/>
          <g id="Grupo_1101327" data-name="Grupo 1101327" transform="translate(72.211 6.551)" opacity="0.1">
            <path id="Trazado_878807" data-name="Trazado 878807" d="M79.454,4.5A16,16,0,0,1,63.449,20.506H36.11v4.367H83.822V4.5Z" transform="translate(-36.11 -4.5)"/>
          </g>
          <g id="Grupo_1101328" data-name="Grupo 1101328" transform="translate(72.211 44.414)">
            <path id="Trazado_878808" data-name="Trazado 878808" d="M36.11,27h8.734v6.922H36.11Z" transform="translate(-36.11 -15.733)" fill="#d8d8d8"/>
            <path id="Trazado_878809" data-name="Trazado 878809" d="M36.11,32.17h8.734v6.922H36.11Z" transform="translate(-36.11 -9.613)" fill="#d8d8d8"/>
            <path id="Trazado_878810" data-name="Trazado 878810" d="M42.03,27h8.734v6.922H42.03Z" transform="translate(-29.103 -15.733)" fill="#d8d8d8"/>
            <path id="Trazado_878811" data-name="Trazado 878811" d="M42.03,32.17h8.734v6.922H42.03Z" transform="translate(-29.103 -9.613)" fill="#d8d8d8"/>
            <path id="Trazado_878812" data-name="Trazado 878812" d="M47.95,27.09h8.734V45.1H47.95Z" transform="translate(-22.096 -15.626)" fill="#d8d8d8"/>
            <path id="Trazado_878813" data-name="Trazado 878813" d="M53.96,27.09h8.734V45.1H53.96Z" transform="translate(-14.983 -15.626)" fill="#d8d8d8"/>
            <path id="Trazado_878814" data-name="Trazado 878814" d="M36.11,21.84h8.734v6.922H36.11Z" transform="translate(-36.11 -21.84)" fill="#d8d8d8"/>
            <path id="Trazado_878815" data-name="Trazado 878815" d="M42.03,21.84h8.734v6.922H42.03Z" transform="translate(-29.103 -21.84)" fill="#d8d8d8"/>
            <path id="Trazado_878816" data-name="Trazado 878816" d="M47.95,21.84h8.734v6.922H47.95Z" transform="translate(-22.096 -21.84)" fill="#d8d8d8"/>
            <path id="Trazado_878817" data-name="Trazado 878817" d="M53.96,21.84h8.734v6.922H53.96Z" transform="translate(-14.983 -21.84)" fill="#d8d8d8"/>
          </g>
          <path id="Trazado_878818" data-name="Trazado 878818" d="M36.11,16.67h8.734v6.922H36.11Z" transform="translate(36.101 16.455)" fill="#fcb73e"/>
          <path id="Trazado_878819" data-name="Trazado 878819" d="M42.03,16.67h8.734v6.922H42.03Z" transform="translate(43.108 16.455)" fill="#d9903b"/>
          <path id="Trazado_878820" data-name="Trazado 878820" d="M47.95,16.67h8.734v6.922H47.95Z" transform="translate(50.115 16.455)" fill="#fcb73e"/>
          <path id="Trazado_878821" data-name="Trazado 878821" d="M53.96,16.67h8.734v6.922H53.96Z" transform="translate(57.229 16.455)" fill="#d9903b"/>
          <path id="Trazado_878822" data-name="Trazado 878822" d="M20.955,54.3H3.05L25.323,76.573V58.667A4.38,4.38,0,0,0,20.955,54.3Z" transform="translate(-3.028 60.994)" fill="#3d5670"/>
          <path id="Trazado_878823" data-name="Trazado 878823" d="M38.374,54.473h1.245L18.11,15.78v24.7Z" transform="translate(14.797 15.402)" fill="#fcb73e"/>
          <path id="Trazado_878824" data-name="Trazado 878824" d="M29.78,15.78,8.25,54.473H9.495l20.286-14Z" transform="translate(3.127 15.402)" fill="#ffce56"/>
          <path id="Trazado_878825" data-name="Trazado 878825" d="M29.106,27.09l-20.286,14H49.369Z" transform="translate(3.801 28.788)" fill="#d9903b"/>
          <g id="Grupo_1101329" data-name="Grupo 1101329" transform="translate(9.673 95.532)" opacity="0.1">
            <path id="Trazado_878826" data-name="Trazado 878826" d="M17.056,45.25A9.585,9.585,0,0,1,7.47,54.836V57.02H19.24V45.25Z" transform="translate(-7.47 -45.25)"/>
          </g>
          <g id="Grupo_1101330" data-name="Grupo 1101330" transform="translate(9.673 77.889)" opacity="0.1">
            <path id="Trazado_878827" data-name="Trazado 878827" d="M17.056,37.17A9.585,9.585,0,0,1,7.47,46.756V48.94H19.24V37.17Z" transform="translate(-7.47 -37.17)"/>
          </g>
          <g id="Grupo_1101331" data-name="Grupo 1101331" transform="translate(111.189 33.125)" opacity="0.1">
            <path id="Trazado_878828" data-name="Trazado 878828" d="M60.511,16.67a4.734,4.734,0,0,1-4.738,4.738H53.96v2.184h8.734V16.67Z" transform="translate(-53.96 -16.67)"/>
          </g>
          <g id="Grupo_1101332" data-name="Grupo 1101332" transform="translate(98.065 33.125)" opacity="0.1">
            <path id="Trazado_878829" data-name="Trazado 878829" d="M54.5,16.67a4.734,4.734,0,0,1-4.738,4.738H47.95v2.184h8.734V16.67Z" transform="translate(-47.95 -16.67)"/>
          </g>
          <g id="Grupo_1101333" data-name="Grupo 1101333" transform="translate(85.138 33.125)" opacity="0.1">
            <path id="Trazado_878830" data-name="Trazado 878830" d="M48.581,16.67a4.734,4.734,0,0,1-4.738,4.738H42.03v2.184h8.734V16.67Z" transform="translate(-42.03 -16.67)"/>
          </g>
          <g id="Grupo_1101334" data-name="Grupo 1101334" transform="translate(72.211 33.125)" opacity="0.1">
            <path id="Trazado_878831" data-name="Trazado 878831" d="M42.661,16.67a4.734,4.734,0,0,1-4.738,4.738H36.11v2.184h8.734V16.67Z" transform="translate(-36.11 -16.67)"/>
          </g>
          <g id="Grupo_1101335" data-name="Grupo 1101335" transform="translate(111.189 44.414)" opacity="0.1">
            <path id="Trazado_878832" data-name="Trazado 878832" d="M60.511,21.84a4.734,4.734,0,0,1-4.738,4.738H53.96v2.184h8.734V21.84Z" transform="translate(-53.96 -21.84)"/>
          </g>
          <g id="Grupo_1101336" data-name="Grupo 1101336" transform="translate(98.065 44.414)" opacity="0.1">
            <path id="Trazado_878833" data-name="Trazado 878833" d="M54.5,21.84a4.734,4.734,0,0,1-4.738,4.738H47.95v2.184h8.734V21.84Z" transform="translate(-47.95 -21.84)"/>
          </g>
          <g id="Grupo_1101337" data-name="Grupo 1101337" transform="translate(85.138 44.414)" opacity="0.1">
            <path id="Trazado_878834" data-name="Trazado 878834" d="M48.581,21.84a4.734,4.734,0,0,1-4.738,4.738H42.03v2.184h8.734V21.84Z" transform="translate(-42.03 -21.84)"/>
          </g>
          <g id="Grupo_1101338" data-name="Grupo 1101338" transform="translate(72.211 44.414)" opacity="0.1">
            <path id="Trazado_878835" data-name="Trazado 878835" d="M42.661,21.84a4.734,4.734,0,0,1-4.738,4.738H36.11v2.184h8.734V21.84Z" transform="translate(-36.11 -21.84)"/>
          </g>
          <g id="Grupo_1101339" data-name="Grupo 1101339" transform="translate(111.189 55.878)" opacity="0.1">
            <path id="Trazado_878836" data-name="Trazado 878836" d="M60.511,27.09a4.734,4.734,0,0,1-4.738,4.738H53.96V45.1h8.734V27.09Z" transform="translate(-53.96 -27.09)"/>
          </g>
          <g id="Grupo_1101340" data-name="Grupo 1101340" transform="translate(98.065 55.878)" opacity="0.1">
            <path id="Trazado_878837" data-name="Trazado 878837" d="M54.5,27.09a4.734,4.734,0,0,1-4.738,4.738H47.95V45.1h8.734V27.09Z" transform="translate(-47.95 -27.09)"/>
          </g>
          <g id="Grupo_1101341" data-name="Grupo 1101341" transform="translate(85.138 55.682)" opacity="0.1">
            <path id="Trazado_878838" data-name="Trazado 878838" d="M48.581,27a4.734,4.734,0,0,1-4.738,4.738H42.03v2.184h8.734V27Z" transform="translate(-42.03 -27)"/>
          </g>
          <g id="Grupo_1101342" data-name="Grupo 1101342" transform="translate(72.211 55.682)" opacity="0.1">
            <path id="Trazado_878839" data-name="Trazado 878839" d="M42.661,27a4.734,4.734,0,0,1-4.738,4.738H36.11v2.184h8.734V27Z" transform="translate(-36.11 -27)"/>
          </g>
          <g id="Grupo_1101343" data-name="Grupo 1101343" transform="translate(85.138 66.971)" opacity="0.1">
            <path id="Trazado_878840" data-name="Trazado 878840" d="M48.581,32.17a4.734,4.734,0,0,1-4.738,4.738H42.03v2.184h8.734V32.17Z" transform="translate(-42.03 -32.17)"/>
          </g>
          <g id="Grupo_1101344" data-name="Grupo 1101344" transform="translate(72.211 66.971)" opacity="0.1">
            <path id="Trazado_878841" data-name="Trazado 878841" d="M42.661,32.17a4.734,4.734,0,0,1-4.738,4.738H36.11v2.184h8.734V32.17Z" transform="translate(-36.11 -32.17)"/>
          </g>
          <path id="Trazado_878842" data-name="Trazado 878842" d="M47.79,60.6H80.042v8.516H47.79Z" transform="translate(49.926 68.45)" fill="#3d5670"/>
          <path id="Trazado_878843" data-name="Trazado 878843" d="M80.584,52.521a4.065,4.065,0,0,0-4.476,4.04V53.831a4.2,4.2,0,0,0-3.625-4.258,4.065,4.065,0,0,0-4.476,4.04V50.272a4.065,4.065,0,0,0-4.476-4.04,4.2,4.2,0,0,0-3.625,4.258V35.271a4.065,4.065,0,0,0-4.476-4.04A4.2,4.2,0,0,0,51.8,35.489V60.076H48.333a3.284,3.284,0,0,0-3.363,3.166v8.582a7.05,7.05,0,0,0,1.288,4.04l2.817,3.952a26.9,26.9,0,0,1,4.979,15.569L80.519,95.3V90.647a26.992,26.992,0,0,1,1.332-8.341l1.07-3.3a26.992,26.992,0,0,0,1.332-8.341V56.8a4.259,4.259,0,0,0-3.668-4.28Z" transform="translate(46.588 33.665)" fill="#f38177"/>
          <g id="Grupo_1101345" data-name="Grupo 1101345" transform="translate(100.249 86.171)" opacity="0.1">
            <path id="Trazado_878844" data-name="Trazado 878844" d="M75.153,40.978,73.581,57.028A24.84,24.84,0,0,1,48.95,79.453a26.657,26.657,0,0,1,.371,4.389l26.465-.087V79.1a26.992,26.992,0,0,1,1.332-8.341l1.07-3.3a26.992,26.992,0,0,0,1.332-8.341V45.258A4.138,4.138,0,0,0,75.153,40.978Z" transform="translate(-48.95 -40.963)"/>
          </g>
          <g id="Grupo_1101346" data-name="Grupo 1101346" transform="translate(97.716 129.05)" opacity="0.1">
            <path id="Trazado_878845" data-name="Trazado 878845" d="M75.674,60.6a4.147,4.147,0,0,1-4.149,4.149H47.79v4.367H80.042V60.6Z" transform="translate(-47.79 -60.6)"/>
          </g>
        </g>
        <g id="Grupo_1101388" data-name="Grupo 1101388">
          <g id="Grupo_1101348" data-name="Grupo 1101348" transform="translate(97.694 129.05)">
            <path id="Trazado_878846" data-name="Trazado 878846" d="M80.633,70.8a1.081,1.081,0,0,1-1.092-1.092V62.284H49.474v7.424a1.092,1.092,0,0,1-2.184,0V61.192A1.081,1.081,0,0,1,48.382,60.1H80.633a1.081,1.081,0,0,1,1.092,1.092v8.516A1.081,1.081,0,0,1,80.633,70.8Z" transform="translate(-47.29 -60.1)" fill="#1e2e48"/>
          </g>
          <g id="Grupo_1101349" data-name="Grupo 1101349" transform="translate(91.536 64.862)">
            <path id="Trazado_878847" data-name="Trazado 878847" d="M54.624,97.076a1.024,1.024,0,0,1-.764-.328,1.112,1.112,0,0,1-.328-.764,25.743,25.743,0,0,0-4.76-14.936L45.955,77.1a7.98,7.98,0,0,1-1.485-4.673V63.886a4.387,4.387,0,0,1,4.455-4.3H51.3v-23.5a5.331,5.331,0,0,1,4.607-5.35,5,5,0,0,1,3.974,1.31,5.194,5.194,0,0,1,1.7,3.821V46.7a4.823,4.823,0,0,1,2.446-.961,5,5,0,0,1,3.974,1.31,5.234,5.234,0,0,1,1.638,2.992,5.111,5.111,0,0,1,3.559-.961,5.255,5.255,0,0,1,4.455,4,5.061,5.061,0,0,1,3.647-1.026,5.315,5.315,0,0,1,4.629,5.35V71.266a28.033,28.033,0,0,1-1.376,8.691l-1.07,3.3a25.527,25.527,0,0,0-1.266,8.014v4.651a1.081,1.081,0,0,1-1.092,1.092Zm-5.7-35.309a2.222,2.222,0,0,0-2.271,2.074V72.4a5.807,5.807,0,0,0,1.092,3.406l2.817,3.952a27.865,27.865,0,0,1,5.153,15.11l24.3-.087V91.224a27.932,27.932,0,0,1,1.376-8.691l1.07-3.3a25.628,25.628,0,0,0,1.266-8.014V57.357a3.123,3.123,0,0,0-2.642-3.188,2.963,2.963,0,0,0-3.275,2.948,1.092,1.092,0,0,1-2.184,0V54.387A3.123,3.123,0,0,0,72.988,51.2a3.044,3.044,0,0,0-2.293.742,3.009,3.009,0,0,0-.983,2.205,1.092,1.092,0,1,1-2.184,0V50.806a2.965,2.965,0,0,0-.983-2.205,2.933,2.933,0,0,0-2.293-.742,3.123,3.123,0,0,0-2.642,3.188,1.092,1.092,0,1,1-2.184,0V35.826a2.965,2.965,0,0,0-.983-2.205,2.933,2.933,0,0,0-2.293-.742,3.123,3.123,0,0,0-2.642,3.188V68.908a1.092,1.092,0,0,1-2.184,0v-7.14Z" transform="translate(-44.47 -30.704)" fill="#1e2e48"/>
          </g>
          <g id="Grupo_1101350" data-name="Grupo 1101350" transform="translate(0 115.294)">
            <path id="Trazado_878848" data-name="Trazado 878848" d="M25.914,78.256a1.081,1.081,0,0,1-1.092-1.092V59.259a3.271,3.271,0,0,0-3.275-3.275H3.642a1.092,1.092,0,0,1,0-2.184H21.547a5.461,5.461,0,0,1,5.459,5.459V77.164A1.1,1.1,0,0,1,25.914,78.256Z" transform="translate(-2.55 -53.8)" fill="#1e2e48"/>
          </g>
          <g id="Grupo_1101351" data-name="Grupo 1101351" transform="translate(72.19 6.551)">
            <path id="Trazado_878849" data-name="Trazado 878849" d="M84.413,26.557H36.7a1.081,1.081,0,0,1-1.092-1.092V5.092A1.081,1.081,0,0,1,36.7,4H84.413a1.081,1.081,0,0,1,1.092,1.092V25.465A1.081,1.081,0,0,1,84.413,26.557Zm-46.62-2.184H83.322V6.184H37.794Z" transform="translate(-35.61 -4)" fill="#1e2e48"/>
          </g>
          <g id="Grupo_1101352" data-name="Grupo 1101352" transform="translate(72.19 55.682)">
            <path id="Trazado_878850" data-name="Trazado 878850" d="M45.436,35.606H36.7a1.081,1.081,0,0,1-1.092-1.092V27.592A1.081,1.081,0,0,1,36.7,26.5h8.734a1.081,1.081,0,0,1,1.092,1.092v6.922A1.081,1.081,0,0,1,45.436,35.606Zm-7.643-2.184h6.551V28.684H37.794Z" transform="translate(-35.61 -26.5)" fill="#1e2e48"/>
          </g>
          <g id="Grupo_1101353" data-name="Grupo 1101353" transform="translate(72.19 66.971)">
            <path id="Trazado_878851" data-name="Trazado 878851" d="M45.436,40.776H36.7a1.081,1.081,0,0,1-1.092-1.092V32.762A1.081,1.081,0,0,1,36.7,31.67h8.734a1.081,1.081,0,0,1,1.092,1.092v6.922a1.1,1.1,0,0,1-1.092,1.092Zm-7.643-2.184h6.551V33.854H37.794Z" transform="translate(-35.61 -31.67)" fill="#1e2e48"/>
          </g>
          <g id="Grupo_1101354" data-name="Grupo 1101354" transform="translate(85.116 55.682)">
            <path id="Trazado_878852" data-name="Trazado 878852" d="M51.356,35.606H42.622a1.081,1.081,0,0,1-1.092-1.092V27.592A1.081,1.081,0,0,1,42.622,26.5h8.734a1.081,1.081,0,0,1,1.092,1.092v6.922A1.081,1.081,0,0,1,51.356,35.606Zm-7.643-2.184h6.551V28.684H43.714Z" transform="translate(-41.53 -26.5)" fill="#1e2e48"/>
          </g>
          <g id="Grupo_1101355" data-name="Grupo 1101355" transform="translate(72.19 44.392)">
            <path id="Trazado_878853" data-name="Trazado 878853" d="M45.436,30.436H36.7a1.081,1.081,0,0,1-1.092-1.092V22.422A1.081,1.081,0,0,1,36.7,21.33h8.734a1.081,1.081,0,0,1,1.092,1.092v6.922A1.081,1.081,0,0,1,45.436,30.436Zm-7.643-2.184h6.551V23.514H37.794Z" transform="translate(-35.61 -21.33)" fill="#1e2e48"/>
          </g>
          <g id="Grupo_1101356" data-name="Grupo 1101356" transform="translate(85.116 44.392)">
            <path id="Trazado_878854" data-name="Trazado 878854" d="M51.356,30.436H42.622a1.081,1.081,0,0,1-1.092-1.092V22.422a1.081,1.081,0,0,1,1.092-1.092h8.734a1.081,1.081,0,0,1,1.092,1.092v6.922A1.081,1.081,0,0,1,51.356,30.436Zm-7.643-2.184h6.551V23.514H43.714Z" transform="translate(-41.53 -21.33)" fill="#1e2e48"/>
          </g>
          <g id="Grupo_1101357" data-name="Grupo 1101357" transform="translate(98.043 44.392)">
            <path id="Trazado_878855" data-name="Trazado 878855" d="M57.276,30.436H48.542a1.081,1.081,0,0,1-1.092-1.092V22.422a1.081,1.081,0,0,1,1.092-1.092h8.734a1.081,1.081,0,0,1,1.092,1.092v6.922A1.081,1.081,0,0,1,57.276,30.436Zm-7.643-2.184h6.551V23.514H49.634Z" transform="translate(-47.45 -21.33)" fill="#1e2e48"/>
          </g>
          <g id="Grupo_1101358" data-name="Grupo 1101358" transform="translate(111.167 44.392)">
            <path id="Trazado_878856" data-name="Trazado 878856" d="M63.286,30.436H54.552a1.081,1.081,0,0,1-1.092-1.092V22.422a1.081,1.081,0,0,1,1.092-1.092h8.734a1.081,1.081,0,0,1,1.092,1.092v6.922A1.081,1.081,0,0,1,63.286,30.436Zm-7.643-2.184h6.551V23.514H55.644Z" transform="translate(-53.46 -21.33)" fill="#1e2e48"/>
          </g>
          <g id="Grupo_1101359" data-name="Grupo 1101359" transform="translate(72.19 33.125)">
            <path id="Trazado_878857" data-name="Trazado 878857" d="M45.436,25.276H36.7a1.081,1.081,0,0,1-1.092-1.092V17.262A1.081,1.081,0,0,1,36.7,16.17h8.734a1.081,1.081,0,0,1,1.092,1.092v6.922A1.1,1.1,0,0,1,45.436,25.276Zm-7.643-2.184h6.551V18.354H37.794Z" transform="translate(-35.61 -16.17)" fill="#1e2e48"/>
          </g>
          <g id="Grupo_1101360" data-name="Grupo 1101360" transform="translate(85.116 33.125)">
            <path id="Trazado_878858" data-name="Trazado 878858" d="M51.356,25.276H42.622a1.081,1.081,0,0,1-1.092-1.092V17.262a1.081,1.081,0,0,1,1.092-1.092h8.734a1.081,1.081,0,0,1,1.092,1.092v6.922A1.1,1.1,0,0,1,51.356,25.276Zm-7.643-2.184h6.551V18.354H43.714Z" transform="translate(-41.53 -16.17)" fill="#1e2e48"/>
          </g>
          <g id="Grupo_1101361" data-name="Grupo 1101361" transform="translate(98.043 33.125)">
            <path id="Trazado_878859" data-name="Trazado 878859" d="M57.276,25.276H48.542a1.081,1.081,0,0,1-1.092-1.092V17.262a1.081,1.081,0,0,1,1.092-1.092h8.734a1.081,1.081,0,0,1,1.092,1.092v6.922A1.1,1.1,0,0,1,57.276,25.276Zm-7.643-2.184h6.551V18.354H49.634Z" transform="translate(-47.45 -16.17)" fill="#1e2e48"/>
          </g>
          <g id="Grupo_1101362" data-name="Grupo 1101362" transform="translate(111.167 33.125)">
            <path id="Trazado_878860" data-name="Trazado 878860" d="M63.286,25.276H54.552a1.081,1.081,0,0,1-1.092-1.092V17.262a1.081,1.081,0,0,1,1.092-1.092h8.734a1.081,1.081,0,0,1,1.092,1.092v6.922A1.1,1.1,0,0,1,63.286,25.276Zm-7.643-2.184h6.551V18.354H55.644Z" transform="translate(-53.46 -16.17)" fill="#1e2e48"/>
          </g>
          <g id="Grupo_1101366" data-name="Grupo 1101366" transform="translate(11.357 31.182)">
            <g id="Grupo_1101363" data-name="Grupo 1101363" transform="translate(0 0.022)">
              <path id="Trazado_878861" data-name="Trazado 878861" d="M51.879,56.145H8.84A1.056,1.056,0,0,1,7.9,55.6a1.139,1.139,0,0,1-.022-1.092L29.388,15.814a1.123,1.123,0,0,1,1.9,0L52.8,54.507a1.085,1.085,0,0,1-.022,1.092.945.945,0,0,1-.9.546ZM10.7,53.961H50.023L30.371,18.609Z" transform="translate(-7.751 -15.29)" fill="#1e2e48"/>
            </g>
            <g id="Grupo_1101364" data-name="Grupo 1101364">
              <path id="Trazado_878862" data-name="Trazado 878862" d="M8.84,56.157a1.09,1.09,0,0,1-.546-2.031L29.279,41.789V16.372a1.092,1.092,0,0,1,2.184,0V42.4a1.056,1.056,0,0,1-.546.939L9.408,56A1.111,1.111,0,0,1,8.84,56.157Z" transform="translate(-7.751 -15.28)" fill="#1e2e48"/>
            </g>
            <g id="Grupo_1101365" data-name="Grupo 1101365" transform="translate(21.53 26.031)">
              <path id="Trazado_878863" data-name="Trazado 878863" d="M40.209,42.047a.986.986,0,0,1-.546-.153L18.155,29.229a1.086,1.086,0,0,1,1.092-1.878L40.755,40.016a1.09,1.09,0,0,1-.546,2.031Z" transform="translate(-17.611 -27.201)" fill="#1e2e48"/>
            </g>
          </g>
          <g id="Grupo_1101369" data-name="Grupo 1101369" transform="translate(9.651 31.182)">
            <g id="Grupo_1101367" data-name="Grupo 1101367" transform="translate(0)">
              <path id="Trazado_878864" data-name="Trazado 878864" d="M19.984,17.464H8.062a1.092,1.092,0,0,1,0-2.184H19.984a1.092,1.092,0,0,1,0,2.184Z" transform="translate(-6.97 -15.28)" fill="#1e2e48"/>
            </g>
            <g id="Grupo_1101368" data-name="Grupo 1101368" transform="translate(0 5.503)">
              <path id="Trazado_878865" data-name="Trazado 878865" d="M16.207,41.6a1.081,1.081,0,0,1-1.092-1.092V19.984H8.062a1.092,1.092,0,0,1,0-2.184h8.123a1.081,1.081,0,0,1,1.092,1.092V40.509A1.063,1.063,0,0,1,16.207,41.6Z" transform="translate(-6.97 -17.8)" fill="#1e2e48"/>
            </g>
          </g>
          <g id="Grupo_1101372" data-name="Grupo 1101372" transform="translate(42.471 31.182)">
            <g id="Grupo_1101370" data-name="Grupo 1101370">
              <path id="Trazado_878866" data-name="Trazado 878866" d="M35.014,17.464H23.092a1.092,1.092,0,0,1,0-2.184H35.014a1.092,1.092,0,0,1,0,2.184Z" transform="translate(-22 -15.28)" fill="#1e2e48"/>
            </g>
            <g id="Grupo_1101371" data-name="Grupo 1101371" transform="translate(3.799 5.524)">
              <path id="Trazado_878867" data-name="Trazado 878867" d="M24.832,38.554a1.081,1.081,0,0,1-1.092-1.092V18.9a1.081,1.081,0,0,1,1.092-1.092h8.123a1.092,1.092,0,0,1,0,2.184H25.924V37.462A1.109,1.109,0,0,1,24.832,38.554Z" transform="translate(-23.74 -17.81)" fill="#1e2e48"/>
            </g>
          </g>
          <g id="Grupo_1101377" data-name="Grupo 1101377" transform="translate(9.651 77.867)">
            <g id="Grupo_1101373" data-name="Grupo 1101373">
              <path id="Trazado_878868" data-name="Trazado 878868" d="M19.831,50.613H8.062A1.081,1.081,0,0,1,6.97,49.521V37.752A1.081,1.081,0,0,1,8.062,36.66h11.77a1.081,1.081,0,0,1,1.092,1.092v11.77A1.081,1.081,0,0,1,19.831,50.613ZM9.154,48.43H18.74V38.844H9.154Z" transform="translate(-6.97 -36.66)" fill="#1e2e48"/>
            </g>
            <g id="Grupo_1101376" data-name="Grupo 1101376" transform="translate(17.294 3.013)">
              <g id="Grupo_1101374" data-name="Grupo 1101374">
                <path id="Trazado_878869" data-name="Trazado 878869" d="M46.181,40.224h-30.2a1.092,1.092,0,1,1,0-2.184h30.2a1.092,1.092,0,0,1,0,2.184Z" transform="translate(-14.89 -38.04)" fill="#1e2e48"/>
              </g>
              <g id="Grupo_1101375" data-name="Grupo 1101375" transform="translate(0 5.765)">
                <path id="Trazado_878870" data-name="Trazado 878870" d="M34.411,42.864H15.982a1.092,1.092,0,1,1,0-2.184h18.43a1.092,1.092,0,0,1,0,2.184Z" transform="translate(-14.89 -40.68)" fill="#1e2e48"/>
              </g>
            </g>
          </g>
          <g id="Grupo_1101382" data-name="Grupo 1101382" transform="translate(9.651 95.532)">
            <g id="Grupo_1101378" data-name="Grupo 1101378">
              <path id="Trazado_878871" data-name="Trazado 878871" d="M19.831,58.7H8.062A1.081,1.081,0,0,1,6.97,57.611V45.842A1.081,1.081,0,0,1,8.062,44.75h11.77a1.081,1.081,0,0,1,1.092,1.092v11.77A1.1,1.1,0,0,1,19.831,58.7ZM9.154,56.52H18.74V46.934H9.154Z" transform="translate(-6.97 -44.75)" fill="#1e2e48"/>
            </g>
            <g id="Grupo_1101381" data-name="Grupo 1101381" transform="translate(17.294 2.992)">
              <g id="Grupo_1101379" data-name="Grupo 1101379">
                <path id="Trazado_878872" data-name="Trazado 878872" d="M46.181,48.3h-30.2a1.092,1.092,0,1,1,0-2.184h30.2a1.092,1.092,0,0,1,0,2.184Z" transform="translate(-14.89 -46.12)" fill="#1e2e48"/>
              </g>
              <g id="Grupo_1101380" data-name="Grupo 1101380" transform="translate(0 5.765)">
                <path id="Trazado_878873" data-name="Trazado 878873" d="M34.411,50.944H15.982a1.092,1.092,0,1,1,0-2.184h18.43a1.092,1.092,0,1,1,0,2.184Z" transform="translate(-14.89 -48.76)" fill="#1e2e48"/>
              </g>
            </g>
          </g>
          <g id="Grupo_1101383" data-name="Grupo 1101383" transform="translate(65.639)">
            <path id="Trazado_878874" data-name="Trazado 878874" d="M59.883,83.627H38.069a5.461,5.461,0,0,1-5.459-5.459V6.459A5.461,5.461,0,0,1,38.069,1H90.148a5.461,5.461,0,0,1,5.459,5.459V78.146a5.459,5.459,0,0,1-1.485,3.734,1.1,1.1,0,0,1-1.594-1.507,3.272,3.272,0,0,0,.9-2.227V6.459a3.271,3.271,0,0,0-3.275-3.275H38.069a3.271,3.271,0,0,0-3.275,3.275V78.146a3.271,3.271,0,0,0,3.275,3.275H59.883a1.081,1.081,0,0,1,1.092,1.092A1.1,1.1,0,0,1,59.883,83.627Z" transform="translate(-32.61 -1)" fill="#1e2e48"/>
          </g>
          <g id="Grupo_1101384" data-name="Grupo 1101384" transform="translate(111.167 55.878)">
            <path id="Trazado_878875" data-name="Trazado 878875" d="M63.286,46.788H57.3a1.092,1.092,0,0,1,0-2.184h4.891V28.774H55.644v6a1.092,1.092,0,0,1-2.184,0v-7.1a1.081,1.081,0,0,1,1.092-1.092h8.734a1.081,1.081,0,0,1,1.092,1.092V45.7A1.1,1.1,0,0,1,63.286,46.788Z" transform="translate(-53.46 -26.59)" fill="#1e2e48"/>
          </g>
          <g id="Grupo_1101385" data-name="Grupo 1101385" transform="translate(98.043 55.878)">
            <path id="Trazado_878876" data-name="Trazado 878876" d="M57.276,32.224a1.081,1.081,0,0,1-1.092-1.092V28.774H49.634v2.358a1.092,1.092,0,0,1-2.184,0v-3.45a1.081,1.081,0,0,1,1.092-1.092h8.734a1.081,1.081,0,0,1,1.092,1.092v3.45A1.081,1.081,0,0,1,57.276,32.224Z" transform="translate(-47.45 -26.59)" fill="#1e2e48"/>
          </g>
          <g id="Grupo_1101386" data-name="Grupo 1101386" transform="translate(85.116 66.971)">
            <path id="Trazado_878877" data-name="Trazado 878877" d="M49.325,40.776h-6.7a1.081,1.081,0,0,1-1.092-1.092V32.762a1.081,1.081,0,0,1,1.092-1.092h6.922a1.092,1.092,0,0,1,0,2.184h-5.83v4.738h5.612a1.092,1.092,0,0,1,0,2.184Z" transform="translate(-41.53 -31.67)" fill="#1e2e48"/>
          </g>
          <g id="Grupo_1101387" data-name="Grupo 1101387" transform="translate(0 22.447)">
            <path id="Trazado_878878" data-name="Trazado 878878" d="M83.671,128.583H25.914a1.024,1.024,0,0,1-.764-.328L2.878,106a1.112,1.112,0,0,1-.328-.764v-88.5A5.461,5.461,0,0,1,8.009,11.28H62.73a1.092,1.092,0,0,1,0,2.184H8.009a3.271,3.271,0,0,0-3.275,3.275v88.042L26.351,126.4H83.67a3.271,3.271,0,0,0,3.275-3.275v-46.2a1.092,1.092,0,0,1,2.184,0v46.2a5.475,5.475,0,0,1-5.459,5.459Z" transform="translate(-2.55 -11.28)" fill="#1e2e48"/>
          </g>
        </g>
      </g>
    </g>
  </g>
</svg>
