<svg xmlns="http://www.w3.org/2000/svg" width="86" height="86" viewBox="0 0 86 86">
  <g id="_1" data-name="1" transform="translate(-494.949 -646)">
    <path id="Trazado_879076" data-name="Trazado 879076" d="M43,0A43,43,0,1,1,0,43,43,43,0,0,1,43,0Z" transform="translate(494.949 646)" fill="#3ba935"/>
    <g id="poblacion-mundial" transform="translate(481.453 660)">
      <g id="Grupo_1101683" data-name="Grupo 1101683" transform="translate(31.355 0.858)">
        <path id="Trazado_879091" data-name="Trazado 879091" d="M266.9,72l-.7.081-1.928.781-3.59-.5L257.576,72A3.633,3.633,0,0,0,256,75v4.039a1.562,1.562,0,0,0,3.124,0V89a1.557,1.557,0,1,0,3.114,0,1.557,1.557,0,1,0,3.114,0V79.037a1.562,1.562,0,0,0,3.124,0V75A3.634,3.634,0,0,0,266.9,72Z" transform="translate(-231.049 -64.619)" fill="#ff7383"/>
        <path id="Trazado_879092" data-name="Trazado 879092" d="M271.826,66.4a3.62,3.62,0,0,0-2.062.642,5.778,5.778,0,0,0,9.325,0,3.62,3.62,0,0,0-2.062-.642h-5.2Z" transform="translate(-243.237 -59.655)" fill="#ff546a"/>
        <circle id="Elipse_11507" data-name="Elipse 11507" cx="3.962" cy="3.962" r="3.962" transform="translate(27.228)" fill="#ffe0cf"/>
        <path id="Trazado_879093" data-name="Trazado 879093" d="M157.9,72l-.7.081-1.928.781-3.59-.5L148.574,72A3.633,3.633,0,0,0,147,75v4.039a1.562,1.562,0,0,0,3.124,0V89a1.557,1.557,0,1,0,3.114,0,1.557,1.557,0,1,0,3.114,0V79.038a1.562,1.562,0,1,0,3.124,0V75A3.634,3.634,0,0,0,157.9,72Z" transform="translate(-134.523 -64.619)" fill="#ff7383"/>
        <path id="Trazado_879094" data-name="Trazado 879094" d="M162.825,66.4a3.62,3.62,0,0,0-2.062.642,5.778,5.778,0,0,0,9.325,0,3.62,3.62,0,0,0-2.062-.642h-5.2Z" transform="translate(-146.712 -59.655)" fill="#ff546a"/>
        <circle id="Elipse_11508" data-name="Elipse 11508" cx="3.962" cy="3.962" r="3.962" transform="translate(14.752)" fill="#ffe0cf"/>
        <path id="Trazado_879095" data-name="Trazado 879095" d="M212.4,72l-.7.081-1.928.781-3.59-.5L203.075,72a3.633,3.633,0,0,0-1.575,3v4.039a1.562,1.562,0,0,0,3.124,0V89a1.557,1.557,0,1,0,3.114,0,1.557,1.557,0,1,0,3.114,0V79.038a1.562,1.562,0,0,0,3.124,0V75a3.634,3.634,0,0,0-1.576-3Z" transform="translate(-182.786 -64.619)" fill="#8ac9fe"/>
        <path id="Trazado_879096" data-name="Trazado 879096" d="M217.325,66.4a3.62,3.62,0,0,0-2.062.642,5.778,5.778,0,0,0,9.325,0,3.62,3.62,0,0,0-2.062-.642h-5.2Z" transform="translate(-194.974 -59.655)" fill="#60b7ff"/>
        <circle id="Elipse_11509" data-name="Elipse 11509" cx="3.962" cy="3.962" r="3.962" transform="translate(20.99)" fill="#d78878"/>
        <path id="Trazado_879097" data-name="Trazado 879097" d="M321.4,207.457l-.7.081-1.928.781-3.59-.5-3.106-.364a3.633,3.633,0,0,0-1.575,3v4.039a1.562,1.562,0,1,0,3.124,0v9.959a3.481,3.481,0,0,1,4.67,1.557,1.557,1.557,0,0,0,1.557-1.557v-9.959a1.562,1.562,0,1,0,3.124,0v-4.039A3.634,3.634,0,0,0,321.4,207.457Z" transform="translate(-279.312 -184.571)" fill="#fee45a"/>
        <path id="Trazado_879098" data-name="Trazado 879098" d="M326.327,201.851a3.62,3.62,0,0,0-2.062.642,5.779,5.779,0,0,0,9.325,0,3.62,3.62,0,0,0-2.062-.642h-5.2Z" transform="translate(-291.5 -179.607)" fill="#ffd15b"/>
        <circle id="Elipse_11510" data-name="Elipse 11510" cx="3.962" cy="3.962" r="3.962" transform="translate(33.466 15.503)" fill="#d78878"/>
        <path id="Trazado_879099" data-name="Trazado 879099" d="M103.4,207.457l-.7.081-1.928.781-3.59-.5-3.106-.364a3.633,3.633,0,0,0-1.575,3v4.039a1.562,1.562,0,1,0,3.124,0v9.959a1.557,1.557,0,0,0,3.114,0,1.557,1.557,0,0,0,3.114,0v-9.959a1.562,1.562,0,1,0,3.124,0v-4.039A3.634,3.634,0,0,0,103.4,207.457Z" transform="translate(-86.26 -184.571)" fill="#fee45a"/>
        <path id="Trazado_879100" data-name="Trazado 879100" d="M108.324,201.851a3.62,3.62,0,0,0-2.062.642,5.779,5.779,0,0,0,9.325,0,3.62,3.62,0,0,0-2.062-.642h-5.2Z" transform="translate(-98.449 -179.607)" fill="#ffd15b"/>
        <circle id="Elipse_11511" data-name="Elipse 11511" cx="3.962" cy="3.962" r="3.962" transform="translate(8.514 15.503)" fill="#d78878"/>
        <path id="Trazado_879101" data-name="Trazado 879101" d="M266.9,207.457l-.7.081-1.928.781-3.59-.5-3.106-.364a3.633,3.633,0,0,0-1.576,3v4.039a1.562,1.562,0,0,0,3.124,0v9.959a1.557,1.557,0,1,0,3.114,0,1.557,1.557,0,1,0,3.114,0v-9.959a1.562,1.562,0,0,0,3.124,0v-4.039A3.634,3.634,0,0,0,266.9,207.457Z" transform="translate(-231.049 -184.571)" fill="#ff7383"/>
        <path id="Trazado_879102" data-name="Trazado 879102" d="M271.826,201.851a3.62,3.62,0,0,0-2.062.642,5.779,5.779,0,0,0,9.325,0,3.62,3.62,0,0,0-2.062-.642h-5.2Z" transform="translate(-243.237 -179.607)" fill="#ff546a"/>
        <circle id="Elipse_11512" data-name="Elipse 11512" cx="3.962" cy="3.962" r="3.962" transform="translate(27.228 15.503)" fill="#ffe0cf"/>
        <path id="Trazado_879103" data-name="Trazado 879103" d="M157.9,207.457l-.7.081-1.928.781-3.59-.5-3.106-.364a3.633,3.633,0,0,0-1.575,3v4.039a1.562,1.562,0,0,0,3.124,0v9.959a1.557,1.557,0,0,0,3.114,0,1.557,1.557,0,0,0,3.114,0v-9.959a1.562,1.562,0,1,0,3.124,0v-4.039A3.634,3.634,0,0,0,157.9,207.457Z" transform="translate(-134.523 -184.571)" fill="#ff7383"/>
        <path id="Trazado_879104" data-name="Trazado 879104" d="M162.825,201.851a3.62,3.62,0,0,0-2.062.642,5.779,5.779,0,0,0,9.325,0,3.62,3.62,0,0,0-2.062-.642h-5.2Z" transform="translate(-146.712 -179.607)" fill="#ff546a"/>
        <circle id="Elipse_11513" data-name="Elipse 11513" cx="3.962" cy="3.962" r="3.962" transform="translate(14.752 15.503)" fill="#ffe0cf"/>
        <path id="Trazado_879105" data-name="Trazado 879105" d="M212.4,207.457l-.7.081-1.928.781-3.59-.5-3.106-.364a3.633,3.633,0,0,0-1.575,3v4.039a1.562,1.562,0,1,0,3.124,0v9.959a1.557,1.557,0,0,0,3.114,0,1.557,1.557,0,0,0,3.114,0v-9.959a1.562,1.562,0,0,0,3.124,0v-4.039a3.634,3.634,0,0,0-1.576-3Z" transform="translate(-182.786 -184.571)" fill="#8ac9fe"/>
        <path id="Trazado_879106" data-name="Trazado 879106" d="M217.325,201.851a3.62,3.62,0,0,0-2.062.642,5.779,5.779,0,0,0,9.325,0,3.62,3.62,0,0,0-2.062-.642h-5.2Z" transform="translate(-194.974 -179.607)" fill="#60b7ff"/>
        <circle id="Elipse_11514" data-name="Elipse 11514" cx="3.962" cy="3.962" r="3.962" transform="translate(20.99 15.503)" fill="#d78878"/>
        <path id="Trazado_879107" data-name="Trazado 879107" d="M375.9,342.419l-.7.081-1.928.781-3.59-.5-3.106-.364a3.633,3.633,0,0,0-1.575,3v4.039a1.562,1.562,0,0,0,3.124,0v9.959a3.481,3.481,0,0,1,4.67,1.557,1.557,1.557,0,0,0,1.557-1.557v-9.959a1.562,1.562,0,0,0,3.124,0v-4.039A3.634,3.634,0,0,0,375.9,342.419Z" transform="translate(-327.575 -304.086)" fill="#6ce79a"/>
        <path id="Trazado_879108" data-name="Trazado 879108" d="M380.828,336.814a3.62,3.62,0,0,0-2.062.642,5.778,5.778,0,0,0,9.325,0,3.62,3.62,0,0,0-2.062-.642h-5.2Z" transform="translate(-339.763 -299.122)" fill="#00d8a2"/>
        <circle id="Elipse_11515" data-name="Elipse 11515" cx="3.962" cy="3.962" r="3.962" transform="translate(39.703 30.95)" fill="#ffe0cf"/>
        <path id="Trazado_879109" data-name="Trazado 879109" d="M48.9,342.419l-.7.081-1.928.781-3.59-.5-3.106-.364a3.633,3.633,0,0,0-1.575,3v4.039a1.562,1.562,0,1,0,3.124,0v9.959a1.557,1.557,0,1,0,3.114,0,1.557,1.557,0,1,0,3.114,0v-9.959a1.562,1.562,0,1,0,3.124,0v-4.039A3.634,3.634,0,0,0,48.9,342.419Z" transform="translate(-37.997 -304.086)" fill="#6ce79a"/>
        <path id="Trazado_879110" data-name="Trazado 879110" d="M53.823,336.814a3.62,3.62,0,0,0-2.062.642,5.778,5.778,0,0,0,9.325,0,3.62,3.62,0,0,0-2.062-.642h-5.2Z" transform="translate(-50.186 -299.122)" fill="#00d8a2"/>
        <circle id="Elipse_11516" data-name="Elipse 11516" cx="3.962" cy="3.962" r="3.962" transform="translate(2.276 30.95)" fill="#ffe0cf"/>
        <path id="Trazado_879111" data-name="Trazado 879111" d="M321.4,342.419l-.7.081-1.928.781-3.59-.5-3.106-.364a3.633,3.633,0,0,0-1.575,3v4.039a1.562,1.562,0,1,0,3.124,0v9.959a3.481,3.481,0,0,1,4.67,1.557,1.557,1.557,0,0,0,1.557-1.557v-9.959a1.562,1.562,0,0,0,3.124,0v-4.039A3.634,3.634,0,0,0,321.4,342.419Z" transform="translate(-279.312 -304.086)" fill="#fee45a"/>
        <path id="Trazado_879112" data-name="Trazado 879112" d="M326.327,336.814a3.62,3.62,0,0,0-2.062.642,5.778,5.778,0,0,0,9.325,0,3.62,3.62,0,0,0-2.062-.642h-5.2Z" transform="translate(-291.5 -299.122)" fill="#ffd15b"/>
        <circle id="Elipse_11517" data-name="Elipse 11517" cx="3.962" cy="3.962" r="3.962" transform="translate(33.466 30.95)" fill="#d78878"/>
        <path id="Trazado_879113" data-name="Trazado 879113" d="M103.4,342.419l-.7.081-1.928.781-3.59-.5-3.106-.364a3.633,3.633,0,0,0-1.575,3v4.039a1.562,1.562,0,1,0,3.124,0v9.959a1.557,1.557,0,1,0,3.114,0,1.557,1.557,0,1,0,3.114,0v-9.959a1.562,1.562,0,1,0,3.124,0v-4.039A3.634,3.634,0,0,0,103.4,342.419Z" transform="translate(-86.26 -304.086)" fill="#fee45a"/>
        <path id="Trazado_879114" data-name="Trazado 879114" d="M108.324,336.814a3.62,3.62,0,0,0-2.062.642,5.778,5.778,0,0,0,9.325,0,3.62,3.62,0,0,0-2.062-.642h-5.2Z" transform="translate(-98.449 -299.122)" fill="#ffd15b"/>
        <circle id="Elipse_11518" data-name="Elipse 11518" cx="3.962" cy="3.962" r="3.962" transform="translate(8.514 30.95)" fill="#d78878"/>
        <path id="Trazado_879115" data-name="Trazado 879115" d="M266.9,342.419l-.7.081-1.928.781-3.59-.5-3.106-.364a3.633,3.633,0,0,0-1.576,3v4.039a1.562,1.562,0,0,0,3.124,0v9.959a1.557,1.557,0,1,0,3.114,0,1.557,1.557,0,1,0,3.114,0v-9.959a1.562,1.562,0,0,0,3.124,0v-4.039A3.634,3.634,0,0,0,266.9,342.419Z" transform="translate(-231.049 -304.086)" fill="#ff7383"/>
        <path id="Trazado_879116" data-name="Trazado 879116" d="M271.826,336.814a3.62,3.62,0,0,0-2.062.642,5.778,5.778,0,0,0,9.325,0,3.62,3.62,0,0,0-2.062-.642h-5.2Z" transform="translate(-243.237 -299.122)" fill="#ff546a"/>
        <circle id="Elipse_11519" data-name="Elipse 11519" cx="3.962" cy="3.962" r="3.962" transform="translate(27.228 30.95)" fill="#ffe0cf"/>
        <path id="Trazado_879117" data-name="Trazado 879117" d="M157.9,342.419l-.7.081-1.928.781-3.59-.5-3.106-.364a3.633,3.633,0,0,0-1.575,3v4.039a1.562,1.562,0,1,0,3.124,0v9.959a1.557,1.557,0,1,0,3.114,0,1.557,1.557,0,1,0,3.114,0v-9.959a1.562,1.562,0,1,0,3.124,0v-4.039A3.635,3.635,0,0,0,157.9,342.419Z" transform="translate(-134.523 -304.086)" fill="#ff7383"/>
        <path id="Trazado_879118" data-name="Trazado 879118" d="M162.825,336.814a3.62,3.62,0,0,0-2.062.642,5.778,5.778,0,0,0,9.325,0,3.62,3.62,0,0,0-2.062-.642h-5.2Z" transform="translate(-146.712 -299.122)" fill="#ff546a"/>
        <circle id="Elipse_11520" data-name="Elipse 11520" cx="3.962" cy="3.962" r="3.962" transform="translate(14.752 30.95)" fill="#ffe0cf"/>
        <path id="Trazado_879119" data-name="Trazado 879119" d="M212.4,342.419l-.7.081-1.928.781-3.59-.5-3.106-.364a3.633,3.633,0,0,0-1.575,3v4.039a1.562,1.562,0,0,0,3.124,0v9.959a1.557,1.557,0,1,0,3.114,0,1.557,1.557,0,1,0,3.114,0v-9.959a1.562,1.562,0,0,0,3.124,0v-4.039a3.635,3.635,0,0,0-1.576-3Z" transform="translate(-182.786 -304.086)" fill="#8ac9fe"/>
        <path id="Trazado_879120" data-name="Trazado 879120" d="M217.325,336.814a3.62,3.62,0,0,0-2.062.642,5.778,5.778,0,0,0,9.325,0,3.62,3.62,0,0,0-2.062-.642h-5.2Z" transform="translate(-194.974 -299.122)" fill="#60b7ff"/>
        <circle id="Elipse_11521" data-name="Elipse 11521" cx="3.962" cy="3.962" r="3.962" transform="translate(20.99 30.95)" fill="#d78878"/>
      </g>
      <path id="Trazado_879121" data-name="Trazado 879121" d="M79.286,38.012a4.791,4.791,0,0,0,.554-2.241,4.869,4.869,0,0,0-.057-.739.858.858,0,0,0-1.7.262,3.138,3.138,0,0,1,.037.478,3.107,3.107,0,0,1-3.737,3.039l-.056-.01a4.493,4.493,0,0,0-1.282-.788,4.814,4.814,0,0,0-.058-4.589,3.1,3.1,0,0,1,3.656-.295.858.858,0,0,0,.9-1.461,4.8,4.8,0,0,0-1.683-.642,2.432,2.432,0,0,0,.012-.245V26.741a4.522,4.522,0,0,0-2.83-4.176,4.819,4.819,0,0,0-3.427-6.988,2.408,2.408,0,0,0,.019-.3v-4.04a4.522,4.522,0,0,0-2.83-4.176,4.817,4.817,0,0,0,.229-3.979.858.858,0,1,0-1.6.619,3.1,3.1,0,0,1-2.895,4.222,3.533,3.533,0,0,1-.689-.073,4.494,4.494,0,0,0-1.283-.788,4.813,4.813,0,0,0-.058-4.589,3.1,3.1,0,0,1,3.034-.588A.858.858,0,0,0,64.1.26a4.819,4.819,0,0,0-4.681.887,4.811,4.811,0,0,0-6.234,0A4.819,4.819,0,0,0,45.8,7.061a4.522,4.522,0,0,0-2.83,4.176v4.039a2.454,2.454,0,0,0,.018.3,4.776,4.776,0,0,0-2.065.9.858.858,0,0,0,1.035,1.37,3.1,3.1,0,0,1,3.9.129,4.814,4.814,0,0,0-.058,4.589,4.493,4.493,0,0,0-1.28.786,3.214,3.214,0,0,1-.692.076,3.107,3.107,0,0,1-3.1-3.1c0-.049,0-.1,0-.147a.858.858,0,0,0-1.715-.078c0,.074-.006.149-.006.225a4.79,4.79,0,0,0,.554,2.241,4.522,4.522,0,0,0-2.83,4.176V30.78q0,.124.012.245a4.819,4.819,0,0,0-3.42,6.987,4.522,4.522,0,0,0-2.83,4.176v4.039a2.421,2.421,0,0,0,3.124,2.316v7.642a2.414,2.414,0,0,0,3.972,1.845,2.411,2.411,0,0,0,3.119,0,2.411,2.411,0,0,0,3.119,0,2.411,2.411,0,0,0,3.119,0,2.411,2.411,0,0,0,3.119,0,2.411,2.411,0,0,0,3.119,0,2.411,2.411,0,0,0,3.119,0,2.411,2.411,0,0,0,3.119,0,2.411,2.411,0,0,0,3.119,0,2.411,2.411,0,0,0,3.119,0,2.411,2.411,0,0,0,3.119,0,2.411,2.411,0,0,0,3.119,0,2.411,2.411,0,0,0,3.119,0,2.414,2.414,0,0,0,3.972-1.845V48.543a2.421,2.421,0,0,0,3.124-2.316V42.187a4.523,4.523,0,0,0-2.83-4.176Zm-11.2.784a4.492,4.492,0,0,0-1.278-.784,4.814,4.814,0,0,0-.058-4.589A3.1,3.1,0,1,1,68.088,38.8Zm-6.238,0a4.491,4.491,0,0,0-1.278-.784,4.814,4.814,0,0,0-.058-4.589A3.1,3.1,0,1,1,61.85,38.8Zm-11.089,0A3.1,3.1,0,1,1,52.1,33.423a4.814,4.814,0,0,0-.058,4.589A4.488,4.488,0,0,0,50.761,38.8Zm-6.238,0a3.1,3.1,0,1,1,1.336-5.373,4.814,4.814,0,0,0-.058,4.589A4.492,4.492,0,0,0,44.524,38.8ZM62.544,17.22a3.1,3.1,0,0,1,0,6.206,3.285,3.285,0,0,1-.692-.076,4.491,4.491,0,0,0-1.279-.785,4.813,4.813,0,0,0-.058-4.589,3.1,3.1,0,0,1,2.029-.756Zm5.379,9.52V30.78a.7.7,0,0,1-.048.255,4.783,4.783,0,0,0-1.051.328.7.7,0,0,1-.309-.583V28.75a.858.858,0,1,0-1.717,0v2.03a2.429,2.429,0,0,0,.138.808,4.785,4.785,0,0,0-1.547-.563,2.427,2.427,0,0,0,.012-.245V26.74a4.452,4.452,0,0,0-.308-1.628,4.8,4.8,0,0,0,2.555-1.105,2.791,2.791,0,0,1,2.274,2.734Zm-7.334,4.624a.7.7,0,0,1-.312-.585V28.75a.858.858,0,1,0-1.717,0v2.03a2.428,2.428,0,0,0,.138.808,4.813,4.813,0,0,0-4.788,0,2.408,2.408,0,0,0,.14-.809V28.75a.858.858,0,1,0-1.717,0v2.03a.706.706,0,0,1-.311.584,4.8,4.8,0,0,0-1.048-.328.706.706,0,0,1-.048-.256V26.74A2.791,2.791,0,0,1,53.2,24.007a4.811,4.811,0,0,0,6.211,0,2.791,2.791,0,0,1,2.274,2.734V30.78a.7.7,0,0,1-.048.257A4.813,4.813,0,0,0,60.589,31.364Zm-1.18-11.041a3.1,3.1,0,1,1-3.1-3.1A3.107,3.107,0,0,1,59.409,20.323Zm-9.341-3.1a3.094,3.094,0,0,1,2.029.755,4.814,4.814,0,0,0-.058,4.589,4.491,4.491,0,0,0-1.278.784,3.1,3.1,0,1,1-.693-6.129Zm-.55,7.892a4.452,4.452,0,0,0-.308,1.628V30.78a2.427,2.427,0,0,0,.012.245,4.786,4.786,0,0,0-1.546.562,2.432,2.432,0,0,0,.137-.807V28.75a.858.858,0,1,0-1.717,0v2.03a.7.7,0,0,1-.311.584,4.8,4.8,0,0,0-1.049-.328.7.7,0,0,1-.048-.256V26.74a2.791,2.791,0,0,1,2.274-2.734,4.8,4.8,0,0,0,2.555,1.105ZM53.2,35.77a3.1,3.1,0,1,1,3.1,3.1A3.107,3.107,0,0,1,53.2,35.77Zm20.958-9.03V30.78a.705.705,0,0,1-.048.256,4.807,4.807,0,0,0-1.049.328.7.7,0,0,1-.311-.584V28.75a.858.858,0,0,0-1.717,0v2.03a2.435,2.435,0,0,0,.137.807,4.786,4.786,0,0,0-1.546-.562q.012-.121.012-.245V26.741a4.452,4.452,0,0,0-.308-1.628,4.8,4.8,0,0,0,2.555-1.105,2.791,2.791,0,0,1,2.274,2.734Zm-2.276-6.417a3.107,3.107,0,0,1-3.1,3.1,3.813,3.813,0,0,1-.685-.071,4.493,4.493,0,0,0-1.286-.791,4.814,4.814,0,0,0-.058-4.589,3.1,3.1,0,0,1,5.132,2.348ZM65.649,8.5a2.791,2.791,0,0,1,2.274,2.734v4.039a.693.693,0,0,1-.076.318,4.818,4.818,0,0,0-.967.3.7.7,0,0,1-.365-.617v-2.03a.858.858,0,0,0-1.717,0v2.03a2.418,2.418,0,0,0,.166.88,4.788,4.788,0,0,0-1.581-.58,2.408,2.408,0,0,0,.019-.3V11.237a4.454,4.454,0,0,0-.308-1.628A4.8,4.8,0,0,0,65.649,8.5Zm-3.964,2.734v4.039a.693.693,0,0,1-.076.318,4.813,4.813,0,0,0-.967.3.7.7,0,0,1-.365-.617v-2.03a.858.858,0,0,0-1.717,0v2.03a2.416,2.416,0,0,0,.166.88,4.812,4.812,0,0,0-4.843,0,2.4,2.4,0,0,0,.167-.881v-2.03a.858.858,0,0,0-1.717,0v2.03a.707.707,0,0,1-.364.617,4.8,4.8,0,0,0-.968-.3.7.7,0,0,1-.075-.318V11.237A2.791,2.791,0,0,1,53.2,8.5a4.811,4.811,0,0,0,6.211,0A2.791,2.791,0,0,1,61.685,11.237Zm-5.379-9.52a3.1,3.1,0,1,1-3.1,3.1,3.107,3.107,0,0,1,3.1-3.1Zm-6.238,0a3.105,3.105,0,0,1,2.029.756,4.814,4.814,0,0,0-.058,4.589,4.489,4.489,0,0,0-1.279.785,3.149,3.149,0,0,1-.693.077,3.1,3.1,0,0,1,0-6.206Zm-5.379,9.52A2.791,2.791,0,0,1,46.963,8.5a4.8,4.8,0,0,0,2.555,1.105,4.452,4.452,0,0,0-.308,1.628v4.039a2.449,2.449,0,0,0,.019.3,4.787,4.787,0,0,0-1.578.578,2.436,2.436,0,0,0,.163-.879v-2.03a.858.858,0,1,0-1.717,0v2.03a.7.7,0,0,1-.364.617,4.8,4.8,0,0,0-.968-.3.7.7,0,0,1-.075-.318V11.237Zm-6.238,15.5a2.791,2.791,0,0,1,2.274-2.734,4.8,4.8,0,0,0,2.555,1.105,4.452,4.452,0,0,0-.308,1.628V30.78q0,.124.012.245a4.787,4.787,0,0,0-1.549.564,2.411,2.411,0,0,0,.14-.809V28.75a.858.858,0,1,0-1.717,0v2.03a.706.706,0,0,1-.311.584,4.8,4.8,0,0,0-1.049-.328.7.7,0,0,1-.048-.256V26.741Zm-.858,5.927a3.1,3.1,0,0,1,2.029.755,4.814,4.814,0,0,0-.058,4.589,4.492,4.492,0,0,0-1.278.784,3.1,3.1,0,1,1-.693-6.129Zm1.557,24.217a.7.7,0,0,1-.7-.7V52a.858.858,0,1,0-1.717,0v4.188a.7.7,0,1,1-1.4,0V44.2a.858.858,0,0,0-1.717,0v2.03a.7.7,0,0,1-1.407,0V42.187a2.791,2.791,0,0,1,2.274-2.733,4.8,4.8,0,0,0,2.555,1.105,4.451,4.451,0,0,0-.308,1.628v4.039a2.421,2.421,0,0,0,3.114,2.319v7.639A.7.7,0,0,1,39.149,56.884Zm6.238,0a.7.7,0,0,1-.7-.7V52a.858.858,0,1,0-1.717,0v4.188a.7.7,0,1,1-1.4,0V44.2a.858.858,0,0,0-1.717,0c0,.558-.011.071-.011,2.153a.7.7,0,0,1-1.4-.123V42.188a2.791,2.791,0,0,1,2.274-2.733,4.8,4.8,0,0,0,2.555,1.105,4.451,4.451,0,0,0-.308,1.628v4.039a2.421,2.421,0,0,0,3.114,2.319v7.639A.7.7,0,0,1,45.387,56.884Zm6.238,0a.7.7,0,0,1-.7-.7V52a.858.858,0,1,0-1.717,0v4.188a.7.7,0,0,1-1.4,0V44.2a.858.858,0,0,0-1.717,0c0,.555-.011.075-.011,2.153a.7.7,0,0,1-1.4-.123V42.188a2.791,2.791,0,0,1,2.274-2.733,4.8,4.8,0,0,0,2.555,1.105,4.453,4.453,0,0,0-.308,1.628v4.039a2.421,2.421,0,0,0,3.114,2.319v7.639A.7.7,0,0,1,51.625,56.884Zm6.936-.7a.7.7,0,1,1-1.4,0V52a.858.858,0,1,0-1.717,0v4.188a.7.7,0,0,1-1.4,0V44.2a.858.858,0,0,0-1.717,0c0,.662-.011,0-.011,2.153a.7.7,0,0,1-1.4-.123V42.188A2.79,2.79,0,0,1,53.2,39.454a4.811,4.811,0,0,0,6.21,0,2.791,2.791,0,0,1,2.274,2.733v4.039a.7.7,0,0,1-1.4.123c0-1.874-.011-1.8-.011-2.153a.858.858,0,0,0-1.717,0V56.185Zm6.238,0a.7.7,0,1,1-1.4,0V52a.858.858,0,1,0-1.717,0v4.188a.7.7,0,1,1-1.4,0V48.546A2.421,2.421,0,0,0,63.4,46.227V42.188a4.453,4.453,0,0,0-.308-1.628,4.8,4.8,0,0,0,2.555-1.105,2.791,2.791,0,0,1,2.274,2.733v4.039a.7.7,0,0,1-1.4.123c0-1.874-.011-1.8-.011-2.153a.858.858,0,1,0-1.717,0V56.185Zm6.238,0a.7.7,0,1,1-1.4,0V52a.858.858,0,1,0-1.717,0v4.188a.7.7,0,1,1-1.4,0V48.546a2.421,2.421,0,0,0,3.114-2.319V42.188a4.453,4.453,0,0,0-.308-1.628,4.8,4.8,0,0,0,2.555-1.105,2.791,2.791,0,0,1,2.274,2.733v4.039a.7.7,0,0,1-1.4.123c0-1.874-.011-1.8-.011-2.153a.858.858,0,0,0-1.717,0V56.185ZM80.4,46.227a.7.7,0,0,1-1.407,0V44.2a.858.858,0,0,0-1.717,0V56.186a.7.7,0,0,1-1.4,0V52a.858.858,0,1,0-1.717,0v4.188a.7.7,0,1,1-1.4,0V48.546a2.421,2.421,0,0,0,3.114-2.319V42.188a4.453,4.453,0,0,0-.308-1.628,4.8,4.8,0,0,0,2.555-1.105A2.791,2.791,0,0,1,80.4,42.188v4.039Z"/>
    </g>
  </g>
</svg>
