<svg xmlns="http://www.w3.org/2000/svg" xmlns:xlink="http://www.w3.org/1999/xlink" width="400" height="273.682" viewBox="0 0 400 273.682">
  <defs>
    <clipPath id="clip-path">
      <rect id="Rectángulo_401983" data-name="Rectángulo 401983" width="392.445" height="239.801" fill="none"/>
    </clipPath>
    <clipPath id="clip-path-3">
      <rect id="Rectángulo_401958" data-name="Rectángulo 401958" width="75.991" height="95.479" fill="none"/>
    </clipPath>
    <clipPath id="clip-path-4">
      <rect id="Rectángulo_401978" data-name="Rectángulo 401978" width="21.881" height="21.881" fill="none"/>
    </clipPath>
    <clipPath id="clip-path-5">
      <rect id="Rectángulo_401979" data-name="Rectángulo 401979" width="10.958" height="10.958" fill="none"/>
    </clipPath>
  </defs>
  <g id="_1" data-name="1" transform="translate(-173.426 -403)">
    <g id="Grupo_1101011" data-name="Grupo 1101011">
      <rect id="Rectángulo_401599" data-name="Rectángulo 401599" width="400" height="273.63" transform="translate(173.426 403)" fill="#c6e9f3"/>
      <g id="Grupo_1101004" data-name="Grupo 1101004" transform="translate(177.426 436.881)">
        <g id="Grupo_1101003" data-name="Grupo 1101003" clip-path="url(#clip-path)">
          <g id="Grupo_1101002" data-name="Grupo 1101002">
            <g id="Grupo_1101001" data-name="Grupo 1101001" clip-path="url(#clip-path)">
              <path id="Trazado_877520" data-name="Trazado 877520" d="M180.3,362.8v-1.075l-1.738-.247a9.479,9.479,0,0,0-.423-2.136l1.5-.9-.414-.992-1.7.441a9.525,9.525,0,0,0-1.183-1.766l1.052-1.4-.759-.76-1.4,1.053a9.512,9.512,0,0,0-1.812-1.206l.432-1.7-.994-.408-.886,1.507a9.46,9.46,0,0,0-2.087-.4l-.248-1.738h-1.074l-.247,1.738a9.433,9.433,0,0,0-2.136.423l-.9-1.5-.992.414.44,1.7a9.476,9.476,0,0,0-1.765,1.183l-1.4-1.053-.759.76,1.052,1.4a9.489,9.489,0,0,0-1.205,1.812l-1.7-.432-.408.993,1.507.887a9.446,9.446,0,0,0-.405,2.087l-1.738.247V362.8l1.738.247a9.476,9.476,0,0,0,.423,2.136l-1.5.895.414.992,1.7-.441a9.48,9.48,0,0,0,1.183,1.766l-1.053,1.4.759.76,1.4-1.053a9.489,9.489,0,0,0,1.812,1.206l-.432,1.7.994.409.886-1.507a9.457,9.457,0,0,0,2.088.4l.247,1.738h1.074l.248-1.738a9.436,9.436,0,0,0,2.135-.423l.9,1.5.992-.414-.44-1.7a9.494,9.494,0,0,0,1.766-1.183l1.4,1.053.759-.76-1.052-1.4a9.486,9.486,0,0,0,1.205-1.812l1.7.432.408-.994-1.507-.885a9.457,9.457,0,0,0,.405-2.088Zm-11.193,3.746a4.284,4.284,0,1,1,4.284-4.284,4.284,4.284,0,0,1-4.284,4.284" transform="translate(-65.805 -146.293)" fill="#e0c9ba"/>
              <path id="Trazado_877521" data-name="Trazado 877521" d="M69.013,377.957H64.282a1.217,1.217,0,0,1-1.215-1.216l-.17-1.661a12.981,12.981,0,0,1-2.464-1.021l-1.317,1.074a1.207,1.207,0,0,1-1.7-.02l-3.346-3.346a1.216,1.216,0,0,1,0-1.719l1.054-1.294a12.993,12.993,0,0,1-1.021-2.465l-1.691-.172h0A1.207,1.207,0,0,1,51.23,364.9v-4.731a1.216,1.216,0,0,1,1.215-1.216l1.661-.17a12.987,12.987,0,0,1,1.021-2.465l-1.074-1.317a1.181,1.181,0,0,1-.336-.838,1.206,1.206,0,0,1,.356-.859l3.346-3.345a1.216,1.216,0,0,1,1.718,0l1.295,1.054A12.939,12.939,0,0,1,62.9,350l.172-1.692a1.208,1.208,0,0,1,1.213-1.185h4.732a1.216,1.216,0,0,1,1.215,1.215L70.4,350a12.976,12.976,0,0,1,2.464,1.021l1.318-1.074a1.208,1.208,0,0,1,1.7.02l3.346,3.345a1.217,1.217,0,0,1,0,1.719l-1.055,1.295a13.023,13.023,0,0,1,1.021,2.464l1.676.17a1.217,1.217,0,0,1,1.2,1.216V364.9a1.216,1.216,0,0,1-1.215,1.215l-1.661.17a13,13,0,0,1-1.021,2.465l1.074,1.316a1.209,1.209,0,0,1-.02,1.7l-3.346,3.346a1.216,1.216,0,0,1-1.718,0l-1.295-1.055A13.012,13.012,0,0,1,70.4,375.08l-.172,1.691a1.208,1.208,0,0,1-1.214,1.186m-8.644-4.6.173.1a12.411,12.411,0,0,0,2.7,1.12l.191.054.212,2.083a.641.641,0,0,0,.633.662h4.732a.633.633,0,0,0,.632-.632l.213-2.113.191-.054a12.4,12.4,0,0,0,2.7-1.12l.173-.1,1.623,1.324a.642.642,0,0,0,.916.02l3.346-3.346a.634.634,0,0,0,0-.894l-1.344-1.644.1-.173a12.441,12.441,0,0,0,1.119-2.7l.054-.191,2.084-.212a.642.642,0,0,0,.661-.633v-4.731a.633.633,0,0,0-.632-.632l-.03,0-2.084-.211-.054-.191a12.428,12.428,0,0,0-1.119-2.7l-.1-.173,1.323-1.623a.642.642,0,0,0,.02-.916l-3.346-3.345a.633.633,0,0,0-.894,0l-1.645,1.343-.173-.1a12.39,12.39,0,0,0-2.7-1.119l-.191-.054-.212-2.083a.642.642,0,0,0-.633-.661H64.282a.632.632,0,0,0-.632.632l-.213,2.113-.191.054a12.406,12.406,0,0,0-2.7,1.119l-.173.1L58.746,350.4a.641.641,0,0,0-.915-.02l-3.346,3.345a.633.633,0,0,0,0,.894l1.343,1.645-.1.173a12.4,12.4,0,0,0-1.12,2.7l-.054.191-2.084.211a.642.642,0,0,0-.661.634V364.9a.632.632,0,0,0,.632.632l2.113.214.054.191a12.443,12.443,0,0,0,1.12,2.7l.1.173-1.323,1.623a.654.654,0,0,0-.2.468.628.628,0,0,0,.185.447l3.346,3.346a.632.632,0,0,0,.893,0Zm6.278-4.342a6.477,6.477,0,1,1,6.477-6.476,6.484,6.484,0,0,1-6.477,6.476m0-12.37a5.894,5.894,0,1,0,5.894,5.894,5.9,5.9,0,0,0-5.894-5.894" transform="translate(-21.348 -144.649)" fill="#e0c9ba"/>
              <path id="Trazado_877522" data-name="Trazado 877522" d="M117.615,92.134l-1.588-.162a10.726,10.726,0,0,0-.965-2.33l1.009-1.238a.777.777,0,0,0,0-1.1l-2.818-2.818a.777.777,0,0,0-1.1,0L110.916,85.5a10.717,10.717,0,0,0-2.33-.965l-.162-1.588a.778.778,0,0,0-.778-.778h-3.985a.778.778,0,0,0-.778.778l-.162,1.588a10.717,10.717,0,0,0-2.33.965l-1.238-1.009a.777.777,0,0,0-1.1,0l-2.818,2.818a.777.777,0,0,0,0,1.1l1.009,1.238a10.725,10.725,0,0,0-.965,2.33l-1.588.162a.778.778,0,0,0-.778.778V96.9a.778.778,0,0,0,.778.778l1.588.162a10.729,10.729,0,0,0,.965,2.33L95.237,101.4a.778.778,0,0,0,0,1.1l2.818,2.818a.777.777,0,0,0,1.1,0l1.238-1.009a10.687,10.687,0,0,0,2.33.965l.162,1.589a.777.777,0,0,0,.778.778h3.985a.777.777,0,0,0,.778-.778l.162-1.589a10.687,10.687,0,0,0,2.33-.965l1.238,1.009a.777.777,0,0,0,1.1,0l2.818-2.818a.778.778,0,0,0,0-1.1l-1.009-1.237a10.73,10.73,0,0,0,.965-2.33l1.588-.162a.778.778,0,0,0,.778-.778V92.912a.778.778,0,0,0-.778-.778m-11.962,11.223a8.452,8.452,0,1,1,8.452-8.452,8.452,8.452,0,0,1-8.452,8.452" transform="translate(-38.718 -34.239)" fill="#fff"/>
              <path id="Trazado_877523" data-name="Trazado 877523" d="M559.274,315.887l.27-2.078-5.611-1.556a16.1,16.1,0,0,0-.18-2.642L559.1,307.3l-.552-2.022-5.776.726a16.224,16.224,0,0,0-1.141-2.291l4.066-4.169-1.279-1.661-5.068,2.868a16.178,16.178,0,0,0-1.994-1.742L549.5,293.6l-1.82-1.039-3.57,4.6a16.179,16.179,0,0,0-2.427-.813l-.073-5.822-2.078-.27-1.556,5.611a16.053,16.053,0,0,0-2.642.18L533.02,290.7l-2.022.552.726,5.776a16.182,16.182,0,0,0-2.29,1.142l-4.169-4.067-1.661,1.279,2.869,5.069a16.135,16.135,0,0,0-1.742,1.994l-5.411-2.145-1.039,1.82,4.6,3.571a16.123,16.123,0,0,0-.813,2.427l-5.822.073-.27,2.078,5.611,1.556a16.064,16.064,0,0,0,.18,2.642l-5.343,2.309.552,2.022,5.776-.726a16.272,16.272,0,0,0,1.142,2.29l-4.066,4.169,1.279,1.66,5.069-2.868a16.222,16.222,0,0,0,1.994,1.742l-2.145,5.41,1.82,1.039,3.571-4.6a16.135,16.135,0,0,0,2.427.813l.073,5.822,2.078.269,1.556-5.611a16.116,16.116,0,0,0,2.642-.18l2.309,5.343,2.022-.552-.726-5.776a16.186,16.186,0,0,0,2.29-1.142l4.169,4.066,1.66-1.279-2.868-5.069a16.176,16.176,0,0,0,1.742-1.994l5.41,2.145,1.039-1.82-4.6-3.57a16.176,16.176,0,0,0,.813-2.427Zm-22.622,4.683a8.6,8.6,0,1,1,9.637-7.424,8.6,8.6,0,0,1-9.637,7.424" transform="translate(-215.01 -120.952)" fill="#fff"/>
              <path id="Trazado_877524" data-name="Trazado 877524" d="M343.337,108.718l-.351-2.066-5.821.155a16.075,16.075,0,0,0-.946-2.473l4.433-3.773-1.12-1.771-5.31,2.385a16.224,16.224,0,0,0-1.763-1.855l2.667-5.177-1.709-1.213-4.007,4.227A16.217,16.217,0,0,0,327,96.073l.467-5.8-2.044-.461-2.068,5.44a16.1,16.1,0,0,0-2.559-.066l-1.774-5.545-2.067.351.156,5.821a16.046,16.046,0,0,0-2.473.946l-3.773-4.432-1.771,1.12,2.385,5.31a16.18,16.18,0,0,0-1.856,1.763l-5.177-2.667-1.213,1.709,4.227,4.007a16.237,16.237,0,0,0-1.082,2.417l-5.8-.467-.461,2.044,5.441,2.068a16.089,16.089,0,0,0-.067,2.559l-5.546,1.774.351,2.066,5.82-.155a16.129,16.129,0,0,0,.946,2.473l-4.432,3.773,1.119,1.771,5.31-2.385a16.17,16.17,0,0,0,1.762,1.855l-2.667,5.177,1.709,1.213,4.007-4.227a16.18,16.18,0,0,0,2.416,1.083l-.467,5.8,2.044.461,2.068-5.441a16.1,16.1,0,0,0,2.559.067l1.774,5.545,2.066-.351-.155-5.821a16.085,16.085,0,0,0,2.473-.946l3.773,4.432,1.772-1.12-2.385-5.31a16.221,16.221,0,0,0,1.855-1.763l5.177,2.667,1.213-1.709-4.227-4.007A16.157,16.157,0,0,0,336.9,116.7l5.8.467.461-2.044-5.441-2.068a16.094,16.094,0,0,0,.067-2.559Zm-20.259,11.1a8.6,8.6,0,1,1,7.041-9.921,8.6,8.6,0,0,1-7.041,9.921" transform="translate(-124.987 -37.354)" fill="#e0c9ba"/>
              <path id="Trazado_877525" data-name="Trazado 877525" d="M384.93,90.611a1.217,1.217,0,0,1-1.2-1.012l-.446-1.609a13.027,13.027,0,0,1-2.6-.594l-1.119,1.279a1.208,1.208,0,0,1-1.676.264L374.033,86.2a1.214,1.214,0,0,1-.287-1.694l.822-1.453a12.98,12.98,0,0,1-1.419-2.259l-1.7.114a1.212,1.212,0,0,1-1.372-1l-.792-4.665a1.216,1.216,0,0,1,.994-1.4l1.609-.446a12.993,12.993,0,0,1,.593-2.6l-1.279-1.119A1.209,1.209,0,0,1,370.943,68l2.738-3.858a1.216,1.216,0,0,1,1.694-.288l1.454.822a13.022,13.022,0,0,1,2.259-1.419l-.114-1.7a1.185,1.185,0,0,1,.211-.878,1.2,1.2,0,0,1,.787-.495l4.665-.792a1.219,1.219,0,0,1,1.4.995L386.484,62a13.016,13.016,0,0,1,2.6.594l1.119-1.279a1.179,1.179,0,0,1,.769-.471,1.2,1.2,0,0,1,.906.207l3.859,2.738a1.218,1.218,0,0,1,.288,1.694l-.822,1.453a13.057,13.057,0,0,1,1.418,2.259l1.682-.112a1.217,1.217,0,0,1,1.386,1l.792,4.665a1.216,1.216,0,0,1-.995,1.4l-1.609.446a13.036,13.036,0,0,1-.594,2.6l1.279,1.119a1.182,1.182,0,0,1,.472.769,1.21,1.21,0,0,1-.206.906L396.09,85.85a1.218,1.218,0,0,1-1.694.288l-1.453-.823a13.054,13.054,0,0,1-2.259,1.419l.113,1.7a1.184,1.184,0,0,1-.211.877,1.205,1.205,0,0,1-.787.495l-4.665.792a1.212,1.212,0,0,1-.2.017m-4.423-3.9.187.067a12.449,12.449,0,0,0,2.852.652l.2.021.558,2.019a.64.64,0,0,0,.736.546l4.664-.792a.633.633,0,0,0,.517-.729l-.143-2.118.178-.085a12.445,12.445,0,0,0,2.477-1.556l.155-.125,1.822,1.033a.642.642,0,0,0,.906-.134l2.738-3.858a.63.63,0,0,0-.149-.881l-1.6-1.4.066-.187a12.436,12.436,0,0,0,.652-2.853l.021-.2,2.019-.558a.655.655,0,0,0,.438-.264.625.625,0,0,0,.107-.472l-.792-4.665a.629.629,0,0,0-.729-.517l-.029,0-2.089.139-.086-.179a12.389,12.389,0,0,0-1.556-2.477L394.5,67l1.033-1.822a.643.643,0,0,0-.134-.906l-3.859-2.738a.621.621,0,0,0-.471-.108.627.627,0,0,0-.409.257l-1.4,1.6-.187-.067a12.439,12.439,0,0,0-2.853-.652l-.2-.021-.558-2.019a.64.64,0,0,0-.735-.546l-4.665.792a.631.631,0,0,0-.517.729l.143,2.119-.18.085a12.427,12.427,0,0,0-2.477,1.556l-.155.125-1.822-1.033a.646.646,0,0,0-.5-.124.625.625,0,0,0-.409.257l-2.739,3.858a.633.633,0,0,0,.149.881l1.6,1.4-.066.187a12.469,12.469,0,0,0-.651,2.853l-.021.2-2.019.558a.655.655,0,0,0-.438.264.626.626,0,0,0-.108.472l.792,4.665a.629.629,0,0,0,.729.517l2.118-.143.086.18a12.431,12.431,0,0,0,1.556,2.477l.124.155-1.033,1.822a.658.658,0,0,0-.124.5.629.629,0,0,0,.257.41l3.858,2.738a.633.633,0,0,0,.882-.15Zm4.375-5.239a6.481,6.481,0,1,1,1.088-.092,6.488,6.488,0,0,1-1.088.092m.006-12.372a5.894,5.894,0,1,0,5.808,4.908,5.888,5.888,0,0,0-5.808-4.908" transform="translate(-153.879 -24.746)" fill="#e0c9ba"/>
              <path id="Trazado_877526" data-name="Trazado 877526" d="M566.4,252.2l-1.568-.159a10.6,10.6,0,0,0-.953-2.3l1-1.222a.768.768,0,0,0,0-1.086l-2.782-2.782a.768.768,0,0,0-1.086,0l-1.222,1a10.6,10.6,0,0,0-2.3-.953l-.159-1.568a.769.769,0,0,0-.768-.768h-3.935a.769.769,0,0,0-.768.768l-.159,1.568a10.591,10.591,0,0,0-2.3.953l-1.222-1a.768.768,0,0,0-1.086,0l-2.782,2.782a.767.767,0,0,0,0,1.086l1,1.222a10.6,10.6,0,0,0-.953,2.3l-1.568.159a.768.768,0,0,0-.768.768V256.9a.768.768,0,0,0,.768.768l1.568.159a10.6,10.6,0,0,0,.953,2.3l-1,1.222a.767.767,0,0,0,0,1.086l2.782,2.782a.768.768,0,0,0,1.086,0l1.222-1a10.589,10.589,0,0,0,2.3.953l.159,1.568a.768.768,0,0,0,.768.768h3.935a.768.768,0,0,0,.768-.768l.159-1.568a10.6,10.6,0,0,0,2.3-.953l1.222,1a.768.768,0,0,0,1.086,0l2.782-2.782a.768.768,0,0,0,0-1.086l-1-1.222a10.59,10.59,0,0,0,.953-2.3l1.568-.159a.768.768,0,0,0,.768-.768v-3.935a.768.768,0,0,0-.768-.768m-11.812,7.88a5.144,5.144,0,1,1,5.144-5.144,5.144,5.144,0,0,1-5.144,5.144" transform="translate(-225.858 -100.992)" fill="#e0c9ba"/>
              <path id="Trazado_877527" data-name="Trazado 877527" d="M347.932,57.63l-.993.066a6.688,6.688,0,0,0-.837-1.332l.491-.866a.485.485,0,0,0-.114-.676l-2.027-1.438a.485.485,0,0,0-.676.115l-.656.75a6.673,6.673,0,0,0-1.533-.35l-.265-.96a.485.485,0,0,0-.559-.4l-2.45.416a.485.485,0,0,0-.4.559l.066.993a6.674,6.674,0,0,0-1.332.837l-.866-.492a.486.486,0,0,0-.677.115L333.669,57a.485.485,0,0,0,.114.676l.75.656a6.676,6.676,0,0,0-.351,1.533l-.96.265a.485.485,0,0,0-.4.559l.416,2.45a.485.485,0,0,0,.559.4l.994-.066a6.687,6.687,0,0,0,.836,1.332l-.491.866a.484.484,0,0,0,.115.676l2.026,1.438a.484.484,0,0,0,.676-.115l.656-.75a6.68,6.68,0,0,0,1.533.35l.265.96a.485.485,0,0,0,.559.4l2.45-.416a.485.485,0,0,0,.4-.559l-.067-.993a6.653,6.653,0,0,0,1.332-.836l.867.491a.484.484,0,0,0,.676-.115l1.438-2.026a.486.486,0,0,0-.115-.677l-.75-.655a6.692,6.692,0,0,0,.35-1.533l.96-.265a.485.485,0,0,0,.4-.559l-.416-2.45a.485.485,0,0,0-.559-.4m-6.521,6.155a3.249,3.249,0,1,1,2.659-3.746,3.248,3.248,0,0,1-2.659,3.746" transform="translate(-138.689 -21.892)" fill="#fff"/>
              <path id="Trazado_877528" data-name="Trazado 877528" d="M55.459,330.655l-.99-.1a6.686,6.686,0,0,0-.6-1.453l.629-.772a.485.485,0,0,0,0-.686l-1.757-1.757a.485.485,0,0,0-.686,0l-.772.629a6.7,6.7,0,0,0-1.453-.6l-.1-.99a.485.485,0,0,0-.485-.485H46.757a.485.485,0,0,0-.485.485l-.1.99a6.719,6.719,0,0,0-1.454.6l-.772-.629a.485.485,0,0,0-.686,0L41.5,327.643a.485.485,0,0,0,0,.686l.629.772a6.658,6.658,0,0,0-.6,1.453l-.99.1a.485.485,0,0,0-.485.485v2.485a.485.485,0,0,0,.485.485l.99.1a6.658,6.658,0,0,0,.6,1.453l-.629.772a.485.485,0,0,0,0,.686l1.757,1.758a.486.486,0,0,0,.686,0l.772-.629a6.723,6.723,0,0,0,1.454.6l.1.99a.486.486,0,0,0,.485.485h2.485a.486.486,0,0,0,.485-.485l.1-.99a6.706,6.706,0,0,0,1.453-.6l.772.629a.486.486,0,0,0,.686,0l1.757-1.758a.485.485,0,0,0,0-.686l-.629-.772a6.687,6.687,0,0,0,.6-1.453l.99-.1a.485.485,0,0,0,.485-.485v-2.485a.485.485,0,0,0-.485-.485M48,335.631a3.249,3.249,0,1,1,3.248-3.248A3.248,3.248,0,0,1,48,335.631" transform="translate(-16.691 -135.196)" fill="#e0c9ba"/>
              <path id="Trazado_877529" data-name="Trazado 877529" d="M585.8,111.093l-.991-.1a6.658,6.658,0,0,0-.6-1.453l.629-.772a.485.485,0,0,0,0-.686l-1.757-1.757a.486.486,0,0,0-.686,0l-.772.629a6.673,6.673,0,0,0-1.453-.6l-.1-.991a.485.485,0,0,0-.485-.485H577.1a.485.485,0,0,0-.485.485l-.1.991a6.675,6.675,0,0,0-1.453.6l-.772-.629a.486.486,0,0,0-.686,0l-1.757,1.757a.485.485,0,0,0,0,.686l.629.772a6.661,6.661,0,0,0-.6,1.453l-.991.1a.485.485,0,0,0-.485.485v2.485a.485.485,0,0,0,.485.485l.991.1a6.66,6.66,0,0,0,.6,1.453l-.629.772a.485.485,0,0,0,0,.686l1.757,1.757a.486.486,0,0,0,.686,0l.772-.629a6.7,6.7,0,0,0,1.453.6l.1.99a.486.486,0,0,0,.485.485h2.485a.486.486,0,0,0,.485-.485l.1-.99a6.7,6.7,0,0,0,1.453-.6l.772.629a.486.486,0,0,0,.686,0l1.757-1.757a.485.485,0,0,0,0-.686l-.629-.772a6.657,6.657,0,0,0,.6-1.453l.991-.1a.485.485,0,0,0,.485-.485v-2.485a.485.485,0,0,0-.485-.485m-7.46,4.976a3.249,3.249,0,1,1,3.248-3.248,3.248,3.248,0,0,1-3.248,3.248" transform="translate(-237.688 -43.703)" fill="#e0c9ba"/>
              <path id="Trazado_877530" data-name="Trazado 877530" d="M521.369,282.7h-2.485a.777.777,0,0,1-.776-.777l-.079-.766a6.944,6.944,0,0,1-1.15-.476l-.621.506a.75.75,0,0,1-.527.208h0a.771.771,0,0,1-.549-.227l-1.757-1.757a.778.778,0,0,1,0-1.1l.487-.6a6.944,6.944,0,0,1-.477-1.15l-.8-.082h0a.769.769,0,0,1-.744-.775V273.22a.778.778,0,0,1,.776-.777l.767-.079a7.022,7.022,0,0,1,.476-1.15l-.506-.619a.771.771,0,0,1,.019-1.077l1.757-1.757a.772.772,0,0,1,.549-.228h0a.773.773,0,0,1,.549.229l.6.485a6.988,6.988,0,0,1,1.15-.476l.082-.8a.769.769,0,0,1,.775-.747h2.485a.777.777,0,0,1,.776.776l.079.768a7.012,7.012,0,0,1,1.15.475l.621-.505a.747.747,0,0,1,.527-.208h0a.774.774,0,0,1,.549.229l1.757,1.756a.777.777,0,0,1,0,1.1l-.486.6a7.023,7.023,0,0,1,.477,1.15l.783.079a.779.779,0,0,1,.761.777V275.7a.778.778,0,0,1-.777.777l-.766.079a6.994,6.994,0,0,1-.477,1.15l.506.62a.751.751,0,0,1,.208.528.774.774,0,0,1-.229.549l-1.757,1.757a.772.772,0,0,1-.548.227h0a.771.771,0,0,1-.549-.227l-.6-.486a6.943,6.943,0,0,1-1.15.476l-.082.8a.769.769,0,0,1-.774.747m-4.554-2.721.173.1a6.414,6.414,0,0,0,1.389.576l.191.054.121,1.188a.2.2,0,0,0,.195.223h2.485a.193.193,0,0,0,.193-.194l.122-1.217.191-.054a6.386,6.386,0,0,0,1.389-.576l.173-.1.926.755a.22.22,0,0,0,.158.077h0a.191.191,0,0,0,.135-.056l1.758-1.758a.192.192,0,0,0,0-.274l-.775-.947.1-.173a6.369,6.369,0,0,0,.576-1.389l.054-.191,1.188-.121a.2.2,0,0,0,.223-.2V273.22a.194.194,0,0,0-.194-.194l-.03,0-1.188-.121-.054-.191a6.37,6.37,0,0,0-.576-1.389l-.1-.173.755-.925a.2.2,0,0,0,.02-.3l-1.757-1.757a.192.192,0,0,0-.136-.057h0a.193.193,0,0,0-.136.057l-.948.774-.173-.1a6.338,6.338,0,0,0-1.39-.575l-.191-.054-.121-1.188a.2.2,0,0,0-.195-.223h-2.485a.193.193,0,0,0-.193.193l-.122,1.218-.191.054a6.364,6.364,0,0,0-1.39.575l-.173.1-.925-.754a.223.223,0,0,0-.158-.077h0a.2.2,0,0,0-.137.057l-1.757,1.757a.2.2,0,0,0,0,.275l.774.946-.1.173a6.342,6.342,0,0,0-.575,1.389l-.054.191-1.188.121a.2.2,0,0,0-.223.2V275.7a.193.193,0,0,0,.193.194l1.218.122.054.191a6.329,6.329,0,0,0,.575,1.389l.1.173-.755.926a.2.2,0,0,0-.02.3l1.757,1.757a.2.2,0,0,0,.137.057h0a.191.191,0,0,0,.135-.056ZM520.126,278a3.54,3.54,0,1,1,3.54-3.541,3.544,3.544,0,0,1-3.54,3.541m0-6.5a2.957,2.957,0,1,0,2.957,2.957,2.96,2.96,0,0,0-2.957-2.957" transform="translate(-213.309 -110.939)" fill="#e0c9ba"/>
              <path id="Trazado_877531" data-name="Trazado 877531" d="M598.447,90.444h-2.823a.843.843,0,0,1-.842-.843l-.093-.9a7.889,7.889,0,0,1-1.348-.558l-.725.591a.836.836,0,0,1-1.169-.019l-2-2a.843.843,0,0,1,0-1.192l.572-.7a7.867,7.867,0,0,1-.558-1.347l-.931-.094h0a.836.836,0,0,1-.811-.841V79.718a.843.843,0,0,1,.843-.842l.9-.093a7.857,7.857,0,0,1,.559-1.348l-.591-.725a.813.813,0,0,1-.227-.573.84.84,0,0,1,.247-.6l2-2a.845.845,0,0,1,1.192,0l.7.572a7.842,7.842,0,0,1,1.347-.558l.1-.931a.835.835,0,0,1,.84-.813h2.823a.843.843,0,0,1,.842.843l.093.9a7.818,7.818,0,0,1,1.348.558l.724-.591a.879.879,0,0,1,1.17.02l2,2a.841.841,0,0,1,0,1.192l-.572.7a7.9,7.9,0,0,1,.559,1.347l.918.093a.843.843,0,0,1,.826.842V82.54a.843.843,0,0,1-.843.842l-.9.093a7.881,7.881,0,0,1-.559,1.348l.591.725a.814.814,0,0,1,.228.573.84.84,0,0,1-.247.6l-2,2a.863.863,0,0,1-1.192,0l-.7-.572a7.946,7.946,0,0,1-1.347.559l-.1.93a.835.835,0,0,1-.841.813m-5.169-3,.173.1a7.333,7.333,0,0,0,1.587.657l.191.054.135,1.322a.27.27,0,0,0,.261.289h2.823a.26.26,0,0,0,.259-.26l.136-1.351.191-.054a7.348,7.348,0,0,0,1.587-.657l.173-.1,1.03.84a.259.259,0,0,0,.389.019l2-1.995a.259.259,0,0,0,.076-.184.256.256,0,0,0-.076-.183l-.86-1.053.1-.173a7.24,7.24,0,0,0,.657-1.587l.054-.191,1.323-.135a.269.269,0,0,0,.289-.261V79.718a.259.259,0,0,0-.26-.259l-.029,0-1.323-.135-.054-.191a7.2,7.2,0,0,0-.657-1.587l-.1-.173.841-1.03a.288.288,0,0,0,.1-.205.257.257,0,0,0-.076-.183l-2-2a.266.266,0,0,0-.367,0l-1.052.86-.173-.1a7.291,7.291,0,0,0-1.587-.657l-.191-.054-.135-1.322a.27.27,0,0,0-.261-.289h-2.823a.26.26,0,0,0-.259.26l-.137,1.352-.191.054a7.277,7.277,0,0,0-1.587.657l-.173.1-1.031-.84a.268.268,0,0,0-.389-.02l-2,2a.259.259,0,0,0,0,.366l.86,1.052-.1.173a7.243,7.243,0,0,0-.658,1.587l-.054.191-1.322.135a.27.27,0,0,0-.289.261V82.54a.26.26,0,0,0,.259.259l1.351.136.054.191a7.287,7.287,0,0,0,.657,1.587l.1.173-.84,1.031a.285.285,0,0,0-.1.2.256.256,0,0,0,.076.183l2,2a.26.26,0,0,0,.367,0Zm3.757-.761a5.551,5.551,0,1,1,5.552-5.551,5.558,5.558,0,0,1-5.552,5.551m0-10.52A4.968,4.968,0,1,0,602,81.129a4.974,4.974,0,0,0-4.969-4.968" transform="translate(-244.909 -29.926)" fill="#e0c9ba"/>
              <path id="Trazado_877532" data-name="Trazado 877532" d="M601.578,88.628a2.957,2.957,0,1,1,2.957-2.957,2.96,2.96,0,0,1-2.957,2.957m0-5.331a2.374,2.374,0,1,0,2.374,2.373,2.376,2.376,0,0,0-2.374-2.373" transform="translate(-249.451 -34.468)" fill="#e0c9ba"/>
              <path id="Trazado_877533" data-name="Trazado 877533" d="M62.584,114.513H60a.8.8,0,0,1-.8-.8l-.083-.808a7.317,7.317,0,0,1-1.211-.5l-.652.532a.83.83,0,0,1-1.105-.02l-1.83-1.83a.8.8,0,0,1,0-1.127l.512-.63a7.275,7.275,0,0,1-.5-1.211l-.837-.085h0a.79.79,0,0,1-.765-.8v-2.589a.8.8,0,0,1,.8-.8l.808-.083a7.3,7.3,0,0,1,.5-1.211l-.532-.652a.77.77,0,0,1-.213-.542.791.791,0,0,1,.233-.563l1.83-1.83a.8.8,0,0,1,1.127,0l.631.512a7.238,7.238,0,0,1,1.21-.5l.086-.838a.789.789,0,0,1,.8-.767h2.589a.8.8,0,0,1,.8.8l.083.808a7.223,7.223,0,0,1,1.211.5l.652-.532a.83.83,0,0,1,1.105.02l1.83,1.83a.8.8,0,0,1,0,1.127l-.512.631a7.275,7.275,0,0,1,.5,1.211l.825.083a.8.8,0,0,1,.78.8v2.589a.8.8,0,0,1-.8.8l-.808.083a7.275,7.275,0,0,1-.5,1.211l.532.653a.767.767,0,0,1,.213.541.792.792,0,0,1-.233.563l-1.83,1.83a.816.816,0,0,1-1.127,0l-.63-.512a7.264,7.264,0,0,1-1.211.5l-.085.838a.791.791,0,0,1-.8.768m-4.743-2.807.173.1a6.682,6.682,0,0,0,1.451.6l.191.054.125,1.229a.224.224,0,0,0,.215.244h2.589a.214.214,0,0,0,.213-.214l.127-1.259.191-.054a6.687,6.687,0,0,0,1.451-.6l.173-.1.957.78a.212.212,0,0,0,.324.02l1.831-1.83a.213.213,0,0,0,.062-.151.211.211,0,0,0-.062-.15l-.8-.98.1-.173a6.687,6.687,0,0,0,.6-1.451l.054-.191,1.23-.125a.224.224,0,0,0,.243-.215v-2.589a.214.214,0,0,0-.213-.213h-.03l-1.229-.125-.054-.191a6.694,6.694,0,0,0-.6-1.451l-.1-.173.781-.958a.224.224,0,0,0,.02-.324l-1.83-1.83a.219.219,0,0,0-.3,0l-.979.8-.173-.1a6.645,6.645,0,0,0-1.451-.6l-.191-.054L62.8,98.2a.224.224,0,0,0-.215-.243H60a.214.214,0,0,0-.213.213l-.127,1.259-.191.054a6.652,6.652,0,0,0-1.45.6l-.173.1-.958-.781a.224.224,0,0,0-.324-.02l-1.83,1.83a.214.214,0,0,0,0,.3l.8.98-.1.173a6.682,6.682,0,0,0-.6,1.45l-.054.191-1.229.125a.223.223,0,0,0-.243.215v2.589a.214.214,0,0,0,.213.214l1.259.126.054.191a6.675,6.675,0,0,0,.6,1.451l.1.173-.781.958a.241.241,0,0,0-.082.173.211.211,0,0,0,.062.15l1.83,1.831a.215.215,0,0,0,.3,0Zm3.448-.645a5.116,5.116,0,1,1,5.116-5.116,5.122,5.122,0,0,1-5.116,5.116m0-9.649a4.533,4.533,0,1,0,4.533,4.533,4.538,4.538,0,0,0-4.533-4.533" transform="translate(-21.97 -40.578)" fill="#e0c9ba"/>
              <path id="Trazado_877534" data-name="Trazado 877534" d="M65.455,112.847a2.736,2.736,0,1,1,2.736-2.736,2.739,2.739,0,0,1-2.736,2.736m0-4.889a2.153,2.153,0,1,0,2.153,2.153,2.156,2.156,0,0,0-2.153-2.153" transform="translate(-26.136 -44.744)" fill="#e0c9ba"/>
              <g id="Grupo_1100994" data-name="Grupo 1100994" transform="translate(83.79 7.691)" opacity="0.3">
                <g id="Grupo_1100993" data-name="Grupo 1100993">
                  <g id="Grupo_1100992" data-name="Grupo 1100992" clip-path="url(#clip-path-3)">
                    <path id="Trazado_877535" data-name="Trazado 877535" d="M219.642,42.573a29.387,29.387,0,0,1-29.387,29.387c-6.153,0-10.229-.918-14.949-4.15l-31.655,40.855,26.343-44.678c-6.216-5.388-9.126-12.542-9.126-21.415a29.387,29.387,0,1,1,58.774,0" transform="translate(-143.651 -13.186)" fill="#fff"/>
                  </g>
                </g>
              </g>
              <path id="Trazado_877536" data-name="Trazado 877536" d="M197.392,74.154l0-.292q.583-.005,1.161-.029l.012.292q-.583.024-1.171.029m-1.171-.008q-.587-.012-1.169-.044l.016-.291q.577.031,1.16.044Zm3.51-.085-.02-.291q.581-.04,1.157-.1l.03.29q-.58.06-1.167.1m-5.845-.039q-.585-.05-1.164-.118l.034-.29q.575.068,1.155.117Zm8.174-.2-.038-.289q.577-.079,1.148-.174l.048.288q-.577.1-1.158.175m-10.5-.072q-.58-.086-1.154-.19l.052-.288q.57.1,1.145.19Zm12.807-.314-.057-.286q.57-.114,1.135-.246l.066.284q-.57.133-1.145.248m-15.11-.1q-.573-.123-1.14-.264l.07-.283q.563.14,1.131.262Zm17.39-.428-.075-.282q.563-.15,1.118-.317l.084.279q-.56.17-1.126.321m-19.662-.135q-.564-.159-1.121-.336l.088-.278q.552.176,1.112.334Zm21.907-.542-.093-.276q.553-.186,1.1-.39l.1.274q-.549.2-1.107.392m-24.138-.165q-.553-.2-1.1-.407l.106-.272q.541.209,1.089.4Zm26.338-.654-.111-.27q.54-.22,1.071-.458l.119.266q-.535.24-1.079.462m-28.52-.193q-.54-.23-1.07-.475l.122-.265q.526.243,1.062.472Zm30.663-.764-.128-.262q.524-.255,1.039-.526l.136.258q-.519.274-1.047.53m-32.787-.221q-.524-.263-1.038-.542l.139-.257q.51.277,1.03.538Zm34.864-.87-.144-.254q.507-.288,1-.59l.152.248q-.5.305-1.011.595m-36.921-.246q-.507-.3-1-.607l.155-.247q.492.308.994.6Zm38.923-.974-.159-.244q.486-.318.963-.651l.167.239q-.48.336-.971.657m-40.906-.271q-.486-.327-.961-.668l.17-.237q.472.339.954.663Zm42.826-1.072-.175-.233q.465-.348.92-.711l.183.227q-.458.366-.927.717M174.51,66.5q-.217-.167-.432-.337-.245-.193-.485-.391l.184-.226q.239.2.482.387.214.169.429.334Zm46.559-1.167-.189-.222q.443-.377.874-.767l.2.216q-.434.393-.88.773M172.7,65.017q-.441-.386-.87-.784l.2-.213q.425.395.864.778ZM222.8,63.761l-.2-.21q.418-.4.823-.82l.209.2q-.41.42-.83.827m-51.821-.338q-.416-.412-.82-.837l.211-.2q.4.422.813.831Zm53.454-1.34-.215-.2q.391-.429.77-.87l.222.19q-.381.444-.776.877m-55.066-.359q-.39-.437-.766-.887l.224-.187q.373.445.759.88Zm56.589-1.417-.227-.183q.364-.452.713-.916l.233.176q-.352.468-.719.923m-58.092-.38q-.361-.46-.708-.933l.236-.172q.343.468.7.925Zm59.5-1.487-.238-.168q.334-.473.654-.958l.243.161q-.323.488-.66.965m-60.886-.4q-.332-.483-.648-.976l.246-.158q.314.49.643.969Zm62.174-1.552-.248-.153q.3-.494.593-1l.253.145q-.29.507-.6,1.005m-63.438-.42q-.3-.5-.586-1.014l.255-.142q.283.509.58,1.007Zm64.6-1.608-.258-.136q.272-.512.528-1.032l.262.129q-.258.525-.532,1.04m-65.737-.439q-.268-.521-.52-1.05l.264-.125q.249.526.515,1.042Zm66.768-1.657-.265-.12q.239-.527.461-1.063l.27.112q-.225.54-.465,1.071M163.076,51.9q-.234-.536-.452-1.08l.271-.108q.216.54.449,1.072Zm68.669-1.7-.272-.1q.2-.542.394-1.093l.276.094q-.19.555-.4,1.1m-69.539-.477q-.2-.549-.383-1.107l.277-.092q.182.554.38,1.1Zm70.3-1.738-.278-.086q.17-.554.324-1.116l.281.077q-.155.566-.327,1.125M161.476,47.5q-.164-.561-.312-1.129l.282-.073q.146.563.31,1.121Zm71.646-1.771-.283-.068q.135-.564.253-1.134l.285.058q-.118.576-.254,1.143m-72.233-.5q-.129-.57-.24-1.147l.286-.055q.11.572.238,1.138Zm72.706-1.8-.288-.05q.1-.571.18-1.148l.289.041q-.081.581-.181,1.157m-73.149-.5q-.092-.577-.167-1.16l.289-.037q.074.578.166,1.151Zm73.474-1.815-.29-.031q.062-.577.107-1.157l.291.022q-.046.586-.109,1.166m-73.77-.509q-.055-.581-.093-1.168l.291-.019q.038.582.092,1.159Zm73.95-1.826-.292-.013q.026-.578.036-1.161l.292,0q-.009.587-.036,1.17M160,38.275q-.018-.584-.019-1.172h.292q0,.584.019,1.162Zm73.84-1.825c-.006-.388-.019-.776-.037-1.161l.291-.014q.028.583.038,1.17Zm-73.551-.509L160,35.932q.017-.587.054-1.169l.291.018q-.036.577-.054,1.16m73.44-1.813q-.047-.582-.111-1.158l.29-.032q.065.581.111,1.167Zm-73.3-.5-.291-.027q.054-.584.127-1.164l.289.036q-.072.575-.126,1.155m73.039-1.808q-.082-.577-.183-1.148l.287-.051q.1.577.185,1.158Zm-72.75-.5-.288-.045q.091-.58.2-1.154l.286.054q-.108.57-.2,1.145m72.348-1.794q-.119-.571-.256-1.134l.283-.069q.137.569.258,1.143Zm-71.915-.489-.285-.063q.128-.574.273-1.139l.283.072q-.144.561-.271,1.129m71.368-1.771q-.156-.562-.328-1.116l.278-.087q.174.559.33,1.125Zm-70.79-.478-.281-.081q.164-.563.345-1.119l.278.09q-.179.551-.342,1.11m70.1-1.742q-.191-.55-.4-1.093l.272-.1q.209.547.4,1.1Zm-69.381-.466-.274-.1q.2-.552.415-1.095l.271.107q-.214.539-.412,1.087M231,22.872q-.225-.536-.466-1.065l.265-.121q.243.532.47,1.073Zm-67.691-.454-.268-.116q.234-.538.484-1.066l.264.125q-.248.524-.479,1.058m66.726-1.66q-.259-.521-.533-1.034l.257-.138q.276.516.537,1.041ZM164.3,20.321l-.26-.134q.268-.521.55-1.032l.255.141q-.28.507-.545,1.024m64.635-1.612q-.291-.5-.6-1l.248-.154q.308.5.6,1.006Zm-63.512-.419-.251-.149q.3-.5.614-1l.246.157q-.312.489-.609.988m62.286-1.556q-.322-.484-.659-.957l.237-.169q.339.477.664.965Zm-61.037-.4-.24-.164q.331-.484.676-.955l.235.172q-.342.468-.671.948m59.69-1.493q-.352-.463-.718-.915l.227-.183q.368.455.723.921Zm-58.319-.381-.23-.18q.36-.462.735-.911l.224.187q-.372.445-.729.9M224.9,13.036c-.107-.123-.215-.246-.323-.368-.074-.083-.345-.382-.405-.448q-.4-.425-.8-.839l.208-.2q.412.416.81.845c.062.066.335.369.41.453q.164.184.325.371Zm-55.37-.361-.218-.194q.389-.438.791-.864l.212.2q-.4.422-.785.857m1.6-1.689-.205-.207q.416-.413.843-.813l.2.213q-.425.4-.837.807m51.414-.419q-.42-.4-.854-.787l.194-.218q.438.391.861.794ZM172.826,9.4l-.192-.219q.441-.386.893-.758l.185.225q-.449.369-.886.752m47.983-.381q-.444-.374-.9-.734l.181-.229q.46.362.908.739ZM174.621,7.925l-.177-.231q.464-.357.939-.7l.171.236q-.473.341-.933.7m44.364-.344q-.465-.345-.944-.676l.166-.24q.482.333.952.681ZM176.506,6.564l-.163-.241q.486-.327.982-.64l.156.246q-.493.311-.974.635m40.57-.306q-.486-.316-.984-.617l.151-.25q.5.3.992.621Zm-38.6-.933-.148-.252q.506-.3,1.02-.577l.14.256q-.511.278-1.013.573m36.617-.269q-.506-.284-1.021-.554l.135-.259q.519.272,1.028.559Zm-34.574-.843-.132-.26q.523-.265,1.056-.512l.123.264q-.528.246-1.047.507m32.517-.234q-.521-.253-1.053-.491l.119-.266q.535.24,1.061.494Zm-30.408-.747-.114-.268q.539-.23,1.086-.443l.106.271q-.543.212-1.078.44m28.288-.2q-.536-.22-1.081-.423l.1-.274q.549.2,1.09.427Zm-26.119-.646-.1-.275q.553-.2,1.113-.373l.088.278q-.556.177-1.1.37m23.945-.167q-.549-.185-1.105-.355l.085-.279q.561.171,1.114.358ZM187.013,1.68l-.079-.281q.563-.159,1.134-.3l.071.283q-.566.141-1.126.3m19.5-.136q-.559-.15-1.125-.284l.066-.283q.57.134,1.134.286Zm-17.244-.428-.062-.285Q189.783.708,190.36.6l.052.287q-.573.1-1.14.226m14.986-.1Q203.692.9,203.119.8l.048-.288q.578.1,1.15.213ZM191.558.7l-.043-.289q.577-.087,1.161-.155l.034.289c-.386.046-.769.1-1.152.155M201.972.625Q201.4.546,200.82.486l.03-.29q.583.06,1.16.139Zm-8.107-.2-.025-.29q.582-.05,1.168-.082l.016.291q-.582.032-1.159.082m5.8-.043q-.577-.042-1.158-.065l.012-.292q.586.024,1.168.065ZM196.185.3l-.007-.292q.44-.01.882-.01h.29l0,.292h-.287q-.438,0-.875.01" transform="translate(-66.666 0)" fill="#fff"/>
              <path id="Trazado_877537" data-name="Trazado 877537" d="M117.717,365.545H78.255L74.22,302.887h47.533Z" transform="translate(-30.928 -126.216)" fill="#fff"/>
              <path id="Trazado_877538" data-name="Trazado 877538" d="M119.925,355.1l1.724-27.574H74.838L76.562,355.1Z" transform="translate(-31.186 -136.482)" fill="#dca152"/>
              <path id="Trazado_877539" data-name="Trazado 877539" d="M72.674,294.231l-.928,5.049h50.418l-.928-5.049Z" transform="translate(-29.897 -122.609)" fill="#7a3457"/>
              <path id="Trazado_877540" data-name="Trazado 877540" d="M119.49,283.911H80.55L79.265,290.9h41.509Z" transform="translate(-33.031 -118.308)" fill="#7a3457"/>
              <rect id="Rectángulo_401959" data-name="Rectángulo 401959" width="41.152" height="0.583" transform="translate(46.413 171.33)" fill="#420f2c"/>
              <path id="Trazado_877541" data-name="Trazado 877541" d="M117.924,354.044a10.1,10.1,0,1,1,10.1-10.1,10.11,10.11,0,0,1-10.1,10.1m0-19.613a9.515,9.515,0,1,0,9.515,9.515,9.525,9.525,0,0,0-9.515-9.515" transform="translate(-44.932 -139.118)" fill="#c47c26"/>
              <path id="Trazado_877542" data-name="Trazado 877542" d="M370.057,307.184H210.073a8.873,8.873,0,0,1-8.874-8.873V187.034a8.874,8.874,0,0,1,8.874-8.874H370.057a8.874,8.874,0,0,1,8.874,8.874V298.311a8.873,8.873,0,0,1-8.874,8.873" transform="translate(-83.842 -74.241)" fill="#dce5ef"/>
              <path id="Trazado_877543" data-name="Trazado 877543" d="M175,399.36a9.964,9.964,0,0,0,9.25,6.386h189.8a9.964,9.964,0,0,0,9.25-6.386Z" transform="translate(-72.923 -166.417)" fill="#7a3457"/>
              <path id="Trazado_877544" data-name="Trazado 877544" d="M345.075,399.36h-15.42a4.982,4.982,0,0,0,4.626,3.193h18.627a4.982,4.982,0,0,0,4.626-3.193Z" transform="translate(-137.37 -166.417)" fill="#591c3d"/>
              <path id="Trazado_877545" data-name="Trazado 877545" d="M370.057,307.184H210.073a8.873,8.873,0,0,1-8.874-8.873V187.034a8.874,8.874,0,0,1,8.874-8.874H370.057a8.874,8.874,0,0,1,8.874,8.874V298.311a8.873,8.873,0,0,1-8.874,8.873" transform="translate(-83.842 -74.241)" fill="#7a3457"/>
              <rect id="Rectángulo_401960" data-name="Rectángulo 401960" width="163.366" height="0.583" transform="translate(124.54 232.651)" fill="#420f2c"/>
              <rect id="Rectángulo_401961" data-name="Rectángulo 401961" width="161.247" height="112.836" transform="translate(125.6 112.013)" fill="#fff"/>
              <path id="Trazado_877546" data-name="Trazado 877546" d="M353.908,185.591h-7.782a1.055,1.055,0,1,1,0-2.111h7.782a1.055,1.055,0,0,1,0,2.111m-7.782-1.528a.472.472,0,1,0,0,.944h7.782a.472.472,0,0,0,0-.944Z" transform="translate(-143.794 -76.458)" fill="#420f2c"/>
              <rect id="Rectángulo_401962" data-name="Rectángulo 401962" width="161.247" height="0.583" transform="translate(125.601 202.419)" fill="#f2e5dc"/>
              <rect id="Rectángulo_401963" data-name="Rectángulo 401963" width="161.247" height="0.583" transform="translate(125.601 172.186)" fill="#f2e5dc"/>
              <rect id="Rectángulo_401964" data-name="Rectángulo 401964" width="161.247" height="0.583" transform="translate(125.601 141.954)" fill="#f2e5dc"/>
              <rect id="Rectángulo_401965" data-name="Rectángulo 401965" width="27.726" height="45.761" transform="translate(136.177 179.088)" fill="#dca152"/>
              <rect id="Rectángulo_401966" data-name="Rectángulo 401966" width="27.726" height="69.778" transform="translate(173.633 155.071)" fill="#b3b566"/>
              <rect id="Rectángulo_401967" data-name="Rectángulo 401967" width="27.726" height="91.178" transform="translate(211.089 133.671)" fill="#6fa0e8"/>
              <rect id="Rectángulo_401968" data-name="Rectángulo 401968" width="27.726" height="127.527" transform="translate(248.545 97.323)" fill="#e0654a"/>
              <path id="Trazado_877547" data-name="Trazado 877547" d="M190.05,231.891l-2.475-2.474,44.712-44.711h19.465L265.458,171h8.354l49.769-49.768h38.834l12.824-12.824,2.474,2.474-13.849,13.85H325.03L275.262,174.5h-8.354L253.2,188.206H233.736Z" transform="translate(-78.164 -45.174)" fill="#e0654a"/>
              <path id="Trazado_877548" data-name="Trazado 877548" d="M504.893,121.081h-3.5V111.028h-9.848v-3.5h13.348Z" transform="translate(-204.832 -44.808)" fill="#e0654a"/>
              <path id="Trazado_877549" data-name="Trazado 877549" d="M640.658,398.086h6.885l-1.505-9.582h-6.582Z" transform="translate(-266.467 -161.893)" fill="#fff"/>
              <path id="Trazado_877550" data-name="Trazado 877550" d="M642.622,400.456c-3.714.159-5.7-.267-7.1-1.173,0,0-1.229,2.247-2.669,2.859s-4.737.811-4.737,3.753h13.706a1.333,1.333,0,0,0,1.418-1.309Z" transform="translate(-261.742 -166.385)" fill="#7a3457"/>
              <rect id="Rectángulo_401969" data-name="Rectángulo 401969" width="10.381" height="24.859" transform="translate(354.841 97.335)" fill="#ef9d7f"/>
              <path id="Trazado_877551" data-name="Trazado 877551" d="M585.9,197.1a19.949,19.949,0,0,0-10.409-2.645c-6.42.019,2.617,8.774,2.617,8.774Z" transform="translate(-238.854 -81.031)" fill="#ef9d7f"/>
              <path id="Trazado_877552" data-name="Trazado 877552" d="M456.807,105.439a33.608,33.608,0,1,0,10.049-46.455,33.608,33.608,0,0,0-10.049,46.455m9.163-5.9a22.708,22.708,0,1,1,31.387,6.789,22.707,22.707,0,0,1-31.387-6.789" transform="translate(-188.122 -22.346)" fill="#7a3457"/>
              <path id="Trazado_877553" data-name="Trazado 877553" d="M537.582,166.47l8.548-5.507-4.564-7.082c-2.289-1.238-9.177,3.465-8.548,5.507Z" transform="translate(-222.097 -64.038)" fill="#fff"/>
              <path id="Trazado_877554" data-name="Trazado 877554" d="M547.794,162.286l19.052,27.357a2.2,2.2,0,0,1-.657,3.037l-8.448,5.443a2.2,2.2,0,0,1-3.037-.657l-17.037-28.656c-1.482-2.172,8.644-8.642,10.128-6.525" transform="translate(-223.989 -67.451)" fill="#7a3457"/>
              <path id="Trazado_877555" data-name="Trazado 877555" d="M471.647,104.131a23,23,0,1,1,38.667-24.914l-.49.316a22.416,22.416,0,0,0-37.687,24.282Z" transform="translate(-195.009 -28.62)" fill="#420f2c"/>
              <path id="Trazado_877556" data-name="Trazado 877556" d="M486.478,127.089a33.641,33.641,0,0,1-7.124-.766,33.162,33.162,0,0,1-21-14.547l.49-.316a32.8,32.8,0,0,0,55.142-35.528l.49-.316a33.4,33.4,0,0,1-27.995,51.472" transform="translate(-190.999 -31.51)" fill="#420f2c"/>
              <path id="Trazado_877557" data-name="Trazado 877557" d="M532.891,93.408a19.1,19.1,0,0,0-11.354-13.531l.665-1.619a20.856,20.856,0,0,1,12.4,14.774Z" transform="translate(-217.329 -32.611)" fill="#fff"/>
              <path id="Trazado_877558" data-name="Trazado 877558" d="M510.322,77.646a19.061,19.061,0,0,0-6.481-.108l-.269-1.729a20.789,20.789,0,0,1,7.076.119Z" transform="translate(-209.843 -31.487)" fill="#fff"/>
              <path id="Trazado_877559" data-name="Trazado 877559" d="M586.836,398.086h7.2l.732-9.582h-6.88Z" transform="translate(-244.54 -161.893)" fill="#fff"/>
              <path id="Trazado_877560" data-name="Trazado 877560" d="M586.489,258.487h25.688c7.116,19.205,10.857,48.508,12.32,79.827-3.182,1.026-6.645,1.113-11.71,0-5.936-22.6-12.014-39.37-13.536-61.127.481,20.344-2.271,40.691-5.735,61.127a19.387,19.387,0,0,1-11.038,0c-1.928-34.265-3.714-68.2,4.012-79.827" transform="translate(-242.03 -107.714)" fill="#7a3457"/>
              <path id="Trazado_877561" data-name="Trazado 877561" d="M612.428,288.6l-.04-.582c3.174-.216,5.4-1.147,6.8-2.844l.45.372c-1.511,1.827-3.87,2.827-7.211,3.055" transform="translate(-255.188 -118.833)" fill="#420f2c"/>
              <path id="Trazado_877562" data-name="Trazado 877562" d="M589.318,400.456c-3.714.159-5.7-.267-7.1-1.173,0,0-1.228,2.247-2.669,2.859s-4.737.811-4.737,3.753h13.706a1.333,1.333,0,0,0,1.419-1.309Z" transform="translate(-239.53 -166.385)" fill="#7a3457"/>
              <path id="Trazado_877563" data-name="Trazado 877563" d="M546.673,184.317l-1.229-5.53a1.192,1.192,0,0,0-2.3,0c-.217,1.608.124,4.49-.545,4.7l-4.97-8.359a11.129,11.129,0,0,0,.423,11.27c3.136,6.493,9.61,2.673,8.621-2.085" transform="translate(-223.481 -72.979)" fill="#ef9d7f"/>
              <path id="Trazado_877564" data-name="Trazado 877564" d="M603.624,168.19h0a6.824,6.824,0,0,0,6.8-6.8v-5.373a6.824,6.824,0,0,0-6.8-6.8c-3.742,0-6.8-4.98-6.8-1.237v6.505c-.661,1.68-1.368,2.728-1.01,3.413s1.01,1.693,1.01,1.693c.034,6.246,3.062,8.606,6.8,8.606" transform="translate(-248.239 -61.08)" fill="#ef9d7f"/>
              <path id="Trazado_877565" data-name="Trazado 877565" d="M607.312,180.477v-4.362l-1.444,4.086a6.68,6.68,0,0,0,1.444.276" transform="translate(-252.471 -73.389)" fill="#e2876a"/>
              <path id="Trazado_877566" data-name="Trazado 877566" d="M613.078,145.772c-2.045-4.249-8.028-5.56-11.77-4.9-3.047-1.756-5.483-.742-6.259,1.457-.9,3.959,2.181,5.343,5.615,6.035-.219,4.157-.25,6.589,1.255,7.235a4.436,4.436,0,0,1-.073-2.519,1.6,1.6,0,0,1,2.879-.549c.72.966.721,3.669-.9,5.33,3.049,3.668,5.513,3.868,9.3,3.868,2.4-6.34,5.962-13.806-.041-15.96" transform="translate(-247.897 -58.331)" fill="#7a3457"/>
              <path id="Trazado_877567" data-name="Trazado 877567" d="M583.7,273.18s7.633,3.78,20.394,3.383,12.938-4.55,12.938-4.55l-33.414-.674Z" transform="translate(-243.2 -113.07)" fill="#fff"/>
              <path id="Trazado_877568" data-name="Trazado 877568" d="M597.231,167.114v-2.466l-.531,1.612Z" transform="translate(-248.651 -68.61)" fill="#e2876a"/>
              <path id="Trazado_877569" data-name="Trazado 877569" d="M615.219,238.275c3.072-11.723,2.877-24.479,1.922-37.909-.925-8.286-5.286-9.99-10.756-9.99H595.835c-8.986.247-14.928,3.7-14.928,10.857-1.946,12.531-2.612,24.886.531,37.005,14.361,1.688,26.022,1.761,33.781.037" transform="translate(-241.385 -79.332)" fill="#6fa0e8"/>
              <path id="Trazado_877570" data-name="Trazado 877570" d="M541.629,200.217l-.457-2.854c1.21-1.579,5.617-3.129,8.178-2.361l1.244,3.44Z" transform="translate(-225.512 -81.175)" fill="#fff"/>
              <path id="Trazado_877571" data-name="Trazado 877571" d="M576.9,193.684a6.708,6.708,0,0,0-7.02.115l0,0c-5.057,2.859-10.323,7.5-15.211,13.051a66.955,66.955,0,0,0-4.1-10.612c-3.478-.093-7.355.958-8.98,2.817,0,0,2.869,22.321,10.773,23.639S577.1,207.461,577.1,207.461l-.074-.615c1.087-.559,1.564-2.835,2.233-3.964a6.714,6.714,0,0,0-2.357-9.2" transform="translate(-225.684 -80.32)" fill="#6fa0e8"/>
              <rect id="Rectángulo_401970" data-name="Rectángulo 401970" width="4.178" height="0.584" transform="matrix(0.298, -0.955, 0.955, 0.298, 327.457, 130.427)" fill="#377dd1"/>
              <path id="Trazado_877572" data-name="Trazado 877572" d="M617.249,185.046a5.937,5.937,0,0,1,1.128,3.153c-3.326,2.391-7.771,2.119-13.685.079a9.462,9.462,0,0,1,2.12-3.262c2.827.622,7.216,1.006,10.437.03" transform="translate(-251.981 -77.098)" fill="#fff"/>
              <path id="Trazado_877573" data-name="Trazado 877573" d="M579.31,232.152l-.33-.481a108.252,108.252,0,0,0,8.825-6.77l.389.435a108.489,108.489,0,0,1-8.884,6.816" transform="translate(-241.266 -93.718)" fill="#377dd1"/>
              <path id="Trazado_877574" data-name="Trazado 877574" d="M602.294,202.4l-.573-.111c.541-2.778.167-5.007-1.114-6.626-2.029-2.566-5.7-2.741-5.736-2.743l.023-.583a8.962,8.962,0,0,1,6.168,2.96c1.393,1.759,1.807,4.148,1.232,7.1" transform="translate(-247.889 -80.15)" fill="#377dd1"/>
              <path id="Trazado_877575" data-name="Trazado 877575" d="M610.866,197.329a25.485,25.485,0,0,1-6.345-.5l.2-.548c2.254.818,15.366.519,20.607-.709l.133.568a79.935,79.935,0,0,1-14.594,1.194" transform="translate(-251.91 -81.495)" fill="#377dd1"/>
              <path id="Trazado_877576" data-name="Trazado 877576" d="M117.845,143.365c0,8.357-5.09,15.132-11.37,15.132S95.1,151.721,95.1,143.365a16.706,16.706,0,0,1,.584-4.537,11.244,11.244,0,0,1,21.562-.032,16.679,16.679,0,0,1,.594,4.569" transform="translate(-39.631 -54.49)" fill="#7a3457"/>
              <path id="Trazado_877577" data-name="Trazado 877577" d="M44.683,200.425c.9,2.471,10.163,2.282,10.182-3.1-.547-1.058-10.511,1.68-10.182,3.1" transform="translate(-18.617 -82.128)" fill="#4a1651"/>
              <path id="Trazado_877578" data-name="Trazado 877578" d="M49.14,189.71a4.016,4.016,0,0,1-3.306-.765,7.419,7.419,0,0,1-2.1-3.344,15.39,15.39,0,0,1-.968-4.145,1.656,1.656,0,0,1,1.743-2.007c.168-1.024,1.711-1.272,2.058-.687-.121-.731,1.818-1.361,1.955-.4-.386-1.722-1.291-6.838-1.291-6.838-.276-1.442,1.621-2.31,2.156-.51.382.972,2.186,9.413,2.186,9.413.751-.194.162-3.415,1.958-4.109.252-.046.352.142.387.3a18.313,18.313,0,0,1-1.094,9c-.472,1.612-1.5,3.713-3.683,4.1" transform="translate(-17.812 -70.839)" fill="#ef9d7f"/>
              <path id="Trazado_877579" data-name="Trazado 877579" d="M46.58,189.841a1.438,1.438,0,0,1-.964-.393,1.434,1.434,0,0,1-1.213.3,1.313,1.313,0,0,1-.91-.9l.414-.141a.878.878,0,0,0,.6.616,1.066,1.066,0,0,0,.97-.338l.167-.159.15.176a.984.984,0,0,0,1.032.36.831.831,0,0,0,.569-.745l.078-.771.337.7a.845.845,0,0,0,.976.512.677.677,0,0,0,.413-.83l-.626-4.223.433-.064.626,4.223a1.108,1.108,0,0,1-.718,1.312,1.227,1.227,0,0,1-1.216-.337,1.227,1.227,0,0,1-.741.643,1.273,1.273,0,0,1-.378.058" transform="translate(-18.124 -76.65)" fill="#d87f64"/>
              <rect id="Rectángulo_401971" data-name="Rectángulo 401971" width="0.437" height="4.137" transform="translate(28.571 107.952) rotate(-9.798)" fill="#d87f64"/>
              <rect id="Rectángulo_401972" data-name="Rectángulo 401972" width="0.438" height="3.97" transform="matrix(0.979, -0.204, 0.204, 0.979, 26.483, 108.655)" fill="#d87f64"/>
              <path id="Trazado_877580" data-name="Trazado 877580" d="M51.628,195.116a5.6,5.6,0,0,1-.158-1.9l.436.047a5.133,5.133,0,0,0,.148,1.753Z" transform="translate(-21.438 -80.514)" fill="#d87f64"/>
              <path id="Trazado_877581" data-name="Trazado 877581" d="M53.573,189l-.3-.317A4.877,4.877,0,0,1,55.94,187.5l.038.436A4.505,4.505,0,0,0,53.573,189" transform="translate(-22.199 -78.132)" fill="#d87f64"/>
              <path id="Trazado_877582" data-name="Trazado 877582" d="M48.042,200.437l1.359,7.187,7.737-1.976L54.7,197.574Z" transform="translate(-20.02 -82.331)" fill="#ef9d7f"/>
              <path id="Trazado_877583" data-name="Trazado 877583" d="M79.015,344.251a38.246,38.246,0,0,0,1.547,11.712c.792,2.4,2.178,5.679,4.835,6.495a3.749,3.749,0,0,0,2.019.038c5.236-1.319,1.507-12.447,1.507-12.447l-2.078-9.241a3.807,3.807,0,0,0-4.562-2.662,4.285,4.285,0,0,0-2.891,2.3,9.168,9.168,0,0,0-.377,3.808" transform="translate(-32.906 -140.872)" fill="#7a3457"/>
              <path id="Trazado_877584" data-name="Trazado 877584" d="M88.083,374.6c-1.662,0-3.181-1.245-4.436-3.653l.517-.27c1.35,2.591,2.912,3.681,4.644,3.247s2.592-2.08,2.579-4.891l.583,0c.014,3.07-1.03,4.958-3.02,5.46a3.557,3.557,0,0,1-.868.11" transform="translate(-34.857 -153.777)" fill="#420f2c"/>
              <path id="Trazado_877585" data-name="Trazado 877585" d="M78.435,333.872l1.259,8.816a3.771,3.771,0,0,0,.21.846c.878,1.5,5.427,1.942,6.769-.846l-.577-9.183Z" transform="translate(-32.685 -138.975)" fill="#fff"/>
              <path id="Trazado_877586" data-name="Trazado 877586" d="M143.785,344.251a38.247,38.247,0,0,1-1.547,11.712c-.792,2.4-2.178,5.679-4.835,6.495a3.749,3.749,0,0,1-2.019.038c-5.236-1.319-1.507-12.447-1.507-12.447l2.078-9.241a3.807,3.807,0,0,1,4.563-2.662,4.283,4.283,0,0,1,2.891,2.3,9.168,9.168,0,0,1,.377,3.808" transform="translate(-55.252 -140.872)" fill="#7a3457"/>
              <path id="Trazado_877587" data-name="Trazado 877587" d="M136.805,374.6a3.532,3.532,0,0,1-.869-.111c-1.99-.5-3.034-2.389-3.02-5.459l.583,0c-.013,2.812.855,4.457,2.579,4.891s3.3-.655,4.644-3.246l.517.27c-1.255,2.407-2.774,3.653-4.436,3.653" transform="translate(-55.388 -153.777)" fill="#420f2c"/>
              <path id="Trazado_877588" data-name="Trazado 877588" d="M146.514,333.872l-1.259,8.816a3.77,3.77,0,0,1-.21.846c-2.077,2.261-6.348,1.009-6.769-.846l.577-9.183Z" transform="translate(-57.621 -138.975)" fill="#fff"/>
              <path id="Trazado_877589" data-name="Trazado 877589" d="M107.091,254.631,79.63,253.7s-10.758-.5-15.974,7.334S70.3,304.979,70.3,304.979c3.62,1.687,8.473.507,10.688-1.109-.788-12.483-.368-23.99-1.577-32.554h28.137c-2.179,8.961-1.694,19.666-1.641,31.208a11.45,11.45,0,0,0,10.936,1.339s11.1-35,6.669-42.1-16.419-7.137-16.419-7.137" transform="translate(-25.974 -105.715)" fill="#6fa0e8"/>
              <path id="Trazado_877590" data-name="Trazado 877590" d="M85.492,275.148c0-.053-.188-5.337-.845-7.153-1-2.776-3.366-4.307-7.018-4.551l.039-.582c3.9.261,6.437,1.921,7.528,4.935.688,1.9.871,7.11.879,7.331Z" transform="translate(-32.349 -109.537)" fill="#377dd1"/>
              <path id="Trazado_877591" data-name="Trazado 877591" d="M139.93,275.18l-.577-.085a35.283,35.283,0,0,1,1.678-7.205,7.489,7.489,0,0,1,6.529-5.029l.038.582a6.782,6.782,0,0,0-6.014,4.633,34.786,34.786,0,0,0-1.654,7.1" transform="translate(-58.07 -109.537)" fill="#377dd1"/>
              <rect id="Rectángulo_401973" data-name="Rectángulo 401973" width="0.583" height="14.071" transform="translate(66.889 151.553) rotate(-2.35)" fill="#377dd1"/>
              <path id="Trazado_877592" data-name="Trazado 877592" d="M103.75,277.432a40.853,40.853,0,0,1-13.083-1.906l.185-.554a41.789,41.789,0,0,0,14.582,1.853,40.482,40.482,0,0,0,15.017-3.518l.247.528a41.061,41.061,0,0,1-15.241,3.573q-.867.024-1.708.024" transform="translate(-37.782 -113.89)" fill="#377dd1"/>
              <path id="Trazado_877593" data-name="Trazado 877593" d="M118.381,177.54s-16.049,7.961-23.793,0l6.347-1.6.046-9.429h10.073l.115,9.47c.71.178,7.211,1.556,7.211,1.556" transform="translate(-39.416 -69.388)" fill="#ef9d7f"/>
              <path id="Trazado_877594" data-name="Trazado 877594" d="M81.751,224.378c11.42,5.4,23.507,3.106,33.689.832,2.358-7.134,4.584-27.975,4.117-32.272,1.787-10.188-11.876-9.5-15.743-10.157-2.69,2.984-9.957,2.894-11.028-.032-4.768,1.146-18.661.887-16.486,10.362-.776,4.486,3.633,28.5,5.451,31.266" transform="translate(-31.7 -76.154)" fill="#fff"/>
              <path id="Trazado_877595" data-name="Trazado 877595" d="M118.2,151.349c-1.339-3.031-3.924-.512-3.924-.512a26.174,26.174,0,0,0-.919-7.807H98.144l-2.205,2.2a29.137,29.137,0,0,0-.407,5.6s-2.585-2.52-3.924.512c-1.468,4.479,3.307,5.932,4.318,4.646,0,0,1.221,8.333,8.977,8.333s8.976-8.333,8.976-8.333c1.01,1.286,5.786-.167,4.318-4.646" transform="translate(-38.058 -59.602)" fill="#ef9d7f"/>
              <path id="Trazado_877596" data-name="Trazado 877596" d="M111.159,178.606a8.646,8.646,0,0,1-4.814-1.35l.239-.366a8.8,8.8,0,0,0,9.328-.12l.25.359a8.6,8.6,0,0,1-5,1.478" transform="translate(-44.315 -73.661)" fill="#d87f64"/>
              <path id="Trazado_877597" data-name="Trazado 877597" d="M95.115,160.6a2.181,2.181,0,0,1-2.19-2.333,1.377,1.377,0,0,1,1.35-1.441l-.024.437c-.571-.037-.856.514-.89,1.032a1.763,1.763,0,0,0,1.787,1.868Z" transform="translate(-38.721 -65.35)" fill="#d87f64"/>
              <path id="Trazado_877598" data-name="Trazado 877598" d="M93.818,161.316l-.237-.367a2.311,2.311,0,0,1,2.155-.086l-.185.4a1.864,1.864,0,0,0-1.732.058" transform="translate(-38.996 -66.939)" fill="#d87f64"/>
              <path id="Trazado_877599" data-name="Trazado 877599" d="M132.722,160.6l-.034-.436a1.763,1.763,0,0,0,1.787-1.867c-.034-.519-.328-1.058-.89-1.033l-.024-.437a1.37,1.37,0,0,1,1.35,1.441,2.181,2.181,0,0,1-2.19,2.333" transform="translate(-55.292 -65.351)" fill="#d87f64"/>
              <path id="Trazado_877600" data-name="Trazado 877600" d="M134.069,161.316a1.868,1.868,0,0,0-1.731-.058l-.186-.4a2.31,2.31,0,0,1,2.155.086Z" transform="translate(-55.069 -66.939)" fill="#d87f64"/>
              <path id="Trazado_877601" data-name="Trazado 877601" d="M112.785,169.294a6.286,6.286,0,0,1-2.8-.7l.194-.392a5.2,5.2,0,0,0,5.231-.079l.219.379a5.629,5.629,0,0,1-2.844.8" transform="translate(-45.832 -70.057)" fill="#7a3457"/>
              <path id="Trazado_877602" data-name="Trazado 877602" d="M113.972,171.817a3.874,3.874,0,0,1-1.163-.19l.131-.418a3.085,3.085,0,0,0,2.009,0l.142.414a3.4,3.4,0,0,1-1.118.192" transform="translate(-47.009 -71.344)" fill="#d87f64"/>
              <path id="Trazado_877603" data-name="Trazado 877603" d="M114.792,163.459h-.9v-.437h.9a.534.534,0,0,0,.437-.167.76.76,0,0,0-.033-.668l-1.035-2.429.4-.171,1.037,2.436a1.116,1.116,0,0,1-.011,1.08.924.924,0,0,1-.8.358" transform="translate(-47.459 -66.501)" fill="#d87f64"/>
              <path id="Trazado_877604" data-name="Trazado 877604" d="M103.778,157.391a2.58,2.58,0,0,1,.766-.5,2.516,2.516,0,0,1,.925-.194,2.466,2.466,0,0,1,1.69.689.163.163,0,0,1,0,.231.167.167,0,0,1-.179.036,6.329,6.329,0,0,0-.761-.269,2.692,2.692,0,0,0-.752-.107,3.7,3.7,0,0,0-1.513.376.161.161,0,0,1-.214-.082.166.166,0,0,1,.037-.184" transform="translate(-43.224 -65.299)" fill="#7a3457"/>
              <path id="Trazado_877605" data-name="Trazado 877605" d="M119.881,157.391a2.587,2.587,0,0,1,.766-.5,2.515,2.515,0,0,1,.925-.194,2.467,2.467,0,0,1,1.69.689.163.163,0,0,1,0,.231.167.167,0,0,1-.179.036,6.328,6.328,0,0,0-.761-.269,2.689,2.689,0,0,0-.752-.107,3.694,3.694,0,0,0-1.512.376.162.162,0,0,1-.215-.082.166.166,0,0,1,.037-.184" transform="translate(-49.935 -65.299)" fill="#7a3457"/>
              <path id="Trazado_877606" data-name="Trazado 877606" d="M103.425,179.846a10.214,10.214,0,0,0-2.881,2.119l4.4,5.624,3.317-3.821a6.788,6.788,0,0,1-4.833-3.921" transform="translate(-41.898 -74.944)" fill="#fff"/>
              <path id="Trazado_877607" data-name="Trazado 877607" d="M119.618,179.846a9.853,9.853,0,0,1,2.88,2.119l-4.4,5.624-3.316-3.821a6.789,6.789,0,0,0,4.833-3.921" transform="translate(-47.832 -74.944)" fill="#fff"/>
              <path id="Trazado_877608" data-name="Trazado 877608" d="M104.357,189.753l-.216-.121a8.285,8.285,0,0,1-3.966-6.144l.43-.079a7.844,7.844,0,0,0,3.536,5.717,7.49,7.49,0,0,1,3.874-4.076l.177.4a7.05,7.05,0,0,0-3.742,4.072Z" transform="translate(-41.744 -76.429)" fill="#f2e5dc"/>
              <path id="Trazado_877609" data-name="Trazado 877609" d="M118.665,189.672l-.093-.234a7.138,7.138,0,0,0-3.744-4.154l.18-.4a7.572,7.572,0,0,1,3.873,4.155c1.885-1.161,3.042-3.071,3.535-5.832l.43.076c-.528,2.958-1.861,5.065-3.963,6.262Z" transform="translate(-47.85 -76.345)" fill="#f2e5dc"/>
              <path id="Trazado_877610" data-name="Trazado 877610" d="M66.033,188.4c-5.387,2.165-7.351,9.279-8.64,12.721a44.235,44.235,0,0,0-2.522-7.46c-.756,2.471-9.239,4.183-10.183,3.1,0,0,1.775,24.743,10.98,25.244s15.525-16.889,15.525-16.889-2.03-18.35-5.162-16.716" transform="translate(-18.622 -78.466)" fill="#fff"/>
              <path id="Trazado_877611" data-name="Trazado 877611" d="M141.7,187.146c4.966,2.643,7.9,10.013,9.19,13.455,1.656,4.036,9.537,19.893,1.724,20.885-9.205.5-15.525-16.889-15.525-16.889s1.48-19.084,4.612-17.45" transform="translate(-57.124 -77.944)" fill="#fff"/>
              <rect id="Rectángulo_401974" data-name="Rectángulo 401974" width="0.438" height="11.254" transform="translate(38.563 122.726) rotate(-18.675)" fill="#f2e5dc"/>
              <path id="Trazado_877612" data-name="Trazado 877612" d="M106.882,161.369a.6.6,0,1,1-.6-.6.6.6,0,0,1,.6.6" transform="translate(-44.042 -66.995)" fill="#7a3457"/>
              <path id="Trazado_877613" data-name="Trazado 877613" d="M104,161.164l-.233-.37c1.294-.814,2.394-.8,3.265.027l-.3.317c-.719-.685-1.612-.677-2.731.027" transform="translate(-43.241 -66.753)" fill="#7a3457"/>
              <path id="Trazado_877614" data-name="Trazado 877614" d="M121.792,161.369a.6.6,0,1,0,.6-.6.6.6,0,0,0-.6.6" transform="translate(-50.752 -66.995)" fill="#7a3457"/>
              <path id="Trazado_877615" data-name="Trazado 877615" d="M123.194,161.164c-1.119-.7-2.013-.712-2.731-.027l-.3-.317c.871-.832,1.97-.841,3.265-.027Z" transform="translate(-50.072 -66.753)" fill="#7a3457"/>
              <path id="Trazado_877616" data-name="Trazado 877616" d="M98.539,147.7c.1-8.221,1.906-2.059,9.367-2.131s8.727-6.218,9.413,1.924l-.265-6.479-3.759-2.072h-7.424L101,140.678l-2.314,1.109Z" transform="translate(-41.062 -57.899)" fill="#7a3457"/>
              <path id="Trazado_877617" data-name="Trazado 877617" d="M106.321,162.053h-4.642a1.1,1.1,0,0,1-1.1-1.1v-.7a1.1,1.1,0,0,1,1.1-1.1h4.642a1.1,1.1,0,0,1,1.1,1.1v.7a1.1,1.1,0,0,1-1.1,1.1m-4.642-2.615a.812.812,0,0,0-.811.811v.7a.812.812,0,0,0,.811.811h4.642a.812.812,0,0,0,.811-.811v-.7a.812.812,0,0,0-.811-.811Z" transform="translate(-41.911 -66.318)" fill="#fff"/>
              <path id="Trazado_877618" data-name="Trazado 877618" d="M122.705,162.053h-4.642a1.1,1.1,0,0,1-1.1-1.1v-.7a1.1,1.1,0,0,1,1.1-1.1h4.642a1.1,1.1,0,0,1,1.1,1.1v.7a1.1,1.1,0,0,1-1.1,1.1m-4.642-2.615a.812.812,0,0,0-.811.811v.7a.812.812,0,0,0,.811.811h4.642a.812.812,0,0,0,.811-.811v-.7a.812.812,0,0,0-.811-.811Z" transform="translate(-48.739 -66.318)" fill="#fff"/>
              <path id="Trazado_877619" data-name="Trazado 877619" d="M114.977,160.091a3.194,3.194,0,0,0-3.014-.006l-.143-.255a3.467,3.467,0,0,1,3.276-.006Z" transform="translate(-46.596 -66.431)" fill="#fff"/>
              <path id="Trazado_877620" data-name="Trazado 877620" d="M113.537,217.626H93.748a3.306,3.306,0,0,1-3.306-3.306l-2.361-27.492a3.306,3.306,0,0,1,3.307-3.306H115.9a3.306,3.306,0,0,1,3.307,3.306l-2.361,27.492a3.306,3.306,0,0,1-3.306,3.306" transform="translate(-36.704 -76.475)" fill="#7a3457"/>
              <path id="Trazado_877621" data-name="Trazado 877621" d="M119.17,188.518h-.437a3.019,3.019,0,0,0-3.016-3.016H91.739a3.019,3.019,0,0,0-3.016,3.016h-.437a3.457,3.457,0,0,1,3.454-3.453h23.978a3.457,3.457,0,0,1,3.453,3.453" transform="translate(-36.789 -77.118)" fill="#420f2c"/>
              <path id="Trazado_877622" data-name="Trazado 877622" d="M114.965,212.621c-1.6,3.119-5.783,1.74-6.317,1.661-2.755-.407-8.14-4.362-8.14-4.362-1.451-.917-.751-2.125-.28-1.935.22.113-.8-.487-1.009-.617-1.778-1.21-.538-2.379.276-2.094-1.526-.7-.872-2.42.146-2.047-1.036-.619-.371-2.17,1.3-1.542.956.269,8.385,3.755,8.385,3.755.285-.681-2.632-1.979-2.126-3.738a.309.309,0,0,1,.415-.118,18.783,18.783,0,0,1,6.36,5.889c.95,1.284,1.95,3.27.989,5.148" transform="translate(-40.967 -83.983)" fill="#ef9d7f"/>
              <rect id="Rectángulo_401975" data-name="Rectángulo 401975" width="0.438" height="4.892" transform="matrix(0.429, -0.903, 0.903, 0.429, 59.21, 124.296)" fill="#d87f64"/>
              <rect id="Rectángulo_401976" data-name="Rectángulo 401976" width="0.438" height="6.493" transform="translate(58.433 121.528) rotate(-62.44)" fill="#d87f64"/>
              <rect id="Rectángulo_401977" data-name="Rectángulo 401977" width="0.437" height="7.185" transform="translate(58.61 119.437) rotate(-63.776)" fill="#d87f64"/>
              <path id="Trazado_877623" data-name="Trazado 877623" d="M119.254,218.916a64.508,64.508,0,0,0,23.464,11.969c5.091,1.621,7.935-9.837.351-13.2-4.842-3.266-11.887-5.587-20.041-7.435-1.875.475-4.089,7.613-3.774,8.67" transform="translate(-49.682 -87.612)" fill="#fff"/>
              <path id="Trazado_877624" data-name="Trazado 877624" d="M78.982,338.493a9.123,9.123,0,0,1-4.371-.931l.289-.507c2.1,1.2,6.663,1.333,10.969-.794l.258.523a16.373,16.373,0,0,1-7.145,1.71" transform="translate(-31.091 -140.123)" fill="#377dd1"/>
              <path id="Trazado_877625" data-name="Trazado 877625" d="M144.477,335.8a13.431,13.431,0,0,1-7.751-2.226l.329-.482c2.951,2.017,6.75,2.6,11.3,1.738l.108.573a21.4,21.4,0,0,1-3.983.4" transform="translate(-56.975 -138.802)" fill="#377dd1"/>
              <g id="Grupo_1100997" data-name="Grupo 1100997" transform="translate(19.65 89.312)" opacity="0.3">
                <g id="Grupo_1100996" data-name="Grupo 1100996">
                  <g id="Grupo_1100995" data-name="Grupo 1100995" clip-path="url(#clip-path-4)">
                    <path id="Trazado_877626" data-name="Trazado 877626" d="M55.569,164.058a10.94,10.94,0,1,1-10.941-10.941,10.941,10.941,0,0,1,10.941,10.941" transform="translate(-33.688 -153.117)" fill="#fff"/>
                  </g>
                </g>
              </g>
              <g id="Grupo_1101000" data-name="Grupo 1101000" transform="translate(25.112 94.773)" opacity="0.38">
                <g id="Grupo_1100999" data-name="Grupo 1100999">
                  <g id="Grupo_1100998" data-name="Grupo 1100998" clip-path="url(#clip-path-5)">
                    <path id="Trazado_877627" data-name="Trazado 877627" d="M54.009,167.96a5.479,5.479,0,1,1-5.479-5.479,5.479,5.479,0,0,1,5.479,5.479" transform="translate(-43.051 -162.48)" fill="#fff"/>
                  </g>
                </g>
              </g>
              <path id="Trazado_877628" data-name="Trazado 877628" d="M52.936,170.645a1.72,1.72,0,1,1-1.72-1.72,1.72,1.72,0,0,1,1.72,1.72" transform="translate(-20.625 -70.393)" fill="#e0654a"/>
              <path id="Trazado_877629" data-name="Trazado 877629" d="M37.289,177.937c-.188,0-.376,0-.562-.008l.008-.292c.383.01.771.01,1.153,0l.008.292q-.3.009-.607.009m-1.728-.07c-.383-.03-.774-.073-1.161-.125l.039-.289c.383.051.768.093,1.146.124Zm3.5,0-.024-.29c.385-.033.77-.075,1.145-.127l.04.289c-.38.053-.771.1-1.161.128m-5.815-.312c-.383-.073-.766-.159-1.141-.253l.071-.283c.369.093.748.177,1.125.25Zm8.129-.009-.056-.286c.377-.073.755-.158,1.124-.252l.072.283c-.374.095-.758.181-1.14.255m-10.4-.561c-.367-.114-.741-.241-1.108-.379l.1-.273c.363.135.73.261,1.093.373Zm12.659-.013-.087-.278c.367-.115.734-.241,1.09-.375l.1.272c-.361.136-.733.264-1.105.38m-14.852-.8c-.357-.156-.713-.324-1.059-.5l.131-.26c.341.172.692.338,1.044.492Zm17.037-.015-.117-.267c.349-.153.7-.319,1.039-.493l.132.26c-.346.176-.7.344-1.055.5M26.7,175.109c-.338-.195-.673-.4-1-.612l.159-.244c.319.209.649.412.983.6Zm21.2-.016-.146-.253c.331-.192.661-.395.98-.6l.16.244c-.324.212-.658.419-.993.613M24.743,173.83c-.31-.228-.621-.47-.923-.717l.185-.225c.3.245.6.483.91.708Zm25.114-.017-.173-.234c.309-.227.614-.466.909-.709l.185.225c-.3.246-.608.488-.921.718m-26.919-1.468c-.287-.264-.569-.538-.839-.814l.209-.2c.265.272.544.543.827.8Zm28.721-.018-.2-.215c.281-.259.559-.53.826-.8l.209.2c-.271.278-.552.552-.837.815m-30.352-1.655c-.253-.29-.5-.593-.744-.9l.229-.18c.237.3.484.6.734.888Zm31.98-.02-.22-.191c.251-.289.5-.588.733-.889l.23.179c-.239.306-.489.61-.744.9M19.87,168.834c-.22-.316-.436-.645-.641-.976l.248-.153c.2.327.415.65.632.962Zm34.854-.024-.24-.167c.219-.314.431-.639.632-.965l.248.153c-.2.33-.419.659-.64.979m-36.081-1.962c-.185-.341-.364-.691-.53-1.039l.264-.125c.163.344.338.689.522,1.025Zm37.307-.029-.257-.139c.183-.337.358-.682.522-1.03l.264.125c-.166.352-.344.7-.529,1.044m-38.307-2.078c-.147-.359-.285-.727-.412-1.094l.275-.1c.125.361.262.724.407,1.079ZM56.95,164.7l-.27-.11c.143-.353.28-.717.4-1.081l.276.1c-.127.369-.265.738-.411,1.1m-40.068-2.17c-.106-.372-.2-.752-.288-1.132l.284-.064c.085.374.18.75.285,1.116Zm40.827-.042-.281-.079c.1-.369.2-.745.282-1.117l.285.064c-.085.377-.181.758-.286,1.133m-41.34-2.237c-.064-.384-.118-.773-.162-1.157l.29-.033c.043.379.1.763.159,1.142Zm41.848-.043-.288-.048c.062-.377.115-.761.157-1.142l.29.031c-.042.387-.1.776-.159,1.158m-42.107-2.279c-.022-.387-.033-.779-.034-1.168h.292c0,.383.012.771.034,1.152Zm42.361-.043-.291-.016c.02-.381.031-.769.031-1.152v-.084H58.5v.083c0,.39-.01.783-.031,1.169M16.4,155.613,16.1,155.6c.02-.39.051-.782.093-1.165l.29.032c-.04.378-.071.764-.092,1.148m41.779-.126c-.023-.384-.056-.771-.1-1.148l.29-.033c.043.383.077.775.1,1.164Zm-41.533-2.164-.288-.047c.063-.384.137-.771.22-1.147l.285.062c-.082.372-.155.752-.217,1.132m41.273-.125c-.064-.379-.139-.759-.224-1.13l.285-.065c.086.377.162.762.227,1.146Zm-40.776-2.125-.281-.078c.1-.376.221-.751.345-1.116l.276.094c-.122.36-.237.73-.341,1.1m40.266-.121c-.106-.369-.223-.739-.348-1.1l.276-.1c.127.365.245.74.352,1.114ZM17.883,148.89l-.271-.11c.145-.359.3-.719.468-1.073l.264.124c-.163.348-.318.7-.461,1.058m38.767-.115c-.146-.356-.3-.709-.467-1.051l.263-.126c.165.347.324.705.473,1.066ZM18.864,146.8l-.257-.138c.184-.342.381-.683.584-1.014l.248.153c-.2.326-.393.662-.576,1m36.795-.1c-.182-.334-.377-.668-.58-.995l.248-.154c.205.331.4.671.588,1.009Zm-35.589-1.864-.24-.166c.219-.317.451-.635.691-.943l.231.178c-.236.3-.465.617-.682.93m34.375-.092c-.218-.312-.449-.624-.686-.925l.23-.18c.24.306.474.622.7.938Zm-32.962-1.729-.22-.191c.251-.289.517-.579.79-.861l.209.2c-.269.279-.531.565-.779.85m31.54-.083c-.253-.288-.516-.572-.783-.845l.209-.2c.271.277.538.565.794.857ZM23.086,141.36l-.2-.214c.285-.263.58-.522.879-.769l.186.225c-.295.244-.586.5-.867.759m28.325-.074c-.284-.26-.577-.514-.871-.755l.185-.226c.3.244.595.5.883.765Zm-26.552-1.4-.173-.234c.312-.23.634-.456.957-.668l.16.244c-.319.209-.636.431-.945.659m24.769-.066c-.308-.225-.627-.446-.95-.655l.159-.244c.327.212.65.436.962.664Zm-22.846-1.2-.146-.253c.336-.2.681-.383,1.024-.558l.133.26c-.339.173-.679.358-1.011.551m20.913-.058c-.331-.191-.673-.374-1.016-.547l.131-.26c.348.174.695.361,1.03.554Zm-18.864-.988-.118-.267c.352-.156.715-.3,1.079-.442l.1.272c-.36.137-.717.283-1.065.436m16.8-.049c-.353-.154-.714-.3-1.071-.431l.1-.274c.363.134.728.281,1.086.437Zm-14.65-.765-.088-.278c.37-.117.748-.225,1.124-.321l.072.282c-.37.1-.743.2-1.108.316m12.485-.038c-.365-.113-.738-.217-1.111-.309l.071-.283c.377.094.756.2,1.126.314ZM33.217,136.2l-.057-.286c.379-.075.766-.141,1.152-.194l.041.289c-.38.054-.762.118-1.136.191m8.018-.024c-.375-.072-.758-.134-1.137-.185l.039-.289c.384.051.773.114,1.153.187Zm-5.737-.3-.024-.29c.386-.033.778-.055,1.167-.067l.008.292c-.383.012-.769.034-1.15.066m3.454-.01c-.383-.03-.769-.05-1.151-.059l.007-.292c.387.01.779.03,1.167.06Z" transform="translate(-6.699 -56.47)" fill="#fff"/>
              <path id="Trazado_877630" data-name="Trazado 877630" d="M183.167,47.091a24.72,24.72,0,0,0,.186,19.632L205.913,56.7s-12.927-5.472-22.746-9.61" transform="translate(-75.519 -19.623)" fill="#dca152"/>
              <path id="Trazado_877631" data-name="Trazado 877631" d="M212.617,63.568l-15.3,19.365a24.679,24.679,0,0,0,39.957-18.122Z" transform="translate(-82.223 -26.489)" fill="#b3b566"/>
              <path id="Trazado_877632" data-name="Trazado 877632" d="M241.866,35.2c-7.9,7.194-18.318,16.548-18.318,16.548L248.2,52.988q.031-.618.031-1.243a24.593,24.593,0,0,0-6.37-16.548" transform="translate(-93.155 -14.667)" fill="#7a3457"/>
              <path id="Trazado_877633" data-name="Trazado 877633" d="M225.616,29.383a24.691,24.691,0,0,0-41.064,6.938c9.819,4.138,22.746,9.61,22.746,9.61Z" transform="translate(-76.905 -8.853)" fill="#e0654a"/>
              <path id="Trazado_877634" data-name="Trazado 877634" d="M184.871,73.589a24.759,24.759,0,0,0,7.259,9.344l15.3-19.365Z" transform="translate(-77.038 -26.489)" fill="#6fa0e8"/>
              <path id="Trazado_877635" data-name="Trazado 877635" d="M113.611,122.433h0a1.386,1.386,0,0,1-1.381-1.381v-.481a1.381,1.381,0,0,1,2.762,0v.481a1.386,1.386,0,0,1-1.381,1.381" transform="translate(-46.767 -49.668)" fill="#7a3457"/>
              <path id="Trazado_877636" data-name="Trazado 877636" d="M114.4,119.2h-2.423a.761.761,0,0,1-.758-.759v-3.108a.761.761,0,0,1,.758-.758H114.4a.761.761,0,0,1,.759.758v3.108a.761.761,0,0,1-.759.759" transform="translate(-46.347 -47.742)" fill="#7a3457"/>
              <path id="Trazado_877637" data-name="Trazado 877637" d="M116.291,99.874a5.927,5.927,0,1,0-9.963,4.334,4.123,4.123,0,0,1,1.3,3.02,1.133,1.133,0,0,0,1.13,1.13h3.2a1.133,1.133,0,0,0,1.13-1.13v-.167a3.9,3.9,0,0,1,1.3-2.848,5.9,5.9,0,0,0,1.9-4.34" transform="translate(-43.52 -39.149)" fill="#dca152"/>
              <path id="Trazado_877638" data-name="Trazado 877638" d="M120.164,100.633a.583.583,0,0,1-.563-.434,3.792,3.792,0,0,0-1.655-2.245.583.583,0,0,1,.621-.988,4.954,4.954,0,0,1,2.162,2.933.584.584,0,0,1-.564.733" transform="translate(-49.035 -40.37)" fill="#fff"/>
              <rect id="Rectángulo_401980" data-name="Rectángulo 401980" width="0.437" height="3.798" transform="translate(66.625 62.584)" fill="#7a3457"/>
              <path id="Trazado_877639" data-name="Trazado 877639" d="M113.156,111.176l-.348-.266,1.741-2.273a2.674,2.674,0,0,1-2.205-1.247,2.594,2.594,0,0,1-2.187,1.267l1.725,2.253-.348.266-2.343-3.061.53.076a2.246,2.246,0,0,0,2.433-1.328l.193-.345.19.348a2.338,2.338,0,0,0,2.445,1.324l.493-.042Z" transform="translate(-45.501 -44.387)" fill="#7a3457"/>
              <path id="Trazado_877640" data-name="Trazado 877640" d="M114.9,117.085h-2.117v-2.6a1.058,1.058,0,1,1,2.117,0Zm-1.679-.437h1.242v-2.159a.621.621,0,1,0-1.242,0Z" transform="translate(-46.998 -47.267)" fill="#7a3457"/>
              <path id="Trazado_877641" data-name="Trazado 877641" d="M239.06,160.641H182.831a3.405,3.405,0,0,1,0-6.811H239.06a3.405,3.405,0,0,1,0,6.811" transform="translate(-74.769 -64.102)" fill="#e0654a"/>
              <path id="Trazado_877642" data-name="Trazado 877642" d="M227.565,160.161H184.45a1.729,1.729,0,0,1,0-3.457h43.115a1.729,1.729,0,0,1,0,3.457" transform="translate(-76.142 -65.3)" fill="#7a3457"/>
              <path id="Trazado_877643" data-name="Trazado 877643" d="M261.438,156.012a5.116,5.116,0,1,1-5.116-5.116,5.116,5.116,0,0,1,5.116,5.116" transform="translate(-104.68 -62.88)" fill="#fff"/>
              <path id="Trazado_877644" data-name="Trazado 877644" d="M260.867,157.439a3.119,3.119,0,1,1-3.119-3.119,3.119,3.119,0,0,1,3.119,3.119" transform="translate(-106.106 -64.307)" fill="#dca152"/>
              <rect id="Rectángulo_401981" data-name="Rectángulo 401981" width="392.445" height="0.583" transform="translate(0 239.218)" fill="#7a3457"/>
            </g>
          </g>
        </g>
      </g>
    </g>
  </g>
</svg>
