<svg xmlns="http://www.w3.org/2000/svg" xmlns:xlink="http://www.w3.org/1999/xlink" width="400" height="147" viewBox="0 0 400 147">
  <defs>
    <clipPath id="clip-path">
      <rect id="Rectángulo_382919" data-name="Rectángulo 382919" width="279" height="139" transform="translate(0.207 0.035)" fill="none"/>
    </clipPath>
    <clipPath id="clip-path-2">
      <rect id="Rectángulo_382920" data-name="Rectángulo 382920" width="67.8" height="73.366" fill="none"/>
    </clipPath>
    <clipPath id="clip-path-3">
      <rect id="Rectángulo_382922" data-name="Rectángulo 382922" width="110.788" height="46.946" transform="translate(0 0)" fill="none"/>
    </clipPath>
  </defs>
  <g id="_1" data-name="1" transform="translate(-180.051 -389)">
    <rect id="Rectángulo_402393" data-name="Rectángulo 402393" width="400" height="147" rx="13" transform="translate(180.051 389)" fill="#10314b"/>
    <g id="Grupo_1101396" data-name="Grupo 1101396" transform="translate(55.051 -262)">
      <g id="Grupo_1073693" data-name="Grupo 1073693" transform="translate(185.793 658.965)">
        <g id="Grupo_1073692" data-name="Grupo 1073692" transform="translate(0 0)" clip-path="url(#clip-path)">
          <path id="Trazado_823970" data-name="Trazado 823970" d="M34.062,156.768S13.657,165.32,9.8,170.892s38.171,15.919,39.165,14.927,9.924-25.785,9.532-27.1-24.436-1.951-24.436-1.951" transform="translate(-4.57 -75.006)" fill="#361524"/>
          <path id="Trazado_823971" data-name="Trazado 823971" d="M95.695,123l-39.147,17.61,7.384,19.912,42.692-10.333,6.359-23.818Z" transform="translate(-27.055 -58.851)" fill="#52a1a1"/>
          <path id="Trazado_823972" data-name="Trazado 823972" d="M271.13,97.643s-23.744,25.39-24.34,25.491-15.1,1.788-17.688.7-17.485-26.713-17.485-26.713,2.527-.376,6.45-.781c2.492-.257,5.538-.53,8.859-.728,3.941-.238,8.251-.369,12.459-.25,13.342.376,31.745,2.283,31.745,2.283" transform="translate(-101.247 -45.604)" fill="#ffa6a6"/>
          <path id="Trazado_823973" data-name="Trazado 823973" d="M250.277,110.167s-6.213,4.79-13.319,2.7c-9.61-2.82-11.952-12.984-12.972-16.263,2.492-.256,5.538-.53,8.859-.727,4.727,3.726,13.6,11.321,13.6,11.321Z" transform="translate(-107.165 -45.874)" fill="#361524"/>
          <path id="Trazado_823974" data-name="Trazado 823974" d="M264.38,25.454a9.839,9.839,0,0,0-1.2-3.613,6.768,6.768,0,0,1-.839-3.456,13.709,13.709,0,0,0,.043-2.05,5.321,5.321,0,0,0-2.13-3.607,8.336,8.336,0,0,0-2.58-7.55,6.665,6.665,0,0,0-8.133-.622c-2.334-5.426-8.714-5.931-11.864-1.909A6.471,6.471,0,0,0,233.161.528a6.4,6.4,0,0,0-3.45.963c-1.151.7-1.861,2.187-3.1,2.522-2.513.676-4.651,1.5-6.045,4.133a9.058,9.058,0,0,0-.917,5.4A14.875,14.875,0,0,0,216.317,28.6a13.362,13.362,0,0,0,5.16,6.857,7.438,7.438,0,0,0,1.264,3.49c1.449,1.925,3.91,2.174,6,2.518a65.726,65.726,0,0,0,17.682.636c4.6-.494,9.914-1.2,13.628-4.527a10.28,10.28,0,0,0,3.4-6.978,9.5,9.5,0,0,0,.929-5.144" transform="translate(-103.119 -0.001)" fill="#361524"/>
          <path id="Trazado_823975" data-name="Trazado 823975" d="M236.125,73.393c4.493,6.72,12.506,8.481,19.617,4.922,5.9-2.952,8.7-8.473,9.922-14.8a48.669,48.669,0,0,0,.524-16.8c-.882-5.293-10.632-16.556-17.784-14.979s-14.765,6.983-16.53,8.447-3.063,22.272,4.252,33.212" transform="translate(-110.282 -15.112)" fill="#ffa6a6"/>
          <path id="Trazado_823976" data-name="Trazado 823976" d="M227.722,61.87s-3.036-3.5-5.372-1.168,1.021,9.916,2.687,11.679c2.647,2.8,5.138,1.823,5.138,1.823Z" transform="translate(-106 -28.659)" fill="#ffa6a6"/>
          <path id="Trazado_823977" data-name="Trazado 823977" d="M252.431,81.545a1.744,1.744,0,0,0-.6-1.5A.883.883,0,0,0,250.822,80a1.209,1.209,0,0,0-.4.7,4.116,4.116,0,0,0,.033,2.172,1.184,1.184,0,0,0,.284.54.88.88,0,0,0,1.131-.032,1.647,1.647,0,0,0,.509-1.1,6.381,6.381,0,0,0,.048-.739" transform="translate(-119.753 -38.211)" fill="#361524"/>
          <path id="Trazado_823978" data-name="Trazado 823978" d="M277.172,81.681a1.619,1.619,0,0,0-.561-1.392.821.821,0,0,0-.933-.042,1.119,1.119,0,0,0-.368.65,3.812,3.812,0,0,0,.031,2.016,1.092,1.092,0,0,0,.264.5.816.816,0,0,0,1.05-.03,1.53,1.53,0,0,0,.473-1.018,6.072,6.072,0,0,0,.044-.686" transform="translate(-131.663 -38.334)" fill="#361524"/>
          <path id="Trazado_823979" data-name="Trazado 823979" d="M264.424,90.63a.457.457,0,0,1-.075-.007c-1.263-.224-2.768-.665-2.768-1.493,0-.657.63-4.743.7-5.207a.434.434,0,0,1,.489-.358.428.428,0,0,1,.358.489c-.277,1.8-.691,4.629-.691,5.076a6.518,6.518,0,0,0,2.061.649.428.428,0,0,1-.075.85" transform="translate(-125.152 -39.98)" fill="#361524"/>
          <path id="Trazado_823980" data-name="Trazado 823980" d="M259.626,100.411a6.6,6.6,0,0,1-5.611-2.816.429.429,0,0,1,.72-.465,5.8,5.8,0,0,0,5.276,2.413A5.289,5.289,0,0,0,264.6,96.8a.428.428,0,1,1,.766.383,6.137,6.137,0,0,1-5.3,3.22c-.144.007-.289.011-.432.011" transform="translate(-121.5 -46.199)" fill="#361524"/>
          <path id="Trazado_823981" data-name="Trazado 823981" d="M251.118,71.4a1.283,1.283,0,0,0-.05-.131,1.869,1.869,0,0,0-.705-.761,5.113,5.113,0,0,0-2.43-.7,6.606,6.606,0,0,0-2.189.143c-.851.223-2.893,1.335-1.792,2.43a2.316,2.316,0,0,0,1.317.523,12.1,12.1,0,0,0,4.849-.147,1.513,1.513,0,0,0,.887-.482.989.989,0,0,0,.113-.87" transform="translate(-116.566 -33.384)" fill="#361524"/>
          <path id="Trazado_823982" data-name="Trazado 823982" d="M270.836,72.272a1.512,1.512,0,0,0,.887.482,12.089,12.089,0,0,0,4.849.147,2.313,2.313,0,0,0,1.317-.523c1.1-1.1-.941-2.207-1.792-2.43a6.592,6.592,0,0,0-2.189-.142,5.112,5.112,0,0,0-2.43.7,1.869,1.869,0,0,0-.705.761,1.3,1.3,0,0,0-.05.131.99.99,0,0,0,.113.87" transform="translate(-129.502 -33.384)" fill="#361524"/>
          <path id="Trazado_823983" data-name="Trazado 823983" d="M266.176,40.692a2.72,2.72,0,0,1,1.043-2.18,21.307,21.307,0,0,0-5.993-4.393,18.94,18.94,0,0,0-1.217-1.727,16.238,16.238,0,0,0-11.978-5.931c-8.874-.521-21.166,4.256-23.354,13.783a.418.418,0,0,0,.282.5,6.269,6.269,0,0,0,5.549,7.549,7.244,7.244,0,0,0,6.135-2.739,5.112,5.112,0,0,0,4.535,1.78,6.991,6.991,0,0,0,5.555-4.563c1.639.877,3.769.225,5.439-.793a11.586,11.586,0,0,0,3.857-3.875c-.288.47,1.093,2.683,1.355,3.116a14.59,14.59,0,0,0,2.96,2.954,6.445,6.445,0,0,0,4.017,1.18c.77-1.513,1.784-3.054,1.814-4.661" transform="translate(-107.49 -12.643)" fill="#361524"/>
          <path id="Trazado_823984" data-name="Trazado 823984" d="M294.086,60.433s3.036-3.5,5.373-1.168-1.021,9.916-2.687,11.679c-2.647,2.8-5.139,1.822-5.139,1.822Z" transform="translate(-139.531 -27.972)" fill="#ffa6a6"/>
          <path id="Trazado_823985" data-name="Trazado 823985" d="M217.627,96.944s3.785,20.04,18.733,21.083,20.832-20.678,20.832-20.678l11.75,1.074-1.687,67.519H207.045l7.3-68.706Z" transform="translate(-99.06 -46.383)" fill="#fff"/>
          <path id="Trazado_823986" data-name="Trazado 823986" d="M178.249,97.5v75.661H141.343L131.606,110.8a191.308,191.308,0,0,1,20.766-8.582c9.042-2.88,25.877-4.717,25.877-4.717" transform="translate(-62.966 -46.651)" fill="#52a1a1"/>
          <path id="Trazado_823987" data-name="Trazado 823987" d="M137.354,151.932a.3.3,0,0,1-.282-.2l-8.7-25.839a.3.3,0,0,1,.565-.19l8.7,25.839a.3.3,0,0,1-.188.377.3.3,0,0,1-.095.016" transform="translate(-61.412 -60.044)" fill="#361524"/>
          <path id="Trazado_823988" data-name="Trazado 823988" d="M202.144,133.937a.3.3,0,0,1-.271-.172l-5.122-10.93a.3.3,0,0,1-.014-.218l7.469-23.208a.3.3,0,1,1,.567.183l-7.433,23.1,5.073,10.823a.3.3,0,0,1-.144.4.294.294,0,0,1-.126.028" transform="translate(-94.122 -47.464)" fill="#361524"/>
          <path id="Trazado_823989" data-name="Trazado 823989" d="M312.014,98.526l.769,75.128h36.906l9.737-62.361a159.471,159.471,0,0,0-20.766-8.582c-10.948-3.534-26.646-4.184-26.646-4.184" transform="translate(-149.282 -47.14)" fill="#52a1a1"/>
          <path id="Trazado_823990" data-name="Trazado 823990" d="M324.468,133.937a.293.293,0,0,1-.126-.028.3.3,0,0,1-.144-.4l5.073-10.823-7.433-23.1a.3.3,0,1,1,.567-.183l7.469,23.208a.3.3,0,0,1-.014.218l-5.122,10.93a.3.3,0,0,1-.27.172" transform="translate(-153.975 -47.464)" fill="#361524"/>
          <path id="Trazado_823991" data-name="Trazado 823991" d="M274.712,240.69H75.839a1.79,1.79,0,0,1-1.443-2.85l3.237-4.406.441-.6,4.841-6.593.441-.6,4.847-6.593.435-.6,3.869-5.264a1.788,1.788,0,0,1,1.443-.727H256.6a1.788,1.788,0,0,1,1.443.727l3.869,5.264.435.6,4.847,6.593.441.6,4.841,6.593.441.6,3.237,4.406a1.79,1.79,0,0,1-1.443,2.85" transform="translate(-35.426 -101.656)" fill="#361524"/>
          <path id="Trazado_823992" data-name="Trazado 823992" d="M276.21,233.224l-.441-.6H259.112l-3.726-6.593h15.542l-.441-.6h-15.44l-3.726-6.593H265.64l-.435-.6H250.981l-1.58-2.808a.307.307,0,0,0-.411-.113.3.3,0,0,0-.114.405l1.419,2.515H235.32l-2.092-5.991-.012-.03a.3.3,0,0,0-.572.03.265.265,0,0,0,.006.167l2.039,5.824h-18.5l-1.085-5.091a.291.291,0,0,0-.352-.226.3.3,0,0,0-.233.352l1.061,4.966H198.449L198,212.257h-.6l.447,5.991H179.146v-5.991h-.6v5.991H159.837l.447-5.991h-.6l-.447,5.991H142.113l1.061-4.966a.3.3,0,0,0-.233-.352.294.294,0,0,0-.352.226l-1.085,5.091H123l2.039-5.824a.265.265,0,0,0,.006-.167.3.3,0,0,0-.19-.214.3.3,0,0,0-.382.185l-.012.03-2.092,5.991H107.394l1.419-2.515a.3.3,0,0,0-.113-.405.308.308,0,0,0-.412.113l-1.58,2.808H91.93l-.435.6h14.874l-3.726,6.593H86.648l-.441.6h16.1l-3.726,6.593H81.366l-.441.6H98.243l-4.1,7.255h.685l4.1-7.255h18.206l-2.534,7.255h.632l2.534-7.255h20.549l-1.544,7.255h.608l1.544-7.255h19.2l-.542,7.255h.6l.542-7.255h19.828v7.255h.6v-7.255h19.822l.543,7.255h.6l-.542-7.255h19.2l1.544,7.255h.608l-1.544-7.255h20.549l2.534,7.255h.632l-2.534-7.255h18.206l4.1,7.255h.685l-4.1-7.255ZM122.792,218.845H141.38l-1.407,6.593H120.491Zm-15.738,0H122.16l-2.3,6.593H103.328Zm10.29,13.783H99.262l3.726-6.593H119.65Zm21.1,0H117.975l2.307-6.593h19.566Zm19.726,0H139.049l1.407-6.593h18.2Zm.537-7.19H140.581l1.407-6.593h17.2Zm19.846,7.19H158.763l.495-6.593h19.291Zm0-7.19H159.3l.489-6.593h18.761Zm72.086-6.593,3.726,6.593H237.83l-2.3-6.593Zm-15.738,0,2.3,6.593H217.716l-1.407-6.593Zm-55.752,0H197.9l.489,6.593H179.146Zm0,13.783v-6.593h19.286l.494,6.593ZM198.5,218.845H215.7l1.407,6.593H198.986Zm1.025,13.783-.489-6.593h18.2l1.407,6.593Zm19.727,0-1.407-6.593h19.566l2.307,6.593Zm21.1,0-2.307-6.593H254.7l3.725,6.593Z" transform="translate(-38.718 -101.444)" fill="#f0dcd8"/>
          <path id="Trazado_823993" data-name="Trazado 823993" d="M87.717,153.036s-58.877,3.873-72.928,9.895C2.27,168.3-2.3,177.238,1.077,187.969,5.44,201.825,28.36,200.489,39.23,198.5c16.294-2.981,73.723-18.878,73.723-18.878Z" transform="translate(0 -73.22)" fill="#ffa6a6"/>
          <path id="Trazado_823994" data-name="Trazado 823994" d="M165.9,153.026s20.865-.281,28.218,1.946c4.367,1.323,7.8,3.522,11.667,5.908,6.264,3.87,9.4,14.184,9.4,21.158,0,2.75.772,8.419-3.02,9.113-4.6.842-4.851-7.068-6.419-9.908-1.59-2.882-2.881-2.783-8.445-2.186s-8.744.6-8.744.6l-25.137-8.346Z" transform="translate(-78.188 -73.21)" fill="#ffa6a6"/>
          <path id="Trazado_823995" data-name="Trazado 823995" d="M455.545,156.768s20.405,8.552,24.261,14.124-38.171,15.919-39.165,14.927-9.924-25.785-9.532-27.1,24.436-1.951,24.436-1.951" transform="translate(-206.257 -75.006)" fill="#361524"/>
          <path id="Trazado_823996" data-name="Trazado 823996" d="M387.056,123l39.147,17.61-7.384,19.912-42.692-10.333-6.359-23.818Z" transform="translate(-176.914 -58.851)" fill="#52a1a1"/>
          <path id="Trazado_823997" data-name="Trazado 823997" d="M387.851,151.932a.3.3,0,0,1-.095-.016.3.3,0,0,1-.187-.377l8.7-25.839a.3.3,0,0,1,.565.19l-8.7,25.839a.3.3,0,0,1-.282.2" transform="translate(-185.423 -60.045)" fill="#361524"/>
          <path id="Trazado_823998" data-name="Trazado 823998" d="M343.188,153.036s58.877,3.873,72.928,9.895c12.519,5.365,17.089,14.307,13.711,25.038-4.363,13.856-27.282,12.52-38.153,10.532-16.294-2.981-73.723-18.878-73.723-18.878Z" transform="translate(-152.122 -73.22)" fill="#ffa6a6"/>
          <path id="Trazado_823999" data-name="Trazado 823999" d="M303.468,172.057a65.882,65.882,0,0,0,6.562,7.269l24.307-8.07-2.484-18.282s-18.4-.795-27.44,3.1c-3.159,1.36-7.651,3.36-10.153,6.441,3.116,4.283,6.009,5.32,9.209,9.544" transform="translate(-140.787 -73.159)" fill="#ffa6a6"/>
          <path id="Trazado_824000" data-name="Trazado 824000" d="M207.348,200.548s.844,13.86-1.019,18.108-5.812,2.757-7.154-2.608-1.881-16.713-1.881-16.713Z" transform="translate(-94.395 -95.372)" fill="#ffa6a6"/>
          <path id="Trazado_824001" data-name="Trazado 824001" d="M141.306,212.1a3.259,3.259,0,0,0,1.242,3.527,6,6,0,0,0,3.974,1.341s-.447,4.968,3.826,5.411c3.824.4,6.259-3.672,7.7-5.808s2.981-4.7,2.981-4.7.844,7.684,5.663,7.584,5.763-11.824,5.763-11.824-.249-3.974-.944-4.223-16.543-.994-18.034-.447-12.171,9.141-12.171,9.141" transform="translate(-67.549 -97.012)" fill="#ffa6a6"/>
          <path id="Trazado_824002" data-name="Trazado 824002" d="M289.859,167.317s-7.936,5.319-9.2,14.112c-.524,3.637.679,7.491,2.348,10.689a11.424,11.424,0,0,0,4.431,5.037,3.949,3.949,0,0,0,4.156-.073c1.74-1.316,1.252-3.451.756-5.251-.364-1.32-.712-2.653-1.037-3.984a9.893,9.893,0,0,1,.227-5.673c.82-2.086,6.707-5.141,6.707-5.141s-1.341-6.781-2.31-6.781-6.073-2.934-6.073-2.934" transform="translate(-134.219 -80.053)" fill="#ffa6a6"/>
          <path id="Trazado_824003" data-name="Trazado 824003" d="M299.487,188.18s6.816,2.981,9.63,3.726a24.879,24.879,0,0,0,4.975.819s-.37,8.012,0,13.413c.322,4.72,5.191,6.086,6.83,2.285s3.527-16.593,3.527-16.816-2.682-10.954-2.981-11.252-12.552-5.077-13.786-3.875-4.992,2.757-5.961,3.577-2.235,8.123-2.235,8.123" transform="translate(-143.288 -84.344)" fill="#ffa6a6"/>
          <path id="Trazado_824004" data-name="Trazado 824004" d="M341.821,209.407s-1.39,9.419,4.62,9.29c4.049-.087,4.273-7.613,4.273-7.613s.245,9.214,3.539,12.134c2.832,2.509,5.589-.4,5.589-.4s4.362,2.56,6.8-3.03,2.7-8.644,2.653-8.843-6.409-5.713-8.048-6.309-13.711-3.229-16.146-2.335-6.607,3.13-6.607,3.627,3.329,3.477,3.329,3.477" transform="translate(-161.95 -96.704)" fill="#ffa6a6"/>
          <path id="Trazado_824005" data-name="Trazado 824005" d="M198.174,203.153a.3.3,0,0,1-.293-.246c-.077-.431-1.86-10.609.082-15.988,1.994-5.522,12.89-4.418,13.353-4.368a.3.3,0,1,1-.064.593c-.107-.011-10.893-1.105-12.728,3.978-1.889,5.23-.076,15.577-.057,15.681a.3.3,0,0,1-.241.346.312.312,0,0,1-.053,0" transform="translate(-94.283 -87.283)" fill="#361524"/>
          <path id="Trazado_824006" data-name="Trazado 824006" d="M178.665,199.085a.3.3,0,0,1-.3-.291c0-.095-.223-9.5-.186-11.86l0-.181c.035-2.467.128-9.021,5.619-10.53,4.94-1.353,8.165,4.794,8.2,4.856a.3.3,0,0,1-.53.273c-.03-.058-3.036-5.786-7.509-4.553-5.059,1.39-5.145,7.4-5.181,9.963l0,.182c-.037,2.352.184,11.742.187,11.837a.3.3,0,0,1-.292.305Z" transform="translate(-85.248 -84.22)" fill="#361524"/>
          <path id="Trazado_824007" data-name="Trazado 824007" d="M151.474,206.248a.3.3,0,0,1-.129-.03.3.3,0,0,1-.139-.4c.024-.05,2.4-5.009,3.646-8.032,1.989-4.841,6.424-16.908,6.468-17.03a.3.3,0,0,1,.56.206c-.045.121-4.483,12.2-6.476,17.051-1.249,3.039-3.637,8.013-3.661,8.063a.3.3,0,0,1-.269.169" transform="translate(-72.329 -86.391)" fill="#361524"/>
          <path id="Trazado_824008" data-name="Trazado 824008" d="M140.1,207.292a.3.3,0,0,1-.295-.256c-.63-4.411,1.818-15.953,7.047-16.928a3.889,3.889,0,0,1,3.343.737c2.057,1.707,2.087,5.421,2.087,5.578a.3.3,0,0,1-.3.3h0a.3.3,0,0,1-.3-.3c0-.035-.03-3.594-1.873-5.122a3.323,3.323,0,0,0-2.852-.609c-4.819.9-7.156,12.13-6.566,16.258a.3.3,0,0,1-.253.337l-.042,0" transform="translate(-66.845 -90.912)" fill="#361524"/>
          <path id="Trazado_824009" data-name="Trazado 824009" d="M332.046,203.257a.267.267,0,0,1-.05,0,.3.3,0,0,1-.245-.343,50.454,50.454,0,0,0,.643-6.611c.134-4.161-.036-8.076-3.538-10.26-2.445-1.524-5.78-2.208-10.2-2.081a.294.294,0,0,1-.306-.29.3.3,0,0,1,.29-.306c4.539-.121,7.988.583,10.535,2.172,3.768,2.35,3.953,6.615,3.819,10.784a51.1,51.1,0,0,1-.65,6.689.3.3,0,0,1-.294.249" transform="translate(-152.311 -87.723)" fill="#361524"/>
          <path id="Trazado_824010" data-name="Trazado 824010" d="M351.082,198.189a.274.274,0,0,1-.046,0,.3.3,0,0,1-.249-.34c.015-.093,1.414-9.356-.045-15.535-1.422-6.019-11.2-6.671-11.3-6.676a.3.3,0,0,1,.035-.6c.421.026,10.325.684,11.848,7.134,1.487,6.293.069,15.669.054,15.763a.3.3,0,0,1-.294.252" transform="translate(-162.269 -83.747)" fill="#361524"/>
          <path id="Trazado_824011" data-name="Trazado 824011" d="M371.056,215.479l-.032,0a.3.3,0,0,1-.265-.328l.03-.286c.468-4.383,1.71-16.025-1.834-22.592a8.808,8.808,0,0,0-7.6-4.381.3.3,0,0,1-.286-.31.3.3,0,0,1,.31-.286,9.4,9.4,0,0,1,8.1,4.694c3.633,6.729,2.376,18.505,1.9,22.938l-.03.286a.3.3,0,0,1-.3.267" transform="translate(-172.754 -89.611)" fill="#361524"/>
          <path id="Trazado_824012" data-name="Trazado 824012" d="M388.03,212.25a.319.319,0,0,1-.054,0,.3.3,0,0,1-.24-.346c.013-.066,1.166-6.662-1.547-10.068-2.645-3.317-7.3-.706-7.35-.68a.3.3,0,1,1-.3-.517c.05-.03,5.153-2.888,8.111.825,2.883,3.619,1.72,10.264,1.668,10.545a.3.3,0,0,1-.292.245" transform="translate(-181.04 -95.477)" fill="#361524"/>
          <path id="Trazado_824013" data-name="Trazado 824013" d="M281.578,109.836a.3.3,0,0,1-.123-.57c5.85-2.651,7.278-10.1,7.62-13.177l.3.008.3.042c-.355,3.2-1.838,10.891-7.968,13.669a.3.3,0,0,1-.123.027" transform="translate(-134.577 -45.974)" fill="#361524"/>
        </g>
      </g>
      <g id="Grupo_1073696" data-name="Grupo 1073696" transform="translate(216.93 658.286)">
        <g id="Grupo_1073695" data-name="Grupo 1073695">
          <g id="Grupo_1073694" data-name="Grupo 1073694" clip-path="url(#clip-path-2)">
            <path id="Trazado_824014" data-name="Trazado 824014" d="M51.143,64.258v5.6a3.712,3.712,0,0,1-3.712,3.712H4.284A3.712,3.712,0,0,1,.572,69.855V4.284A3.711,3.711,0,0,1,4.284.572H47.431a3.711,3.711,0,0,1,3.712,3.712V55.031L68,68.563Z" transform="translate(-0.386 -0.386)" fill="#fff"/>
            <path id="Trazado_824015" data-name="Trazado 824015" d="M47.045,73.366H3.9a3.9,3.9,0,0,1-3.9-3.9V3.9A3.9,3.9,0,0,1,3.9,0H47.045a3.9,3.9,0,0,1,3.9,3.9V54.555L67.731,68.032a.186.186,0,0,1-.162.324L50.942,64.111v5.358a3.9,3.9,0,0,1-3.9,3.9M3.9.371A3.53,3.53,0,0,0,.371,3.9V69.469A3.53,3.53,0,0,0,3.9,73H47.045a3.53,3.53,0,0,0,3.526-3.526v-5.6a.186.186,0,0,1,.232-.18L66.83,67.785l-16.19-13a.184.184,0,0,1-.069-.145V3.9A3.53,3.53,0,0,0,47.045.371Z" fill="#361524"/>
            <path id="Trazado_824016" data-name="Trazado 824016" d="M118.081,69.12a.185.185,0,0,1-.183-.159q-.038-.273-.088-.542a.186.186,0,0,1,.149-.216.189.189,0,0,1,.216.149c.034.185.064.37.09.557a.185.185,0,0,1-.157.209l-.027,0" transform="translate(-79.551 -46.054)" fill="#e95a73"/>
            <path id="Trazado_824017" data-name="Trazado 824017" d="M87.677,35.431a.184.184,0,0,1-.054-.008q-.262-.08-.529-.15a.185.185,0,0,1,.094-.359c.183.048.363.1.543.154a.186.186,0,0,1-.054.363" transform="translate(-58.719 -23.572)" fill="#e95a73"/>
            <path id="Trazado_824018" data-name="Trazado 824018" d="M47.829,61.366a13.919,13.919,0,1,1,3.54-27.384l-.094.359a13.55,13.55,0,1,0,10.1,13.106,13.73,13.73,0,0,0-.132-1.9l.368-.052a14.177,14.177,0,0,1,.135,1.951A13.934,13.934,0,0,1,47.829,61.366" transform="translate(-22.898 -22.641)" fill="#e95a73"/>
            <path id="Trazado_824019" data-name="Trazado 824019" d="M59.633,69.691a1.615,1.615,0,0,1-.792-1.412,1.466,1.466,0,0,1,.493-1.191,1.778,1.778,0,0,1,1.183-.413,1.841,1.841,0,0,1,1.288.431,1.509,1.509,0,0,1,.473,1.174,1.629,1.629,0,0,1-.791,1.412,1.524,1.524,0,0,1,.958,1.513,1.727,1.727,0,0,1-.5,1.3,1.844,1.844,0,0,1-1.344.486,1.959,1.959,0,0,1-1.439-.486,1.743,1.743,0,0,1-.489-1.3,1.524,1.524,0,0,1,.958-1.513m-.181,1.477a1.144,1.144,0,0,0,.3.794,1.163,1.163,0,0,0,1.642-.045,1.194,1.194,0,0,0-.023-1.549,1.13,1.13,0,0,0-1.921.8m.114-2.81a.976.976,0,0,0,.319.752,1.04,1.04,0,0,0,1.257.068,1.056,1.056,0,0,0,.357-1.211.879.879,0,0,0-.291-.389,1.041,1.041,0,0,0-.535-.176.971.971,0,0,0-1.018.524,1.164,1.164,0,0,0-.09.431" transform="translate(-39.622 -45.024)"/>
            <path id="Trazado_824020" data-name="Trazado 824020" d="M72.985,69.832a4.072,4.072,0,0,1,.569-2.335,1.794,1.794,0,0,1,1.554-.822,1.761,1.761,0,0,1,1.57.853,4.217,4.217,0,0,1,.549,2.3,4.075,4.075,0,0,1-.567,2.328,1.787,1.787,0,0,1-1.552.824,1.76,1.76,0,0,1-1.576-.858,4.221,4.221,0,0,1-.547-2.3m.9,0a4.069,4.069,0,0,0,.317,1.875,1.015,1.015,0,0,0,1.82,0,4.074,4.074,0,0,0,.317-1.873,4.03,4.03,0,0,0-.321-1.886,1,1,0,0,0-.906-.558.969.969,0,0,0-.943.635,4.575,4.575,0,0,0-.283,1.809" transform="translate(-49.285 -45.024)"/>
            <path id="Trazado_824021" data-name="Trazado 824021" d="M89.533,73.081a.327.327,0,0,1-.13-.026.335.335,0,0,1-.179-.439l2.358-5.594a.335.335,0,0,1,.617.26l-2.358,5.594a.335.335,0,0,1-.309.2" transform="translate(-60.233 -45.12)"/>
            <path id="Trazado_824022" data-name="Trazado 824022" d="M89.058,66.816a.447.447,0,0,0,0,.893.447.447,0,0,0,0-.893" transform="translate(-59.847 -45.119)"/>
            <path id="Trazado_824023" data-name="Trazado 824023" d="M97.217,83.357a.447.447,0,0,0,0,.893.447.447,0,0,0,0-.893" transform="translate(-65.357 -56.289)"/>
            <path id="Trazado_824024" data-name="Trazado 824024" d="M31.719,156.684l6.99-9.414,10.9,8.248L60.98,140.542Z" transform="translate(-21.419 -94.904)" fill="#fff"/>
            <path id="Trazado_824025" data-name="Trazado 824025" d="M31.333,156.484a.186.186,0,0,1-.149-.3l6.991-9.414a.185.185,0,0,1,.261-.037l10.754,8.136,11.257-14.828a.186.186,0,1,1,.3.225L49.373,155.246a.186.186,0,0,1-.26.035l-10.752-8.135-6.879,9.264a.185.185,0,0,1-.149.075" transform="translate(-21.033 -94.519)" fill="#361524"/>
            <path id="Trazado_824026" data-name="Trazado 824026" d="M119.89,135.545a1.794,1.794,0,1,0-1.794,1.794,1.794,1.794,0,0,0,1.794-1.794" transform="translate(-78.535 -90.318)" fill="#434194"/>
            <path id="Trazado_824027" data-name="Trazado 824027" d="M29.783,186.519a1.794,1.794,0,1,0-1.794,1.794,1.794,1.794,0,0,0,1.794-1.794" transform="translate(-17.689 -124.74)" fill="#434194"/>
          </g>
        </g>
      </g>
      <g id="Grupo_1073700" data-name="Grupo 1073700" transform="translate(345.821 671.497)">
        <g id="Grupo_1073699" data-name="Grupo 1073699" transform="translate(0 0)" clip-path="url(#clip-path-3)">
          <path id="Trazado_824034" data-name="Trazado 824034" d="M41.865,29.269v11.9a5.77,5.77,0,0,0,5.77,5.771h57.378a5.77,5.77,0,0,0,5.77-5.771V6.342a5.77,5.77,0,0,0-5.77-5.77H47.635a5.77,5.77,0,0,0-5.77,5.77V12.68L.572,33.02Z" transform="translate(-0.283 -0.283)" fill="#fff"/>
          <path id="Trazado_824035" data-name="Trazado 824035" d="M104.73,46.946H47.352a6.066,6.066,0,0,1-6.059-6.059V29.3L.315,33.024a.292.292,0,0,1-.3-.209.287.287,0,0,1,.15-.337L41.293,12.217V6.058A6.065,6.065,0,0,1,47.352,0H104.73a6.065,6.065,0,0,1,6.058,6.058V40.887a6.065,6.065,0,0,1-6.058,6.059M41.582,28.7a.284.284,0,0,1,.194.076.289.289,0,0,1,.094.213v11.9a5.488,5.488,0,0,0,5.481,5.482H104.73a5.488,5.488,0,0,0,5.481-5.482V6.058A5.488,5.488,0,0,0,104.73.577H47.352a5.488,5.488,0,0,0-5.481,5.481V12.4a.288.288,0,0,1-.162.258L1.81,32.309,41.556,28.7h.026" transform="translate(0 0)" fill="#361524"/>
          <path id="Trazado_824036" data-name="Trazado 824036" d="M168.027,31.034l-9.042,13.342-7.8,11.508-7.8-11.508-9.036-13.342Z" transform="translate(-66.532 -15.367)" fill="#88cbf7"/>
          <path id="Trazado_824037" data-name="Trazado 824037" d="M168.027,31.034,163.508,37.7l-4.524,6.675H143.394L138.876,37.7l-4.518-6.668Z" transform="translate(-66.532 -15.367)" fill="#5dace1"/>
          <path id="Trazado_824038" data-name="Trazado 824038" d="M168.027,31.034,163.508,37.7H138.876l-4.518-6.668Z" transform="translate(-66.532 -15.367)" fill="#3c94cf"/>
          <path id="Trazado_824039" data-name="Trazado 824039" d="M100.586,18.842h0Z" transform="translate(-49.808 -9.33)" fill="#fff"/>
          <path id="Trazado_824040" data-name="Trazado 824040" d="M151.021,18.848H100.3a.289.289,0,0,1,0-.577h50.718a.289.289,0,0,1,0,.577" transform="translate(-49.526 -9.047)" fill="#361524"/>
          <path id="Trazado_824041" data-name="Trazado 824041" d="M100.586,54.275h0Z" transform="translate(-49.808 -26.876)" fill="#fff"/>
          <path id="Trazado_824042" data-name="Trazado 824042" d="M112.9,54.281H100.3a.289.289,0,1,1,0-.577h12.6a.289.289,0,1,1,0,.577" transform="translate(-49.525 -26.593)" fill="#361524"/>
          <path id="Trazado_824043" data-name="Trazado 824043" d="M100.586,63.8h0Z" transform="translate(-49.808 -31.593)" fill="#fff"/>
          <path id="Trazado_824044" data-name="Trazado 824044" d="M117.351,63.806H100.3a.289.289,0,0,1,0-.577h17.049a.289.289,0,1,1,0,.577" transform="translate(-49.525 -31.31)" fill="#361524"/>
          <path id="Trazado_824045" data-name="Trazado 824045" d="M100.586,73.325h0Z" transform="translate(-49.808 -36.309)" fill="#fff"/>
          <path id="Trazado_824046" data-name="Trazado 824046" d="M122.71,73.33H100.3a.289.289,0,0,1,0-.577H122.71a.289.289,0,1,1,0,.577" transform="translate(-49.525 -36.026)" fill="#361524"/>
        </g>
      </g>
    </g>
  </g>
</svg>
