<svg xmlns="http://www.w3.org/2000/svg" width="86" height="86" viewBox="0 0 86 86">
  <g id="_1" data-name="1" transform="translate(4339.406 11045.406)">
    <path id="Trazado_879076" data-name="Trazado 879076" d="M43,0A43,43,0,1,1,0,43,43,43,0,0,1,43,0Z" transform="translate(-4339.406 -11045.406)" fill="#e2dacc"/>
    <g id="analitica" transform="translate(-4290.219 -10995.438)">
      <g id="Grupo_1099867" data-name="Grupo 1099867" transform="translate(-35.334 -35.298)">
        <g id="Grupo_1099862" data-name="Grupo 1099862" transform="translate(0 0)">
          <circle id="Elipse_11493" data-name="Elipse 11493" cx="10.95" cy="10.95" r="10.95" transform="translate(0 15.484) rotate(-45)" fill="#60b7ff"/>
          <circle id="Elipse_11494" data-name="Elipse 11494" cx="9.59" cy="9.59" r="9.59" transform="translate(1.924 15.484) rotate(-45)" fill="#8ac9fe"/>
          <path id="Trazado_874029" data-name="Trazado 874029" d="M112.608,112.62h10.95a10.946,10.946,0,0,1-5.474,9.485Z" transform="translate(-97.122 -97.136)" fill="#fd4755" fill-rule="evenodd"/>
          <path id="Trazado_874030" data-name="Trazado 874030" d="M112.608,112.62h9.59a9.586,9.586,0,0,1-4.794,8.306Z" transform="translate(-97.122 -97.136)" fill="#fe646f" fill-rule="evenodd"/>
          <path id="Trazado_874031" data-name="Trazado 874031" d="M123.558,18.96h-10.95V8.01A10.95,10.95,0,0,1,123.558,18.96Z" transform="translate(-97.122 -3.477)" fill="#ffd064" fill-rule="evenodd"/>
          <path id="Trazado_874032" data-name="Trazado 874032" d="M122.2,30.6h-9.59v-9.59A9.59,9.59,0,0,1,122.2,30.6Z" transform="translate(-97.122 -15.114)" fill="#ffe177" fill-rule="evenodd"/>
        </g>
        <g id="Grupo_1099863" data-name="Grupo 1099863" transform="translate(31.622 4.244)">
          <path id="Trazado_874033" data-name="Trazado 874033" d="M267.937,5.247h2.824a1.181,1.181,0,0,1,1.178,1.178V9.25a1.181,1.181,0,0,1-1.178,1.178h-2.824a1.181,1.181,0,0,1-1.178-1.178V6.425a1.181,1.181,0,0,1,1.178-1.178Z" transform="translate(-266.759 -5.247)" fill="#8ac9fe" fill-rule="evenodd"/>
          <path id="Trazado_874034" data-name="Trazado 874034" d="M267.937,87.873h2.824a1.181,1.181,0,0,1,1.178,1.178v2.824a1.181,1.181,0,0,1-1.178,1.178h-2.824a1.181,1.181,0,0,1-1.178-1.178V89.051A1.181,1.181,0,0,1,267.937,87.873Z" transform="translate(-266.759 -79.224)" fill="#ffe177" fill-rule="evenodd"/>
          <path id="Trazado_874035" data-name="Trazado 874035" d="M267.937,170.5h2.824a1.181,1.181,0,0,1,1.178,1.178V174.5a1.181,1.181,0,0,1-1.178,1.178h-2.824a1.181,1.181,0,0,1-1.178-1.178v-2.824A1.181,1.181,0,0,1,267.937,170.5Z" transform="translate(-266.759 -153.2)" fill="#fe646f" fill-rule="evenodd"/>
        </g>
        <g id="Grupo_1099864" data-name="Grupo 1099864" transform="translate(4.536 32.446)">
          <path id="Trazado_874036" data-name="Trazado 874036" d="M198.059,348.361h3.477a1.049,1.049,0,0,1,1.047,1.047v14.2a1.049,1.049,0,0,1-1.047,1.047h-3.477a1.049,1.049,0,0,1-1.047-1.047v-14.2A1.049,1.049,0,0,1,198.059,348.361Z" transform="translate(-177.227 -340.646)" fill="#ffe177" fill-rule="evenodd"/>
          <path id="Trazado_874037" data-name="Trazado 874037" d="M201.536,348.361a1.049,1.049,0,0,1,1.047,1.047v14.2a1.049,1.049,0,0,1-1.047,1.047h-3.477a1.049,1.049,0,0,1-1.047-1.047h3.477a1.049,1.049,0,0,0,1.047-1.047Z" transform="translate(-177.227 -340.646)" fill="#ffd064" fill-rule="evenodd"/>
          <path id="Trazado_874038" data-name="Trazado 874038" d="M294.644,348.361h3.477a1.049,1.049,0,0,1,1.047,1.047v14.2a1.049,1.049,0,0,1-1.047,1.047h-3.477a1.049,1.049,0,0,1-1.047-1.047v-14.2A1.049,1.049,0,0,1,294.644,348.361Z" transform="translate(-263.701 -340.646)" fill="#fe646f" fill-rule="evenodd"/>
          <path id="Trazado_874039" data-name="Trazado 874039" d="M298.121,348.361a1.049,1.049,0,0,1,1.047,1.047v14.2a1.049,1.049,0,0,1-1.047,1.047h-3.477a1.049,1.049,0,0,1-1.047-1.047h3.477a1.049,1.049,0,0,0,1.047-1.047Z" transform="translate(-263.701 -340.646)" fill="#fd4755" fill-rule="evenodd"/>
          <path id="Trazado_874040" data-name="Trazado 874040" d="M9.047,321.361h3.477a1.049,1.049,0,0,1,1.047,1.047v17.026a1.049,1.049,0,0,1-1.047,1.047H9.047A1.049,1.049,0,0,1,8,339.434V322.408A1.049,1.049,0,0,1,9.047,321.361Z" transform="translate(-8 -316.472)" fill="#6cf5c2" fill-rule="evenodd"/>
          <path id="Trazado_874041" data-name="Trazado 874041" d="M12.524,321.361a1.049,1.049,0,0,1,1.047,1.047v17.026a1.049,1.049,0,0,1-1.047,1.047H9.047A1.049,1.049,0,0,1,8,339.434h3.477a1.049,1.049,0,0,0,1.047-1.047Z" transform="translate(-8 -316.472)" fill="#00e499" fill-rule="evenodd"/>
          <path id="Trazado_874042" data-name="Trazado 874042" d="M101.473,274.658h3.477A1.049,1.049,0,0,1,106,275.7v21.915a1.049,1.049,0,0,1-1.047,1.047h-3.477a1.049,1.049,0,0,1-1.047-1.047V275.7A1.049,1.049,0,0,1,101.473,274.658Z" transform="translate(-90.751 -274.658)" fill="#8ac9fe" fill-rule="evenodd"/>
          <path id="Trazado_874043" data-name="Trazado 874043" d="M104.95,274.658A1.049,1.049,0,0,1,106,275.7v21.915a1.049,1.049,0,0,1-1.047,1.047h-3.477a1.049,1.049,0,0,1-1.047-1.047H103.9a1.049,1.049,0,0,0,1.047-1.047Z" transform="translate(-90.751 -274.658)" fill="#60b7ff" fill-rule="evenodd"/>
        </g>
        <g id="Grupo_1099865" data-name="Grupo 1099865" transform="translate(21.264 20.167)">
          <path id="Trazado_874044" data-name="Trazado 874044" d="M375.051,354.862a10.844,10.844,0,0,1-1.83,2.014l4.976,4.877,1.894-1.952Z" transform="translate(-351.718 -334.188)" fill="#a79ba7" fill-rule="evenodd"/>
          <path id="Trazado_874045" data-name="Trazado 874045" d="M386.391,354.541a1.25,1.25,0,0,1-.542.726l4.943,4.91.605-.663Z" transform="translate(-363.024 -333.901)" fill="#837683" fill-rule="evenodd"/>
          <path id="Trazado_874046" data-name="Trazado 874046" d="M415.909,398.98l2.138-2.2a.983.983,0,0,0-.021-1.386l-5.921-5.746a.983.983,0,0,0-1.386.021l-2.138,2.2a.983.983,0,0,0,.021,1.386L414.523,399A.983.983,0,0,0,415.909,398.98Z" transform="translate(-383.13 -365.083)" fill="#f1ba84" fill-rule="evenodd"/>
          <path id="Trazado_874047" data-name="Trazado 874047" d="M434.142,389.644l5.921,5.746a.983.983,0,0,1,.021,1.386l-2.138,2.2a.973.973,0,0,1-.266.194.984.984,0,0,0,1.141-.194l2.138-2.2a.983.983,0,0,0-.021-1.386l-5.921-5.746a.984.984,0,0,0-1.121-.173A.978.978,0,0,1,434.142,389.644Z" transform="translate(-406.043 -365.082)" fill="#e3a76f" fill-rule="evenodd"/>
          <circle id="Elipse_11495" data-name="Elipse 11495" cx="10.782" cy="10.782" r="10.782" transform="translate(0 15.246) rotate(-45)" fill="#eceff1"/>
          <path id="Trazado_874048" data-name="Trazado 874048" d="M309.037,200a10.782,10.782,0,0,1,0,21.564q-.263,0-.523-.013a10.782,10.782,0,0,0,0-21.539Q308.774,200,309.037,200Z" transform="translate(-293.784 -195.54)" fill="#d1d1d6" fill-rule="evenodd"/>
        </g>
        <g id="Grupo_1099866" data-name="Grupo 1099866" transform="translate(28.666 27.562)">
          <circle id="Elipse_11496" data-name="Elipse 11496" cx="7.851" cy="7.851" r="7.851" transform="translate(0 0)" fill="#837683"/>
          <path id="Trazado_874049" data-name="Trazado 874049" d="M314,235.856a7.852,7.852,0,0,1-7.153,7.82q.345.03.7.031a7.924,7.924,0,0,0,1.124-.08l.142-.022a7.851,7.851,0,0,0-1.265-15.6q-.353,0-.7.031a7.852,7.852,0,0,1,7.153,7.82Z" transform="translate(-299.692 -228.005)" fill="#685e68" fill-rule="evenodd"/>
          <path id="Trazado_874050" data-name="Trazado 874050" d="M266.887,310.239a5.485,5.485,0,0,0-5.451,4.893,7.825,7.825,0,0,0,5.451,2.2,7.926,7.926,0,0,0,1.124-.08,7.826,7.826,0,0,0,4.327-2.122A5.483,5.483,0,0,0,266.887,310.239Z" transform="translate(-259.036 -301.631)" fill="#8ac9fe" fill-rule="evenodd"/>
          <path id="Trazado_874051" data-name="Trazado 874051" d="M306.847,310.283c3.263.415,4.579,2.884,4.881,5.843a7.877,7.877,0,0,0,1.268-.995,5.483,5.483,0,0,0-5.451-4.892A5.542,5.542,0,0,0,306.847,310.283Z" transform="translate(-299.694 -301.631)" fill="#60b7ff" fill-rule="evenodd"/>
          <circle id="Elipse_11497" data-name="Elipse 11497" cx="2.772" cy="2.772" r="2.772" transform="translate(5.079 2.65)" fill="#f6dccd"/>
          <path id="Trazado_874052" data-name="Trazado 874052" d="M312.6,256.09a2.772,2.772,0,0,1-2.423,2.75,2.8,2.8,0,0,0,.349.022,2.772,2.772,0,1,0-.349-5.522A2.772,2.772,0,0,1,312.6,256.09Z" transform="translate(-302.679 -250.668)" fill="#f1cbbc" fill-rule="evenodd"/>
        </g>
      </g>
      <path id="Trazado_874053" data-name="Trazado 874053" d="M25.8,31.726a6.971,6.971,0,0,0,1.158,3.853,6.3,6.3,0,0,1,3.25-3.375,3.609,3.609,0,1,1,5.212,0,6.307,6.307,0,0,1,3.25,3.375A7.012,7.012,0,1,0,25.8,31.726Zm7.014-.08a1.935,1.935,0,1,1,1.934-1.935A1.937,1.937,0,0,1,32.815,31.646Zm0,7.094a6.98,6.98,0,0,1-4.554-1.687,4.646,4.646,0,0,1,9.11,0A6.984,6.984,0,0,1,32.815,38.74Zm-8.688-7.013a8.688,8.688,0,1,1,8.688,8.688A8.7,8.7,0,0,1,24.126,31.726ZM15.244,29.6h-3.9V51.929h3.9Zm1.675-.838V52.767a.838.838,0,0,1-.837.838H10.51a.838.838,0,0,1-.838-.838V28.758a.837.837,0,0,1,.838-.838h5.571a.838.838,0,0,1,.837.838Zm34.957,18.63-5.921-5.745a.137.137,0,0,0-.1-.039h0a.14.14,0,0,0-.1.042l-2.138,2.2a.147.147,0,0,0,0,.2l5.92,5.746a.148.148,0,0,0,.2,0l2.138-2.2A.147.147,0,0,0,51.875,47.388ZM35.464,43.041a11.646,11.646,0,0,1-3.9.238v8.651h3.9ZM25.353,40.626a11.7,11.7,0,0,1-2.725-3.315H21.457V51.929h3.9Zm-2.483-8.9a9.945,9.945,0,1,1,9.944,9.945,9.956,9.956,0,0,1-9.944-9.945Zm6.177-10.993a11.54,11.54,0,0,1,2.928-.6V18.982H29.047Zm12.69,18.427c-.223.268-.459.526-.7.772l2.085,2.023.728-.75Zm11.343,9.6-2.137,2.2A1.82,1.82,0,0,1,48.372,51l-5.92-5.745a1.821,1.821,0,0,1-.411-2.007l-2.279-2.211a11.614,11.614,0,0,1-2.623,1.477V52.767a.838.838,0,0,1-.837.838H30.731a.838.838,0,0,1-.838-.838V42.973A11.53,11.53,0,0,1,27.028,41.8V52.767a.838.838,0,0,1-.838.838H20.62a.838.838,0,0,1-.837-.838V36.474a.837.837,0,0,1,.837-.838h1.253a11.619,11.619,0,0,1,5.5-14.174V18.144a.838.838,0,0,1,.838-.838h4.6a.838.838,0,0,1,.838.838v1.992a11.53,11.53,0,0,1,4.414,1.225h6.59a.837.837,0,1,1,0,1.675H40.52a11.6,11.6,0,0,1,2.206,14.75L45.1,40.092a1.823,1.823,0,0,1,2.019.349l5.921,5.746a1.819,1.819,0,0,1,.039,2.57ZM5.568,34.484h-3.9V51.929h3.9Zm1.675-.837V52.767a.838.838,0,0,1-.838.838H.835A.838.838,0,0,1,0,52.767V33.647a.837.837,0,0,1,.838-.838H6.406a.837.837,0,0,1,.838.838Zm21.8-20.387h2.928V10.333H29.047Zm-1.675.838V9.5a.837.837,0,0,1,.838-.837h4.6a.837.837,0,0,1,.838.837v4.6a.838.838,0,0,1-.838.838h-4.6A.838.838,0,0,1,27.372,14.1Zm9.182.289h8.1a.838.838,0,1,0,0-1.675h-8.1a.838.838,0,0,0,0,1.675Zm0-3.506h16.2a.838.838,0,0,0,0-1.675h-16.2a.838.838,0,0,0,0,1.675Zm-7.507-6.27h2.928V1.684H29.047Zm-1.675.838V.847A.837.837,0,0,1,28.21.009h4.6a.837.837,0,0,1,.838.838v4.6a.837.837,0,0,1-.838.838h-4.6A.837.837,0,0,1,27.372,5.449Zm9.182.289h8.1a.837.837,0,1,0,0-1.675h-8.1a.837.837,0,0,0,0,1.675Zm0-3.506h16.2a.838.838,0,1,0,0-1.675h-16.2a.838.838,0,0,0,0,1.675ZM1.672,11.8a10.112,10.112,0,0,0,14.5,9.112l-5.107-8.687a.845.845,0,0,1-.115-.425V1.719A10.127,10.127,0,0,0,1.672,11.8ZM12.622,1.719a10.131,10.131,0,0,1,9.241,9.245l-9.241,0Zm9.24,10.92-8.614,0,4.364,7.422a10.114,10.114,0,0,0,4.25-7.419ZM0,11.8A11.788,11.788,0,1,0,11.785.009,11.8,11.8,0,0,0,0,11.8Zm35.721,6.9a.837.837,0,0,0,.837.837h16.2a.837.837,0,1,0,0-1.675h-16.2A.837.837,0,0,0,35.718,18.693Z" transform="translate(-31.633 -31.611)" fill-rule="evenodd"/>
    </g>
  </g>
</svg>
