<svg xmlns="http://www.w3.org/2000/svg" xmlns:xlink="http://www.w3.org/1999/xlink" width="400" height="273.63" viewBox="0 0 400 273.63">
  <defs>
    <clipPath id="clip-path">
      <path id="Trazado_141553" data-name="Trazado 141553" d="M244.457,389.391a11.154,11.154,0,1,1-2.828-15.522A11.159,11.159,0,0,1,244.457,389.391Z" transform="translate(-224.121 -371.887)" fill="#a77d59" stroke="#263238" stroke-linecap="round" stroke-linejoin="round" stroke-width="1"/>
    </clipPath>
    <clipPath id="clip-path-2">
      <path id="Trazado_141585" data-name="Trazado 141585" d="M365.41,88.338l-8.557,83.5-5.263,51.369-73.546-7.534-14.311-1.466-9.163-.939L262.691,134l5.7-55.6Z" transform="translate(-254.57 -78.4)" fill="#fff" stroke="#263238" stroke-linecap="round" stroke-linejoin="round" stroke-width="1"/>
    </clipPath>
    <clipPath id="clip-path-3">
      <circle id="Elipse_4817" data-name="Elipse 4817" cx="17.741" cy="17.741" r="17.741" transform="matrix(0.768, -0.64, 0.64, 0.768, 0, 22.711)" fill="#a77d59" stroke="#263238" stroke-miterlimit="10" stroke-width="1"/>
    </clipPath>
    <clipPath id="clip-path-4">
      <path id="Trazado_141610" data-name="Trazado 141610" d="M361.582,200.642l-2.007,4.558-54.022,72.028-6.017-3.835,8.169-10.248,48.522-60.864,4.28-2.719A1.52,1.52,0,0,1,361.582,200.642Z" transform="translate(-299.536 -199.562)" fill="#a77d59" stroke="#263238" stroke-linecap="round" stroke-linejoin="round" stroke-width="1"/>
    </clipPath>
    <clipPath id="clip-path-5">
      <path id="Trazado_141614" data-name="Trazado 141614" d="M316.347,292.109a213.3,213.3,0,0,1-11.831,20.434l-4.145,1.072s-9.507,9.448-15.308,14.163a13.008,13.008,0,0,1-2.835-2.381s8.238-15.817,17.35-25.829a11.626,11.626,0,0,1,2.99,1.587,14.682,14.682,0,0,1,3.121,2.995l10.157-12.779Z" transform="translate(-282.228 -291.371)" fill="#a77d59" stroke="#263238" stroke-linecap="round" stroke-linejoin="round" stroke-width="1"/>
    </clipPath>
    <clipPath id="clip-path-6">
      <path id="Trazado_141648" data-name="Trazado 141648" d="M205.584,192.263l-81.492,34.3-8.4,3.537L99.861,192.481,63.1,105.133,152.992,67.3Z" transform="translate(-63.1 -67.3)" fill="#fff" stroke="#263238" stroke-linecap="round" stroke-linejoin="round" stroke-width="1"/>
    </clipPath>
  </defs>
  <g id="_1" data-name="1" transform="translate(-172.051 -403)">
    <g id="Grupo_1101005" data-name="Grupo 1101005" transform="translate(-1.375)">
      <g id="Grupo_1101011" data-name="Grupo 1101011">
        <rect id="Rectángulo_401599" data-name="Rectángulo 401599" width="400" height="273.63" transform="translate(173.426 403)" fill="#c6e9f3"/>
      </g>
    </g>
    <g id="Grupo_1102129" data-name="Grupo 1102129" transform="translate(25.051 -75)">
      <g id="Grupo_70071" data-name="Grupo 70071" transform="translate(180 489)">
        <rect id="Rectángulo_31121" data-name="Rectángulo 31121" width="333.549" height="252.308" fill="none"/>
      </g>
      <g id="Grupo_70584" data-name="Grupo 70584" transform="translate(210.994 492.302)">
        <g id="Background_Simple" data-name="Background Simple" transform="translate(0 0)">
          <g id="Grupo_70475" data-name="Grupo 70475">
            <path id="Trazado_141544" data-name="Trazado 141544" d="M148.117,50.863c75.118-6.69,75.245,35.691,109.091,75.175s41.089,57.385,28.33,102.9-55.756,81.195-108.946,60.978-83.66-.8-117.21-18.754-46.008-52.636-21.45-93.513S55.493,59.112,148.117,50.863Z" transform="translate(-25.059 -50.162)" fill="#d9a171"/>
          </g>
        </g>
        <g id="Doodles" transform="translate(1.676 2.844)">
          <g id="Grupo_70481" data-name="Grupo 70481" transform="translate(0 0)">
            <g id="Grupo_70476" data-name="Grupo 70476" transform="translate(123.063)">
              <rect id="Rectángulo_31985" data-name="Rectángulo 31985" width="18.794" height="18.794" rx="5.09" transform="translate(0 3.873) rotate(-11.893)" fill="none" stroke="#263238" stroke-linecap="round" stroke-linejoin="round" stroke-width="1"/>
              <line id="Línea_425" data-name="Línea 425" x2="1.579" y2="7.499" transform="translate(10.342 7.382)" fill="none" stroke="#263238" stroke-linecap="round" stroke-linejoin="round" stroke-width="1"/>
              <line id="Línea_426" data-name="Línea 426" x1="7.499" y2="1.579" transform="translate(7.382 10.342)" fill="none" stroke="#263238" stroke-linecap="round" stroke-linejoin="round" stroke-width="1"/>
            </g>
            <g id="Grupo_70477" data-name="Grupo 70477" transform="translate(247.622 132.105)">
              <rect id="Rectángulo_31986" data-name="Rectángulo 31986" width="18.794" height="18.794" rx="5.09" transform="translate(0 3.873) rotate(-11.893)" fill="none" stroke="#263238" stroke-linecap="round" stroke-linejoin="round" stroke-width="1"/>
              <line id="Línea_427" data-name="Línea 427" x1="4.186" y2="6.419" transform="translate(9.039 7.922)" fill="none" stroke="#263238" stroke-linecap="round" stroke-linejoin="round" stroke-width="1"/>
              <line id="Línea_428" data-name="Línea 428" x1="6.419" y1="4.186" transform="translate(7.922 9.039)" fill="none" stroke="#263238" stroke-linecap="round" stroke-linejoin="round" stroke-width="1"/>
            </g>
            <g id="Grupo_70478" data-name="Grupo 70478" transform="translate(79.789 211.604)">
              <rect id="Rectángulo_31987" data-name="Rectángulo 31987" width="18.794" height="18.794" rx="5.09" transform="translate(1.083 0) rotate(3.304)" fill="none" stroke="#263238" stroke-linecap="round" stroke-linejoin="round" stroke-width="1"/>
              <line id="Línea_429" data-name="Línea 429" x1="7.651" y1="0.442" transform="translate(6.097 9.702)" fill="none" stroke="#263238" stroke-linecap="round" stroke-linejoin="round" stroke-width="1"/>
            </g>
            <g id="Grupo_70480" data-name="Grupo 70480" transform="translate(0 120.353)">
              <rect id="Rectángulo_31988" data-name="Rectángulo 31988" width="18.794" height="18.794" rx="5.09" transform="translate(5.91 0) rotate(18.329)" fill="none" stroke="#263238" stroke-linecap="round" stroke-linejoin="round" stroke-width="1"/>
              <line id="Línea_430" data-name="Línea 430" x1="9.588" y2="4.816" transform="translate(7.081 9.467)" fill="none" stroke="#263238" stroke-linecap="round" stroke-linejoin="round" stroke-width="1"/>
              <g id="Grupo_70479" data-name="Grupo 70479" transform="translate(8.634 6.749)">
                <path id="Trazado_141546" data-name="Trazado 141546" d="M44.617,265.467a1.338,1.338,0,1,1-1.8-.595A1.338,1.338,0,0,1,44.617,265.467Z" transform="translate(-42.084 -264.729)" fill="none" stroke="#263238" stroke-linecap="round" stroke-linejoin="round" stroke-width="1"/>
                <path id="Trazado_141547" data-name="Trazado 141547" d="M50.9,277.978a1.338,1.338,0,1,1-1.8-.6A1.337,1.337,0,0,1,50.9,277.978Z" transform="translate(-44.563 -269.663)" fill="none" stroke="#263238" stroke-linecap="round" stroke-linejoin="round" stroke-width="1"/>
              </g>
            </g>
          </g>
        </g>
        <g id="Coins" transform="translate(104.624 184.556)">
          <g id="Grupo_70484" data-name="Grupo 70484" transform="translate(15.931 10.287)">
            <path id="Trazado_141548" data-name="Trazado 141548" d="M244.457,389.391a11.154,11.154,0,1,1-2.828-15.522A11.159,11.159,0,0,1,244.457,389.391Z" transform="translate(-224.121 -371.887)" fill="#a77d59"/>
            <g id="Grupo_70483" data-name="Grupo 70483" clip-path="url(#clip-path)">
              <path id="Trazado_141549" data-name="Trazado 141549" d="M244.156,389.535a9.388,9.388,0,1,1-2.382-13.061A9.388,9.388,0,0,1,244.156,389.535Z" transform="translate(-225.275 -373.039)" fill="rgba(0,0,0,0.7)" opacity="0.3"/>
              <path id="Trazado_141550" data-name="Trazado 141550" d="M244.156,389.535a9.388,9.388,0,1,1-2.382-13.061A9.388,9.388,0,0,1,244.156,389.535Z" transform="translate(-225.275 -373.039)" fill="none" stroke="#263238" stroke-linecap="round" stroke-linejoin="round" stroke-width="1"/>
              <g id="Grupo_70482" data-name="Grupo 70482" transform="translate(6.989 5.821)">
                <path id="Trazado_141551" data-name="Trazado 141551" d="M242.238,382.15l.451-.652,1.127.779-.451.652c.839.876.821,1.974,0,3.164l-.191.276-1.3-.9.251-.363c.434-.627.348-1.037-.091-1.341s-.854-.239-1.287.388-.485,1.238-.07,2.617c.5,1.682.416,2.639-.277,3.641a2.337,2.337,0,0,1-2.98,1.123l-.441.64-1.127-.779.441-.639c-.851-.884-.824-1.995,0-3.184l.415-.6,1.3.9-.476.689c-.433.627-.314,1.042.125,1.345s.87.268,1.3-.358.494-1.25.07-2.617c-.512-1.668-.415-2.638.277-3.64C240.119,382.109,241.127,381.7,242.238,382.15Z" transform="translate(-235.661 -381.498)" fill="#a77d59" stroke="#263238" stroke-linecap="round" stroke-linejoin="round" stroke-width="1"/>
              </g>
              <path id="Trazado_141552" data-name="Trazado 141552" d="M232.169,374.311a15.03,15.03,0,0,1-7.352,12.93,11.15,11.15,0,0,1,7.261-14.571A14.658,14.658,0,0,1,232.169,374.311Z" transform="translate(-224.121 -372.196)" fill="rgba(0,0,0,0.7)" opacity="0.2"/>
            </g>
            <path id="Trazado_141554" data-name="Trazado 141554" d="M244.457,389.391a11.154,11.154,0,1,1-2.828-15.522A11.159,11.159,0,0,1,244.457,389.391Z" transform="translate(-224.121 -371.887)" fill="none" stroke="#263238" stroke-linecap="round" stroke-linejoin="round" stroke-width="1"/>
          </g>
          <g id="Grupo_70486" data-name="Grupo 70486" transform="translate(0 0.897)">
            <circle id="Elipse_4811" data-name="Elipse 4811" cx="11.159" cy="11.159" r="11.159" fill="#a77d59" stroke="#263238" stroke-linecap="round" stroke-linejoin="round" stroke-width="1"/>
            <circle id="Elipse_4812" data-name="Elipse 4812" cx="9.388" cy="9.388" r="9.388" transform="translate(1.771 1.771)" fill="rgba(0,0,0,0.7)" opacity="0.3"/>
            <circle id="Elipse_4813" data-name="Elipse 4813" cx="9.388" cy="9.388" r="9.388" transform="translate(1.771 1.771)" fill="none" stroke="#263238" stroke-linecap="round" stroke-linejoin="round" stroke-width="1"/>
            <g id="Grupo_70485" data-name="Grupo 70485" transform="translate(8.661 5.144)">
              <path id="Trazado_141555" data-name="Trazado 141555" d="M213.928,365.669v-.793H215.3v.793c1.188.243,1.8,1.157,1.8,2.6v.336h-1.584v-.441c0-.762-.3-1.051-.838-1.051s-.838.289-.838,1.051.305,1.294,1.432,2.192c1.37,1.1,1.843,1.934,1.843,3.152a2.338,2.338,0,0,1-1.813,2.619v.777h-1.371v-.777c-1.2-.243-1.811-1.172-1.811-2.619v-.731H213.7v.837c0,.762.335,1.036.868,1.036s.868-.274.868-1.036-.3-1.309-1.432-2.192c-1.37-1.081-1.842-1.934-1.842-3.152C212.162,366.841,212.757,365.927,213.928,365.669Z" transform="translate(-212.117 -364.876)" fill="#a77d59" stroke="#263238" stroke-linecap="round" stroke-linejoin="round" stroke-width="1"/>
            </g>
          </g>
          <g id="Grupo_70488" data-name="Grupo 70488" transform="translate(48.986 0)">
            <circle id="Elipse_4814" data-name="Elipse 4814" cx="11.159" cy="11.159" r="11.159" transform="translate(0 18.79) rotate(-57.348)" fill="#a77d59" stroke="#263238" stroke-linecap="round" stroke-linejoin="round" stroke-width="1"/>
            <path id="Trazado_141556" data-name="Trazado 141556" d="M304.92,367.854a9.388,9.388,0,1,1-13.267-.49A9.388,9.388,0,0,1,304.92,367.854Z" transform="translate(-282.626 -358.827)" fill="rgba(0,0,0,0.7)" opacity="0.3"/>
            <path id="Trazado_141557" data-name="Trazado 141557" d="M304.92,367.854a9.388,9.388,0,1,1-13.267-.49A9.388,9.388,0,0,1,304.92,367.854Z" transform="translate(-282.626 -358.827)" fill="none" stroke="#263238" stroke-linecap="round" stroke-linejoin="round" stroke-width="1"/>
            <g id="Grupo_70487" data-name="Grupo 70487" transform="translate(10.82 10.542)">
              <path id="Trazado_141558" data-name="Trazado 141558" d="M297.106,373.822l-.54-.58,1-.933.54.58c1.036-.63,2.1-.375,3.088.685l.228.246-1.16,1.077-.3-.323c-.518-.558-.938-.563-1.329-.2s-.417.782.1,1.34,1.1.741,2.541.633c1.751-.13,2.667.162,3.5,1.056a2.337,2.337,0,0,1,.454,3.152l.529.569-1,.933-.529-.569c-1.047.64-2.125.374-3.11-.686l-.5-.536,1.16-1.078.57.613c.518.558.95.531,1.34.168s.449-.791-.069-1.349-1.114-.752-2.541-.632c-1.74.141-2.666-.163-3.5-1.056C296.609,375.883,296.422,374.809,297.106,373.822Z" transform="translate(-296.566 -372.309)" fill="#a77d59" stroke="#263238" stroke-linecap="round" stroke-linejoin="round" stroke-width="1"/>
            </g>
          </g>
        </g>
        <g id="Right_hand" data-name="Right hand" transform="translate(138.996 17.102)">
          <g id="Grupo_70554" data-name="Grupo 70554" transform="translate(0 0)">
            <path id="Trazado_141559" data-name="Trazado 141559" d="M294.076,300.254s-.046,23.156,0,24.509,1.8,9.484,1.8,9.484l-5.623,10.365,4.841,3.9,9.418-9.257s8.02,4.954,9.485,12.038,10.191,12.245,19.245,31.866,19.382-43.9,19.382-43.9l-27.935-35.171Z" transform="translate(-268.642 -165.895)" fill="rgba(0,0,0,0.7)" opacity="0.2"/>
            <g id="Grupo_70542" data-name="Grupo 70542">
              <path id="Trazado_141560" data-name="Trazado 141560" d="M365.41,88.338l-8.557,83.5-5.263,51.369-73.546-7.534-14.311-1.466-9.163-.939L262.691,134l5.7-55.6Z" transform="translate(-254.57 -78.4)" fill="#fff"/>
              <g id="Grupo_70541" data-name="Grupo 70541" clip-path="url(#clip-path-2)">
                <path id="Trazado_141561" data-name="Trazado 141561" d="M362.764,97.158l-41.88-4.292a1.431,1.431,0,0,0-.292,2.847L362.472,100a1.431,1.431,0,1,0,.292-2.846Z" transform="translate(-280.101 -84.102)" fill="#263238"/>
                <path id="Trazado_141562" data-name="Trazado 141562" d="M358.635,106.446l-20.94-2.146a.716.716,0,0,0-.146,1.424l20.94,2.146a.715.715,0,1,0,.146-1.423Z" transform="translate(-287.042 -88.613)" fill="#263238"/>
                <g id="Grupo_70489" data-name="Grupo 70489" transform="translate(13.756 72.493)">
                  <path id="Trazado_141563" data-name="Trazado 141563" d="M366.05,205.07,298.077,198.1a.715.715,0,0,0-.145,1.423l67.973,6.965a.715.715,0,0,0,.146-1.423Z" transform="translate(-285.173 -198.101)" fill="#263238"/>
                  <path id="Trazado_141564" data-name="Trazado 141564" d="M357.977,212.782l-79.039-8.1a.715.715,0,1,0-.145,1.423l79.039,8.1a.716.716,0,0,0,.145-1.424Z" transform="translate(-277.625 -200.695)" fill="#263238"/>
                  <path id="Trazado_141565" data-name="Trazado 141565" d="M334.978,218.966l-56.906-5.831a.715.715,0,0,0-.145,1.423l56.906,5.832a.715.715,0,0,0,.145-1.423Z" transform="translate(-277.284 -204.028)" fill="#263238"/>
                </g>
                <rect id="Rectángulo_31989" data-name="Rectángulo 31989" width="22.689" height="80.097" transform="translate(11.342 109.692) rotate(-84.149)" fill="#bfbfbf" stroke="#263238" stroke-miterlimit="10" stroke-width="1"/>
                <g id="Grupo_70515" data-name="Grupo 70515" transform="translate(13.853 22.406)">
                  <g id="Grupo_70493" data-name="Grupo 70493" transform="translate(0 0)">
                    <g id="Grupo_70491" data-name="Grupo 70491">
                      <circle id="Elipse_4815" data-name="Elipse 4815" cx="17.741" cy="17.741" r="17.741" transform="matrix(0.768, -0.64, 0.64, 0.768, 0, 22.711)" fill="#a77d59"/>
                      <g id="Grupo_70490" data-name="Grupo 70490" clip-path="url(#clip-path-3)">
                        <circle id="Elipse_4816" data-name="Elipse 4816" cx="17.741" cy="17.741" r="17.741" transform="matrix(0.768, -0.64, 0.64, 0.768, 0, 22.711)" fill="#fff" opacity="0.5"/>
                      </g>
                      <circle id="Elipse_4818" data-name="Elipse 4818" cx="17.741" cy="17.741" r="17.741" transform="matrix(0.768, -0.64, 0.64, 0.768, 0, 22.711)" fill="none" stroke="#263238" stroke-miterlimit="10" stroke-width="1"/>
                    </g>
                    <g id="Grupo_70492" data-name="Grupo 70492" transform="translate(8.042 8.043)">
                      <path id="Trazado_141566" data-name="Trazado 141566" d="M319.543,149.77l14.753,7.422a16.951,16.951,0,0,0-1.951-17.845Z" transform="translate(-302.09 -132.886)" fill="#fff"/>
                      <path id="Trazado_141567" data-name="Trazado 141567" d="M319.7,145.492l12.353-10.056a16.917,16.917,0,0,0-6.9-4.915l-2.228,6.117Z" transform="translate(-302.154 -129.404)" fill="#a77d59"/>
                      <path id="Trazado_141568" data-name="Trazado 141568" d="M321.035,128.876l-1.5,14.62,5.031-13.813A16.948,16.948,0,0,0,321.035,128.876Z" transform="translate(-302.088 -128.756)" fill="#757575"/>
                      <path id="Trazado_141569" data-name="Trazado 141569" d="M307.408,145.43l1.71-16.69A16.938,16.938,0,0,0,292.13,152.37Z" transform="translate(-290.725 -128.677)" fill="#999"/>
                      <path id="Trazado_141570" data-name="Trazado 141570" d="M307,173.7a16.946,16.946,0,0,0,16.736-8.993l-15.014-7.554L293.42,164.11A16.934,16.934,0,0,0,307,173.7Z" transform="translate(-291.788 -139.91)" fill="#bfbfbf"/>
                    </g>
                  </g>
                  <g id="Grupo_70514" data-name="Grupo 70514" transform="translate(48.215 13.22)">
                    <g id="Grupo_70497" data-name="Grupo 70497" transform="translate(2.55)">
                      <rect id="Rectángulo_31990" data-name="Rectángulo 31990" width="2.792" height="2.792" rx="0.626" transform="translate(0.285 0) rotate(5.851)" fill="#a77d59" stroke="#263238" stroke-miterlimit="10" stroke-width="1"/>
                      <g id="Grupo_70496" data-name="Grupo 70496" transform="translate(4.296 0.839)">
                        <g id="Grupo_70494" data-name="Grupo 70494" transform="translate(0.142)">
                          <path id="Trazado_141571" data-name="Trazado 141571" d="M394.96,141.924l-26.075-2.672a.321.321,0,0,1,.065-.638l26.075,2.672a.321.321,0,1,1-.065.638Z" transform="translate(-368.597 -138.612)" fill="#263238"/>
                        </g>
                        <g id="Grupo_70495" data-name="Grupo 70495" transform="translate(0 1.389)">
                          <path id="Trazado_141572" data-name="Trazado 141572" d="M392.172,143.957l-23.522-2.41a.321.321,0,1,1,.065-.638l23.522,2.41a.321.321,0,1,1-.065.638Z" transform="translate(-368.362 -140.906)" fill="#263238"/>
                        </g>
                      </g>
                    </g>
                    <g id="Grupo_70501" data-name="Grupo 70501" transform="translate(1.913 6.221)">
                      <rect id="Rectángulo_31991" data-name="Rectángulo 31991" width="2.792" height="2.792" rx="0.626" transform="matrix(0.995, 0.102, -0.102, 0.995, 0.285, 0)" fill="#757575" stroke="#263238" stroke-linecap="round" stroke-linejoin="round" stroke-width="1"/>
                      <g id="Grupo_70500" data-name="Grupo 70500" transform="translate(4.296 0.839)">
                        <g id="Grupo_70498" data-name="Grupo 70498" transform="translate(0.142)">
                          <path id="Trazado_141573" data-name="Trazado 141573" d="M393.908,152.2l-26.075-2.672a.321.321,0,1,1,.065-.638l26.075,2.672a.321.321,0,1,1-.065.638Z" transform="translate(-367.544 -148.885)" fill="#263238"/>
                        </g>
                        <g id="Grupo_70499" data-name="Grupo 70499" transform="translate(0 1.389)">
                          <path id="Trazado_141574" data-name="Trazado 141574" d="M391.119,154.229l-23.522-2.41a.321.321,0,1,1,.066-.638l23.521,2.41a.321.321,0,1,1-.065.638Z" transform="translate(-367.309 -151.178)" fill="#263238"/>
                        </g>
                      </g>
                    </g>
                    <g id="Grupo_70505" data-name="Grupo 70505" transform="translate(1.275 12.443)">
                      <rect id="Rectángulo_31992" data-name="Rectángulo 31992" width="2.792" height="2.792" rx="0.626" transform="matrix(0.995, 0.102, -0.102, 0.995, 0.285, 0)" fill="#999" stroke="#263238" stroke-linecap="round" stroke-linejoin="round" stroke-width="1"/>
                      <g id="Grupo_70504" data-name="Grupo 70504" transform="translate(4.296 0.84)">
                        <g id="Grupo_70502" data-name="Grupo 70502" transform="translate(0.142)">
                          <path id="Trazado_141575" data-name="Trazado 141575" d="M392.855,162.47,366.78,159.8a.321.321,0,0,1,.065-.638l26.075,2.672a.321.321,0,0,1-.065.638Z" transform="translate(-366.492 -159.158)" fill="#263238"/>
                        </g>
                        <g id="Grupo_70503" data-name="Grupo 70503" transform="translate(0 1.389)">
                          <path id="Trazado_141576" data-name="Trazado 141576" d="M390.067,164.5l-23.522-2.41a.321.321,0,0,1,.065-.638l23.522,2.41a.321.321,0,1,1-.065.638Z" transform="translate(-366.257 -161.451)" fill="#263238"/>
                        </g>
                      </g>
                    </g>
                    <g id="Grupo_70509" data-name="Grupo 70509" transform="translate(0.638 18.664)">
                      <rect id="Rectángulo_31993" data-name="Rectángulo 31993" width="2.792" height="2.792" rx="0.626" transform="matrix(0.995, 0.102, -0.102, 0.995, 0.285, 0)" fill="#bfbfbf" stroke="#263238" stroke-miterlimit="10" stroke-width="1"/>
                      <g id="Grupo_70508" data-name="Grupo 70508" transform="translate(4.296 0.84)">
                        <g id="Grupo_70506" data-name="Grupo 70506" transform="translate(0.142)">
                          <path id="Trazado_141577" data-name="Trazado 141577" d="M391.8,172.743l-26.075-2.672a.321.321,0,1,1,.065-.638l26.075,2.672a.321.321,0,0,1-.065.638Z" transform="translate(-365.439 -169.431)" fill="#263238"/>
                        </g>
                        <g id="Grupo_70507" data-name="Grupo 70507" transform="translate(0 1.389)">
                          <path id="Trazado_141578" data-name="Trazado 141578" d="M389.014,174.775l-23.522-2.41a.321.321,0,0,1,.065-.638l23.522,2.41a.321.321,0,0,1-.065.638Z" transform="translate(-365.204 -171.724)" fill="#263238"/>
                        </g>
                      </g>
                    </g>
                    <g id="Grupo_70513" data-name="Grupo 70513" transform="translate(0 24.885)">
                      <rect id="Rectángulo_31994" data-name="Rectángulo 31994" width="2.792" height="2.792" rx="0.626" transform="translate(0.285 0) rotate(5.85)" fill="#fff" stroke="#263238" stroke-linecap="round" stroke-linejoin="round" stroke-width="1"/>
                      <g id="Grupo_70512" data-name="Grupo 70512" transform="translate(4.296 0.839)">
                        <g id="Grupo_70510" data-name="Grupo 70510" transform="translate(0.142)">
                          <path id="Trazado_141579" data-name="Trazado 141579" d="M390.749,183.015l-26.075-2.672a.321.321,0,1,1,.065-.638l26.075,2.672a.321.321,0,1,1-.065.638Z" transform="translate(-364.386 -179.703)" fill="#263238"/>
                        </g>
                        <g id="Grupo_70511" data-name="Grupo 70511" transform="translate(0 1.389)">
                          <path id="Trazado_141580" data-name="Trazado 141580" d="M387.961,185.048l-23.522-2.41A.321.321,0,1,1,364.5,182l23.522,2.41a.321.321,0,0,1-.065.638Z" transform="translate(-364.151 -181.997)" fill="#263238"/>
                        </g>
                      </g>
                    </g>
                  </g>
                </g>
                <g id="Grupo_70539" data-name="Grupo 70539" transform="translate(14.356 93.345)">
                  <g id="Grupo_70516" data-name="Grupo 70516" transform="translate(66.917 8.377)">
                    <rect id="Rectángulo_31995" data-name="Rectángulo 31995" width="1.497" height="8.556" transform="translate(1.489 8.664) rotate(-174.148)" fill="#757575" stroke="#263238" stroke-linecap="round" stroke-linejoin="round" stroke-width="1"/>
                    <rect id="Rectángulo_31996" data-name="Rectángulo 31996" width="1.497" height="4.028" transform="translate(1.62 7.382) rotate(-174.15)" fill="#a77d59" stroke="#263238" stroke-miterlimit="10" stroke-width="1"/>
                  </g>
                  <g id="Grupo_70517" data-name="Grupo 70517" transform="translate(70.489 6.572)">
                    <rect id="Rectángulo_31997" data-name="Rectángulo 31997" width="1.497" height="8.556" transform="translate(1.489 8.664) rotate(-174.15)" fill="#757575" stroke="#263238" stroke-linecap="round" stroke-linejoin="round" stroke-width="1"/>
                    <rect id="Rectángulo_31998" data-name="Rectángulo 31998" width="4.028" height="1.497" transform="translate(0.23 6.268) rotate(-84.148)" fill="#a77d59" stroke="#263238" stroke-miterlimit="10" stroke-width="1"/>
                  </g>
                  <g id="Grupo_70518" data-name="Grupo 70518" transform="translate(73.673 8.549)">
                    <rect id="Rectángulo_31999" data-name="Rectángulo 31999" width="1.497" height="8.556" transform="translate(1.489 8.664) rotate(-174.15)" fill="#757575" stroke="#263238" stroke-linecap="round" stroke-linejoin="round" stroke-width="1"/>
                    <rect id="Rectángulo_32000" data-name="Rectángulo 32000" width="1.497" height="4.028" transform="translate(1.817 5.459) rotate(-174.148)" fill="#a77d59" stroke="#263238" stroke-miterlimit="10" stroke-width="1"/>
                  </g>
                  <g id="Grupo_70519" data-name="Grupo 70519" transform="translate(63.738 6.352)">
                    <rect id="Rectángulo_32001" data-name="Rectángulo 32001" width="1.497" height="8.556" transform="translate(1.489 8.664) rotate(-174.148)" fill="#757575" stroke="#263238" stroke-linecap="round" stroke-linejoin="round" stroke-width="1"/>
                    <rect id="Rectángulo_32002" data-name="Rectángulo 32002" width="1.497" height="4.028" transform="translate(1.621 7.382) rotate(-174.15)" fill="#a77d59" stroke="#263238" stroke-miterlimit="10" stroke-width="1"/>
                  </g>
                  <g id="Grupo_70520" data-name="Grupo 70520" transform="translate(60.128 8.527)">
                    <rect id="Rectángulo_32003" data-name="Rectángulo 32003" width="1.497" height="8.556" transform="translate(1.489 8.664) rotate(-174.15)" fill="#757575" stroke="#263238" stroke-linecap="round" stroke-linejoin="round" stroke-width="1"/>
                    <rect id="Rectángulo_32004" data-name="Rectángulo 32004" width="1.497" height="4.028" transform="translate(1.587 7.703) rotate(-174.148)" fill="#a77d59" stroke="#263238" stroke-miterlimit="10" stroke-width="1"/>
                  </g>
                  <g id="Grupo_70521" data-name="Grupo 70521" transform="translate(57.002 5.986)">
                    <rect id="Rectángulo_32005" data-name="Rectángulo 32005" width="1.497" height="8.556" transform="translate(1.489 8.664) rotate(-174.15)" fill="#757575" stroke="#263238" stroke-linecap="round" stroke-linejoin="round" stroke-width="1"/>
                    <rect id="Rectángulo_32006" data-name="Rectángulo 32006" width="1.497" height="4.028" transform="translate(1.522 8.344) rotate(-174.148)" fill="#a77d59" stroke="#263238" stroke-miterlimit="10" stroke-width="1"/>
                  </g>
                  <g id="Grupo_70522" data-name="Grupo 70522" transform="translate(53.194 10.092)">
                    <rect id="Rectángulo_32007" data-name="Rectángulo 32007" width="1.497" height="8.556" transform="translate(1.489 8.664) rotate(-174.148)" fill="#757575" stroke="#263238" stroke-linecap="round" stroke-linejoin="round" stroke-width="1"/>
                    <rect id="Rectángulo_32008" data-name="Rectángulo 32008" width="1.497" height="4.028" transform="translate(1.522 8.344) rotate(-174.148)" fill="#a77d59" stroke="#263238" stroke-miterlimit="10" stroke-width="1"/>
                  </g>
                  <g id="Grupo_70523" data-name="Grupo 70523" transform="translate(50.392 4.389)">
                    <rect id="Rectángulo_32009" data-name="Rectángulo 32009" width="1.497" height="8.556" transform="translate(1.489 8.664) rotate(-174.15)" fill="#757575" stroke="#263238" stroke-linecap="round" stroke-linejoin="round" stroke-width="1"/>
                    <rect id="Rectángulo_32010" data-name="Rectángulo 32010" width="1.497" height="4.028" transform="translate(1.62 7.382) rotate(-174.15)" fill="#a77d59" stroke="#263238" stroke-miterlimit="10" stroke-width="1"/>
                  </g>
                  <g id="Grupo_70524" data-name="Grupo 70524" transform="translate(47.091 3.549)">
                    <rect id="Rectángulo_32011" data-name="Rectángulo 32011" width="1.497" height="8.556" transform="translate(1.489 8.664) rotate(-174.148)" fill="#757575" stroke="#263238" stroke-linecap="round" stroke-linejoin="round" stroke-width="1"/>
                    <rect id="Rectángulo_32012" data-name="Rectángulo 32012" width="1.497" height="4.028" transform="translate(1.818 5.459) rotate(-174.15)" fill="#a77d59" stroke="#263238" stroke-miterlimit="10" stroke-width="1"/>
                  </g>
                  <g id="Grupo_70525" data-name="Grupo 70525" transform="translate(43.192 8.547)">
                    <rect id="Rectángulo_32013" data-name="Rectángulo 32013" width="1.497" height="8.556" transform="translate(1.489 8.664) rotate(-174.15)" fill="#757575" stroke="#263238" stroke-linecap="round" stroke-linejoin="round" stroke-width="1"/>
                    <rect id="Rectángulo_32014" data-name="Rectángulo 32014" width="1.497" height="4.028" transform="translate(1.85 5.138) rotate(-174.15)" fill="#a77d59" stroke="#263238" stroke-miterlimit="10" stroke-width="1"/>
                  </g>
                  <g id="Grupo_70526" data-name="Grupo 70526" transform="translate(40.224 4.463)">
                    <rect id="Rectángulo_32015" data-name="Rectángulo 32015" width="1.497" height="8.556" transform="translate(1.489 8.664) rotate(-174.15)" fill="#757575" stroke="#263238" stroke-linecap="round" stroke-linejoin="round" stroke-width="1"/>
                    <rect id="Rectángulo_32016" data-name="Rectángulo 32016" width="1.497" height="4.028" transform="translate(1.653 7.062) rotate(-174.15)" fill="#a77d59" stroke="#263238" stroke-miterlimit="10" stroke-width="1"/>
                  </g>
                  <g id="Grupo_70527" data-name="Grupo 70527" transform="translate(36.645 6.34)">
                    <rect id="Rectángulo_32017" data-name="Rectángulo 32017" width="1.497" height="8.556" transform="translate(1.489 8.664) rotate(-174.148)" fill="#757575" stroke="#263238" stroke-linecap="round" stroke-linejoin="round" stroke-width="1"/>
                    <rect id="Rectángulo_32018" data-name="Rectángulo 32018" width="1.497" height="4.028" transform="matrix(-0.995, -0.102, 0.102, -0.995, 1.621, 7.382)" fill="#a77d59" stroke="#263238" stroke-miterlimit="10" stroke-width="1"/>
                  </g>
                  <g id="Grupo_70528" data-name="Grupo 70528" transform="translate(32.902 9.818)">
                    <rect id="Rectángulo_32019" data-name="Rectángulo 32019" width="1.497" height="8.556" transform="translate(1.489 8.664) rotate(-174.148)" fill="#757575" stroke="#263238" stroke-linecap="round" stroke-linejoin="round" stroke-width="1"/>
                    <rect id="Rectángulo_32020" data-name="Rectángulo 32020" width="1.497" height="4.028" transform="translate(1.489 8.664) rotate(-174.15)" fill="#a77d59" stroke="#263238" stroke-miterlimit="10" stroke-width="1"/>
                  </g>
                  <g id="Grupo_70529" data-name="Grupo 70529" transform="translate(30.103 4.084)">
                    <rect id="Rectángulo_32021" data-name="Rectángulo 32021" width="1.497" height="8.556" transform="translate(1.489 8.664) rotate(-174.15)" fill="#757575" stroke="#263238" stroke-linecap="round" stroke-linejoin="round" stroke-width="1"/>
                    <rect id="Rectángulo_32022" data-name="Rectángulo 32022" width="1.497" height="4.028" transform="translate(1.587 7.703) rotate(-174.15)" fill="#a77d59" stroke="#263238" stroke-miterlimit="10" stroke-width="1"/>
                  </g>
                  <g id="Grupo_70530" data-name="Grupo 70530" transform="translate(27.134)">
                    <rect id="Rectángulo_32023" data-name="Rectángulo 32023" width="1.497" height="8.556" transform="matrix(-0.995, -0.102, 0.102, -0.995, 1.489, 8.664)" fill="#757575" stroke="#263238" stroke-linecap="round" stroke-linejoin="round" stroke-width="1"/>
                    <rect id="Rectángulo_32024" data-name="Rectángulo 32024" width="1.497" height="4.028" transform="translate(1.588 7.703) rotate(-174.15)" fill="#a77d59" stroke="#263238" stroke-miterlimit="10" stroke-width="1"/>
                  </g>
                  <g id="Grupo_70531" data-name="Grupo 70531" transform="translate(23.321 4.162)">
                    <rect id="Rectángulo_32025" data-name="Rectángulo 32025" width="1.497" height="8.556" transform="translate(1.489 8.664) rotate(-174.15)" fill="#757575" stroke="#263238" stroke-linecap="round" stroke-linejoin="round" stroke-width="1"/>
                    <rect id="Rectángulo_32026" data-name="Rectángulo 32026" width="1.497" height="4.028" transform="translate(1.817 5.459) rotate(-174.148)" fill="#a77d59" stroke="#263238" stroke-miterlimit="10" stroke-width="1"/>
                  </g>
                  <g id="Grupo_70532" data-name="Grupo 70532" transform="translate(19.477 8.63)">
                    <rect id="Rectángulo_32027" data-name="Rectángulo 32027" width="1.497" height="8.556" transform="translate(1.489 8.664) rotate(-174.15)" fill="#757575" stroke="#263238" stroke-linecap="round" stroke-linejoin="round" stroke-width="1"/>
                    <rect id="Rectángulo_32028" data-name="Rectángulo 32028" width="1.497" height="4.028" transform="translate(1.883 4.818) rotate(-174.15)" fill="#a77d59" stroke="#263238" stroke-miterlimit="10" stroke-width="1"/>
                  </g>
                  <g id="Grupo_70533" data-name="Grupo 70533" transform="translate(16.618 3.475)">
                    <rect id="Rectángulo_32029" data-name="Rectángulo 32029" width="1.497" height="8.556" transform="translate(1.489 8.664) rotate(-174.15)" fill="#757575" stroke="#263238" stroke-linecap="round" stroke-linejoin="round" stroke-width="1"/>
                    <rect id="Rectángulo_32030" data-name="Rectángulo 32030" width="1.497" height="4.028" transform="translate(1.62 7.382) rotate(-174.148)" fill="#a77d59" stroke="#263238" stroke-miterlimit="10" stroke-width="1"/>
                  </g>
                  <g id="Grupo_70534" data-name="Grupo 70534" transform="translate(13.412 1.715)">
                    <rect id="Rectángulo_32031" data-name="Rectángulo 32031" width="1.497" height="8.556" transform="translate(1.489 8.664) rotate(-174.148)" fill="#757575" stroke="#263238" stroke-linecap="round" stroke-linejoin="round" stroke-width="1"/>
                    <rect id="Rectángulo_32032" data-name="Rectángulo 32032" width="1.497" height="4.028" transform="translate(1.85 5.138) rotate(-174.15)" fill="#a77d59" stroke="#263238" stroke-miterlimit="10" stroke-width="1"/>
                  </g>
                  <g id="Grupo_70535" data-name="Grupo 70535" transform="translate(9.788 4.027)">
                    <rect id="Rectángulo_32033" data-name="Rectángulo 32033" width="1.497" height="8.556" transform="translate(1.489 8.664) rotate(-174.148)" fill="#757575" stroke="#263238" stroke-linecap="round" stroke-linejoin="round" stroke-width="1"/>
                    <rect id="Rectángulo_32034" data-name="Rectángulo 32034" width="1.497" height="4.028" transform="translate(1.489 8.664) rotate(-174.15)" fill="#a77d59" stroke="#263238" stroke-miterlimit="10" stroke-width="1"/>
                  </g>
                  <g id="Grupo_70536" data-name="Grupo 70536" transform="translate(6.709 1.028)">
                    <rect id="Rectángulo_32035" data-name="Rectángulo 32035" width="1.497" height="8.556" transform="translate(1.489 8.664) rotate(-174.15)" fill="#757575" stroke="#263238" stroke-linecap="round" stroke-linejoin="round" stroke-width="1"/>
                    <rect id="Rectángulo_32036" data-name="Rectángulo 32036" width="1.497" height="4.028" transform="translate(1.555 8.023) rotate(-174.148)" fill="#a77d59" stroke="#263238" stroke-miterlimit="10" stroke-width="1"/>
                  </g>
                  <g id="Grupo_70537" data-name="Grupo 70537" transform="translate(3.24 1.833)">
                    <rect id="Rectángulo_32037" data-name="Rectángulo 32037" width="1.497" height="8.556" transform="translate(1.489 8.664) rotate(-174.15)" fill="#757575" stroke="#263238" stroke-linecap="round" stroke-linejoin="round" stroke-width="1"/>
                    <rect id="Rectángulo_32038" data-name="Rectángulo 32038" width="1.497" height="4.028" transform="translate(1.522 8.344) rotate(-174.15)" fill="#a77d59" stroke="#263238" stroke-miterlimit="10" stroke-width="1"/>
                  </g>
                  <g id="Grupo_70538" data-name="Grupo 70538" transform="translate(0 0.396)">
                    <rect id="Rectángulo_32039" data-name="Rectángulo 32039" width="1.497" height="8.556" transform="translate(1.489 8.664) rotate(-174.15)" fill="#757575" stroke="#263238" stroke-linecap="round" stroke-linejoin="round" stroke-width="1"/>
                    <rect id="Rectángulo_32040" data-name="Rectángulo 32040" width="1.497" height="4.028" transform="translate(1.916 4.497) rotate(-174.15)" fill="#a77d59" stroke="#263238" stroke-miterlimit="10" stroke-width="1"/>
                  </g>
                </g>
                <g id="Grupo_70540" data-name="Grupo 70540" transform="translate(9.532 113.716)">
                  <path id="Trazado_141581" data-name="Trazado 141581" d="M359.075,273.137,291.1,266.172a.715.715,0,0,0-.145,1.423l67.973,6.966a.716.716,0,0,0,.146-1.424Z" transform="translate(-278.198 -266.168)" fill="#263238"/>
                  <path id="Trazado_141582" data-name="Trazado 141582" d="M351,280.85l-79.039-8.1a.715.715,0,1,0-.145,1.423l79.039,8.1A.715.715,0,0,0,351,280.85Z" transform="translate(-270.65 -268.762)" fill="#263238"/>
                  <path id="Trazado_141583" data-name="Trazado 141583" d="M316.937,285.9l-45.84-4.7a.716.716,0,0,0-.145,1.424l45.839,4.7a.716.716,0,0,0,.146-1.424Z" transform="translate(-270.309 -272.095)" fill="#263238"/>
                </g>
                <path id="Trazado_141584" data-name="Trazado 141584" d="M352.474,196.417c-2.344-.188-3.155,3.549-3.155,3.549s-3.706-4.857-3.119-16.279c0,0-1.811-5.063-6.662-2s-9.878,13.838-8.679,25.581l-9.429-31.3c-3.258.69-9.878,5.069-8.133,26.211l-10.289-10.877a3.877,3.877,0,0,0-4.36,1.569c-1.575,2.471-.824,20.119.478,26.72s-2.017,19.864-2.017,19.864-3.548-15.019-9.968-18.82L262.691,170.2l-8.121,79.275,9.163.939,14.715-7.163c-.082,3.313-.162,6.358-.4,8.628l73.546,7.534,5.263-51.368C355.066,201.644,353.358,196.484,352.474,196.417Z" transform="translate(-254.57 -114.604)" fill="rgba(0,0,0,0.7)" opacity="0.2"/>
              </g>
              <path id="Trazado_141586" data-name="Trazado 141586" d="M365.41,88.338l-8.557,83.5-5.263,51.369-73.546-7.534-14.311-1.466-9.163-.939L262.691,134l5.7-55.6Z" transform="translate(-254.57 -78.4)" fill="none" stroke="#263238" stroke-linecap="round" stroke-linejoin="round" stroke-width="1"/>
            </g>
            <g id="Grupo_70553" data-name="Grupo 70553" transform="translate(16.75 61.343)">
              <g id="Grupo_70546" data-name="Grupo 70546" transform="translate(6.476)">
                <g id="Grupo_70543" data-name="Grupo 70543" transform="translate(0.005)">
                  <path id="Trazado_141587" data-name="Trazado 141587" d="M379.327,343.255l-43,7.316s-7.485-39.759-11.949-46.021-3.646-8.842-5.814-13.063c-1.308-2.55-7.867-7.3-13.015-12h-.006c-.448-.406-.884-.812-1.3-1.217-.182-.164-.351-.339-.521-.5-.684-.678-1.32-1.338-1.883-1.986q-.309-.345-.581-.69a9.809,9.809,0,0,1-2.083-3.688.936.936,0,0,1-.036-.188,1.564,1.564,0,0,1-.036-.224c-.115-.939-.236-2.011-.357-3.173-.024-.23-.048-.472-.079-.715-.012-.1-.024-.188-.036-.291-.1-.969-.218-2-.351-3.058-.133-1.108-.279-2.259-.448-3.416-.055-.4-.109-.8-.176-1.205,0-.006,0-.012-.006-.012-.067-.448-.139-.9-.212-1.351l-.2-1.163c-.012-.067-.03-.127-.036-.182-.085-.454-.17-.9-.254-1.344a.609.609,0,0,1-.03-.151c-.085-.394-.164-.781-.254-1.175-.188-.878-.4-1.738-.63-2.574a31.926,31.926,0,0,0-1.6-4.6c-3.1-6.922.933-4.421-1.5-22.232,0,0,1.787-4.13,6.88-.83a13.636,13.636,0,0,1,1.139.83h.006a14.317,14.317,0,0,1,2.707,2.895A16.727,16.727,0,0,1,306,232.064a20.962,20.962,0,0,1,.69,8.66s3.828,13.118,5.844,16.1,10.356-14.165,9.817-16.164a27,27,0,0,1-.43-2.713c-.036-.3-.073-.612-.115-.945s-.079-.678-.115-1.036c-.024-.17-.042-.351-.067-.527-.006-.073-.012-.145-.024-.212-.073-.684-.157-1.411-.236-2.162-.018-.212-.042-.412-.067-.618-.036-.357-.073-.727-.109-1.09a1.538,1.538,0,0,1-.018-.182c-.024-.206-.048-.418-.067-.636-.048-.424-.091-.854-.133-1.284-.042-.369-.073-.739-.109-1.108-.073-.7-.139-1.393-.206-2.065-.048-.5-.1-1-.139-1.484-.012-.109-.024-.218-.03-.321-.254-2.665-.454-4.857-.527-5.79,0,0-6.062-8.975-6.686-13.2s-.569-8.678,1.968-10.489c6.008-4.276,4.251,2.616,6.94,5.469s6.813,7.528,9.151,8.987c2.156,1.369,4.082,6.686,4.354,7.461-.309-1.163-3.391-12.6-3.458-14.9-.079-2.429-1.932-15.237,1.217-19.834s7.334-1.03,7.722-.121.5,13.318,1.611,16.776,5.747,17.848,5.747,17.848.194-14,1.242-20.27,3.767-11.168,6.432-11.446,5.13,2.659,5.13,2.659-1.054,9.993-.751,12.3-.436,10.641.83,15.122c0,0-.145-11.937,1.708-13.463s3.446-2.259,4.488-1.229,1.266,8.1,2.326,12.349.927,10.029,1.623,16.661,3.44,15.837,2.895,21.1-2.223,18.314-3.573,25.975a163.006,163.006,0,0,1-4.8,18.156,37.639,37.639,0,0,1,1.266,10.6C367.033,309.995,379.327,343.255,379.327,343.255Z" transform="translate(-292.93 -179.69)" fill="#ffcfb4"/>
                </g>
                <g id="Grupo_70544" data-name="Grupo 70544" transform="translate(3.104 13.333)">
                  <path id="Trazado_141588" data-name="Trazado 141588" d="M368.207,208.845c.824,2.558,3.576,11.108,4.947,15.377,0,0-6.011,4.419-5.862,8.523s-1.1,12.393-3.8,12.155-2.455-17.476-3.336-20.372c.548,1.243.9,2.257.975,2.456-.2-.742-3.411-12.608-3.479-14.959-.016-.553-.127-1.652-.251-3.075l0-.028s5.974-5.719,10.362-2.217v.005A14.707,14.707,0,0,0,368.207,208.845Z" transform="translate(-321.455 -203.23)" fill="#e2b88e" opacity="0.4"/>
                  <path id="Trazado_141589" data-name="Trazado 141589" d="M396.843,212.25c-2.8,2.653-7.02,7.343-7.554,11.869,0,0,1.56,12.628.893,18.138l-5.455-17.086s.2-14,1.244-20.269c.027-.171.06-.348.093-.518a24.908,24.908,0,0,1,10.953-2.677,48.985,48.985,0,0,0-.239,6.706A36.578,36.578,0,0,1,396.843,212.25Z" transform="translate(-332.232 -201.706)" fill="#e2b88e" opacity="0.4"/>
                  <path id="Trazado_141590" data-name="Trazado 141590" d="M408.5,215.267l-.005.005-.018.016c-.064.046-.228.175-.469.378a8,8,0,0,1,.478-.79Z" transform="translate(-341.412 -206.9)" fill="#e2b88e" opacity="0.4"/>
                  <path id="Trazado_141591" data-name="Trazado 141591" d="M408.785,249.526s-3.6-13.495-3.66-24.36c-.026-4.019.438-7.686,1.738-10.164l.006,0a7.987,7.987,0,0,1,.478-.79l.015.391a9.913,9.913,0,0,1,2.143-1.418c-1.01,1.576-2.175,4.659-.827,9.668C410.787,230.7,408.951,240.28,408.785,249.526Z" transform="translate(-340.276 -206.231)" fill="#e2b88e" opacity="0.4"/>
                  <path id="Trazado_141592" data-name="Trazado 141592" d="M316.936,291.066s.967,12.86-9.369,17.464h-.006c-.448-.406-.881-.812-1.3-1.217-.179-.167-.352-.339-.521-.506-.683-.677-1.322-1.341-1.884-1.988-.208-.236-.4-.465-.582-.687a9.814,9.814,0,0,1-2.081-3.689,1.221,1.221,0,0,1-.039-.187,1.88,1.88,0,0,1-.036-.225c-.115-.938-.233-2.009-.357-3.176-.025-.23-.049-.471-.079-.712-.011-.1-.022-.191-.032-.292-.108-.971-.223-2-.353-3.059-.133-1.106-.279-2.257-.448-3.416-.059-.4-.117-.8-.177-1.2,0-.005,0-.011,0-.012-.067-.449-.14-.9-.213-1.351-.065-.388-.136-.777-.2-1.166-.013-.062-.025-.124-.033-.18-.084-.451-.168-.9-.257-1.342a1.345,1.345,0,0,1-.03-.152c-.082-.395-.164-.785-.251-1.174q-.3-1.315-.633-2.574c4.089-3.934,13.526-1.466,8.958-10.58,0,0,2.3-7.8-4.041-16.258h.005c4.339,3.5,6.558,9.642,5.738,16.38,0,0,3.826,13.113,5.844,16.1s10.354-14.165,9.813-16.166c-.1-.4-.256-1.375-.425-2.712-.037-.3-.074-.612-.114-.944s-.081-.679-.121-1.038c-.023-.169-.04-.348-.062-.523-.007-.073-.013-.145-.026-.213-.074-.69-.153-1.414-.235-2.165-.021-.208-.042-.409-.068-.617-.034-.359-.073-.724-.111-1.088-.008-.056-.01-.117-.017-.179-.021-.208-.047-.421-.067-.64-.047-.426-.087-.852-.133-1.284-.039-.371-.071-.74-.11-1.111-.069-.695-.137-1.391-.2-2.063-.047-.5-.094-1-.143-1.48-.01-.112-.02-.219-.03-.325.168.8,3.239,15.412,4.992,18.819C329.29,275.641,321.654,294.1,316.936,291.066Z" transform="translate(-298.047 -222.061)" fill="#e2b88e" opacity="0.4"/>
                  <path id="Trazado_141593" data-name="Trazado 141593" d="M408.719,315.812a163.509,163.509,0,0,1-4.792,18.157,37.578,37.578,0,0,1,1.261,10.6c-.082,1.343.752,4.738,2,8.978-.361-.93-4.222-10.936-4.158-14.426.074-3.662-.967-4.674-3.009-9.173s-5.154-4.006-5.154-4.006-1.2,11.228-4.02,3.849-3.362-15.96,3.744-45.756c0,0,1.074,3.738.176,14.84s1.754,14.463,1.754,14.463a103.422,103.422,0,0,0,9.442-22.018s-.917,12.956-1.736,18.857,2.911-6.837,5.517-14.707c2.448-7.384,2.537-10.193,1.605-15.449.692,3.7,1.211,7.235.947,9.816C411.751,295.09,410.069,308.149,408.719,315.812Z" transform="translate(-333.877 -232.591)" fill="#e2b88e" opacity="0.4"/>
                  <path id="Trazado_141594" data-name="Trazado 141594" d="M341.4,380.356c2.1,3.333,7.227,7.734,10.283,19.915s1.136,25.511,1.136,25.511Z" transform="translate(-315.144 -272.162)" fill="#e2b88e" opacity="0.4"/>
                </g>
                <path id="Trazado_141595" data-name="Trazado 141595" d="M306,259.772s-10.726,5.432-11.573,14.517c-3.1-6.922.933-4.421-1.5-22.232,0,0,1.787-4.13,6.88-.83a13.636,13.636,0,0,1,1.139.83h.006a14.317,14.317,0,0,1,2.707,2.895Z" transform="translate(-292.925 -207.399)" fill="rgba(0,0,0,0.7)" opacity="0.2"/>
                <g id="Grupo_70545" data-name="Grupo 70545" transform="translate(0 0.002)">
                  <path id="Trazado_141596" data-name="Trazado 141596" d="M336.324,350.574s-7.481-39.76-11.947-46.023-3.646-8.842-5.812-13.062S299.833,276.994,299.1,271s-1.573-17.488-4.675-24.415.933-4.422-1.5-22.234c0,0,1.8-4.125,6.885-.827s7.77,9.9,6.88,17.209c0,0,3.826,13.11,5.847,16.1s10.349-14.167,9.81-16.168-2.138-19.058-2.388-22.168c0,0-6.063-8.979-6.685-13.206s-.57-8.679,1.966-10.484c6.009-4.278,4.248,2.614,6.939,5.472s6.814,7.521,9.149,8.986,4.386,7.55,4.386,7.55-3.418-12.561-3.49-14.991-1.931-15.237,1.217-19.83,7.338-1.031,7.724-.125.506,13.315,1.616,16.773,5.739,17.851,5.739,17.851.2-14,1.243-20.268,3.772-11.171,6.435-11.449,5.128,2.659,5.128,2.659-1.054,9.992-.755,12.3-.432,10.638.836,15.125c0,0-.15-11.939,1.708-13.466s3.445-2.257,4.485-1.228,1.267,8.1,2.329,12.351.928,10.03,1.623,16.66,3.437,15.838,2.895,21.095-2.226,18.316-3.579,25.982a164.216,164.216,0,0,1-4.787,18.156,37.562,37.562,0,0,1,1.26,10.6c-.307,5,11.982,38.255,11.982,38.255" transform="translate(-292.922 -179.693)" fill="none" stroke="#263238" stroke-linecap="round" stroke-linejoin="round" stroke-width="1"/>
                  <path id="Trazado_141597" data-name="Trazado 141597" d="M384.723,240.451c1.252,2.943,4.348,15.368,5.455,17.089a5.863,5.863,0,0,0,2.361,2.239" transform="translate(-329.127 -203.655)" fill="none" stroke="#263238" stroke-linecap="round" stroke-linejoin="round" stroke-width="1"/>
                  <path id="Trazado_141598" data-name="Trazado 141598" d="M405.988,237.752s-.266,2.546,1.109,10.664,2.045,11.576,2.816,13.387" transform="translate(-337.505 -202.591)" fill="none" stroke="#263238" stroke-linecap="round" stroke-linejoin="round" stroke-width="1"/>
                  <path id="Trazado_141599" data-name="Trazado 141599" d="M363.577,240.983c1.681,4.947,2.63,12.832,3.586,15.205s1.808,2.867,1.808,2.867" transform="translate(-320.787 -203.865)" fill="none" stroke="#263238" stroke-linecap="round" stroke-linejoin="round" stroke-width="1"/>
                  <path id="Trazado_141600" data-name="Trazado 141600" d="M368.07,260.585a7.486,7.486,0,0,1,2.323,2.935" transform="translate(-322.559 -211.596)" fill="none" stroke="#263238" stroke-linecap="round" stroke-linejoin="round" stroke-width="1"/>
                  <path id="Trazado_141601" data-name="Trazado 141601" d="M325.3,307.061s.921,6.56,5.031,6.04" transform="translate(-305.693 -229.925)" fill="none" stroke="#263238" stroke-linecap="round" stroke-linejoin="round" stroke-width="1"/>
                  <path id="Trazado_141602" data-name="Trazado 141602" d="M341.06,280.364s1.065,7.8-.681,11.106" transform="translate(-311.638 -219.396)" fill="none" stroke="#263238" stroke-linecap="round" stroke-linejoin="round" stroke-width="1"/>
                  <path id="Trazado_141603" data-name="Trazado 141603" d="M393.037,280.477s2.762,1.691.915,6.648-5.059,24.968-5.059,24.968" transform="translate(-330.771 -219.441)" fill="none" stroke="#263238" stroke-linecap="round" stroke-linejoin="round" stroke-width="1"/>
                  <path id="Trazado_141604" data-name="Trazado 141604" d="M411.988,289.121c1.158,4.48,1.261,4.6-.62,10.1s-4.913,18.989-4.913,18.989" transform="translate(-337.697 -222.85)" fill="none" stroke="#263238" stroke-linecap="round" stroke-linejoin="round" stroke-width="1"/>
                  <path id="Trazado_141605" data-name="Trazado 141605" d="M413.129,364.78s-1.806-3.646-.314-6.642" transform="translate(-339.973 -250.069)" fill="none" stroke="#263238" stroke-linecap="round" stroke-linejoin="round" stroke-width="1"/>
                  <path id="Trazado_141606" data-name="Trazado 141606" d="M344.86,385.859a49.876,49.876,0,0,1,6.552,13.592" transform="translate(-313.405 -261.001)" fill="none" stroke="#263238" stroke-linecap="round" stroke-linejoin="round" stroke-width="1"/>
                </g>
              </g>
              <g id="Grupo_70551" data-name="Grupo 70551" transform="translate(0 11.061)">
                <path id="Trazado_141607" data-name="Trazado 141607" d="M400.341,199.331l1.232-1.22.561-.158-.037.6L400.961,200Z" transform="translate(-328.81 -197.953)" fill="#757575" stroke="#263238" stroke-linecap="round" stroke-linejoin="round" stroke-width="1"/>
                <g id="Grupo_70548" data-name="Grupo 70548" transform="translate(10.482 0.974)">
                  <path id="Trazado_141608" data-name="Trazado 141608" d="M361.582,200.642l-2.007,4.558-54.022,72.028-6.017-3.835,8.169-10.248,48.522-60.864,4.28-2.719A1.52,1.52,0,0,1,361.582,200.642Z" transform="translate(-299.536 -199.562)" fill="#a77d59"/>
                  <g id="Grupo_70547" data-name="Grupo 70547" clip-path="url(#clip-path-4)">
                    <path id="Trazado_141609" data-name="Trazado 141609" d="M361.582,200.642l-2.007,4.558-54.022,72.028-6.017-3.835,8.169-10.248c3.752-.389,4.379,1.829,4.379,1.829l46.542-60.746a3.109,3.109,0,0,0-2.4-1.947l4.28-2.719A1.52,1.52,0,0,1,361.582,200.642Z" transform="translate(-299.536 -199.562)" fill="rgba(0,0,0,0.7)" opacity="0.3"/>
                  </g>
                  <path id="Trazado_141611" data-name="Trazado 141611" d="M361.582,200.642l-2.007,4.558-54.022,72.028-6.017-3.835,8.169-10.248,48.522-60.864,4.28-2.719A1.52,1.52,0,0,1,361.582,200.642Z" transform="translate(-299.536 -199.562)" fill="none" stroke="#263238" stroke-linecap="round" stroke-linejoin="round" stroke-width="1"/>
                </g>
                <g id="Grupo_70550" data-name="Grupo 70550" transform="translate(0 56.575)">
                  <path id="Trazado_141612" data-name="Trazado 141612" d="M316.347,292.109a213.3,213.3,0,0,1-11.831,20.434l-4.145,1.072s-9.507,9.448-15.308,14.163a13.008,13.008,0,0,1-2.835-2.381s8.238-15.817,17.35-25.829a11.626,11.626,0,0,1,2.99,1.587,14.682,14.682,0,0,1,3.121,2.995l10.157-12.779Z" transform="translate(-282.228 -291.371)" fill="#a77d59"/>
                  <g id="Grupo_70549" data-name="Grupo 70549" clip-path="url(#clip-path-5)">
                    <path id="Trazado_141613" data-name="Trazado 141613" d="M318.193,292.109a213.3,213.3,0,0,1-11.831,20.434l-4.145,1.072s-9.507,9.448-15.308,14.163l.157-2.565c6.291-9.612,14.284-20.094,17.347-24.058a14.682,14.682,0,0,1,3.121,2.995l-5.644,7.533,3.234-.581,12.568-19.731Z" transform="translate(-284.074 -291.371)" fill="rgba(0,0,0,0.7)" opacity="0.3"/>
                  </g>
                  <path id="Trazado_141615" data-name="Trazado 141615" d="M316.347,292.109a213.3,213.3,0,0,1-11.831,20.434l-4.145,1.072s-9.507,9.448-15.308,14.163a13.008,13.008,0,0,1-2.835-2.381s8.238-15.817,17.35-25.829a11.626,11.626,0,0,1,2.99,1.587,14.682,14.682,0,0,1,3.121,2.995l10.157-12.779Z" transform="translate(-282.228 -291.371)" fill="none" stroke="#263238" stroke-linecap="round" stroke-linejoin="round" stroke-width="1"/>
                </g>
              </g>
              <g id="Grupo_70552" data-name="Grupo 70552" transform="translate(26.493 13.747)">
                <path id="Trazado_141616" data-name="Trazado 141616" d="M354.141,243.833,337.266,260.2l-2.7,2.616c1.846-4.746.953-12.084.835-12.978v-.011c-.008-.051-.012-.079-.012-.079a.773.773,0,0,0-.015-.129c-.1-.4-.256-1.375-.425-2.712-.037-.3-.074-.612-.114-.944s-.081-.679-.121-1.038c-.023-.169-.04-.348-.062-.523-.007-.073-.013-.145-.026-.213-.075-.684-.159-1.414-.235-2.165-.021-.208-.042-.409-.068-.617-.034-.359-.073-.724-.111-1.088-.008-.056-.01-.117-.017-.179-.021-.208-.047-.421-.067-.64-.047-.426-.087-.852-.133-1.284-.039-.371-.072-.74-.11-1.111-.069-.695-.137-1.39-.2-2.063q-.079-.758-.143-1.48c-.01-.112-.02-.219-.03-.325-.255-2.662-.455-4.853-.526-5.788,0,0-6.058-8.976-6.685-13.2s-.571-8.678,1.969-10.484c6.008-4.279,4.248,2.613,6.937,5.469s6.816,7.523,9.151,8.987,4.385,7.552,4.385,7.552c1.681,4.946,2.629,12.828,3.586,15.205S354.141,243.833,354.141,243.833Z" transform="translate(-325.974 -202.39)" fill="#ffcfb4"/>
                <path id="Trazado_141617" data-name="Trazado 141617" d="M368.07,260.585a7.486,7.486,0,0,1,2.323,2.935" transform="translate(-342.576 -225.341)" fill="none" stroke="#263238" stroke-linecap="round" stroke-linejoin="round" stroke-width="1"/>
                <path id="Trazado_141618" data-name="Trazado 141618" d="M335.211,209.225c2.678,2.855,6.79,7.494,9.129,8.975-.329-.165-4.631-2.263-7.037.07-2.5,2.432-4.314,9.176-4.314,9.176s-6.058-8.976-6.685-13.2-.571-8.678,1.969-10.484C334.282,199.476,332.522,206.368,335.211,209.225Z" transform="translate(-325.974 -202.39)" fill="#e2b88e" opacity="0.4"/>
                <path id="Trazado_141619" data-name="Trazado 141619" d="M342.177,280.28l-2.7,2.616c1.846-4.746.953-12.085.835-12.978v-.011a.876.876,0,0,0-.026-.208c-.1-.4-.256-1.375-.425-2.712-.037-.3-.074-.612-.114-.944s-.081-.679-.121-1.038c-.023-.169-.04-.348-.062-.523-.007-.073-.013-.145-.026-.213-.074-.69-.153-1.414-.235-2.165-.021-.208-.042-.409-.068-.617-.034-.359-.073-.724-.111-1.088-.008-.056-.01-.117-.017-.179-.021-.208-.047-.421-.067-.64-.047-.426-.087-.852-.133-1.284-.039-.371-.072-.74-.11-1.111-.069-.695-.137-1.391-.2-2.063-.047-.5-.094-1-.143-1.48-.01-.112-.02-.219-.03-.325.168.8,3.239,15.412,4.992,18.819C344.08,273.426,343.464,276.748,342.177,280.28Z" transform="translate(-330.885 -222.475)" fill="#a77d59" opacity="0.4"/>
                <path id="Trazado_141620" data-name="Trazado 141620" d="M354.142,243.835s-.851-.494-1.808-2.867-1.906-10.258-3.586-15.205c0,0-2.052-6.084-4.386-7.55s-6.458-6.128-9.149-8.986-.93-9.75-6.939-5.472c-2.536,1.805-2.589,6.258-1.966,10.484s6.685,13.205,6.685,13.205c.25,3.11,1.85,20.166,2.388,22.168" transform="translate(-325.975 -202.39)" fill="none" stroke="#263238" stroke-linecap="round" stroke-linejoin="round" stroke-width="1"/>
                <path id="Trazado_141621" data-name="Trazado 141621" d="M341.06,280.364s1.065,7.8-.681,11.106" transform="translate(-331.655 -233.142)" fill="none" stroke="#263238" stroke-linecap="round" stroke-linejoin="round" stroke-width="1"/>
              </g>
            </g>
          </g>
        </g>
        <g id="Left_hand" data-name="Left hand" transform="translate(6.523 10.379)">
          <g id="Grupo_70583" data-name="Grupo 70583">
            <path id="Trazado_141622" data-name="Trazado 141622" d="M138.364,289.218s3.834,17.8-4.472,30.75-14.695,16.4-17.57,20.268S102.2,365.7,102.2,365.7L89.058,326.781,102.2,278.628Z" transform="translate(-56.822 -150.644)" fill="rgba(0,0,0,0.7)" opacity="0.2"/>
            <g id="Grupo_70580" data-name="Grupo 70580" transform="translate(16.515)">
              <path id="Trazado_141623" data-name="Trazado 141623" d="M205.584,192.263l-81.492,34.3-8.4,3.537L99.861,192.481,63.1,105.133,152.992,67.3Z" transform="translate(-63.1 -67.3)" fill="#fff"/>
              <g id="Grupo_70579" data-name="Grupo 70579" clip-path="url(#clip-path-6)">
                <path id="Trazado_141624" data-name="Trazado 141624" d="M147.341,94.072l-38.8,16.33a1.431,1.431,0,1,0,1.11,2.637l38.8-16.33a1.431,1.431,0,1,0-1.11-2.638Z" transform="translate(-80.674 -77.814)" fill="#263238"/>
                <path id="Trazado_141625" data-name="Trazado 141625" d="M148.009,109.8l-19.4,8.166a.715.715,0,1,0,.555,1.318l19.4-8.165a.715.715,0,0,0-.555-1.319Z" transform="translate(-88.762 -84.039)" fill="#263238"/>
                <g id="Grupo_70565" data-name="Grupo 70565" transform="translate(32.376 69.391)">
                  <g id="Grupo_70555" data-name="Grupo 70555" transform="translate(0 6.109)">
                    <path id="Trazado_141626" data-name="Trazado 141626" d="M182.077,191.966s.819,6.429-1.575,7.436c-2.185.919-5.064-2.53-7.576-1.472s-.531,10.17-2.954,11.19-5.344-2.724-7.434-1.844-.827,5.567-2.981,6.475c-1.778.749-4.324-2.978-6.36-3.8a1.556,1.556,0,0,0-1.211-.061c-2.133.9-1.074,10.687-2.914,11.461a3.454,3.454,0,0,1-1.633.267,12.058,12.058,0,0,0-2.075-.2,2.682,2.682,0,0,0-.776.2c-1.571.661-1.357,5.813-2.793,6.418s-2.854-.145-4.387.5-1.509,3.324-3.794,4.285l.967,2.3,55.782-23.476" transform="translate(-123.285 -191.966)" fill="#bfbfbf" stroke="#263238" stroke-miterlimit="10" stroke-width="1"/>
                    <path id="Trazado_141627" data-name="Trazado 141627" d="M116.56,218.921l11.294,26.836,58.4-24.579" transform="translate(-116.56 -202.597)" fill="none" stroke="#263238" stroke-linecap="round" stroke-linejoin="round" stroke-width="1"/>
                    <path id="Trazado_141628" data-name="Trazado 141628" d="M186.565,208.246a9.508,9.508,0,0,0-.689-.74c-.721-.7-1.868-1.582-2.737-1.215-.851.358-.927,1.773-.91,3.284.02,1.839.18,3.818-.744,4.207-.786.331-1.493-.167-2.216-.71-.828-.619-1.679-1.3-2.7-.866-1.722.725-1.2,2.968-1.8,4.887a3.715,3.715,0,0,1-2.266,2.447c-1.487.626-3,.012-4.417-.959-2.4-1.637-4.554-4.285-5.95-3.7-2.221.935.229,6.946-2.159,7.951-1.335.561-4.1-3.647-6.778-7.264-2.12-2.863-4.193-5.356-5.466-4.821-2.88,1.212,1.866,15.583-.228,16.464-.021.008-.043.018-.064.024a2.21,2.21,0,0,1-2.075-.2c-.755-.428-1.369-1.034-2.2-.683-1.542.649-.637,6.283-2.338,7s-2.719-.32-4.632.485c-1.619.681-2.578,4.6-2.578,4.6l.967,2.3,55.782-23.476" transform="translate(-123.285 -197.581)" fill="#757575" stroke="#263238" stroke-linecap="round" stroke-linejoin="round" stroke-width="1"/>
                  </g>
                  <path id="Trazado_141629" data-name="Trazado 141629" d="M188.635,241.174l-19.4,8.165a.715.715,0,0,0,.555,1.319l19.4-8.165a.715.715,0,1,0-.555-1.319Z" transform="translate(-137.161 -205.242)" fill="#263238"/>
                  <g id="Grupo_70564" data-name="Grupo 70564" transform="translate(64.619)">
                    <g id="Grupo_70559" data-name="Grupo 70559" transform="translate(0)">
                      <rect id="Rectángulo_32041" data-name="Rectángulo 32041" width="2.792" height="2.792" rx="0.626" transform="matrix(0.922, -0.388, 0.388, 0.922, 0, 4.713)" fill="#bfbfbf" stroke="#263238" stroke-miterlimit="10" stroke-width="1"/>
                      <g id="Grupo_70558" data-name="Grupo 70558" transform="translate(4.161)">
                        <g id="Grupo_70556" data-name="Grupo 70556">
                          <path id="Trazado_141630" data-name="Trazado 141630" d="M238.33,182.5l-7.754,3.263a.321.321,0,0,1-.249-.592l7.754-3.263a.321.321,0,0,1,.249.592Z" transform="translate(-230.13 -181.88)" fill="#263238"/>
                        </g>
                        <g id="Grupo_70557" data-name="Grupo 70557" transform="translate(0.542 2.282)">
                          <path id="Trazado_141631" data-name="Trazado 141631" d="M236.858,186.265l-5.388,2.267a.321.321,0,0,1-.249-.592l5.388-2.267a.321.321,0,0,1,.249.592Z" transform="translate(-231.025 -185.648)" fill="#263238"/>
                        </g>
                      </g>
                    </g>
                    <g id="Grupo_70563" data-name="Grupo 70563" transform="translate(2.426 5.764)">
                      <rect id="Rectángulo_32042" data-name="Rectángulo 32042" width="2.792" height="2.792" rx="0.626" transform="matrix(0.922, -0.388, 0.388, 0.922, 0, 4.713)" fill="#757575" stroke="#263238" stroke-linecap="round" stroke-linejoin="round" stroke-width="1"/>
                      <g id="Grupo_70562" data-name="Grupo 70562" transform="translate(4.162)">
                        <g id="Grupo_70560" data-name="Grupo 70560">
                          <path id="Trazado_141632" data-name="Trazado 141632" d="M242.335,192.014l-7.754,3.263a.321.321,0,0,1-.249-.592l7.754-3.263a.321.321,0,1,1,.249.592Z" transform="translate(-234.136 -191.398)" fill="#263238"/>
                        </g>
                        <g id="Grupo_70561" data-name="Grupo 70561" transform="translate(0.542 2.282)">
                          <path id="Trazado_141633" data-name="Trazado 141633" d="M240.863,195.783l-5.388,2.267a.321.321,0,0,1-.249-.592l5.388-2.267a.321.321,0,0,1,.249.592Z" transform="translate(-235.03 -195.166)" fill="#263238"/>
                        </g>
                      </g>
                    </g>
                  </g>
                </g>
                <g id="Grupo_70566" data-name="Grupo 70566" transform="translate(50.303 99.481)">
                  <path id="Trazado_141634" data-name="Trazado 141634" d="M223.213,231.619l-62.978,26.5a.715.715,0,1,0,.555,1.319l62.979-26.5a.716.716,0,1,0-.555-1.319Z" transform="translate(-151.539 -231.563)" fill="#263238"/>
                  <path id="Trazado_141635" data-name="Trazado 141635" d="M219.831,239.449,146.6,270.269a.716.716,0,0,0,.555,1.319l73.232-30.82a.715.715,0,1,0-.555-1.319Z" transform="translate(-146.161 -234.651)" fill="#263238"/>
                  <path id="Trazado_141636" data-name="Trazado 141636" d="M223.126,247.28,149.895,278.1a.715.715,0,0,0,.555,1.319l73.233-30.82a.715.715,0,1,0-.555-1.318Z" transform="translate(-147.461 -237.74)" fill="#263238"/>
                  <path id="Trazado_141637" data-name="Trazado 141637" d="M226.422,255.11,153.19,285.93a.715.715,0,1,0,.555,1.318l73.232-30.819a.715.715,0,1,0-.555-1.319Z" transform="translate(-148.761 -240.828)" fill="#263238"/>
                  <path id="Trazado_141638" data-name="Trazado 141638" d="M198.957,284.316l-42.471,17.874a.715.715,0,0,0,.555,1.319l42.472-17.874a.716.716,0,1,0-.555-1.319Z" transform="translate(-150.06 -252.346)" fill="#263238"/>
                </g>
                <g id="Grupo_70578" data-name="Grupo 70578" transform="translate(17.017 30.566)">
                  <g id="Grupo_70568" data-name="Grupo 70568" transform="translate(0 8.438)">
                    <g id="Grupo_70567" data-name="Grupo 70567" transform="translate(10.327)">
                      <path id="Trazado_141639" data-name="Trazado 141639" d="M156.716,131.7s.819,6.429-1.575,7.436c-2.185.92-5.064-2.53-7.576-1.472s-.531,10.17-2.954,11.191-5.344-2.724-7.434-1.845-.827,5.567-2.981,6.475c-1.779.749-4.324-2.978-6.36-3.8a1.556,1.556,0,0,0-1.211-.061c-2.133.9-1.074,10.687-2.914,11.461a3.439,3.439,0,0,1-1.633.267,12.175,12.175,0,0,0-2.075-.2,2.683,2.683,0,0,0-.776.2c-1.571.661-1.357,5.813-2.793,6.417s-2.854-.145-4.387.5-1.509,3.324-3.794,4.286l.967,2.3L165,151.389" transform="translate(-108.251 -131.704)" fill="#bfbfbf" stroke="#263238" stroke-miterlimit="10" stroke-width="1"/>
                      <path id="Trazado_141640" data-name="Trazado 141640" d="M160.466,145.85s.511,3.115-.723,3.635c-1.023.431-1.652-.169-2.73-.209a3.587,3.587,0,0,0-1.56.32c-.986.415-1.225,1.745-1.4,3.177-.215,1.76-.33,3.672-1.618,4.214a3.987,3.987,0,0,1-2.885-.194c-1.6-.558-3.287-1.441-4.913-.757a3.837,3.837,0,0,0-1.77,2.246c-1.011,2.5-1.329,6.125-2.424,6.585-1.557.656-4.408-2.021-5.791-1.439s-.816,2.983-1.937,3.455-1.762-.921-3.737-.09-1.013,3.748-3.8,4.919-4.006-.984-6.7.151-2.2,3.175-4.1,3.973-2.7-.589-4.061-.017c-1.317.554-1.679,2.722-1.7,2.857l.743,1.767,55.782-23.476" transform="translate(-108.397 -137.283)" fill="#263238" stroke="#263238" stroke-miterlimit="10" stroke-width="1"/>
                    </g>
                    <path id="Trazado_141641" data-name="Trazado 141641" d="M91.2,158.66,102.493,185.5l58.4-24.579" transform="translate(-91.199 -142.335)" fill="none" stroke="#263238" stroke-linecap="round" stroke-linejoin="round" stroke-width="1"/>
                  </g>
                  <path id="Trazado_141642" data-name="Trazado 141642" d="M162.984,180.224l-19.4,8.166a.715.715,0,1,0,.555,1.318l19.4-8.165a.716.716,0,0,0-.555-1.319Z" transform="translate(-111.685 -142.379)" fill="#263238"/>
                  <g id="Grupo_70577" data-name="Grupo 70577" transform="translate(63.638)">
                    <g id="Grupo_70572" data-name="Grupo 70572">
                      <rect id="Rectángulo_32043" data-name="Rectángulo 32043" width="2.792" height="2.792" rx="0.626" transform="matrix(0.922, -0.388, 0.388, 0.922, 0, 4.713)" fill="#bfbfbf" stroke="#263238" stroke-miterlimit="10" stroke-width="1"/>
                      <g id="Grupo_70571" data-name="Grupo 70571" transform="translate(4.162)">
                        <g id="Grupo_70569" data-name="Grupo 70569">
                          <path id="Trazado_141643" data-name="Trazado 141643" d="M211.35,118.388l-7.754,3.263a.321.321,0,0,1-.249-.592L211.1,117.8a.321.321,0,0,1,.249.592Z" transform="translate(-203.151 -117.771)" fill="#263238"/>
                        </g>
                        <g id="Grupo_70570" data-name="Grupo 70570" transform="translate(0.541 2.283)">
                          <path id="Trazado_141644" data-name="Trazado 141644" d="M209.878,122.157l-5.388,2.267a.321.321,0,1,1-.249-.591l5.388-2.267a.321.321,0,1,1,.249.591Z" transform="translate(-204.045 -121.54)" fill="#263238"/>
                        </g>
                      </g>
                    </g>
                    <g id="Grupo_70576" data-name="Grupo 70576" transform="translate(2.426 5.764)">
                      <rect id="Rectángulo_32044" data-name="Rectángulo 32044" width="2.792" height="2.792" rx="0.626" transform="matrix(0.922, -0.388, 0.388, 0.922, 0, 4.713)" fill="#a77d59" stroke="#263238" stroke-miterlimit="10" stroke-width="1"/>
                      <g id="Grupo_70575" data-name="Grupo 70575" transform="translate(4.162)">
                        <g id="Grupo_70573" data-name="Grupo 70573">
                          <path id="Trazado_141645" data-name="Trazado 141645" d="M215.355,127.906l-7.753,3.263a.321.321,0,1,1-.249-.592l7.753-3.263a.321.321,0,0,1,.249.592Z" transform="translate(-207.156 -127.289)" fill="#263238"/>
                        </g>
                        <g id="Grupo_70574" data-name="Grupo 70574" transform="translate(0.541 2.283)">
                          <path id="Trazado_141646" data-name="Trazado 141646" d="M213.883,131.675l-5.388,2.267a.321.321,0,1,1-.249-.591l5.388-2.267a.321.321,0,1,1,.249.591Z" transform="translate(-208.05 -131.058)" fill="#263238"/>
                        </g>
                      </g>
                    </g>
                  </g>
                </g>
                <path id="Trazado_141647" data-name="Trazado 141647" d="M148.031,289.733l-8.4,3.537L123.8,255.654a9.32,9.32,0,0,0,2.647-5.19c.945-5.039.279-21.239,12.894-22.911s1.974,26.7,2.556,32.1C142.429,264.581,149.617,278.892,148.031,289.733Z" transform="translate(-87.039 -130.473)" fill="rgba(0,0,0,0.7)" opacity="0.2"/>
              </g>
              <path id="Trazado_141649" data-name="Trazado 141649" d="M205.584,192.263l-81.492,34.3-8.4,3.537L99.861,192.481,63.1,105.133,152.992,67.3Z" transform="translate(-63.1 -67.3)" fill="none" stroke="#263238" stroke-linecap="round" stroke-linejoin="round" stroke-width="1"/>
            </g>
            <g id="Grupo_70582" data-name="Grupo 70582" transform="translate(0 86.741)">
              <path id="Trazado_141650" data-name="Trazado 141650" d="M108.263,255.021c1.414-4.835,6.937-20.357,6.212-27.22a6.708,6.708,0,0,0-.386-1.671c-1.939-5.124-9.862-4.628-12.9-.382a40.619,40.619,0,0,0-6.3,18.187,15.814,15.814,0,0,1-2.4,7.181c0,.011,0,.017-.01.022a17.738,17.738,0,0,1-1.6,2.277L72.8,210.527a24.479,24.479,0,0,0-4.73,5.279,8.635,8.635,0,0,0-1.389,3.676c-.371,4.224-5.155,21.581-7.144,28.906-.038.157-.082.3-.121.451-1.913,7.038,3.137,33.177,1.693,40.769s-2.342,7.424-2.552,12.815c-.154,3.937-5.786,15.906-12.1,28.193C42.839,337.657,39,344.8,35.83,350.583l46.221-1.919c.8-5.616,1.622-11.544,2.372-17.281a64.549,64.549,0,0,1,1.381-7.094v-.005c1.02-4.118,2.263-7.843,3.018-10.024a94.437,94.437,0,0,0,2.412-9.748c5.375-5.69,12.424-14.634,14.466-20.692.005-.011.01-.028.015-.039a7.522,7.522,0,0,0,.46-3.933,18.221,18.221,0,0,1-.366-3.309c.005-.005.005-.005,0-.011A91.8,91.8,0,0,1,108.263,255.021Z" transform="translate(-35.83 -210.527)" fill="#ffcfb4"/>
              <path id="Trazado_141651" data-name="Trazado 141651" d="M113.467,251.139a72.312,72.312,0,0,0-4.262,8.9c-1.1,3.224-2.286,3.68-5.521,6.2s-5.6-1.633-5.6-1.633,4.28-4.448,2.858-6.922-6.75-8.638-6.434-12.036-3.23-11.016-3.23-11.016,8.07-4.739,6.5-10.274c-.855-3.032-5.081-6.258-8.728-8.55a24.479,24.479,0,0,1,4.73-5.279l18.076,42.889A17.739,17.739,0,0,0,113.467,251.139Z" transform="translate(-56.822 -210.527)" fill="#e2b88e" opacity="0.4"/>
              <path id="Trazado_141652" data-name="Trazado 141652" d="M70.081,302.1c.11.363,2.736,9.044.52,12.66-2.268,3.7-4.494,8.409-3.411,13.319.865,3.922-6.4,18.1-13.812,27.189,6.309-12.287,11.942-24.256,12.1-28.193.21-5.392,1.1-5.228,2.552-12.815s-3.606-33.731-1.693-40.769c.038-.147.082-.293.121-.451,1.411,7.975,4.7,23.86,5.6,28.967C73.2,308.514,70.2,302.359,70.081,302.1Z" transform="translate(-42.751 -235.182)" fill="#e2b88e" opacity="0.4"/>
              <path id="Trazado_141653" data-name="Trazado 141653" d="M108.44,377.544c5.369-23.126,23.449-40.862,25.9-46-2.042,6.059-9.092,15-14.466,20.692a94.439,94.439,0,0,1-2.412,9.748c-.756,2.18-2,5.906-3.018,10.024v.005C109.191,378.2,108.44,377.544,108.44,377.544Z" transform="translate(-64.466 -258.255)" fill="#e2b88e" opacity="0.4"/>
              <path id="Trazado_141654" data-name="Trazado 141654" d="M149.965,264.99a91.8,91.8,0,0,0-2.453,21.507c-.95-4.119-2.782-9.348-3.084-16.634-.513-12.355,6.485-7.924,4.044-14.008s-9.4,1.716-5.97-11.17c2.5-9.406,9.628-9.318,13.288-8.585a6.708,6.708,0,0,1,.386,1.671C156.9,244.632,151.378,260.154,149.965,264.99Z" transform="translate(-77.532 -220.496)" fill="#e2b88e" opacity="0.4"/>
              <g id="Grupo_70581" data-name="Grupo 70581" transform="translate(7.029)">
                <path id="Trazado_141655" data-name="Trazado 141655" d="M47.436,337.827c5.8-10.59,11.432-21.484,15.494-33.236.487-1.69-.161-3.89.325-5.581,5.49-15.259-.736-31.145.284-46.775.858-6.159,2.827-12.364,4.8-18.57.927-4.492,1.275-9.517,2.757-14.032,1.529-3.4,3.035-7.363,6.28-9.107,6.177,14.156,12.335,28.375,18.076,42.889,2.593-1.5,3.011-4.857,3.451-7.659,1.39-6.738,2.8-12.921,5.351-18.594,2.594-4.562,9.194-6.506,13.245-2.777a6.314,6.314,0,0,1,1.852,4.377c-.788,7.826-3.244,15.722-5.722,23.062a60.772,60.772,0,0,0-2.387,9.563c.047,1.111.07,1.667.116,2.779-1.437,5.627-.117,10.583-.442,16.163C109.661,290.4,101.6,297.419,95.789,304.9c-1.437,5.627-2.873,11.254-4.865,16.9-2.433,8.451-3.2,16.834-4.028,24.981" transform="translate(-47.436 -210.527)" fill="none" stroke="#263238" stroke-linecap="round" stroke-linejoin="round" stroke-width="1"/>
                <path id="Trazado_141656" data-name="Trazado 141656" d="M120.7,281.346a37.816,37.816,0,0,0-2.662,6.618c-.758,2.968-4.592,2.54-6.572,4.384" transform="translate(-72.69 -238.457)" fill="none" stroke="#263238" stroke-linecap="round" stroke-linejoin="round" stroke-width="1"/>
                <path id="Trazado_141657" data-name="Trazado 141657" d="M102.843,272.719a35.565,35.565,0,0,1,8.25,4.208,16.243,16.243,0,0,0,5.282,2.949" transform="translate(-69.288 -235.054)" fill="none" stroke="#263238" stroke-linecap="round" stroke-linejoin="round" stroke-width="1"/>
                <path id="Trazado_141658" data-name="Trazado 141658" d="M97.35,248.259s4.208,1.18,7.329-.3a27.993,27.993,0,0,1,.791-4.474" transform="translate(-67.121 -223.523)" fill="none" stroke="#263238" stroke-linecap="round" stroke-linejoin="round" stroke-width="1"/>
                <path id="Trazado_141659" data-name="Trazado 141659" d="M111.106,251.877s.044.586,2.189.611" transform="translate(-72.546 -226.835)" fill="none" stroke="#263238" stroke-linecap="round" stroke-linejoin="round" stroke-width="1"/>
                <path id="Trazado_141660" data-name="Trazado 141660" d="M123,365.72a28.685,28.685,0,0,0-6.614,10.434" transform="translate(-74.631 -271.732)" fill="none" stroke="#263238" stroke-linecap="round" stroke-linejoin="round" stroke-width="1"/>
                <path id="Trazado_141661" data-name="Trazado 141661" d="M74.351,275.924c-.188,3.626,4.072,16.519,5.365,22.925s1.776,10.938,1.776,10.938" transform="translate(-58.048 -236.318)" fill="none" stroke="#263238" stroke-linecap="round" stroke-linejoin="round" stroke-width="1"/>
              </g>
            </g>
          </g>
        </g>
      </g>
    </g>
  </g>
</svg>
