<svg xmlns="http://www.w3.org/2000/svg" width="60" height="60" viewBox="0 0 60 60">
  <g id="_11" data-name="11" transform="translate(-310.051 -3444)">
    <circle id="Elipse_11538" data-name="Elipse 11538" cx="30" cy="30" r="30" transform="translate(310.051 3444)" fill="#10314b"/>
    <g id="resultados-de-la-encuesta" transform="translate(320.051 3454)">
      <path id="Trazado_880316" data-name="Trazado 880316" d="M8,8H46.124V46.124H8Z" transform="translate(-7.385 -7.385)" fill="#dce1eb"/>
      <path id="Trazado_880317" data-name="Trazado 880317" d="M46.5,43.772H73.714V8H37.888V35.164A8.609,8.609,0,0,0,46.5,43.772Z" transform="translate(-34.976 -7.385)" fill="#e9edf5"/>
      <path id="Trazado_880318" data-name="Trazado 880318" d="M70.314,435.473a4.516,4.516,0,0,0-4.928,0,1.329,1.329,0,0,0-.574,1.094s0,1.651,0,3.5l6.076,0v-3.5A1.329,1.329,0,0,0,70.314,435.473Z" transform="translate(-59.83 -401.326)" fill="#00c8c8"/>
      <path id="Trazado_880319" data-name="Trazado 880319" d="M86.153,384.555H85.54a1.233,1.233,0,0,0-1.233,1.233v.763a1.961,1.961,0,0,0,.718,1.517l.11.09a1.123,1.123,0,0,0,1.424,0l.11-.09a1.961,1.961,0,0,0,.718-1.517v-.763a1.233,1.233,0,0,0-1.233-1.233Z" transform="translate(-77.827 -354.997)" fill="#00c8c8"/>
      <path id="Trazado_880320" data-name="Trazado 880320" d="M221.975,435.473a4.516,4.516,0,0,0-4.928,0,1.329,1.329,0,0,0-.574,1.094s0,1.651,0,3.5l6.076,0v-3.5A1.329,1.329,0,0,0,221.975,435.473Z" transform="translate(-199.834 -401.326)" fill="#eb3958"/>
      <path id="Trazado_880321" data-name="Trazado 880321" d="M237.819,384.555h-.613a1.233,1.233,0,0,0-1.233,1.233v.763a1.961,1.961,0,0,0,.718,1.517l.11.09a1.123,1.123,0,0,0,1.424,0l.11-.09a1.961,1.961,0,0,0,.718-1.517v-.763a1.233,1.233,0,0,0-1.233-1.233Z" transform="translate(-217.836 -354.997)" fill="#eb3958"/>
      <path id="Trazado_880322" data-name="Trazado 880322" d="M373.641,435.473a4.516,4.516,0,0,0-4.928,0,1.329,1.329,0,0,0-.574,1.094s0,1.651,0,3.5l6.076,0v-3.5A1.329,1.329,0,0,0,373.641,435.473Z" transform="translate(-339.843 -401.326)" fill="#f9b534"/>
      <path id="Trazado_880323" data-name="Trazado 880323" d="M389.485,384.555h-.613a1.233,1.233,0,0,0-1.233,1.233v.763a1.961,1.961,0,0,0,.718,1.517l.11.09a1.123,1.123,0,0,0,1.423,0l.11-.09a1.961,1.961,0,0,0,.718-1.517v-.763a1.233,1.233,0,0,0-1.233-1.233Z" transform="translate(-357.844 -354.997)" fill="#f9b534"/>
      <path id="Trazado_880324" data-name="Trazado 880324" d="M0,0H13.16V4.594H0Z" transform="translate(5.722 27.257) rotate(-90)" fill="#00c8c8"/>
      <path id="Trazado_880325" data-name="Trazado 880325" d="M0,0H17.78V4.594H0Z" transform="translate(17.379 27.257) rotate(-90)" fill="#eb3958"/>
      <path id="Trazado_880326" data-name="Trazado 880326" d="M0,0H6.293V4.594H0Z" transform="translate(29.037 27.257) rotate(-90)" fill="#f9b534"/>
      <path id="Trazado_880327" data-name="Trazado 880327" d="M38.739,497.23H.615a.615.615,0,0,1,0-1.23H38.739a.615.615,0,0,1,0,1.23Z" transform="translate(0 -457.876)"/>
      <path id="Trazado_880328" data-name="Trazado 880328" d="M71.223,90.995l-4.594,4.595a.615.615,0,0,0,.87.87l4.595-4.594a.615.615,0,1,0-.87-.87Z" transform="translate(-61.341 -83.834)"/>
      <path id="Trazado_880329" data-name="Trazado 880329" d="M97.526,151.821a.615.615,0,0,0,0-1.23h-.574a.615.615,0,1,0,0,1.23Z" transform="translate(-88.932 -139.016)"/>
      <path id="Trazado_880330" data-name="Trazado 880330" d="M89.479,92.045h.574a.615.615,0,0,0,0-1.23h-.574a.615.615,0,0,0,0,1.23Z" transform="translate(-82.034 -83.835)"/>
      <path id="Trazado_880331" data-name="Trazado 880331" d="M369.959,185.127a.615.615,0,0,0,.87,0l4.594-4.594a.615.615,0,0,0-.87-.87l-4.595,4.594A.615.615,0,0,0,369.959,185.127Z" transform="translate(-341.357 -165.688)"/>
      <path id="Trazado_880332" data-name="Trazado 880332" d="M400.284,239.26a.615.615,0,0,0,0,1.23h.574a.615.615,0,0,0,0-1.23Z" transform="translate(-368.95 -220.87)"/>
      <path id="Trazado_880333" data-name="Trazado 880333" d="M393.389,180.713a.615.615,0,1,0,0-1.23h-.574a.615.615,0,0,0,0,1.23Z" transform="translate(-362.055 -165.688)"/>
      <path id="Trazado_880334" data-name="Trazado 880334" d="M63.5,384.509a.615.615,0,0,0,.615-.615v-1.04a1.944,1.944,0,0,0-.84-1.6,4.648,4.648,0,0,0-1.15-.573,2.566,2.566,0,0,0,.491-1.513v-.763a1.85,1.85,0,0,0-1.848-1.848h-.613a1.85,1.85,0,0,0-1.848,1.848v.763a2.566,2.566,0,0,0,.491,1.513,4.657,4.657,0,0,0-1.151.574,1.945,1.945,0,0,0-.839,1.6v1.163a.616.616,0,0,0,.614.627h0a.62.62,0,0,0,.614-.62h0v-1.169a.715.715,0,0,1,.308-.588,3.9,3.9,0,0,1,4.23,0,.714.714,0,0,1,.308.588v1.04a.615.615,0,0,0,.615.615Zm-3.963-6.1a.619.619,0,0,1,.618-.618h.613a.619.619,0,0,1,.618.618v.763a1.341,1.341,0,0,1-.493,1.041l-.11.09a.509.509,0,0,1-.644,0l-.11-.09a1.341,1.341,0,0,1-.493-1.041Z" transform="translate(-52.444 -347.614)"/>
      <path id="Trazado_880335" data-name="Trazado 880335" d="M208.477,382.855v1.163a.616.616,0,0,0,.614.627h0a.62.62,0,0,0,.614-.62h0v-1.169a.715.715,0,0,1,.308-.588,3.9,3.9,0,0,1,4.23,0,.714.714,0,0,1,.308.588v1.04a.615.615,0,1,0,1.23,0v-1.04a1.944,1.944,0,0,0-.84-1.6,4.653,4.653,0,0,0-1.15-.574,2.565,2.565,0,0,0,.491-1.513v-.763a1.85,1.85,0,0,0-1.848-1.848h-.613a1.85,1.85,0,0,0-1.848,1.848v.763a2.566,2.566,0,0,0,.491,1.513,4.657,4.657,0,0,0-1.151.574A1.945,1.945,0,0,0,208.477,382.855Zm2.729-4.45a.619.619,0,0,1,.618-.618h.613a.619.619,0,0,1,.618.618v.763a1.341,1.341,0,0,1-.493,1.041l-.11.09a.51.51,0,0,1-.644,0l-.11-.09a1.341,1.341,0,0,1-.493-1.041Z" transform="translate(-192.453 -347.614)"/>
      <path id="Trazado_880336" data-name="Trazado 880336" d="M360.138,382.854v1.163a.616.616,0,0,0,.614.627h0a.62.62,0,0,0,.614-.62h0v-.13c0-.008,0-.016,0-.025,0-.319,0-1.015,0-1.015a.715.715,0,0,1,.308-.588,3.9,3.9,0,0,1,4.23,0,.714.714,0,0,1,.308.588v1.04a.615.615,0,1,0,1.23,0v-1.04a1.944,1.944,0,0,0-.84-1.6,4.651,4.651,0,0,0-1.15-.573,2.565,2.565,0,0,0,.491-1.513v-.763a1.85,1.85,0,0,0-1.848-1.848h-.613a1.85,1.85,0,0,0-1.848,1.848v.763a2.566,2.566,0,0,0,.491,1.513,4.651,4.651,0,0,0-1.15.574A1.944,1.944,0,0,0,360.138,382.854Zm2.728-4.45a.619.619,0,0,1,.618-.618h.613a.619.619,0,0,1,.618.618v.763a1.341,1.341,0,0,1-.493,1.041l-.11.09a.509.509,0,0,1-.644,0l-.11-.09a1.341,1.341,0,0,1-.493-1.041Z" transform="translate(-332.457 -347.614)"/>
      <path id="Trazado_880337" data-name="Trazado 880337" d="M66.446,176.026v13.16a.615.615,0,0,0,.615.615h4.595a.615.615,0,0,0,.615-.615v-13.16a.615.615,0,0,0-.615-.615H67.061A.615.615,0,0,0,66.446,176.026Zm1.23.615h3.365v11.93H67.676Z" transform="translate(-61.339 -161.929)"/>
      <path id="Trazado_880338" data-name="Trazado 880338" d="M218.112,115.926v17.779a.615.615,0,0,0,.615.615h4.595a.615.615,0,0,0,.615-.615V115.926a.615.615,0,0,0-.615-.615h-4.595A.615.615,0,0,0,218.112,115.926Zm1.23.615h3.365v16.55h-3.365Z" transform="translate(-201.347 -106.448)"/>
      <path id="Trazado_880339" data-name="Trazado 880339" d="M369.778,271.666a.615.615,0,0,0,.615.615h4.595a.615.615,0,0,0,.615-.615v-6.293a.615.615,0,0,0-.615-.615h-4.595a.615.615,0,0,0-.615.615Zm1.23-5.678h3.365v5.063h-3.365Z" transform="translate(-341.356 -244.408)"/>
      <path id="Trazado_880340" data-name="Trazado 880340" d="M218.292,34.531a.615.615,0,0,0,.87,0l4.594-4.594a.615.615,0,1,0-.87-.87l-4.594,4.595A.615.615,0,0,0,218.292,34.531Z" transform="translate(-201.347 -26.666)"/>
      <path id="Trazado_880341" data-name="Trazado 880341" d="M249.189,89.893a.615.615,0,0,0,0-1.23h-.574a.615.615,0,0,0,0,1.23Z" transform="translate(-228.938 -81.848)"/>
      <path id="Trazado_880342" data-name="Trazado 880342" d="M241.717,30.118a.615.615,0,1,0,0-1.23h-.574a.615.615,0,1,0,0,1.23Z" transform="translate(-222.04 -26.668)"/>
      <path id="Trazado_880343" data-name="Trazado 880343" d="M38.739,0H7.883a.615.615,0,1,0,0,1.23H38.124V38.124H1.23V1.23H5.423a.615.615,0,1,0,0-1.23H.615A.615.615,0,0,0,0,.615V38.739a.615.615,0,0,0,.615.615H38.739a.615.615,0,0,0,.615-.615V.615A.615.615,0,0,0,38.739,0Z" transform="translate(0)"/>
    </g>
  </g>
</svg>
