<svg xmlns="http://www.w3.org/2000/svg" width="85" height="85" viewBox="0 0 85 85">
  <g id="_13" data-name="13" transform="translate(-179.66 -5300)">
    <circle id="Elipse_11539" data-name="Elipse 11539" cx="42.5" cy="42.5" r="42.5" transform="translate(179.66 5300)" fill="#73c8e2"/>
    <g id="encuesta-al-consumidor" transform="translate(192.647 5312.986)">
      <g id="Grupo_1107406" data-name="Grupo 1107406" transform="translate(28.597 17.04)">
        <path id="Trazado_880692" data-name="Trazado 880692" d="M52.842,29.856a1.611,1.611,0,0,0-1.111-.451h-.045c-.036-.19-.072-.37-.126-.56a2.7,2.7,0,0,1-.614.19,3.311,3.311,0,0,1-.677.072c-.1,0-.208,0-.307-.009a4.131,4.131,0,0,1-.84-.154,5,5,0,0,1-1.309-.515,4.791,4.791,0,0,1-2.077-2.23.372.372,0,0,0-.641-.081,7.21,7.21,0,0,1-3.567,2.4,8.367,8.367,0,0,1-3.1.424,2.807,2.807,0,0,1-.4-.054c-.154-.018-.289-.045-.424-.072a2.7,2.7,0,0,1-.289-.072c-.126-.045-.244-.081-.352-.126-.072.262-.144.515-.2.786h-.036a1.693,1.693,0,0,0-1.174.5,9.47,9.47,0,0,1-3.928-5.291,4.239,4.239,0,0,1,4.8-5.355,27.763,27.763,0,0,0,4.181.8,15.156,15.156,0,0,0,4.434-.912c1.544-.424,2.456-.731,3.973-.244a4.9,4.9,0,0,1,3.251,3.6,1.684,1.684,0,0,1,1.752,1.228c.939,2.275-.379,4.867-1.183,6.122Z" transform="translate(-31.453 -18.654)" fill="#0e9c9c"/>
      </g>
      <g id="Grupo_1107408" data-name="Grupo 1107408" transform="translate(25.479 42.816)">
        <g id="Grupo_1107407" data-name="Grupo 1107407">
          <path id="Trazado_880693" data-name="Trazado 880693" d="M59.83,58.749a2.923,2.923,0,0,1-2.935,2.935H30.935A2.935,2.935,0,0,1,28,58.749l.009-1.625c0-2.068-.018-4.795,3.124-7.251A20.97,20.97,0,0,1,37.219,47.5c.081-.018,1.038-.235,1.454-.289l4.244,3.838a1.467,1.467,0,0,0,1.968,0l4.235-3.838c-.009,0-.009-.009-.018-.009.442.054,1.445.289,1.517.3a20.765,20.765,0,0,1,6.086,2.375c3.133,2.456,3.124,5.183,3.124,7.251Z" transform="translate(-28 -47.2)" fill="#e27082"/>
        </g>
      </g>
      <g id="Grupo_1107425" data-name="Grupo 1107425" transform="translate(24.82 16.389)">
        <g id="Grupo_1107424" data-name="Grupo 1107424">
          <g id="Grupo_1107423" data-name="Grupo 1107423">
            <g id="Grupo_1107421" data-name="Grupo 1107421" transform="translate(0 7.297)">
              <g id="Grupo_1107420" data-name="Grupo 1107420">
                <g id="Grupo_1107419" data-name="Grupo 1107419">
                  <g id="Grupo_1107418" data-name="Grupo 1107418">
                    <g id="Grupo_1107417" data-name="Grupo 1107417">
                      <g id="Grupo_1107416" data-name="Grupo 1107416">
                        <g id="Grupo_1107415" data-name="Grupo 1107415">
                          <g id="Grupo_1107412" data-name="Grupo 1107412" transform="translate(0 14.199)">
                            <g id="Grupo_1107410" data-name="Grupo 1107410" transform="translate(0 4.277)">
                              <g id="Grupo_1107409" data-name="Grupo 1107409">
                                <path id="Trazado_880694" data-name="Trazado 880694" d="M56.824,62.281H30.864a3.592,3.592,0,0,1-3.594-3.6l.009-1.625c0-2.176,0-5.12,3.377-7.766,1.363-1.065,4.623-2.068,6.33-2.492l.208-.045c.334-.072.984-.217,1.309-.262a.666.666,0,0,1,.533.163l4.244,3.838a.8.8,0,0,0,1.084,0L48.49,46.75a.666.666,0,0,1,.614-.271c.361.045.975.181,1.481.289l.09.018c1.625.406,4.993,1.436,6.366,2.5,3.377,2.646,3.377,5.589,3.377,7.738l.009,1.652a3.592,3.592,0,0,1-3.6,3.6ZM38.395,47.843l-.912.19-.208.045a19.975,19.975,0,0,0-5.8,2.248c-2.871,2.248-2.871,4.713-2.871,6.7L28.6,58.688a2.283,2.283,0,0,0,.659,1.607,2.239,2.239,0,0,0,1.607.668h25.96a2.224,2.224,0,0,0,1.607-.668,2.283,2.283,0,0,0,.659-1.607l-.009-1.625c0-2.014,0-4.488-2.871-6.727a20.3,20.3,0,0,0-5.842-2.257l-.09-.018c-.19-.045-.668-.154-1.038-.217l-4,3.63a2.11,2.11,0,0,1-2.853,0Z" transform="translate(-27.27 -46.475)" fill="#010101"/>
                              </g>
                            </g>
                            <g id="Grupo_1107411" data-name="Grupo 1107411" transform="translate(10.662)">
                              <path id="Trazado_880695" data-name="Trazado 880695" d="M44.967,51.564a2.1,2.1,0,0,1-1.427-.551L39.3,47.176a.665.665,0,0,1,.117-1.075,5.107,5.107,0,0,0,2.3-2.483,3.718,3.718,0,0,0,.226-.6,5.939,5.939,0,0,0,.172-.731.661.661,0,0,1,.867-.506,5.973,5.973,0,0,0,3.946.009.655.655,0,0,1,.551.054.669.669,0,0,1,.316.461,5.3,5.3,0,0,0,1,2.375A5.046,5.046,0,0,0,50.484,46.1a.659.659,0,0,1,.343.506.647.647,0,0,1-.217.569l-4.235,3.838a2.04,2.04,0,0,1-1.409.551Zm-4.145-4.795,3.6,3.26a.8.8,0,0,0,1.084,0l3.585-3.26a6.138,6.138,0,0,1-1.336-1.309,6.275,6.275,0,0,1-.768-1.309,6.036,6.036,0,0,1-.316-.912,7.269,7.269,0,0,1-3.413,0c-.009.045-.027.09-.036.126a3.886,3.886,0,0,1-.289.786,6.4,6.4,0,0,1-2.113,2.619Z" transform="translate(-39.077 -41.739)" fill="#010101"/>
                            </g>
                          </g>
                          <g id="Grupo_1107414" data-name="Grupo 1107414" transform="translate(6.51)">
                            <g id="Grupo_1107413" data-name="Grupo 1107413">
                              <path id="Trazado_880696" data-name="Trazado 880696" d="M44.521,41.921c-3.585,0-6.772-2.682-7.9-6.574a3.074,3.074,0,0,1-.1-5.824c.036-.126.063-.253.108-.37a.669.669,0,0,1,.343-.406.682.682,0,0,1,.533-.018,6.278,6.278,0,0,0,4.108-.126,6.554,6.554,0,0,0,3.233-2.158,1.028,1.028,0,0,1,1.788.208,4.17,4.17,0,0,0,1.8,1.905,3.721,3.721,0,0,0,3.142.4.688.688,0,0,1,.551.009.672.672,0,0,1,.352.415c.009.045.027.09.036.135a3.074,3.074,0,0,1-.1,5.824c-1.12,3.9-4.307,6.583-7.892,6.583Zm-7.368-7.874a.653.653,0,0,1,.632.515c.849,3.558,3.621,6.032,6.736,6.032s5.887-2.483,6.736-6.032a.667.667,0,0,1,.768-.5c.045-.009.1-.009.144-.018a1.55,1.55,0,0,0,1.066-1.625c0-.894-.56-1.643-1.219-1.643a.741.741,0,0,1-.641-.379,5.355,5.355,0,0,1-3.594-.686,5.606,5.606,0,0,1-2.158-2.122,8.834,8.834,0,0,1-7.892,2.582.213.213,0,0,1-.018.072.667.667,0,0,1-.65.533A1.5,1.5,0,0,0,35.8,32.421c0,.885.56,1.634,1.228,1.634.045,0,.09-.009.126-.009Z" transform="translate(-34.48 -26.014)" fill="#010101"/>
                            </g>
                          </g>
                        </g>
                      </g>
                    </g>
                  </g>
                </g>
              </g>
            </g>
            <g id="Grupo_1107422" data-name="Grupo 1107422" transform="translate(3.131)">
              <path id="Trazado_880697" data-name="Trazado 880697" d="M35.5,30.5a.6.6,0,0,1-.343-.1,10.161,10.161,0,0,1-4.217-5.662,4.845,4.845,0,0,1,1.038-4.614,4.9,4.9,0,0,1,4.515-1.589c.551.1,1.075.226,1.58.361a11.456,11.456,0,0,0,2.5.442,9.655,9.655,0,0,0,3.233-.6c.325-.1.668-.2,1.011-.289l.244-.063a6.3,6.3,0,0,1,4.108-.172A5.534,5.534,0,0,1,52.736,21.8a2.387,2.387,0,0,1,1.842,1.607c1.038,2.528-.334,5.3-1.246,6.727a.654.654,0,0,1-.479.3.642.642,0,0,1-.533-.172.978.978,0,0,0-.659-.271.731.731,0,0,1-.641-.388h-.009a4.3,4.3,0,0,1-1.165.072,4.383,4.383,0,0,1-.975-.181,5.362,5.362,0,0,1-1.445-.578A5.606,5.606,0,0,1,45.268,26.8a8.21,8.21,0,0,1-3.6,2.266,8.646,8.646,0,0,1-3.35.451,2.776,2.776,0,0,1-.479-.063,3.451,3.451,0,0,1-.451-.081h-.018c-.009.027-.009.054-.018.081a.659.659,0,0,1-.65.542,1.011,1.011,0,0,0-.74.316.627.627,0,0,1-.461.19Zm.144-10.709A3.586,3.586,0,0,0,32.961,21a3.54,3.54,0,0,0-.758,3.359,8.943,8.943,0,0,0,3.26,4.659,2.228,2.228,0,0,1,.7-.289c.036-.126.063-.244.1-.37a.642.642,0,0,1,.343-.406.682.682,0,0,1,.533-.027c.1.036.208.081.325.117.036.009.108.027.19.045.154.036.262.054.388.072a2.148,2.148,0,0,0,.37.045,7.614,7.614,0,0,0,2.844-.388,6.625,6.625,0,0,0,3.242-2.158,1.021,1.021,0,0,1,.948-.415,1.055,1.055,0,0,1,.84.632,4.231,4.231,0,0,0,1.8,1.914,4.3,4.3,0,0,0,1.129.442,3.092,3.092,0,0,0,.731.135c.09.009.181.009.262.009a2.992,2.992,0,0,0,.551-.054,1.884,1.884,0,0,0,.433-.126.672.672,0,0,1,.939.415c.009.045.027.09.036.135a1.952,1.952,0,0,1,.388.126c.722-1.291,1.5-3.251.8-4.948-.325-.777-.758-.849-1.093-.822a.638.638,0,0,1-.7-.533,4.223,4.223,0,0,0-2.8-3.1,5.018,5.018,0,0,0-3.35.19l-.244.072c-.334.09-.659.19-.984.28a12.08,12.08,0,0,1-3.639.659,12.328,12.328,0,0,1-2.8-.479c-.479-.126-.966-.244-1.481-.334a2.447,2.447,0,0,0-.623-.072Z" transform="translate(-30.738 -17.933)" fill="#010101"/>
            </g>
          </g>
        </g>
      </g>
      <g id="Grupo_1107459" data-name="Grupo 1107459" transform="translate(2.02 2.02)">
        <g id="Grupo_1107426" data-name="Grupo 1107426" transform="translate(5.066 38.819)">
          <path id="Trazado_880698" data-name="Trazado 880698" d="M13.617,46.256v3.513a1.249,1.249,0,0,1-1.246,1.246H8.876A1.249,1.249,0,0,1,7.63,49.769V46.256A1.249,1.249,0,0,1,8.876,45.01h3.5A1.241,1.241,0,0,1,13.617,46.256Z" transform="translate(-7.63 -45.01)" fill="#f7b319"/>
        </g>
        <g id="Grupo_1107427" data-name="Grupo 1107427" transform="translate(5.066 27.703)">
          <path id="Trazado_880699" data-name="Trazado 880699" d="M13.617,33.946v3.513A1.249,1.249,0,0,1,12.371,38.7H8.876A1.249,1.249,0,0,1,7.63,37.459V33.946A1.249,1.249,0,0,1,8.876,32.7h3.5A1.241,1.241,0,0,1,13.617,33.946Z" transform="translate(-7.63 -32.7)" fill="#f7b319"/>
        </g>
        <g id="Grupo_1107428" data-name="Grupo 1107428" transform="translate(5.066 16.587)">
          <path id="Trazado_880700" data-name="Trazado 880700" d="M13.617,21.636v3.513a1.249,1.249,0,0,1-1.246,1.246H8.876A1.249,1.249,0,0,1,7.63,25.149V21.636A1.249,1.249,0,0,1,8.876,20.39h3.5A1.235,1.235,0,0,1,13.617,21.636Z" transform="translate(-7.63 -20.39)" fill="#f7b319"/>
        </g>
        <g id="Grupo_1107429" data-name="Grupo 1107429" transform="translate(5.066 5.463)">
          <path id="Trazado_880701" data-name="Trazado 880701" d="M13.617,9.316v3.513a1.249,1.249,0,0,1-1.246,1.246H8.876A1.249,1.249,0,0,1,7.63,12.829V9.316A1.249,1.249,0,0,1,8.876,8.07h3.5A1.241,1.241,0,0,1,13.617,9.316Z" transform="translate(-7.63 -8.07)" fill="#f7b319"/>
        </g>
        <g id="Grupo_1107430" data-name="Grupo 1107430">
          <path id="Trazado_880702" data-name="Trazado 880702" d="M21.994,51.909H5.325a3.306,3.306,0,0,1-3.3-3.3V5.325a3.306,3.306,0,0,1,3.3-3.3H38.753a3.306,3.306,0,0,1,3.3,3.3v8.786a.659.659,0,0,1-1.318,0V5.325a1.992,1.992,0,0,0-1.987-1.987H5.325A1.987,1.987,0,0,0,3.338,5.325V48.6a1.992,1.992,0,0,0,1.987,1.987H21.994a.659.659,0,1,1,0,1.318Z" transform="translate(-2.02 -2.02)" fill="#010101"/>
        </g>
        <g id="Grupo_1107437" data-name="Grupo 1107437" transform="translate(4.406 37.764)">
          <g id="Grupo_1107433" data-name="Grupo 1107433">
            <g id="Grupo_1107431" data-name="Grupo 1107431" transform="translate(0 0.395)">
              <path id="Trazado_880703" data-name="Trazado 880703" d="M12.3,51.6H8.805A1.911,1.911,0,0,1,6.9,49.7V46.185A1.911,1.911,0,0,1,8.805,44.28h3.5a1.911,1.911,0,0,1,1.905,1.905V49.7A1.913,1.913,0,0,1,12.3,51.6Zm-3.494-6a.586.586,0,0,0-.587.587v3.513a.586.586,0,0,0,.587.587h3.5a.586.586,0,0,0,.587-.587V46.194a.586.586,0,0,0-.587-.587Z" transform="translate(-6.9 -44.28)" fill="#010101"/>
            </g>
            <g id="Grupo_1107432" data-name="Grupo 1107432" transform="translate(2.151)">
              <path id="Trazado_880704" data-name="Trazado 880704" d="M11.222,48.96a1.5,1.5,0,0,1-1.056-.433l-.686-.686a.649.649,0,0,1,0-.93.657.657,0,0,1,.93,0l.7.686a.19.19,0,0,0,.235,0L14.9,44.039a.649.649,0,0,1,.93,0,.657.657,0,0,1,0,.93l-3.558,3.558A1.453,1.453,0,0,1,11.222,48.96Z" transform="translate(-9.283 -43.842)" fill="#010101"/>
            </g>
          </g>
          <g id="Grupo_1107436" data-name="Grupo 1107436" transform="translate(10.682 2.373)">
            <g id="Grupo_1107434" data-name="Grupo 1107434" transform="translate(0 4.027)">
              <path id="Trazado_880705" data-name="Trazado 880705" d="M24.672,52.248H19.389a.659.659,0,0,1,0-1.318h5.282a.659.659,0,0,1,0,1.318Z" transform="translate(-18.73 -50.93)" fill="#010101"/>
            </g>
            <g id="Grupo_1107435" data-name="Grupo 1107435" transform="translate(0)">
              <path id="Trazado_880706" data-name="Trazado 880706" d="M27.949,47.788h-8.56a.659.659,0,0,1,0-1.318h8.56a.659.659,0,1,1,0,1.318Z" transform="translate(-18.73 -46.47)" fill="#010101"/>
            </g>
          </g>
        </g>
        <g id="Grupo_1107444" data-name="Grupo 1107444" transform="translate(4.406 26.649)">
          <g id="Grupo_1107440" data-name="Grupo 1107440">
            <g id="Grupo_1107438" data-name="Grupo 1107438" transform="translate(0 0.395)">
              <path id="Trazado_880707" data-name="Trazado 880707" d="M12.3,39.293H8.805A1.911,1.911,0,0,1,6.9,37.388V33.875A1.911,1.911,0,0,1,8.805,31.97h3.5a1.911,1.911,0,0,1,1.905,1.905v3.513A1.913,1.913,0,0,1,12.3,39.293Zm-3.494-6a.586.586,0,0,0-.587.587v3.513a.586.586,0,0,0,.587.587h3.5a.586.586,0,0,0,.587-.587V33.875a.586.586,0,0,0-.587-.587Z" transform="translate(-6.9 -31.97)" fill="#010101"/>
            </g>
            <g id="Grupo_1107439" data-name="Grupo 1107439" transform="translate(2.151)">
              <path id="Trazado_880708" data-name="Trazado 880708" d="M11.222,36.65a1.489,1.489,0,0,1-1.056-.433l-.686-.686a.658.658,0,0,1,.93-.93l.686.686a.144.144,0,0,0,.235,0l3.558-3.558a.649.649,0,0,1,.93,0,.657.657,0,0,1,0,.93L12.26,36.217A1.4,1.4,0,0,1,11.222,36.65Z" transform="translate(-9.283 -31.533)" fill="#010101"/>
            </g>
          </g>
          <g id="Grupo_1107443" data-name="Grupo 1107443" transform="translate(10.673 2.373)">
            <g id="Grupo_1107441" data-name="Grupo 1107441" transform="translate(0 4.027)">
              <path id="Trazado_880709" data-name="Trazado 880709" d="M33.059,39.938H19.379a.659.659,0,0,1,0-1.318h13.68a.659.659,0,0,1,0,1.318Z" transform="translate(-18.72 -38.62)" fill="#010101"/>
            </g>
            <g id="Grupo_1107442" data-name="Grupo 1107442" transform="translate(0)">
              <path id="Trazado_880710" data-name="Trazado 880710" d="M30.3,35.478H19.379a.659.659,0,1,1,0-1.318H30.3a.659.659,0,1,1,0,1.318Z" transform="translate(-18.72 -34.16)" fill="#010101"/>
            </g>
          </g>
        </g>
        <g id="Grupo_1107451" data-name="Grupo 1107451" transform="translate(4.406 15.533)">
          <g id="Grupo_1107447" data-name="Grupo 1107447">
            <g id="Grupo_1107445" data-name="Grupo 1107445" transform="translate(0 0.386)">
              <path id="Trazado_880711" data-name="Trazado 880711" d="M12.3,26.973H8.805A1.911,1.911,0,0,1,6.9,25.068V21.555A1.911,1.911,0,0,1,8.805,19.65h3.5a1.911,1.911,0,0,1,1.905,1.905v3.513A1.908,1.908,0,0,1,12.3,26.973Zm-3.494-6a.586.586,0,0,0-.587.587v3.513a.586.586,0,0,0,.587.587h3.5a.586.586,0,0,0,.587-.587V21.564a.586.586,0,0,0-.587-.587Z" transform="translate(-6.9 -19.65)" fill="#010101"/>
            </g>
            <g id="Grupo_1107446" data-name="Grupo 1107446" transform="translate(2.151)">
              <path id="Trazado_880712" data-name="Trazado 880712" d="M11.222,24.34a1.5,1.5,0,0,1-1.056-.433l-.686-.686a.649.649,0,0,1,0-.93.657.657,0,0,1,.93,0l.686.686a.19.19,0,0,0,.235,0l3.558-3.558a.649.649,0,0,1,.93,0,.657.657,0,0,1,0,.93L12.278,23.9A1.461,1.461,0,0,1,11.222,24.34Z" transform="translate(-9.283 -19.222)" fill="#010101"/>
            </g>
          </g>
          <g id="Grupo_1107450" data-name="Grupo 1107450" transform="translate(10.673 2.373)">
            <g id="Grupo_1107448" data-name="Grupo 1107448" transform="translate(0 4.018)">
              <path id="Trazado_880713" data-name="Trazado 880713" d="M27.226,27.618H19.379a.659.659,0,0,1,0-1.318h7.847a.659.659,0,0,1,0,1.318Z" transform="translate(-18.72 -26.3)" fill="#010101"/>
            </g>
            <g id="Grupo_1107449" data-name="Grupo 1107449">
              <path id="Trazado_880714" data-name="Trazado 880714" d="M26.8,23.168H19.379a.659.659,0,0,1,0-1.318H26.8a.659.659,0,1,1,0,1.318Z" transform="translate(-18.72 -21.85)" fill="#010101"/>
            </g>
          </g>
        </g>
        <g id="Grupo_1107458" data-name="Grupo 1107458" transform="translate(4.406 4.409)">
          <g id="Grupo_1107454" data-name="Grupo 1107454">
            <g id="Grupo_1107452" data-name="Grupo 1107452" transform="translate(0 0.395)">
              <path id="Trazado_880715" data-name="Trazado 880715" d="M12.3,14.663H8.805A1.911,1.911,0,0,1,6.9,12.758V9.245A1.911,1.911,0,0,1,8.805,7.34h3.5a1.911,1.911,0,0,1,1.905,1.905v3.513A1.908,1.908,0,0,1,12.3,14.663Zm-3.494-6a.586.586,0,0,0-.587.587v3.513a.586.586,0,0,0,.587.587h3.5a.586.586,0,0,0,.587-.587V9.245a.586.586,0,0,0-.587-.587h-3.5Z" transform="translate(-6.9 -7.34)" fill="#010101"/>
            </g>
            <g id="Grupo_1107453" data-name="Grupo 1107453" transform="translate(2.151)">
              <path id="Trazado_880716" data-name="Trazado 880716" d="M11.222,12.02a1.5,1.5,0,0,1-1.056-.433L9.479,10.9a.649.649,0,0,1,0-.93.657.657,0,0,1,.93,0l.686.686a.19.19,0,0,0,.235,0L14.888,7.1a.658.658,0,1,1,.93.93L12.26,11.587A1.417,1.417,0,0,1,11.222,12.02Z" transform="translate(-9.283 -6.903)" fill="#010101"/>
            </g>
          </g>
          <g id="Grupo_1107457" data-name="Grupo 1107457" transform="translate(10.673 2.382)">
            <g id="Grupo_1107455" data-name="Grupo 1107455" transform="translate(0 4.018)">
              <path id="Trazado_880717" data-name="Trazado 880717" d="M38.612,15.308H19.379a.659.659,0,0,1,0-1.318H38.6a.663.663,0,0,1,.659.659.655.655,0,0,1-.65.659Z" transform="translate(-18.72 -13.99)" fill="#010101"/>
            </g>
            <g id="Grupo_1107456" data-name="Grupo 1107456">
              <path id="Trazado_880718" data-name="Trazado 880718" d="M33.059,10.858H19.379a.659.659,0,0,1,0-1.318h13.68a.659.659,0,0,1,0,1.318Z" transform="translate(-18.72 -9.54)" fill="#010101"/>
            </g>
          </g>
        </g>
      </g>
    </g>
  </g>
</svg>
