<svg xmlns="http://www.w3.org/2000/svg" xmlns:xlink="http://www.w3.org/1999/xlink" width="273.626" height="283.002" viewBox="0 0 273.626 283.002">
  <defs>
    <clipPath id="clip-path">
      <rect id="Rectángulo_405381" data-name="Rectángulo 405381" width="273.626" height="268.143" fill="none"/>
    </clipPath>
  </defs>
  <g id="_14" data-name="14" transform="translate(-1019.66 -5458)">
    <rect id="woman-using-computer" width="206" height="245" rx="9" transform="translate(1019.66 5458)" fill="#0a2233"/>
    <g id="Grupo_78298" data-name="Grupo 78298" transform="translate(1022.221 5601.799)">
      <path id="Trazado_99257" data-name="Trazado 99257" d="M417.824,104.5a1.807,1.807,0,1,1-1.806-1.725A1.767,1.767,0,0,1,417.824,104.5Z" transform="translate(-414.214 -102.779)" fill="#fbfbf9"/>
      <path id="Trazado_99258" data-name="Trazado 99258" d="M426.27,104.5a1.807,1.807,0,1,1-1.8-1.725A1.766,1.766,0,0,1,426.27,104.5Z" transform="translate(-406.416 -102.779)" fill="#fbfbf9"/>
      <path id="Trazado_99259" data-name="Trazado 99259" d="M434.716,104.5a1.807,1.807,0,1,1-1.8-1.725A1.766,1.766,0,0,1,434.716,104.5Z" transform="translate(-398.618 -102.779)" fill="#fbfbf9"/>
      <path id="Trazado_99260" data-name="Trazado 99260" d="M443.163,104.5a1.807,1.807,0,1,1-1.806-1.725A1.767,1.767,0,0,1,443.163,104.5Z" transform="translate(-390.819 -102.779)" fill="#fbfbf9"/>
      <path id="Trazado_99261" data-name="Trazado 99261" d="M451.609,104.5a1.807,1.807,0,1,1-1.8-1.725A1.766,1.766,0,0,1,451.609,104.5Z" transform="translate(-383.021 -102.779)" fill="#fbfbf9"/>
      <ellipse id="Elipse_3975" data-name="Elipse 3975" cx="1.805" cy="1.726" rx="1.805" ry="1.726" transform="translate(0 13.809)" fill="#fbfbf9"/>
      <path id="Trazado_99268" data-name="Trazado 99268" d="M426.27,112.012a1.807,1.807,0,1,1-1.8-1.725A1.767,1.767,0,0,1,426.27,112.012Z" transform="translate(-406.416 -96.478)" fill="#fbfbf9"/>
      <ellipse id="Elipse_3976" data-name="Elipse 3976" cx="1.805" cy="1.726" rx="1.805" ry="1.726" transform="translate(32.488 13.809)" fill="#fbfbf9"/>
      <path id="Trazado_99269" data-name="Trazado 99269" d="M443.163,112.012a1.807,1.807,0,1,1-1.806-1.725A1.768,1.768,0,0,1,443.163,112.012Z" transform="translate(-390.819 -96.478)" fill="#fbfbf9"/>
      <path id="Trazado_99270" data-name="Trazado 99270" d="M451.609,112.012a1.807,1.807,0,1,1-1.8-1.725A1.768,1.768,0,0,1,451.609,112.012Z" transform="translate(-383.021 -96.478)" fill="#fbfbf9"/>
      <path id="Trazado_99274" data-name="Trazado 99274" d="M417.824,119.521a1.807,1.807,0,1,1-1.806-1.727A1.768,1.768,0,0,1,417.824,119.521Z" transform="translate(-414.214 -90.178)" fill="#fbfbf9"/>
      <path id="Trazado_99275" data-name="Trazado 99275" d="M426.27,119.521a1.807,1.807,0,1,1-1.8-1.727A1.767,1.767,0,0,1,426.27,119.521Z" transform="translate(-406.416 -90.178)" fill="#fbfbf9"/>
      <path id="Trazado_99276" data-name="Trazado 99276" d="M434.716,119.521a1.807,1.807,0,1,1-1.8-1.727A1.768,1.768,0,0,1,434.716,119.521Z" transform="translate(-398.618 -90.178)" fill="#fbfbf9"/>
      <path id="Trazado_99277" data-name="Trazado 99277" d="M443.163,119.521a1.807,1.807,0,1,1-1.806-1.727A1.768,1.768,0,0,1,443.163,119.521Z" transform="translate(-390.819 -90.178)" fill="#fbfbf9"/>
      <path id="Trazado_99278" data-name="Trazado 99278" d="M451.609,119.521a1.807,1.807,0,1,1-1.8-1.727A1.768,1.768,0,0,1,451.609,119.521Z" transform="translate(-383.021 -90.178)" fill="#fbfbf9"/>
      <ellipse id="Elipse_3980" data-name="Elipse 3980" cx="1.805" cy="1.726" rx="1.805" ry="1.726" transform="translate(0 41.426)" fill="#fbfbf9"/>
      <path id="Trazado_99285" data-name="Trazado 99285" d="M426.27,127.029a1.807,1.807,0,1,1-1.8-1.727A1.766,1.766,0,0,1,426.27,127.029Z" transform="translate(-406.416 -83.876)" fill="#fbfbf9"/>
      <ellipse id="Elipse_3981" data-name="Elipse 3981" cx="1.805" cy="1.726" rx="1.805" ry="1.726" transform="translate(32.488 41.426)" fill="#fbfbf9"/>
      <path id="Trazado_99286" data-name="Trazado 99286" d="M443.163,127.029a1.807,1.807,0,1,1-1.806-1.727A1.767,1.767,0,0,1,443.163,127.029Z" transform="translate(-390.819 -83.876)" fill="#fbfbf9"/>
      <path id="Trazado_99287" data-name="Trazado 99287" d="M451.609,127.029a1.807,1.807,0,1,1-1.8-1.727A1.766,1.766,0,0,1,451.609,127.029Z" transform="translate(-383.021 -83.876)" fill="#fbfbf9"/>
      <ellipse id="Elipse_3985" data-name="Elipse 3985" cx="1.805" cy="1.726" rx="1.805" ry="1.726" transform="translate(0 55.235)" fill="#fbfbf9"/>
      <path id="Trazado_99291" data-name="Trazado 99291" d="M426.27,134.537a1.807,1.807,0,1,1-1.8-1.727A1.766,1.766,0,0,1,426.27,134.537Z" transform="translate(-406.416 -77.575)" fill="#fbfbf9"/>
      <ellipse id="Elipse_3986" data-name="Elipse 3986" cx="1.805" cy="1.726" rx="1.805" ry="1.726" transform="translate(32.488 55.235)" fill="#fbfbf9"/>
      <path id="Trazado_99292" data-name="Trazado 99292" d="M443.163,134.537a1.807,1.807,0,1,1-1.806-1.727A1.767,1.767,0,0,1,443.163,134.537Z" transform="translate(-390.819 -77.575)" fill="#fbfbf9"/>
      <path id="Trazado_99293" data-name="Trazado 99293" d="M451.609,134.537a1.807,1.807,0,1,1-1.8-1.727A1.766,1.766,0,0,1,451.609,134.537Z" transform="translate(-383.021 -77.575)" fill="#fbfbf9"/>
    </g>
    <g id="Grupo_1101039" data-name="Grupo 1101039" transform="translate(1177.809 5496.56)">
      <path id="Trazado_873354" data-name="Trazado 873354" d="M325.19,458.026a13.575,13.575,0,0,0,3.988,9.63l13.784,13.78-13.784,13.78a13.621,13.621,0,0,0,19.264,19.263l13.78-13.78L376,514.48a13.62,13.62,0,0,0,19.26-19.263l-13.78-13.78,13.78-13.78a13.62,13.62,0,0,0,0-19.26h0a13.621,13.621,0,0,0-19.26,0l-13.78,13.78-13.78-13.78a13.626,13.626,0,0,0-19.264,0h0a13.577,13.577,0,0,0-3.988,9.63Z" transform="translate(-325.19 -444.408)" fill="#3ba935"/>
    </g>
    <g id="Grupo_1107404" data-name="Grupo 1107404" transform="translate(1019.66 5472.86)">
      <g id="Grupo_1107403" data-name="Grupo 1107403" transform="translate(0)" clip-path="url(#clip-path)">
        <path id="Trazado_880534" data-name="Trazado 880534" d="M227.439,207.837a2.442,2.442,0,0,1-1.684.7,3.849,3.849,0,0,1,.131,3.525c-.19.377-.534.582-.685.91a4.31,4.31,0,0,0,1.629,1.081c.449.24,1.536.73,1.5,1.206-.043.627-1.107.729-1.539.686a4.9,4.9,0,0,1-2.522-1.114c-.156-.11-.433-.37-.556-.213-.153.2.435.593.736.8s.667.459,1.016.656c.553.313,1.928.778,1.753,1.456-.134.515-1.222.538-1.692.454a6.419,6.419,0,0,1-2.713-1.4c-.232-.186-.636-.6-.747-.5-.2.186,1.011,1.2,1.847,1.725.431.272,2.174,1.008,2.021,1.611-.076.3-.638.462-1.038.439a6.335,6.335,0,0,1-3.461-1.655c-.368-.331-.952-1.15-1.139-1.032-.224.142.468,1.84.961,2.644.2.326.474.654.774,1.107.213.321.7.9.417,1.385-.182.311-.955.179-1.2.005-2.643-1.87-3.872-5.249-3.261-9.259a20.09,20.09,0,0,1,3.11-7.662q.187-.3.373-.6Z" transform="translate(-112.869 -56.101)" fill="#bb8774" fill-rule="evenodd"/>
        <path id="Trazado_880535" data-name="Trazado 880535" d="M220.919,217.292c.348-.11.71-.2.759-.563.073-.543-.887-.923-1.494-1.254a5.5,5.5,0,0,1-1.619-1.129,5.52,5.52,0,0,0,.463-.556,3.772,3.772,0,0,0,.033-3.84,9.172,9.172,0,0,1-.037,2.141,6.336,6.336,0,0,1-1.247,2.444c.7.332,3.291,1.319,3.142,2.758" transform="translate(-106.177 -57.513)" fill="#935e45" fill-rule="evenodd"/>
        <path id="Trazado_880536" data-name="Trazado 880536" d="M226.048,227.249c.726.661,1.88.789,1.639-.4a5.408,5.408,0,0,0-.955-1.444,10.417,10.417,0,0,1-1.013-1.741,5.206,5.206,0,0,0,.753,1.788c.413.743,1.117,2.057-.424,1.793" transform="translate(-117.98 -61.271)" fill="#935e45" fill-rule="evenodd"/>
        <path id="Trazado_880537" data-name="Trazado 880537" d="M223.465,224.013c.045.255-.1.338-.312.4.691.094,1.446-.268,1.14-.778a4.092,4.092,0,0,0-1.543-1.014,11.412,11.412,0,0,1-1.739-1.18c.533.732,2.264,1.493,2.454,2.575" transform="translate(-111.205 -60.66)" fill="#935e45" fill-rule="evenodd"/>
        <path id="Trazado_880538" data-name="Trazado 880538" d="M222.007,221.778c.216-.007.839-.134.826-.563-.017-.569-1-1.028-1.679-1.386a6.673,6.673,0,0,1-1.831-1.222c.071.658,2.272,1.553,2.835,2.676a.369.369,0,0,1-.151.494" transform="translate(-108.45 -59.885)" fill="#935e45" fill-rule="evenodd"/>
        <path id="Trazado_880539" data-name="Trazado 880539" d="M296.3,105.4a52.765,52.765,0,0,0-4.434-5.224,10.881,10.881,0,0,0-5.049-3.007,50.429,50.429,0,0,0-7.351-1.378c-3.823-.458-7.667-.652-11.508-.857-.721-.038-1.444-.039-2.166-.039q-18.05,0-36.1.02c-1.381,0-2.76.137-4.145.147-2.557.019-5.109-.255-7.665-.131a1.13,1.13,0,0,1-1.2-.844c-1.423-3.221-2.673-6.511-3.959-9.786C210.444,78.5,208.146,72.717,205.67,67c-.362-.834-.47-.908-1.369-.794-2.356.3-4.711.611-7.066.919-.089.012-.177.032-.266.049-.824.167-.881.234-.737,1.1.672,4,1.37,8,2.022,12.008a144.8,144.8,0,0,0,3.654,16.552,33.472,33.472,0,0,0,2.529,6.648,11.062,11.062,0,0,0,7.5,5.734,56.21,56.21,0,0,0,6.855,1.08c4,.465,8.027.66,12.044.949,4.652.335,9.3.545,13.967.489.15,0,.3,0,.451,0,.444-.02.673.175.677.634.013,1.447.228,2.877.384,4.311.458,4.213.79,8.438,1.38,12.639a50.373,50.373,0,0,1,.3,11.249c-.133,1.587-.211,3.179-.412,4.761a.725.725,0,0,0,.047.53c.262.1.316-.125.354-.274.142-.553.278-1.109.372-1.671.063-.379.227-.5.608-.458,1.2.123,2.392.24,3.6.29,1.29.054,2.576.226,3.867.268,2.1.069,4.206.181,6.308.269,5.986.249,11.97.133,17.955.091,1.022-.007,2.043-.083,3.063-.153.712-.049.9-.233.881-.963-.024-.81-.105-1.621-.2-2.425a58.605,58.605,0,0,1-.338-8.647,45.628,45.628,0,0,1,.866-6.7c.373-2.163.755-4.324.993-6.508.039-.351.116-.7.175-1.038.341.014,9.211,13.765,14.063,20.1.892,1.164.955.805.139,2.254a80.546,80.546,0,0,0-5.678,12.069c-1.567,4.328-3.108,8.663-4.428,13.073-.364,1.218-.346,1.211.8,1.721,2.116.942,4.2,1.955,6.236,3.058.875.473.9.461,1.443-.342,3.673-5.473,7.115-11.087,10.267-16.877a52.11,52.11,0,0,0,3.953-8.891,26.506,26.506,0,0,0,.8-3.146,12.891,12.891,0,0,0-.971-7.319,62.418,62.418,0,0,0-3.232-6.451q-3.41-6.311-7.047-12.5c-1.241-2.1-5.986-9.033-6.173-9.285" transform="translate(-182.715 -18.126)" fill="#cecef4"/>
        <path id="Trazado_880540" data-name="Trazado 880540" d="M329.488,105.326a1.768,1.768,0,0,1-.357-.028.339.339,0,0,1-.21-.139c-.064-.125.023-.226.124-.3a1.815,1.815,0,0,1,.382-.235c1.158-.426,2.316-.853,3.482-1.259.13.3.254.6.387.905.2.448.428.733.842.817l.019.035a32.769,32.769,0,0,1-4.669.2" transform="translate(-299.332 -28.317)" fill="#a4a4e4"/>
        <path id="Trazado_880541" data-name="Trazado 880541" d="M294.352,103.815a18.083,18.083,0,0,0,6.591,6.9,24.46,24.46,0,0,0,6.286,2.189c2.983.726,6.016,1.179,9.05,1.632,2.8.417,5.589.877,8.409,1.04,2.85.166,5.71.182,8.565.274.871.028,1.742.082,2.611.142.585.041.7.136.71.7.009.89.014,1.781.007,2.672-.068-.3-.286-.435-.651-.419-.15.007-.3,0-.452,0-4.663.055-9.315-.155-13.967-.489-4.017-.289-8.041-.484-12.044-.949a56.211,56.211,0,0,1-6.855-1.08,11.062,11.062,0,0,1-7.5-5.734,33.519,33.519,0,0,1-2.529-6.648c-1.089-3.812-2-7.663-2.755-11.547.38,1.152.757,2.3,1.157,3.45a42.759,42.759,0,0,0,3.365,7.867" transform="translate(-273.392 -25.339)" fill="#a4a4e4"/>
        <path id="Trazado_880542" data-name="Trazado 880542" d="M209.693,128.439c.267.081.347.327.47.524q2.148,3.445,4.287,6.895c1.859,2.987,3.7,5.986,5.715,8.872,2.5,3.576,4.9,7.212,7.131,10.959a1.445,1.445,0,0,1-.032,1.72c-2.478,4.019-4.854,8.1-6.978,12.318-2.354,4.674-4.417,9.483-6.394,14.328,0,.009-.007.017-.009.026-.87-.394-.859-.488-.526-1.6,1.32-4.41,2.861-8.745,4.428-13.073a80.433,80.433,0,0,1,5.679-12.069c.815-1.449.752-1.09-.139-2.254-4.852-6.333-13.723-20.084-14.063-20.1-.011.061-.023.123-.034.184.146-2.04.183-4.084.22-6.128,0-.22-.052-.494.249-.606" transform="translate(-105.848 -35.184)" fill="#a4a4e4"/>
        <path id="Trazado_880543" data-name="Trazado 880543" d="M268.106,117.211c-.348,2.071-.153,18.249-.115,23.636.021,2.949-.187,5.889-.207,8.835,0,.412-.007.825.018,1.235a1.38,1.38,0,0,0,.466.995c.213.184.463.356.739.227.25-.116.252-.413.261-.665.023-.634.047-1.268.046-1.9-.007-2.821.031-5.643-.046-8.461-.106-3.862-.317-7.72-.452-11.581-.062-1.773-.127-3.545-.207-5.317-.1-2.337-.261-4.67-.5-7" transform="translate(-190.116 -32.109)" fill="#a4a4e4"/>
        <path id="Trazado_880544" data-name="Trazado 880544" d="M263.337,87.9l2.257,7.677a26.382,26.382,0,0,0,12.334-1.067c-.762-2.652-1.761-4.864-2.013-7.973a6.564,6.564,0,0,1,.188-3.2c.315-.593,1.292-.73,1.764-1.205.933-.944,1.9-3.209.46-4.05a9.853,9.853,0,0,0,.633-4.912c-.638-4.632-3-7.966-8.435-8.061-2.657-.047-6.8.746-8.925,2.508-1.767,1.46-2.651,4.778-3.611,8.088-.881,3.041-1.906,5.571-.9,8.368a6.3,6.3,0,0,0,6.245,3.825" transform="translate(-191.796 -17.835)" fill="#bb8774" fill-rule="evenodd"/>
        <path id="Trazado_880545" data-name="Trazado 880545" d="M269.925,98.57c5.34-1.341,5.87-5.05,5.87-5.05a15.816,15.816,0,0,1-6.719,2.16Z" transform="translate(-197.535 -25.619)" fill="#935e45" fill-rule="evenodd"/>
        <path id="Trazado_880546" data-name="Trazado 880546" d="M280.022,74.3c-.025.292.859.6,1.971.694s2.035-.066,2.059-.356-.857-.6-1.972-.694-2.035.066-2.058.356" transform="translate(-213.74 -20.25)" fill="#1e1e77" fill-rule="evenodd"/>
        <path id="Trazado_880547" data-name="Trazado 880547" d="M283.194,78.557a.814.814,0,0,0,.467,1.019c.357.073.728-.264.828-.756a.813.813,0,0,0-.468-1.018c-.357-.071-.726.266-.826.755" transform="translate(-216.486 -21.31)" fill="#1e1e77" fill-rule="evenodd"/>
        <path id="Trazado_880548" data-name="Trazado 880548" d="M272,75.388c-.11.286.7.858,1.8,1.275s2.087.525,2.2.237-.7-.86-1.8-1.28S272.11,75.1,272,75.388" transform="translate(-199.864 -20.607)" fill="#1e1e77" fill-rule="evenodd"/>
        <path id="Trazado_880549" data-name="Trazado 880549" d="M274.79,80.522a.862.862,0,0,0,.492,1.077c.378.076.77-.282.874-.8a.852.852,0,0,0-.494-1.074c-.377-.077-.767.282-.873.8" transform="translate(-202.053 -21.837)" fill="#1e1e77" fill-rule="evenodd"/>
        <path id="Trazado_880550" data-name="Trazado 880550" d="M280.634,84.211a.528.528,0,0,1-.06-.018,1.611,1.611,0,0,1-.971-.862c-.317-.766.1-1.733.627-2.958a17.956,17.956,0,0,0,.966-2.634.336.336,0,0,1,.65.168,18.693,18.693,0,0,1-1,2.732c-.448,1.035-.832,1.931-.625,2.434a.994.994,0,0,0,.6.5.335.335,0,0,1-.188.64" transform="translate(-211.16 -21.227)" fill="#935e45"/>
        <path id="Trazado_880551" data-name="Trazado 880551" d="M279.2,88.951a4.394,4.394,0,0,1-1.08-.386.34.34,0,0,1-.147-.452.335.335,0,0,1,.45-.147c1.759.884,2.579-.075,2.613-.116a.339.339,0,0,1,.47-.047.33.33,0,0,1,.051.467c.286-.385-1.138.929-2.358.682" transform="translate(-209.806 -24.032)" fill="#935e45"/>
        <path id="Trazado_880552" data-name="Trazado 880552" d="M275.888,66.051c-.189-.087-.386-.8-.675-1.2-1.379-1.915-4.923-2.871-8.482-3.586a32.635,32.635,0,0,1-6.568-2.067c-2.469-.807-3.356-.526-4.27.326a2.143,2.143,0,0,0-.433,2.408,4.462,4.462,0,0,0,2,2.077c-.641.144-1.586.078-2.169.563-1.157.965-.258,2.305.638,3,1.857,1.431,7.081,1.923,9.906,2.759,1.862.55,2.652,1.467,2.924,3.913.076.69.148,1.584.178,2.486.021.634-.085,2.16.314,2.343.643.294,1.759-1.533,2.174-1.938.432-.422,1.169-1.114,1.6-1.12,2.139-.025,1.788,2.893.767,4.075-.352.406-.919.668-1.071,1.041a12.185,12.185,0,0,0-.228,2.718,4.957,4.957,0,0,0,2.227-.64c1.483-.974,2.176-3.63,2.824-6.533.291-1.3.583-2.684.794-4.017.374-2.353.4-3.977-1.241-4.764.073-.4,1.237-.572,1.322-1.218a.507.507,0,0,0-.663-.556c.452-.872.807-2.359.06-2.608-.945-.315-1.5,1.669-1.931,2.538" transform="translate(-189.881 -16.085)" fill="#1e1e77" fill-rule="evenodd"/>
        <path id="Trazado_880553" data-name="Trazado 880553" d="M276.1,105.767c1.12,1.242-1.934,5.472-2.726,5.453-.518-.012-2.508-3.243-3.319-4.459a2.747,2.747,0,0,1-.677-1.861c.121-.667,1.279-1.621,1.75-2.027s1.072.076,1.65.449c.375.243,2.783,1.935,3.322,2.445" transform="translate(-198.294 -28.139)" fill="#fff" fill-rule="evenodd"/>
        <path id="Trazado_880554" data-name="Trazado 880554" d="M257.076,105.715c-1.279,1.078,1.165,5.686,1.953,5.776.516.058,5.175-3.754,6.145-4.846a2.743,2.743,0,0,0,.926-1.75c-.028-.679-1.045-1.782-1.457-2.249s-1.071-.073-1.693.219c-.407.189-5.27,2.42-5.875,2.85" transform="translate(-178.866 -28.06)" fill="#fff" fill-rule="evenodd"/>
        <path id="Trazado_880555" data-name="Trazado 880555" d="M269.332,124.6a24.931,24.931,0,0,0,2.718-4.706c.052-.714-1.778-8.855-1.7-9.125.1-.349.678-.5.771-.815a5.742,5.742,0,0,0-.929-2.352.384.384,0,0,0-.155-.042h0a.075.075,0,0,0-.018,0l-.019,0h0a.414.414,0,0,0-.158.023,5.749,5.749,0,0,0-1.189,2.231c.056.321.614.539.673.9.045.277-2.7,8.157-2.727,8.873a24.924,24.924,0,0,0,2.165,4.984.416.416,0,0,0,.568.033" transform="translate(-191.991 -29.464)" fill="#af5091"/>
        <path id="Trazado_880556" data-name="Trazado 880556" d="M305.388,345.535l-9.33-1.7L292.916,355.3l11.311,1.87Z" transform="translate(-244.438 -94.191)" fill="#bb8774" fill-rule="evenodd"/>
        <path id="Trazado_880557" data-name="Trazado 880557" d="M293.289,347.949c3.814,3.256,9.967,1.226,9.967,1.226Z" transform="translate(-242.576 -95.317)" fill="#935e45" fill-rule="evenodd"/>
        <path id="Trazado_880558" data-name="Trazado 880558" d="M308.338,351.527c.443.1,2.03.325,2.522,1,.51.7.189,1.65.027,2.908,3.019.356,4.3-2.469,8.185-1.189a63.126,63.126,0,0,1-1.176,10.189c-8.038-1.159-16.329-2.675-24.466-3.971a6.376,6.376,0,0,1,6.036-4.446c2.639-.415,5.7-.692,7.462-2.543a15.373,15.373,0,0,0,1.411-1.946" transform="translate(-258.493 -96.297)" fill="#fff" fill-rule="evenodd"/>
        <path id="Trazado_880559" data-name="Trazado 880559" d="M310.561,356.185c-.281.426-1.291-.3-2.1-.577-.476-.157-1.652-.309-1.669-.771-.028-.829,1.723-.5,2.434-.193.688.3,1.751.91,1.336,1.541" transform="translate(-259.777 -97.06)" fill="#2f2fa7" fill-rule="evenodd"/>
        <path id="Trazado_880560" data-name="Trazado 880560" d="M313.491,358.273c-.508.5-1.562-.362-2.355-.68-.418-.168-.893-.307-1.309-.436-.394-.119-1.15-.2-1.072-.54.167-.736,1.4-.592,2.238-.355,1.061.3,3.256,1.275,2.5,2.01" transform="translate(-264.193 -97.542)" fill="#2f2fa7" fill-rule="evenodd"/>
        <path id="Trazado_880561" data-name="Trazado 880561" d="M321.857,357.21c-.782.137-1.568.243-2.322.363a7.41,7.41,0,0,0-4.979,2.444,7.512,7.512,0,0,0-1.058,2c3.654.583,7.342,1.211,11.021,1.828a7.159,7.159,0,0,0-2.662-6.637" transform="translate(-278.563 -97.854)" fill="#2f2fa7"/>
        <path id="Trazado_880562" data-name="Trazado 880562" d="M293.709,366.055c1.654.259,3.305.514,4.942.751.389-2.255.754-4.491.972-6.621a8.232,8.232,0,0,0-5.914,5.87" transform="translate(-239.249 -98.668)" fill="#2f2fa7"/>
        <path id="Trazado_880563" data-name="Trazado 880563" d="M198.921,331.38l-7.75,5.464,5.97,10.275,9.263-6.755Z" transform="translate(-71.581 -90.778)" fill="#bb8774" fill-rule="evenodd"/>
        <path id="Trazado_880564" data-name="Trazado 880564" d="M198.765,340.014a9.487,9.487,0,0,0,8.321-5.534Z" transform="translate(-77.776 -91.627)" fill="#935e45" fill-rule="evenodd"/>
        <path id="Trazado_880565" data-name="Trazado 880565" d="M191.285,343.871c.383-.245,1.655-1.221,2.48-1.1.855.125,1.31,1.022,2.093,2.019,2.371-1.9,1.252-4.795,4.891-6.67a63.111,63.111,0,0,1,6.441,7.982c-6.462,4.919-13.355,9.769-19.985,14.662a7.5,7.5,0,0,1-.686-2.159,7.413,7.413,0,0,1,1.747-5.263c1.555-2.172,3.5-4.546,3.418-7.1a15.345,15.345,0,0,0-.4-2.37" transform="translate(-68.958 -92.625)" fill="#fff" fill-rule="evenodd"/>
        <path id="Trazado_880566" data-name="Trazado 880566" d="M207.393,348.71c.107.5-1.122.707-1.884,1.094-.446.229-1.379.961-1.72.65-.61-.562.849-1.583,1.569-1.871.7-.28,1.876-.611,2.035.127" transform="translate(-81.631 -95.402)" fill="#2f2fa7" fill-rule="evenodd"/>
        <path id="Trazado_880567" data-name="Trazado 880567" d="M208.105,351.7c0,.709-1.353.86-2.135,1.2-.413.181-.845.422-1.229.628-.361.2-.946.683-1.137.386-.407-.635.558-1.412,1.316-1.845.957-.547,3.192-1.428,3.185-.372" transform="translate(-82.239 -96.209)" fill="#2f2fa7" fill-rule="evenodd"/>
        <path id="Trazado_880568" data-name="Trazado 880568" d="M204.722,356.438c-.451.653-.926,1.289-1.369,1.91a7.413,7.413,0,0,0-1.747,5.263,7.5,7.5,0,0,0,.686,2.159c2.978-2.2,6.01-4.386,9.03-6.578a7.163,7.163,0,0,0-6.6-2.754" transform="translate(-84.046 -97.628)" fill="#2f2fa7"/>
        <path id="Trazado_880569" data-name="Trazado 880569" d="M187.632,350.1c1.345-1,2.684-2,4-3-1.334-1.858-2.674-3.686-4.04-5.335a8.231,8.231,0,0,0,.04,8.333" transform="translate(-53.401 -93.624)" fill="#2f2fa7"/>
        <path id="Trazado_880570" data-name="Trazado 880570" d="M225.827,215.147c.184,1.8.375,3.587.549,5.374a143.992,143.992,0,0,0,3.806,22.933,64.03,64.03,0,0,0,7.377,16.7,126.138,126.138,0,0,0,11.234,15.575q6.27,7.519,12.563,15.02,2.289,2.731,4.618,5.43c.575.671.61.675,1.319.16,3.336-2.424,6.792-4.669,10.262-6.893.177-.113.353-.231.527-.349.841-.571.846-.619.451-1.527a117.546,117.546,0,0,0-9.108-16.8c-3.6-5.591-7.355-11.077-11.105-16.566-1.815-2.658-3.621-5.325-5.186-8.144a38.543,38.543,0,0,1-2.67-5.915,22.143,22.143,0,0,1-.953-7.478c0-3.611.155-7.218.284-10.823.263-7.34.128-14.678.091-22.018,0-.3-.046-.6-.067-.9a9.946,9.946,0,0,1,.315-3.743,37.036,37.036,0,0,0-.009-22.467,1.427,1.427,0,0,0-1.451-1.151q-5.979-.485-11.972-.717c-2.617-.1-5.234-.064-7.847-.185-2.767-.128-5.535-.058-8.3-.171-2.014-.084-4.028-.123-6.042-.174-1.077-.028-1.1-.048-1.39,1.035q-1.141,4.271-2.244,8.552c-3.111,12.183-5.846,24.454-8.406,36.762-1.292,6.212-2.45,12.452-3.614,18.69a48.782,48.782,0,0,0-.817,8.521c-.03,3.46-.3,6.908-.48,10.36-.023.42-.026.842-.035,1.263-.07,3.368-.174,6.735-.261,10.1-.09,3.519-.016,7.039-.143,10.556-.109,3.036-.091,6.076-.21,9.11-.091,2.316-.081,4.632-.154,6.945-.06,1.893-.186,3.784-.282,5.675-.011.211-.025.42-.027.631-.007.81.033.882.82.987q4.068.543,8.14,1.056c1.372.174,2.747.322,4.12.483.12.014.239.032.359.042.974.081,1.084.021,1.337-.908.489-1.8.988-3.6,1.43-5.408,1.343-5.493,2.7-10.984,3.769-16.537a71.9,71.9,0,0,0,1.022-8.321c.624-8.379.481-16.772.537-25.163a52.409,52.409,0,0,1,1.267-11.364,50.743,50.743,0,0,1,2.24-6.855c1.4-3.65,4.123-11.3,4.335-11.386" transform="translate(-147.796 -46.654)" fill="#2f2fa7"/>
        <path id="Trazado_880571" data-name="Trazado 880571" d="M273.718,276.12c.227-4.292.428-8.586.741-12.874.269-3.688.423-7.382.712-11.069a79.665,79.665,0,0,1,2.975-16.115c1.473-5.052,2.966-10.094,4.259-15.2a137.125,137.125,0,0,0,3.656-21.311c.023-.257-.028-.547.258-.77a.685.685,0,0,1,.168.473c.4,3.011.63,6.037.881,9.063.151,1.827.274,3.656.436,5.482a89.762,89.762,0,0,1,.492,9.37c-.008-.076-.016-.15-.023-.225-.213.087-2.933,7.736-4.336,11.386a50.714,50.714,0,0,0-2.239,6.856,52.4,52.4,0,0,0-1.267,11.364c-.055,8.391.087,16.784-.537,25.163a71.9,71.9,0,0,1-1.022,8.321c-1.073,5.554-2.426,11.044-3.769,16.537-.443,1.811-.942,3.609-1.43,5.408-.253.929-.363.989-1.337.908-.12-.01-.239-.028-.359-.042l-2.626-.3a191.925,191.925,0,0,0,3.29-19.031c.548-4.447.841-8.92,1.077-13.392" transform="translate(-210.242 -54.455)" fill="#1e1e77"/>
        <path id="Trazado_880572" data-name="Trazado 880572" d="M206.9,258.973a93.528,93.528,0,0,1-7.9-11.746,22.885,22.885,0,0,1-2.546-11.5c.1-4.357.5-8.7.786-13.052.248-3.812.27-7.633.348-11.451.04-1.982-.086-3.968-.146-5.952-.014-.45-.062-.9-.094-1.349-.137-1.949-.281-3.9-.409-5.848a23.358,23.358,0,0,1,.755-6.789,41.245,41.245,0,0,0,.836-14.957,31.02,31.02,0,0,0-.867-4.6q1.474.1,2.946.223a1.428,1.428,0,0,1,1.451,1.152,37.034,37.034,0,0,1,.009,22.467,9.952,9.952,0,0,0-.315,3.744c.02.3.065.6.067.9.036,7.34.171,14.678-.091,22.018-.129,3.606-.283,7.213-.284,10.823a22.126,22.126,0,0,0,.953,7.478,38.474,38.474,0,0,0,2.67,5.915c1.565,2.819,3.371,5.485,5.186,8.143,3.75,5.49,7.505,10.977,11.105,16.567a117.541,117.541,0,0,1,9.108,16.8c.394.908.389.956-.452,1.527-.174.118-.35.235-.527.349-.37.237-.737.476-1.107.713A135.749,135.749,0,0,0,218,273.885c-3.622-5.028-7.4-9.944-11.1-14.911" transform="translate(-99.736 -47.044)" fill="#1e1e77"/>
        <path id="Trazado_880573" data-name="Trazado 880573" d="M302.874,266.015a5.036,5.036,0,0,0,.03-3.163c-.029-.084-.05-.173-.086-.255-.081-.189-.121-.439-.366-.465-.269-.028-.312.234-.395.417-.5,1.088-.979,2.183-1.483,3.268-.365.786-.758,1.56-1.136,2.341-.091.187-.217.392-.088.592.163.251.425.173.653.109a4,4,0,0,0,2.869-2.844" transform="translate(-246.827 -71.807)" fill="#1e1e77"/>
        <path id="Trazado_880574" data-name="Trazado 880574" d="M255.712,270.424a5.036,5.036,0,0,0-2.143-2.326c-.08-.042-.155-.091-.237-.128-.187-.082-.389-.237-.584-.088-.216.164-.068.384,0,.574.384,1.133.781,2.262,1.157,3.4.272.823.516,1.655.775,2.483.062.2.11.435.342.492.29.072.428-.165.55-.368a4,4,0,0,0,.144-4.037" transform="translate(-165.99 -73.366)" fill="#1e1e77"/>
        <path id="Trazado_880575" data-name="Trazado 880575" d="M256.6,191.15c-2.873-1.563-7.237-7.761-8.773-12.426a19.363,19.363,0,0,0,1.573,7.606,8.085,8.085,0,0,0,5.824,4.8,2.608,2.608,0,0,0,1.376.02" transform="translate(-162.903 -48.959)" fill="#1e1e77"/>
        <path id="Trazado_880576" data-name="Trazado 880576" d="M281.23,190.63c2.482-1.35,6.251-6.7,7.576-10.731a16.719,16.719,0,0,1-1.358,6.569,6.987,6.987,0,0,1-5.029,4.145,2.26,2.26,0,0,1-1.189.017" transform="translate(-219.372 -49.281)" fill="#1e1e77"/>
        <path id="Trazado_880577" data-name="Trazado 880577" d="M270.3,177.6s-.47,12.477,1.849,14.041c0,0-2,.254-2.413-1.379-.564-2.225.564-12.662.564-12.662" transform="translate(-194.245 -48.65)" fill="#1e1e77"/>
        <path id="Trazado_880578" data-name="Trazado 880578" d="M273.294,171.749a1.025,1.025,0,0,1-1.067.977l-34.971-.432a1.024,1.024,0,0,1-1.042-1l.026-2.091a1.023,1.023,0,0,1,1.066-.978l34.972.432a1.024,1.024,0,0,1,1.042,1Z" transform="translate(-171.199 -46.082)" fill="#af5091" fill-rule="evenodd"/>
        <path id="Trazado_880579" data-name="Trazado 880579" d="M274.036,172.306a.633.633,0,1,1-1.266-.038l.112-3.811a.633.633,0,1,1,1.266.038Z" transform="translate(-198.571 -45.978)" fill="#fff" fill-rule="evenodd"/>
        <path id="Trazado_880580" data-name="Trazado 880580" d="M263.258,172.579a.633.633,0,1,1-1.266-.036l.113-3.813a.632.632,0,0,1,1.264.037Z" transform="translate(-179.967 -46.054)" fill="#fff" fill-rule="evenodd"/>
        <path id="Trazado_880581" data-name="Trazado 880581" d="M269.693,168.513v.017h0v.013l-.1,3.518a.521.521,0,0,1-.011.063.5.5,0,0,1,.014.128.576.576,0,0,1-.574.577l-3.436-.034a.578.578,0,0,1-.566-.589l0-.016a.434.434,0,0,1-.017-.141l.1-3.523a.109.109,0,0,0,0-.027.155.155,0,0,1,0-.018.577.577,0,0,1,.576-.578l3.439.034a.57.57,0,0,1,.555.478.481.481,0,0,1,.009.094m-1.258,3.145.023-.763-2.246-.021-.023.762Zm-2.17-2.576-.019.623,2.245.023.017-.624Z" transform="translate(-188.481 -45.996)" fill="#fff" fill-rule="evenodd"/>
        <path id="Trazado_880582" data-name="Trazado 880582" d="M245.435,157.93a7.709,7.709,0,0,0,4.873-2.09,33.637,33.637,0,0,0,5.053-5.493c3.4-4.418,6.772-8.851,9.733-13.58.264-.423.535-.842.773-1.28.476-.884.454-1.016-.344-1.594-.926-.671-1.859-1.333-2.812-1.965-1.931-1.28-3.882-2.529-5.883-3.7-.867-.506-.947-.508-1.512.263-3.666,4.986-7.645,9.731-11.274,14.745-.275.38-.547.762-.823,1.142a.48.48,0,0,1-.685.16c-3.145-1.588-6.475-2.747-9.7-4.142-3.874-1.676-7.767-3.31-11.7-4.852-.247-.1-.489-.2-.736-.291-.7-.256-.8-.243-1.226.409-.76,1.15-1.5,2.312-2.234,3.479-.407.648-.394.729.229,1.23,1.212.974,2.416,1.959,3.667,2.88,4.839,3.566,9.664,7.152,14.592,10.6a26.408,26.408,0,0,0,7.036,3.569,11.169,11.169,0,0,0,2.978.512" transform="translate(-149.863 -35.031)" fill="#e2b1ce"/>
        <path id="Trazado_880583" data-name="Trazado 880583" d="M247.413,153.141a.334.334,0,0,1-.035.243c-.083.108-.208.074-.313.015a1.741,1.741,0,0,1-.365-.239c-.94-.92-1.881-1.838-2.8-2.778-.015-.015-.028-.03-.041-.044a.5.5,0,0,0,.348-.229c.277-.379.548-.762.823-1.142.044-.06.089-.12.133-.18a31.915,31.915,0,0,1,2.125,4.029,1.736,1.736,0,0,1,.126.326" transform="translate(-150.852 -40.758)" fill="#bb78a2"/>
        <path id="Trazado_880584" data-name="Trazado 880584" d="M157.672,168.267c.038-3.595.065-6.527-.167-9.453a54.338,54.338,0,0,0-1.939-11.419,23.07,23.07,0,0,0-3.779-7.3q-4.141-5.472-8.585-10.7c-.913-1.081-.913-1.046-2.026-.222-2.544,1.885-5.113,3.737-7.659,5.618-1.143.844-1.261.669-.306,1.915,1.749,2.283,3.723,4.375,5.576,6.57,1.134,1.344,2.288,2.671,3.435,4a13.809,13.809,0,0,1,3.117,6.028c.659,2.916,1.34,5.827,2.069,8.727.975,3.879,3.032,11.608,3.032,11.608,2.958,4.24,5.987,9.268,5.987,9.268,1.589-3.648,1.358-11.9,1.244-14.64" transform="translate(19.62 -35.218)" fill="#e2b1ce"/>
        <path id="Trazado_880585" data-name="Trazado 880585" d="M149.589,155.4a.9.9,0,0,1,.719-.009.741.741,0,0,1-.353.451c-.99.773-1.981,1.549-2.982,2.31l-.194.149a13.666,13.666,0,0,0-.916-1.744c.094-.042.187-.086.284-.12a31.97,31.97,0,0,1,3.442-1.036" transform="translate(17.412 -42.547)" fill="#bb78a2"/>
        <path id="Trazado_880586" data-name="Trazado 880586" d="M195.559,127.979c.336.5,2.986,3.254,3.921,4.141.536.508.635.513,1.2.078,3.12-2.389,6.307-4.685,9.528-6.934.569-.4.584-.492.125-1.037-.832-.985-1.683-1.955-2.543-2.916-.8-.9-1.633-1.764-2.438-2.655a15.225,15.225,0,0,0-9.111-4.9c-2.084-.343-4.178-.561-6.282-.734-2.079-.171-4.164-.056-6.238-.185-3.722-.232-7.444-.128-11.166-.142a39.159,39.159,0,0,0-5.429.439,17.136,17.136,0,0,0-9.632,4.9,64.594,64.594,0,0,0-4.921,5.265c-.5.6-.485.677.224,1.116q3.667,2.266,7.453,4.327a1.419,1.419,0,0,1,.895,1.342,6.084,6.084,0,0,0,1.035,2.867,15.2,15.2,0,0,0,1.093,1.7,6.807,6.807,0,0,1,1.334,4.194,25.141,25.141,0,0,1-.455,5.069c-.2,1.126-.449,2.241-.653,3.366-.12.661-.012.778.64.833.087.008.176.007.264.007,4.075-.031,8.149.131,12.221.234,4.482.114,8.963.27,13.447.372,1.434.033,2.869.1,4.3.138a1.279,1.279,0,0,0,.844-.1.44.44,0,0,0,0-.349c-.633-1.957-.975-3.983-1.43-5.983a10.592,10.592,0,0,1,.023-5.139c.721-2.691,1.687-9.142,1.744-9.31" transform="translate(-47.563 -30.868)" fill="#2f2fa7"/>
        <path id="Trazado_880587" data-name="Trazado 880587" d="M215.125,79.932a9.436,9.436,0,0,0-2.032,5.468,28.393,28.393,0,0,1-.379,4.106c-.478,2.823,2.39,7.557,2.925,10.553q-2.018,0-4.036.009c-5.021.018-10.044.123-15.066.2.3-2.013,3.857-3.342,2.874-7.842-.292-1.335-3.716-5.921.776-10.313a14.265,14.265,0,0,0,3.4-4.963,34.281,34.281,0,0,1,2.137-5.011c.224-.412.413-.847.675-1.234a10.245,10.245,0,0,1,5.96-4.286,5.98,5.98,0,0,1,5.425,1.109,3.208,3.208,0,0,1,1.423,2.3,7.171,7.171,0,0,1-.637,4.186,38.154,38.154,0,0,1-3.445,5.716" transform="translate(-88.35 -18.185)" fill="#9a466e"/>
        <path id="Trazado_880588" data-name="Trazado 880588" d="M190.007,94.734l2.2,7.484a25.7,25.7,0,0,0,12.024-1.04c-.741-2.585-1.716-4.741-1.961-7.772a6.4,6.4,0,0,1,.183-3.117c.307-.579,1.26-.712,1.719-1.175.91-.92,1.854-3.129.449-3.948a9.609,9.609,0,0,0,.617-4.788c-.622-4.515-2.923-7.765-8.223-7.858-2.59-.046-6.625.728-8.7,2.445-1.722,1.423-2.584,4.658-3.519,7.884-.859,2.965-1.859,5.431-.875,8.158a6.14,6.14,0,0,0,6.088,3.728" transform="translate(-64.95 -19.865)" fill="#e2b1ce" fill-rule="evenodd"/>
        <path id="Trazado_880589" data-name="Trazado 880589" d="M196.934,105.346c5.206-1.308,5.49-4.746,5.49-4.746a12.72,12.72,0,0,1-6.544,1.831Z" transform="translate(-71.019 -27.558)" fill="#bb78a2" fill-rule="evenodd"/>
        <path id="Trazado_880590" data-name="Trazado 880590" d="M206.272,81.484c-.025.285.837.588,1.922.677s1.984-.064,2.008-.348-.836-.585-1.923-.677-1.984.065-2.007.348" transform="translate(-86.342 -22.219)" fill="#9a466e" fill-rule="evenodd"/>
        <path id="Trazado_880591" data-name="Trazado 880591" d="M209.365,85.629a.793.793,0,0,0,.455.993c.348.07.71-.258.807-.736a.793.793,0,0,0-.457-.993c-.348-.069-.708.26-.805.736" transform="translate(-89.02 -23.253)" fill="#1e1e77" fill-rule="evenodd"/>
        <path id="Trazado_880592" data-name="Trazado 880592" d="M198.454,82.541c-.107.279.679.836,1.753,1.243s2.035.512,2.143.232-.682-.839-1.758-1.248-2.032-.509-2.138-.227" transform="translate(-72.816 -22.567)" fill="#9a466e" fill-rule="evenodd"/>
        <path id="Trazado_880593" data-name="Trazado 880593" d="M201.172,87.545a.84.84,0,0,0,.48,1.051c.369.073.751-.274.852-.779a.832.832,0,0,0-.481-1.048c-.367-.075-.749.274-.851.776" transform="translate(-74.95 -23.767)" fill="#1e1e77" fill-rule="evenodd"/>
        <path id="Trazado_880594" data-name="Trazado 880594" d="M206.869,91.394a.4.4,0,0,1-.059-.018,1.571,1.571,0,0,1-.947-.84c-.308-.746.1-1.69.612-2.883a17.582,17.582,0,0,0,.942-2.568.322.322,0,0,1,.4-.233.326.326,0,0,1,.236.4,18.192,18.192,0,0,1-.976,2.663c-.436,1.009-.811,1.883-.609,2.373a.972.972,0,0,0,.587.484.327.327,0,0,1-.184.624" transform="translate(-83.826 -23.241)" fill="#bb78a2"/>
        <path id="Trazado_880595" data-name="Trazado 880595" d="M205.472,95.762a4.3,4.3,0,0,1-1.053-.376.33.33,0,0,1-.142-.441.325.325,0,0,1,.439-.143c1.714.861,2.514-.073,2.547-.114a.331.331,0,0,1,.459-.046.322.322,0,0,1,.049.455,2.312,2.312,0,0,1-2.3.664" transform="translate(-82.509 -25.907)" fill="#bb78a2"/>
        <path id="Trazado_880596" data-name="Trazado 880596" d="M202.452,112.156c1.091,1.211-1.885,5.334-2.657,5.315-.506-.012-2.445-3.161-3.236-4.347a2.675,2.675,0,0,1-.659-1.814c.118-.65,1.247-1.58,1.706-1.976s1.046.074,1.609.438c.365.237,2.713,1.887,3.238,2.384" transform="translate(-71.285 -29.91)" fill="#fff" fill-rule="evenodd"/>
        <path id="Trazado_880597" data-name="Trazado 880597" d="M183.9,112.105c-1.247,1.051,1.135,5.543,1.9,5.631.5.057,5.044-3.659,5.991-4.724a2.674,2.674,0,0,0,.9-1.706c-.027-.661-1.019-1.737-1.42-2.193s-1.044-.071-1.651.213c-.4.185-5.136,2.36-5.726,2.779" transform="translate(-52.345 -29.833)" fill="#fff" fill-rule="evenodd"/>
        <path id="Trazado_880598" data-name="Trazado 880598" d="M188.691,99.292a9.514,9.514,0,0,1-.491,1.085q-10.282-.005-20.565-.015a6.269,6.269,0,0,0-.754-4.322c-3.913-4.155-1.766-7.553-1.9-9.577a15.025,15.025,0,0,0-4.29-9.982c-.648-.632-1.319-1.244-1.968-1.876a5.7,5.7,0,0,1-1.795-4.317c.005-.415-.171-1.211.264-1.394a12.692,12.692,0,0,1,7.966-1.172,10.541,10.541,0,0,1,7.288,5.385,17.784,17.784,0,0,1,1.53,3.6c.268.908.615,1.791.971,2.673a8.893,8.893,0,0,0,3.332,4.043,31.648,31.648,0,0,0,3.807,2.338,17.054,17.054,0,0,1,2.649,1.611A10.33,10.33,0,0,1,189.2,97.6a8.107,8.107,0,0,1-.511,1.692" transform="translate(-29.608 -18.498)" fill="#9a466e"/>
        <path id="Trazado_880599" data-name="Trazado 880599" d="M198.456,76.1a7.676,7.676,0,0,0-.154.788c-.071.7.213.909,1.028.748a9.886,9.886,0,0,0,2.4-.926A17.143,17.143,0,0,0,207.7,72.07c.823-1.017.676-1.321-.87-1.833a4.25,4.25,0,0,0-2.252-.123,6.347,6.347,0,0,0-3.283,1.729,15.288,15.288,0,0,0-2.842,4.253" transform="translate(-78.543 -19.18)" fill="#9a466e"/>
        <path id="Trazado_880600" data-name="Trazado 880600" d="M198.579,80.486a7.453,7.453,0,0,1-.072.8c-.126.688-.458.813-1.2.431a9.887,9.887,0,0,1-2.044-1.559,17.146,17.146,0,0,1-4.441-6.121c-.507-1.207-.28-1.457,1.348-1.517a4.255,4.255,0,0,1,2.2.511,6.35,6.35,0,0,1,2.668,2.578,15.287,15.287,0,0,1,1.539,4.878" transform="translate(-63.331 -19.865)" fill="#9a466e"/>
        <path id="Trazado_880601" data-name="Trazado 880601" d="M192.124,102.864A11.363,11.363,0,0,0,192,98.69a17.773,17.773,0,0,0-7.863-11.621c-2.927-2-6.055-3.684-9.069-5.549-1.046-.647-2.087-1.3-3.1-2a15.144,15.144,0,0,1-4.812-5.045c-.151-.27-.3-.67-.7-.516s-.232.555-.193.86a4.945,4.945,0,0,0,.664,1.8,15.038,15.038,0,0,0,4.391,4.616,64.245,64.245,0,0,0,5.556,3.542,70.063,70.063,0,0,1,8.325,5.4A17.2,17.2,0,0,1,191,98.185a18.37,18.37,0,0,1,.761,3.518c.052.4.107.8.161,1.193l.207-.033" transform="translate(-39.315 -20.25)" fill="#c167a0"/>
        <path id="Trazado_880602" data-name="Trazado 880602" d="M201.562,93.268a8.418,8.418,0,0,1,.417-3.061,13.156,13.156,0,0,1,6.7-7.932c2.313-1.244,4.746-2.233,7.111-3.367.82-.394,1.639-.8,2.439-1.229a11.209,11.209,0,0,0,3.939-3.333c.132-.187.277-.469.555-.325s.128.427.075.648a3.673,3.673,0,0,1-.631,1.275,11.129,11.129,0,0,1-3.595,3.05,47.609,47.609,0,0,1-4.367,2.168,51.949,51.949,0,0,0-6.552,3.317,12.733,12.733,0,0,0-4.9,5.435,13.572,13.572,0,0,0-.837,2.529c-.07.289-.142.576-.213.865l-.15-.04" transform="translate(-95.595 -20.266)" fill="#c167a0"/>
        <path id="Trazado_880603" data-name="Trazado 880603" d="M194.2,147.258a17.229,17.229,0,0,1-11.021-.137c1.763,2.916,8.935,3,11.021.137" transform="translate(-53.58 -40.302)" fill="#1e1e77"/>
        <path id="Trazado_880604" data-name="Trazado 880604" d="M218.989,126.286c.17.134.081.294.059.439a12.384,12.384,0,0,1-1.387,4.216,7.35,7.35,0,0,0-.937,2.5,3.354,3.354,0,0,0,.1,1.511,12.528,12.528,0,0,0,.622,1.543c1.64,3.556,1.132,7.152.839,7.159a13.269,13.269,0,0,0-2.048-5.668c-.358-.526-.667-1.08-.994-1.623a4.451,4.451,0,0,1-.085-4.637,18.932,18.932,0,0,1,1.825-2.79c.6-.771,1.167-1.562,1.692-2.379.073-.113.119-.26.309-.267" transform="translate(-101.244 -34.595)" fill="#1e1e77"/>
        <path id="Trazado_880605" data-name="Trazado 880605" d="M176.893,129.117c-.249.1-.2.333-.221.52a41.689,41.689,0,0,1-2.419,9.785c-.343.966-.7,1.928-1.014,2.9a10.355,10.355,0,0,0,.218,6.9c.652,1.789,1.373,3.552,2.183,5.277a1.546,1.546,0,0,0,.944.977c.563.157.827-.109.684-.68-.383-1.534-.8-3.06-1.149-4.6a25.152,25.152,0,0,1-.039-10.544,38.419,38.419,0,0,0,1.12-8.343,13.551,13.551,0,0,0-.11-1.841c-.021-.135-.005-.3-.2-.348" transform="translate(-29.105 -35.37)" fill="#1e1e77"/>
        <path id="Trazado_880606" data-name="Trazado 880606" d="M231.583,279.962a57.846,57.846,0,0,0-.47-7.074c-.2-2.07-.391-4.142-.587-6.214-.1-1.021-.226-2.04-.282-3.063a21.614,21.614,0,0,1,.6-6.54,104.113,104.113,0,0,1,3.517-10.317q1.229-3.345,2.427-6.7c.267-.748.182-.871-.619-.915-4.067-.221-8.113-.727-12.183-.926-1.4-.068-2.8-.218-4.208-.3-.812-.046-.892.02-1.086.816-1.206,4.926-2.339,9.868-3.05,14.9-.27,1.915-.6,3.821-.745,5.753a55.264,55.264,0,0,0-.166,8.255c.041.555.041,1.114.046,1.671.031,3.109.282,6.206.5,9.3.137,1.988.262,3.977.388,5.965q.253,3.993.5,7.985.1,1.711.178,3.424c.139,3.25.335,6.5.456,9.749q.159,4.312.082,8.618a47.779,47.779,0,0,1-.5,6.834,5.445,5.445,0,0,1-1.946,3.618c-1.335,1.052-2.612,2.177-3.913,3.272a2.169,2.169,0,0,0-.749.844c-.091.243,0,.427.27.412a3.6,3.6,0,0,0,.774-.148,32.6,32.6,0,0,0,12.456-6.683c.713-.609,1.391-1.258,2.09-1.884a1.756,1.756,0,0,0,.59-1.14c.77-5.99,2-11.909,2.759-17.9.6-4.714,1.406-9.39,2.235-14.065a36.927,36.927,0,0,0,.635-7.552" transform="translate(-115.587 -65.172)" fill="#e2b1ce"/>
        <path id="Trazado_880607" data-name="Trazado 880607" d="M215.908,320.891a1.762,1.762,0,0,0,.528-1.171c.441-6.023,1.349-12,1.779-18.023.338-4.739.892-9.453,1.464-14.166a36.817,36.817,0,0,0,.222-7.575,57.92,57.92,0,0,0-.854-7.038c-.318-2.056-.617-4.115-.925-6.172-.152-1.014-.336-2.025-.449-3.044a21.637,21.637,0,0,1,.246-6.563,104,104,0,0,1,2.95-10.494q1.044-3.406,2.058-6.821c.227-.762.134-.881-.669-.88-4.073,0-8.14-.284-12.215-.26-.1,0-.2,0-.306,0,.185-.743.281-.809,1.073-.765,1.4.079,2.8.229,4.208.3,4.07.2,8.115.705,12.183.926.8.043.886.166.619.915q-1.2,3.353-2.427,6.7a104.557,104.557,0,0,0-3.518,10.317,21.669,21.669,0,0,0-.6,6.54c.058,1.023.187,2.042.283,3.063.2,2.071.382,4.144.587,6.214a58.13,58.13,0,0,1,.469,7.074,36.861,36.861,0,0,1-.635,7.551c-.828,4.676-1.639,9.352-2.235,14.066-.757,5.99-1.989,11.91-2.758,17.9a1.757,1.757,0,0,1-.59,1.14c-.677.606-1.336,1.234-2.025,1.826.518-.514,1.024-1.038,1.54-1.554" transform="translate(-106.616 -65.172)" fill="#c687b6"/>
        <path id="Trazado_880608" data-name="Trazado 880608" d="M236.159,270.136c0-.146.012-.293,0-.438a.791.791,0,0,0-.588-.782.772.772,0,0,0-.871.44,4.519,4.519,0,0,0-.5,1.212,18.626,18.626,0,0,1-1.069,2.964,1.884,1.884,0,0,0-.165.5.749.749,0,0,0,.3.772.715.715,0,0,0,.824.011,2.3,2.3,0,0,0,.849-.87,9.827,9.827,0,0,0,1.213-3.806" transform="translate(-131.677 -73.66)" fill="#c687b6"/>
        <path id="Trazado_880609" data-name="Trazado 880609" d="M244.594,341.553c-1.678-.408-8.924-1.137-10.632-1.458-.06.011-.124.02-.183.028-.815,4.248-.914,9.583-3.162,12.761-1.518,2.152-4.913,2.984-7.094,4.857a3.238,3.238,0,0,0-.665,2.185l14.832,1c.4-.969.632-2.122.834-2.717.57-1.671.783-2.964,2.349-3.9-.139,1.406-.142,2.8-.254,4.22-.068.844-.2,1.716-.21,2.584l2.79.188c.128-.387,2.746-13.126,1.395-19.75" transform="translate(-133.161 -93.165)" fill="#1e1e77"/>
        <path id="Trazado_880610" data-name="Trazado 880610" d="M172.431,315.732c.313-.068.375-.353.479-.581a39.937,39.937,0,0,0,3.429-10.869,9.7,9.7,0,0,0-2.461-8.147c-1.81-2.04-3.769-3.941-5.562-6-2.487-2.853-4.833-5.818-7.124-8.828-2.257-2.965-4.663-5.8-7.188-8.547a65.23,65.23,0,0,0-10.889-9.148c-2.476-1.727-5-3.388-7.343-5.3-.43-.353-.836-.735-1.248-1.11a6.244,6.244,0,0,1-1.882-3.312,14.881,14.881,0,0,1-.392-3.4q.015-2.728.018-5.455c0-1.47-.012-1.434-1.438-1.542-1.845-.14-3.691-.128-5.537-.187-2.636-.085-5.27-.2-7.906-.306-.088,0-.176,0-.264-.006-1-.011-1.075.039-1.082,1.014-.012,1.584-.065,3.172.034,4.75.109,1.726.073,3.455.258,5.18a27.784,27.784,0,0,0,6.658,15.873,59.679,59.679,0,0,0,9.51,8.591c4.529,3.347,9.138,6.585,13.867,9.642,5.32,3.439,10.579,6.968,15.882,10.433a61.335,61.335,0,0,1,5.53,4.058,14.815,14.815,0,0,1,2.961,3.113,7.655,7.655,0,0,1,1.229,2.988,17.7,17.7,0,0,1,.248,4.287c-.052.7-.043,1.406-.043,2.11,0,.253-.028.537.255.7" transform="translate(12.933 -66.564)" fill="#e2b1ce"/>
        <path id="Trazado_880611" data-name="Trazado 880611" d="M172.305,296.863c-1.905-2.034-3.958-3.92-5.846-5.973-2.62-2.847-5.1-5.811-7.527-8.826-2.389-2.969-4.927-5.8-7.582-8.535a66.477,66.477,0,0,0-11.359-9.029c-2.572-1.692-5.191-3.312-7.631-5.2-.449-.348-.874-.726-1.3-1.1a6.431,6.431,0,0,1-2.021-3.337,15.4,15.4,0,0,1-.511-3.476q-.075-2.8-.163-5.6c-.046-1.508-.061-1.471-1.512-1.535-1.877-.083-3.751-.009-5.626-.009-1.735,0-3.47-.014-5.205-.03l0-.209c.007-.974.083-1.024,1.082-1.014.088,0,.176,0,.264.006,2.635.1,5.27.221,7.906.306,1.846.06,3.692.047,5.536.187,1.427.108,1.441.073,1.439,1.542q0,2.727-.019,5.455a14.872,14.872,0,0,0,.392,3.4A6.244,6.244,0,0,0,134.5,257.2c.411.375.818.757,1.248,1.11,2.339,1.917,4.866,3.577,7.343,5.3a65.259,65.259,0,0,1,10.889,9.148c2.525,2.742,4.931,5.581,7.187,8.547,2.292,3.01,4.637,5.975,7.125,8.828,1.793,2.058,3.752,3.958,5.562,6a9.7,9.7,0,0,1,2.46,8.147,39.935,39.935,0,0,1-3.428,10.869c-.105.228-.166.513-.48.581a.49.49,0,0,1-.132-.113,40.2,40.2,0,0,0,2.8-10.475,10.032,10.032,0,0,0-2.769-8.281" transform="translate(12.956 -66.564)" fill="#c687b6"/>
        <path id="Trazado_880612" data-name="Trazado 880612" d="M185.2,270.188c.14.685.282,1.369.42,2.055.115.572.229,1.144.337,1.717a1.5,1.5,0,0,0,.287.722.733.733,0,0,0,1.292-.114,2.123,2.123,0,0,0,.245-.922,9.047,9.047,0,0,0-.606-3.773,2.2,2.2,0,0,0-.236-.467.9.9,0,0,0-1.017-.5.932.932,0,0,0-.667.928c-.01.116,0,.233,0,.35l-.053.009" transform="translate(-48.647 -73.654)" fill="#c687b6"/>
        <path id="Trazado_880613" data-name="Trazado 880613" d="M110.663,312.736c-1.406,1-6.694,6.01-8.053,7.092-.031.053-.066.107-.1.157,2.683,3.394,6.654,6.956,7.59,10.735.636,2.556-.954,5.669-.963,8.544a3.243,3.243,0,0,0,1.219,1.931l10.456-10.568c-.474-.933-1.193-1.865-1.512-2.407-.891-1.523-1.73-2.53-1.417-4.329.974,1.025,2.027,1.94,3.028,2.951.594.6,1.17,1.27,1.818,1.849L124.7,326.7c-.21-.35-8.138-10.659-14.033-13.966" transform="translate(74.5 -85.67)" fill="#1e1e77"/>
        <path id="Trazado_880614" data-name="Trazado 880614" d="M205.592,222.388c1.124,0,2.249.009,3.373,0,.932-.009.989-.055,1.175-.949.5-2.412.912-4.841,1.3-7.274,1.086-6.9,2.409-13.747,4.041-20.537a54.114,54.114,0,0,0,1.655-13.582,25.09,25.09,0,0,0-2.138-9.467c-1.23-2.89-2.644-5.7-4-8.536a1.524,1.524,0,0,0-1.5-.954c-5.494-.261-10.987-.5-16.489-.574-2.009-.027-4.022-.044-6.031-.145-2.361-.12-4.721-.282-7.08-.442-.818-.055-.967-.007-1.189.819q-.959,3.569-1.868,7.152c-2.381,9.412-4.795,18.817-7.114,28.244-1.745,7.091-3.286,14.231-4.852,21.364-.256,1.169-.211,1.2.993,1.389,4.91.754,9.839,1.371,14.779,1.88,3.7.381,7.409.77,11.131.961,3.071.157,6.141.315,9.207.542,1.537.113,3.073.1,4.61.114" transform="translate(-63.128 -43.805)" fill="#c167a0"/>
        <path id="Trazado_880615" data-name="Trazado 880615" d="M195.241,189.388c-.986,3.4-.126,13.363,3.267,20.544,3.5,7.415,10.089,13.5,13.208,14.83a3.117,3.117,0,0,0-.739-1.132A83.4,83.4,0,0,1,197.382,198.6a42.809,42.809,0,0,1-1.916-8.693.679.679,0,0,0-.225-.515" transform="translate(-79.568 -51.881)" fill="#9a466e"/>
        <path id="Trazado_880616" data-name="Trazado 880616" d="M197.208,230.338c-1.523-1.811-2.991-3.434-4.326-5.164-1.372-1.777-2.713-3.576-3.98-5.428-1.249-1.825-2.5-3.651-3.606-5.565s-2.159-3.823-3.291-5.835c-.117,2.395,2.5,9.051,4.772,12.265,2.765,3.913,8.293,9.223,10.429,9.726" transform="translate(-55.728 -57.074)" fill="#9a466e"/>
        <path id="Trazado_880617" data-name="Trazado 880617" d="M205.9,161.765a.964.964,0,0,1-.885,1.02l-31.126-.44a.957.957,0,0,1-.851-1.044l.036-2.183a.965.965,0,0,1,.885-1.022l31.126.44a.959.959,0,0,1,.851,1.046Z" transform="translate(-57.951 -43.309)" fill="#9a466e" fill-rule="evenodd"/>
        <path id="Trazado_880618" data-name="Trazado 880618" d="M200.73,158.4a.125.125,0,0,1,0,.017v.016l-.107,3.672c0,.023-.005.043-.009.065a.649.649,0,0,1,.011.132.555.555,0,0,1-.476.6l-5.2-.064a.551.551,0,0,1-.461-.614c0-.006,0-.009,0-.017a.609.609,0,0,1-.013-.147l.109-3.673a.135.135,0,0,0,0-.028c0-.008,0-.013,0-.018a.555.555,0,0,1,.478-.6l5.2.064a.519.519,0,0,1,.454.5.669.669,0,0,1,.007.1m-1.056,3.282.023-.794-4.216-.054-.025.8Zm-4.137-2.718-.021.651,4.218.054.018-.65Z" transform="translate(-68.31 -43.21)" fill="#fff" fill-rule="evenodd"/>
        <path id="Trazado_880619" data-name="Trazado 880619" d="M166.644,103.158a6.44,6.44,0,0,0-3.157.882,18.9,18.9,0,0,0-4.287,3.588,74.507,74.507,0,0,0-9.179,12.421,78.256,78.256,0,0,1-7.748,10.741,17.28,17.28,0,0,1-6.023,4.462c-2.766,1.243-5.542,2.463-8.26,3.81-5.229,2.593-10.5,5.1-15.594,7.964-1.65.929-1.377.774-.943,2.279.861,3,1.79,5.971,2.831,8.91.085.24.179.478.269.716a.515.515,0,0,0,.665.366c.193-.047.388-.082.582-.129a119.53,119.53,0,0,0,23.879-8.32,47.385,47.385,0,0,0,12.231-8.064,62.352,62.352,0,0,0,4.93-5.392,108.581,108.581,0,0,0,10.595-15.077,33.553,33.553,0,0,0,4.138-10.015,11.617,11.617,0,0,0,.258-4.47,5.445,5.445,0,0,0-5.186-4.675" transform="translate(20.991 -28.259)" fill="#a4a4e4"/>
        <path id="Trazado_880620" data-name="Trazado 880620" d="M125.593,116.006a22.017,22.017,0,0,0,1.381-7.992,5.273,5.273,0,0,0-2.634-4.828c.164-.015.33-.025.5-.028a5.442,5.442,0,0,1,5.186,4.675,11.6,11.6,0,0,1-.258,4.469,33.574,33.574,0,0,1-4.138,10.015,108.536,108.536,0,0,1-10.595,15.077c-1.255,1.507-2.538,2.985-3.911,4.381a145.424,145.424,0,0,0,11.164-18.322,55.346,55.346,0,0,0,3.307-7.447" transform="translate(62.797 -28.259)" fill="#a4a4e4"/>
        <path id="Trazado_880621" data-name="Trazado 880621" d="M154.9,148.169a.95.95,0,0,1-.641-.353c-1.136-1.051-2.271-2.1-3.394-3.164a16.994,16.994,0,0,0,1.878-1.492,40.828,40.828,0,0,1,2,4.1,1.151,1.151,0,0,1,.159.906" transform="translate(9.146 -39.217)" fill="#cecef4"/>
        <path id="Trazado_880622" data-name="Trazado 880622" d="M102.533,151.737c3.224,0,6.45.005,9.674-.005.555,0,1.111-.073,1.666-.1.4-.018.594-.2.566-.608-.208-2.954-.019-5.919-.228-8.875-.107-1.52-.077-3.044-.2-4.567-.215-2.716-.455-5.431-.781-8.135-.44-3.665-.929-7.325-1.534-10.967a71,71,0,0,0-1.564-7.573,25.488,25.488,0,0,0-3.186-7.209,15.09,15.09,0,0,0-8.4-6.322,12.522,12.522,0,0,0-11.1,1.554c-1.7,1.149-8.642,5.292-8.124,19.259.092,2.495,3.788,11.709,4.26,13.826a84.427,84.427,0,0,1,1.491,9.814q.429,4.2.9,8.388c.145,1.3.21,1.321,1.528,1.362,5.011.155,10.021.253,15.034.155" transform="translate(101.615 -26.5)" fill="#bcbcea"/>
        <path id="Trazado_880623" data-name="Trazado 880623" d="M120.707,79.643a6.407,6.407,0,0,0,.066,3.122,25.849,25.849,0,0,0,1.983,6.1,80.332,80.332,0,0,0-9.279,2.015c-.8.181-1.593.356-2.389.531l-2.432-6.347a6.138,6.138,0,0,1-6.365-3.23c-1.2-2.64-.4-5.179.221-8.2.675-3.291,1.276-6.584,2.879-8.14,1.932-1.878,5.893-2.97,8.478-3.131,5.291-.33,7.844,2.726,8.824,7.177a9.6,9.6,0,0,1-.234,4.822c1.466.705.7,2.982-.131,3.972-.421.5-1.36.707-1.62,1.308" transform="translate(76.521 -17.077)" fill="#935e45" fill-rule="evenodd"/>
        <path id="Trazado_880624" data-name="Trazado 880624" d="M114.251,95.5c5.085-1.719,5.2-5.172,5.2-5.172a13.054,13.054,0,0,1-6.264,2.407Z" transform="translate(71.986 -24.745)" fill="#5d382e" fill-rule="evenodd"/>
        <path id="Trazado_880625" data-name="Trazado 880625" d="M127.9,76.707a.794.794,0,0,0,.533.954c.353.042.687-.314.746-.8s-.181-.91-.534-.953-.685.316-.744.8" transform="translate(51.589 -20.793)" fill="#1e1e77" fill-rule="evenodd"/>
        <path id="Trazado_880626" data-name="Trazado 880626" d="M125.142,72.593c0,.285.881.519,1.97.521s1.973-.222,1.973-.507-.881-.516-1.971-.521-1.973.223-1.973.507" transform="translate(53.68 -19.747)" fill="#1e1e77" fill-rule="evenodd"/>
        <path id="Trazado_880627" data-name="Trazado 880627" d="M119.575,77.97c-.061.51.19.963.562,1.008s.727-.333.787-.844a.831.831,0,0,0-.563-1.006c-.372-.045-.724.333-.786.842" transform="translate(65.88 -21.127)" fill="#1e1e77" fill-rule="evenodd"/>
        <path id="Trazado_880628" data-name="Trazado 880628" d="M117.145,73.053c-.084.287.743.78,1.847,1.1s2.069.348,2.154.06-.747-.782-1.851-1.1-2.066-.346-2.15-.055" transform="translate(67.423 -19.957)" fill="#1e1e77" fill-rule="evenodd"/>
        <path id="Trazado_880629" data-name="Trazado 880629" d="M124.9,81.737a.4.4,0,0,1-.06-.013,1.574,1.574,0,0,1-1.011-.762c-.367-.72-.038-1.692.38-2.923a17.534,17.534,0,0,0,.734-2.634.327.327,0,0,1,.644.113,18.117,18.117,0,0,1-.759,2.733c-.354,1.04-.659,1.941-.418,2.414a.972.972,0,0,0,.623.436.327.327,0,0,1-.133.637" transform="translate(58.238 -20.582)" fill="#5d382e"/>
        <path id="Trazado_880630" data-name="Trazado 880630" d="M123.424,86.481a4.25,4.25,0,0,1-1.079-.291.33.33,0,0,1-.178-.428.327.327,0,0,1,.426-.178c1.777.722,2.5-.274,2.53-.317a.331.331,0,0,1,.454-.083c.149.1.118.455-.015.6a2.171,2.171,0,0,1-2.138.695" transform="translate(59.267 -23.32)" fill="#5d382e"/>
        <path id="Trazado_880631" data-name="Trazado 880631" d="M100.258,67.849s.749-2.548,1.487-2.686c2.138-.4,1.969-1.14,3.139-2.286A2.3,2.3,0,0,1,107,62.333c1.279.36.54,1.774.519,2.922-.009.819.257,1.692.953,1.853,1.192.274,2.583-1.412,4.034-1.01,1.736.481-.616,3.3.842,4.117a12.076,12.076,0,0,0,2.366.1c.864.372.868,1.568.656,2.574-.388,1.508.864,1.687,1.194.857.506-1.178.88-2.869,2.2-2.9a1.672,1.672,0,0,1,1.583,1.844c3.1-.216,5-2.75,4.357-5.029-.672-2.377-1.644-2.419-2.241-3.433-.9-1.531,1.3-3.33-.254-5.391-1.873-2.478-4.346-.289-5.846-.876-1.687-.655-1.043-2.311-2.1-3.532-1.81-2.085-5.231.028-6.8-.648-1.07-.463-1.644-2.176-2.334-2.727-2.018-1.618-5.291-.576-6.667.627a5.572,5.572,0,0,0-1.887,3.728c-.077,1.035.365,2.2-.169,3.437-.438,1.006-1.712,1.381-2.393,2.348-1.235,1.754-.753,4.231,1.888,4.07-.723,2.546.672,3.3,3.362,2.586" transform="translate(79.288 -13.758)" fill="#1e1e77" fill-rule="evenodd"/>
        <path id="Trazado_880632" data-name="Trazado 880632" d="M128.8,78.3c1.235-.516,1.706-2.146,1.979-3.505a.354.354,0,0,0-.054-.264.364.364,0,0,0-.232-.149c-.466-.086-.941-.163-1.411-.227a20.689,20.689,0,0,0-4.2-.182.356.356,0,0,0-.322.28c-.178.865-.482,2.959.526,3.718a2.925,2.925,0,0,0,1.327.422A5.938,5.938,0,0,0,128.8,78.3m.183-3.45c.339.046.679.1,1.016.157-.245,1.106-.646,2.3-1.481,2.646a5.548,5.548,0,0,1-2.01.043,2.228,2.228,0,0,1-.986-.282c-.436-.328-.552-1.4-.31-2.761a20.324,20.324,0,0,1,3.77.2" transform="translate(52.537 -20.251)" fill="#fff"/>
        <path id="Trazado_880633" data-name="Trazado 880633" d="M119.592,80.072c1.244-.489,1.548-2.694,1.621-3.621a.366.366,0,0,0-.244-.374,21.773,21.773,0,0,0-4.309-.987c-.5-.067-1-.121-1.5-.163a.383.383,0,0,0-.277.086.371.371,0,0,0-.134.253c-.121,1.454-.121,3.238.979,4.105a6.217,6.217,0,0,0,2.394.759,3.1,3.1,0,0,0,1.467-.057m-3.037-4.25a21.37,21.37,0,0,1,3.879.852c-.154,1.449-.585,2.5-1.123,2.712a2.372,2.372,0,0,1-1.083.009,5.775,5.775,0,0,1-2.022-.6c-.743-.586-.8-1.907-.726-3.094.359.034.72.076,1.075.124" transform="translate(69.133 -20.525)" fill="#fff"/>
        <path id="Trazado_880634" data-name="Trazado 880634" d="M101.169,74c-.021.221-.054.441-.1.659,4.941.355,14.391,2.141,17.912,2.815,1.859.349,1.626,1.261,1.626,1.261a2.63,2.63,0,0,1,.4,1.047c.232-.031,1.009-2.265-.828-2.713-3.4-.635-13.869-2.613-19.013-3.07" transform="translate(78.867 -20.271)" fill="#fff"/>
        <path id="Trazado_880635" data-name="Trazado 880635" d="M104.7,81.435c-.494,1.2-2.427,2.876-3.481,2.443s-.834-2.808-.341-4.014a2.084,2.084,0,1,1,3.822,1.57" transform="translate(95.785 -21.459)" fill="#935e45" fill-rule="evenodd"/>
        <path id="Trazado_880636" data-name="Trazado 880636" d="M111.825,98.646a4.546,4.546,0,0,0,.677-.085c1.061-.253,1.353-1.038.679-1.812a2.373,2.373,0,0,0-.336-.319,19.146,19.146,0,0,0-5.262-2.837,3.837,3.837,0,0,0-2.844.248c-1.157.486-9.318,4.963-9.515,5.151a.842.842,0,0,0,.386,1.486c.306.106,13.386-1.6,16.215-1.831" transform="translate(91.175 -25.59)" fill="#fff"/>
        <path id="Trazado_880637" data-name="Trazado 880637" d="M12.03,321.413l-6.861,6.195,6.979,9.246,8.175-7.621Z" transform="translate(249.551 -88.047)" fill="#935e45" fill-rule="evenodd"/>
        <path id="Trazado_880638" data-name="Trazado 880638" d="M13.589,331.744a10.373,10.373,0,0,0,6.553-7.449Z" transform="translate(243.618 -88.837)" fill="#5d382e" fill-rule="evenodd"/>
        <path id="Trazado_880639" data-name="Trazado 880639" d="M3.046,333.892c.341-.282,1.459-1.374,2.273-1.352.842.021,1.387.836,2.261,1.71,2.071-2.119.651-4.787,3.953-7.028a61.463,61.463,0,0,1,7.168,6.972c-5.679,5.516-11.783,11.017-17.627,16.528a7.308,7.308,0,0,1-.917-2.009,7.225,7.225,0,0,1,1.075-5.3c1.25-2.285,2.856-4.809,2.477-7.276a14.924,14.924,0,0,0-.663-2.247" transform="translate(254.926 -89.639)" fill="#fff" fill-rule="evenodd"/>
        <path id="Trazado_880640" data-name="Trazado 880640" d="M20.092,338.466c.162.471-1,.815-1.7,1.279-.405.274-1.223,1.091-1.589.83-.656-.473.636-1.631,1.3-1.994.643-.353,1.744-.811,1.984-.115" transform="translate(241.447 -92.62)" fill="#2f2fa7" fill-rule="evenodd"/>
        <path id="Trazado_880641" data-name="Trazado 880641" d="M20.384,341.344c.08.688-1.21.99-1.926,1.414-.378.223-.769.507-1.115.751-.326.234-.836.772-1.055.507-.468-.568.375-1.432,1.058-1.94.863-.64,2.922-1.755,3.039-.732" transform="translate(241.511 -93.394)" fill="#2f2fa7" fill-rule="evenodd"/>
        <path id="Trazado_880642" data-name="Trazado 880642" d="M15.633,346.678c-.359.685-.746,1.356-1.1,2.009a7.226,7.226,0,0,0-1.076,5.3,7.32,7.32,0,0,0,.917,2.009c2.625-2.475,5.3-4.948,7.97-7.423a6.983,6.983,0,0,0-6.71-1.894" transform="translate(241.627 -94.911)" fill="#2f2fa7"/>
        <path id="Trazado_880643" data-name="Trazado 880643" d="M1.664,338.424c1.185-1.122,2.364-2.246,3.521-3.37-1.509-1.642-3.02-3.255-4.534-4.69a8.026,8.026,0,0,0,1.014,8.06" transform="translate(268.441 -90.499)" fill="#2f2fa7"/>
        <path id="Trazado_880644" data-name="Trazado 880644" d="M25.158,179.21a1.306,1.306,0,0,0-.257.866,40.236,40.236,0,0,1-3.371,11.34,97.873,97.873,0,0,0-8.183,30.708c-.426,4.316-.813,8.631-.9,12.974q-.058,2.813-.09,5.626a6.583,6.583,0,0,0,.612,2.718,31.686,31.686,0,0,0,6.514,9.53,186.337,186.337,0,0,0,15.128,13.937c6.222,5.126,12.452,10.245,18.543,15.528,3.476,3.015,6.871,6.124,10.305,9.189.372.331.751.656,1.133.974.6.5.66.492,1.2-.119.311-.351.609-.713.916-1.068q3.185-3.7,6.37-7.4c.551-.641.546-.648.123-1.369-2.453-4.176-5.23-8.136-8.054-12.066-3.2-4.456-6.614-8.746-10.163-12.927a80.888,80.888,0,0,0-8.822-8.82c-3.458-2.99-6.949-5.946-10.206-9.165a16.1,16.1,0,0,1-4.377-7.789c-1.008-4.1-1.83-8.237-2.554-12.4a144.706,144.706,0,0,0-3.071-14.445,20.217,20.217,0,0,1-.314-9.571c.148-.747.282-1.5.437-2.244a31.374,31.374,0,0,0,.3-8.5,20.263,20.263,0,0,0-.835-4.664c-.083-.272-.073-.589-.379-.85" transform="translate(191.154 -49.092)" fill="#252589"/>
        <path id="Trazado_880645" data-name="Trazado 880645" d="M77.39,234.59c.115-1.93.248-3.86.415-5.786.259-3.007.592-6.005.98-9a82.721,82.721,0,0,1,1.67-9.519,145.155,145.155,0,0,1,5.34-16.929,62.141,62.141,0,0,0,3.392-11.083,2.587,2.587,0,0,1,.123-.421.5.5,0,0,1,.54-.383,20.59,20.59,0,0,1,.619,3.874c.085,1.32.15,2.641.141,3.959-.307,1.976-.858,3.9-1.3,5.848-.794,3.489-1.907,6.893-2.954,10.311a102.554,102.554,0,0,0-2.765,11.264c-.614,3.288-.977,6.607-1.356,9.926-.2,1.775-.409,3.552-.539,5.334q-.237,3.243-.427,6.49c-.2,3.422-.484,6.84-.458,10.271,0,.522-.029,1.04-.073,1.558a30,30,0,0,1-3.556-5.986c-.068-1.109-.1-2.283-.11-3.569.081-1.594.182-3.877.318-6.158" transform="translate(127.056 -49.711)" fill="#1e1e77"/>
        <path id="Trazado_880646" data-name="Trazado 880646" d="M66.18,265.353c.056-.747.082-1.388.155-2.022.255-2.24.632-4.465.824-6.712.048-.567.092-1.135.161-1.7a15.79,15.79,0,0,0,2.107,3.745c-.847,2.018-1.674,4.043-2.647,6.005a1.044,1.044,0,0,1-.6.683" transform="translate(156.148 -69.832)" fill="#1e1e77"/>
        <path id="Trazado_880647" data-name="Trazado 880647" d="M276.306,256.953c-.2-7.54-1.191-14.885-4.141-21.854a54.17,54.17,0,0,0-8.639-14.1,67.049,67.049,0,0,0-18.48-14.953c-4.092-2.3-8.244-4.485-12.409-6.647a29.433,29.433,0,0,1-5.631-3.59,27.932,27.932,0,0,1-6.915-8.943,69.314,69.314,0,0,1-4.467-12.5c-1.137-4.1-2.075-8.259-3.257-12.351a65.9,65.9,0,0,0-8.2-17.956,69.613,69.613,0,0,0-6.973-9.2,41.849,41.849,0,0,0-12.788-9.294,54.606,54.606,0,0,0-17.025-4.96c-3.335-.417-6.682-.68-10.036-.857-3.122-.164-6.247-.3-9.365-.513a105.341,105.341,0,0,1-19.625-3.069,51.227,51.227,0,0,1-14.982-6.772,96.514,96.514,0,0,1-11.681-9.021A103.993,103.993,0,0,1,89.444,86.994,140.6,140.6,0,0,1,76.989,68.48C74.606,64.2,72.426,59.818,70.318,55.4c-2.694-5.647-5.427-11.276-8.089-16.938-2.169-4.615-4.088-9.341-6.131-14.012q-3.412-7.8-6.782-15.624c-.253-.585-.479-1.181-.743-1.761a5.626,5.626,0,0,0-10.5.2,5.456,5.456,0,0,0,.076,3.992c.6,1.477,1.226,2.941,1.859,4.4q5.06,11.682,10.131,23.36c1.721,3.958,3.6,7.846,5.472,11.735,2.941,6.107,5.806,12.251,8.9,18.284A153,153,0,0,0,81.146,94.642a116.548,116.548,0,0,0,11.61,12.8,95.876,95.876,0,0,0,20.7,15A56.426,56.426,0,0,0,124.6,126.8a106.136,106.136,0,0,0,16.979,3.159c3.081.335,6.169.549,9.264.695,4.337.2,8.675.436,13,.86a46.636,46.636,0,0,1,12.992,3,32.5,32.5,0,0,1,11.851,7.714,59.9,59.9,0,0,1,13.986,27.017c1.217,4.921,2.442,9.842,4.073,14.646a54.123,54.123,0,0,0,4.877,10.931A37.4,37.4,0,0,0,226.6,208.948c4.662,2.4,9.3,4.835,13.857,7.441A54.718,54.718,0,0,1,253.4,226.555,40.943,40.943,0,0,1,264.451,249.5c.318,2.386.443,4.785.628,7.179.152,1.968.5,3.905.794,5.851.083.544.162,1.089.266,1.629a4.973,4.973,0,0,0,9.81-.233,19.077,19.077,0,0,0,.184-2.249c.036-1.592.114-3.183.172-4.726" transform="translate(-30.073 -0.97)" fill="#fff"/>
        <path id="Trazado_880648" data-name="Trazado 880648" d="M362.293,13.443,332.718,0l-9.044,27.741Z" transform="translate(-323.674 0)" fill="#fff" fill-rule="evenodd"/>
        <path id="Trazado_880649" data-name="Trazado 880649" d="M351.4,60.463a2.443,2.443,0,0,0-1.36-1.215,3.851,3.851,0,0,0,1.286-3.285c-.056-.419-.313-.725-.347-1.085a4.32,4.32,0,0,1,1.894-.484c.5-.078,1.69-.183,1.817-.643.166-.606-.805-1.053-1.227-1.154a4.9,4.9,0,0,0-2.747.219c-.184.054-.531.207-.6.018-.08-.235.606-.417.958-.513s.781-.213,1.175-.285c.625-.113,2.077-.1,2.135-.8.044-.53-.976-.911-1.447-.987a6.43,6.43,0,0,0-3.023.43c-.28.1-.8.362-.871.227-.127-.24,1.348-.8,2.313-1.02.5-.115,2.385-.234,2.439-.855.027-.309-.45-.646-.836-.757a6.338,6.338,0,0,0-3.813.422c-.456.191-1.278.772-1.416.6-.165-.208,1.048-1.583,1.779-2.18.3-.243.664-.462,1.1-.79.306-.233.958-.616.851-1.17-.069-.354-.843-.484-1.132-.4-3.111.895-5.386,3.679-6.131,7.667a20.083,20.083,0,0,0,.411,8.259q.076.346.156.685Z" transform="translate(-330.794 -12.254)" fill="#bb8774" fill-rule="evenodd"/>
        <path id="Trazado_880650" data-name="Trazado 880650" d="M348.035,56.018c.293.219.6.423.531.782-.11.537-1.142.579-1.824.692a5.5,5.5,0,0,0-1.9.532,5.4,5.4,0,0,1,.253.677,3.771,3.771,0,0,1-1.234,3.637,9.152,9.152,0,0,0,.672-2.034,5.271,5.271,0,0,0-.372-2.719c.765-.084,3.541-.16,3.875-1.568" transform="translate(-324.616 -15.345)" fill="#935e45" fill-rule="evenodd"/>
        <path id="Trazado_880651" data-name="Trazado 880651" d="M349.768,44.605c.9-.386,2.034-.125,1.417.915a5.436,5.436,0,0,1-1.377,1.048,10.345,10.345,0,0,0-1.53,1.31,5.174,5.174,0,0,1,1.3-1.44c.635-.566,1.732-1.574.191-1.833" transform="translate(-330.607 -12.173)" fill="#935e45" fill-rule="evenodd"/>
        <path id="Trazado_880652" data-name="Trazado 880652" d="M348.255,49.8c.126-.226.02-.351-.164-.478.684.139,1.277.73.82,1.11a4.1,4.1,0,0,1-1.79.449,11.4,11.4,0,0,0-2.031.54c.744-.515,2.63-.663,3.166-1.621" transform="translate(-326.002 -13.513)" fill="#935e45" fill-rule="evenodd"/>
        <path id="Trazado_880653" data-name="Trazado 880653" d="M347.913,52.471c.2.078.749.4.595.8-.2.531-1.281.641-2.042.754a6.692,6.692,0,0,0-2.132.551c.284-.6,2.657-.718,3.558-1.592a.369.369,0,0,0,.02-.517" transform="translate(-324.916 -14.374)" fill="#935e45" fill-rule="evenodd"/>
        <path id="Trazado_880654" data-name="Trazado 880654" d="M148.3,207.709a2.96,2.96,0,0,1-2.37-2.155,2.163,2.163,0,0,1-1.592-2.013c-.148.067-.357-.1-.434-.213-.521-.669-1.057-1.186-.565-2.23.4-.853,2.937-2.451,3.587-1.366a.664.664,0,0,1-.161.834c.69-.389,2.257.086,1.466,1.461a1.49,1.49,0,0,1,.99-.293c1.1.166,1.157,1.4.5,2.432a2.284,2.284,0,0,1,.536.467c.729.913,1.507,3.489.8,5.045-.405.889-1.632,1.584-2.379.448a5.711,5.711,0,0,1-.372-2.417" transform="translate(18.359 -54.614)" fill="#e2b1ce" fill-rule="evenodd"/>
        <path id="Trazado_880655" data-name="Trazado 880655" d="M143.091,212.678c1.517-1.68,1.352-4.74.629-6.147a5.492,5.492,0,0,1,.963,4.824c-.3.881-.822,1.392-1.592,1.323" transform="translate(24.84 -56.577)" fill="#bb78a2" fill-rule="evenodd"/>
        <path id="Trazado_880656" data-name="Trazado 880656" d="M145.205,208.6c-.534-.4-.687-1.426-.18-2.605.423-.984,1.54-1.767,1.644-2.546.068-.5-.3-.707-.623-.831,1.416.137,1.18,1.49.577,2.44a.565.565,0,0,0-.418.158c-.788.778-.861,2.359-1,3.385" transform="translate(21.456 -55.504)" fill="#bb78a2" fill-rule="evenodd"/>
        <path id="Trazado_880657" data-name="Trazado 880657" d="M147.345,205.947c-1.081-1.6,1.459-2.972,1.7-4.18a.733.733,0,0,0-.865-.807c1.109-.532,2.1.386,1.562,1.366a9.526,9.526,0,0,1-1.1,1.146,4.849,4.849,0,0,0-1.3,2.474" transform="translate(16.947 -55.008)" fill="#bb78a2" fill-rule="evenodd"/>
        <path id="Trazado_880658" data-name="Trazado 880658" d="M149.129,203.534c-.564-1.368,1.753-2.692,1.881-3.418a.618.618,0,0,0-.457-.7c.706-.3,1.817.357,1,1.144a5.891,5.891,0,0,0-2.427,2.975" transform="translate(13.571 -54.607)" fill="#bb78a2" fill-rule="evenodd"/>
        <path id="Trazado_880659" data-name="Trazado 880659" d="M198.96,179.015a2.96,2.96,0,0,1-3.2-.1,2.163,2.163,0,0,1-2.517-.5c-.07.147-.339.152-.47.119-.83-.17-1.573-.215-1.877-1.329-.247-.91.641-3.77,1.841-3.368a.665.665,0,0,1,.42.739c.272-.743,1.772-1.4,2.063.159a1.489,1.489,0,0,1,.563-.866c.942-.587,1.788.311,1.957,1.526a2.3,2.3,0,0,1,.711.008c1.148.22,3.412,1.674,3.882,3.317.27.94-.212,2.265-1.518,1.886-.7-.2-1.324-1.077-1.852-1.6" transform="translate(-67.347 -47.58)" fill="#935e45" fill-rule="evenodd"/>
        <path id="Trazado_880660" data-name="Trazado 880660" d="M194.321,181.119c.062-2.263-2.05-4.482-3.513-5.082a5.491,5.491,0,0,1,3.865,3.042c.341.868.28,1.592-.351,2.04" transform="translate(-59.789 -48.223)" fill="#5d382e" fill-rule="evenodd"/>
        <path id="Trazado_880661" data-name="Trazado 880661" d="M198.84,179c-.664.044-1.449-.638-1.828-1.864-.318-1.023.023-2.344-.4-3a.767.767,0,0,0-1.014-.228c1.165-.815,1.865.367,2.024,1.48a.566.566,0,0,0-.216.392c-.094,1.1.878,2.353,1.438,3.223" transform="translate(-67.228 -47.565)" fill="#5d382e" fill-rule="evenodd"/>
        <path id="Trazado_880662" data-name="Trazado 880662" d="M202.608,178.942c-1.864-.518-.82-3.207-1.422-4.282a.733.733,0,0,0-1.182-.052c.5-1.125,1.843-1.067,2.074.025a9.591,9.591,0,0,1-.089,1.584,4.852,4.852,0,0,0,.618,2.726" transform="translate(-74.197 -47.607)" fill="#5d382e" fill-rule="evenodd"/>
        <path id="Trazado_880663" data-name="Trazado 880663" d="M205.062,178.458c-1.317-.674-.415-3.186-.789-3.821a.617.617,0,0,0-.8-.237c.343-.685,1.614-.909,1.505.219a5.888,5.888,0,0,0,.086,3.839" transform="translate(-79.169 -47.619)" fill="#5d382e" fill-rule="evenodd"/>
        <path id="Trazado_880664" data-name="Trazado 880664" d="M297.157,138.566a2.96,2.96,0,0,1-2.37-2.155A2.163,2.163,0,0,1,293.2,134.4c-.148.067-.357-.1-.434-.214-.521-.668-1.057-1.186-.565-2.229.4-.853,2.937-2.451,3.587-1.366a.664.664,0,0,1-.161.834c.69-.389,2.257.086,1.466,1.461a1.49,1.49,0,0,1,.99-.293c1.1.166,1.157,1.4.5,2.432a2.284,2.284,0,0,1,.536.467c.729.913,1.507,3.489.8,5.044-.405.89-1.632,1.585-2.379.448a5.708,5.708,0,0,1-.372-2.416" transform="translate(-238.574 -35.673)" fill="#e2b1ce" fill-rule="evenodd"/>
        <path id="Trazado_880665" data-name="Trazado 880665" d="M291.947,143.536c1.517-1.68,1.352-4.74.629-6.147a5.492,5.492,0,0,1,.963,4.824c-.3.881-.822,1.392-1.592,1.323" transform="translate(-232.093 -37.636)" fill="#bb78a2" fill-rule="evenodd"/>
        <path id="Trazado_880666" data-name="Trazado 880666" d="M294.061,139.456c-.534-.4-.687-1.426-.18-2.605.423-.984,1.54-1.767,1.644-2.546.068-.5-.3-.707-.623-.831,1.416.137,1.18,1.49.577,2.44a.565.565,0,0,0-.418.158c-.788.778-.861,2.359-1,3.385" transform="translate(-235.477 -36.563)" fill="#bb78a2" fill-rule="evenodd"/>
        <path id="Trazado_880667" data-name="Trazado 880667" d="M296.2,136.8c-1.081-1.6,1.459-2.972,1.7-4.18a.733.733,0,0,0-.865-.807c1.109-.532,2.1.386,1.562,1.366a9.522,9.522,0,0,1-1.1,1.146,4.849,4.849,0,0,0-1.3,2.474" transform="translate(-239.986 -36.067)" fill="#bb78a2" fill-rule="evenodd"/>
        <path id="Trazado_880668" data-name="Trazado 880668" d="M297.984,134.392c-.564-1.368,1.753-2.692,1.881-3.418a.618.618,0,0,0-.457-.7c.706-.3,1.818.357,1,1.144a5.892,5.892,0,0,0-2.427,2.975" transform="translate(-243.362 -35.667)" fill="#bb78a2" fill-rule="evenodd"/>
        <path id="Trazado_880669" data-name="Trazado 880669" d="M97.815,346.578l-9.243-.181-1.241,11.518,11.176.041Z" transform="translate(111.71 -94.892)" fill="#935e45" fill-rule="evenodd"/>
        <path id="Trazado_880670" data-name="Trazado 880670" d="M87.981,352.993c4.494,2.241,9.843-.11,9.843-.11Z" transform="translate(111.922 -96.668)" fill="#5d382e" fill-rule="evenodd"/>
        <path id="Trazado_880671" data-name="Trazado 880671" d="M99.681,354.177c.441.028,2,0,2.582.57.6.592.439,1.558.478,2.794,2.961-.127,3.751-3.044,7.692-2.417a61.508,61.508,0,0,1,.452,9.988c-7.916.134-16.131-.034-24.163-.017A7.321,7.321,0,0,1,87.429,363a7.227,7.227,0,0,1,4.411-3.126c2.474-.81,5.374-1.552,6.786-3.608a15.01,15.01,0,0,0,1.055-2.092" transform="translate(99.761 -97.023)" fill="#fff" fill-rule="evenodd"/>
        <path id="Trazado_880672" data-name="Trazado 880672" d="M103.874,358.615c-.2.454-1.289-.092-2.112-.228-.483-.077-1.638-.041-1.726-.482-.155-.794,1.581-.754,2.313-.564.71.183,1.826.6,1.525,1.274" transform="translate(97.077 -97.858)" fill="#2f2fa7" fill-rule="evenodd"/>
        <path id="Trazado_880673" data-name="Trazado 880673" d="M106.391,360.989c-.412.555-1.56-.106-2.371-.288-.429-.1-.908-.156-1.328-.216-.4-.052-1.137-.009-1.116-.353.047-.734,1.254-.787,2.1-.69,1.067.123,3.331.721,2.716,1.547" transform="translate(93.38 -98.455)" fill="#2f2fa7" fill-rule="evenodd"/>
        <path id="Trazado_880674" data-name="Trazado 880674" d="M112.316,361.049c-.731.253-1.471.478-2.178.711a6.214,6.214,0,0,0-5.117,5.218c3.607-.008,7.253.022,10.89.044a6.981,6.981,0,0,0-3.595-5.973" transform="translate(81.463 -98.905)" fill="#2f2fa7"/>
        <path id="Trazado_880675" data-name="Trazado 880675" d="M86.723,366.823c1.632-.007,3.261-.019,4.873-.046.024-2.23.027-4.44-.094-6.523a8.025,8.025,0,0,0-4.778,6.569" transform="translate(119.051 -98.687)" fill="#2f2fa7"/>
        <path id="Trazado_880676" data-name="Trazado 880676" d="M77.1,226.2a98.252,98.252,0,0,0,1.5,18.053c.7,4.34,1.367,8.686,2.258,12.993,1.175,5.684,2.512,11.332,3.776,17,1.239,5.549,2.373,11.122,3.532,16.689.777,3.73,1.517,7.468,2.275,11.2.2.977.2.951,1.194,1.011,2.9.174,5.8.206,8.7.12,2.021-.06,4.039-.2,6.058-.306.757-.041.858-.123.836-.9-.046-1.64-.118-3.28-.2-4.919-.071-1.345-.192-2.689-.269-4.034-.164-2.9-.442-5.784-.671-8.675-.213-2.688-.468-5.371-.74-8.053-.4-3.937-.87-7.865-1.488-11.772-.5-3.156-.88-6.328-1.307-9.493-.439-3.254-1-6.488-1.523-9.729-.509-3.154-1.11-6.293-1.448-9.472a57.182,57.182,0,0,1-.127-10.705c.417-5.151,1.363-10.223,2.094-15.326a65.69,65.69,0,0,1,1.438-7.6,45.916,45.916,0,0,1,4.432-10.505,42.34,42.34,0,0,0,2.864-5.74,19.467,19.467,0,0,0,.25-12.522c-.123-.423-.237-.847-.362-1.268-.3-.995-.322-1.024-1.332-1-1.318.036-2.635.125-3.953.137-2.522.024-5.044.012-7.566.012q-7.566,0-15.131,0c-1.2,0-1.294.074-1.377,1.271-.188,2.689-.343,5.38-.547,8.067-.183,2.4-.414,4.788-.626,7.181q-.3,3.371-.6,6.741c-.194,2.13-.4,4.259-.59,6.39-.16,1.809-.315,3.619-.452,5.431-.168,2.221-.311,4.443-.47,6.665-.093,1.316-.134,2.636-.182,3.952-.113,3.1-.331,6.208-.24,9.112" transform="translate(106.223 -46.91)" fill="#2f2fa7"/>
        <path id="Trazado_880677" data-name="Trazado 880677" d="M107.134,177.109a1,1,0,0,0-.354,1.078,53.633,53.633,0,0,0,.731,6.774,3.674,3.674,0,0,0,1.741,2.487,9.374,9.374,0,0,0,4.1,1.376c.224.023.478-.005.569-.268a.484.484,0,0,0-.164-.489c-2.914-3.055-4.711-6.776-6.323-10.606a1.741,1.741,0,0,0-.3-.353" transform="translate(82.171 -48.517)" fill="#1e1e77"/>
        <path id="Trazado_880678" data-name="Trazado 880678" d="M116.838,266.077a4.909,4.909,0,0,0-.97-2.927c-.054-.069-.1-.144-.16-.208-.134-.148-.25-.367-.484-.313-.257.06-.214.314-.233.509-.114,1.161-.213,2.323-.336,3.482-.089.841-.206,1.679-.308,2.517-.025.2-.076.431.105.574.229.181.447.025.637-.105a3.9,3.9,0,0,0,1.748-3.529" transform="translate(73.783 -71.942)" fill="#1e1e77"/>
        <path id="Trazado_880679" data-name="Trazado 880679" d="M108.524,172.6a1,1,0,0,1-1.026.968l-28.432.086a1,1,0,0,1-1.03-.963l-.005-2.039a1,1,0,0,1,1.025-.969l28.432-.086a1,1,0,0,1,1.031.963Z" transform="translate(108.446 -46.46)" fill="#af5091" fill-rule="evenodd"/>
        <path id="Trazado_880680" data-name="Trazado 880680" d="M117.663,173.274a.617.617,0,1,1-1.234-.019l.053-3.717a.617.617,0,1,1,1.234.019Z" transform="translate(71.375 -46.276)" fill="#fff" fill-rule="evenodd"/>
        <path id="Trazado_880681" data-name="Trazado 880681" d="M107.153,173.384a.617.617,0,1,1-1.234-.017l.054-3.718a.616.616,0,0,1,1.233.017Z" transform="translate(89.516 -46.307)" fill="#fff" fill-rule="evenodd"/>
        <path id="Trazado_880682" data-name="Trazado 880682" d="M113.376,169.474c0,.005,0,.011,0,.017h0v.012l-.046,3.431a.524.524,0,0,1-.009.062.5.5,0,0,1,.015.125.562.562,0,0,1-.551.571l-3.35.016a.562.562,0,0,1-.56-.566.138.138,0,0,1,0-.015.437.437,0,0,1-.018-.138l.049-3.435a.1.1,0,0,0,0-.026.152.152,0,0,1,0-.017.563.563,0,0,1,.553-.572l3.353-.017a.556.556,0,0,1,.548.459.409.409,0,0,1,.009.091m-1.18,3.084.012-.744-2.189.012-.011.743Zm-2.153-2.48-.009.608,2.189-.01.007-.608Z" transform="translate(81.208 -46.275)" fill="#fff" fill-rule="evenodd"/>
        <path id="Trazado_880683" data-name="Trazado 880683" d="M176.453,183.625c.452-.692.541-1.494,1-2.183a13.186,13.186,0,0,0,5.157-2.723l-3.882-7.428,0-.007-.146.078c-1.517.654-3.773.193-5.26-.394-.653-.257-1.417-.954-2.05-.558-.666.417-.411,1.65.228,2.559a5.262,5.262,0,0,0,1.7,1.259,34.609,34.609,0,0,0-3.132,1.668c-1.279.755-4.12,1.86-3.421,3.058.728,1.251,4-.75,5.067-.74-.625.714-1.279,1.461-1.933,2.368-.529.734-1.484,1.9-.949,2.671.846,1.219,2.945-1.16,3.656-1.844-.219,1.127-.794,4.95.339,5.281.843.248,1.262-1.1,1.676-1.3.127.726.282,2.424,1.2,2.249,1.324-.253.809-3.3.752-4.008" transform="translate(-29.905 -46.649)" fill="#935e45"/>
        <path id="Trazado_880684" data-name="Trazado 880684" d="M167.018,184a5.515,5.515,0,0,0,1-2.183,8.179,8.179,0,0,0,2.1-.7,11.13,11.13,0,0,0,3.1-1.938l-3.925-7.509a.191.191,0,0,0-.07.028c.1,2.278,2.146,5.86,3.65,7.435a16.1,16.1,0,0,1-2.5,1.122,12.353,12.353,0,0,0-2.381.753,4.81,4.81,0,0,0-.82,1.364,5.359,5.359,0,0,0-.7,1.4,12.5,12.5,0,0,1,.25,3.966c.877-1.035.4-2.58.285-3.736" transform="translate(-20.47 -47.026)" fill="#5d382e"/>
        <path id="Trazado_880685" data-name="Trazado 880685" d="M180.962,173.413a3.679,3.679,0,0,1-4.6-2.31,2.7,2.7,0,0,0,.612,2.167,3.834,3.834,0,0,0,1.659,1.179c.727-.471,1.816-.521,2.334-1.036" transform="translate(-35.332 -46.872)" fill="#5d382e"/>
        <path id="Trazado_880686" data-name="Trazado 880686" d="M185.266,178.247c-1.486.354-3.3,1.56-4.866,2.283a12.845,12.845,0,0,1-2.531.91c.518.461,3.522-.264,4.805-1.091a10.757,10.757,0,0,1,2.592-2.1" transform="translate(-40.784 -48.829)" fill="#5d382e"/>
        <path id="Trazado_880687" data-name="Trazado 880687" d="M181.263,184.232s.451-1.374.761-2.055a6.088,6.088,0,0,1,1.019-1.573c-2.6,1.6-2.039,4.295-5.011,5.787.7.238,1.434-.472,1.885-.824a7.591,7.591,0,0,0,1.346-1.335" transform="translate(-38.679 -49.475)" fill="#5d382e"/>
        <path id="Trazado_880688" data-name="Trazado 880688" d="M178.972,184.034c-2.75,1.477-1.091,5.116-2.766,6.42.908.227,1.462-.748,1.719-1.224a5.884,5.884,0,0,1,1.048-5.2" transform="translate(-33.283 -50.414)" fill="#5d382e"/>
        <path id="Trazado_880689" data-name="Trazado 880689" d="M144.459,102.707a6.663,6.663,0,0,0-3.228,1.04,19.551,19.551,0,0,0-4.286,3.884,77.057,77.057,0,0,0-8.984,13.216,81.128,81.128,0,0,1-7.573,11.42,17.9,17.9,0,0,1-6.046,4.858c-2.808,1.4-5.63,2.771-8.385,4.276-5.3,2.893-10.653,5.7-15.8,8.868-1.668,1.028-1.391.856-.883,2.395,1.013,3.062,2.095,6.1,3.29,9.1.1.245.2.486.308.729a.533.533,0,0,0,.7.351c.2-.057.4-.1.6-.157a123.7,123.7,0,0,0,24.349-9.574,49.025,49.025,0,0,0,12.317-8.835,64.534,64.534,0,0,0,4.878-5.774,112.355,112.355,0,0,0,10.34-16.018,34.72,34.72,0,0,0,3.87-10.522,12.007,12.007,0,0,0,.085-4.632,5.633,5.633,0,0,0-5.551-4.622" transform="translate(58.887 -28.135)" fill="#cecef4"/>
        <path id="Trazado_880690" data-name="Trazado 880690" d="M102.8,115.958a22.773,22.773,0,0,0,1.1-8.318,5.456,5.456,0,0,0-2.919-4.884c.169-.022.34-.04.514-.049a5.633,5.633,0,0,1,5.551,4.622,12.021,12.021,0,0,1-.085,4.632,34.729,34.729,0,0,1-3.871,10.522A112.334,112.334,0,0,1,92.75,138.5c-1.236,1.608-2.5,3.189-3.865,4.687a150.384,150.384,0,0,0,10.8-19.4,57.2,57.2,0,0,0,3.116-7.834" transform="translate(101.852 -28.135)" fill="#a4a4e4"/>
        <path id="Trazado_880691" data-name="Trazado 880691" d="M132.743,150.6a.983.983,0,0,1-.677-.339c-1.216-1.04-2.433-2.079-3.637-3.133a17.652,17.652,0,0,0,1.88-1.618,42.066,42.066,0,0,1,2.232,4.16,1.188,1.188,0,0,1,.2.93" transform="translate(47.598 -39.86)" fill="#a4a4e4"/>
      </g>
    </g>
  </g>
</svg>
