<svg xmlns="http://www.w3.org/2000/svg" width="86" height="86" viewBox="0 0 86 86">
  <g id="_2" data-name="2" transform="translate(-1019.949 -646)">
    <path id="Trazado_879077" data-name="Trazado 879077" d="M43,0A43,43,0,1,1,0,43,43,43,0,0,1,43,0Z" transform="translate(1019.949 646)" fill="#3ba935"/>
    <g id="poblacion-mundial_1_" data-name="poblacion-mundial (1)" transform="translate(1034.951 653.127)">
      <g id="Grupo_1101690" data-name="Grupo 1101690" transform="translate(0.828 19.232)">
        <path id="Trazado_879122" data-name="Trazado 879122" d="M312.285,167.021l-.677.078-1.864.755-3.47-.481-3-.352a3.511,3.511,0,0,0-1.523,2.9v3.9a1.51,1.51,0,1,0,3.02,0v9.625a1.5,1.5,0,0,0,3.009,0c0,.831.674-2.92,1.5-2.92a1.5,1.5,0,0,0,1.5-1.5v-5.2a1.51,1.51,0,1,0,3.02,0v-3.9a3.512,3.512,0,0,0-1.523-2.9Z" transform="translate(-269.201 -159.886)" fill="#ff7383"/>
        <path id="Trazado_879123" data-name="Trazado 879123" d="M317.507,161.416a3.5,3.5,0,0,0-1.993.62,5.585,5.585,0,0,0,9.012,0,3.5,3.5,0,0,0-1.993-.62h-5.026Z" transform="translate(-281.443 -154.901)" fill="#ff546a"/>
        <circle id="Elipse_11522" data-name="Elipse 11522" cx="3.829" cy="3.829" r="3.829" transform="translate(34.749)" fill="#ffe0cf"/>
        <path id="Trazado_879124" data-name="Trazado 879124" d="M203.284,167.021l-.677.078-1.864.755-3.469-.481-3-.352a3.511,3.511,0,0,0-1.523,2.9v3.9a1.51,1.51,0,1,0,3.02,0v9.625a1.5,1.5,0,0,0,3.009,0,1.5,1.5,0,1,0,3.009,0v-9.625a1.51,1.51,0,1,0,3.02,0v-3.9a3.513,3.513,0,0,0-1.523-2.9Z" transform="translate(-172.258 -159.886)" fill="#ff7383"/>
        <path id="Trazado_879125" data-name="Trazado 879125" d="M208.505,161.416a3.5,3.5,0,0,0-1.993.62,5.585,5.585,0,0,0,9.012,0,3.5,3.5,0,0,0-1.993-.62h-5.026Z" transform="translate(-184.498 -154.901)" fill="#ff546a"/>
        <circle id="Elipse_11523" data-name="Elipse 11523" cx="3.829" cy="3.829" r="3.829" transform="translate(22.691)" fill="#ffe0cf"/>
        <path id="Trazado_879126" data-name="Trazado 879126" d="M257.785,167.021l-.677.078-1.864.755-3.469-.481-3-.352a3.511,3.511,0,0,0-1.523,2.9v3.9a1.51,1.51,0,1,0,3.02,0v9.625a1.5,1.5,0,0,0,3.009,0,1.5,1.5,0,0,0,3.009,0v-9.625a1.51,1.51,0,1,0,3.02,0v-3.9A3.513,3.513,0,0,0,257.785,167.021Z" transform="translate(-220.73 -159.886)" fill="#8ac9fe"/>
        <path id="Trazado_879127" data-name="Trazado 879127" d="M263.006,161.416a3.5,3.5,0,0,0-1.993.62,5.585,5.585,0,0,0,9.012,0,3.5,3.5,0,0,0-1.993-.62h-5.026Z" transform="translate(-232.971 -154.901)" fill="#60b7ff"/>
        <circle id="Elipse_11524" data-name="Elipse 11524" cx="3.829" cy="3.829" r="3.829" transform="translate(28.72)" fill="#d78878"/>
        <path id="Trazado_879128" data-name="Trazado 879128" d="M135.239,242.242a2.487,2.487,0,0,0-3.272-.136l-10.537,8.473a1.714,1.714,0,0,1-1.074.378H108.528a2.693,2.693,0,1,0,0-5.386h-7a7.8,7.8,0,0,0-4.014,1.113l-7.344,4.411v6.818l5.748,4.168,5.328-2.937a3.346,3.346,0,0,1,1.615-.416h15.665a8.859,8.859,0,0,0,6.215-2.546l10.528-10.366A2.487,2.487,0,0,0,135.239,242.242Z" transform="translate(-81.026 -226.177)" fill="#ffe0cf"/>
        <g id="Grupo_1101689" data-name="Grupo 1101689" transform="translate(9.144 15.604)">
          <path id="Trazado_879129" data-name="Trazado 879129" d="M135.239,244.04a2.476,2.476,0,0,0-.688-.461,2.48,2.48,0,0,1-.708,2.166l-10.528,10.366a8.859,8.859,0,0,1-6.215,2.546H101.435a3.346,3.346,0,0,0-1.615.416l-5.328,2.937-4.322-3.134v.834l5.748,4.168,5.328-2.937a3.346,3.346,0,0,1,1.615-.416h15.665a8.859,8.859,0,0,0,6.215-2.546l10.528-10.366A2.487,2.487,0,0,0,135.239,244.04Z" transform="translate(-90.17 -243.579)" fill="#ffcfc0"/>
        </g>
        <path id="Trazado_879130" data-name="Trazado 879130" d="M300.436,231.578,310,220.535a2.093,2.093,0,0,1,3.267,2.613l-6.222,8.431h-6.605Z" transform="translate(-268.033 -206.837)" fill="#ffe0cf"/>
        <path id="Trazado_879131" data-name="Trazado 879131" d="M308.469,308.7H302.11l-1.674,1.934h6.605Z" transform="translate(-268.033 -285.895)" fill="#ffcfc0"/>
        <path id="Trazado_879132" data-name="Trazado 879132" d="M15.744,304.306l7.368,13.912a1.358,1.358,0,0,1-.282,1.636l-5.037,4.624a1.358,1.358,0,0,1-2.151-.429L7.63,306.763a1.358,1.358,0,0,1,.94-1.9l5.682-1.25A1.358,1.358,0,0,1,15.744,304.306Z" transform="translate(-7.503 -281.342)" fill="#8ac9fe"/>
        <path id="Trazado_879133" data-name="Trazado 879133" d="M63.584,318.217l-7.368-13.912a1.358,1.358,0,0,0-1.492-.691l-1.715.377a1.548,1.548,0,0,1,.633.638l8.42,15.9a1.555,1.555,0,0,1,.132.342l1.108-1.017A1.358,1.358,0,0,0,63.584,318.217Z" transform="translate(-47.975 -281.341)" fill="#60b7ff"/>
      </g>
      <g id="Grupo_1101691" data-name="Grupo 1101691" transform="translate(-0.002 8.873)">
        <path id="Trazado_879134" data-name="Trazado 879134" d="M56.644,113.686a3.29,3.29,0,0,0-1.03-2.374,3.327,3.327,0,0,0-4.364-.182l-8.365,6.727,3.842-5.206a2.921,2.921,0,0,0-.463-3.966v-2.806a4.37,4.37,0,0,0-2.735-4.036,4.658,4.658,0,0,0-7.139-5.716,4.65,4.65,0,0,0-6.025,0,4.648,4.648,0,0,0-3.016-1.108c-.143,0-.291.007-.44.021a.83.83,0,1,0,.155,1.652c.1-.009.194-.014.285-.014a2.992,2.992,0,0,1,1.961.73,4.653,4.653,0,0,0-.056,4.435,4.34,4.34,0,0,0-1.235.758,3,3,0,0,1-3.669-2.924,2.979,2.979,0,0,1,.543-1.72A.83.83,0,0,0,23.534,97a4.654,4.654,0,0,0-.31,4.84,4.37,4.37,0,0,0-2.735,4.036v3.9a2.34,2.34,0,0,0,3.02,2.238v2.391H21.331a8.627,8.627,0,0,0-4.441,1.231l-6.494,3.9-.593-1.12a2.194,2.194,0,0,0-2.4-1.113l-5.682,1.25A2.188,2.188,0,0,0,.2,121.617l5.127,11.061a.83.83,0,0,0,1.505-.7L1.707,120.92a.528.528,0,0,1,.366-.738l5.682-1.25a.53.53,0,0,1,.581.269L15.7,133.111a.529.529,0,0,1-.11.637l-5.037,4.624a.528.528,0,0,1-.837-.167l-1.531-3.3a.83.83,0,1,0-1.505.7l1.531,3.3a2.166,2.166,0,0,0,1.557,1.225,2.227,2.227,0,0,0,.437.043,2.163,2.163,0,0,0,1.471-.577l5.037-4.625a2.189,2.189,0,0,0,.454-2.635L16.992,132l4.458-2.457a2.522,2.522,0,0,1,1.215-.313H38.329a9.632,9.632,0,0,0,6.8-2.785l4.48-4.411a.83.83,0,0,0-1.164-1.182l-4.48,4.411a7.982,7.982,0,0,1-5.633,2.308H22.664a4.187,4.187,0,0,0-2.016.519l-4.433,2.444-5.042-9.52,6.57-3.946a6.967,6.967,0,0,1,3.587-.994h7a1.864,1.864,0,1,1,0,3.727H23.366a.83.83,0,0,0,0,1.659H40.158a2.553,2.553,0,0,0,1.594-.561l10.537-8.473a1.662,1.662,0,0,1,2.18.091,1.657,1.657,0,0,1,.02,2.381l-3.762,3.7a.83.83,0,1,0,1.164,1.182l3.762-3.7a3.289,3.289,0,0,0,.989-2.392Zm-11.253-2.02-5.974,8.094H35.047l8.373-9.671a1.263,1.263,0,0,1,1.972,1.577Zm-.787-5.787V108a2.91,2.91,0,0,0-1.36.219v-.4a.83.83,0,1,0-1.659,0v1.852l-4.369,5.047v-2.7a2.34,2.34,0,0,0,3.019-2.238v-3.9a4.3,4.3,0,0,0-.3-1.574,4.639,4.639,0,0,0,2.47-1.068,2.7,2.7,0,0,1,2.2,2.642Zm-2.2-6.2a3,3,0,0,1-3,3,3.506,3.506,0,0,1-.664-.07,4.341,4.341,0,0,0-1.241-.763,4.653,4.653,0,0,0-.056-4.435,3,3,0,0,1,4.96,2.269Zm-9.028-3a3,3,0,1,1-3,3A3,3,0,0,1,33.377,96.677Zm-8.208,17.735v-6.591a.83.83,0,1,0-1.659,0v1.962a.68.68,0,0,1-1.36,0v-3.9a2.7,2.7,0,0,1,2.2-2.642,4.639,4.639,0,0,0,2.47,1.068,4.3,4.3,0,0,0-.3,1.574v3.9a2.34,2.34,0,0,0,3.019,2.238v2.6a3.505,3.505,0,0,0-1.207-.213H25.169Zm6.029,1.478v-8.069a.83.83,0,1,0-1.659,0v1.962a.68.68,0,1,1-1.36,0v-3.9a2.7,2.7,0,0,1,2.2-2.642,4.65,4.65,0,0,0,6,0,2.7,2.7,0,0,1,2.2,2.642v3.9a.68.68,0,0,1-1.36,0v-1.962a.83.83,0,1,0-1.659,0v8.816l-1.35,1.559v-2.836a.83.83,0,1,0-1.659,0V119.8H31.319a3.516,3.516,0,0,0-.122-3.909Z" transform="translate(0.002 -85.489)"/>
        <path id="Trazado_879135" data-name="Trazado 879135" d="M399.668,65.733a.83.83,0,0,0,1.155-.209L402.57,63h5.93a.83.83,0,1,0,0-1.659h-6.365a.829.829,0,0,0-.682.357l-2,2.877A.83.83,0,0,0,399.668,65.733Z" transform="translate(-355.14 -55.541)"/>
        <path id="Trazado_879136" data-name="Trazado 879136" d="M438.279,36.768h4.142a.83.83,0,0,0,0-1.659h-4.142a.83.83,0,0,0,0,1.659Z" transform="translate(-389.06 -32.207)"/>
        <path id="Trazado_879137" data-name="Trazado 879137" d="M438.279,10.532h4.142a.83.83,0,0,0,0-1.659h-4.142a.83.83,0,0,0,0,1.659Z" transform="translate(-389.06 -8.873)"/>
        <path id="Trazado_879138" data-name="Trazado 879138" d="M79.739,141.484h5.931L87.417,144a.83.83,0,1,0,1.364-.946l-2-2.877a.829.829,0,0,0-.682-.357H79.739a.83.83,0,0,0,0,1.659Z" transform="translate(-70.18 -125.339)"/>
        <path id="Trazado_879139" data-name="Trazado 879139" d="M79.739,115.25H83.88a.83.83,0,1,0,0-1.659H79.739a.83.83,0,1,0,0,1.659Z" transform="translate(-70.18 -102.007)"/>
        <path id="Trazado_879140" data-name="Trazado 879140" d="M79.739,89.013H83.88a.83.83,0,0,0,0-1.659H79.739a.83.83,0,1,0,0,1.659Z" transform="translate(-70.18 -78.673)"/>
      </g>
    </g>
  </g>
</svg>
