<svg xmlns="http://www.w3.org/2000/svg" width="85" height="139" viewBox="0 0 85 139">
  <g id="_2" data-name="2" transform="translate(-180.051 -758)">
    <rect id="Rectángulo_402277" data-name="Rectángulo 402277" width="85" height="139" rx="6" transform="translate(180.051 758)" fill="#73c8e2"/>
    <g id="analitica-" transform="translate(181.051 786)">
      <path id="Trazado_879078" data-name="Trazado 879078" d="M21.606,77.98H16.448A6.448,6.448,0,0,1,10,71.532V16.448A6.448,6.448,0,0,1,16.448,10H82.861a6.448,6.448,0,0,1,6.448,6.448V71.532a6.448,6.448,0,0,1-6.448,6.448H21.606Z" transform="translate(-8.388 -8.388)" fill="#fff"/>
      <path id="Trazado_879079" data-name="Trazado 879079" d="M82.861,10H16.448A6.448,6.448,0,0,0,10,16.448v5.158H89.309V16.448A6.448,6.448,0,0,0,82.861,10Z" transform="translate(-8.388 -8.388)" fill="#ff5a5a"/>
      <path id="Trazado_879080" data-name="Trazado 879080" d="M21,82H97.572" transform="translate(-17.618 -68.782)" fill="#231f20"/>
      <rect id="Rectángulo_402416" data-name="Rectángulo 402416" width="10.373" height="17.555" transform="translate(8.777 63.383)" fill="#a5dc69"/>
      <rect id="Rectángulo_402417" data-name="Rectángulo 402417" width="9.575" height="21.544" transform="translate(45.483 59.393)" fill="#78d2fa"/>
      <rect id="Rectángulo_402418" data-name="Rectángulo 402418" width="10.317" height="35.555" transform="translate(27.081 45.366)" fill="#f5c86e"/>
      <rect id="Rectángulo_402419" data-name="Rectángulo 402419" width="10.317" height="37.962" transform="translate(63.189 42.959)" fill="#ff5a5a"/>
      <circle id="Elipse_11503" data-name="Elipse 11503" cx="4.191" cy="4.191" r="4.191" transform="translate(27.141 23.525)" fill="#f5c86e"/>
      <circle id="Elipse_11504" data-name="Elipse 11504" cx="4.191" cy="4.191" r="4.191" transform="translate(45.953 42.717)" fill="#78d2fa"/>
      <circle id="Elipse_11505" data-name="Elipse 11505" cx="4.191" cy="4.191" r="4.191" transform="translate(64.157 23.525)" fill="#ff5a5a"/>
      <circle id="Elipse_11506" data-name="Elipse 11506" cx="4.191" cy="4.191" r="4.191" transform="translate(9.888 41.175)" fill="#a5dc69"/>
      <path id="Trazado_879081" data-name="Trazado 879081" d="M76.9,71.008a5.635,5.635,0,0,0,5.629-5.629V8.06A8.069,8.069,0,0,0,74.473,0H8.06A8.069,8.069,0,0,0,0,8.06V65.379a5.635,5.635,0,0,0,5.629,5.629H7.415v8.3h-5.8a1.612,1.612,0,0,0,0,3.224H80.921a1.612,1.612,0,0,0,0-3.224h-5.8v-8.3ZM8.06,3.224H74.473A4.841,4.841,0,0,1,79.309,8.06v3.546H3.386c-.055,0-.109,0-.162.008V8.06A4.841,4.841,0,0,1,8.06,3.224Zm2.579,76.085V64.8h7.093V79.309Zm18.054,0V46.978h7.093V79.309Zm18.054,0V60.61H53.84v18.7Zm18.054,0V61.94a1.612,1.612,0,0,0-3.224,0V79.309H57.064V59a1.612,1.612,0,0,0-1.612-1.612H45.135A1.612,1.612,0,0,0,43.523,59V79.309H39.01V45.366A1.612,1.612,0,0,0,37.4,43.754H27.081a1.612,1.612,0,0,0-1.612,1.612V79.309H20.956V63.189a1.612,1.612,0,0,0-1.612-1.612H9.027a1.612,1.612,0,0,0-1.612,1.612v4.594H5.629a2.407,2.407,0,0,1-2.4-2.4V14.822c.053.005.107.008.162.008H79.309V65.379a2.407,2.407,0,0,1-2.4,2.4H75.118V42.959a1.612,1.612,0,0,0-1.612-1.612H63.189a1.612,1.612,0,0,0-1.612,1.612V51.1a1.612,1.612,0,0,0,3.224,0V44.571h7.093V79.309Z"/>
      <path id="Trazado_879082" data-name="Trazado 879082" d="M213.677,39.224H250.1a1.612,1.612,0,0,0,0-3.224h-36.42a1.612,1.612,0,1,0,0,3.224Z" transform="translate(-177.881 -30.197)"/>
      <path id="Trazado_879083" data-name="Trazado 879083" d="M95.612,39.224a1.613,1.613,0,1,0-1.14-.472A1.624,1.624,0,0,0,95.612,39.224Z" transform="translate(-78.847 -30.197)"/>
      <path id="Trazado_879084" data-name="Trazado 879084" d="M55.612,39.224a1.613,1.613,0,1,0-1.14-.472A1.624,1.624,0,0,0,55.612,39.224Z" transform="translate(-45.295 -30.197)"/>
      <path id="Trazado_879085" data-name="Trazado 879085" d="M135.612,39.224a1.613,1.613,0,1,0-1.14-.472A1.624,1.624,0,0,0,135.612,39.224Z" transform="translate(-112.4 -30.197)"/>
      <path id="Trazado_879086" data-name="Trazado 879086" d="M383.612,342.64a1.613,1.613,0,1,0,1.14.472A1.618,1.618,0,0,0,383.612,342.64Z" transform="translate(-320.422 -287.407)"/>
      <path id="Trazado_879087" data-name="Trazado 879087" d="M111.409,147.545a5.812,5.812,0,1,0-4.7-2.4L96.005,155.854a5.789,5.789,0,0,0-5.352-.13l-11.181-11.18a5.8,5.8,0,1,0-10.014.249l-9.519,9.519a5.808,5.808,0,1,0,2.28,2.28l9.633-9.633a5.79,5.79,0,0,0,5.341-.136l11.071,11.071a5.8,5.8,0,1,0,10.021.24l10.994-10.994A5.765,5.765,0,0,0,111.409,147.545Zm0-8.382a2.579,2.579,0,1,1-2.579,2.579A2.582,2.582,0,0,1,111.409,139.163ZM57.139,161.971a2.579,2.579,0,1,1,2.579-2.579A2.582,2.582,0,0,1,57.139,161.971Zm17.254-17.65a2.579,2.579,0,1,1,2.579-2.579A2.582,2.582,0,0,1,74.393,144.321ZM93.2,163.513a2.579,2.579,0,1,1,2.579-2.579A2.582,2.582,0,0,1,93.2,163.513Z" transform="translate(-43.061 -114.026)"/>
      <path id="Trazado_879088" data-name="Trazado 879088" d="M132.872,129.244a1.61,1.61,0,1,0-1.141-.472A1.626,1.626,0,0,0,132.872,129.244Z" transform="translate(-110.101 -105.706)"/>
      <path id="Trazado_879089" data-name="Trazado 879089" d="M47.612,129.245h7.737a1.612,1.612,0,0,0,0-3.224H47.612a1.612,1.612,0,0,0,0,3.224Z" transform="translate(-38.585 -105.707)"/>
      <path id="Trazado_879090" data-name="Trazado 879090" d="M55.349,177.245a1.612,1.612,0,1,0,0-3.224H47.612a1.612,1.612,0,1,0,0,3.224Z" transform="translate(-38.585 -145.969)"/>
    </g>
  </g>
</svg>
