<svg xmlns="http://www.w3.org/2000/svg" xmlns:xlink="http://www.w3.org/1999/xlink" width="295" height="265" viewBox="0 0 295 265">
  <defs>
    <clipPath id="clip-path">
      <rect id="Rectángulo_402472" data-name="Rectángulo 402472" width="281.692" height="199.438" fill="none"/>
    </clipPath>
  </defs>
  <g id="_4" data-name="4" transform="translate(-180.051 -2019)">
    <rect id="Rectángulo_402397" data-name="Rectángulo 402397" width="295" height="265" rx="9" transform="translate(180.051 2019)" fill="#eaf5e9"/>
    <g id="Grupo_1101753" data-name="Grupo 1101753" transform="translate(187.051 2052)">
      <g id="Grupo_1101748" data-name="Grupo 1101748">
        <g id="Grupo_1101747" data-name="Grupo 1101747" clip-path="url(#clip-path)">
          <path id="Trazado_879519" data-name="Trazado 879519" d="M250.568,176.995l-85.816.625a7.136,7.136,0,0,1-7.188-7.083l-.884-121.3a7.137,7.137,0,0,1,7.084-7.188l85.816-.625a7.136,7.136,0,0,1,7.188,7.083l.883,121.3a7.136,7.136,0,0,1-7.083,7.188" transform="translate(23.948 6.332)" fill="#fff"/>
          <path id="Trazado_879520" data-name="Trazado 879520" d="M250.609,177.032c0-.031.406,0,1.172-.144a7.107,7.107,0,0,0,5.769-6.17c.093-2.209-.021-4.807-.024-7.7-.107-11.629-.263-28.43-.454-49.19-.086-10.385-.182-21.758-.284-33.968q-.074-9.158-.153-18.923-.038-4.878-.078-9.9c-.055-1.679.156-3.384-.483-4.894a6.917,6.917,0,0,0-3.191-3.6,6.774,6.774,0,0,0-2.354-.736,23.736,23.736,0,0,0-2.559-.046l-5.242.04-10.664.083-21.994.167-46.251.344a6.827,6.827,0,0,0-5.029,2.26,7.035,7.035,0,0,0-1.764,5.222q.043,5.869.084,11.658.081,11.576.161,22.793c.1,14.943.2,29.357.3,43.089s.176,26.778.257,38.99c.017,1.519,0,3.053.047,4.526a6.849,6.849,0,0,0,1.529,3.95,6.932,6.932,0,0,0,3.482,2.284,15.967,15.967,0,0,0,4.2.247l16.3-.1c20.759-.112,37.56-.2,49.187-.263l13.373-.041,3.478,0c.784,0,1.185.022,1.185.022s-.4.023-1.185.039l-3.477.055-13.372.153-49.186.454-16.3.138-2.136.017a7.759,7.759,0,0,1-2.2-.273,7.355,7.355,0,0,1-5.372-6.659c-.051-1.524-.036-3.02-.056-4.551-.1-12.212-.2-25.26-.312-38.99s-.216-28.145-.331-43.088q-.085-11.207-.171-22.793-.043-5.788-.086-11.659a7.638,7.638,0,0,1,1.918-5.628,7.432,7.432,0,0,1,5.47-2.458l46.25-.331,21.994-.153,10.664-.073,5.243-.036a23.758,23.758,0,0,1,2.631.054,7.3,7.3,0,0,1,2.545.8,7.444,7.444,0,0,1,3.937,6.465q.01,1.264.018,2.519.033,5.017.066,9.9.064,9.755.123,18.923c.075,12.21.146,23.584.21,33.969.112,20.759.2,37.561.264,49.19-.015,2.907.082,5.475-.032,7.728a7.2,7.2,0,0,1-2.758,4.833,6.967,6.967,0,0,1-3.178,1.376,5.085,5.085,0,0,1-.884.082c-.2.007-.3,0-.3,0" transform="translate(23.907 6.295)" fill="#263238"/>
          <rect id="Rectángulo_402470" data-name="Rectángulo 402470" width="85.215" height="3.394" transform="translate(188.684 168.399)" fill="#e0e0e0"/>
          <path id="Trazado_879521" data-name="Trazado 879521" d="M172.072,128.128l1.521,3.079a1.191,1.191,0,0,0,.9.652l3.4.493a1.191,1.191,0,0,1,.659,2.031l-2.459,2.4a1.187,1.187,0,0,0-.342,1.054l.58,3.385a1.191,1.191,0,0,1-1.728,1.255l-3.04-1.6a1.191,1.191,0,0,0-1.108,0l-3.04,1.6a1.191,1.191,0,0,1-1.728-1.255l.581-3.385a1.19,1.19,0,0,0-.344-1.054l-2.459-2.4a1.191,1.191,0,0,1,.661-2.031l3.4-.493a1.194,1.194,0,0,0,.9-.652l1.519-3.079a1.191,1.191,0,0,1,2.136,0" transform="translate(24.929 19.483)" fill="#3ba935"/>
          <path id="Trazado_879522" data-name="Trazado 879522" d="M187.456,128.128l1.519,3.079a1.194,1.194,0,0,0,.9.652l3.4.493a1.191,1.191,0,0,1,.661,2.031l-2.459,2.4a1.187,1.187,0,0,0-.342,1.054l.58,3.385a1.191,1.191,0,0,1-1.728,1.255l-3.04-1.6a1.191,1.191,0,0,0-1.108,0l-3.04,1.6a1.191,1.191,0,0,1-1.728-1.255l.58-3.385a1.187,1.187,0,0,0-.342-1.054l-2.459-2.4a1.191,1.191,0,0,1,.661-2.031l3.4-.493a1.194,1.194,0,0,0,.9-.652l1.519-3.079a1.191,1.191,0,0,1,2.136,0" transform="translate(27.281 19.483)" fill="#3ba935"/>
          <path id="Trazado_879523" data-name="Trazado 879523" d="M202.84,128.128l1.518,3.079a1.2,1.2,0,0,0,.9.652l3.4.493a1.19,1.19,0,0,1,.661,2.031l-2.459,2.4a1.186,1.186,0,0,0-.341,1.054l.579,3.385a1.191,1.191,0,0,1-1.728,1.255l-3.04-1.6a1.191,1.191,0,0,0-1.108,0l-3.04,1.6a1.191,1.191,0,0,1-1.728-1.255l.582-3.385a1.194,1.194,0,0,0-.344-1.054l-2.459-2.4a1.19,1.19,0,0,1,.661-2.031l3.4-.493a1.2,1.2,0,0,0,.9-.652l1.518-3.079a1.192,1.192,0,0,1,2.137,0" transform="translate(29.632 19.483)" fill="#3ba935"/>
          <path id="Trazado_879524" data-name="Trazado 879524" d="M218.223,128.128l1.519,3.079a1.194,1.194,0,0,0,.9.652l3.4.493a1.191,1.191,0,0,1,.661,2.031l-2.459,2.4a1.186,1.186,0,0,0-.342,1.054l.58,3.385a1.191,1.191,0,0,1-1.728,1.255l-3.04-1.6a1.191,1.191,0,0,0-1.108,0l-3.04,1.6a1.191,1.191,0,0,1-1.728-1.255l.58-3.385a1.186,1.186,0,0,0-.342-1.054l-2.459-2.4a1.191,1.191,0,0,1,.661-2.031l3.4-.493a1.194,1.194,0,0,0,.9-.652l1.519-3.079a1.191,1.191,0,0,1,2.136,0" transform="translate(31.984 19.483)" fill="#3ba935"/>
          <path id="Trazado_879525" data-name="Trazado 879525" d="M233.607,128.128l1.519,3.079a1.194,1.194,0,0,0,.9.652l3.4.493a1.191,1.191,0,0,1,.661,2.031l-2.459,2.4a1.187,1.187,0,0,0-.342,1.054l.58,3.385a1.191,1.191,0,0,1-1.728,1.255l-3.04-1.6a1.191,1.191,0,0,0-1.108,0l-3.04,1.6a1.191,1.191,0,0,1-1.728-1.255l.58-3.385a1.186,1.186,0,0,0-.342-1.054l-2.459-2.4a1.191,1.191,0,0,1,.661-2.031l3.4-.493a1.194,1.194,0,0,0,.9-.652l1.519-3.079a1.191,1.191,0,0,1,2.136,0" transform="translate(34.335 19.483)" fill="#e0e0e0"/>
          <rect id="Rectángulo_402471" data-name="Rectángulo 402471" width="92.007" height="87.152" transform="translate(184.219 53.139)" fill="#ebebeb"/>
          <path id="Trazado_879526" data-name="Trazado 879526" d="M225.538,65.679s9.082,2.488,10.245,19.59c.991,14.58,2.516,44.8,2.516,44.8H226.863Z" transform="translate(34.473 10.039)" fill="#e2dacc"/>
          <path id="Trazado_879527" data-name="Trazado 879527" d="M185.459,77.15,191.3,63.487l22.559-3.472,7.468,17.675-16.594,27.521Z" transform="translate(28.347 9.173)" fill="#ae7461"/>
          <path id="Trazado_879528" data-name="Trazado 879528" d="M221.587,18.184a3.6,3.6,0,0,0-6.467-1.62c-.247-2.1-3.366-2.7-5.043-1.4s-2.219,3.548-2.655,5.621l-1.8.493a6.082,6.082,0,0,0-4.193,10.276A5.807,5.807,0,0,0,207.8,40.6a6.943,6.943,0,0,0,12.938,4.527,5.6,5.6,0,0,0,6.175-8.12,6.178,6.178,0,0,0,.685-10.971,5.15,5.15,0,0,0,.506-6.613,5.15,5.15,0,0,0-6.515-1.238" transform="translate(30.535 2.213)" fill="#263238"/>
          <path id="Trazado_879529" data-name="Trazado 879529" d="M219.5,33.373c1.4-2.464-1.579-6.659-3.857-8.347A3.25,3.25,0,0,0,215,20.715c-1.306-1.21-1.268-1.534-2.972-2.052a8.167,8.167,0,0,0-10.249-4.6c-2.52-2.785-7.045-2.649-10.472-1.111a9.621,9.621,0,0,1-2.572.948,15.707,15.707,0,0,1-2.017,0c-3.7.016-6.953,3.075-7.9,6.653a25.017,25.017,0,0,1-1.923,2.769c-.386.673-1,1.025-1.3,1.738-1.056,2.464.482,3.273.642,4.943.137,1.419-.4,1.37-.815,2.733-.209.684-.674,1.277-.814,1.978-.4,2.031,2.022,3.714,1.9,5.783-.024.422-.156.83-.213,1.25a3.613,3.613,0,0,0,.565,2.472,5.171,5.171,0,0,1,1.039,1.691,5.854,5.854,0,0,1-.09,1.509c-.078,1.235,3.159,5.508,4.287,6.017l31.065-4.033a5.854,5.854,0,0,0,3.793-5.616,2.149,2.149,0,0,1,.13-1.182,2.514,2.514,0,0,1,.771-.667c1.848-1.35,1.709-4.126,1.184-6.355a2.78,2.78,0,0,1-.114-.95,3.5,3.5,0,0,1,.571-1.265" transform="translate(26.681 1.814)" fill="#263238"/>
          <path id="Trazado_879530" data-name="Trazado 879530" d="M189.835,12.854a8.619,8.619,0,0,1,2.664-.937,8.349,8.349,0,0,1,3.316,0,7.16,7.16,0,0,1,3.777,2.188l-.2-.046a8.01,8.01,0,0,1,5.773.065,8.176,8.176,0,0,1,4.761,4.621l-.15-.142a5.121,5.121,0,0,1,1.614.729c.493.382.857.823,1.285,1.215a4.47,4.47,0,0,1,1.137,1.473,3.257,3.257,0,0,1,.235,1.91,4.1,4.1,0,0,1-.522,1.381L213.46,25a12.865,12.865,0,0,1,3.668,4.554,5.861,5.861,0,0,1,.616,2.76,3.218,3.218,0,0,1-.391,1.362,3.564,3.564,0,0,0-.525,1.094,3.255,3.255,0,0,0,.146,1.164q.135.616.209,1.23a8.47,8.47,0,0,1-.016,2.4,4.387,4.387,0,0,1-.883,2.082,4.055,4.055,0,0,1-.807.716,1.458,1.458,0,0,0-.624.609,2.127,2.127,0,0,0-.07.861,6.131,6.131,0,0,1-.031.913,5.813,5.813,0,0,1-.43,1.609,6.074,6.074,0,0,1-1.539,2.142,5.315,5.315,0,0,1-1.4.9,3.573,3.573,0,0,1-.4.149.431.431,0,0,1-.143.032,7.527,7.527,0,0,0,1.82-1.214,6.049,6.049,0,0,0,1.42-2.107,5.628,5.628,0,0,0,.376-1.54,5.691,5.691,0,0,0,.013-.867,2.385,2.385,0,0,1,.076-1,1.779,1.779,0,0,1,.737-.775,3.611,3.611,0,0,0,.722-.658,4.017,4.017,0,0,0,.779-1.914,8.114,8.114,0,0,0-.01-2.284q-.076-.591-.213-1.192A3.542,3.542,0,0,1,216.4,34.7a3.858,3.858,0,0,1,.567-1.243,2.753,2.753,0,0,0,.325-1.169,5.424,5.424,0,0,0-.587-2.534,12.478,12.478,0,0,0-3.531-4.366L213,25.252l.108-.183a3.626,3.626,0,0,0,.462-1.217,3.137,3.137,0,0,0-1.228-2.956c-.436-.4-.823-.862-1.24-1.183a4.712,4.712,0,0,0-1.466-.662l-.112-.035-.039-.107a7.764,7.764,0,0,0-4.48-4.384,7.664,7.664,0,0,0-5.484-.125l-.119.045-.083-.092a6.913,6.913,0,0,0-3.57-2.149,8.389,8.389,0,0,0-3.216-.088,19.808,19.808,0,0,0-2.7.738" transform="translate(29.016 1.796)" fill="#455a64"/>
          <path id="Trazado_879531" data-name="Trazado 879531" d="M210.512,33.381A16.777,16.777,0,0,0,199.593,20.2a20.731,20.731,0,0,0-8.2-.751,12.689,12.689,0,0,0-7.084,2.607c-1.649.651-7.068,7.3-6.48,13.569.652,6.963,1.725,15.439,3.352,20.454,3.274,10.085,11.41,10.152,11.41,10.152,0-.016.406,4.961.406,4.961L203.55,78.65l9.616-11.459Z" transform="translate(27.174 2.958)" fill="#ae7461"/>
          <path id="Trazado_879532" data-name="Trazado 879532" d="M183.188,40.547a1.344,1.344,0,0,0,1.491,1.138,1.285,1.285,0,0,0,1.178-1.411,1.342,1.342,0,0,0-1.488-1.138,1.284,1.284,0,0,0-1.181,1.411" transform="translate(27.999 5.981)" fill="#263238"/>
          <path id="Trazado_879533" data-name="Trazado 879533" d="M180.423,36.778c.19.148,1.078-.755,2.506-.976,1.424-.242,2.587.327,2.714.128.065-.089-.152-.375-.661-.635a3.7,3.7,0,0,0-2.207-.317,3.542,3.542,0,0,0-1.962.994c-.386.406-.485.742-.391.807" transform="translate(27.572 5.339)" fill="#263238"/>
          <path id="Trazado_879534" data-name="Trazado 879534" d="M189.712,46.76a9.634,9.634,0,0,0-2.385-.052c-.371.02-.726,0-.828-.237a1.887,1.887,0,0,1,.073-1.119c.205-.936.416-1.917.64-2.946.875-4.188,1.447-7.609,1.277-7.642s-1.016,3.334-1.888,7.521q-.311,1.548-.593,2.956a2.131,2.131,0,0,0,.037,1.461.925.925,0,0,0,.682.438,2.525,2.525,0,0,0,.634-.012,9.389,9.389,0,0,0,2.351-.368" transform="translate(28.413 5.313)" fill="#263238"/>
          <path id="Trazado_879535" data-name="Trazado 879535" d="M190.626,60.806a27.2,27.2,0,0,0,13.311-5.949s-2.594,7.866-13.1,8.53Z" transform="translate(29.137 8.385)" fill="#6f4439"/>
          <path id="Trazado_879536" data-name="Trazado 879536" d="M180.018,31.532c.344.256,1.315-.325,2.573-.64,1.249-.356,2.383-.339,2.549-.732.07-.188-.174-.467-.714-.659a3.9,3.9,0,0,0-2.222-.024,3.86,3.86,0,0,0-1.906,1.13c-.368.435-.437.8-.281.926" transform="translate(27.504 4.483)" fill="#263238"/>
          <path id="Trazado_879537" data-name="Trazado 879537" d="M196.691,38.5a1.343,1.343,0,0,1-1.125,1.5,1.285,1.285,0,0,1-1.518-1.039,1.342,1.342,0,0,1,1.123-1.5,1.285,1.285,0,0,1,1.521,1.038" transform="translate(29.658 5.722)" fill="#263238"/>
          <path id="Trazado_879538" data-name="Trazado 879538" d="M198.137,34.5c-.144.194-1.244-.432-2.679-.258-1.434.154-2.4,1.019-2.577.862-.085-.069.046-.4.463-.792a3.693,3.693,0,0,1,2.037-.9,3.541,3.541,0,0,1,2.158.423c.482.286.67.582.6.67" transform="translate(29.478 5.102)" fill="#263238"/>
          <path id="Trazado_879539" data-name="Trazado 879539" d="M197.553,28.181c-.243.36-1.391.154-2.724.3-1.337.1-2.433.514-2.732.2-.135-.152,0-.5.46-.867a4.138,4.138,0,0,1,2.148-.8,4.091,4.091,0,0,1,2.249.394c.51.279.7.6.6.77" transform="translate(29.354 4.126)" fill="#263238"/>
          <path id="Trazado_879540" data-name="Trazado 879540" d="M206.066,40.639c-.12-.771.484-2.728,1.227-2.966,1.982-.636,5.669-1.051,6.516,4.1,1.159,7.045-7.451,6.979-7.5,6.78a66.086,66.086,0,0,0-.247-7.917" transform="translate(31.495 5.702)" fill="#ae7461"/>
          <path id="Trazado_879541" data-name="Trazado 879541" d="M208.457,45.237c.028-.028.137.066.36.127a1.246,1.246,0,0,0,.921-.133,3.079,3.079,0,0,0,.957-2.955,4.108,4.108,0,0,0-.633-1.7,1.435,1.435,0,0,0-1.078-.79.632.632,0,0,0-.669.454c-.062.213.006.347-.03.364-.016.022-.171-.092-.161-.392a.788.788,0,0,1,.205-.488.934.934,0,0,1,.649-.292,1.748,1.748,0,0,1,1.461.882,4.221,4.221,0,0,1,.748,1.894c.189,1.427-.319,2.875-1.29,3.337a1.338,1.338,0,0,1-1.153,0c-.247-.138-.309-.291-.287-.307" transform="translate(31.811 6.027)" fill="#6f4439"/>
          <path id="Trazado_879542" data-name="Trazado 879542" d="M176.49,36.4a4.151,4.151,0,0,0,1.652-4.133c.989.133,1.758-1.235,2.18-2.139s1.034-1.424.837-2.4a1.121,1.121,0,0,1-.02-.584c.1-.293.422-.433.7-.571a4.781,4.781,0,0,0,2.6-3.772,10.115,10.115,0,0,0,4.96.039,3.866,3.866,0,0,0,6.42-1.3,3.463,3.463,0,0,0,2.557,1.33,10.311,10.311,0,0,0,2.951-.3,4.094,4.094,0,0,0,3.381,4.163.993.993,0,0,1,.717.286,1.029,1.029,0,0,1,.015.8,3.223,3.223,0,0,0,2.769,3.718,2.4,2.4,0,0,0,.8,3.687c.281.115.646.249.653.552a.678.678,0,0,1-.108.325,4.681,4.681,0,0,0-.746,2.505,1.725,1.725,0,0,0,1.694,1.667,2.284,2.284,0,0,0-.654,1.685c.085.614.716,2.519,1.336,2.517,1.59,0,3.637-3.06,3.758-3.294,1.571-3.023-1.409-5.621-2.134-8.95a22.133,22.133,0,0,0-4.545-9.05,16.14,16.14,0,0,0-3.039-3.007,21.627,21.627,0,0,0-4.326-2.247,19.691,19.691,0,0,0-6.082-1.809c-3.946-.3-7.685,1.7-10.977,3.9a16.8,16.8,0,0,0-3.477,2.86,15.188,15.188,0,0,0-2.566,4.722,18.934,18.934,0,0,0-1.419,7.621" transform="translate(26.955 2.461)" fill="#263238"/>
          <path id="Trazado_879543" data-name="Trazado 879543" d="M193.7,46.554a2.015,2.015,0,0,0-2.473.277,2.091,2.091,0,0,0-.256,2.49,2.171,2.171,0,0,0,2.35.907,2.259,2.259,0,0,0,1.6-1.959,1.515,1.515,0,0,0-.866-1.575" transform="translate(29.144 7.069)" fill="#6f4439"/>
          <path id="Trazado_879544" data-name="Trazado 879544" d="M194.082,45.218c-.236.012-.066,1.581-1.285,2.842s-2.907,1.273-2.895,1.493c-.012.1.406.264,1.113.205a3.931,3.931,0,0,0,2.427-1.159,3.421,3.421,0,0,0,.978-2.371c-.013-.662-.231-1.031-.337-1.01" transform="translate(29.026 6.911)" fill="#263238"/>
          <path id="Trazado_879545" data-name="Trazado 879545" d="M170.386,28.642a6.933,6.933,0,0,0,13.569-.934,3.823,3.823,0,0,0,6.119-4.006A4.914,4.914,0,0,0,195.753,21a6.83,6.83,0,0,0-.729-6.538A8.435,8.435,0,0,0,182.217,13a6.374,6.374,0,0,0-8.593,4.251,6.782,6.782,0,0,0-3.278,9.4" transform="translate(25.912 1.636)" fill="#263238"/>
          <path id="Trazado_879546" data-name="Trazado 879546" d="M186.488,14.932c-.018-.018.114-.2.432-.429a4.065,4.065,0,0,1,1.525-.681,4.835,4.835,0,0,1,2.486.083,4.063,4.063,0,0,1,2.431,1.866,1.821,1.821,0,0,1-.442,2.371l.01-.374a3.613,3.613,0,0,1,1.242,1.849,3.756,3.756,0,0,1,.1,1.737,2.181,2.181,0,0,1-.65,1.375,7.776,7.776,0,0,0,.368-1.413,3.6,3.6,0,0,0-1.337-3.182l-.255-.194.265-.18a1.376,1.376,0,0,0,.269-1.771,3.743,3.743,0,0,0-2.137-1.665,4.781,4.781,0,0,0-2.288-.172,7.4,7.4,0,0,0-2.022.777" transform="translate(28.504 2.094)" fill="#455a64"/>
          <path id="Trazado_879547" data-name="Trazado 879547" d="M188.709,73.865c1.453,2.459,14.976,24.459,14.976,24.459s14.987-32.063,14.993-31.474,12.447,42.926,12.447,42.926l-1.465,19.866-44.734.432Z" transform="translate(28.266 10.217)" fill="#fff"/>
          <path id="Trazado_879548" data-name="Trazado 879548" d="M208.284,58.442c.465.457,6.549,4.419,6.549,4.419l13.343,3.923,1.325,64.389-15.406-.288s-3.739-57.118-4.855-61.405-.957-11.037-.957-11.037" transform="translate(31.835 8.933)" fill="#e2dacc"/>
          <path id="Trazado_879549" data-name="Trazado 879549" d="M193.417,60.992l-5.843,4.717-13.793,2.48-1.115,62.917,15.5-.15s3.981-48.749,4.094-52.9,1.442-13.53,1.442-13.53Z" transform="translate(26.392 9.323)" fill="#e2dacc"/>
          <path id="Trazado_879550" data-name="Trazado 879550" d="M175.329,67.235s-7.761,1.809-9.97,14.735c-1.42,8.31-2.813,48.266-2.813,48.266l12.514-.092Z" transform="translate(24.845 10.277)" fill="#e2dacc"/>
          <path id="Trazado_879551" data-name="Trazado 879551" d="M175.54,127.427a11.924,11.924,0,0,1-.235-1.925c-.112-1.345-.259-3.118-.437-5.263-.38-4.539-.891-10.627-1.455-17.355-.64-6.725-1.219-12.807-1.651-17.341-.205-2.142-.375-3.913-.5-5.256a11.883,11.883,0,0,1-.111-1.937,11.849,11.849,0,0,1,.342,1.909c.183,1.234.421,3.023.694,5.236.548,4.427,1.219,10.553,1.827,17.334s1.033,12.927,1.28,17.38c.125,2.227.209,4.03.248,5.277a12.083,12.083,0,0,1,0,1.94" transform="translate(26.157 11.976)" fill="#263238"/>
          <path id="Trazado_879552" data-name="Trazado 879552" d="M227.963,80.741c.166.007-.13,10.506-.659,23.449s-1.094,23.433-1.26,23.426.13-10.5.661-23.451,1.093-23.43,1.259-23.424" transform="translate(34.543 12.341)" fill="#263238"/>
          <path id="Trazado_879553" data-name="Trazado 879553" d="M213.219,62.352a3.074,3.074,0,0,1,.286.643c.183.491.417,1.115.706,1.884.593,1.643,1.448,4.023,2.369,7.013a76.665,76.665,0,0,1,2.551,10.694,53.429,53.429,0,0,1,.33,13.461,122.212,122.212,0,0,1-2.133,13.287c-.834,4.048-1.616,7.678-2.179,10.747-.588,3.063-.912,5.565-1.149,7.293-.092.814-.167,1.474-.226,2a3.1,3.1,0,0,1-.119.694,3.068,3.068,0,0,1,0-.7c.029-.525.067-1.191.113-2.011.167-1.74.429-4.261.964-7.344.511-3.084,1.252-6.733,2.056-10.779a130.384,130.384,0,0,0,2.076-13.234,54.31,54.31,0,0,0-.279-13.323,81.711,81.711,0,0,0-2.411-10.655c-.866-3-1.659-5.394-2.184-7.059-.244-.784-.443-1.42-.6-1.921a3.137,3.137,0,0,1-.171-.682" transform="translate(32.59 9.53)" fill="#263238"/>
          <path id="Trazado_879554" data-name="Trazado 879554" d="M185.582,130.3a2.889,2.889,0,0,1-.16-.662c-.093-.5-.21-1.136-.354-1.913-.3-1.661-.777-4.058-1.412-7.009-1.213-5.907-3.379-14-4.395-23.211a61.992,61.992,0,0,1-.031-13.035,42.263,42.263,0,0,1,2.422-10.366,31.279,31.279,0,0,1,3.256-6.395c.445-.722.888-1.216,1.148-1.577a2.871,2.871,0,0,1,.443-.516c.046.035-.508.79-1.394,2.219a34.286,34.286,0,0,0-3.054,6.417,43.464,43.464,0,0,0-2.27,10.278,63.634,63.634,0,0,0,.077,12.914c1.008,9.14,3.1,17.249,4.214,23.188.582,2.967.995,5.38,1.227,7.057.127.836.193,1.491.243,1.933a2.9,2.9,0,0,1,.04.679" transform="translate(27.345 10.03)" fill="#263238"/>
        </g>
      </g>
      <g id="Grupo_1101750" data-name="Grupo 1101750">
        <g id="Grupo_1101749" data-name="Grupo 1101749" clip-path="url(#clip-path)">
          <path id="Trazado_879555" data-name="Trazado 879555" d="M93.132,175.014l-85.817-.38A7.137,7.137,0,0,1,.21,167.465l.538-121.3a7.135,7.135,0,0,1,7.167-7.1l85.818.38a7.136,7.136,0,0,1,7.1,7.167l-.538,121.3a7.135,7.135,0,0,1-7.167,7.1" transform="translate(0.032 5.971)" fill="#fff"/>
          <path id="Trazado_879556" data-name="Trazado 879556" d="M93.164,175.054c0-.031.406.007,1.175-.13a7.109,7.109,0,0,0,5.84-6.1c.119-2.208.036-4.807.066-7.7.029-11.629.071-28.432.123-49.191.035-10.385.073-21.759.114-33.969q.033-9.158.068-18.924.019-4.878.038-9.9c-.036-1.679.195-3.381-.427-4.9A6.912,6.912,0,0,0,97.014,40.6a6.778,6.778,0,0,0-2.346-.763,23.855,23.855,0,0,0-2.558-.076l-5.242-.021L76.2,39.693l-22-.09L7.958,39.4A6.829,6.829,0,0,0,2.9,41.6a7.035,7.035,0,0,0-1.825,5.2q-.028,5.869-.053,11.658Q.971,70.04.919,81.257C.847,96.2.777,110.615.71,124.347s-.137,26.778-.2,38.991c0,1.521-.035,3.053-.006,4.526a6.849,6.849,0,0,0,1.484,3.967,6.918,6.918,0,0,0,3.454,2.325,15.922,15.922,0,0,0,4.2.3l16.3.091,49.187.314,13.373.116,3.477.045c.784.014,1.185.036,1.185.036s-.4.018-1.185.025l-3.478.015-13.373,0-49.187-.123-16.3-.053L7.5,174.907a7.753,7.753,0,0,1-2.2-.3,7.356,7.356,0,0,1-5.294-6.722c-.032-1.524,0-3.019,0-4.551.046-12.212.095-25.26.145-38.991S.271,96.2.331,81.254q.048-11.207.1-22.793Q.454,52.674.478,46.8A7.637,7.637,0,0,1,2.462,41.2,7.428,7.428,0,0,1,7.96,38.8l46.251.212,22,.1,10.664.052,5.242.025a23.886,23.886,0,0,1,2.631.085,7.309,7.309,0,0,1,2.536.828,7.446,7.446,0,0,1,3.861,6.511q-.005,1.262-.012,2.518-.026,5.017-.051,9.9-.05,9.757-.1,18.924c-.067,12.21-.129,23.583-.187,33.969-.133,20.759-.24,37.561-.314,49.19-.05,2.907.018,5.475-.123,7.726a7.2,7.2,0,0,1-2.813,4.8,6.962,6.962,0,0,1-3.195,1.34,5.246,5.246,0,0,1-.885.073c-.2,0-.3,0-.3,0" transform="translate(0 5.931)" fill="#263238"/>
          <rect id="Rectángulo_402473" data-name="Rectángulo 402473" width="74.843" height="3.394" transform="translate(9.201 163.309)" fill="#e0e0e0"/>
          <rect id="Rectángulo_402474" data-name="Rectángulo 402474" width="42.127" height="3.394" transform="translate(9.201 169.597)" fill="#e0e0e0"/>
          <path id="Trazado_879557" data-name="Trazado 879557" d="M15.521,123.8l1.519,3.079a1.194,1.194,0,0,0,.9.653l3.4.493A1.191,1.191,0,0,1,22,130.057l-2.459,2.4a1.187,1.187,0,0,0-.342,1.054l.58,3.385a1.191,1.191,0,0,1-1.728,1.255l-3.04-1.6a1.191,1.191,0,0,0-1.108,0l-3.04,1.6a1.191,1.191,0,0,1-1.728-1.255l.581-3.385a1.19,1.19,0,0,0-.344-1.054l-2.459-2.4a1.191,1.191,0,0,1,.661-2.031l3.4-.493a1.194,1.194,0,0,0,.9-.653l1.519-3.079a1.191,1.191,0,0,1,2.136,0" transform="translate(1.001 18.821)" fill="#3ba935"/>
          <path id="Trazado_879558" data-name="Trazado 879558" d="M30.9,123.8l1.519,3.079a1.194,1.194,0,0,0,.9.653l3.4.493a1.191,1.191,0,0,1,.661,2.031l-2.459,2.4a1.187,1.187,0,0,0-.342,1.054l.58,3.385a1.191,1.191,0,0,1-1.728,1.255l-3.04-1.6a1.191,1.191,0,0,0-1.108,0l-3.04,1.6a1.191,1.191,0,0,1-1.728-1.255l.58-3.385a1.187,1.187,0,0,0-.342-1.054l-2.459-2.4a1.191,1.191,0,0,1,.661-2.031l3.4-.493a1.194,1.194,0,0,0,.9-.653l1.519-3.079a1.191,1.191,0,0,1,2.136,0" transform="translate(3.352 18.821)" fill="#3ba935"/>
          <path id="Trazado_879559" data-name="Trazado 879559" d="M46.289,123.8l1.519,3.079a1.194,1.194,0,0,0,.9.653l3.4.493a1.191,1.191,0,0,1,.661,2.031l-2.459,2.4a1.187,1.187,0,0,0-.342,1.054l.58,3.385a1.191,1.191,0,0,1-1.728,1.255l-3.04-1.6a1.191,1.191,0,0,0-1.108,0l-3.04,1.6a1.191,1.191,0,0,1-1.728-1.255l.581-3.385a1.19,1.19,0,0,0-.344-1.054l-2.459-2.4a1.191,1.191,0,0,1,.661-2.031l3.4-.493a1.194,1.194,0,0,0,.9-.653l1.519-3.079a1.191,1.191,0,0,1,2.136,0" transform="translate(5.704 18.821)" fill="#3ba935"/>
          <path id="Trazado_879560" data-name="Trazado 879560" d="M61.673,123.8l1.519,3.079a1.194,1.194,0,0,0,.9.653l3.4.493a1.191,1.191,0,0,1,.661,2.031l-2.459,2.4a1.187,1.187,0,0,0-.342,1.054l.58,3.385a1.191,1.191,0,0,1-1.728,1.255l-3.04-1.6a1.191,1.191,0,0,0-1.108,0l-3.04,1.6a1.191,1.191,0,0,1-1.728-1.255l.58-3.385a1.187,1.187,0,0,0-.342-1.054l-2.459-2.4a1.191,1.191,0,0,1,.661-2.031l3.4-.493a1.194,1.194,0,0,0,.9-.653l1.519-3.079a1.191,1.191,0,0,1,2.136,0" transform="translate(8.055 18.821)" fill="#e0e0e0"/>
          <path id="Trazado_879561" data-name="Trazado 879561" d="M77.057,123.8l1.519,3.08a1.2,1.2,0,0,0,.9.651l3.4.493a1.191,1.191,0,0,1,.661,2.031l-2.459,2.4a1.187,1.187,0,0,0-.342,1.054l.58,3.385a1.191,1.191,0,0,1-1.728,1.255l-3.04-1.6a1.191,1.191,0,0,0-1.108,0l-3.04,1.6a1.191,1.191,0,0,1-1.728-1.255l.58-3.385a1.186,1.186,0,0,0-.342-1.054l-2.459-2.4a1.191,1.191,0,0,1,.661-2.031l3.4-.493a1.194,1.194,0,0,0,.9-.653L74.92,123.8a1.191,1.191,0,0,1,2.136,0" transform="translate(10.407 18.821)" fill="#e0e0e0"/>
          <rect id="Rectángulo_402475" data-name="Rectángulo 402475" width="92.007" height="87.152" transform="translate(4.922 49.183)" fill="#ebebeb"/>
          <path id="Trazado_879562" data-name="Trazado 879562" d="M64.363,21.041A4.527,4.527,0,0,0,68.9,17.325a4.527,4.527,0,0,0-3.241-4.885,4.67,4.67,0,0,0,.44-5.3A4.67,4.67,0,0,0,61.2,5.048a5.441,5.441,0,0,0-8.478-3.915,6.118,6.118,0,0,0-7.528.339A4.474,4.474,0,0,0,40.7,4.041a4.476,4.476,0,0,0,1.14,5.048" transform="translate(6.168 0)" fill="#263238"/>
          <path id="Trazado_879563" data-name="Trazado 879563" d="M45.8,5.077l.958-.061A18.543,18.543,0,0,1,66.3,20.852c1.293,8.894,2.609,18.738,2.858,23.538.513,9.94-9.321,12.121-9.321,12.121l.473,4.978-5.172,7.964L37.825,56.542,32.383,26.049C30.833,15.793,35.509,6.343,45.8,5.077" transform="translate(4.905 0.761)" fill="#ffc09d"/>
          <path id="Trazado_879564" data-name="Trazado 879564" d="M57.922,50.056a24.137,24.137,0,0,1-13.258-2.974s3.518,6.951,13.372,5.422Z" transform="translate(6.827 7.196)" fill="#ff9b6c"/>
          <path id="Trazado_879565" data-name="Trazado 879565" d="M58.7,28.134a1.42,1.42,0,0,1-1.276,1.518,1.359,1.359,0,0,1-1.544-1.185,1.423,1.423,0,0,1,1.275-1.519A1.361,1.361,0,0,1,58.7,28.134" transform="translate(8.54 4.117)" fill="#263238"/>
          <path id="Trazado_879566" data-name="Trazado 879566" d="M60.926,23.255c-.164.2-1.289-.53-2.815-.429-1.525.081-2.6.937-2.773.761-.086-.077.07-.423.536-.809a3.9,3.9,0,0,1,2.205-.837,3.731,3.731,0,0,1,2.255.572c.493.33.673.654.591.742" transform="translate(8.455 3.353)" fill="#263238"/>
          <path id="Trazado_879567" data-name="Trazado 879567" d="M47.449,28.631a1.421,1.421,0,0,1-1.276,1.518,1.36,1.36,0,0,1-1.544-1.185A1.422,1.422,0,0,1,45.9,27.444a1.361,1.361,0,0,1,1.546,1.186" transform="translate(6.82 4.193)" fill="#263238"/>
          <path id="Trazado_879568" data-name="Trazado 879568" d="M47.929,24.336c-.164.2-1.291-.53-2.816-.428-1.525.08-2.6.936-2.773.76-.086-.077.069-.422.536-.808a3.893,3.893,0,0,1,2.205-.838,3.743,3.743,0,0,1,2.256.572c.491.33.672.654.591.742" transform="translate(6.468 3.518)" fill="#263238"/>
          <path id="Trazado_879569" data-name="Trazado 879569" d="M52.821,35.351a10.11,10.11,0,0,1,2.45-.606c.387-.065.752-.166.8-.437a1.988,1.988,0,0,0-.334-1.138q-.64-1.38-1.343-2.894c-1.871-4.124-3.252-7.523-3.085-7.6S53.127,25.888,55,30.01q.678,1.525,1.3,2.914a2.257,2.257,0,0,1,.3,1.516.976.976,0,0,1-.6.611,2.658,2.658,0,0,1-.656.135,10.039,10.039,0,0,1-2.512.165" transform="translate(7.84 3.466)" fill="#263238"/>
          <path id="Trazado_879570" data-name="Trazado 879570" d="M48.837,19.183c-.176.4-1.511.065-3.125.115-1.615.015-2.952.406-3.125.013-.075-.188.188-.553.748-.9a4.842,4.842,0,0,1,2.384-.663,4.67,4.67,0,0,1,2.378.566c.557.324.817.679.74.869" transform="translate(6.507 2.713)" fill="#263238"/>
          <path id="Trazado_879571" data-name="Trazado 879571" d="M60.724,17.8c-.3.368-1.582.088-3.1.168-1.518.036-2.783.413-3.1.068-.141-.167.039-.528.579-.891a4.925,4.925,0,0,1,2.48-.73,4.86,4.86,0,0,1,2.514.538c.558.323.757.669.626.846" transform="translate(8.327 2.509)" fill="#263238"/>
          <path id="Trazado_879572" data-name="Trazado 879572" d="M65.378,16.529s-3.018-6.05-6.11-7.31c-3.743-1.524-5.052,2.562-8.574,1.815s-7.1-2.209-10.461.694C36.551,14.9,38.5,16.84,38.54,21.263c.175,17.928-2.763,23.188-4.231,14.833-.161-.914-2.767-1.484-3.4-5.356-.815-5.02-1.4-11.139-.5-14.8.757-3.084,2.346-5.28,5.288-7.779C40.338,4.219,47.032,3.712,51.61,3.878S65.293,8.715,65.378,16.529" transform="translate(4.579 0.589)" fill="#263238"/>
          <path id="Trazado_879573" data-name="Trazado 879573" d="M35.14,31.875a2.7,2.7,0,0,0-3.077-2.412c-1.841.3-3.836,1.479-3.468,5.3.653,6.776,7.321,4.724,7.314,4.528,0-.133-.472-4.583-.769-7.415" transform="translate(4.364 4.498)" fill="#ffc09d"/>
          <path id="Trazado_879574" data-name="Trazado 879574" d="M33.878,36.59c-.032-.018-.111.095-.3.205a1.189,1.189,0,0,1-.881.1,2.935,2.935,0,0,1-1.6-2.49,3.926,3.926,0,0,1,.168-1.722,1.371,1.371,0,0,1,.8-.991.6.6,0,0,1,.727.257c.11.18.08.319.116.329.021.015.135-.128.053-.4a.752.752,0,0,0-.307-.4.9.9,0,0,0-.67-.111,1.672,1.672,0,0,0-1.132,1.169,4.032,4.032,0,0,0-.228,1.929,3.081,3.081,0,0,0,2,2.761,1.271,1.271,0,0,0,1.063-.284c.194-.188.214-.342.19-.353" transform="translate(4.676 4.791)" fill="#ff9b6c"/>
          <path id="Trazado_879575" data-name="Trazado 879575" d="M34.561,22.926a6.458,6.458,0,0,0,2.962,1.144,2.22,2.22,0,0,0,2.356-1.715c.051-.478-.1-1.019.187-1.4.342-.459,1.036-.367,1.608-.342,1.989.083,4.155-2.246,4.534-4.2a1.776,1.776,0,0,0,2.4.339,6.335,6.335,0,0,0,1.543-1.56,2.8,2.8,0,0,1,2.256-1.314,6.711,6.711,0,0,0,1.5.231c.887-.137,1.255-1.209,1.334-2.1s.116-1.932.842-2.461A3.559,3.559,0,0,1,58.5,9.317c.828.069,1.876-.193,2.035-1.009A1.621,1.621,0,0,0,60.156,7.1a4.409,4.409,0,0,0-5.3-1.333,5.973,5.973,0,0,0-11.025-.453A6.062,6.062,0,0,0,34.3,8.136a4.394,4.394,0,0,0-4.535,6.695,4.175,4.175,0,0,0-2.079,3.462c.066,1.408,1.524,2.72,2.857,2.263A2.433,2.433,0,0,0,34.9,22.708" transform="translate(4.232 0.283)" fill="#263238"/>
          <path id="Trazado_879576" data-name="Trazado 879576" d="M55.4,6.951a.371.371,0,0,1,.006.125c0,.082,0,.205-.02.365a4.3,4.3,0,0,1-.408,1.34,4.894,4.894,0,0,1-1.4,1.7,4.539,4.539,0,0,1-2.732.972l.107-.158a2.47,2.47,0,0,1-.016,1.884,7.078,7.078,0,0,1-1.056,1.744,5.084,5.084,0,0,1-.71.828,2.365,2.365,0,0,1-1.051.468,2.479,2.479,0,0,1-2.234-.643l.249-.089A5.11,5.11,0,0,1,44.2,19.15a3.732,3.732,0,0,1-2.182.874,6.746,6.746,0,0,1-2.23-.341l.176-.092a5.342,5.342,0,0,1-1.472,2.2,2.857,2.857,0,0,1-2.324.8A3.748,3.748,0,0,1,33.1,19.843l.159.061a3.506,3.506,0,0,1-2.311.493,3.814,3.814,0,0,1-1.673-.621,3.31,3.31,0,0,1-.813-.782,1.649,1.649,0,0,1-.195-.34,4.084,4.084,0,0,0,1.07,1.025,3.76,3.76,0,0,0,1.629.553,3.357,3.357,0,0,0,2.179-.5l.122-.08.035.142a3.536,3.536,0,0,0,2.9,2.537,2.594,2.594,0,0,0,2.11-.747A5.123,5.123,0,0,0,39.691,19.5l.046-.129.13.038A6.511,6.511,0,0,0,42,19.73a3.437,3.437,0,0,0,2.014-.812,4.829,4.829,0,0,0,1.831-3.452l.022-.324.226.235a2.212,2.212,0,0,0,1.976.567,2.114,2.114,0,0,0,.93-.407,4.993,4.993,0,0,0,.671-.777,6.909,6.909,0,0,0,1.034-1.67,2.238,2.238,0,0,0,.038-1.706l-.067-.158h.173a4.371,4.371,0,0,0,2.618-.889,4.852,4.852,0,0,0,1.4-1.615A5.28,5.28,0,0,0,55.4,6.951" transform="translate(4.32 1.062)" fill="#455a64"/>
          <path id="Trazado_879577" data-name="Trazado 879577" d="M52.975,38.073c-.054-.25-1.7.205-3.265-.878s-1.87-2.888-2.1-2.836c-.11.006-.211.48-.024,1.227a4.261,4.261,0,0,0,1.664,2.394,3.715,3.715,0,0,0,2.708.631c.706-.129,1.063-.428,1.021-.537" transform="translate(7.257 5.251)" fill="#263238"/>
          <path id="Trazado_879578" data-name="Trazado 879578" d="M66.529,62.737l-5.835-8.613c.178.289-7.179,7.078-7.179,7.078l-16.06-11.73-3.54,7.43s-1.631,26.451-1.628,26.743.518,42.8.649,45.128l38.927-2.141Z" transform="translate(4.935 7.562)" fill="#fff"/>
          <path id="Trazado_879579" data-name="Trazado 879579" d="M55.461,66.011l-1.208,3.44-4.734.031-1.4-2.74L50.91,60.3l.186-.649Z" transform="translate(7.355 9.117)" fill="#263238"/>
          <path id="Trazado_879580" data-name="Trazado 879580" d="M36.229,59.886a3.914,3.914,0,0,0,.765.566l2.173,1.4c1.846,1.168,4.411,2.755,7.258,4.486L49.1,67.957l.184.112.108-.181a36.583,36.583,0,0,0,2.694-5.839c.281-.745.5-1.342.639-1.753a2.425,2.425,0,0,0,.187-.649,16.558,16.558,0,0,0-1.078,2.3,45.07,45.07,0,0,1-2.8,5.715l.293-.069-2.668-1.629c-2.846-1.73-5.438-3.275-7.324-4.375L37.085,60.3a3.94,3.94,0,0,0-.855-.418" transform="translate(5.537 9.117)" fill="#263238"/>
          <path id="Trazado_879581" data-name="Trazado 879581" d="M58.7,62.745a5.73,5.73,0,0,0-.921,1.14c-.538.741-1.276,1.8-2.113,3.031l.347-.012c-.357-.48-.73-1.009-1.111-1.559-1.107-1.6-2.1-3.072-2.864-4.1a8.063,8.063,0,0,0-1.337-1.6,12.1,12.1,0,0,0,1.079,1.773c.7,1.073,1.645,2.565,2.758,4.178.384.553.764,1.084,1.136,1.564l.184.239.163-.249c.815-1.247,1.507-2.336,1.983-3.118a5.75,5.75,0,0,0,.7-1.289" transform="translate(7.749 9.117)" fill="#263238"/>
          <path id="Trazado_879582" data-name="Trazado 879582" d="M55.188,68.151,58.58,87.662l4.053,26.266-6.98,10.06L42,110.634l8.457-42.451Z" transform="translate(6.419 10.417)" fill="#263238"/>
          <path id="Trazado_879583" data-name="Trazado 879583" d="M67.234,57.7l-3.128-3.16s.541,7.42.549,7.975-4.746,51.794-4.746,51.794L38.774,51.175,33.225,56.69,14.466,62.834,23.073,128.5,80.6,128.5,81.7,60.417c.153.065-14.467-2.716-14.467-2.716" transform="translate(2.211 7.822)" fill="#ff725e"/>
          <path id="Trazado_879584" data-name="Trazado 879584" d="M22.448,122.247,21.22,90.362,16.06,61.288S9.251,63.18,6.972,71.837C5.744,76.5,3.86,120.293,4.053,126.952H22.517Z" transform="translate(0.617 9.368)" fill="#ff725e"/>
          <path id="Trazado_879585" data-name="Trazado 879585" d="M73.183,59.192,71.448,90.986c.218.017-.39,24.847-.39,24.847l-.86,4.3,1.879,7.144,14.121.007c-1.209-11.432-1.373-49.567-1.812-52.294-2.228-13.826-11.2-15.8-11.2-15.8" transform="translate(10.73 9.047)" fill="#ff725e"/>
          <path id="Trazado_879586" data-name="Trazado 879586" d="M54.217,114.257a3.642,3.642,0,0,1,.134-.654c.119-.467.274-1.083.47-1.853.44-1.651,1.057-3.958,1.812-6.787,1.585-5.761,3.753-13.641,6.147-22.345l3.955-14.128.067.212-4.015-3.4-.1-.086.048-.121c.53-1.317,1.018-2.527,1.466-3.643l.024.156L60.163,56.48,59.07,55.1a5.166,5.166,0,0,1-.372-.487,2.285,2.285,0,0,1,.44.429c.271.3.661.746,1.159,1.33.994,1.17,2.418,2.886,4.174,5.037l.058.07-.035.086-1.419,3.661-.052-.206q1.881,1.567,4.045,3.369l.1.085-.036.128c-1.171,4.239-2.5,9.049-3.909,14.142l-6.277,22.309L54.994,111.8q-.346,1.14-.553,1.828a3.591,3.591,0,0,1-.224.629" transform="translate(8.287 8.347)" fill="#263238"/>
          <path id="Trazado_879587" data-name="Trazado 879587" d="M56.239,113.6a3.732,3.732,0,0,1-.382-.564c-.256-.418-.594-.971-1.018-1.662-.891-1.5-2.14-3.589-3.67-6.156-3.091-5.254-7.317-12.44-11.987-20.381L33,74.3c-.961-1.624-1.875-3.178-2.76-4.619L29.9,69.16l-.039-.056-.02-.028a.145.145,0,0,0,.165.04s.02-.009.012-.007a.234.234,0,0,1-.068.008.222.222,0,0,1-.139-.056.217.217,0,0,1-.062-.137.315.315,0,0,1,.01-.1l.031-.1c.043-.11.088-.2.134-.3.187-.375.382-.729.575-1.076q.593-1.031,1.144-1.985l.047.224q-1.029-.757-1.961-1.443c-.156-.113-.308-.226-.459-.337a2.6,2.6,0,0,1-.248-.2.219.219,0,0,1-.051-.153.418.418,0,0,1,0-.086,1.418,1.418,0,0,1,.015-.148c.055-.374.139-.712.218-1.047.325-1.326.651-2.453.915-3.376q.4-1.326.635-2.117c.069-.217.128-.4.178-.548.043-.122.066-.184.075-.182a4.216,4.216,0,0,1-.158.756L30.3,58.857c-.236.928-.535,2.064-.834,3.386-.071.33-.15.677-.195,1.023a1.235,1.235,0,0,0-.01.125.273.273,0,0,0,0,.052c-.007.028.036,0-.083.032a.109.109,0,0,0-.023.023l-.009.015c.138-.211.04-.058.073-.1l.014.01.028.02.058.04.114.082.465.332,1.992,1.424.123.088-.077.136q-.536.958-1.117,1.991c-.188.347-.379.7-.553,1.064-.043.089-.086.182-.118.266l-.017.051h0c0-.006-.116,0-.116-.014-.021-.013-.061.009-.061.014a.013.013,0,0,0,0-.02l-.007,0c-.1-.291-.014-.083-.029-.148a.265.265,0,0,1,.222.093l.027.035.051.071.348.536c.9,1.441,1.826,2.987,2.8,4.608L39.581,84.6c4.67,7.965,8.86,15.2,11.871,20.449L55,111.283q.588,1.065.943,1.706a3.733,3.733,0,0,1,.3.611" transform="translate(4.428 8.553)" fill="#263238"/>
          <path id="Trazado_879588" data-name="Trazado 879588" d="M17.448,75.947a48.918,48.918,0,0,0-2.777-5.952,49,49,0,0,0-3.943-5.254,6.286,6.286,0,0,1,1.477,1.274,20.848,20.848,0,0,1,2.861,3.742,20.919,20.919,0,0,1,1.954,4.286,6.32,6.32,0,0,1,.428,1.9" transform="translate(1.639 9.895)" fill="#263238"/>
          <path id="Trazado_879589" data-name="Trazado 879589" d="M74.411,74.461a12.365,12.365,0,0,1-.035,1.968c-.081,1.365-.187,3.168-.316,5.35-.293,4.516-.739,10.75-1.269,17.634-.633,8.229-1.243,15.522-1.661,20l0-.047.612,3.592a6.662,6.662,0,0,1,.153,1.291,6.511,6.511,0,0,1-.341-1.255q-.3-1.376-.774-3.56l0-.021,0-.028c.271-4.486.784-11.786,1.418-20.015.529-6.884,1.043-13.113,1.445-17.62.206-2.177.377-3.975.506-5.335a12.245,12.245,0,0,1,.267-1.951" transform="translate(10.818 11.381)" fill="#263238"/>
          <path id="Trazado_879590" data-name="Trazado 879590" d="M54.53,119.756c-.164.024-.718-3.094-.979-6.983-.287-3.89-.081-7.064.1-7.053.153.008.217,3.143.5,7.012a64.07,64.07,0,0,1,.379,7.024" transform="translate(8.163 16.159)" fill="#263238"/>
          <path id="Trazado_879591" data-name="Trazado 879591" d="M21.468,116.887a5.606,5.606,0,0,1-.294-1.288c-.151-.834-.344-2.045-.56-3.544-.435-3-.951-7.155-1.387-11.758s-.709-8.782-.845-11.81c-.068-1.514-.106-2.739-.114-3.587a5.615,5.615,0,0,1,.046-1.32,5.58,5.58,0,0,1,.187,1.307c.083.972.186,2.165.306,3.573.243,3.016.583,7.183,1.018,11.78s.884,8.751,1.212,11.761c.145,1.4.27,2.6.37,3.566a5.526,5.526,0,0,1,.062,1.319" transform="translate(2.792 12.775)" fill="#263238"/>
        </g>
      </g>
      <g id="Grupo_1101752" data-name="Grupo 1101752">
        <g id="Grupo_1101751" data-name="Grupo 1101751" clip-path="url(#clip-path)">
          <path id="Trazado_879592" data-name="Trazado 879592" d="M171.031,191.7h-91A7.135,7.135,0,0,1,72.9,184.56V56.249a7.135,7.135,0,0,1,7.135-7.135h91a7.136,7.136,0,0,1,7.136,7.135V184.56a7.136,7.136,0,0,1-7.136,7.136" transform="translate(11.143 7.507)" fill="#fff"/>
          <path id="Trazado_879593" data-name="Trazado 879593" d="M171.071,191.736c0-.033.428.01,1.236-.145a7.168,7.168,0,0,0,3.259-1.526,7.056,7.056,0,0,0,2.535-5.13c0-2.355-.007-5.07-.012-8.124-.022-12.246-.055-29.941-.095-51.8-.012-10.936-.024-22.914-.037-35.773q-.007-9.644-.015-19.928,0-5.138-.007-10.422c-.05-1.766.2-3.566-.5-5.151a6.893,6.893,0,0,0-3.485-3.663,6.822,6.822,0,0,0-2.52-.62c-.88-.037-1.813-.009-2.722-.017l-5.52,0-11.231,0-23.162.008-48.709.006A6.9,6.9,0,0,0,74.84,51.9a6.787,6.787,0,0,0-1.359,2.618,10.783,10.783,0,0,0-.24,3q0,6.18,0,12.277,0,12.191,0,24c-.007,15.736-.013,30.917-.017,45.377s-.02,28.2-.028,41.062c.007,1.6-.024,3.215.016,4.766a6.81,6.81,0,0,0,1.675,4.124,6.929,6.929,0,0,0,3.769,2.227,10.565,10.565,0,0,0,2.213.151l2.249,0,17.165.02,51.8.1,14.083.057,3.663.029c.824.01,1.247.031,1.247.031s-.423.021-1.247.031l-3.663.03-14.083.055-51.8.1-17.165.02-2.249,0a10.945,10.945,0,0,1-2.31-.158,7.4,7.4,0,0,1-4.035-2.373,7.3,7.3,0,0,1-1.8-4.412c-.044-1.606-.015-3.181-.025-4.794-.009-12.861-.018-26.6-.028-41.062s-.012-29.641-.018-45.377q0-11.8,0-24,0-6.094,0-12.277a11.314,11.314,0,0,1,.261-3.151,7.35,7.35,0,0,1,1.478-2.849,7.5,7.5,0,0,1,5.708-2.661l48.709.007,23.162.007,11.231,0,5.52,0c.921.009,1.813-.017,2.751.021a7.4,7.4,0,0,1,6.484,4.634,7.29,7.29,0,0,1,.533,2.7q0,1.33,0,2.653,0,5.283-.006,10.422-.009,10.274-.015,19.928c-.014,12.859-.025,24.837-.037,35.773-.04,21.863-.073,39.558-.1,51.8-.016,3.06,0,5.77-.045,8.132a7.131,7.131,0,0,1-5.961,6.71,5.455,5.455,0,0,1-.932.084c-.21,0-.315,0-.315,0" transform="translate(11.103 7.467)" fill="#263238"/>
          <rect id="Rectángulo_402477" data-name="Rectángulo 402477" width="92.007" height="88.767" transform="translate(90.503 62.957)" fill="#ebebeb"/>
          <path id="Trazado_879594" data-name="Trazado 879594" d="M156.426,73.909c-1.382-.682-14.776-7.286-18.049-8.365a.185.185,0,0,1-.1-.081l-2.253-3.714a.193.193,0,0,0-.186-.091l-22.377,2.333a.192.192,0,0,0-.152.1l-2.12,4.239a.19.19,0,0,1-.113.1L91.153,74.856V123.9l-.319,18.651H150.8L156.531,74.1a.189.189,0,0,0-.1-.187" transform="translate(13.884 9.424)" fill="#73c8e2"/>
          <path id="Trazado_879595" data-name="Trazado 879595" d="M119.095,77.735l-6.949,59.237.851,3.183,15.1-.127.588-3.464-6.738-58.829Z" transform="translate(17.141 11.882)" fill="#263238"/>
          <path id="Trazado_879596" data-name="Trazado 879596" d="M131.486,51.867a71.685,71.685,0,0,0,3.709-11.8,25.049,25.049,0,0,0-.372-12.252c-.189-.6-1.85-4.621-2.475-4.589-.447.022.514,3.746.27,4.12a21.238,21.238,0,0,0-3,12.248,55.912,55.912,0,0,0,1.87,12.274" transform="translate(19.81 3.55)" fill="#263238"/>
          <path id="Trazado_879597" data-name="Trazado 879597" d="M122.173,17.109l-.958,0A18.511,18.511,0,0,0,102.827,34.2c-.687,8.948-1.332,18.844-1.253,23.644.161,9.935,10.1,11.442,10.1,11.442.022,0-.08,2.751-.08,2.751l10.742,8.969,11.414-11.049,3.2-32.872c.85-10.32-4.448-19.416-14.788-19.98" transform="translate(15.524 2.615)" fill="#ffa882"/>
          <path id="Trazado_879598" data-name="Trazado 879598" d="M110.347,62.885a23.994,23.994,0,0,0,12.921-3.875s-3.083,7.482-13,6.625Z" transform="translate(16.854 9.02)" fill="#dd6a48"/>
          <path id="Trazado_879599" data-name="Trazado 879599" d="M106.655,40.655a1.419,1.419,0,0,0,1.374,1.426,1.357,1.357,0,0,0,1.457-1.285,1.421,1.421,0,0,0-1.372-1.427,1.359,1.359,0,0,0-1.46,1.287" transform="translate(16.302 6.017)" fill="#263238"/>
          <path id="Trazado_879600" data-name="Trazado 879600" d="M104.51,35.935c.176.184,1.247-.616,2.775-.617,1.524-.024,2.648.757,2.813.57.081-.083-.1-.416-.589-.77a3.891,3.891,0,0,0-2.253-.685,3.747,3.747,0,0,0-2.209.722c-.468.362-.626.7-.537.78" transform="translate(15.971 5.263)" fill="#263238"/>
          <path id="Trazado_879601" data-name="Trazado 879601" d="M118.21,40.655a1.419,1.419,0,0,0,1.374,1.426,1.356,1.356,0,0,0,1.457-1.284,1.42,1.42,0,0,0-1.372-1.427,1.357,1.357,0,0,0-1.46,1.285" transform="translate(18.068 6.017)" fill="#263238"/>
          <path id="Trazado_879602" data-name="Trazado 879602" d="M117.493,36.191c.178.184,1.251-.614,2.776-.617,1.524-.024,2.648.757,2.814.57.081-.083-.1-.416-.59-.769a3.888,3.888,0,0,0-2.253-.686,3.74,3.74,0,0,0-2.208.723c-.468.362-.626.7-.54.779" transform="translate(17.955 5.302)" fill="#263238"/>
          <path id="Trazado_879603" data-name="Trazado 879603" d="M113.3,47.875a10.091,10.091,0,0,0-2.482-.438c-.39-.038-.76-.114-.825-.38a1.975,1.975,0,0,1,.256-1.156q.543-1.418,1.141-2.973c1.584-4.233,2.73-7.714,2.559-7.776s-1.594,3.318-3.18,7.551c-.382,1.044-.746,2.039-1.093,2.992a2.253,2.253,0,0,0-.2,1.53.979.979,0,0,0,.643.568,2.636,2.636,0,0,0,.663.089,9.975,9.975,0,0,0,2.513-.006" transform="translate(16.722 5.373)" fill="#263238"/>
          <path id="Trazado_879604" data-name="Trazado 879604" d="M117,31.553c.149.416,1.674.225,3.464.448,1.795.187,3.238.717,3.477.346.106-.178-.144-.57-.726-.973a6.071,6.071,0,0,0-5.288-.605c-.658.262-.991.587-.927.784" transform="translate(17.882 4.65)" fill="#263238"/>
          <path id="Trazado_879605" data-name="Trazado 879605" d="M104.143,32.358c.314.35,1.561,0,3.056,0,1.494-.045,2.758.264,3.053-.1.129-.175-.066-.525-.614-.859a4.8,4.8,0,0,0-2.479-.595,4.721,4.721,0,0,0-2.444.67c-.533.35-.71.706-.572.876" transform="translate(15.911 4.709)" fill="#263238"/>
          <path id="Trazado_879606" data-name="Trazado 879606" d="M131.826,40.867c.169-.074,6.819-2.045,6.628,4.747s-8.416,4.551-8.422,4.357,1.794-9.1,1.794-9.1" transform="translate(19.875 6.197)" fill="#ffa882"/>
          <path id="Trazado_879607" data-name="Trazado 879607" d="M133.149,47.81c.03-.021.116.086.314.183a1.182,1.182,0,0,0,.884.043,2.93,2.93,0,0,0,1.428-2.589,3.911,3.911,0,0,0-.284-1.7,1.37,1.37,0,0,0-.865-.934.6.6,0,0,0-.708.3c-.1.188-.056.325-.093.335-.02.016-.143-.118-.08-.4a.745.745,0,0,1,.279-.418.89.89,0,0,1,.658-.154,1.662,1.662,0,0,1,1.207,1.087,4.016,4.016,0,0,1,.357,1.906,3.072,3.072,0,0,1-1.809,2.884,1.265,1.265,0,0,1-1.077-.21c-.205-.173-.237-.326-.213-.338" transform="translate(20.351 6.492)" fill="#dd6a48"/>
          <path id="Trazado_879608" data-name="Trazado 879608" d="M106.857,23.269c-1.077-.647,2.353-4.085,5.1-5.211,4.151-1.7,10.428-2.612,14.151-1.406,4.485,1.453,8.167,3.846,10.29,8.055a26.738,26.738,0,0,1,2.495,13.75,8.109,8.109,0,0,1-1.11,4.113c-1,1.466-2.388,2.159-2.856,4.42a3.755,3.755,0,0,1-.782,2.046c-1.291,1.276-2.766-.021-3.418-1.292-1.395-2.715-1.445-5.9-1.463-8.95a19.868,19.868,0,0,1,.667-6.443c.375-1.119.948-2.17,1.259-3.309a4.084,4.084,0,0,0-.356-3.408,4.294,4.294,0,0,0-.531-.579,7.087,7.087,0,0,0-6.977-1.6c-3.875,1.212-10.479,2.992-12.138,1.631a10.466,10.466,0,0,1-2.927-3.2Z" transform="translate(16.302 2.461)" fill="#263238"/>
          <path id="Trazado_879609" data-name="Trazado 879609" d="M118.251,48.782a1.936,1.936,0,0,0-1.733-.1l-4.633,1.217c0,4.264,4.143,3.968,5.152,3.257a3.953,3.953,0,0,0,1.645-3.162,1.546,1.546,0,0,0-.431-1.207" transform="translate(17.101 7.417)" fill="#dd6a48"/>
          <path id="Trazado_879610" data-name="Trazado 879610" d="M115.049,53.718a3.69,3.69,0,0,0,1.815-.55,3.156,3.156,0,0,0,1.2-1.6,4.309,4.309,0,0,0,.236-1.184,3.085,3.085,0,0,0-.128-1.239c-.141-.356-.483-.414-.893-.322s-.831.225-1.219.325l-2.094.545a8.364,8.364,0,0,1-1.962.385,8.325,8.325,0,0,1,1.87-.709l2.065-.642c.4-.116.783-.243,1.242-.36a1.557,1.557,0,0,1,.786-.006,1.028,1.028,0,0,1,.64.589,3.965,3.965,0,0,1-1.567,4.5,2.722,2.722,0,0,1-1.457.393c-.359-.018-.542-.1-.536-.128" transform="translate(17.12 7.385)" fill="#263238"/>
          <path id="Trazado_879611" data-name="Trazado 879611" d="M135.662,65.5a1.211,1.211,0,0,1-.023.354c-.033.229-.067.574-.156,1.011a22.348,22.348,0,0,1-1.041,3.687,24.446,24.446,0,0,1-7.726,10.575l-.178.138-.142-.176-4.443-5.549-1-1.253.374,0-2.963,3.841-1.41,1.82a4.563,4.563,0,0,1-.813.836,1.867,1.867,0,0,1-1.136.4,2.367,2.367,0,0,1-1.833-1.217,9.224,9.224,0,0,1-.874-1.8L110.981,74.9l-1.869-4.719c-.2-.519-.355-.944-.484-1.287a1.855,1.855,0,0,1-.139-.459,1.916,1.916,0,0,1,.225.424c.15.333.337.747.564,1.253.5,1.159,1.177,2.735,2.006,4.662.421,1,.878,2.08,1.371,3.243a8.99,8.99,0,0,0,.857,1.719,1.972,1.972,0,0,0,1.5,1.018,2.212,2.212,0,0,0,1.6-1.087L118,77.841l2.952-3.851.184-.241.189.237,1,1.252,4.428,5.561-.318-.038a24.877,24.877,0,0,0,7.739-10.319,26.361,26.361,0,0,0,1.157-3.614,11.474,11.474,0,0,1,.33-1.333" transform="translate(16.582 10.011)" fill="#263238"/>
          <path id="Trazado_879612" data-name="Trazado 879612" d="M116.537,77.171c-.068.089,2.1,3.644,2.1,3.644l3.082-.08,1.692-3.56L121.117,74.3h-2.2Z" transform="translate(17.812 11.357)" fill="#263238"/>
          <path id="Trazado_879613" data-name="Trazado 879613" d="M93.5,73.109s-4.609.768-7.919,7.472c-3.213,6.508-7.543,60.219-7.543,60.219H94.65l1.293-16.459Z" transform="translate(11.929 11.175)" fill="#73c8e2"/>
          <path id="Trazado_879614" data-name="Trazado 879614" d="M147.9,72.334s4.609.747,7.919,7.263c3.213,6.328,5.586,61.32,5.586,61.32H143.768V120.912Z" transform="translate(21.975 11.056)" fill="#73c8e2"/>
          <path id="Trazado_879615" data-name="Trazado 879615" d="M90.881,138.907a1.9,1.9,0,0,1-.056-.543c-.012-.427-.027-.94-.044-1.556-.021-1.448-.048-3.38-.082-5.723-.043-4.924-.1-11.555-.164-18.884-.03-7.377.028-14.058.137-18.889.056-2.418.116-4.373.181-5.723.033-.617.062-1.13.085-1.555a1.884,1.884,0,0,1,.071-.542,1.9,1.9,0,0,1,.05.544c.008.427.016.94.028,1.555,0,1.449.006,3.381.009,5.725.01,4.922.024,11.553.039,18.883.027,7.374.043,14.051-.012,18.885-.025,2.418-.066,4.374-.111,5.725-.027.617-.05,1.13-.068,1.556a1.87,1.87,0,0,1-.065.542" transform="translate(13.837 13.067)" fill="#263238"/>
          <path id="Trazado_879616" data-name="Trazado 879616" d="M147.144,84.23c.165.014-.662,12.308-1.848,27.457s-2.281,27.424-2.446,27.412.662-12.3,1.848-27.46,2.281-27.422,2.446-27.41" transform="translate(21.831 12.874)" fill="#263238"/>
          <path id="Trazado_879617" data-name="Trazado 879617" d="M89.757,140.165l1.519,3.079a1.194,1.194,0,0,0,.9.653l3.4.493a1.191,1.191,0,0,1,.661,2.031l-2.459,2.4a1.186,1.186,0,0,0-.342,1.054l.58,3.385a1.191,1.191,0,0,1-1.728,1.255l-3.04-1.6a1.192,1.192,0,0,0-1.108,0l-3.04,1.6a1.191,1.191,0,0,1-1.728-1.255l.58-3.385a1.186,1.186,0,0,0-.342-1.054l-2.459-2.4a1.191,1.191,0,0,1,.661-2.031l3.4-.493a1.2,1.2,0,0,0,.9-.653l1.519-3.079a1.191,1.191,0,0,1,2.136,0" transform="translate(12.348 21.323)" fill="#3ba935"/>
          <path id="Trazado_879618" data-name="Trazado 879618" d="M105.141,140.165l1.519,3.079a1.194,1.194,0,0,0,.9.653l3.4.493a1.191,1.191,0,0,1,.661,2.031l-2.459,2.4a1.187,1.187,0,0,0-.342,1.054l.58,3.385a1.191,1.191,0,0,1-1.728,1.255l-3.04-1.6a1.192,1.192,0,0,0-1.108,0l-3.04,1.6a1.191,1.191,0,0,1-1.728-1.255l.58-3.385a1.186,1.186,0,0,0-.342-1.054l-2.459-2.4a1.191,1.191,0,0,1,.661-2.031l3.4-.493a1.194,1.194,0,0,0,.9-.653L103,140.165a1.191,1.191,0,0,1,2.136,0" transform="translate(14.699 21.323)" fill="#3ba935"/>
          <path id="Trazado_879619" data-name="Trazado 879619" d="M120.525,140.165l1.518,3.079a1.194,1.194,0,0,0,.9.653l3.4.493a1.191,1.191,0,0,1,.659,2.031l-2.459,2.4a1.193,1.193,0,0,0-.342,1.054l.58,3.385a1.19,1.19,0,0,1-1.728,1.255l-3.04-1.6a1.191,1.191,0,0,0-1.108,0l-3.04,1.6a1.191,1.191,0,0,1-1.728-1.255l.581-3.385a1.184,1.184,0,0,0-.344-1.054l-2.458-2.4a1.191,1.191,0,0,1,.661-2.031l3.4-.493a1.194,1.194,0,0,0,.9-.653l1.519-3.079a1.192,1.192,0,0,1,2.137,0" transform="translate(17.051 21.323)" fill="#3ba935"/>
          <path id="Trazado_879620" data-name="Trazado 879620" d="M135.908,140.165l1.521,3.079a1.191,1.191,0,0,0,.9.653l3.4.493a1.191,1.191,0,0,1,.659,2.031l-2.459,2.4a1.186,1.186,0,0,0-.342,1.054l.58,3.385a1.191,1.191,0,0,1-1.728,1.255l-3.04-1.6a1.191,1.191,0,0,0-1.108,0l-3.04,1.6a1.191,1.191,0,0,1-1.728-1.255l.581-3.385a1.19,1.19,0,0,0-.344-1.054l-2.459-2.4a1.191,1.191,0,0,1,.661-2.031l3.4-.493a1.2,1.2,0,0,0,.9-.653l1.519-3.079a1.191,1.191,0,0,1,2.136,0" transform="translate(19.402 21.323)" fill="#3ba935"/>
          <path id="Trazado_879621" data-name="Trazado 879621" d="M151.292,140.165l1.519,3.079a1.2,1.2,0,0,0,.9.653l3.4.493a1.191,1.191,0,0,1,.661,2.031l-2.459,2.4a1.186,1.186,0,0,0-.342,1.054l.58,3.385a1.191,1.191,0,0,1-1.728,1.255l-3.04-1.6a1.191,1.191,0,0,0-1.108,0l-3.04,1.6a1.191,1.191,0,0,1-1.728-1.255l.58-3.385a1.186,1.186,0,0,0-.342-1.054l-2.459-2.4a1.191,1.191,0,0,1,.661-2.031l3.4-.493a1.2,1.2,0,0,0,.9-.653l1.519-3.079a1.191,1.191,0,0,1,2.136,0" transform="translate(21.753 21.323)" fill="#3ba935"/>
          <rect id="Rectángulo_402478" data-name="Rectángulo 402478" width="85.215" height="3.394" transform="translate(94.666 182.212)" fill="#e0e0e0"/>
        </g>
      </g>
    </g>
  </g>
</svg>
