<svg xmlns="http://www.w3.org/2000/svg" xmlns:xlink="http://www.w3.org/1999/xlink" width="295.931" height="339" viewBox="0 0 295.931 339">
  <defs>
    <clipPath id="clip-path">
      <rect id="Rect치ngulo_405350" data-name="Rect치ngulo 405350" width="295.931" height="323.349" fill="none"/>
    </clipPath>
  </defs>
  <g id="_4" data-name="4" transform="translate(-180.051 -1616)">
    <rect id="Rect치ngulo_402559" data-name="Rect치ngulo 402559" width="295" height="339" rx="147.5" transform="translate(180.051 1616)" fill="#396370"/>
    <g id="Grupo_1102132" data-name="Grupo 1102132" transform="translate(180.051 1631.651)">
      <g id="Grupo_1102131" data-name="Grupo 1102131" transform="translate(0 0)" clip-path="url(#clip-path)">
        <path id="Trazado_880281" data-name="Trazado 880281" d="M92.442,59.738l2.27,92.12c.38,15.67,4.15,38.6,28.89,36.86,21.35-3.12,26.29-23.63,25.91-38.25-.18-6.93-.31-12.71-.28-13.43,0,0,23.4-2.78,24.52-26,.54-11.24-.22-34.47-1.16-55.49a43.361,43.361,0,0,0-41.78-41.37l-2.24-.08c-24.24.51-37.34,21.41-36.13,45.64" transform="translate(29.634 0.001)" fill="#ffbe9d"/>
        <path id="Trazado_880282" data-name="Trazado 880282" d="M146.995,137.038s-14.69.34-30-10c0,0,6.78,17.26,30.07,16Z" transform="translate(31.871 0.001)" fill="#eb996e"/>
        <path id="Trazado_880283" data-name="Trazado 880283" d="M147.2,66.488c-.44.49-3.2-1.57-7.09-1.53s-6.71,2-7.14,1.57c-.21-.22.24-1.09,1.47-2a9.779,9.779,0,0,1,5.72-1.85,9.374,9.374,0,0,1,5.64,1.82c1.19.9,1.6,1.77,1.4,1.99" transform="translate(15.77 0.001)" fill="#263238"/>
        <path id="Trazado_880284" data-name="Trazado 880284" d="M138.505,75.338a3.14,3.14,0,0,1-3.14,3.06,3,3,0,0,1-3.137-2.856c0-.032,0-.063,0-.094a3.14,3.14,0,0,1,3.14-3.06,3,3,0,0,1,3.137,2.856c0,.032,0,.063,0,.094" transform="translate(25.201 0.001)" fill="#263238"/>
        <path id="Trazado_880285" data-name="Trazado 880285" d="M113.606,93.138c0-.2,2.23-.5,5.84-.84.92-.06,1.79-.21,2-.82a4.7,4.7,0,0,0-.52-2.73c-.78-2.24-1.59-4.59-2.45-7-3.39-10-5.81-18.27-5.41-18.4s3.49,7.89,6.88,17.92q1.23,3.7,2.34,7.09c.3,1.05.86,2.25.34,3.6a2.31,2.31,0,0,1-1.55,1.28,6.021,6.021,0,0,1-1.56.16c-3.62.01-5.9-.06-5.91-.26" transform="translate(60.07 0.001)" fill="#263238"/>
        <path id="Trazado_880286" data-name="Trazado 880286" d="M149.6,51.948c-.34.88-3.48.34-7.19.67s-6.75,1.26-7.21.45c-.21-.39.34-1.2,1.58-2a11.729,11.729,0,0,1,5.39-1.73,11.608,11.608,0,0,1,5.58.88c1.34.59,2,1.31,1.85,1.73" transform="translate(11.158 0.001)" fill="#263238"/>
        <path id="Trazado_880287" data-name="Trazado 880287" d="M111.759,52.718c-.38.72-3.44.05-7.12.07s-6.7.61-7.12-.11c-.18-.34.4-1,1.66-1.6a12.82,12.82,0,0,1,5.4-1.1,13.33,13.33,0,0,1,5.45,1.13c1.28.61,1.9,1.23,1.73,1.61" transform="translate(86.656 0.001)" fill="#263238"/>
        <path id="Trazado_880288" data-name="Trazado 880288" d="M188.31,77.038c-.4-.19-15.82-5.3-15.88,10.62s15.93,12.7,16,12.24-.12-22.86-.12-22.86" transform="translate(-64.944 0.001)" fill="#ffbe9d"/>
        <path id="Trazado_880289" data-name="Trazado 880289" d="M184.411,93.848c-.07,0-.28.19-.74.41a2.8,2.8,0,0,1-2.08,0c-1.68-.62-3.08-3.3-3.15-6.17a9.2,9.2,0,0,1,.79-4,3.221,3.221,0,0,1,2.1-2.12,1.409,1.409,0,0,1,1.63.77c.21.44.11.76.19.79s.35-.27.22-.92a1.72,1.72,0,0,0-.62-1,2.057,2.057,0,0,0-1.53-.42,3.911,3.911,0,0,0-2.91,2.46,9.392,9.392,0,0,0-1,4.44c.09,3.21,1.72,6.21,4,6.89a3,3,0,0,0,2.54-.41c.53-.33.62-.69.56-.72" transform="translate(-65.805 0.001)" fill="#eb996e"/>
        <path id="Trazado_880290" data-name="Trazado 880290" d="M82.339,52.078c3.11-5.73,3.63-12.45,5.21-18.77s6.22-14.35,12.27-16.76c5.35-3.31,12.53-3.15,17.19.51.82-8.31,6.26-13.2,14.24-15.62s21-1.63,28.82,1.2c6.07,2.18,12,6.9,19.33,13.89a78.355,78.355,0,0,1,8.48,9.53l7.81,21.39-5.59,11.58c-.33.79-.67,1.57-1.09,2.35l-4.53,24.13c-.59-6.51-1-29.23-1.53-35.74a36.45,36.45,0,0,1-26.39-11c-3.71-3.82-6.69-8.66-11.55-10.85-6.26-2.81-13.5-.32-19.9,2.17l.27-.26a29.14,29.14,0,0,0-8.74,6.81,90.615,90.615,0,0,1-2.5,38.44c-.54,1.87-2.06,5.75-3.85,6.52-3.52,1.51-4.61-2.09-6.83-3.94-1.64-1.37-4-1.46-6.56-1.36-1.65-3.91-3.45-10.54-5-16.34a14.356,14.356,0,0,1-6.66.69q.94-2.49,1.87-5a7.551,7.551,0,0,1-2.8,1.4,2.6,2.6,0,0,1-2.76-1.08c-.63-1.26.14-2.69.79-3.89" transform="translate(18.927 0.001)" fill="#263238"/>
        <path id="Trazado_880291" data-name="Trazado 880291" d="M186.775,21.338a19.256,19.256,0,0,0-2.25,2.22,16.543,16.543,0,0,0-3.28,7.83,29.834,29.834,0,0,0-.37,5.91c.07,2.14.33,4.42.58,6.82a61.49,61.49,0,0,1,.45,7.6,25.3,25.3,0,0,1-.37,4,8.373,8.373,0,0,1-1.49,3.95,3.489,3.489,0,0,1-3.23,1.22,5.22,5.22,0,0,1-3-1.55c-1.56-1.69-2-3.88-2.45-5.82l.49.05a19.937,19.937,0,0,1-2.64,5,6.941,6.941,0,0,1-4.42,2.62,4.466,4.466,0,0,1-2.41-.33,3.81,3.81,0,0,1-1.68-1.54,4,4,0,0,1-.57-2,2.861,2.861,0,0,1,.68-1.83l.25.21a14.809,14.809,0,0,1-4.84,3.92,14.008,14.008,0,0,1-1.52.66,3.423,3.423,0,0,1-.55.16,2.015,2.015,0,0,1,.51-.24c.34-.16.85-.38,1.47-.73a15.5,15.5,0,0,0,4.67-4l.26.21a3,3,0,0,0,0,3.45,3.517,3.517,0,0,0,1.52,1.36,4,4,0,0,0,2.18.27,6.427,6.427,0,0,0,4.1-2.49,19.206,19.206,0,0,0,2.54-4.85l.31-.76.18.8c.44,1.93.92,4,2.34,5.56a4.711,4.711,0,0,0,2.69,1.39,3,3,0,0,0,2.74-1,7.867,7.867,0,0,0,1.38-3.7,26.546,26.546,0,0,0,.37-3.94,61.079,61.079,0,0,0-.42-7.54c-.24-2.4-.48-4.69-.53-6.86a29.006,29.006,0,0,1,.45-6,16.363,16.363,0,0,1,3.49-7.9,9.386,9.386,0,0,1,2.37-2.13" transform="translate(-44.999 0.001)" fill="#455a64"/>
        <path id="Trazado_880292" data-name="Trazado 880292" d="M111.749,66.638c-.44.49-3.2-1.57-7.09-1.53s-6.71,2-7.14,1.57c-.21-.22.24-1.09,1.47-2a9.747,9.747,0,0,1,5.71-1.85,9.448,9.448,0,0,1,5.65,1.82c1.2.9,1.62,1.78,1.4,1.99" transform="translate(86.657 0.001)" fill="#263238"/>
        <path id="Trazado_880293" data-name="Trazado 880293" d="M106.135,74.168a3.15,3.15,0,0,1-3.15,3.06,3,3,0,0,1-3.128-2.867c0-.028,0-.055,0-.083a3.14,3.14,0,0,1,3.14-3.06,3,3,0,0,1,3.137,2.856c0,.032,0,.063,0,.094" transform="translate(89.941 0.001)" fill="#263238"/>
        <path id="Trazado_880294" data-name="Trazado 880294" d="M73.335,23.458c2,2.56,5.14,4.86,8.38,4.43a24.542,24.542,0,0,0,3.43-1.1c1.16.66,1,4.55.23,5.65A20.988,20.988,0,0,1,83,35.018c3.87,1.95,7.31.86,11.34-.73a19.931,19.931,0,0,1-11.45,16.28c-2,.91-4.5,1.44-6.4.28-1.67-1-2.39-3-2.93-4.93a87.38,87.38,0,0,1-3.38-21.25Z" transform="translate(131.421 0.001)" fill="#263238"/>
        <path id="Trazado_880295" data-name="Trazado 880295" d="M132.167,100.948a3.209,3.209,0,0,0-2.78-1.68c-1.08,0-2-.1-2.79.65a5.061,5.061,0,0,0-1.11,5.71,4.19,4.19,0,0,0,5.27,2c1.89-.87,2.64-5.74,1.33-7.36" transform="translate(38.139 0.001)" fill="#eb996e"/>
        <path id="Trazado_880296" data-name="Trazado 880296" d="M132.889,104.418a7.738,7.738,0,0,0-.41.91,3.3,3.3,0,0,1-1.93,1.71,4.848,4.848,0,0,1-3.77-.45,3.94,3.94,0,0,1,1.93-7.07,3.869,3.869,0,0,1,3.44,1.41,3.917,3.917,0,0,1,.8,2.48c0,.64-.11,1-.06,1s.05-.08.11-.25a3.427,3.427,0,0,0,.15-.75,3.891,3.891,0,0,0-.71-2.71,4.181,4.181,0,0,0-3.78-1.66,4.39,4.39,0,0,0-2.13,7.95,5.161,5.161,0,0,0,4.15.39,3.432,3.432,0,0,0,2-2,2.769,2.769,0,0,0,.21-.74v-.22" transform="translate(38.077 0.001)" fill="#263238"/>
        <path id="Trazado_880297" data-name="Trazado 880297" d="M71.448,21.228a14.668,14.668,0,0,1,2.36-3,15.5,15.5,0,0,1,9.34-4,19,19,0,0,1,7.05.83,28.339,28.339,0,0,1,7.36,3.58c4.85,3.21,9.14,8,13.83,12.85a61.5,61.5,0,0,0,7.36,6.56,29.377,29.377,0,0,0,8.1,4.34,26.653,26.653,0,0,0,15.4.25,26.159,26.159,0,0,0,9.31-4.72l1.26-1.06c.36-.31.62-.62.85-.85l.51-.54c.11-.12.17-.19.16-.2l-.2.16-.54.5c-.24.22-.52.52-.88.82l-1.26,1a26.881,26.881,0,0,1-9.28,4.52,26.478,26.478,0,0,1-15.15-.35,29.165,29.165,0,0,1-8-4.29,63.6,63.6,0,0,1-7.29-6.51c-4.67-4.8-9-9.65-13.94-12.89a28.248,28.248,0,0,0-7.5-3.59,19.327,19.327,0,0,0-7.21-.79,15.48,15.48,0,0,0-9.44,4.23,11.8,11.8,0,0,0-1.77,2.23c-.14.27-.26.48-.35.65s-.09.26-.08.27" transform="translate(70.148 0.001)" fill="#455a64"/>
        <path id="Trazado_880298" data-name="Trazado 880298" d="M183.155,144.748l-8.82-1.75-54.56-3.37-11.63,3.17,1.53,28.32,26.29,16.77,25.5-.51,16.04-14.6,3.55-14.49Z" transform="translate(4.631 0.001)" fill="#ffbe9d"/>
        <path id="Trazado_880299" data-name="Trazado 880299" d="M38.015,189.338a171.708,171.708,0,0,1,10.48-18.74,46.762,46.762,0,0,1,26.9-19.59l42-11.39s2.18,42,31.09,42,34.54-39.37,34.54-39.37l48.65,19.41c1.67.65,12.95,4.55,26.08,32.7,12.5,26.81,18,40.52,18,40.52l-50.06,14.46-3.13,45.07,1.06,25.74-152.09-.34.85-29.42-.64-45.11-1.9,3.07-50.62-20.3s6.52-13.36,18.79-38.71" transform="translate(0.951 0.001)" fill="#f5ca56"/>
        <path id="Trazado_880300" data-name="Trazado 880300" d="M222.6,216.578c-.23,0-.09,16.3.3,36.4s.85,36.36,1.07,36.36.09-16.3-.3-36.4-.89-36.36-1.07-36.36" transform="translate(-150.633 0.001)" fill="#263238"/>
        <path id="Trazado_880301" data-name="Trazado 880301" d="M69.639,207.338a7.122,7.122,0,0,0-.56,1.67c-.3,1.09-.71,2.68-1.19,4.64-.95,3.94-2.13,9.4-3.23,15.48s-1.88,11.62-2.36,15.63c-.24,2-.42,3.64-.51,4.77a7.852,7.852,0,0,0-.06,1.76,6.993,6.993,0,0,0,.38-1.72c.2-1.29.45-2.87.75-4.73.62-4,1.51-9.5,2.6-15.57s2.18-11.53,3-15.49c.37-1.85.68-3.42.94-4.7a7.861,7.861,0,0,0,.24-1.74" transform="translate(164.587 0.001)" fill="#263238"/>
        <path id="Trazado_880302" data-name="Trazado 880302" d="M67.31,236.148l20.38,40.91A29.82,29.82,0,0,1,61,320.168l-58.44-3.39L0,290.118l44.47-10.73-16.85-31.86Z" transform="translate(205.116 0.001)" fill="#ffbe9d"/>
        <path id="Trazado_880303" data-name="Trazado 880303" d="M13.874,279.388c0,.19,2-.15,5.25-.13a40.45,40.45,0,0,1,12.33,2.18,37.525,37.525,0,0,1,11,5.86c2.52,2,3.72,3.63,3.86,3.53s-.21-.48-.74-1.23a19.829,19.829,0,0,0-2.66-2.85,33.461,33.461,0,0,0-11.18-6.27,35.52,35.52,0,0,0-12.66-1.93,23.858,23.858,0,0,0-3.86.46,4.232,4.232,0,0,0-1.34.38" transform="translate(235.712 0.001)" fill="#eb996e"/>
        <path id="Trazado_880304" data-name="Trazado 880304" d="M53.156,247.208a11.294,11.294,0,0,0,1,3.13,58.835,58.835,0,0,0,3.35,7.12,58.024,58.024,0,0,0,4.25,6.63,11.146,11.146,0,0,0,2.14,2.47c.19-.14-2.75-4.15-5.69-9.49s-4.83-9.94-5.05-9.86" transform="translate(178.87 0.001)" fill="#eb996e"/>
        <path id="Trazado_880305" data-name="Trazado 880305" d="M227.311,320.028h68.62v-25.9l-39.74-16.79,14.74-30.89-39.78-16-19.42,43.2c-4.51,12.55-9.12,18.51-5.19,29.93,2.04,5.93,10.48,16.45,20.77,16.45" transform="translate(-205.055 0.001)" fill="#ffbe9d"/>
        <path id="Trazado_880306" data-name="Trazado 880306" d="M142.558,288.568h-11.44s-25.81-9.33-31.12-8.44c-4.78.8-22.29,12.43-25.72,14.73a2.233,2.233,0,0,0-.83,1.06,3.761,3.761,0,0,0,2.09,4.77l.36.15-.15.52a6.319,6.319,0,0,0-.27,2.09,2.52,2.52,0,0,0,4.69,1.09l-.66,1.17a2.876,2.876,0,0,0-.36,1.57l.06,1.07a2.886,2.886,0,0,0,5,1.78c2.22-2.44,7-7.33,10.26-7.87a74.965,74.965,0,0,1,10.59-.54,3.61,3.61,0,0,1,3.34,2.3c-1.93.14-15.34,7.13-20.09,9.63a5.091,5.091,0,0,0-2.76,3.83c-.17,1.48.58,3,3.52,2.35,6.3-1.47,17.65-6.69,17.65-6.69s5.86-1.67,9.65,1c5.34,3.77,7.78,5.15,12.36,3.63a38.864,38.864,0,0,0,8-3.7l9-.9s8.5-21.33-3.17-24.6" transform="translate(73.998 0.001)" fill="#ffbe9d"/>
        <path id="Trazado_880307" data-name="Trazado 880307" d="M142.045,292.928c0,.1-1.83-.48-4.85-.68a25,25,0,0,0-20.86,8.91,47.605,47.605,0,0,0-2.87,4,5.389,5.389,0,0,1,.57-1.2,21.95,21.95,0,0,1,2-3,24.269,24.269,0,0,1,21.16-9,20.655,20.655,0,0,1,3.56.61,5.657,5.657,0,0,1,1.29.36" transform="translate(40.421 0.001)" fill="#eb996e"/>
        <path id="Trazado_880308" data-name="Trazado 880308" d="M146.024,286.658a21.44,21.44,0,0,0-5.05-.88,22,22,0,0,0-11.72,3.32,47.029,47.029,0,0,0-9.46,8l-2.6,2.75a7.382,7.382,0,0,1-1,1,8.627,8.627,0,0,1,.85-1.1c.57-.69,1.41-1.68,2.48-2.87a43.76,43.76,0,0,1,9.47-8.19,21.47,21.47,0,0,1,12-3.25,14.168,14.168,0,0,1,3.75.69,8.448,8.448,0,0,1,1,.37c.18.08.29.14.28.16" transform="translate(33.712 0.001)" fill="#eb996e"/>
        <path id="Trazado_880309" data-name="Trazado 880309" d="M158.621,289.338h11.45s25.81-9.33,31.12-8.44c4.78.8,22.29,12.43,25.72,14.73a2.233,2.233,0,0,1,.83,1.06,3.77,3.77,0,0,1-2.09,4.77l-.36.15.15.52a6.238,6.238,0,0,1,.27,2.09,2.52,2.52,0,0,1-4.69,1.09l.66,1.17a3,3,0,0,1,.36,1.57l-.06,1.06a2.892,2.892,0,0,1-5,1.79c-2.22-2.45-7-7.34-10.26-7.88a76.472,76.472,0,0,0-10.6-.53,3.61,3.61,0,0,0-3.33,2.3c1.93.13,15.34,7.13,20.09,9.63a5.08,5.08,0,0,1,2.76,3.82c.17,1.49-.58,3.05-3.52,2.36-6.3-1.47-17.65-6.69-17.65-6.69s-5.86-1.68-9.65,1c-5.34,3.77-7.78,5.15-12.36,3.63a38.535,38.535,0,0,1-8-3.7l-9-.9s-8.51-21.3,3.16-24.6" transform="translate(-84.505 0.001)" fill="#ffbe9d"/>
        <path id="Trazado_880310" data-name="Trazado 880310" d="M159.1,293.728c0,.1,1.83-.48,4.85-.67a25,25,0,0,1,20.9,8.91,30.042,30.042,0,0,1,2.87,4,5.785,5.785,0,0,0-.57-1.19,21.95,21.95,0,0,0-2-3,24.269,24.269,0,0,0-21.16-9,21.785,21.785,0,0,0-3.56.6,6.436,6.436,0,0,0-1.33.35" transform="translate(-50.879 0.001)" fill="#eb996e"/>
        <path id="Trazado_880311" data-name="Trazado 880311" d="M155.165,287.458a21.388,21.388,0,0,1,5-.88,22.1,22.1,0,0,1,11.74,3.33,47.3,47.3,0,0,1,9.46,8l2.6,2.76a7.325,7.325,0,0,0,1,1,8.242,8.242,0,0,0-.85-1.11c-.57-.68-1.41-1.67-2.49-2.86a43.453,43.453,0,0,0-9.46-8.19,21.478,21.478,0,0,0-12-3.25,14.175,14.175,0,0,0-3.74.69,6.974,6.974,0,0,0-1,.37,1.019,1.019,0,0,0-.26.14" transform="translate(-44.199 0.001)" fill="#eb996e"/>
        <path id="Trazado_880312" data-name="Trazado 880312" d="M244.175,279.138c.06.09,1.55-1,4.25-2.25.67-.3,1.41-.63,2.24-.91s1.7-.56,2.64-.83a31.678,31.678,0,0,1,12.61-.73c1,.17,1.88.3,2.72.53a22.105,22.105,0,0,1,2.33.65c2.82.92,4.43,1.83,4.48,1.74a5.386,5.386,0,0,0-1.12-.67,9.7,9.7,0,0,0-1.37-.67,18.512,18.512,0,0,0-1.87-.75,21.892,21.892,0,0,0-2.35-.72,27.409,27.409,0,0,0-2.75-.58,30.284,30.284,0,0,0-12.8.73c-.95.3-1.86.55-2.67.9a21.013,21.013,0,0,0-2.25,1,13.78,13.78,0,0,0-1.78,1,11.913,11.913,0,0,0-1.28.83,5.8,5.8,0,0,0-1.03.73" transform="translate(-223.689 0.001)" fill="#eb996e"/>
        <path id="Trazado_880313" data-name="Trazado 880313" d="M74.063,323.338h142.9a7.58,7.58,0,0,0,7.57-7.26l4.29-98.35a7.579,7.579,0,0,0-7.232-7.912c-.113,0-.225-.008-.338-.008H70.053a7.59,7.59,0,0,0-7.586,7.594q0,.153.006.306l4,98.35a7.579,7.579,0,0,0,7.59,7.28" transform="translate(4.633 0.001)" fill="#e0e0e0"/>
        <path id="Trazado_880314" data-name="Trazado 880314" d="M74.052,323.338c-.462-.03-.923-.084-1.38-.16a7.444,7.444,0,0,1-3.59-1.78,7.6,7.6,0,0,1-2.55-5.85q-.15-3.93-.35-9.05c-.54-13.62-1.31-33.32-2.27-57.67q-.36-9.14-.76-19.11c-.13-3.32-.27-6.71-.4-10.16,0-.86-.1-1.75-.07-2.59a7.368,7.368,0,0,1,.59-2.47,7.272,7.272,0,0,1,3.47-3.68,7.55,7.55,0,0,1,2.5-.75c.86-.07,1.79,0,2.7,0h148.62a8.186,8.186,0,0,1,3.31.5,7.339,7.339,0,0,1,4.38,4.73,8.211,8.211,0,0,1,.3,1.63v1.69c-.05,1.14-.09,2.28-.14,3.42l-.3,6.81q-.58,13.579-1.16,26.72c-.76,17.52-1.49,34.41-2.19,50.51-.09,2-.17,4-.26,6,0,1-.08,2-.13,3a10.34,10.34,0,0,1-.36,2.86,7.382,7.382,0,0,1-3.49,4.29,7.279,7.279,0,0,1-2.65.85c-.91.1-1.89.05-2.84.06h-62.07l-57.71.08-15.69.05h15.69l57.71.08h62.03c1,0,1.9,0,2.9-.06a7.83,7.83,0,0,0,6.53-5.46,10.85,10.85,0,0,0,.38-3c.05-1,.09-2,.14-3q.12-3,.26-6c.71-16.1,1.45-33,2.22-50.51q.57-13.14,1.17-26.72c.1-2.26.19-4.53.29-6.81l.15-3.42a16.832,16.832,0,0,0,0-1.74,8.666,8.666,0,0,0-.31-1.75,7.851,7.851,0,0,0-4.69-5.06,8.772,8.772,0,0,0-3.5-.54H71.912c-.92,0-1.81,0-2.75.05a7.829,7.829,0,0,0-2.64.79,7.682,7.682,0,0,0-3.67,3.91,7.888,7.888,0,0,0-.62,2.61c0,.91,0,1.75.07,2.62q.21,5.19.42,10.17.42,10,.8,19.11c1,24.34,1.85,44,2.43,57.66q.221,5.111.39,9a7.728,7.728,0,0,0,2.64,5.92,7.507,7.507,0,0,0,3.65,1.76,7.3,7.3,0,0,0,1,.1Z" transform="translate(4.644 0.001)" fill="#263238"/>
        <path id="Trazado_880315" data-name="Trazado 880315" d="M137.8,268.338a7.83,7.83,0,1,0,7.83-7.83,7.831,7.831,0,0,0-7.83,7.83" transform="translate(4.661 0.001)" fill="#fff"/>
      </g>
    </g>
  </g>
</svg>
