<svg xmlns="http://www.w3.org/2000/svg" width="85" height="85" viewBox="0 0 85 85">
  <g id="_6" data-name="6" transform="translate(-179.848 -4130)">
    <circle id="Elipse_11541" data-name="Elipse 11541" cx="42.5" cy="42.5" r="42.5" transform="translate(179.848 4130)" fill="#3ba935"/>
    <g id="poblacion" transform="translate(179.831 4184.973)">
      <g id="Grupo_1107472" data-name="Grupo 1107472" transform="translate(8.847 -45.973)">
        <g id="Grupo_1107463" data-name="Grupo 1107463" transform="translate(0 0)">
          <path id="Trazado_880719" data-name="Trazado 880719" d="M131.01,277.023a20.863,20.863,0,0,0,3.521,3.876l-9.573,9.384-3.644-3.756Z" transform="translate(-108.192 -237.248)" fill="#a79ba7" fill-rule="evenodd"/>
          <path id="Trazado_880720" data-name="Trazado 880720" d="M146.455,301.68a2.4,2.4,0,0,0,1.042,1.4l-9.51,9.447-1.165-1.276Z" transform="translate(-121.792 -258.869)" fill="#837683" fill-rule="evenodd"/>
          <path id="Trazado_880721" data-name="Trazado 880721" d="M19.4,351.95l-4.113-4.239a1.891,1.891,0,0,1,.04-2.667L26.723,333.99a1.891,1.891,0,0,1,2.667.04l4.113,4.239a1.892,1.892,0,0,1-.04,2.667L22.071,351.991A1.892,1.892,0,0,1,19.4,351.95Z" transform="translate(-14.761 -286.736)" fill="#f1ba84" fill-rule="evenodd"/>
          <path id="Trazado_880722" data-name="Trazado 880722" d="M33.513,377.212,22.12,388.267a1.891,1.891,0,0,1-2.667-.04l-4.113-4.239a1.869,1.869,0,0,1-.358-.522,1.893,1.893,0,0,0,.307,2.206l4.113,4.239a1.891,1.891,0,0,0,2.667.04L33.462,378.9a1.893,1.893,0,0,0,.4-2.145A1.876,1.876,0,0,1,33.513,377.212Z" transform="translate(-14.76 -324.696)" fill="#e3a76f" fill-rule="evenodd"/>
          <circle id="Elipse_11548" data-name="Elipse 11548" cx="20.745" cy="20.745" r="20.745" transform="translate(9.024 29.333) rotate(-45)" fill="#8ac9fe"/>
          <path id="Trazado_880723" data-name="Trazado 880723" d="M319.127,23.755a20.745,20.745,0,0,1,0,41.49q-.507,0-1.007-.025a20.745,20.745,0,0,0,0-41.44q.5-.024,1.007-.025Z" transform="translate(-280.763 -15.168)" fill="#60b7ff" fill-rule="evenodd"/>
          <circle id="Elipse_11549" data-name="Elipse 11549" cx="17.548" cy="17.548" r="17.548" transform="translate(13.544 29.333) rotate(-45)" fill="#eceff1"/>
          <path id="Trazado_880724" data-name="Trazado 880724" d="M201.346,49.716q.453,0,.9.023a17.548,17.548,0,0,0,0,35.051q-.447.023-.9.023a17.548,17.548,0,1,1,0-35.1Z" transform="translate(-162.982 -37.933)" fill="#d1d1d6" fill-rule="evenodd"/>
        </g>
        <g id="Grupo_1107464" data-name="Grupo 1107464" transform="translate(38.657 15.508)">
          <path id="Trazado_880725" data-name="Trazado 880725" d="M329.039,127.1h8.313a.356.356,0,0,0,.35-.428,4.6,4.6,0,0,0-9.012,0A.355.355,0,0,0,329.039,127.1Z" transform="translate(-328.681 -117.693)" fill="#8ac9fe" fill-rule="evenodd"/>
          <path id="Trazado_880726" data-name="Trazado 880726" d="M365.783,127.1h.813a.356.356,0,0,0,.35-.428,4.6,4.6,0,0,0-4.506-3.676q-.205,0-.406.018a4.6,4.6,0,0,1,4.1,3.658A.356.356,0,0,1,365.783,127.1Z" transform="translate(-357.926 -117.693)" fill="#60b7ff" fill-rule="evenodd"/>
          <path id="Trazado_880727" data-name="Trazado 880727" d="M348.775,79.96a2.325,2.325,0,1,1-2.325,2.325A2.325,2.325,0,0,1,348.775,79.96Z" transform="translate(-344.262 -79.96)" fill="#f6dccd" fill-rule="evenodd"/>
          <path id="Trazado_880728" data-name="Trazado 880728" d="M363.025,79.96a2.325,2.325,0,1,1-.324,4.628,2.325,2.325,0,0,0,0-4.605A2.324,2.324,0,0,1,363.025,79.96Z" transform="translate(-358.512 -79.96)" fill="#f1cbbc" fill-rule="evenodd"/>
        </g>
        <g id="Grupo_1107465" data-name="Grupo 1107465" transform="translate(29.001 15.508)">
          <path id="Trazado_880729" data-name="Trazado 880729" d="M250.625,127.1h8.313a.356.356,0,0,0,.35-.428,4.6,4.6,0,0,0-9.012,0A.355.355,0,0,0,250.625,127.1Z" transform="translate(-250.267 -117.693)" fill="#8ac9fe" fill-rule="evenodd"/>
          <path id="Trazado_880730" data-name="Trazado 880730" d="M287.369,127.1h.813a.356.356,0,0,0,.35-.428,4.6,4.6,0,0,0-4.506-3.676q-.205,0-.406.018a4.6,4.6,0,0,1,4.1,3.658A.356.356,0,0,1,287.369,127.1Z" transform="translate(-279.512 -117.693)" fill="#60b7ff" fill-rule="evenodd"/>
          <path id="Trazado_880731" data-name="Trazado 880731" d="M270.362,79.96a2.325,2.325,0,1,1-2.325,2.325A2.325,2.325,0,0,1,270.362,79.96Z" transform="translate(-265.849 -79.96)" fill="#f6dccd" fill-rule="evenodd"/>
          <path id="Trazado_880732" data-name="Trazado 880732" d="M284.612,79.96a2.325,2.325,0,1,1-.324,4.628,2.325,2.325,0,0,0,0-4.605A2.324,2.324,0,0,1,284.612,79.96Z" transform="translate(-280.099 -79.96)" fill="#f1cbbc" fill-rule="evenodd"/>
        </g>
        <g id="Grupo_1107466" data-name="Grupo 1107466" transform="translate(24.194 23.795)">
          <path id="Trazado_880733" data-name="Trazado 880733" d="M211.59,194.395H219.9a.356.356,0,0,0,.35-.428,4.6,4.6,0,0,0-9.012,0A.356.356,0,0,0,211.59,194.395Z" transform="translate(-211.233 -184.992)" fill="#8ac9fe" fill-rule="evenodd"/>
          <path id="Trazado_880734" data-name="Trazado 880734" d="M248.335,194.395h.813a.356.356,0,0,0,.35-.428,4.6,4.6,0,0,0-4.506-3.676q-.205,0-.406.018a4.6,4.6,0,0,1,4.1,3.658A.356.356,0,0,1,248.335,194.395Z" transform="translate(-240.478 -184.992)" fill="#60b7ff" fill-rule="evenodd"/>
          <path id="Trazado_880735" data-name="Trazado 880735" d="M231.327,147.257A2.325,2.325,0,1,1,229,149.582,2.325,2.325,0,0,1,231.327,147.257Z" transform="translate(-226.814 -147.257)" fill="#f6dccd" fill-rule="evenodd"/>
          <path id="Trazado_880736" data-name="Trazado 880736" d="M245.577,147.257a2.325,2.325,0,0,1,0,4.65,2.363,2.363,0,0,1-.324-.023,2.325,2.325,0,0,0,0-4.605A2.341,2.341,0,0,1,245.577,147.257Z" transform="translate(-241.064 -147.257)" fill="#f1cbbc" fill-rule="evenodd"/>
        </g>
        <g id="Grupo_1107467" data-name="Grupo 1107467" transform="translate(33.85 23.795)">
          <path id="Trazado_880737" data-name="Trazado 880737" d="M290,194.395h8.313a.356.356,0,0,0,.35-.428,4.6,4.6,0,0,0-9.012,0,.355.355,0,0,0,.35.428Z" transform="translate(-289.646 -184.992)" fill="#8ac9fe" fill-rule="evenodd"/>
          <path id="Trazado_880738" data-name="Trazado 880738" d="M326.748,194.395h.813a.356.356,0,0,0,.35-.428,4.6,4.6,0,0,0-4.506-3.676q-.205,0-.406.018a4.6,4.6,0,0,1,4.1,3.658A.356.356,0,0,1,326.748,194.395Z" transform="translate(-318.891 -184.992)" fill="#60b7ff" fill-rule="evenodd"/>
          <path id="Trazado_880739" data-name="Trazado 880739" d="M309.741,147.257a2.325,2.325,0,1,1-2.325,2.325A2.325,2.325,0,0,1,309.741,147.257Z" transform="translate(-305.228 -147.257)" fill="#f6dccd" fill-rule="evenodd"/>
          <path id="Trazado_880740" data-name="Trazado 880740" d="M323.991,147.257a2.325,2.325,0,0,1,0,4.65,2.363,2.363,0,0,1-.324-.023,2.325,2.325,0,0,0,0-4.605A2.341,2.341,0,0,1,323.991,147.257Z" transform="translate(-319.478 -147.257)" fill="#f1cbbc" fill-rule="evenodd"/>
        </g>
        <g id="Grupo_1107468" data-name="Grupo 1107468" transform="translate(43.507 23.795)">
          <path id="Trazado_880741" data-name="Trazado 880741" d="M368.418,194.395h8.313a.356.356,0,0,0,.35-.428,4.6,4.6,0,0,0-9.012,0A.355.355,0,0,0,368.418,194.395Z" transform="translate(-368.06 -184.992)" fill="#8ac9fe" fill-rule="evenodd"/>
          <path id="Trazado_880742" data-name="Trazado 880742" d="M405.162,194.395h.813a.356.356,0,0,0,.35-.428,4.6,4.6,0,0,0-4.506-3.676q-.205,0-.406.018a4.6,4.6,0,0,1,4.1,3.658A.356.356,0,0,1,405.162,194.395Z" transform="translate(-397.305 -184.992)" fill="#60b7ff" fill-rule="evenodd"/>
          <path id="Trazado_880743" data-name="Trazado 880743" d="M388.155,147.257a2.325,2.325,0,1,1-2.325,2.325A2.325,2.325,0,0,1,388.155,147.257Z" transform="translate(-383.642 -147.257)" fill="#f6dccd" fill-rule="evenodd"/>
          <path id="Trazado_880744" data-name="Trazado 880744" d="M402.4,147.257a2.325,2.325,0,0,1,0,4.65,2.363,2.363,0,0,1-.324-.023,2.325,2.325,0,0,0,0-4.605A2.34,2.34,0,0,1,402.4,147.257Z" transform="translate(-397.892 -147.257)" fill="#f1cbbc" fill-rule="evenodd"/>
        </g>
        <g id="Grupo_1107469" data-name="Grupo 1107469" transform="translate(38.529 31.938)">
          <path id="Trazado_880745" data-name="Trazado 880745" d="M328,260.522h8.313a.356.356,0,0,0,.35-.428,4.6,4.6,0,0,0-9.012,0,.355.355,0,0,0,.35.428Z" transform="translate(-327.641 -251.119)" fill="#8ac9fe" fill-rule="evenodd"/>
          <path id="Trazado_880746" data-name="Trazado 880746" d="M364.743,260.522h.813a.356.356,0,0,0,.35-.428,4.6,4.6,0,0,0-4.506-3.676q-.205,0-.406.018a4.6,4.6,0,0,1,4.1,3.658.356.356,0,0,1-.35.428Z" transform="translate(-356.886 -251.119)" fill="#60b7ff" fill-rule="evenodd"/>
          <path id="Trazado_880747" data-name="Trazado 880747" d="M347.735,213.385a2.325,2.325,0,1,1-2.325,2.325A2.325,2.325,0,0,1,347.735,213.385Z" transform="translate(-343.222 -213.385)" fill="#f6dccd" fill-rule="evenodd"/>
          <path id="Trazado_880748" data-name="Trazado 880748" d="M361.985,213.385a2.325,2.325,0,1,1-.324,4.628,2.325,2.325,0,0,0,0-4.605A2.339,2.339,0,0,1,361.985,213.385Z" transform="translate(-357.472 -213.385)" fill="#f1cbbc" fill-rule="evenodd"/>
        </g>
        <g id="Grupo_1107470" data-name="Grupo 1107470" transform="translate(28.873 31.938)">
          <path id="Trazado_880749" data-name="Trazado 880749" d="M249.585,260.522H257.9a.356.356,0,0,0,.35-.428,4.6,4.6,0,0,0-9.012,0A.356.356,0,0,0,249.585,260.522Z" transform="translate(-249.227 -251.119)" fill="#8ac9fe" fill-rule="evenodd"/>
          <path id="Trazado_880750" data-name="Trazado 880750" d="M286.329,260.522h.813a.356.356,0,0,0,.35-.428,4.6,4.6,0,0,0-4.506-3.676q-.205,0-.406.018a4.6,4.6,0,0,1,4.1,3.658.356.356,0,0,1-.35.428Z" transform="translate(-278.472 -251.119)" fill="#60b7ff" fill-rule="evenodd"/>
          <path id="Trazado_880751" data-name="Trazado 880751" d="M269.322,213.385A2.325,2.325,0,1,1,267,215.71,2.325,2.325,0,0,1,269.322,213.385Z" transform="translate(-264.809 -213.385)" fill="#f6dccd" fill-rule="evenodd"/>
          <path id="Trazado_880752" data-name="Trazado 880752" d="M283.572,213.385a2.325,2.325,0,1,1-.324,4.628,2.325,2.325,0,0,0,0-4.605A2.339,2.339,0,0,1,283.572,213.385Z" transform="translate(-279.059 -213.385)" fill="#f1cbbc" fill-rule="evenodd"/>
        </g>
        <g id="Grupo_1107471" data-name="Grupo 1107471" transform="translate(30.08 38.348)">
          <path id="Trazado_880753" data-name="Trazado 880753" d="M262.241,434.827h2.9a.739.739,0,0,1,.738.738v5.1a.74.74,0,0,1-.738.738h-2.9a.739.739,0,0,1-.738-.738v-5.1A.739.739,0,0,1,262.241,434.827Z" transform="translate(-261.198 -413.967)" fill="#fe646f" fill-rule="evenodd"/>
          <path id="Trazado_880754" data-name="Trazado 880754" d="M285.018,434.827h.738a.739.739,0,0,1,.738.738v5.1a.739.739,0,0,1-.738.738h-.738a.739.739,0,0,0,.738-.738v-5.1A.739.739,0,0,0,285.018,434.827Z" transform="translate(-281.817 -413.967)" fill="#fd4755" fill-rule="evenodd"/>
          <path id="Trazado_880755" data-name="Trazado 880755" d="M328.16,374.934h2.9a.739.739,0,0,1,.738.738V388.15a.739.739,0,0,1-.738.738h-2.9a.739.739,0,0,1-.738-.738V375.672A.739.739,0,0,1,328.16,374.934Z" transform="translate(-318.999 -361.45)" fill="#ffe177" fill-rule="evenodd"/>
          <path id="Trazado_880756" data-name="Trazado 880756" d="M350.937,374.934h.738a.739.739,0,0,1,.738.738V388.15a.739.739,0,0,1-.738.738h-.738a.739.739,0,0,0,.738-.738V375.672A.74.74,0,0,0,350.937,374.934Z" transform="translate(-339.619 -361.45)" fill="#ffd064" fill-rule="evenodd"/>
          <path id="Trazado_880757" data-name="Trazado 880757" d="M394.079,399.144h2.9a.739.739,0,0,1,.738.738v9.5a.739.739,0,0,1-.738.738h-2.9a.739.739,0,0,1-.738-.738v-9.5a.739.739,0,0,1,.738-.738Z" transform="translate(-376.801 -382.678)" fill="#6cf5c2" fill-rule="evenodd"/>
          <path id="Trazado_880758" data-name="Trazado 880758" d="M416.856,399.144h.738a.739.739,0,0,1,.738.738v9.5a.739.739,0,0,1-.738.738h-.738a.739.739,0,0,0,.738-.738v-9.5A.739.739,0,0,0,416.856,399.144Z" transform="translate(-397.42 -382.678)" fill="#00e499" fill-rule="evenodd"/>
          <path id="Trazado_880759" data-name="Trazado 880759" d="M460,328.366h2.9a.739.739,0,0,1,.738.738v18.212a.739.739,0,0,1-.738.738H460a.739.739,0,0,1-.738-.738V329.1a.739.739,0,0,1,.738-.738Z" transform="translate(-434.602 -320.616)" fill="#8ac9fe" fill-rule="evenodd"/>
          <path id="Trazado_880760" data-name="Trazado 880760" d="M482.774,328.366h.738a.739.739,0,0,1,.738.738v18.212a.739.739,0,0,1-.738.738h-.738a.739.739,0,0,0,.738-.738V329.1a.739.739,0,0,0-.738-.738Z" transform="translate(-455.221 -320.616)" fill="#60b7ff" fill-rule="evenodd"/>
          <circle id="Elipse_11550" data-name="Elipse 11550" cx="2.491" cy="2.491" r="2.491" transform="translate(0 11.876)" fill="#fe646f"/>
          <path id="Trazado_880761" data-name="Trazado 880761" d="M275.963,361.877a2.491,2.491,0,1,1-.462,4.939,2.491,2.491,0,0,0,0-4.9A2.507,2.507,0,0,1,275.963,361.877Z" transform="translate(-273.472 -350.001)" fill="#fd4755" fill-rule="evenodd"/>
          <circle id="Elipse_11551" data-name="Elipse 11551" cx="2.491" cy="2.491" r="2.491" transform="translate(8.117 5.556)" fill="#ffe177"/>
          <path id="Trazado_880762" data-name="Trazado 880762" d="M341.881,310.549a2.491,2.491,0,1,1-.462,4.939,2.491,2.491,0,0,0,0-4.9A2.509,2.509,0,0,1,341.881,310.549Z" transform="translate(-331.273 -304.993)" fill="#ffd064" fill-rule="evenodd"/>
          <circle id="Elipse_11552" data-name="Elipse 11552" cx="2.491" cy="2.491" r="2.491" transform="translate(16.235 7.26)" fill="#6cf5c2"/>
          <path id="Trazado_880763" data-name="Trazado 880763" d="M407.8,324.389a2.491,2.491,0,1,1-.462,4.939,2.491,2.491,0,0,0,0-4.9A2.509,2.509,0,0,1,407.8,324.389Z" transform="translate(-389.074 -317.129)" fill="#00e499" fill-rule="evenodd"/>
          <circle id="Elipse_11553" data-name="Elipse 11553" cx="2.491" cy="2.491" r="2.491" transform="translate(24.352)" fill="#8ac9fe"/>
          <path id="Trazado_880764" data-name="Trazado 880764" d="M473.717,265.433a2.491,2.491,0,1,1-.462,4.939,2.492,2.492,0,0,0,0-4.9A2.528,2.528,0,0,1,473.717,265.433Z" transform="translate(-446.874 -265.433)" fill="#60b7ff" fill-rule="evenodd"/>
        </g>
      </g>
      <path id="Trazado_880765" data-name="Trazado 880765" d="M57.806,57.144a.89.89,0,1,1,.893-.89A.892.892,0,0,1,57.806,57.144Zm-8.115-1.7a.89.89,0,1,1,.887-.89A.892.892,0,0,1,49.691,55.44Zm-8.12,6.321a.89.89,0,1,1,.893-.891A.892.892,0,0,1,41.571,61.761ZM65.921,48.1a.89.89,0,1,1-.887.89A.892.892,0,0,1,65.921,48.1Zm0,3.75a2.86,2.86,0,1,0-2.858-2.86,2.79,2.79,0,0,0,.2,1.055L59.151,53.73a2.853,2.853,0,0,0-3.768,1.007l-2.863-.6a2.861,2.861,0,0,0-5.692.412,2.734,2.734,0,0,0,.139.874l-3.883,3.022a2.858,2.858,0,1,0,1.351,2.426A2.88,2.88,0,0,0,44.3,60l3.883-3.023a2.818,2.818,0,0,0,1.513.435,2.865,2.865,0,0,0,2.423-1.345l2.863.6a2.861,2.861,0,0,0,5.692-.412,2.9,2.9,0,0,0-.2-1.055l4.115-3.681a2.839,2.839,0,0,0,1.339.336Zm-23.15,21.1h-2.4V68.348h2.4Zm.985-6.578h-4.37a.984.984,0,0,0-.985.985V73.94a.985.985,0,0,0,.985.985h4.37a.985.985,0,0,0,.985-.985V67.362A.985.985,0,0,0,43.756,66.378Zm15.25,6.578h-2.4v-9h2.4Zm.985-10.972a.985.985,0,0,1,.985.985V73.941a.985.985,0,0,1-.985.985h-4.37a.985.985,0,0,1-.985-.985V62.969a.985.985,0,0,1,.985-.985Zm-9.1,10.972H48.486V60.973h2.405ZM51.877,59a.984.984,0,0,1,.985.985V73.94a.985.985,0,0,1-.985.985H47.5a.988.988,0,0,1-.985-.985V59.987A.988.988,0,0,1,47.5,59h4.376ZM67.121,72.956h-2.4V55.238h2.4Zm.985-19.688a.984.984,0,0,1,.985.985V73.941a.985.985,0,0,1-.985.985h-4.37a.989.989,0,0,1-.985-.985V54.253a.988.988,0,0,1,.985-.985ZM42.388,45.729a3.608,3.608,0,0,1,3.3,2.133h-6.6a3.6,3.6,0,0,1,3.3-2.133Zm-1.339-3.31a1.339,1.339,0,1,1,1.339,1.34A1.339,1.339,0,0,1,41.049,42.418Zm-3.339-4.833a3.61,3.61,0,0,1,3.176,1.886,3.041,3.041,0,0,0-.412.249H34.407a3.61,3.61,0,0,1,3.3-2.134Zm-1.345-3.31a1.342,1.342,0,1,1,1.345,1.34,1.344,1.344,0,0,1-1.345-1.34Zm6.15-9.627a1.34,1.34,0,1,1-1.339,1.339A1.342,1.342,0,0,1,42.516,24.648Zm8.318,1.339a1.339,1.339,0,1,1,1.339,1.34A1.338,1.338,0,0,1,50.833,25.987Zm7.529,8.288a1.342,1.342,0,1,1-1.345-1.34A1.344,1.344,0,0,1,58.363,34.275Zm-4.411,5.444a1.353,1.353,0,0,0-.174-.118,3.618,3.618,0,0,1,6.544.118Zm-3.246,2.7a1.339,1.339,0,1,1,1.339,1.34A1.339,1.339,0,0,1,50.706,42.418Zm-1.965,5.443a3.621,3.621,0,0,1,6.6,0ZM40.9,33.4a3.337,3.337,0,0,1,.122.873,3.291,3.291,0,0,1-.678,2,5.53,5.53,0,0,1,2.191,2.113,5.557,5.557,0,0,1,2.191-2.116,3.268,3.268,0,0,1-.551-2.869Zm14.433-1.971H49.054q-.07-.042-.139-.08a3.608,3.608,0,0,1,6.521.017Q55.383,31.4,55.331,31.432ZM52.19,38.387a5.557,5.557,0,0,1,2.191-2.116,3.318,3.318,0,0,1-.672-2,3.112,3.112,0,0,1,.122-.873H50.555A3.273,3.273,0,0,1,50,36.274,5.552,5.552,0,0,1,52.19,38.387Zm-6.167-4.112a1.342,1.342,0,1,1,1.339,1.34A1.342,1.342,0,0,1,46.023,34.275Zm4.109,5.444H44.3a2.023,2.023,0,0,0-.18-.118,3.615,3.615,0,0,1,6.416-.131,3.386,3.386,0,0,0-.406.249Zm-4.353-8.35q-.052.03-.1.063H39.4q-.069-.042-.139-.08a3.608,3.608,0,0,1,6.521.017Zm1.437,15.16a5.581,5.581,0,0,0-2.191-2.112,3.309,3.309,0,0,0,.591-2.728h3.2a3.338,3.338,0,0,0-.081.729,3.291,3.291,0,0,0,.672,2A5.581,5.581,0,0,0,47.217,46.529ZM36.835,48.742a5.559,5.559,0,0,1,2.916-4.325,3.291,3.291,0,0,1-.672-2,3.339,3.339,0,0,1,.081-.729H33.138a1,1,0,0,1-.736-.328.987.987,0,0,1-.243-.762,5.559,5.559,0,0,1,2.916-4.326,3.3,3.3,0,0,1,2.2-5.279,5.615,5.615,0,0,1,2.614-3,3.273,3.273,0,0,1-.678-2.006,3.31,3.31,0,1,1,5.941,2.006,5.6,5.6,0,0,1,2.2,2.119,5.606,5.606,0,0,1,2.2-2.119,3.273,3.273,0,0,1-.678-2.006A3.31,3.31,0,1,1,54.8,27.993a5.6,5.6,0,0,1,2.608,3,3.3,3.3,0,0,1,2.243,5.284A5.559,5.559,0,0,1,62.571,40.6a.987.987,0,0,1-.243.762,1,1,0,0,1-.736.328H55.273a3.338,3.338,0,0,1,.081.729,3.291,3.291,0,0,1-.672,2A5.587,5.587,0,0,1,57.6,48.742a1,1,0,0,1-.249.763.982.982,0,0,1-.736.326H47.471a.98.98,0,0,1-.255-.034,1.014,1.014,0,0,1-.255.034H37.815a.98.98,0,0,1-.98-1.09ZM56.9,52.252a.983.983,0,0,0,1.374.216,18.526,18.526,0,1,0-13.534,3.368.866.866,0,0,0,.139.01.985.985,0,0,0,.139-1.96,16.564,16.564,0,1,1,12.1-3.009.986.986,0,0,0-.215,1.377Zm-29.885,9.4L15.627,72.7a.9.9,0,0,1-1.275-.018l-4.115-4.24a.908.908,0,0,1,.023-1.273l11.39-11.055a.871.871,0,0,1,.638-.252.91.91,0,0,1,.638.271l4.11,4.24a.9.9,0,0,1,.255.64.891.891,0,0,1-.272.633Zm5.425-8.362-4.915,4.768-2.272-2.342,4.991-4.842A22.262,22.262,0,0,0,32.442,53.286Zm1.5,1.291a21.619,21.619,0,0,0,5.292,3.066.963.963,0,0,0,.365.071.985.985,0,0,0,.371-1.9,19.745,19.745,0,1,1,25.99-11.638.986.986,0,0,0,1.855.668,21.735,21.735,0,1,0-38.725,4.4l-5.263,5.1a2.872,2.872,0,0,0-3.553.351L8.886,65.758a2.878,2.878,0,0,0-.064,4.059l4.115,4.239a2.873,2.873,0,0,0,4.057.06l11.4-11.055a2.865,2.865,0,0,0,.869-2.017,2.9,2.9,0,0,0-.412-1.524Z" transform="translate(0 -54.128)" fill="#242222" fill-rule="evenodd"/>
    </g>
  </g>
</svg>
