<svg xmlns="http://www.w3.org/2000/svg" xmlns:xlink="http://www.w3.org/1999/xlink" width="400" height="368.268" viewBox="0 0 400 368.268">
  <defs>
    <clipPath id="clip-path">
      <rect id="Rectángulo_402500" data-name="Rectángulo 402500" width="400" height="368.268" transform="translate(183.051 3296.742)" fill="#f3f0ea"/>
    </clipPath>
    <clipPath id="clip-path-2">
      <rect id="Rectángulo_402499" data-name="Rectángulo 402499" width="414.542" height="468.074" fill="none"/>
    </clipPath>
    <clipPath id="clip-path-5">
      <rect id="Rectángulo_402481" data-name="Rectángulo 402481" width="113.703" height="82.421" transform="translate(61.18 64.047)" fill="#3ba935"/>
    </clipPath>
    <clipPath id="clip-path-6">
      <rect id="Rectángulo_402482" data-name="Rectángulo 402482" width="114.332" height="85.485" transform="translate(234.793 62.453)" fill="#3ba935"/>
    </clipPath>
    <clipPath id="clip-path-7">
      <rect id="Rectángulo_402483" data-name="Rectángulo 402483" width="16.048" height="22.462" transform="translate(268.295 80.374)" fill="none"/>
    </clipPath>
    <clipPath id="clip-path-9">
      <rect id="Rectángulo_402485" data-name="Rectángulo 402485" width="42.112" height="22.847" transform="translate(206.435 187.182)" fill="none"/>
    </clipPath>
    <clipPath id="clip-path-10">
      <rect id="Rectángulo_402486" data-name="Rectángulo 402486" width="23.37" height="20.136" transform="translate(160.166 407.531)" fill="none"/>
    </clipPath>
    <clipPath id="clip-path-11">
      <rect id="Rectángulo_402487" data-name="Rectángulo 402487" width="3.069" height="3.09" transform="translate(178.302 398.3)" fill="none"/>
    </clipPath>
    <clipPath id="clip-path-12">
      <rect id="Rectángulo_402488" data-name="Rectángulo 402488" width="33.222" height="16.657" transform="translate(192.171 178.625)" fill="none"/>
    </clipPath>
    <clipPath id="clip-path-13">
      <rect id="Rectángulo_402489" data-name="Rectángulo 402489" width="26.74" height="31.881" transform="translate(190.603 149.956)" fill="none"/>
    </clipPath>
    <clipPath id="clip-path-14">
      <rect id="Rectángulo_402490" data-name="Rectángulo 402490" width="7.415" height="46.035" transform="translate(159.268 129.989)" fill="none"/>
    </clipPath>
    <clipPath id="clip-path-15">
      <rect id="Rectángulo_402491" data-name="Rectángulo 402491" width="37.789" height="25.457" transform="translate(180.986 96.99)" fill="none"/>
    </clipPath>
    <clipPath id="clip-path-16">
      <rect id="Rectángulo_402492" data-name="Rectángulo 402492" width="8.334" height="22.08" transform="translate(233.96 120.614)" fill="none"/>
    </clipPath>
    <clipPath id="clip-path-18">
      <rect id="Rectángulo_402498" data-name="Rectángulo 402498" width="414.542" height="468.074" fill="#3ba935"/>
    </clipPath>
    <clipPath id="clip-path-19">
      <rect id="Rectángulo_402495" data-name="Rectángulo 402495" width="121.627" height="83.622" transform="translate(148.714 181.504)" fill="#3ba935"/>
    </clipPath>
    <clipPath id="clip-path-20">
      <rect id="Rectángulo_402496" data-name="Rectángulo 402496" width="83.424" height="121.06" transform="translate(35.334 124.731)" fill="#b0dcae"/>
    </clipPath>
    <clipPath id="clip-path-21">
      <rect id="Rectángulo_402497" data-name="Rectángulo 402497" width="75.947" height="112.479" transform="translate(294.722 138.391)" fill="#3ba935"/>
    </clipPath>
  </defs>
  <g id="_6" data-name="6" transform="translate(-183.051 -3296.742)" clip-path="url(#clip-path)">
    <g id="Grupo_1101808" data-name="Grupo 1101808" transform="translate(175.051 3307.161)">
      <g id="Grupo_1101807" data-name="Grupo 1101807" clip-path="url(#clip-path-2)">
        <g id="Grupo_1101756" data-name="Grupo 1101756">
          <g id="Grupo_1101755" data-name="Grupo 1101755" clip-path="url(#clip-path-2)">
            <path id="Trazado_879622" data-name="Trazado 879622" d="M89.548,343.091c-1.993-2.106-4.955-2.9-7.676-3.9a41.2,41.2,0,0,1-18.877-63.173l-.411-2.119c-.931-9.851-12.83-16.915-21.925-13.015s-12.18,17.39-5.684,24.855c-10.674.882-17.727,13.047-16.224,23.651s9.264,19.308,17.9,25.638a84.748,84.748,0,0,0,49.213,16.256,6.8,6.8,0,0,0,3.493-.63c2.507-1.457,2.18-5.452.187-7.558" fill="#e0e0e0"/>
            <path id="Trazado_879623" data-name="Trazado 879623" d="M386.895,299.958c2.453-3.98,2.8-9.348.309-13.3s-7.954-5.96-12.2-4.005a8.933,8.933,0,0,0-15.161-9.446c-2.842,4.39-1.34,10.279,1.1,14.9s5.786,8.967,6.591,14.134c.822,5.277-1.2,10.68-4.36,14.989s-7.373,7.7-11.539,11.047l-.794.765a28.667,28.667,0,0,0,22.953-1.973c3.921-2.169,7.551-5.758,7.808-10.231.144-2.5-.788-5-.409-7.475.561-3.661,3.757-6.25,5.7-9.4" fill="#e0e0e0"/>
            <path id="Trazado_879624" data-name="Trazado 879624" d="M171.844,463.442c-3.888-.483-7.794-2.186-10.081-5.367-1.464-2.036-2.168-4.517-3.442-6.677s-3.479-4.113-5.975-3.87c-3.865.377-6.47,5.72-10.239,4.779-2.264-.565-3.341-3.227-3.357-5.56s.666-4.661.375-6.977c-.815-6.507-9.173-9.707-15.408-7.672s-15.706,9.555-19.769,14.7c4.272,7.107,13.045,9.868,21.088,11.885q20.253,5.079,40.852,8.613a30.165,30.165,0,0,0,9.73.57c3.224-.506,6.429-2.219,7.918-5.124-3.873.589-7.8,1.18-11.692.7" fill="#e0e0e0"/>
            <path id="Trazado_879625" data-name="Trazado 879625" d="M326.664,413.294c-.991-5.559-6.537-10.456-12.037-9.175,4.562-3.759,4.588-11.32.983-16s-9.872-6.7-15.78-6.529-11.581,2.252-17.067,4.454c2.689-3.426-1.246-8.759-5.592-9.046s-8.227,2.479-11.752,5.038-7.594,5.161-11.9,4.49l4.045,1.613c9.647,1.461,19.375,3.717,27.73,8.758s15.233,13.256,16.676,22.907-3.636,20.453-12.791,23.828a38.832,38.832,0,0,0,32.491-14.667c3.465-4.458,5.982-10.108,4.991-15.667" fill="#e0e0e0"/>
            <path id="Trazado_879626" data-name="Trazado 879626" d="M9.629,269.1a83.524,83.524,0,0,1-.26-9.314,83.523,83.523,0,0,1,.26-9.314,83.523,83.523,0,0,1,.26,9.314,83.524,83.524,0,0,1-.26,9.314" fill="#e0e0e0"/>
            <path id="Trazado_879627" data-name="Trazado 879627" d="M19.258,259.787a89.235,89.235,0,0,1-9.628.26,89.258,89.258,0,0,1-9.63-.26,89.273,89.273,0,0,1,9.63-.26,89.25,89.25,0,0,1,9.628.26" fill="#e0e0e0"/>
            <path id="Trazado_879628" data-name="Trazado 879628" d="M381.111,364.837a83.532,83.532,0,0,1-.26-9.314,83.532,83.532,0,0,1,.26-9.314,83.518,83.518,0,0,1,.26,9.314,83.518,83.518,0,0,1-.26,9.314" fill="#e0e0e0"/>
            <path id="Trazado_879629" data-name="Trazado 879629" d="M390.74,355.523a89.25,89.25,0,0,1-9.628.26,89.273,89.273,0,0,1-9.63-.26,89.259,89.259,0,0,1,9.63-.26,89.235,89.235,0,0,1,9.628.26" fill="#e0e0e0"/>
            <path id="Trazado_879630" data-name="Trazado 879630" d="M324.6,45.2a83.527,83.527,0,0,1-.26-9.314,83.527,83.527,0,0,1,.26-9.314,83.518,83.518,0,0,1,.26,9.314,83.518,83.518,0,0,1-.26,9.314" fill="#e0e0e0"/>
            <path id="Trazado_879631" data-name="Trazado 879631" d="M334.232,35.882a89.241,89.241,0,0,1-9.628.26,89.264,89.264,0,0,1-9.63-.26,89.264,89.264,0,0,1,9.63-.26,89.241,89.241,0,0,1,9.628.26" fill="#e0e0e0"/>
            <path id="Trazado_879632" data-name="Trazado 879632" d="M26.033,181.6a5.692,5.692,0,1,1-5.692-5.692,5.692,5.692,0,0,1,5.692,5.692" fill="#e0e0e0"/>
            <path id="Trazado_879633" data-name="Trazado 879633" d="M247.45,423.991a5.691,5.691,0,1,1-5.692-5.692,5.692,5.692,0,0,1,5.692,5.692" fill="#e0e0e0"/>
            <path id="Trazado_879634" data-name="Trazado 879634" d="M300.413,316.428a5.691,5.691,0,1,1-5.692-5.692,5.692,5.692,0,0,1,5.692,5.692" fill="#e0e0e0"/>
            <path id="Trazado_879635" data-name="Trazado 879635" d="M131.307,33.007a5.692,5.692,0,1,1-5.692-5.692,5.693,5.693,0,0,1,5.692,5.692" fill="#e0e0e0"/>
            <path id="Trazado_879636" data-name="Trazado 879636" d="M158.273,369.719a2.846,2.846,0,1,1-2.846-2.846,2.846,2.846,0,0,1,2.846,2.846" fill="#e0e0e0"/>
            <path id="Trazado_879637" data-name="Trazado 879637" d="M89.6,355.523a2.846,2.846,0,1,1-2.846-2.846,2.846,2.846,0,0,1,2.846,2.846" fill="#e0e0e0"/>
            <path id="Trazado_879638" data-name="Trazado 879638" d="M159.76,38.7a2.846,2.846,0,1,1-2.846-2.846A2.846,2.846,0,0,1,159.76,38.7" fill="#e0e0e0"/>
            <path id="Trazado_879639" data-name="Trazado 879639" d="M285.124,192.684a2.846,2.846,0,1,1-2.846-2.846,2.846,2.846,0,0,1,2.846,2.846" fill="#e0e0e0"/>
            <path id="Trazado_879640" data-name="Trazado 879640" d="M11.82,30.251S5.483,33.523,14.362,46.8s14.7,19.679,14.7,19.679,1.667,3.128-1.034,3.964-8.895.586-9.725,4.11c-.861,3.655,2.075,6.66,7.578,8.949s17.377,7.747,18.449,8.244c1.052.489,2.216,1.9.468,2.763s-15.254,3.909-13.426,10.231,18.209,10.18,19.991,10.637,2.276,1.13,2.247,2.082-4.664,1.548-8.469,2.571-8.04,2.877-6.679,6.436,11.574,10.167,34.423,9.708l10.573-.9,4.68-9.577C96.9,104.585,94.48,92.665,91.663,90.1s-6.088.7-8.43,3.869-4.588,7.269-5.485,6.948S76.4,99.89,76.63,98.064s2.611-18.485-2.608-22.494S61.04,83.024,59.6,84.336s-2.33-.286-2.4-1.444c-.072-1.18-.821-14.226-.943-20.185s-1.849-9.79-5.566-10.322c-3.584-.513-5.612,5.346-7.376,7.555s-4.068-.484-4.068-.484S35.4,51.7,26.286,38.587,11.7,30.326,11.7,30.326" fill="#ebebeb"/>
            <path id="Trazado_879641" data-name="Trazado 879641" d="M84.3,137.681c-6.659-9.656-18.207-27.017-28.2-41.87S37.055,67.527,30.445,57.839L22.6,46.373l-2.129-3.12c-.235-.35-.416-.621-.547-.815s-.177-.285-.177-.285.074.087.2.265.327.456.573.8L22.711,46.3c1.891,2.68,4.6,6.578,7.927,11.407,6.659,9.656,15.746,23.071,25.734,37.92S77.881,127.86,84.49,137.549" fill="#e0e0e0"/>
            <path id="Trazado_879642" data-name="Trazado 879642" d="M26.955,75.251a3.453,3.453,0,0,1,.759.118c.484.094,1.18.252,2.038.455,1.716.408,4.07,1.033,6.657,1.769l6.613,1.91,2.007.566a3.341,3.341,0,0,1,.729.237A3.432,3.432,0,0,1,45,80.193c-.485-.1-1.181-.253-2.037-.465C41.25,79.3,38.9,78.647,36.319,77.91l-6.625-1.861-2.01-.555a3.486,3.486,0,0,1-.729-.243" fill="#e0e0e0"/>
            <path id="Trazado_879643" data-name="Trazado 879643" d="M46.4,79.547c-.089-.021.986-4.932,2.4-10.969s2.632-10.916,2.721-10.9-.986,4.932-2.4,10.97S46.488,79.568,46.4,79.547" fill="#e0e0e0"/>
            <path id="Trazado_879644" data-name="Trazado 879644" d="M60.712,103.045a3.639,3.639,0,0,1,.351-.7l1.046-1.855c.881-1.567,2.088-3.737,3.332-6.179s2.3-4.689,3.054-6.322l.891-1.935a3.593,3.593,0,0,1,.362-.695,3.571,3.571,0,0,1-.244.745c-.177.472-.445,1.149-.795,1.979-.7,1.66-1.721,3.93-2.975,6.378s-2.49,4.607-3.424,6.147c-.47.768-.857,1.385-1.137,1.8a3.6,3.6,0,0,1-.461.635" fill="#e0e0e0"/>
            <path id="Trazado_879645" data-name="Trazado 879645" d="M42.27,103.03a3.021,3.021,0,0,1,.721-.073l1.968-.076c1.661-.05,3.957-.1,6.493-.126s4.833-.04,6.495-.03l1.969.029a3.033,3.033,0,0,1,.723.056,3.143,3.143,0,0,1-.721.072l-1.968.076c-1.661.05-3.957.1-6.494.127s-4.832.039-6.5.029l-1.968-.029a3.056,3.056,0,0,1-.723-.055" fill="#e0e0e0"/>
            <path id="Trazado_879646" data-name="Trazado 879646" d="M52.27,125.38a5.009,5.009,0,0,1,.923-.084l2.522-.107c2.129-.075,5.071-.157,8.321-.227s6.193-.115,8.324-.131l2.523,0a4.877,4.877,0,0,1,.926.044,5.008,5.008,0,0,1-.923.084l-2.521.107c-2.129.075-5.072.157-8.322.227s-6.193.115-8.323.131l-2.524,0a4.987,4.987,0,0,1-.926-.044" fill="#e0e0e0"/>
            <path id="Trazado_879647" data-name="Trazado 879647" d="M75.243,124.726a5.652,5.652,0,0,1,.422-.9l1.241-2.4c1.046-2.027,2.48-4.833,3.975-7.974s2.783-6.018,3.7-8.108l1.085-2.475a5.685,5.685,0,0,1,.432-.893,5.555,5.555,0,0,1-.314.942c-.222.6-.556,1.46-.989,2.517-.86,2.115-2.111,5.013-3.614,8.159s-2.967,5.941-4.066,7.942c-.553,1-1.008,1.8-1.335,2.352a5.746,5.746,0,0,1-.534.837" fill="#e0e0e0"/>
            <path id="Trazado_879648" data-name="Trazado 879648" d="M355.194,220.733c-11.273-9.831-12.336-25.939-10.322-40.1.336-2.363.345-4.893,1.7-6.853s4.139-3.1,6.156-1.869c1.672,1.019,2.219,3.151,3.022,4.952a13.948,13.948,0,0,0,4.991,5.913c1.426.947,3.243,1.628,4.823.966,2.168-.908,2.714-3.709,2.953-6.07q.67-6.6,1.34-13.2a22.107,22.107,0,0,1,1.467-6.931,7.362,7.362,0,0,1,5.133-4.453c2.313-.386,4.948,1.207,5.173,3.568a21.871,21.871,0,0,1-.249,2.944,2.5,2.5,0,0,0,1.2,2.493,2.87,2.87,0,0,0,2.708-.8,31.524,31.524,0,0,0,6.548-7.9,43.8,43.8,0,0,1,6.2-8.208c2.49-2.36,5.768-4.09,9.168-3.917s6.775,2.646,7.271,6.055-1.806,6.585-4.208,9.049a52.977,52.977,0,0,1-12.092,9.271,4.358,4.358,0,0,0-2.047,1.775c-.682,1.517.64,3.24,2.137,3.925,1.7.775,3.624.8,5.44,1.213s3.722,1.441,4.231,3.255c.706,2.515-1.583,4.826-3.746,6.267a45.37,45.37,0,0,1-14.183,6.269,15.293,15.293,0,0,0-5.222,1.877c-1.531,1.069-2.6,3.1-1.938,4.851s2.78,2.521,4.635,2.379a31.635,31.635,0,0,0,5.39-1.42c3.375-.874,7.538-.2,9.313,2.827a7.512,7.512,0,0,1,.083,6.688,17.309,17.309,0,0,1-4.206,5.445,45.619,45.619,0,0,1-20.838,11.526c-7.8,1.8-14.848,1.752-22.028-1.787" fill="#f5f5f5"/>
            <path id="Trazado_879649" data-name="Trazado 879649" d="M359.823,212.219a212.554,212.554,0,0,1,10.845-21.857l3.137-5.583c1.034-1.83,2.059-3.645,3.172-5.359a106.265,106.265,0,0,1,6.956-9.478c2.358-2.908,4.7-5.581,6.912-8.065s4.325-4.753,6.336-6.742a84.289,84.289,0,0,1,10.177-8.672c1.277-.927,2.292-1.612,2.986-2.068l.792-.514a1.572,1.572,0,0,1,.278-.161,1.868,1.868,0,0,1-.254.2l-.767.549c-.677.48-1.675,1.188-2.936,2.134a89.1,89.1,0,0,0-10.06,8.755c-1.991,2-4.082,4.277-6.283,6.764s-4.527,5.171-6.871,8.078a107.424,107.424,0,0,0-6.908,9.457c-1.1,1.7-2.118,3.5-3.153,5.34s-2.076,3.7-3.134,5.582a217.813,217.813,0,0,0-10.855,21.8" fill="#e0e0e0"/>
            <path id="Trazado_879650" data-name="Trazado 879650" d="M377.1,179.417a4.838,4.838,0,0,1-.122-1.031c-.054-.666-.1-1.63-.139-2.823-.08-2.386-.079-5.683-.063-9.319s-.03-6.925-.147-9.3c-.055-1.189-.109-2.151-.155-2.815a4.755,4.755,0,0,1-.021-1.039,4.743,4.743,0,0,1,.19,1.021c.1.66.2,1.622.293,2.812.2,2.381.291,5.682.276,9.323-.025,3.587-.047,6.833-.064,9.313,0,1.12,0,2.064,0,2.822a4.668,4.668,0,0,1-.048,1.038" fill="#e0e0e0"/>
            <path id="Trazado_879651" data-name="Trazado 879651" d="M408.048,177.017a6.558,6.558,0,0,1-1.225.014c-.786-.014-1.923-.041-3.329-.03-2.81,0-6.693.137-10.97.475s-8.135.824-10.915,1.25c-1.393.2-2.515.4-3.291.528a6.524,6.524,0,0,1-1.215.163,6.583,6.583,0,0,1,1.182-.332c.768-.181,1.885-.423,3.275-.667,2.776-.507,6.641-1.035,10.932-1.383a107.735,107.735,0,0,1,11.006-.346c1.41.029,2.549.1,3.334.171a6.429,6.429,0,0,1,1.216.157" fill="#e0e0e0"/>
            <path id="Trazado_879652" data-name="Trazado 879652" d="M360.256,211.7a1.557,1.557,0,0,1-.168-.392c-.108-.312-.241-.693-.4-1.154-.343-1-.8-2.467-1.345-4.284-1.089-3.633-2.435-8.7-3.845-14.307s-2.709-10.683-3.72-14.333l-1.211-4.321c-.129-.471-.236-.859-.323-1.178a1.548,1.548,0,0,1-.084-.419,1.628,1.628,0,0,1,.168.393l.4,1.152c.344,1,.8,2.468,1.346,4.284,1.089,3.633,2.435,8.7,3.846,14.31s2.708,10.681,3.719,14.332c.5,1.774.907,3.235,1.211,4.319l.323,1.178a1.611,1.611,0,0,1,.084.42" fill="#e0e0e0"/>
            <path id="Trazado_879653" data-name="Trazado 879653" d="M401.966,203.054a1.681,1.681,0,0,1-.418.122l-1.213.266-4.467.934c-3.772.789-8.969,1.939-14.71,3.217s-10.956,2.382-14.745,3.093c-1.895.356-3.431.629-4.5.8l-1.227.185a1.615,1.615,0,0,1-.434.034,1.681,1.681,0,0,1,.418-.122l1.213-.266,4.467-.933c3.772-.789,8.97-1.939,14.712-3.218s10.953-2.382,14.743-3.093c1.9-.356,3.43-.629,4.5-.8l1.228-.185a1.607,1.607,0,0,1,.433-.034" fill="#e0e0e0"/>
            <path id="Trazado_879654" data-name="Trazado 879654" d="M268.322,51.776c1.816-10.417,6.78-25.643,12.729-34.384S296.171,1.7,306.645.251s22.028,3.461,26.746,12.924c2.53,5.072,2.994,10.908,4.839,16.268s5.887,10.716,11.54,11.148c5,.383,9.824-3.223,14.748-2.264,6.412,1.248,8.888,9.152,8.925,15.684s-.9,13.785,3.12,18.938c3.285,4.217,8.911,5.67,13.446,8.5,9.809,6.118,14.008,18.754,13.013,30.271s-6.3,22.181-11.932,32.274a252.186,252.186,0,0,0-19.051-47.886c-4.549-8.715-12.851-16.133-20.2-22.66C340.549,63.423,315.77,58.64,300.788,56.8s-17.63-2.245-32.466-5.022" fill="#e0e0e0"/>
          </g>
        </g>
        <g id="Grupo_1101767" data-name="Grupo 1101767">
          <g id="Grupo_1101766" data-name="Grupo 1101766" clip-path="url(#clip-path-2)">
            <path id="Trazado_879655" data-name="Trazado 879655" d="M168.41,64.047c-37.077,2.693-77.551,7.6-107.23,19l9.372,63.425s57.528-20.586,104.331-19.157Z" fill="#01570b"/>
            <g id="Grupo_1101759" data-name="Grupo 1101759" opacity="0.8">
              <g id="Grupo_1101758" data-name="Grupo 1101758">
                <g id="Grupo_1101757" data-name="Grupo 1101757" clip-path="url(#clip-path-5)">
                  <path id="Trazado_879656" data-name="Trazado 879656" d="M168.41,64.047c-37.077,2.693-77.551,7.6-107.23,19l9.372,63.425s57.528-20.586,104.331-19.157Z" fill="#3ba935"/>
                </g>
              </g>
            </g>
            <path id="Trazado_879657" data-name="Trazado 879657" d="M165.736,118.944a1.972,1.972,0,0,1-.356.067l-1.053.145-4.046.505c-1.758.208-3.909.466-6.4.832s-5.331.712-8.454,1.231c-12.507,1.934-29.724,5.126-48.426,9.963-6.5,1.678-12.767,3.409-18.5,5.207l-.285.089-.04-.293c-2-14.545-3.944-27.083-5.432-35.975l-1.79-10.409q-.313-1.785-.488-2.782l-.116-.72a1.067,1.067,0,0,1-.025-.247,1.074,1.074,0,0,1,.068.239c.041.183.093.417.159.711q.2.99.569,2.767c.482,2.417,1.149,5.947,1.934,10.387,1.575,8.881,3.581,21.415,5.616,35.96l-.325-.2c5.751-1.816,12.015-3.554,18.526-5.234a472.176,472.176,0,0,1,48.5-9.823c3.129-.5,5.976-.826,8.47-1.156s4.649-.567,6.412-.744l4.059-.409,1.056-.093a1.875,1.875,0,0,1,.363-.014" fill="#01570b"/>
            <path id="Trazado_879658" data-name="Trazado 879658" d="M166.992,103.526c-.026.007-.14-.442-.427-1.262a13.423,13.423,0,0,0-1.908-3.279,16.673,16.673,0,0,0-4.5-3.942,17.619,17.619,0,0,0-1.6-.852,14.67,14.67,0,0,0-1.812-.655,9.962,9.962,0,0,0-4.124-.4,8.679,8.679,0,0,0-4.2,1.652,14.065,14.065,0,0,0-3.359,3.652c-1.95,2.887-3.219,6.4-4.713,10.059a12.625,12.625,0,0,1-3.488,5,6.629,6.629,0,0,1-2.9,1.386,5.8,5.8,0,0,1-3.257-.376c-4.223-1.674-6.1-6.538-10.368-8.017a8.357,8.357,0,0,0-6.332.518,7.987,7.987,0,0,0-2.508,1.936,12.753,12.753,0,0,0-1.672,2.686c-.953,1.879-1.669,3.968-3.281,5.442a4.858,4.858,0,0,1-2.876,1.3,5.623,5.623,0,0,1-3.01-.647,10.785,10.785,0,0,1-4.141-4.069,35.033,35.033,0,0,1-2.191-4.994,23.775,23.775,0,0,0-2.169-4.513,9.026,9.026,0,0,0-3.316-3.077,8.583,8.583,0,0,0-7.6-.222,12.877,12.877,0,0,0-4.826,3.48,9.38,9.38,0,0,0-1.81,3.308c-.255.833-.291,1.3-.328,1.291a5.862,5.862,0,0,1,.228-1.32,9.1,9.1,0,0,1,1.754-3.408,12.933,12.933,0,0,1,4.867-3.618,8.88,8.88,0,0,1,7.888.163,9.391,9.391,0,0,1,3.48,3.179,24.122,24.122,0,0,1,2.237,4.58,35.212,35.212,0,0,0,2.181,4.915,10.361,10.361,0,0,0,3.965,3.877,5.151,5.151,0,0,0,2.75.588,4.363,4.363,0,0,0,2.587-1.18c1.479-1.344,2.2-3.387,3.156-5.3a13.2,13.2,0,0,1,1.741-2.8,8.47,8.47,0,0,1,2.665-2.063A8.86,8.86,0,0,1,120.5,106c2.274.747,3.9,2.5,5.41,4.077a14.992,14.992,0,0,0,4.984,3.961,5.287,5.287,0,0,0,2.975.353,6.138,6.138,0,0,0,2.676-1.279,12.168,12.168,0,0,0,3.359-4.805C141.4,104.7,142.7,101.124,144.7,98.2a14.434,14.434,0,0,1,3.483-3.737,9.035,9.035,0,0,1,4.4-1.692,10.275,10.275,0,0,1,4.258.449,15.058,15.058,0,0,1,1.848.689,18.016,18.016,0,0,1,1.623.887,16.629,16.629,0,0,1,4.511,4.067,12.806,12.806,0,0,1,1.846,3.367c.148.414.2.749.263.965a1.585,1.585,0,0,1,.065.333" fill="#01570b"/>
            <path id="Trazado_879659" data-name="Trazado 879659" d="M68.744,95.2c.027.141-.456.352-1.078.47s-1.148.1-1.175-.041.455-.352,1.078-.47,1.148-.1,1.175.041" fill="#01570b"/>
            <path id="Trazado_879660" data-name="Trazado 879660" d="M70.383,106.783c.061.13-.3.428-.812.665s-.971.323-1.032.193.3-.428.812-.665.971-.323,1.032-.193" fill="#01570b"/>
            <path id="Trazado_879661" data-name="Trazado 879661" d="M72.432,119.44c.047.137-.327.391-.836.569s-.96.211-1.008.076.327-.39.836-.568.961-.212,1.008-.077" fill="#01570b"/>
            <path id="Trazado_879662" data-name="Trazado 879662" d="M74.89,131.883c.043.137-.381.393-.946.57s-1.059.211-1.1.073.38-.392.946-.57,1.059-.21,1.1-.073" fill="#01570b"/>
            <path id="Trazado_879663" data-name="Trazado 879663" d="M144.808,72.106a5.051,5.051,0,0,1,1.211-.273c.8-.138,1.964-.312,3.449-.522,2.971-.417,7.207-.967,12.26-1.589l.236-.03.022.238c.393,4.258.846,9.162,1.327,14.36l.02.216.022.251-.249.031-16.576,2.03-.222.027-.023-.219c-.465-4.347-.853-7.976-1.132-10.59q-.177-1.821-.283-2.923a6.8,6.8,0,0,1-.062-1.007,8.793,8.793,0,0,1,.181,1.067c.1.74.236,1.725.4,2.949.328,2.58.783,6.162,1.329,10.453l-.245-.193,16.565-2.111-.227.282-.02-.216c-.459-5.2-.893-10.106-1.269-14.365l.257.209-16.974,1.925" fill="#01570b"/>
            <path id="Trazado_879664" data-name="Trazado 879664" d="M160.2,74.63c0,.154-2.854.153-6.334.528s-6.268.956-6.3.806a22.391,22.391,0,0,1,6.25-1.324,22.373,22.373,0,0,1,6.388-.01" fill="#01570b"/>
            <path id="Trazado_879665" data-name="Trazado 879665" d="M160.381,78.346c0,.151-2.656.253-5.911.572s-5.883.718-5.912.57A23.024,23.024,0,0,1,154.42,78.4a23,23,0,0,1,5.961-.053" fill="#01570b"/>
            <path id="Trazado_879666" data-name="Trazado 879666" d="M156.412,81.592a11.514,11.514,0,0,1-3.373.69,11.541,11.541,0,0,1-3.439.173,11.591,11.591,0,0,1,3.373-.69,11.541,11.541,0,0,1,3.439-.173" fill="#01570b"/>
            <path id="Trazado_879667" data-name="Trazado 879667" d="M349.125,82.708C312.823,71.645,282.2,62.2,241.078,62.459l-6.285,64.63c42.71,3.78,56.984,6.576,96.424,20.849Z" fill="#01570b"/>
            <g id="Grupo_1101762" data-name="Grupo 1101762" opacity="0.8">
              <g id="Grupo_1101761" data-name="Grupo 1101761">
                <g id="Grupo_1101760" data-name="Grupo 1101760" clip-path="url(#clip-path-6)">
                  <path id="Trazado_879668" data-name="Trazado 879668" d="M349.125,82.708C312.823,71.645,282.2,62.2,241.078,62.459l-6.285,64.63c42.71,3.78,56.984,6.576,96.424,20.849Z" fill="#3ba935"/>
                </g>
              </g>
            </g>
            <path id="Trazado_879669" data-name="Trazado 879669" d="M266.944,93.82l1.6-13.712a16.077,16.077,0,0,0-11.195,3.1,16.858,16.858,0,0,0-6.88,13.559c-.013.66,0,1.335.057,2.028l0,.049h0l16.016-1.8Z" fill="#01570b"/>
            <path id="Trazado_879670" data-name="Trazado 879670" d="M283.5,91.576A15.512,15.512,0,0,0,272.089,80.7c-.161-.037-.323-.073-.488-.106-.1-.021-.205-.045-.31-.064q-.459-.084-.934-.144l-.042-.007h0l-.039-.006v0l-1.6,13.712-.376,3.223,15.119,5.518.019.007a17.472,17.472,0,0,0,.783-3.51,18.815,18.815,0,0,0-.718-7.751" fill="#01570b"/>
            <g id="Grupo_1101765" data-name="Grupo 1101765" opacity="0.3">
              <g id="Grupo_1101764" data-name="Grupo 1101764">
                <g id="Grupo_1101763" data-name="Grupo 1101763" clip-path="url(#clip-path-7)">
                  <path id="Trazado_879671" data-name="Trazado 879671" d="M283.5,91.576A15.512,15.512,0,0,0,272.089,80.7c-.161-.037-.323-.073-.488-.106-.1-.021-.205-.045-.31-.064q-.459-.084-.934-.144l-.042-.007h0l-.039-.006v0l-1.6,13.712-.376,3.223,15.119,5.518.019.007a17.472,17.472,0,0,0,.783-3.51,18.815,18.815,0,0,0-.718-7.751"/>
                </g>
              </g>
            </g>
            <path id="Trazado_879672" data-name="Trazado 879672" d="M267.171,98.853l-16.016,1.8c.666,7.756,6.328,14.188,13.933,15.124,7.643.94,14.728-3.98,17.222-11.4l-15.119-5.518" fill="#01570b"/>
            <path id="Trazado_879673" data-name="Trazado 879673" d="M335.1,95.027a8.366,8.366,0,0,1-1.414-.571c-.892-.4-2.191-.97-3.8-1.645a114.048,114.048,0,0,0-26.219-7.48c-1.727-.278-3.129-.483-4.1-.61a8.762,8.762,0,0,1-1.5-.26,8.327,8.327,0,0,1,1.525.058c.979.066,2.392.215,4.132.448a96.586,96.586,0,0,1,26.311,7.506c1.6.72,2.88,1.339,3.747,1.8a8.78,8.78,0,0,1,1.326.754" fill="#01570b"/>
            <path id="Trazado_879674" data-name="Trazado 879674" d="M334,101.773a8.368,8.368,0,0,1-1.414-.571c-.892-.4-2.191-.97-3.8-1.645a114.047,114.047,0,0,0-26.219-7.48c-1.727-.278-3.129-.483-4.1-.61a8.763,8.763,0,0,1-1.5-.26,8.564,8.564,0,0,1,1.525.058c.979.066,2.392.215,4.132.448a96.585,96.585,0,0,1,26.311,7.506c1.6.72,2.88,1.339,3.747,1.8a8.78,8.78,0,0,1,1.326.754" fill="#01570b"/>
            <path id="Trazado_879675" data-name="Trazado 879675" d="M332.9,108.52a8.555,8.555,0,0,1-1.414-.572c-.892-.4-2.191-.97-3.8-1.645a114.048,114.048,0,0,0-26.219-7.48c-1.727-.278-3.129-.483-4.1-.61a8.763,8.763,0,0,1-1.5-.26,8.443,8.443,0,0,1,1.525.058c.979.066,2.392.215,4.132.448a96.586,96.586,0,0,1,26.311,7.506c1.6.72,2.88,1.339,3.747,1.8a8.612,8.612,0,0,1,1.326.755" fill="#01570b"/>
            <path id="Trazado_879676" data-name="Trazado 879676" d="M330.7,115.266a8.141,8.141,0,0,1-1.37-.57c-.863-.4-2.121-.968-3.684-1.642a108.142,108.142,0,0,0-25.44-7.483c-1.679-.28-3.042-.484-3.986-.612a8.157,8.157,0,0,1-1.461-.26,8.059,8.059,0,0,1,1.483.059c.953.066,2.327.215,4.019.449a91.651,91.651,0,0,1,25.535,7.511c1.549.719,2.787,1.336,3.624,1.8a8.119,8.119,0,0,1,1.28.752" fill="#01570b"/>
            <path id="Trazado_879677" data-name="Trazado 879677" d="M325.918,120.648a6.574,6.574,0,0,1-1.237-.492l-3.3-1.47a80.741,80.741,0,0,0-22.826-6.512l-3.583-.5a6.5,6.5,0,0,1-1.31-.235,6.524,6.524,0,0,1,1.331.033c.854.05,2.088.164,3.61.332a69.25,69.25,0,0,1,22.93,6.542c1.382.66,2.49,1.214,3.242,1.623a6.474,6.474,0,0,1,1.148.674" fill="#01570b"/>
            <path id="Trazado_879678" data-name="Trazado 879678" d="M309.789,121.408a16.014,16.014,0,0,1-2.583-.535c-1.582-.368-3.774-.841-6.215-1.26s-4.666-.727-6.276-.956a14.294,14.294,0,0,1-2.6-.451,12.45,12.45,0,0,1,2.642.085c1.625.136,3.868.381,6.324.809a56.519,56.519,0,0,1,6.219,1.417,11.384,11.384,0,0,1,2.49.891" fill="#01570b"/>
            <path id="Trazado_879679" data-name="Trazado 879679" d="M247.379,70.116s.275-.022.834-.043l2.5-.083c2.208-.054,5.4-.019,9.481.212a150.906,150.906,0,0,1,33.3,5.961l.183.055-.034.194c-2.5,14.324-5.476,31.355-8.658,49.578-.129.738-.259,1.474-.385,2.2l-.049.279-.275-.072a219.432,219.432,0,0,0-22.235-4.587c-7.163-1.1-14.014-1.878-20.378-2.282l-.245-.015.028-.24c1.75-15.287,3.217-28.094,4.248-37.1.524-4.457.936-7.974,1.221-10.4.144-1.177.255-2.089.333-2.73.039-.292.069-.519.092-.693a1.344,1.344,0,0,1,.039-.226,2.025,2.025,0,0,1-.014.253c-.017.181-.038.417-.066.719-.066.652-.16,1.58-.281,2.777-.258,2.441-.631,5.978-1.105,10.461-.974,8.983-2.358,21.753-4.011,37l-.216-.255c6.394.387,13.249,1.153,20.432,2.244a216.953,216.953,0,0,1,22.292,4.581l-.323.206c.127-.723.256-1.459.385-2.2L293.2,76.336l.15.249a154.418,154.418,0,0,0-33.179-6.124c-4.062-.27-7.281-.343-9.439-.337l-2.484,0c-.567,0-.874-.013-.874-.013" fill="#01570b"/>
          </g>
        </g>
        <path id="Trazado_879680" data-name="Trazado 879680" d="M207.738,202.191l35.4,7.838,5.41-7.838-.874-10.094-5.379-4.914H223.75l-17.314,15.592" fill="#01570b"/>
        <g id="Grupo_1101793" data-name="Grupo 1101793">
          <g id="Grupo_1101792" data-name="Grupo 1101792" clip-path="url(#clip-path-2)">
            <g id="Grupo_1101770" data-name="Grupo 1101770" opacity="0.3">
              <g id="Grupo_1101769" data-name="Grupo 1101769">
                <g id="Grupo_1101768" data-name="Grupo 1101768" clip-path="url(#clip-path-9)">
                  <path id="Trazado_879681" data-name="Trazado 879681" d="M207.738,202.191l35.4,7.838,5.41-7.838-.874-10.094-5.379-4.914H223.75l-17.314,15.592"/>
                </g>
              </g>
            </g>
            <path id="Trazado_879682" data-name="Trazado 879682" d="M261.719,129.285l44.683-6.017,7.033-1.984s16.106-3.538,17.61-4.075c1.738-.62,2.455.068,2.64.724.288,1.023-.691,2.168-2.165,2.746-.51.2-8.68,3.03-8.68,3.03a20.428,20.428,0,0,1,2.76.8c1.953.664,3.829,3.183,4.768,6.119s.942,3.842-.182,4.26a1.525,1.525,0,0,1-1.3-.18,3.017,3.017,0,0,1-1.341-1.68c-1.568-4.682-4.5-5.051-4.5-5.051l-.92.259s3.023,2.111,2.971,4.664a2.905,2.905,0,0,1-.235,1.1,3.862,3.862,0,0,1-4.308,5.083c-.643-.111-1.339-.492-1.432-1.138a2.061,2.061,0,0,1,.207-1,3.1,3.1,0,0,0,.16-.523l-2.68.366s-6.063.5-8.677,1.017L266.29,150.4a10.836,10.836,0,1,1-4.571-21.114" fill="#ffbe9d"/>
            <path id="Trazado_879683" data-name="Trazado 879683" d="M307.438,124.407a2.251,2.251,0,0,0,1.926,1.782c.919.193,1.877.068,2.808.193,2.783.376,4.948,2.908,7.747,3.149.39.034.882-.047,1-.421.107-.347-.192-.675-.464-.915l-6.972-6.162" fill="#ffbe9d"/>
            <path id="Trazado_879684" data-name="Trazado 879684" d="M313.48,122.032a3.76,3.76,0,0,1,.822.589c.507.4,1.228,1,2.112,1.754l3.087,2.652.887.773c.263.266.724.5.809,1.136a.784.784,0,0,1-.478.739,1.616,1.616,0,0,1-.752.124,6.13,6.13,0,0,1-1.345-.267,35.692,35.692,0,0,1-4.471-2.267,6.987,6.987,0,0,0-1.99-.661c-.647-.1-1.282-.078-1.87-.12a3.276,3.276,0,0,1-2.546-1.1c-.414-.566-.326-.992-.308-.978a2.721,2.721,0,0,0,.466.845,3.173,3.173,0,0,0,2.4.858,19.118,19.118,0,0,1,1.913.059,7.228,7.228,0,0,1,2.138.654,41.48,41.48,0,0,0,4.421,2.2,5.722,5.722,0,0,0,1.215.246c.385.027.717-.112.682-.317,0-.23-.323-.513-.624-.775s-.59-.529-.876-.785l-3.011-2.738c-.852-.785-1.536-1.427-2-1.88a3.712,3.712,0,0,1-.686-.744" fill="#eb996e"/>
            <path id="Trazado_879685" data-name="Trazado 879685" d="M322.047,128.138a3.831,3.831,0,0,1,1.758-.023,2.961,2.961,0,0,1,1.53,1.051,7.6,7.6,0,0,1,1.1,2.088,12.008,12.008,0,0,0,1.018,2.228,3.9,3.9,0,0,0,1.462,1.407,1.521,1.521,0,0,0,1.367.031c.291-.155.4-.3.392-.312-.019-.027-.16.083-.444.189a1.435,1.435,0,0,1-1.205-.124,3.861,3.861,0,0,1-1.3-1.359,13.357,13.357,0,0,1-.966-2.184,7.371,7.371,0,0,0-1.176-2.165,3.1,3.1,0,0,0-1.716-1.085,2.759,2.759,0,0,0-1.365.042c-.31.1-.458.2-.45.216" fill="#eb996e"/>
            <path id="Trazado_879686" data-name="Trazado 879686" d="M332.085,120.447a9.626,9.626,0,0,0-1.628.552l-3.883,1.427-3.9,1.37a9.8,9.8,0,0,0-1.607.609,7.721,7.721,0,0,0,1.68-.378c1.023-.287,2.422-.731,3.948-1.278s2.887-1.1,3.858-1.526a7.615,7.615,0,0,0,1.537-.776" fill="#eb996e"/>
            <path id="Trazado_879687" data-name="Trazado 879687" d="M320.865,130.629c-.018.019.121.156.352.408a1.6,1.6,0,0,1,.5,1.23.857.857,0,0,1-.527.662,4.6,4.6,0,0,1-1.08.3,1.927,1.927,0,0,0-1.207.646,1.644,1.644,0,0,0-.2,1.47,1.865,1.865,0,0,0,1.005,1.078,2.33,2.33,0,0,0,1.347.2,7.537,7.537,0,0,0,2.072-.773,4.481,4.481,0,0,0,1.194-.89,1,1,0,0,0,.278-.472c-.027-.015-.125.15-.373.378a5.279,5.279,0,0,1-1.21.769,8.108,8.108,0,0,1-2.011.676,1.843,1.843,0,0,1-1.977-1.073,1.322,1.322,0,0,1,.148-1.163,1.647,1.647,0,0,1,1.007-.538,4.538,4.538,0,0,0,1.142-.354,1.107,1.107,0,0,0,.635-.886,1.666,1.666,0,0,0-.651-1.352c-.267-.23-.432-.329-.446-.313" fill="#eb996e"/>
            <path id="Trazado_879688" data-name="Trazado 879688" d="M319.909,136.2c0-.016-.192,0-.444.209a1.493,1.493,0,0,0-.5,1.242,1.993,1.993,0,0,0,1.185,1.587,3.261,3.261,0,0,0,2.426.035A3.947,3.947,0,0,0,324.5,137.8a3.763,3.763,0,0,0,.649-1.868,3.562,3.562,0,0,0-.144-1.317c-.1-.3-.188-.446-.207-.439a6.223,6.223,0,0,1,.111,1.732,3.724,3.724,0,0,1-.666,1.71,3.769,3.769,0,0,1-1.784,1.328,3.032,3.032,0,0,1-2.181,0,1.768,1.768,0,0,1-1.074-1.326,1.419,1.419,0,0,1,.351-1.12c.2-.216.364-.278.352-.3" fill="#eb996e"/>
            <path id="Trazado_879689" data-name="Trazado 879689" d="M312.472,132.526c.03-.008-.015-.322-.287-.774a3.244,3.244,0,0,0-1.629-1.331l.018.3a9.6,9.6,0,0,0,1.021-.566,7.384,7.384,0,0,0,2.8-2.887,18.708,18.708,0,0,1-2.987,2.6c-.333.213-.667.4-.981.56l-.348.177.365.125a3.4,3.4,0,0,1,1.568,1.139c.3.391.415.673.457.657" fill="#eb996e"/>
            <path id="Trazado_879690" data-name="Trazado 879690" d="M326.388,127.753c-.065-.063-.538.459-.589,1.283s.338,1.4.411,1.351c.09-.043-.125-.611-.07-1.328s.331-1.251.248-1.306" fill="#eb996e"/>
            <path id="Trazado_879691" data-name="Trazado 879691" d="M117.877,143.3s-6.527-10.578-7.682-11.475-11.488-4.68-12.37-4.4-13.4,2.417-11.966,3.9,10.169-.127,10.169-.127l1.172.586s-7.543,1.2-9.131,2.12c-1.462.845-.961,2.634.421,2.491s7.935-1.411,8.325-1.142-7.13,1.768-7.939,2.246c-1.089.644-1.2,2.58.176,2.485.81-.056,7.9-1.886,7.9-1.886a60.437,60.437,0,0,0-6.141,2.658c-.849.806-.176,2.03,1.042,1.761.836-.184,4.808-2.078,5.929-2.322,0,0,1.046.28,2,2.4.443.988,2.461,7.152,6.152,7.071,3.269-.071,6.479,2.624,6.479,2.624Z" fill="#ffbe9d"/>
            <path id="Trazado_879692" data-name="Trazado 879692" d="M85.883,131.361a5.776,5.776,0,0,0,2.282.631,13.5,13.5,0,0,0,2.58.107c.957-.106,2-.254,3.1-.406l2.336-.341-.141-.013a33.873,33.873,0,0,0,5.4,1.694,33.455,33.455,0,0,0-5.208-2.223l-.062-.024-.08.011-2.317.312-3.067.449a16.588,16.588,0,0,1-2.5.02c-1.426-.1-2.3-.305-2.324-.217" fill="#eb996e"/>
            <path id="Trazado_879693" data-name="Trazado 879693" d="M112.985,142.049a2.5,2.5,0,0,1-2.909,0c-.893-.537-1.577-1.361-2.428-1.961-2.546-1.793-6.215-1.368-8.672-3.281-.343-.267-.681-.7-.494-1.1.175-.363.666-.4,1.068-.4l10.313.249" fill="#ffbe9d"/>
            <path id="Trazado_879694" data-name="Trazado 879694" d="M109.863,135.562a4.15,4.15,0,0,0-1.113-.141c-.717-.053-1.755-.109-3.039-.167l-4.509-.172-1.3-.041a2.048,2.048,0,0,0-1.515.315.87.87,0,0,0-.168.961,1.8,1.8,0,0,0,.518.667,6.787,6.787,0,0,0,1.294.8,39.535,39.535,0,0,0,5.344,1.527,7.748,7.748,0,0,1,2.116.964c.6.407,1.1.9,1.611,1.312a3.63,3.63,0,0,0,2.9,1.026c.763-.147,1.012-.561.987-.563a3.018,3.018,0,0,1-1.016.336,3.52,3.52,0,0,1-2.6-1.116c-.475-.414-.961-.932-1.6-1.4a8,8,0,0,0-2.232-1.08c-1.64-.554-3.538-.74-5.254-1.543a6.215,6.215,0,0,1-1.173-.716c-.334-.268-.5-.632-.315-.773.176-.183.65-.173,1.091-.158l1.3.021,4.512.046c1.285,0,2.325,0,3.044-.02a4.106,4.106,0,0,0,1.118-.088" fill="#eb996e"/>
            <path id="Trazado_879695" data-name="Trazado 879695" d="M168.71,377.529l-2.384,26.233-7.869,20.205A2.7,2.7,0,0,0,162.6,427.1c4.431-3.375,20.668-15.872,20.735-17.8.077-2.235,4.352-27.505,4.352-27.505Z" fill="#01570b"/>
            <g id="Grupo_1101773" data-name="Grupo 1101773" opacity="0.6">
              <g id="Grupo_1101772" data-name="Grupo 1101772">
                <g id="Grupo_1101771" data-name="Grupo 1101771" clip-path="url(#clip-path-10)">
                  <path id="Trazado_879696" data-name="Trazado 879696" d="M160.166,427.522l23.37-19.991-.126,1.109a4.061,4.061,0,0,1-1.256,2.508c-1.884,1.763-7.194,6.519-19.474,15.961a2.7,2.7,0,0,1-2.514.413" fill="#fff"/>
                </g>
              </g>
            </g>
            <g id="Grupo_1101776" data-name="Grupo 1101776" opacity="0.6">
              <g id="Grupo_1101775" data-name="Grupo 1101775">
                <g id="Grupo_1101774" data-name="Grupo 1101774" clip-path="url(#clip-path-11)">
                  <path id="Trazado_879697" data-name="Trazado 879697" d="M179.128,398.476a1.633,1.633,0,0,0-.686,2.068,1.57,1.57,0,0,0,2.044.7,1.722,1.722,0,0,0,.715-2.194,1.628,1.628,0,0,0-2.207-.49" fill="#fff"/>
                </g>
              </g>
            </g>
            <path id="Trazado_879698" data-name="Trazado 879698" d="M167.452,416.769c-.156.055-.59-1.383-2.063-2.3a8.216,8.216,0,0,0-2.947-.92c-.016-.067.339-.233.961-.249a4.3,4.3,0,0,1,3.875,2.488c.244.573.241.964.174.978" fill="#263238"/>
            <path id="Trazado_879699" data-name="Trazado 879699" d="M165.188,420.061c-.137.1-.88-.848-2.19-1.389a21.859,21.859,0,0,0-2.518-.621,2.989,2.989,0,0,1,2.745.089c1.49.626,2.107,1.866,1.963,1.921" fill="#263238"/>
            <path id="Trazado_879700" data-name="Trazado 879700" d="M171.434,412.672A26.855,26.855,0,0,0,168.2,410.3a26.914,26.914,0,0,0-3.779-1.347,7.378,7.378,0,0,1,7.014,3.72" fill="#263238"/>
            <path id="Trazado_879701" data-name="Trazado 879701" d="M172.825,404.758c-.088.149-1.465-.62-3.338-.9-1.87-.308-3.417,0-3.455-.17a6.7,6.7,0,0,1,6.793,1.072" fill="#263238"/>
            <path id="Trazado_879702" data-name="Trazado 879702" d="M173.72,397.076a13.193,13.193,0,0,0-3.45-1.032,13.212,13.212,0,0,0-3.57.476c-.036-.059.287-.355.93-.635a5.885,5.885,0,0,1,5.272.417c.591.378.864.721.818.774" fill="#263238"/>
            <path id="Trazado_879703" data-name="Trazado 879703" d="M170.483,394.587a2.288,2.288,0,0,1,.077-.994,6.921,6.921,0,0,1,1.083-2.5,3.064,3.064,0,0,1,1.473-1.307,1.085,1.085,0,0,1,1.188.378,1.766,1.766,0,0,1,.279,1.229,3.814,3.814,0,0,1-3.722,3.128,4.424,4.424,0,0,1-4.056-2.792,1.532,1.532,0,0,1,.073-1.277,1.064,1.064,0,0,1,1.17-.433,3.765,3.765,0,0,1,1.622,1.093,7.725,7.725,0,0,1,1.554,2.236,2.342,2.342,0,0,1,.3.951,12.309,12.309,0,0,0-2.137-2.893,3.537,3.537,0,0,0-1.437-.918.567.567,0,0,0-.639.233,1.054,1.054,0,0,0,0,.842,3.951,3.951,0,0,0,3.545,2.38,3.311,3.311,0,0,0,3.2-2.61,1.277,1.277,0,0,0-.158-.866.585.585,0,0,0-.652-.218,2.777,2.777,0,0,0-1.269,1.083,10.235,10.235,0,0,0-1.491,3.258" fill="#263238"/>
            <path id="Trazado_879704" data-name="Trazado 879704" d="M192.831,392.917l19.631-155.453-6.278-36.137-37.023,1.963-4.61,186.756a2.852,2.852,0,0,0,2.305,2.875l21.561,3.324a3.857,3.857,0,0,0,4.414-3.328" fill="#263238"/>
            <path id="Trazado_879705" data-name="Trazado 879705" d="M211.9,242.677,247.6,278.014,196.23,290.508l3.657,25.92,69.538-9.464a21.883,21.883,0,0,0,15.135-34l-54.171-79.522-24.205,7.889Z" fill="#263238"/>
            <path id="Trazado_879706" data-name="Trazado 879706" d="M209.927,233.684a40.715,40.715,0,0,1,1.972,8.995,40.9,40.9,0,0,1-1.972-8.995" fill="#455a64"/>
            <path id="Trazado_879707" data-name="Trazado 879707" d="M204.725,293.773s.285-.106.848-.284l2.5-.776,9.581-2.914c8.319-2.5,20.268-6.1,34.864-10.486l-.09.332c-12.085-12.871-26.764-28.5-42.86-45.644l.442-.145c-.849,7.171-1.735,14.661-2.639,22.3-4.42,37.026-8.573,70.524-11.788,94.745-1.6,12.112-3,21.9-4.029,28.652-.571,3.369-.948,5.995-1.337,7.755q-.28,1.3-.431,2c-.1.45-.163.676-.163.676s.029-.235.112-.689c.088-.47.214-1.138.379-2.009.355-1.76.7-4.394,1.24-7.764.965-6.762,2.315-16.553,3.863-28.67,3.122-24.23,7.217-57.734,11.637-94.759.906-7.638,1.795-15.127,2.646-22.3l.065-.549.378.4,42.78,45.719.224.239-.314.093L217.72,290.017l-9.612,2.809-2.517.72c-.569.16-.866.227-.866.227" fill="#455a64"/>
            <path id="Trazado_879708" data-name="Trazado 879708" d="M193.168,389.984c-.143-.018,3.935-33.012,9.107-73.684s9.482-73.643,9.624-73.625-3.934,33-9.107,73.691-9.481,73.636-9.624,73.618" fill="#455a64"/>
            <path id="Trazado_879709" data-name="Trazado 879709" d="M206.1,217.234a11.575,11.575,0,0,1,.828,2.41c.437,1.509.981,3.612,1.492,5.955s.892,4.483,1.122,6.038a11.593,11.593,0,0,1,.251,2.535,13.158,13.158,0,0,1-.613-2.47c-.363-1.716-.794-3.747-1.269-5.992-.5-2.238-.956-4.264-1.34-5.975a13.2,13.2,0,0,1-.471-2.5" fill="#455a64"/>
            <path id="Trazado_879710" data-name="Trazado 879710" d="M208.4,214.188c-.056-.03.5-.487,1.45-.156a1.687,1.687,0,0,1,1.083,1.279,1.854,1.854,0,0,1-.809,1.893,1.8,1.8,0,0,1-2.052-.2,1.578,1.578,0,0,1,.205-2.507c.233-.13.385-.127.393-.1.048.067-.545.278-.7,1.078a1.159,1.159,0,0,0,.412,1.159,1.358,1.358,0,0,0,1.476.126,1.416,1.416,0,0,0,.606-1.37,1.343,1.343,0,0,0-.758-1.019,2.773,2.773,0,0,0-1.3-.181" fill="#455a64"/>
            <path id="Trazado_879711" data-name="Trazado 879711" d="M258.12,284.065c-.108.118-2.118-1.733-5.011-3.4-2.881-1.688-5.485-2.516-5.436-2.669a19.811,19.811,0,0,1,10.447,6.069" fill="#455a64"/>
            <path id="Trazado_879712" data-name="Trazado 879712" d="M180.947,95.361l-20.5,9.9,8.836,61.677-3.472,27.684a10.821,10.821,0,0,0,3.615,9.49l33.107-.653,23.186-12.747,10.648-1.8-4.36-21.071,1.953-29.893,24.233,12.938a8.44,8.44,0,0,0,6.09.726L308.71,140.12,306.4,123l-40.219,4.547-30.629-27.064-22.8-5.125-4.066-6.716H185.365l-1.632,1.224a4.882,4.882,0,0,0-1.685,2.311Z" fill="#73c8e2"/>
            <path id="Trazado_879713" data-name="Trazado 879713" d="M160.447,105.257a24.586,24.586,0,0,0-9.231,12.041c-2.343,7.276-7.63,36.706-7.63,36.706l-23.291-14.453L106.872,153.66l31.05,27.381a15.784,15.784,0,0,0,26.079-9.7l3.811-27.906Z" fill="#73c8e2"/>
            <path id="Trazado_879714" data-name="Trazado 879714" d="M230.389,193.438l-1.443-2.122-15.329,2.833-2.822,6.531Z" fill="#ffbe9d"/>
            <path id="Trazado_879715" data-name="Trazado 879715" d="M169.426,204.108c13.7,5.512,28.323,3.485,41.369-3.428,3.938-2.086,7.59-4.684,11.545-6.739s8.344-3.577,12.79-3.265,8.932,2.767,10.71,6.853,0,9.651-4.185,11.176l1.482,1.324c6.15-2.862,9.066-11.144,6.066-17.228-2.3-4.667-7.137-7.448-10.68-11.258-5.21-5.6-5.753-16.446-5.786-24.885" fill="#73c8e2"/>
            <path id="Trazado_879716" data-name="Trazado 879716" d="M199.475,107.284a4.8,4.8,0,0,1-1.009.058,3.833,3.833,0,0,0-2.428,1.117,5.683,5.683,0,0,0-1.21,3.911,13.006,13.006,0,0,0,1.111,5.245l.386.861-.755-.56a40.622,40.622,0,0,1-5.165-4.567,38.052,38.052,0,0,1-7.94-12.158,27.092,27.092,0,0,1-1.288-4.226,9.616,9.616,0,0,1-.231-1.6,46.568,46.568,0,0,0,1.86,5.692,40.1,40.1,0,0,0,7.976,11.936,42.342,42.342,0,0,0,5.082,4.534l-.369.3a11.955,11.955,0,0,1-.854-2.8,12.3,12.3,0,0,1-.229-2.655,5.911,5.911,0,0,1,1.408-4.116,3.865,3.865,0,0,1,2.636-1.069,4.736,4.736,0,0,1,1.019.1" fill="#263238"/>
            <path id="Trazado_879717" data-name="Trazado 879717" d="M200.7,107.284c1.687-.727,4.186.347,5.4,1.728.8.912,1.251,2.179,2.306,2.778s4.389,1.064,5.359.324c0,0,.592-2.848.9-4.028A89.462,89.462,0,0,0,216.949,94.4c-3.228-1.561-2.338-3.621-8.14-3.227a14.807,14.807,0,0,1,.2,8.181" fill="#73c8e2"/>
            <path id="Trazado_879718" data-name="Trazado 879718" d="M209.012,99.357c-.054-.015.211-.773.337-2.193a16.178,16.178,0,0,0-.721-5.926l-.075-.24.244-.014a10.01,10.01,0,0,1,4.281.386,6.538,6.538,0,0,1,1.976,1.424,7.99,7.99,0,0,0,2,1.387l.157.073-.018.176c-.258,2.429-.554,5.08-1.013,7.816-.3,1.788-.661,3.522-1.08,5.175s-.747,3.237-1.1,4.741l-.023.1-.066.042a3.19,3.19,0,0,1-1.713.417,10.542,10.542,0,0,1-3.1-.429,3.186,3.186,0,0,1-1.314-.716,13.718,13.718,0,0,1-1.541-2.114,5.407,5.407,0,0,0-1.575-1.432,5.6,5.6,0,0,0-2.878-.9,6.276,6.276,0,0,0-1.084.153,2.21,2.21,0,0,1,1.078-.305,5.479,5.479,0,0,1,3.032.8,5.582,5.582,0,0,1,1.705,1.473,14.342,14.342,0,0,0,1.531,2.025,4.909,4.909,0,0,0,2.6.9,9.576,9.576,0,0,0,1.531.082,2.851,2.851,0,0,0,1.438-.336l-.089.141c.341-1.511.665-3.126,1.075-4.768s.761-3.361,1.061-5.137c.456-2.718.76-5.359,1.034-7.783l.138.249a8.357,8.357,0,0,1-2.108-1.482,6.165,6.165,0,0,0-1.831-1.36,9.822,9.822,0,0,0-4.08-.416l.169-.254a15.459,15.459,0,0,1,.57,6.072,10.08,10.08,0,0,1-.342,1.629,2.283,2.283,0,0,1-.208.542" fill="#263238"/>
            <path id="Trazado_879719" data-name="Trazado 879719" d="M243.176,193.783c-.041,0,.045-.4-.009-1.148a6.972,6.972,0,0,0-.987-3.083A10.246,10.246,0,0,0,238.5,186a15.514,15.514,0,0,0-6.556-1.8c-2.543-.233-5.358-.1-8.388-.3a31.424,31.424,0,0,1-9.461-2,19.5,19.5,0,0,1-8.532-6.372,14.858,14.858,0,0,1-2.453-5.139,19.751,19.751,0,0,1-.562-5.827c.155-3.96,1.067-7.708,1.614-11.346a85.557,85.557,0,0,0,1-10.566,87.661,87.661,0,0,0-1.315-17.911,88.693,88.693,0,0,0-2.95-11.764c-.429-1.369-.815-2.414-1.065-3.126-.116-.335-.207-.6-.28-.814a1.25,1.25,0,0,1-.078-.284,1.192,1.192,0,0,1,.129.265c.084.206.192.468.326.795.284.7.7,1.737,1.16,3.1a82.037,82.037,0,0,1,3.12,11.763,86.064,86.064,0,0,1,1.433,17.991,84.378,84.378,0,0,1-.974,10.631c-.547,3.662-1.446,7.4-1.6,11.286a16.211,16.211,0,0,0,2.9,10.644,19.075,19.075,0,0,0,8.3,6.229,31.177,31.177,0,0,0,9.312,2.021c2.994.222,5.817.1,8.39.363a15.707,15.707,0,0,1,6.673,1.916,10.381,10.381,0,0,1,3.705,3.7,6.833,6.833,0,0,1,.914,3.179,4.121,4.121,0,0,1-.046.863,1.3,1.3,0,0,1-.049.29" fill="#263238"/>
            <path id="Trazado_879720" data-name="Trazado 879720" d="M228.218,175.541a10.1,10.1,0,0,1-1.155,1.194c-.38.378-.856.827-1.439,1.315s-1.22,1.077-1.988,1.649a54.5,54.5,0,0,1-5.533,3.826,56.167,56.167,0,0,1-15.159,6.348,54.473,54.473,0,0,1-6.608,1.258c-.947.147-1.813.193-2.57.261s-1.411.1-1.946.1a10.028,10.028,0,0,1-1.662-.015,10.126,10.126,0,0,1,1.65-.187c.531-.037,1.181-.09,1.931-.19s1.609-.167,2.546-.335a61.209,61.209,0,0,0,6.537-1.358,59.714,59.714,0,0,0,15.036-6.3,60.969,60.969,0,0,0,5.553-3.706c.778-.55,1.431-1.111,2.025-1.579s1.092-.89,1.491-1.243a10.171,10.171,0,0,1,1.291-1.044" fill="#263238"/>
            <path id="Trazado_879721" data-name="Trazado 879721" d="M221.774,142.694a2.222,2.222,0,0,1-.087.551c-.092.413-.208.929-.349,1.559a23.5,23.5,0,0,1-.661,2.442c-.3.939-.592,2.028-1.066,3.178q-.334.873-.7,1.822c-.248.632-.565,1.264-.861,1.932-.574,1.347-1.337,2.711-2.11,4.163a57.669,57.669,0,0,1-13.68,16.309c-1.295,1.014-2.506,2-3.733,2.8-.606.408-1.173.831-1.752,1.185l-1.673,1.005c-1.05.667-2.071,1.143-2.944,1.6a23.661,23.661,0,0,1-2.289,1.075l-1.475.615a2.245,2.245,0,0,1-.527.182,2.261,2.261,0,0,1,.486-.278l1.431-.7c.627-.29,1.388-.659,2.24-1.15s1.858-.977,2.889-1.66l1.643-1.027c.569-.36,1.126-.788,1.723-1.2,1.207-.808,2.4-1.8,3.675-2.818A59.627,59.627,0,0,0,215.524,158.1c.778-1.434,1.55-2.78,2.135-4.109.3-.659.627-1.282.883-1.9s.493-1.223.725-1.8c.493-1.134.807-2.208,1.132-3.134s.566-1.738.743-2.406c.179-.62.325-1.126.443-1.532a2.267,2.267,0,0,1,.189-.527" fill="#263238"/>
            <path id="Trazado_879722" data-name="Trazado 879722" d="M179.6,209.131a6.044,6.044,0,0,1-1.825-1.359,13.892,13.892,0,0,1-4.173-9.931,6.033,6.033,0,0,1,.3-2.253c.088.011-.013.87.063,2.244a15.645,15.645,0,0,0,4.07,9.684c.929,1.015,1.614,1.544,1.561,1.615" fill="#263238"/>
            <path id="Trazado_879723" data-name="Trazado 879723" d="M178.872,201.342c.149.039-.128,1.323.017,2.9.125,1.579.614,2.8.474,2.862a5.949,5.949,0,0,1-.491-5.763" fill="#263238"/>
            <path id="Trazado_879724" data-name="Trazado 879724" d="M169,165.539a1.688,1.688,0,0,1-.121-.469c-.068-.371-.149-.819-.248-1.36-.212-1.264-.495-2.956-.839-5.01-.7-4.231-1.7-10.07-2.9-16.5s-2.377-12.24-3.245-16.44c-.419-2.04-.765-3.721-1.022-4.976-.1-.54-.189-.988-.26-1.358a1.767,1.767,0,0,1-.056-.481,1.684,1.684,0,0,1,.159.458c.1.364.213.805.354,1.336.3,1.162.7,2.851,1.185,4.942.961,4.183,2.195,9.984,3.4,16.423s2.138,12.294,2.749,16.541c.305,2.124.536,3.846.676,5.038.06.546.109,1,.15,1.374a1.7,1.7,0,0,1,.018.484" fill="#263238"/>
            <path id="Trazado_879725" data-name="Trazado 879725" d="M233.009,165.539a1.776,1.776,0,0,1-.05-.495c-.012-.385-.026-.853-.043-1.42-.03-1.233-.035-3.017-.019-5.223.042-4.41.234-10.5.744-17.216s1.186-12.771,1.707-17.148c.27-2.127.491-3.877.656-5.18.083-.56.151-1.024.207-1.4a1.812,1.812,0,0,1,.107-.486,1.813,1.813,0,0,1,0,.5c-.03.384-.066.851-.109,1.416-.124,1.307-.29,3.063-.492,5.2-.427,4.386-1.047,10.443-1.553,17.147s-.76,12.781-.9,17.185c-.06,2.141-.109,3.9-.146,5.216-.022.566-.04,1.035-.055,1.419a1.82,1.82,0,0,1-.055.495" fill="#263238"/>
            <path id="Trazado_879726" data-name="Trazado 879726" d="M153.046,168.115c-.176.078-1.494-3.567-4.043-7.527-2.567-3.961-5.547-6.453-5.418-6.584a9.4,9.4,0,0,1,1.959,1.6,27,27,0,0,1,3.895,4.7,32.542,32.542,0,0,1,2.809,5.416,10.357,10.357,0,0,1,.8,2.4" fill="#263238"/>
            <path id="Trazado_879727" data-name="Trazado 879727" d="M154.766,163.769a18.718,18.718,0,0,1-1.121-1.947,15.653,15.653,0,0,0-3.457-4.046,22.056,22.056,0,0,0-4.576-2.788,12.983,12.983,0,0,1-2.027-.984,7.86,7.86,0,0,1,2.173.646,17.865,17.865,0,0,1,4.76,2.724,13.612,13.612,0,0,1,3.449,4.27,6.659,6.659,0,0,1,.8,2.125" fill="#263238"/>
            <path id="Trazado_879728" data-name="Trazado 879728" d="M165.066,139.717a1.492,1.492,0,0,1-.208.443,4.576,4.576,0,0,1-.916,1.068,6.087,6.087,0,0,1-4.9,1.321,9.486,9.486,0,0,1-6.155-4.352,20.631,20.631,0,0,1-2.03-4.04c-.279-.731-.561-1.466-.8-2.252a6.141,6.141,0,0,1-.281-2.512,3.423,3.423,0,0,1,1.218-2.27,2.88,2.88,0,0,1,2.469-.441,4.821,4.821,0,0,1,3.291,3.12,4.691,4.691,0,0,1-.408,4.089,5.092,5.092,0,0,1-2.854,2.187,4.562,4.562,0,0,1-2.962-.14,5.08,5.08,0,0,1-1.849-1.256,4.283,4.283,0,0,1-.779-1.174,1.369,1.369,0,0,1-.149-.466,6.891,6.891,0,0,0,1.073,1.5,5.05,5.05,0,0,0,1.806,1.124,4.3,4.3,0,0,0,2.752.061,4.744,4.744,0,0,0,2.593-2.059,4.261,4.261,0,0,0,.326-3.7,4.36,4.36,0,0,0-2.957-2.785,2.374,2.374,0,0,0-2.036.355,2.927,2.927,0,0,0-1.018,1.929c-.181,1.549.528,3.071,1.039,4.511a20.6,20.6,0,0,0,1.953,3.958,9.2,9.2,0,0,0,5.818,4.255,5.987,5.987,0,0,0,4.712-1.114,7.349,7.349,0,0,0,1.253-1.355" fill="#fafafa"/>
            <path id="Trazado_879729" data-name="Trazado 879729" d="M204.381,155.075a1.934,1.934,0,0,1-.272.237l-.836.646a22.147,22.147,0,0,1-3.443,2.164,10.589,10.589,0,0,1-2.8.932,7.314,7.314,0,0,1-3.509-.228,12.368,12.368,0,0,1-6.335-5.578A20.352,20.352,0,0,1,187.368,132a10.988,10.988,0,0,1,4.707-4.4,6.174,6.174,0,0,1,3.371-.428,4.657,4.657,0,0,1,3.022,1.711,4.909,4.909,0,0,1,.94,3.4,7.839,7.839,0,0,1-1.083,3.4,11.082,11.082,0,0,1-5.561,4.509,14.285,14.285,0,0,1-7.136.737,14.68,14.68,0,0,1-6.437-2.667,22,22,0,0,1-7.563-10.6,12.74,12.74,0,0,1-.919-6.07,6.1,6.1,0,0,1,1.164-2.763,4.289,4.289,0,0,1,2.442-1.591,5.351,5.351,0,0,1,5.037,1.74,5.732,5.732,0,0,1,1.216,4.794,7.61,7.61,0,0,1-2.052,4.038,9.775,9.775,0,0,1-3.382,2.215,15.4,15.4,0,0,1-6.352.96,36.863,36.863,0,0,1-4.042-.411l-1.043-.168a1.8,1.8,0,0,1-.352-.076,1.838,1.838,0,0,1,.36.023l1.048.117c.921.1,2.28.272,4.035.313a15.408,15.408,0,0,0,6.236-1.028,9.5,9.5,0,0,0,3.254-2.175,7.285,7.285,0,0,0,1.927-3.867,5.366,5.366,0,0,0-1.153-4.468,4.945,4.945,0,0,0-4.639-1.586,4.622,4.622,0,0,0-3.252,4,12.329,12.329,0,0,0,.92,5.838,21.577,21.577,0,0,0,7.407,10.347,14.18,14.18,0,0,0,6.216,2.568,13.785,13.785,0,0,0,6.874-.71,10.587,10.587,0,0,0,5.3-4.285,7.339,7.339,0,0,0,1.016-3.176,4.4,4.4,0,0,0-.831-3.057,4.15,4.15,0,0,0-2.7-1.525,5.68,5.68,0,0,0-3.1.388,10.541,10.541,0,0,0-4.5,4.2,19.6,19.6,0,0,0-3.049,11.1,19.815,19.815,0,0,0,2.776,9.7,12.111,12.111,0,0,0,6.111,5.493,8.266,8.266,0,0,0,6.136-.611,24.2,24.2,0,0,0,3.468-2.066l.865-.6a1.884,1.884,0,0,1,.3-.194" fill="#fafafa"/>
            <path id="Trazado_879730" data-name="Trazado 879730" d="M176.79,98.965a2.984,2.984,0,0,1-.318.9,14.185,14.185,0,0,1-1.283,2.25,16.476,16.476,0,0,1-14.823,7.073,14.212,14.212,0,0,1-2.556-.418,2.989,2.989,0,0,1-.9-.316c.022-.094,1.322.289,3.471.366a17.181,17.181,0,0,0,14.506-6.921c1.292-1.719,1.812-2.971,1.9-2.929" fill="#fafafa"/>
            <path id="Trazado_879731" data-name="Trazado 879731" d="M191.563,103.223a6.4,6.4,0,0,0-4.646,3.945c-.061-.009-.08-.4.116-.987a4.682,4.682,0,0,1,3.537-3c.614-.1.994-.017.993.045" fill="#fafafa"/>
            <path id="Trazado_879732" data-name="Trazado 879732" d="M212.713,109.1a2.291,2.291,0,0,1-.849-.391,6.927,6.927,0,0,1-1.88-1.73,6.794,6.794,0,0,1-1.386-3.546,3.383,3.383,0,0,1,.614-2.246,2.32,2.32,0,0,1,2.317-.979,2.573,2.573,0,0,1,1.818,1.747,2.407,2.407,0,0,1-.458,2.3,3.236,3.236,0,0,1-3.623.96,4.064,4.064,0,0,1-1.977-1.636,1.9,1.9,0,0,1-.373-.86c.041-.019.176.285.538.743a4.164,4.164,0,0,0,1.933,1.406,2.868,2.868,0,0,0,3.127-.912,1.925,1.925,0,0,0,.348-1.844,2.087,2.087,0,0,0-1.444-1.4,1.824,1.824,0,0,0-1.8.779,2.924,2.924,0,0,0-.542,1.916,6.685,6.685,0,0,0,1.206,3.353,10.431,10.431,0,0,0,2.43,2.336" fill="#fafafa"/>
            <path id="Trazado_879733" data-name="Trazado 879733" d="M216.7,97.427a9.235,9.235,0,0,0-7.27-2.984c-.014-.06.433-.24,1.205-.3a6.783,6.783,0,0,1,5.417,2.223c.508.584.7,1.027.648,1.06" fill="#fafafa"/>
            <path id="Trazado_879734" data-name="Trazado 879734" d="M244.2,109.067a.768.768,0,0,1-.2.123l-.6.314a25.992,25.992,0,0,1-2.4,1.021,28.949,28.949,0,0,1-9.42,1.77,13.359,13.359,0,0,1-3.2-.309,6.968,6.968,0,0,1-3.154-1.537,4.678,4.678,0,0,1-1.546-3.423,5.764,5.764,0,0,1,1.33-3.761,7.73,7.73,0,0,1,7.962-2.046,9.275,9.275,0,0,1,6.381,6.18,9.121,9.121,0,0,1-1.9,8.667,13.973,13.973,0,0,1-7.406,3.985,42.471,42.471,0,0,1-7.585.766,41.907,41.907,0,0,0-6.547.639,13.275,13.275,0,0,0-8.057,4.6,9.632,9.632,0,0,0-1.535,3.106.756.756,0,0,1,.032-.23,6.425,6.425,0,0,1,.159-.662,8.017,8.017,0,0,1,1.181-2.335,13.3,13.3,0,0,1,8.145-4.835,41.093,41.093,0,0,1,6.6-.71,42.72,42.72,0,0,0,7.5-.8,13.543,13.543,0,0,0,7.132-3.855,8.621,8.621,0,0,0,1.788-8.181,8.782,8.782,0,0,0-6.021-5.838,7.261,7.261,0,0,0-7.456,1.864,5.309,5.309,0,0,0-1.239,3.445,4.237,4.237,0,0,0,1.38,3.114,6.605,6.605,0,0,0,2.955,1.463,13.134,13.134,0,0,0,3.1.332,29.986,29.986,0,0,0,9.356-1.593c1.068-.361,1.878-.7,2.427-.926a6.549,6.549,0,0,1,.842-.341" fill="#fafafa"/>
            <path id="Trazado_879735" data-name="Trazado 879735" d="M219.253,148.334c-.084.038-.434-.838-1.345-2.009a10.287,10.287,0,0,0-10.22-3.841c-1.458.28-2.3.709-2.336.626a5.463,5.463,0,0,1,2.255-.986,9.891,9.891,0,0,1,10.6,3.983,5.446,5.446,0,0,1,1.049,2.227" fill="#fafafa"/>
            <path id="Trazado_879736" data-name="Trazado 879736" d="M230.934,155.894a4.9,4.9,0,0,1-1.368,2.021,8.378,8.378,0,0,1-10.963.869,4.9,4.9,0,0,1-1.67-1.779c.071-.063.645.681,1.878,1.476a8.523,8.523,0,0,0,10.5-.834c1.092-.979,1.542-1.8,1.621-1.753" fill="#fafafa"/>
            <path id="Trazado_879737" data-name="Trazado 879737" d="M233.974,136c-.044.075-.646-.289-1.709-.57a7.323,7.323,0,0,0-7.659,2.449c-.7.846-.982,1.492-1.061,1.456a3.481,3.481,0,0,1,.769-1.68,7.008,7.008,0,0,1,8.059-2.577,3.473,3.473,0,0,1,1.6.922" fill="#fafafa"/>
            <path id="Trazado_879738" data-name="Trazado 879738" d="M271.231,126.8a4.077,4.077,0,0,1,.183.742,5.377,5.377,0,0,1,.125.92,7.334,7.334,0,0,1,.035,1.269,12.687,12.687,0,0,1-2.865,7.452,13.184,13.184,0,0,1-4.312,3.554,13.355,13.355,0,0,1-6.247,1.434,16.8,16.8,0,0,1-12.845-6.357,10.053,10.053,0,0,1-1.81-3.464,6.566,6.566,0,0,1,.065-3.816,4.862,4.862,0,0,1,2.34-2.854,5.389,5.389,0,0,1,3.516-.416,5.976,5.976,0,0,1,2.973,1.577,6.846,6.846,0,0,1,1.631,2.712,9.086,9.086,0,0,1-.045,5.58,10.614,10.614,0,0,1-2.36,3.962,10.816,10.816,0,0,1-2.753,2.128,10.26,10.26,0,0,1-2.041.813,4,4,0,0,1-.751.141,14.876,14.876,0,0,0,2.694-1.131,10.791,10.791,0,0,0,4.86-6.024,8.765,8.765,0,0,0-.013-5.333,6.425,6.425,0,0,0-1.545-2.523,5.519,5.519,0,0,0-2.746-1.432,4.916,4.916,0,0,0-3.191.387,4.367,4.367,0,0,0-2.085,2.573,6.064,6.064,0,0,0-.049,3.519,9.577,9.577,0,0,0,1.722,3.283,16.413,16.413,0,0,0,12.438,6.2,12.733,12.733,0,0,0,10.267-4.74,12.746,12.746,0,0,0,2.95-7.231,18.455,18.455,0,0,0-.141-2.921" fill="#fafafa"/>
            <path id="Trazado_879739" data-name="Trazado 879739" d="M278.946,147.509a2.667,2.667,0,0,1-.608-.686,7.2,7.2,0,0,1-1.093-2.263,9.265,9.265,0,0,1-.151-3.725,34.049,34.049,0,0,1,1.015-4.415,31.3,31.3,0,0,1,3.578-7.381c.562-.885,1.037-1.585,1.376-2.063a3.143,3.143,0,0,1,.571-.713A25.289,25.289,0,0,1,282,129.229a36.782,36.782,0,0,0-3.4,7.343,39.387,39.387,0,0,0-1.038,4.332,9.451,9.451,0,0,0,.033,3.566,13.367,13.367,0,0,0,1.344,3.039" fill="#fafafa"/>
            <path id="Trazado_879740" data-name="Trazado 879740" d="M297.881,124.5a2.234,2.234,0,0,1,.3.716,12.794,12.794,0,0,1,.5,2.055,18.437,18.437,0,0,1-2.95,13.369,12.927,12.927,0,0,1-1.323,1.652c-.346.36-.549.546-.576.522-.07-.062.663-.883,1.59-2.375a20.312,20.312,0,0,0,2.9-13.115c-.213-1.744-.532-2.8-.443-2.824" fill="#fafafa"/>
            <path id="Trazado_879741" data-name="Trazado 879741" d="M232.449,171.264a1.781,1.781,0,0,1-.437-.224,11.508,11.508,0,0,0-1.221-.665,14.329,14.329,0,0,0-4.874-1.366,14.854,14.854,0,0,0-7.343,1.177,12.608,12.608,0,0,0-3.667,2.43,7.545,7.545,0,0,0-1.444,1.786,3.61,3.61,0,0,0-.5,2.2,2.615,2.615,0,0,0,1.068,1.878,2.136,2.136,0,0,0,2.038.094,3.583,3.583,0,0,0,1.855-3.513,7.1,7.1,0,0,0-3.708-6.014,7.306,7.306,0,0,0-4.9-.648,14.959,14.959,0,0,0-1.779.576,1.614,1.614,0,0,1,.414-.267,6.559,6.559,0,0,1,1.318-.507,7.319,7.319,0,0,1,5.113.519,7.447,7.447,0,0,1,4.019,6.333,5.184,5.184,0,0,1-.424,2.257,3.4,3.4,0,0,1-1.7,1.73,2.643,2.643,0,0,1-2.527-.126,3.12,3.12,0,0,1-1.3-2.249,4.12,4.12,0,0,1,.567-2.511,8.09,8.09,0,0,1,1.545-1.9,12.943,12.943,0,0,1,3.826-2.5,14.925,14.925,0,0,1,7.575-1.1,13.59,13.59,0,0,1,4.929,1.552,8.181,8.181,0,0,1,1.185.758,1.739,1.739,0,0,1,.379.311" fill="#fafafa"/>
            <path id="Trazado_879742" data-name="Trazado 879742" d="M236.066,179.537a6.627,6.627,0,0,1-1.21,2.295c-.788,1.189-1.524,2.087-1.644,2.008a6.626,6.626,0,0,1,1.21-2.3c.788-1.188,1.524-2.086,1.644-2.007" fill="#fafafa"/>
            <path id="Trazado_879743" data-name="Trazado 879743" d="M248.762,193.852c-.081.022-.22-.357-.568-.873a5.192,5.192,0,0,0-4.065-2.264c-.622-.023-1.018.058-1.042-.022-.02-.055.351-.271,1.03-.346a4.566,4.566,0,0,1,4.4,2.448c.295.616.307,1.046.249,1.057" fill="#fafafa"/>
            <path id="Trazado_879744" data-name="Trazado 879744" d="M207.456,188.754c.036.074-1.2.689-3.133,1.791a27.048,27.048,0,0,0-6.8,5.256,14.48,14.48,0,0,0-3.6,7.642,17.682,17.682,0,0,0,.056,3.565,2.928,2.928,0,0,1-.286-.935,9.49,9.49,0,0,1-.136-2.668,14.021,14.021,0,0,1,3.577-7.949,24.5,24.5,0,0,1,7.014-5.234c.995-.517,1.818-.9,2.393-1.14a3.411,3.411,0,0,1,.918-.328" fill="#fafafa"/>
            <path id="Trazado_879745" data-name="Trazado 879745" d="M222.148,193.636c-.032.039-.56-.329-1.09-1.2a6.68,6.68,0,0,1,.623-7.467c.667-.774,1.248-1.05,1.273-1,.056.073-.43.449-.982,1.229a7.176,7.176,0,0,0-.589,7.069c.414.862.832,1.313.765,1.376" fill="#fafafa"/>
            <path id="Trazado_879746" data-name="Trazado 879746" d="M199.182,175.52c-.024.018-.177-.226-.573-.579a4.154,4.154,0,0,0-2.083-.925,5.2,5.2,0,0,0-3.488.728,10.6,10.6,0,0,0-3.311,3.495c-.988,1.518-1.826,3.349-3.09,5.128a10.9,10.9,0,0,1-5.514,4.121,10.219,10.219,0,0,1-7.569-.44,10.827,10.827,0,0,1-5.566-5.934,6.453,6.453,0,0,1-.171-4.219,5.912,5.912,0,0,1,2.593-3.18,6.088,6.088,0,0,1,3.864-.885,6.374,6.374,0,0,1,3.432,1.633,8.4,8.4,0,0,1,2.714,6.286,10.385,10.385,0,0,1-1.867,5.711,11.59,11.59,0,0,1-3.616,3.4,14.364,14.364,0,0,1-3.435,1.494,15.24,15.24,0,0,1-2.311.489c-.268.039-.473.053-.611.064a.65.65,0,0,1-.21,0,6.087,6.087,0,0,1,.8-.168,18.866,18.866,0,0,0,2.268-.579,14.7,14.7,0,0,0,3.341-1.548,11.422,11.422,0,0,0,3.464-3.359,10.05,10.05,0,0,0,1.741-5.507,7.973,7.973,0,0,0-2.6-5.926,5.9,5.9,0,0,0-3.171-1.5,5.6,5.6,0,0,0-3.539.826,5.418,5.418,0,0,0-2.367,2.907,5.954,5.954,0,0,0,.169,3.881,10.357,10.357,0,0,0,5.292,5.648,9.754,9.754,0,0,0,7.2.446,10.5,10.5,0,0,0,5.314-3.919c1.246-1.719,2.106-3.542,3.131-5.075a10.787,10.787,0,0,1,3.472-3.546,5.373,5.373,0,0,1,3.669-.676,4.1,4.1,0,0,1,2.12,1.048,2.5,2.5,0,0,1,.5.656" fill="#fafafa"/>
            <path id="Trazado_879747" data-name="Trazado 879747" d="M199.516,191.1a4.845,4.845,0,0,1-1.613-1.275,11.013,11.013,0,0,1-2.768-9.281,4.847,4.847,0,0,1,.652-1.951c.085.029-.155.773-.287,2a12.229,12.229,0,0,0,2.679,8.986c.785.956,1.393,1.447,1.337,1.518" fill="#fafafa"/>
            <path id="Trazado_879748" data-name="Trazado 879748" d="M203.2,168.047c-.027.052-.705-.336-2.01-.848a23.973,23.973,0,0,0-14.4-1.078,19.424,19.424,0,0,0-4.8,1.8,3.2,3.2,0,0,0-1.588,1.9,1.807,1.807,0,0,0,1.035,2.012,1.08,1.08,0,0,0,1.054-.318,2.631,2.631,0,0,0,.6-1.116,9.254,9.254,0,0,0,.23-2.657,12.024,12.024,0,0,0-1.28-4.909,11.467,11.467,0,0,0-2.823-3.629,11.227,11.227,0,0,0-3.483-2,12.147,12.147,0,0,0-5.8-.577c-1.379.219-2.1.523-2.121.472a2.318,2.318,0,0,1,.517-.234,10.236,10.236,0,0,1,1.57-.438,11.865,11.865,0,0,1,5.951.429,11.448,11.448,0,0,1,3.64,2.02,11.792,11.792,0,0,1,2.973,3.742,12.392,12.392,0,0,1,1.361,5.1,9.613,9.613,0,0,1-.241,2.823,3.131,3.131,0,0,1-.73,1.342,1.6,1.6,0,0,1-1.56.45,1.976,1.976,0,0,1-1.187-1.076,2.516,2.516,0,0,1-.217-1.536,3.674,3.674,0,0,1,1.832-2.237,19.5,19.5,0,0,1,4.952-1.828,23.711,23.711,0,0,1,8.857-.323,22.318,22.318,0,0,1,5.736,1.68,13.937,13.937,0,0,1,1.451.733,2.275,2.275,0,0,1,.48.3" fill="#fafafa"/>
            <path id="Trazado_879749" data-name="Trazado 879749" d="M125.267,170.923c-.032-.043.621-.483,1.607-1.482a13.938,13.938,0,0,0,3.143-4.961,10.868,10.868,0,0,0-.252-8.462,10.689,10.689,0,0,0-3.192-3.94,8.99,8.99,0,0,0-5.036-1.89,5.8,5.8,0,0,0-2.646.553,3.34,3.34,0,0,0-1.759,1.784,2.572,2.572,0,0,0,.358,2.321,3.782,3.782,0,0,0,1.9,1.408,5.165,5.165,0,0,0,4.329-.735,7.332,7.332,0,0,0,2.625-2.98,15.052,15.052,0,0,0,1.252-5.744c.028-.657.051-1.194.069-1.622a2.374,2.374,0,0,1,.049-.568,2.33,2.33,0,0,1,.056.567c.017.372.035.921.028,1.63a14.458,14.458,0,0,1-1.122,5.9,7.638,7.638,0,0,1-2.722,3.182,5.59,5.59,0,0,1-4.711.831,4.24,4.24,0,0,1-2.16-1.584,3.073,3.073,0,0,1-.431-2.77,3.84,3.84,0,0,1,2.015-2.082,6.294,6.294,0,0,1,2.888-.608,9.454,9.454,0,0,1,5.33,2,11.1,11.1,0,0,1,3.316,4.142,10.452,10.452,0,0,1,.987,4.7,12.139,12.139,0,0,1-.824,4.1,13.5,13.5,0,0,1-3.346,4.977,10.227,10.227,0,0,1-1.264,1.037,2.368,2.368,0,0,1-.485.3" fill="#fafafa"/>
            <path id="Trazado_879750" data-name="Trazado 879750" d="M145.992,185.8a4.175,4.175,0,0,1-.782-.831,16.335,16.335,0,0,1-1.712-2.6,18.46,18.46,0,0,1,1.29-19.57,16.3,16.3,0,0,1,2.038-2.354,4.171,4.171,0,0,1,.885-.721c.074.073-1.175,1.13-2.62,3.284a19,19,0,0,0-1.266,19.193c1.15,2.325,2.25,3.538,2.167,3.6" fill="#fafafa"/>
            <path id="Trazado_879751" data-name="Trazado 879751" d="M165.536,164.052c-.1.034-.509-1.5-1.749-3.711a20.546,20.546,0,0,0-15.805-10.453c-2.516-.277-4.093-.057-4.1-.158a4.055,4.055,0,0,1,1.1-.188,17.373,17.373,0,0,1,3.038-.021,19.8,19.8,0,0,1,16.094,10.644,17.429,17.429,0,0,1,1.17,2.8,4.065,4.065,0,0,1,.255,1.083" fill="#fafafa"/>
            <g id="Grupo_1101779" data-name="Grupo 1101779" opacity="0.3">
              <g id="Grupo_1101778" data-name="Grupo 1101778">
                <g id="Grupo_1101777" data-name="Grupo 1101777" clip-path="url(#clip-path-12)">
                  <path id="Trazado_879752" data-name="Trazado 879752" d="M192.861,192.04c-.953.408-.865,1.932-.065,2.591a4.279,4.279,0,0,0,2.97.635,38.6,38.6,0,0,0,29.627-16.64c-9.041,7.417-20.9,10.218-32.3,12.8"/>
                </g>
              </g>
            </g>
            <g id="Grupo_1101782" data-name="Grupo 1101782" opacity="0.3">
              <g id="Grupo_1101781" data-name="Grupo 1101781">
                <g id="Grupo_1101780" data-name="Grupo 1101780" clip-path="url(#clip-path-13)">
                  <path id="Trazado_879753" data-name="Trazado 879753" d="M191.077,181.837c-.985-1.509-.322-3.627.95-4.9a16.494,16.494,0,0,1,4.622-2.751,29.216,29.216,0,0,0,13.475-13.836c1.816-3.938,3.2-8.771,7.219-10.389a39.054,39.054,0,0,1-25.709,30.66"/>
                </g>
              </g>
            </g>
            <g id="Grupo_1101785" data-name="Grupo 1101785" opacity="0.3">
              <g id="Grupo_1101784" data-name="Grupo 1101784">
                <g id="Grupo_1101783" data-name="Grupo 1101783" clip-path="url(#clip-path-14)">
                  <path id="Trazado_879754" data-name="Trazado 879754" d="M162.687,129.989a101.581,101.581,0,0,1-2.3,32.683,27.958,27.958,0,0,0-1.116,6.887,9.152,9.152,0,0,0,3.325,6.465c1.662-3.823,1.692-7.512,2.391-11.634.63-3.715,1.686-12.381,1.688-12.508.147-7.587-1.644-14.082-4.556-20.913"/>
                </g>
              </g>
            </g>
            <g id="Grupo_1101788" data-name="Grupo 1101788" opacity="0.3">
              <g id="Grupo_1101787" data-name="Grupo 1101787">
                <g id="Grupo_1101786" data-name="Grupo 1101786" clip-path="url(#clip-path-15)">
                  <path id="Trazado_879755" data-name="Trazado 879755" d="M181.537,97.16A39.851,39.851,0,0,0,192.854,118.4c2.212,2.154,4.961,4.146,8.047,4.047a18.83,18.83,0,0,1-1.544-11.788,48.783,48.783,0,0,0,8.236,4.481,16.375,16.375,0,0,0,9.2,1.045q.96-8.309,1.922-16.618a3.069,3.069,0,0,0-.173-1.856,1.062,1.062,0,0,0-1.584-.379,1.523,1.523,0,0,0-.311.728c-1.128,4.857-1.754,9.2-2.881,14.056-.808.8-3.3.472-4.94-.134-1.429-.526-1.977-1.709-2.923-2.9s-.778-.985-2.18-1.58c-2.576-1.093-7.527-.221-8.606,2.094s-.262,5.362.456,7.634A34.641,34.641,0,0,1,180.986,96.99"/>
                </g>
              </g>
            </g>
            <g id="Grupo_1101791" data-name="Grupo 1101791" opacity="0.3">
              <g id="Grupo_1101790" data-name="Grupo 1101790">
                <g id="Grupo_1101789" data-name="Grupo 1101789" clip-path="url(#clip-path-16)">
                  <path id="Trazado_879756" data-name="Trazado 879756" d="M236.066,120.614c-.2.4,6.227,22.08,6.227,22.08l-8.334-4.749Z"/>
                </g>
              </g>
            </g>
            <path id="Trazado_879757" data-name="Trazado 879757" d="M184.3,57.714V92.231a8.37,8.37,0,0,0,1.967,5.39,25.276,25.276,0,0,0,6.931,5.741l6.963,3.921,5.759-5.141a8.378,8.378,0,0,0,2.789-5.918c.1-2.515.1-5.048.1-5.048s9.758-.7,10.674-10.323c.431-4.531.568-13.81.592-22.362a18.718,18.718,0,0,0-17.178-18.7l-.275-.023A17.887,17.887,0,0,0,184.3,57.714" fill="#ffbe9d"/>
            <path id="Trazado_879758" data-name="Trazado 879758" d="M208.809,91.176a23.346,23.346,0,0,1-12.235-4.746s2.525,7.3,12.209,7.229Z" fill="#eb996e"/>
            <path id="Trazado_879759" data-name="Trazado 879759" d="M217.227,64.677a1.38,1.38,0,0,1-1.441,1.278,1.32,1.32,0,0,1-1.315-1.358,1.38,1.38,0,0,1,1.439-1.279,1.321,1.321,0,0,1,1.317,1.359" fill="#263238"/>
            <path id="Trazado_879760" data-name="Trazado 879760" d="M217.616,62.374c-.185.165-1.164-.692-2.644-.811-1.478-.14-2.627.532-2.772.338-.073-.087.128-.4.629-.7a3.793,3.793,0,0,1,2.238-.492,3.638,3.638,0,0,1,2.086.87c.426.387.554.724.463.8" fill="#263238"/>
            <path id="Trazado_879761" data-name="Trazado 879761" d="M203.265,63.975a1.381,1.381,0,0,1-1.441,1.279,1.321,1.321,0,0,1-1.316-1.358,1.382,1.382,0,0,1,1.441-1.279,1.321,1.321,0,0,1,1.316,1.358" fill="#263238"/>
            <path id="Trazado_879762" data-name="Trazado 879762" d="M203.044,61.446c-.186.165-1.165-.692-2.645-.811-1.477-.139-2.626.532-2.772.337-.072-.086.127-.4.63-.7a3.791,3.791,0,0,1,2.237-.492,3.641,3.641,0,0,1,2.087.87c.425.386.553.724.463.8" fill="#263238"/>
            <path id="Trazado_879763" data-name="Trazado 879763" d="M207.507,72.868a9.789,9.789,0,0,1,2.44-.235c.381-.008.745-.053.83-.306a1.933,1.933,0,0,0-.159-1.141q-.42-1.416-.88-2.971c-1.213-4.226-2.058-7.689-1.887-7.736s1.292,3.34,2.505,7.566c.29,1.042.568,2.034.831,2.984a2.192,2.192,0,0,1,.074,1.5.954.954,0,0,1-.667.5,2.54,2.54,0,0,1-.65.036,9.627,9.627,0,0,1-2.437-.2" fill="#263238"/>
            <path id="Trazado_879764" data-name="Trazado 879764" d="M203.066,73.532c.242.006.112,1.613,1.393,2.867s3.006,1.219,3,1.445c.014.1-.408.28-1.132.24a4.015,4.015,0,0,1-2.512-1.115,3.5,3.5,0,0,1-1.065-2.4c-.005-.676.207-1.059.316-1.041" fill="#263238"/>
            <path id="Trazado_879765" data-name="Trazado 879765" d="M203.906,55.677c-.179.39-1.642.077-3.4.143-1.756.03-3.2.423-3.4.043-.088-.182.187-.54.786-.883a5.9,5.9,0,0,1,5.175-.141c.617.309.911.652.833.838" fill="#263238"/>
            <path id="Trazado_879766" data-name="Trazado 879766" d="M217.427,58.045c-.288.315-1.279-.119-2.5-.237-1.22-.16-2.283.039-2.493-.333-.091-.179.1-.5.581-.783a3.642,3.642,0,0,1,4.026.459c.4.381.518.739.39.894" fill="#263238"/>
            <path id="Trazado_879767" data-name="Trazado 879767" d="M195.634,48.018l-.056.037a7.6,7.6,0,0,0-3.222,4.667c-.015.067-.03.131-.043.192-.6,2.716-.768,5.517-1.4,8.227s-.514,4.781-3.229,5.392A3.615,3.615,0,0,1,183.906,65a2.352,2.352,0,0,1-.238-1.287c.035-6.676-1.307-9.269-.721-16.2a5.868,5.868,0,0,1,2.821-4.559c1.538-.92,3.4-1.853,4.952-.956s3.391,4.093,4.537,5.477" fill="#263238"/>
            <path id="Trazado_879768" data-name="Trazado 879768" d="M187.188,62.341c-.158-.084-6.456-2.5-6.791,4.1s6.363,5.577,6.384,5.388.407-9.486.407-9.486" fill="#ffbe9d"/>
            <path id="Trazado_879769" data-name="Trazado 879769" d="M184.891,69.223c-.028-.022-.119.075-.318.154a1.15,1.15,0,0,1-.861-.026,2.849,2.849,0,0,1-1.187-2.62,3.794,3.794,0,0,1,.4-1.631,1.331,1.331,0,0,1,.91-.839.586.586,0,0,1,.663.35c.079.189.031.319.065.332.018.017.147-.1.108-.379a.738.738,0,0,0-.239-.427.868.868,0,0,0-.627-.2,1.618,1.618,0,0,0-1.254.963,3.911,3.911,0,0,0-.492,1.82,2.99,2.99,0,0,0,1.533,2.936,1.235,1.235,0,0,0,1.061-.121c.213-.153.255-.3.233-.312" fill="#eb996e"/>
            <path id="Trazado_879770" data-name="Trazado 879770" d="M190.412,42.991c-1.4-2.769,3.352-6.184,6.687-6.94s7.485,1.183,10.631,2.524c1.985.846,3.94,1.958,6.1,2.048a14.607,14.607,0,0,0,4.263-.719,10.689,10.689,0,0,1,4.281-.483,3.985,3.985,0,0,1,3.284,2.485,2.5,2.5,0,0,1-1.943,3.224,3.244,3.244,0,1,1,.367,6.064c.995-.632,2.333.659,2.121,1.819a3.42,3.42,0,0,1-2.458,2.306c-2.846.979-6.016.329-8.779-.863s-5.276-2.9-8.009-4.161-7.3-3.495-10.211-2.731c-2.144.561-3.8,2.95-4.931,2.3a4.04,4.04,0,0,1-1.839-3.134,11.731,11.731,0,0,1,.44-3.738" fill="#263238"/>
            <path id="Trazado_879771" data-name="Trazado 879771" d="M224.522,45.014c-.052-.037-.38.459-1.151,1.169a9.113,9.113,0,0,1-3.854,2.053,8.376,8.376,0,0,1-6.259-.774c-2.157-1.188-3.907-3.355-5.956-5.43a13.709,13.709,0,0,0-7.108-4.167,7.613,7.613,0,0,0-6.477,1.659,5.77,5.77,0,0,0-1.847,4.133,4.465,4.465,0,0,0,.184,1.234c.1.269.161.4.182.4a10.6,10.6,0,0,1-.112-1.621,5.687,5.687,0,0,1,1.9-3.8,7.222,7.222,0,0,1,6.059-1.41,13.372,13.372,0,0,1,6.754,4.039c2.012,2.028,3.817,4.253,6.127,5.494a8.986,8.986,0,0,0,10.581-1.623,6.17,6.17,0,0,0,.772-.97c.151-.239.221-.37.2-.382" fill="#455a64"/>
            <path id="Trazado_879772" data-name="Trazado 879772" d="M185.535,61.915c.022.025.3-.157.591-.659a4.447,4.447,0,0,0,.526-2.36c.029-2.134-1.658-4.567-1.654-7.517a6.637,6.637,0,0,1,1.054-3.87,5.058,5.058,0,0,1,2.622-1.913,4.317,4.317,0,0,1,2.224-.116c.522.128.8.275.825.224.018-.026-.214-.252-.752-.467a4.11,4.11,0,0,0-2.42-.085,5.326,5.326,0,0,0-2.99,2.009,7,7,0,0,0-1.216,4.226,12.049,12.049,0,0,0,.926,4.255,12.542,12.542,0,0,1,.92,3.28,5.087,5.087,0,0,1-.656,2.993" fill="#455a64"/>
          </g>
        </g>
        <g id="Grupo_1101795" data-name="Grupo 1101795">
          <g id="Grupo_1101794" data-name="Grupo 1101794" clip-path="url(#clip-path-2)">
            <path id="Trazado_879773" data-name="Trazado 879773" d="M212.7,252.629s-.5.022-1.488.038l-4.366.061c-3.838.062-9.5.208-16.778.565-7.279.379-16.179,1.02-26.466,2.194-5.14.618-10.631,1.324-16.422,2.286-5.8.926-11.9,2.08-18.247,3.526s-12.959,3.171-19.717,5.376a131.91,131.91,0,0,0-20.447,8.436,66.816,66.816,0,0,0-9.806,6.263,31.355,31.355,0,0,0-8.028,8.783c-.243.442-.506.876-.736,1.325l-.566,1.411-.284.706c-.078.241-.123.492-.187.738l-.357,1.485a14.917,14.917,0,0,0,.3,6.1c.979,4.055,3.654,7.547,6.72,10.487,6.266,5.884,14.257,9.98,22.543,13.415a184.877,184.877,0,0,0,26.266,8.309,345.555,345.555,0,0,0,57.336,8.443,455.323,455.323,0,0,0,58.01.227,364.993,364.993,0,0,0,53.556-6.988,226.736,226.736,0,0,0,24.283-6.549,120.881,120.881,0,0,0,21.706-9.456,59.427,59.427,0,0,0,9.151-6.519,26.476,26.476,0,0,0,6.626-8.435l.492-1.221a6.447,6.447,0,0,0,.423-1.234l.305-1.265c.046-.211.112-.418.142-.631l.052-.644a12.635,12.635,0,0,0-.376-5.044,17.922,17.922,0,0,0-2.115-4.515,27.685,27.685,0,0,0-3.1-3.8,46.675,46.675,0,0,0-7.32-6.033,77.461,77.461,0,0,0-7.758-4.626,134.5,134.5,0,0,0-15.127-6.733,227.409,227.409,0,0,0-25.358-7.818c-7.071-1.768-12.623-2.88-16.392-3.6-1.881-.375-3.325-.616-4.291-.8s-1.461-.283-1.461-.283,1.995.293,5.772.981,9.337,1.769,16.421,3.508a224.644,224.644,0,0,1,25.412,7.743A134.129,134.129,0,0,1,336.2,275.55a77.589,77.589,0,0,1,7.8,4.629,47.085,47.085,0,0,1,7.388,6.067,28.111,28.111,0,0,1,3.147,3.852,18.27,18.27,0,0,1,2.169,4.615,13,13,0,0,1,.4,5.194l-.053.661c-.03.218-.1.431-.144.648l-.311,1.3a6.648,6.648,0,0,1-.431,1.265l-.5,1.249a26.852,26.852,0,0,1-6.713,8.577,59.82,59.82,0,0,1-9.212,6.581,121.083,121.083,0,0,1-21.777,9.516,226.685,226.685,0,0,1-24.329,6.585,364.473,364.473,0,0,1-53.625,7.029,454.5,454.5,0,0,1-58.077-.218,345.259,345.259,0,0,1-57.421-8.467,185.162,185.162,0,0,1-26.334-8.344c-8.316-3.455-16.344-7.567-22.686-13.529-3.1-2.98-5.834-6.537-6.843-10.717a15.38,15.38,0,0,1-.3-6.3l.368-1.529c.066-.253.114-.512.194-.76l.292-.725.582-1.447c.236-.46.5-.9.754-1.355a31.756,31.756,0,0,1,8.15-8.9,67.09,67.09,0,0,1,9.879-6.294,132,132,0,0,1,20.525-8.437c6.776-2.2,13.4-3.919,19.76-5.353s12.471-2.58,18.275-3.494c5.8-.951,11.3-1.644,16.442-2.248,10.3-1.148,19.205-1.76,26.489-2.107,7.285-.327,12.948-.44,16.787-.468l4.367-.009c.984,0,1.488.015,1.488.015" fill="#01570b"/>
            <path id="Trazado_879774" data-name="Trazado 879774" d="M130.977,176.863s-.568.127-1.682.349-2.774.534-4.941,1c-4.336.9-10.726,2.293-18.842,4.511a193.211,193.211,0,0,0-28.866,10.2c-2.713,1.246-5.487,2.611-8.259,4.186a77.425,77.425,0,0,0-8.289,5.317,45.587,45.587,0,0,0-7.652,7.033,24.1,24.1,0,0,0-5.188,9.512,17.469,17.469,0,0,0,.823,11.2A28.946,28.946,0,0,0,55,239.855c5.918,5.678,13.431,9.978,21.425,13.678,16.106,7.318,34.5,12.226,54.022,15.89a453.539,453.539,0,0,0,61.976,6.836,534.066,534.066,0,0,0,66.944-1.193c22.869-1.9,45.115-5.263,66.05-10.762A198.026,198.026,0,0,0,355.5,253.975,102.885,102.885,0,0,0,369.1,246.72a51.759,51.759,0,0,0,11.45-9.659c3.189-3.728,5.541-8.3,5.677-13.125a11.342,11.342,0,0,0-.062-1.787,11.755,11.755,0,0,0-.189-1.771l-.39-1.737a11.924,11.924,0,0,0-.57-1.678,25.035,25.035,0,0,0-3.431-6.132,47.058,47.058,0,0,0-10.144-9.371,92.058,92.058,0,0,0-11.612-6.788,164.176,164.176,0,0,0-23.783-9.335c-7.833-2.451-15.476-4.393-22.817-6.019a439.656,439.656,0,0,0-70.609-9.007c-8.4-.436-14.94-.455-19.369-.567l-5.039-.11c-1.135-.027-1.717-.055-1.717-.055s.582-.008,1.717,0l5.04.058c4.431.079,10.968.065,19.377.47a434.653,434.653,0,0,1,70.679,8.849c7.352,1.616,15.008,3.55,22.858,6a164.2,164.2,0,0,1,23.855,9.332,92.391,92.391,0,0,1,11.676,6.81,47.429,47.429,0,0,1,10.252,9.458,25.513,25.513,0,0,1,3.5,6.246,12.365,12.365,0,0,1,.583,1.718l.4,1.78a12.138,12.138,0,0,1,.2,1.819,11.85,11.85,0,0,1,.065,1.836,18.623,18.623,0,0,1-1.735,7.154,26.562,26.562,0,0,1-4.045,6.263,52.21,52.21,0,0,1-11.552,9.761,103.432,103.432,0,0,1-13.652,7.3A198.321,198.321,0,0,1,325.551,264.8c-20.972,5.516-43.244,8.88-66.138,10.788a533.164,533.164,0,0,1-67.009,1.184,452.889,452.889,0,0,1-62.041-6.874c-19.545-3.683-37.964-8.611-54.114-15.969-8.017-3.722-15.559-8.045-21.525-13.782a29.338,29.338,0,0,1-7-9.825,17.85,17.85,0,0,1-.823-11.436,24.442,24.442,0,0,1,5.278-9.647,45.875,45.875,0,0,1,7.721-7.073,77.922,77.922,0,0,1,8.334-5.323c2.785-1.574,5.569-2.937,8.29-4.179a192.111,192.111,0,0,1,28.934-10.135c8.132-2.19,14.531-3.548,18.875-4.418s6.644-1.245,6.644-1.245" fill="#01570b"/>
            <path id="Trazado_879775" data-name="Trazado 879775" d="M166.031,327.769l-4.988.787c-3.268.525-8.082,1.352-14.224,2.7a181.049,181.049,0,0,0-22.032,6.211,102.649,102.649,0,0,0-13.1,5.691,57.206,57.206,0,0,0-6.647,4.064,34.614,34.614,0,0,0-6.111,5.441,19.857,19.857,0,0,0-2.413,3.479,13.734,13.734,0,0,0-1.49,4.044c-.057.36-.142.717-.176,1.081l-.064,1.1c.006.735.093,1.474.159,2.213a22.2,22.2,0,0,0,.574,2.169l.423,1.051.213.527.281.5a24.724,24.724,0,0,0,6.008,7.071A49.5,49.5,0,0,0,110.5,381.3a106.444,106.444,0,0,0,18.855,7.871,195.9,195.9,0,0,0,21.021,5.374,313.307,313.307,0,0,0,46.253,5.528,376.7,376.7,0,0,0,50.017-.87,266.552,266.552,0,0,0,49.266-8.491,124.159,124.159,0,0,0,22.2-8.457,55.456,55.456,0,0,0,9.656-6.237c.763-.567,1.4-1.268,2.108-1.894.688-.642,1.272-1.381,1.911-2.064a18.4,18.4,0,0,0,2.844-4.754,12.751,12.751,0,0,0-.441-10.545,25.317,25.317,0,0,0-6.888-8.019c-5.506-4.38-11.764-7.327-17.874-9.782a150.689,150.689,0,0,0-18.194-5.827c-5.939-1.534-11.707-2.74-17.241-3.712a341.3,341.3,0,0,0-52.97-4.846l-19.528-.108s6.953-.088,19.53-.014a338.062,338.062,0,0,1,53.006,4.75c5.541.967,11.315,2.167,17.263,3.7a151.036,151.036,0,0,1,18.23,5.82c6.126,2.456,12.4,5.4,17.95,9.809a25.582,25.582,0,0,1,6.969,8.109,13.039,13.039,0,0,1,.456,10.774,18.7,18.7,0,0,1-2.887,4.833c-.645.691-1.237,1.44-1.931,2.088-.709.632-1.357,1.341-2.125,1.911a55.754,55.754,0,0,1-9.707,6.277A124.341,124.341,0,0,1,296,391.005a266.464,266.464,0,0,1-49.323,8.507,376.465,376.465,0,0,1-50.059.865,312.951,312.951,0,0,1-46.295-5.552,195.883,195.883,0,0,1-21.048-5.394,106.72,106.72,0,0,1-18.9-7.906,49.715,49.715,0,0,1-8.093-5.442,24.951,24.951,0,0,1-6.061-7.151l-.284-.5-.215-.536-.429-1.069a22.073,22.073,0,0,1-.582-2.208c-.068-.753-.155-1.507-.16-2.256l.067-1.121c.035-.37.122-.734.18-1.1a13.991,13.991,0,0,1,1.518-4.107,20.1,20.1,0,0,1,2.444-3.514,34.743,34.743,0,0,1,6.157-5.469,57.213,57.213,0,0,1,6.676-4.068,102.454,102.454,0,0,1,13.133-5.68,179.659,179.659,0,0,1,22.065-6.166c6.149-1.326,10.968-2.135,14.24-2.639s5-.725,5-.725" fill="#01570b"/>
            <path id="Trazado_879776" data-name="Trazado 879776" d="M296.611,419.214a10.274,10.274,0,0,0-.831-3.643c-.93-2.293-3.411-5.143-7.322-7.722-7.859-5.172-20.992-9.515-37.528-12.171a228.51,228.51,0,0,0-27.282-2.671,261.922,261.922,0,0,0-31.455.578c-5.526.438-11.175,1.075-16.9,1.986a161.515,161.515,0,0,0-17.364,3.663c-2.912.784-5.817,1.691-8.694,2.748a69.969,69.969,0,0,0-8.485,3.7A34.331,34.331,0,0,0,133.053,411c-2.269,2.121-4.119,4.993-4.163,8.2.036,3.21,1.885,6.085,4.154,8.209a34.3,34.3,0,0,0,7.69,5.328,69.941,69.941,0,0,0,8.487,3.7c2.878,1.058,5.785,1.965,8.7,2.75a161.345,161.345,0,0,0,17.368,3.663c5.731.912,11.382,1.549,16.908,1.987a261.968,261.968,0,0,0,31.459.578,228.572,228.572,0,0,0,27.284-2.672c16.534-2.656,29.666-7,37.524-12.172,3.91-2.578,6.392-5.428,7.32-7.721a10.268,10.268,0,0,0,.831-3.642c-.011.151-.029.4-.067.955a5.2,5.2,0,0,1-.207,1.159,7.588,7.588,0,0,1-.518,1.545c-.921,2.308-3.4,5.178-7.314,7.772-7.862,5.2-21,9.572-37.547,12.249a227.915,227.915,0,0,1-27.3,2.7,261.839,261.839,0,0,1-31.484-.56c-5.53-.435-11.184-1.071-16.923-1.981a161.385,161.385,0,0,1-17.389-3.664c-2.916-.785-5.829-1.693-8.714-2.753a69.976,69.976,0,0,1-8.511-3.711,34.472,34.472,0,0,1-7.741-5.361,15.178,15.178,0,0,1-2.947-3.745,8.985,8.985,0,0,1,.008-9.224,15.15,15.15,0,0,1,2.951-3.741,34.494,34.494,0,0,1,7.738-5.357,70.3,70.3,0,0,1,8.512-3.709c2.883-1.059,5.794-1.966,8.71-2.751a161.286,161.286,0,0,1,17.387-3.662c5.736-.91,11.391-1.546,16.919-1.981a261.766,261.766,0,0,1,31.48-.56,227.945,227.945,0,0,1,27.3,2.7c16.545,2.676,29.687,7.045,37.549,12.249,3.912,2.594,6.394,5.464,7.315,7.772a7.618,7.618,0,0,1,.519,1.545,5.217,5.217,0,0,1,.207,1.16c.038.55.056.8.067.955" fill="#01570b"/>
            <path id="Trazado_879777" data-name="Trazado 879777" d="M75.675,264.114a3.193,3.193,0,1,1-3.193-3.193,3.192,3.192,0,0,1,3.193,3.193" fill="#01570b"/>
            <path id="Trazado_879778" data-name="Trazado 879778" d="M364.411,266.277a3.193,3.193,0,1,1-3.192-3.192,3.193,3.193,0,0,1,3.192,3.192" fill="#01570b"/>
            <path id="Trazado_879779" data-name="Trazado 879779" d="M234.193,383.918A3.193,3.193,0,1,1,231,380.725a3.193,3.193,0,0,1,3.194,3.193" fill="#01570b"/>
            <path id="Trazado_879780" data-name="Trazado 879780" d="M137.242,301.874a1.6,1.6,0,1,1-1.6-1.6,1.6,1.6,0,0,1,1.6,1.6" fill="#01570b"/>
            <path id="Trazado_879781" data-name="Trazado 879781" d="M335.756,340.559a1.6,1.6,0,1,1-1.6-1.6,1.6,1.6,0,0,1,1.6,1.6" fill="#01570b"/>
            <path id="Trazado_879782" data-name="Trazado 879782" d="M209.739,414.389a1.6,1.6,0,1,1-1.6-1.6,1.6,1.6,0,0,1,1.6,1.6" fill="#01570b"/>
            <path id="Trazado_879783" data-name="Trazado 879783" d="M127.219,134.916a.8.8,0,1,1-.8-.8.8.8,0,0,1,.8.8" fill="#01570b"/>
          </g>
        </g>
        <g id="Grupo_1101806" data-name="Grupo 1101806">
          <g id="Grupo_1101805" data-name="Grupo 1101805" clip-path="url(#clip-path-18)">
            <path id="Trazado_879784" data-name="Trazado 879784" d="M270.341,257.717c-38.771,10.265-76.141,9.486-116.871,0l-4.756-74.452c42.087,8.194,84.339,7.156,121.627-1.761Z" fill="#01570b"/>
            <g id="Grupo_1101798" data-name="Grupo 1101798" opacity="0.8">
              <g id="Grupo_1101797" data-name="Grupo 1101797">
                <g id="Grupo_1101796" data-name="Grupo 1101796" clip-path="url(#clip-path-19)">
                  <path id="Trazado_879785" data-name="Trazado 879785" d="M270.341,257.717c-38.771,10.265-76.141,9.486-116.871,0l-4.756-74.452c42.087,8.194,84.339,7.156,121.627-1.761Z" fill="#3ba935"/>
                </g>
              </g>
            </g>
            <path id="Trazado_879786" data-name="Trazado 879786" d="M264.331,246.4a1.062,1.062,0,0,1-.242.122l-.732.311c-.65.257-1.593.679-2.843,1.125a106.861,106.861,0,0,1-10.73,3.367,140.245,140.245,0,0,1-36.784,4.2,214.647,214.647,0,0,1-36.86-3.944c-4.663-.886-8.416-1.7-11-2.305-1.294-.293-2.293-.545-2.971-.712l-.77-.2a1.045,1.045,0,0,1-.258-.086,1.113,1.113,0,0,1,.27.034l.781.149,2.991.617c2.6.54,6.359,1.3,11.025,2.14a226.489,226.489,0,0,0,36.8,3.786,144.854,144.854,0,0,0,36.687-4.033c4.6-1.153,8.253-2.317,10.752-3.2,1.259-.416,2.212-.806,2.873-1.032l.751-.262a1.118,1.118,0,0,1,.262-.073" fill="#01570b"/>
            <path id="Trazado_879787" data-name="Trazado 879787" d="M207.369,249.432a25.484,25.484,0,0,1-14.929-.5v-26.5a37.484,37.484,0,0,1,14.929,0Z" fill="#01570b"/>
            <path id="Trazado_879788" data-name="Trazado 879788" d="M231.464,247.855a.968.968,0,0,1-.02-.2c-.007-.155-.015-.345-.025-.577q-.021-.809-.06-2.212c-.039-1.958-.094-4.744-.164-8.229-.105-7.032-.254-16.873-.425-28.282l.2.241a40.032,40.032,0,0,0-15.449.012l.212-.259c0,.166,0,.346.007.526.158,15.661.3,29.806.4,39.906L216,248.6a34.863,34.863,0,0,0,6.506.792,23.949,23.949,0,0,0,4.914-.4,24.328,24.328,0,0,0,3.015-.792l.755-.264a1.674,1.674,0,0,1,.277-.083,1.164,1.164,0,0,1-.238.119l-.759.325a21.018,21.018,0,0,1-3.01.89,23.378,23.378,0,0,1-4.957.492,34.471,34.471,0,0,1-6.576-.724l-.143-.028,0-.147c-.142-10.1-.341-24.244-.561-39.9,0-.18-.005-.36-.007-.526l0-.218.215-.041a40.259,40.259,0,0,1,15.645.012l.2.041v.2c.086,11.462.16,21.349.213,28.414.009,3.468.017,6.241.022,8.189q-.008,1.379-.011,2.173c-.005.223-.009.4-.012.554a.6.6,0,0,1-.016.18" fill="#01570b"/>
            <path id="Trazado_879789" data-name="Trazado 879789" d="M254.407,244.735c-4,2.163-9.257,2.45-14.929,2.125V203.093a31.892,31.892,0,0,1,14.929,0Z" fill="#01570b"/>
            <path id="Trazado_879790" data-name="Trazado 879790" d="M183.667,247.264a10.748,10.748,0,0,1-.051-1.121c-.015-.771-.034-1.793-.059-3.06-.028-2.664-.068-6.35-.116-10.747l.146.21a33.428,33.428,0,0,0-14.371-2.386l-.027,0,.236-.259c-.013,5.461-.025,10.577-.036,14.928l-.137-.207a27.915,27.915,0,0,0,5.763,1.645c1.765.318,3.322.5,4.606.628l2.988.253a10.535,10.535,0,0,1,1.058.114,7.713,7.713,0,0,1-1.064.025c-.694-.014-1.711-.043-3-.13s-2.861-.237-4.648-.527a27.442,27.442,0,0,1-5.873-1.593l-.138-.057v-.151c-.011-4.351-.023-9.467-.036-14.928v-.242l.236-.017.028,0a33.134,33.134,0,0,1,14.578,2.482l.148.056v.156c-.048,4.457-.088,8.194-.116,10.894q-.037,1.869-.059,3.008a7.643,7.643,0,0,1-.051,1.026" fill="#01570b"/>
            <path id="Trazado_879791" data-name="Trazado 879791" d="M190.69,208.539a14.9,14.9,0,0,1-2.92.18c-1.806.029-4.3-.008-7.054-.169s-5.236-.419-7.026-.66a14.981,14.981,0,0,1-2.879-.52,17.9,17.9,0,0,1,2.919.154c1.795.147,4.274.344,7.017.506s5.226.255,7.027.321a17.872,17.872,0,0,1,2.916.188" fill="#01570b"/>
            <path id="Trazado_879792" data-name="Trazado 879792" d="M188.466,211.8a12.459,12.459,0,0,1-2.562-.012c-1.581-.074-3.763-.212-6.17-.4s-4.587-.381-6.16-.549a12.451,12.451,0,0,1-2.534-.379,12.664,12.664,0,0,1,2.57.012c1.58.074,3.759.212,6.163.4s4.578.381,6.151.548a12.629,12.629,0,0,1,2.542.38" fill="#01570b"/>
            <path id="Trazado_879793" data-name="Trazado 879793" d="M193.928,216.067a8.808,8.808,0,0,1,.012-.929q.037-.959.1-2.579c.107-2.26.257-5.44.441-9.346l.191.2a213.919,213.919,0,0,1-27.628-1.532c-.261.218.352-.3.289-.242v.023l0,.027,0,.053-.006.106-.012.211-.025.422-.049.841q-.048.839-.1,1.667-.1,1.657-.192,3.27c-.128,2.148-.252,4.229-.371,6.22l-.217-.259c7.989.984,14.892,1.4,19.786,1.59l5.726.173,1.507.047a4.625,4.625,0,0,1,.549.036,3.135,3.135,0,0,1-.506.037c-.341.014-.881.037-1.551.044-1.334.02-3.283.022-5.735-.03-4.9-.1-11.824-.455-19.835-1.407l-.23-.027.013-.232c.112-1.992.23-4.073.351-6.221q.092-1.612.187-3.271.048-.828.1-1.667l.049-.841.024-.422.012-.212.006-.1,0-.053,0-.027v-.023c-.063.051.552-.463.293-.245a234.235,234.235,0,0,0,27.564,1.669h.2l-.014.2c-.271,3.948-.491,7.162-.648,9.445q-.123,1.593-.2,2.533a6.589,6.589,0,0,1-.091.854" fill="#01570b"/>
            <path id="Trazado_879794" data-name="Trazado 879794" d="M197.332,221.682a11.922,11.922,0,0,1-1.923-2.669,9.474,9.474,0,0,1-1.482-2.946,11.958,11.958,0,0,1,1.923,2.669,9.5,9.5,0,0,1,1.482,2.946" fill="#01570b"/>
            <path id="Trazado_879795" data-name="Trazado 879795" d="M35.334,124.731,48.009,201.4s19.343,36.222,70.749,44.387l-8.3-68.445s-47.537-14.7-75.129-52.616" fill="#01570b"/>
            <g id="Grupo_1101801" data-name="Grupo 1101801" opacity="0.8">
              <g id="Grupo_1101800" data-name="Grupo 1101800">
                <g id="Grupo_1101799" data-name="Grupo 1101799" clip-path="url(#clip-path-20)">
                  <path id="Trazado_879796" data-name="Trazado 879796" d="M35.334,124.731,48.009,201.4s19.343,36.222,70.749,44.387l-8.3-68.445s-47.537-14.7-75.129-52.616" fill="#b0dcae"/>
                </g>
              </g>
            </g>
            <path id="Trazado_879797" data-name="Trazado 879797" d="M112.127,240.327a1.544,1.544,0,0,1-.327-.076l-.945-.274-3.624-1.1c-1.565-.5-3.516-1.018-5.682-1.9l-3.5-1.332c-1.242-.466-2.554-.958-3.881-1.6-2.675-1.226-5.648-2.485-8.669-4.184-3.1-1.557-6.234-3.525-9.516-5.616a95.6,95.6,0,0,1-19.1-16.554,57.076,57.076,0,0,1-6.891-9.613l-.017-.032L49.968,198c-2.313-14.942-4.344-28.069-5.8-37.5-.7-4.678-1.266-8.436-1.661-11.061-.181-1.272-.322-2.268-.423-2.98-.041-.318-.073-.573-.1-.772a1.1,1.1,0,0,1-.018-.265,1.116,1.116,0,0,1,.064.257c.037.2.085.45.144.766.122.708.293,1.7.511,2.965.43,2.62,1.046,6.37,1.812,11.038,1.5,9.422,3.6,22.54,5.979,37.47l-.024-.075a57.217,57.217,0,0,0,6.826,9.5A96.318,96.318,0,0,0,76.25,223.841c3.26,2.093,6.379,4.068,9.454,5.635,3,1.71,5.955,2.984,8.613,4.227,1.318.649,2.623,1.151,3.856,1.627l3.477,1.367c2.151.909,4.09,1.451,5.644,1.983l3.59,1.2.931.324a1.529,1.529,0,0,1,.312.127" fill="#01570b"/>
            <path id="Trazado_879798" data-name="Trazado 879798" d="M107.609,218.071a.99.99,0,0,1-.176.16l-.544.437-2.137,1.665-8.074,6.184-.127.1-.1-.131-9.875-13.66.3.05-7.57,5.391-.253.18-.107-.291-9.76-26.471-1.4-3.81.477.027L62.1,200.138l-.267.531-.195-.561L48.763,162.979l.273-.016-1.894,7.986q-.331,1.347-.519,2.1l-.142.538a.706.706,0,0,1-.061.179.652.652,0,0,1,.023-.188l.1-.546q.16-.765.447-2.12c.414-1.885,1.01-4.592,1.764-8.016l.106-.485.166.47c3.005,8.509,7.636,21.624,13.085,37.057l-.462-.03,6.15-12.247.269-.535.207.562q.7,1.89,1.4,3.811c3.476,9.474,6.774,18.468,9.716,26.486l-.36-.111,7.594-5.359.177-.125.125.176,9.777,13.73-.222-.034,8.161-6.068,2.187-1.6.57-.4a.953.953,0,0,1,.2-.125" fill="#01570b"/>
            <path id="Trazado_879799" data-name="Trazado 879799" d="M105.836,181.3a4.523,4.523,0,0,1-1.079-.241c-.685-.185-1.668-.486-2.873-.885a98.47,98.47,0,0,1-18.056-8.153c-1.1-.64-1.971-1.178-2.563-1.57a4.444,4.444,0,0,1-.894-.65,4.617,4.617,0,0,1,1,.476l2.639,1.423c2.231,1.2,5.342,2.789,8.859,4.379s6.769,2.865,9.141,3.748l2.813,1.039a4.55,4.55,0,0,1,1.016.434" fill="#01570b"/>
            <path id="Trazado_879800" data-name="Trazado 879800" d="M107.878,184.478a10.639,10.639,0,0,1-2.483-.439,57.859,57.859,0,0,1-11.437-4.09,10.658,10.658,0,0,1-2.2-1.235,13.943,13.943,0,0,1,2.349.9c1.43.595,3.413,1.4,5.635,2.192s4.263,1.431,5.747,1.879a14,14,0,0,1,2.387.794" fill="#01570b"/>
            <path id="Trazado_879801" data-name="Trazado 879801" d="M87.62,212.841c0,.634-.386,1.149-.861,1.149s-.862-.515-.862-1.149.386-1.149.862-1.149.861.514.861,1.149" fill="#01570b"/>
            <path id="Trazado_879802" data-name="Trazado 879802" d="M68.815,188.6c0,.634-.386,1.149-.862,1.149s-.861-.515-.861-1.149.386-1.149.861-1.149.862.515.862,1.149" fill="#01570b"/>
            <path id="Trazado_879803" data-name="Trazado 879803" d="M49.825,163.308c0,.634-.386,1.149-.862,1.149s-.861-.515-.861-1.149.386-1.149.861-1.149.862.515.862,1.149" fill="#01570b"/>
            <path id="Trazado_879804" data-name="Trazado 879804" d="M370.669,138.391l-6.351,77.9s-18.539,33.313-69.6,34.581l6.31-78.43s44.539-1.807,69.638-34.049" fill="#01570b"/>
            <path id="Trazado_879805" data-name="Trazado 879805" d="M369.725,134.329c-1.665-5.392-5.7-13.077-15.3-14.676l-11.351,104.78s21.309-4.255,21.881-15.935c.049-1.008,4.313-53.085,5.379-65.979a21.139,21.139,0,0,0-.608-8.19" fill="#01570b"/>
            <g id="Grupo_1101804" data-name="Grupo 1101804" opacity="0.8">
              <g id="Grupo_1101803" data-name="Grupo 1101803">
                <g id="Grupo_1101802" data-name="Grupo 1101802" clip-path="url(#clip-path-21)">
                  <path id="Trazado_879806" data-name="Trazado 879806" d="M370.669,138.391l-6.351,77.9s-18.539,33.313-69.6,34.581l6.31-78.43s44.539-1.807,69.638-34.049" fill="#3ba935"/>
                </g>
              </g>
            </g>
            <path id="Trazado_879807" data-name="Trazado 879807" d="M369.148,158.249a46.2,46.2,0,0,0-8.137,25.192c-.051,2.584.1,5.261-.882,7.651s-3.55,4.386-6.042,3.7c-2.6-.714-3.769-3.792-6.052-5.235a6.745,6.745,0,0,0-6.849.145,11.47,11.47,0,0,0-4.5,5.472c-1.857,4.271-1.978,9.088-3.345,13.54s-4.721,8.939-9.374,9.142c-1.7.074-3.38-.441-5.079-.39-3.594.107-6.713,2.777-8.389,5.959s-2.178,6.83-2.654,10.394c0,0,27.216,2.593,57.773-33.485Z" fill="#01570b"/>
            <path id="Trazado_879808" data-name="Trazado 879808" d="M325.876,205.5c0,.966-.478,1.75-1.068,1.75s-1.068-.784-1.068-1.75.478-1.75,1.068-1.75,1.068.784,1.068,1.75" fill="#01570b"/>
            <path id="Trazado_879809" data-name="Trazado 879809" d="M338.7,173.114c0,.966-.478,1.75-1.068,1.75s-1.068-.784-1.068-1.75.478-1.75,1.068-1.75,1.068.784,1.068,1.75" fill="#01570b"/>
            <path id="Trazado_879810" data-name="Trazado 879810" d="M368.536,162.008a2.407,2.407,0,0,1-.176.444c-.145.318-.336.736-.575,1.262-.537,1.136-1.292,2.738-2.244,4.758-1.979,4.121-4.774,9.942-8.117,16.906l-.109.228-.216-.136-19.254-12.182.38-.122-.8,1.969-12.433,30.441-.085.207-.2-.109c-4.8-2.7-8.718-4.87-11.44-6.349-1.363-.737-2.425-1.3-3.154-1.675l-.833-.407a1.33,1.33,0,0,1-.291-.129,23.587,23.587,0,0,1,4.381,2.015c2.757,1.422,6.7,3.539,11.53,6.2l-.28.1,12.318-30.488.8-1.969.118-.289.263.167,19.218,12.239-.325.092c3.412-6.93,6.265-12.722,8.285-16.823,1-2,1.794-3.58,2.357-4.7l.637-1.232a2.445,2.445,0,0,1,.24-.412" fill="#01570b"/>
          </g>
        </g>
      </g>
    </g>
  </g>
</svg>
