<svg xmlns="http://www.w3.org/2000/svg" xmlns:xlink="http://www.w3.org/1999/xlink" width="408.365" height="151.332" viewBox="0 0 408.365 151.332">
  <defs>
    <clipPath id="clip-path">
      <rect id="Rectángulo_402453" data-name="Rectángulo 402453" width="223.365" height="151.332" fill="none"/>
    </clipPath>
    <clipPath id="clip-path-4">
      <rect id="Rectángulo_402451" data-name="Rectángulo 402451" width="20.746" height="15.012" fill="none"/>
    </clipPath>
    <clipPath id="clip-path-5">
      <rect id="Rectángulo_402454" data-name="Rectángulo 402454" width="400" height="151" rx="9" transform="translate(179.949 3081)" fill="#e2dacc"/>
    </clipPath>
    <clipPath id="clip-path-6">
      <rect id="Rectángulo_402441" data-name="Rectángulo 402441" width="170.774" height="481.884" fill="none"/>
    </clipPath>
  </defs>
  <g id="_6" data-name="6" transform="translate(-179.949 -3080.668)">
    <rect id="Rectángulo_402392" data-name="Rectángulo 402392" width="400" height="111" rx="9" transform="translate(179.949 3121)" fill="#e2dacc"/>
    <g id="Grupo_1101703" data-name="Grupo 1101703" transform="translate(364.949 3080.668)">
      <g id="Grupo_1101702" data-name="Grupo 1101702" clip-path="url(#clip-path)">
        <rect id="Rectángulo_402442" data-name="Rectángulo 402442" width="36.423" height="9.636" transform="translate(182.231 7.403)" fill="#ebebeb"/>
        <g id="Grupo_1101696" data-name="Grupo 1101696">
          <g id="Grupo_1101695" data-name="Grupo 1101695" clip-path="url(#clip-path)">
            <path id="Trazado_879191" data-name="Trazado 879191" d="M259.206,33.014a1.167,1.167,0,0,1-.011-.175c0-.129-.007-.291-.012-.494q-.01-.681-.027-1.9c-.015-1.663-.036-4.055-.063-7.07l.113.113-36.421.073c.082-.083-.187.185.183-.186v2.465q0,1.225,0,2.432,0,2.412,0,4.74l-.182-.181,25.957.082,7.661.052,2.072.024.542.011a1.445,1.445,0,0,1,.192.012.894.894,0,0,1-.168.012l-.52.011-2.033.024-7.62.052-26.083.082H222.6v-.182q0-2.325,0-4.74,0-1.206,0-2.432,0-.612,0-1.229V23.378c.371-.371.1-.1.188-.186l36.421.073h.114v.112c-.027,3.044-.048,5.458-.063,7.137q-.017,1.2-.027,1.871c-.005.195-.009.35-.012.475a.707.707,0,0,1-.011.153" transform="translate(-55.953 -5.825)" fill="#e0e0e0"/>
            <path id="Trazado_879192" data-name="Trazado 879192" d="M279.295,186.623a1.175,1.175,0,0,1-.011-.175c0-.129-.007-.291-.012-.494q-.01-.681-.027-1.9c-.015-1.663-.036-4.055-.063-7.07l.113.113-36.421.073c.082-.082-.187.185.183-.186v2.465q0,1.225,0,2.432,0,2.412,0,4.74l-.182-.181,25.957.082,7.662.052,2.071.024.542.011a1.442,1.442,0,0,1,.192.012.894.894,0,0,1-.168.012l-.52.011-2.033.024-7.62.052-26.083.083h-.181v-.182q0-2.325,0-4.74,0-1.206,0-2.432v-2.465c.371-.371.1-.1.188-.186l36.421.073h.114v.112c-.027,3.044-.048,5.458-.062,7.137q-.018,1.2-.028,1.871c-.005.195-.009.35-.012.475a.7.7,0,0,1-.011.153" transform="translate(-61.003 -44.437)" fill="#e0e0e0"/>
            <path id="Trazado_879193" data-name="Trazado 879193" d="M290.772,173.744a1.127,1.127,0,0,1-.014-.183c0-.138-.008-.306-.014-.511q-.012-.711-.033-1.932c-.017-1.689-.042-4.076-.072-7.009l.133.133-21.883.052c-.167.165.224-.226.184-.185v2.51q0,1.242,0,2.453c0,1.612,0,3.175-.007,4.672l-.177-.177,15.655.084,4.56.049,1.23.022a3.755,3.755,0,0,1,.439.022,2.559,2.559,0,0,1-.4.022l-1.193.022-4.52.049-15.774.084h-.177v-.177c0-1.5,0-3.06-.007-4.672q0-1.209,0-2.453,0-.621,0-1.249v-1.261c-.041.04.352-.352.187-.186l21.883.052h.135l0,.133c-.03,2.968-.055,5.382-.072,7.091q-.02,1.2-.033,1.9a5.67,5.67,0,0,1-.028.643" transform="translate(-67.542 -41.194)" fill="#e0e0e0"/>
          </g>
        </g>
        <rect id="Rectángulo_402444" data-name="Rectángulo 402444" width="122.71" height="92.943" transform="translate(34.261 58.213)" fill="#f5f5f5"/>
        <g id="Grupo_1101701" data-name="Grupo 1101701">
          <g id="Grupo_1101700" data-name="Grupo 1101700" clip-path="url(#clip-path)">
            <path id="Trazado_879194" data-name="Trazado 879194" d="M168.409,170.636s-.012-.585-.017-1.7-.01-2.78-.019-4.943c-.009-4.331-.023-10.682-.041-18.789-.019-16.2-.049-39.417-.083-67.507l.16.16-122.7.035H45.7l.195-.2c-.007,33.436-.013,65.092-.019,92.944l-.176-.176,88.584.088,25.147.047,6.67.021,1.719.01c.387,0,.589.01.589.01s-.189.007-.568.01l-1.7.01-6.635.021-25.108.047-88.7.088h-.176v-.176c-.005-27.852-.012-59.508-.019-92.944V77.5h.205l122.7.034h.16v.16c-.034,28.132-.064,51.383-.083,67.608-.018,8.092-.032,14.43-.041,18.753-.008,2.149-.014,3.8-.019,4.913s-.017,1.67-.017,1.67" transform="translate(-11.438 -19.48)" fill="#263238"/>
            <rect id="Rectángulo_402445" data-name="Rectángulo 402445" width="8.287" height="22.411" transform="translate(70.464 101.751)" fill="#ff725e"/>
            <rect id="Rectángulo_402446" data-name="Rectángulo 402446" width="8.287" height="22.411" transform="translate(105.626 101.751)" fill="#ff725e"/>
            <rect id="Rectángulo_402447" data-name="Rectángulo 402447" width="8.287" height="35.572" transform="translate(117.347 88.59)" fill="#ff725e"/>
            <rect id="Rectángulo_402448" data-name="Rectángulo 402448" width="8.287" height="7.542" transform="translate(59.74 117.107)" fill="#ff725e"/>
            <rect id="Rectángulo_402449" data-name="Rectángulo 402449" width="8.287" height="12.291" transform="translate(82.184 111.871)" fill="#ff725e"/>
            <rect id="Rectángulo_402450" data-name="Rectángulo 402450" width="8.287" height="15.113" transform="translate(93.906 109.05)" fill="#ff725e"/>
            <path id="Trazado_879195" data-name="Trazado 879195" d="M89.066,123.959a1.779,1.779,0,1,1-1.779-1.779,1.779,1.779,0,0,1,1.779,1.779" transform="translate(-21.494 -30.712)" fill="#ff725e"/>
            <line id="Línea_718" data-name="Línea 718" y1="36.547" transform="translate(93.262 62.792)" fill="#f5f5f5"/>
            <path id="Trazado_879196" data-name="Trazado 879196" d="M124.511,83.875c.108,0,.195,8.182.195,18.273s-.087,18.273-.195,18.273-.195-8.18-.195-18.273.087-18.273.195-18.273" transform="translate(-31.249 -21.083)" fill="#263238"/>
            <path id="Trazado_879197" data-name="Trazado 879197" d="M189.07,101.644a8.217,8.217,0,0,1-1.292.076l-3.525.062c-2.976.035-7.087.057-11.628.057l-6.4-.015a8.5,8.5,0,0,0-1.4.047,2.935,2.935,0,0,0-1.172.5,3.027,3.027,0,0,0-1.224,1.9,5.74,5.74,0,0,0-.063,1.034q-.008.5-.015.947-.019.861-.033,1.516a8.221,8.221,0,0,1-.076,1.292,8.148,8.148,0,0,1-.076-1.292q-.013-.656-.033-1.516-.007-.448-.015-.947a5.8,5.8,0,0,1,.04-1.082,3.294,3.294,0,0,1,1.306-2.114,3.246,3.246,0,0,1,1.3-.571,8.624,8.624,0,0,1,1.466-.07l6.4-.015c4.54,0,8.652.022,11.628.057l3.525.062a8.221,8.221,0,0,1,1.292.076" transform="translate(-40.748 -25.501)" fill="#263238"/>
            <path id="Trazado_879198" data-name="Trazado 879198" d="M151.85,115.4a.882.882,0,0,1-.2-.057l-.58-.2c-.255-.087-.564-.214-.94-.331l-1.307-.373a24.373,24.373,0,0,0-20.377,3.956,39.6,39.6,0,0,0-5.436,5.258,20.915,20.915,0,0,1-6.354,5.166,9.549,9.549,0,0,1-4.108.854,12.114,12.114,0,0,1-3.983-.843,34.995,34.995,0,0,1-6.628-3.785,33.462,33.462,0,0,0-6.019-3.248,13.237,13.237,0,0,0-5.814-.931,19.671,19.671,0,0,0-8.249,2.318,17.906,17.906,0,0,0-1.988,1.255l-.49.368a.834.834,0,0,1-.176.116,11.976,11.976,0,0,1,2.581-1.872,19.346,19.346,0,0,1,8.307-2.46,13.439,13.439,0,0,1,5.944.9,33.362,33.362,0,0,1,6.1,3.248,35.072,35.072,0,0,0,6.57,3.73,11.791,11.791,0,0,0,3.856.812,9.169,9.169,0,0,0,3.939-.822,20.691,20.691,0,0,0,6.234-5.071,39.418,39.418,0,0,1,5.5-5.285,24.424,24.424,0,0,1,11.982-4.549,23.848,23.848,0,0,1,8.648.735l1.3.409c.374.129.68.269.931.368l.567.24a.806.806,0,0,1,.188.094" transform="translate(-19.907 -28.517)" fill="#ff725e"/>
            <path id="Trazado_879199" data-name="Trazado 879199" d="M125.757,133.729a1.779,1.779,0,1,1-1.779-1.779,1.779,1.779,0,0,1,1.779,1.779" transform="translate(-30.717 -33.168)" fill="#ff725e"/>
            <path id="Trazado_879200" data-name="Trazado 879200" d="M163.747,113a1.779,1.779,0,1,1-1.779-1.779A1.779,1.779,0,0,1,163.747,113" transform="translate(-40.266 -27.958)" fill="#ff725e"/>
            <path id="Trazado_879201" data-name="Trazado 879201" d="M88.063,170.371a22.617,22.617,0,0,1-4.183.195,22.616,22.616,0,0,1-4.184-.195,22.615,22.615,0,0,1,4.184-.195,22.616,22.616,0,0,1,4.183.195" transform="translate(-20.033 -42.776)" fill="#263238"/>
            <path id="Trazado_879202" data-name="Trazado 879202" d="M102.585,170.371a22.617,22.617,0,0,1-4.183.195,22.622,22.622,0,0,1-4.184-.195,22.621,22.621,0,0,1,4.184-.195,22.616,22.616,0,0,1,4.183.195" transform="translate(-23.683 -42.776)" fill="#263238"/>
            <path id="Trazado_879203" data-name="Trazado 879203" d="M118.78,170.371a22.617,22.617,0,0,1-4.183.195,22.616,22.616,0,0,1-4.184-.195,22.615,22.615,0,0,1,4.184-.195,22.616,22.616,0,0,1,4.183.195" transform="translate(-27.754 -42.776)" fill="#263238"/>
            <path id="Trazado_879204" data-name="Trazado 879204" d="M134.216,170.371a22.617,22.617,0,0,1-4.183.195,22.622,22.622,0,0,1-4.184-.195,22.622,22.622,0,0,1,4.184-.195,22.616,22.616,0,0,1,4.183.195" transform="translate(-31.634 -42.776)" fill="#263238"/>
            <path id="Trazado_879205" data-name="Trazado 879205" d="M149.271,170.371a22.617,22.617,0,0,1-4.183.195,22.622,22.622,0,0,1-4.184-.195,22.621,22.621,0,0,1,4.184-.195,22.616,22.616,0,0,1,4.183.195" transform="translate(-35.418 -42.776)" fill="#263238"/>
            <path id="Trazado_879206" data-name="Trazado 879206" d="M164.326,170.371a22.617,22.617,0,0,1-4.183.195,22.623,22.623,0,0,1-4.184-.195,22.622,22.622,0,0,1,4.184-.195,22.616,22.616,0,0,1,4.183.195" transform="translate(-39.203 -42.776)" fill="#263238"/>
            <path id="Trazado_879207" data-name="Trazado 879207" d="M80.384,179.639H79.225v-.683h3.156v.683H81.222v2.939h-.838Z" transform="translate(-19.914 -44.983)" fill="#263238"/>
            <path id="Trazado_879208" data-name="Trazado 879208" d="M86.353,182.578l-.7-1.008h-.772v1.008h-.838v-3.622h1.568c.968,0,1.574.5,1.574,1.314a1.178,1.178,0,0,1-.746,1.144l.812,1.164Zm-.787-2.939h-.683V180.9h.683c.512,0,.771-.238.771-.632s-.259-.631-.771-.631" transform="translate(-21.126 -44.983)" fill="#263238"/>
            <path id="Trazado_879209" data-name="Trazado 879209" d="M91.934,181.906v.672H89.129v-3.622h2.738v.672h-1.9v.787h1.682v.652H89.962v.838Z" transform="translate(-22.404 -44.983)" fill="#263238"/>
            <path id="Trazado_879210" data-name="Trazado 879210" d="M97.092,178.956v3.622H96.4l-1.806-2.2v2.2h-.828v-3.622h.693l1.8,2.2v-2.2Z" transform="translate(-23.571 -44.983)" fill="#263238"/>
            <path id="Trazado_879211" data-name="Trazado 879211" d="M99.359,178.956h1.646a1.82,1.82,0,1,1,0,3.622H99.359Zm1.6,2.934a1.125,1.125,0,1,0,0-2.246H100.2v2.246Z" transform="translate(-24.975 -44.983)" fill="#263238"/>
            <path id="Trazado_879212" data-name="Trazado 879212" d="M78.286,117.3a1.678,1.678,0,0,1-.412.039l-1.183.037-4.35.062-6.452.042-3.81.011a11.8,11.8,0,0,1-2.042-.088,6.017,6.017,0,0,1-4.661-3.9,5.938,5.938,0,0,1-.358-1.966q0-.955,0-1.868c.016-2.415.03-4.6.042-6.452.025-1.8.046-3.268.061-4.35.015-.478.027-.868.037-1.182a1.641,1.641,0,0,1,.04-.412,1.671,1.671,0,0,1,.039.412c.01.314.022.7.037,1.182.016,1.083.037,2.555.062,4.35.012,1.854.026,4.037.042,6.452a10.514,10.514,0,0,0,.356,3.7,5.628,5.628,0,0,0,2.491,2.967,5.694,5.694,0,0,0,1.875.676,11.565,11.565,0,0,0,1.978.089l3.81.011,6.452.042,4.35.062,1.183.036a1.649,1.649,0,0,1,.412.04" transform="translate(-13.83 -24.453)" fill="#263238"/>
            <path id="Trazado_879213" data-name="Trazado 879213" d="M197.5,81.475v55.166h58.7V81.475Z" transform="translate(-49.644 -20.48)" fill="#fafafa"/>
            <path id="Trazado_879214" data-name="Trazado 879214" d="M197.44,81.418s.085-.007.263-.01l.8-.01,3.134-.019,11.926-.045,42.579-.086h.17v.171c.008,16.13.016,35.036.025,55.161v.2h-.195l-58.7-.028h-.167v-.167c.035-16.594.065-30.4.085-40.07.019-4.808.034-8.585.043-11.173.009-1.276.015-2.256.019-2.931s.019-.992.019-.992.013.356.019,1.029.011,1.673.019,2.962c.01,2.6.025,6.387.043,11.211.02,9.645.05,23.415.085,39.964l-.167-.166,58.7-.028-.2.195v-.005c.009-20.125.018-39.031.025-55.161l.171.171L213.67,81.5l-11.963-.045-3.167-.019-.818-.01c-.184,0-.283-.01-.283-.01" transform="translate(-49.588 -20.423)" fill="#263238"/>
            <path id="Trazado_879215" data-name="Trazado 879215" d="M230.272,89.826a18.112,18.112,0,1,0,18.112,18.112,18.112,18.112,0,0,0-18.112-18.112m.273,28.965a11.126,11.126,0,1,1,11.126-11.126,11.126,11.126,0,0,1-11.126,11.126" transform="translate(-53.33 -22.579)" fill="#ff725e"/>
            <path id="Trazado_879216" data-name="Trazado 879216" d="M219.419,108.142a11.125,11.125,0,0,1,6.6-10.161l-2.786-6.257a18.118,18.118,0,0,0-11.069,16.692c0,.255.009.508.019.76h7.289c-.031-.341-.049-.684-.049-1.033" transform="translate(-53.329 -23.056)" fill="#e0e0e0"/>
            <path id="Trazado_879217" data-name="Trazado 879217" d="M246.309,144.26c0,.1-6.711.171-14.987.171s-14.988-.076-14.988-.171,6.709-.171,14.988-.171,14.987.076,14.987.171" transform="translate(-54.379 -36.219)" fill="#263238"/>
            <path id="Trazado_879218" data-name="Trazado 879218" d="M241.875,147.936c0,.1-3.722.172-8.312.172s-8.313-.077-8.313-.172,3.721-.171,8.313-.171,8.312.076,8.312.171" transform="translate(-56.62 -37.143)" fill="#263238"/>
            <path id="Trazado_879219" data-name="Trazado 879219" d="M233.444,110.523v.74l-1.473,3.435h-1.288l1.407-3.238h-1.1v.644h-1.008v-1.58Z" transform="translate(-57.811 -27.782)" fill="#263238"/>
            <path id="Trazado_879220" data-name="Trazado 879220" d="M238.2,113.355c0,.746-.56,1.425-1.818,1.425a3.164,3.164,0,0,1-1.616-.411l.424-.889a2.116,2.116,0,0,0,1.157.346c.4,0,.668-.161.668-.441,0-.257-.172-.424-.811-.424h-1.133l.21-2.439h2.659v.913h-1.682l-.053.609h.28c1.234,0,1.717.572,1.717,1.312" transform="translate(-59.013 -27.781)" fill="#263238"/>
            <path id="Trazado_879221" data-name="Trazado 879221" d="M239.631,111.608a1.074,1.074,0,1,1,1.068,1.157,1.053,1.053,0,0,1-1.068-1.157m3.537-1.1h.859l-2.851,4.174h-.859Zm-2.117,1.1c0-.424-.149-.591-.352-.591s-.352.167-.352.591.161.59.352.59.352-.167.352-.59m1.527,1.967a1.073,1.073,0,1,1,1.067,1.157,1.049,1.049,0,0,1-1.067-1.157m1.419,0c0-.423-.155-.591-.352-.591s-.352.168-.352.591.155.591.352.591.352-.168.352-.591" transform="translate(-60.235 -27.764)" fill="#263238"/>
            <path id="Trazado_879222" data-name="Trazado 879222" d="M98.77.228V62.654H165.2V.228Z" transform="translate(-24.827 -0.057)" fill="#fafafa"/>
            <path id="Trazado_879223" data-name="Trazado 879223" d="M98.714.171s.1-.007.3-.01l.905-.01,3.549-.019,13.5-.045L165.14,0h.171V.171c.007,18.252.016,39.646.025,62.42v.2h-.2l-66.426-.028h-.167V62.6c.035-18.777.065-34.4.085-45.337.019-5.443.034-9.719.043-12.646.009-1.446.015-2.557.019-3.318s.019-1.125.019-1.125.013.4.019,1.162.01,1.89.019,3.35c.01,2.935.025,7.224.043,12.683.02,10.914.05,26.5.085,45.231l-.167-.167L165.14,62.4l-.195.195v-.006c.009-22.774.017-44.169.025-62.42l.17.17L117.073.255,103.537.21,99.957.19,99.033.18c-.208,0-.319-.01-.319-.01" transform="translate(-24.771)" fill="#263238"/>
            <path id="Trazado_879224" data-name="Trazado 879224" d="M135.859,9.678a20.5,20.5,0,1,0,20.5,20.5,20.495,20.495,0,0,0-20.5-20.5m.31,32.777a12.59,12.59,0,1,1,12.59-12.591,12.59,12.59,0,0,1-12.59,12.591" transform="translate(-28.998 -2.433)" fill="#e0e0e0"/>
            <path id="Trazado_879225" data-name="Trazado 879225" d="M143.159,9.689c0,2.181,0,5.121,0,7.588a12.6,12.6,0,0,1,12,16.408l7.428,2.015A20.488,20.488,0,0,0,143.159,9.689" transform="translate(-35.985 -2.435)" fill="#e0e0e0"/>
            <path id="Trazado_879226" data-name="Trazado 879226" d="M123.578,30.4a12.59,12.59,0,0,1,7.463-11.5l-3.153-7.081a20.5,20.5,0,0,0-12.525,18.888c0,.288.01.574.022.86h8.248c-.035-.386-.056-.775-.056-1.169" transform="translate(-28.998 -2.973)" fill="#455a64"/>
            <path id="Trazado_879227" data-name="Trazado 879227" d="M141.794,50.515a12.593,12.593,0,0,1-2.664-.285c-.316,1.827-.915,5.366-1.385,8.153a20.483,20.483,0,0,0,23.476-14.627l-7.428-2.014a12.6,12.6,0,0,1-12,8.773" transform="translate(-34.624 -10.492)" fill="#ebebeb"/>
            <path id="Trazado_879228" data-name="Trazado 879228" d="M154.006,71.276c0,.107-7.593.195-16.959.195s-16.96-.088-16.96-.195,7.592-.195,16.96-.195,16.959.088,16.959.195" transform="translate(-30.186 -17.867)" fill="#263238"/>
            <path id="Trazado_879229" data-name="Trazado 879229" d="M148.988,75.436c0,.107-4.212.195-9.406.195s-9.407-.088-9.407-.195,4.211-.195,9.407-.195,9.406.088,9.406.195" transform="translate(-32.721 -18.913)" fill="#263238"/>
            <path id="Trazado_879230" data-name="Trazado 879230" d="M139.713,36.531c0,.71-.561,1.389-1.819,1.389a3.2,3.2,0,0,1-1.622-.411l.43-.889a2.113,2.113,0,0,0,1.156.346c.4,0,.662-.155.662-.435,0-.251-.185-.406-.637-.406h-.495V35.38l.745-.8h-1.646v-.912H139.5V34.4l-.865.931a1.2,1.2,0,0,1,1.074,1.2" transform="translate(-34.254 -8.462)" fill="#263238"/>
            <path id="Trazado_879231" data-name="Trazado 879231" d="M144.522,36.495c0,.746-.56,1.425-1.818,1.425a3.163,3.163,0,0,1-1.616-.411l.424-.889a2.116,2.116,0,0,0,1.157.346c.4,0,.667-.161.667-.442,0-.256-.172-.423-.811-.423h-1.133l.21-2.439h2.658v.913h-1.681l-.053.608h.28c1.235,0,1.717.573,1.717,1.312" transform="translate(-35.464 -8.461)" fill="#263238"/>
            <path id="Trazado_879232" data-name="Trazado 879232" d="M145.95,34.747a1.074,1.074,0,1,1,1.068,1.157,1.053,1.053,0,0,1-1.068-1.157m3.536-1.1h.859l-2.851,4.174h-.859Zm-2.116,1.1c0-.424-.149-.591-.352-.591s-.352.167-.352.591.161.59.352.59.352-.167.352-.59m1.526,1.967a1.074,1.074,0,1,1,1.068,1.157,1.049,1.049,0,0,1-1.068-1.157m1.419,0c0-.423-.155-.59-.352-.59s-.353.167-.353.59.156.591.353.591.352-.168.352-.591" transform="translate(-36.687 -8.443)" fill="#263238"/>
            <path id="Trazado_879233" data-name="Trazado 879233" d="M.223,23.33V78.5h58.7V23.33Z" transform="translate(-0.056 -5.864)" fill="#fafafa"/>
            <path id="Trazado_879234" data-name="Trazado 879234" d="M.167,23.273s.085-.007.264-.01l.8-.01,3.134-.019,11.926-.045L58.868,23.1h.17v.171c.007,16.13.016,35.036.025,55.161v.2h-.195l-58.7-.028H0v-.167c.035-16.593.065-30.4.085-40.07C.1,33.561.119,29.784.129,27.2c.009-1.276.015-2.256.019-2.931s.019-.992.019-.992.013.356.019,1.029S.2,25.975.205,27.264c.01,2.6.025,6.387.043,11.211C.269,48.119.3,61.89.334,78.439l-.167-.167,58.7-.028-.2.195v-.005c.009-20.125.018-39.031.025-55.161l.171.17L16.4,23.357,4.434,23.312l-3.167-.019-.818-.01c-.184,0-.283-.01-.283-.01" transform="translate(0 -5.807)" fill="#263238"/>
            <path id="Trazado_879235" data-name="Trazado 879235" d="M33,31.681A18.112,18.112,0,1,0,51.111,49.793,18.112,18.112,0,0,0,33,31.681m.273,28.965A11.126,11.126,0,1,1,44.4,49.519,11.126,11.126,0,0,1,33.272,60.646" transform="translate(-3.742 -7.964)" fill="#e0e0e0"/>
            <path id="Trazado_879236" data-name="Trazado 879236" d="M39.451,31.69c0,1.927,0,4.526,0,6.706a11.13,11.13,0,0,1,10.6,14.5l6.565,1.78A18.1,18.1,0,0,0,39.451,31.69" transform="translate(-9.916 -7.966)" fill="#ff725e"/>
            <path id="Trazado_879237" data-name="Trazado 879237" d="M22.146,50a11.127,11.127,0,0,1,6.6-10.161l-2.786-6.257A18.119,18.119,0,0,0,14.886,50.27c0,.255.009.508.019.76h7.289c-.031-.339-.049-.684-.049-1.033" transform="translate(-3.742 -8.44)" fill="#ebebeb"/>
            <path id="Trazado_879238" data-name="Trazado 879238" d="M38.244,67.768a11.185,11.185,0,0,1-2.354-.252c-.28,1.614-.809,4.742-1.224,7.2A18.1,18.1,0,0,0,55.412,61.8l-6.565-1.78a11.129,11.129,0,0,1-10.6,7.752" transform="translate(-8.714 -15.086)" fill="#ff725e"/>
            <g id="Grupo_1101699" data-name="Grupo 1101699" transform="translate(25.953 44.93)" opacity="0.3">
              <g id="Grupo_1101698" data-name="Grupo 1101698">
                <g id="Grupo_1101697" data-name="Grupo 1101697" clip-path="url(#clip-path-4)">
                  <path id="Trazado_879239" data-name="Trazado 879239" d="M38.244,67.768a11.185,11.185,0,0,1-2.354-.252c-.28,1.614-.809,4.742-1.224,7.2A18.1,18.1,0,0,0,55.412,61.8l-6.565-1.78a11.129,11.129,0,0,1-10.6,7.752" transform="translate(-34.666 -60.016)"/>
                </g>
              </g>
            </g>
            <path id="Trazado_879240" data-name="Trazado 879240" d="M49.036,86.114c0,.1-6.711.171-14.987.171s-14.988-.076-14.988-.171,6.709-.171,14.988-.171,14.987.076,14.987.171" transform="translate(-4.791 -21.603)" fill="#263238"/>
            <path id="Trazado_879241" data-name="Trazado 879241" d="M44.6,89.79c0,.1-3.722.172-8.312.172s-8.313-.077-8.313-.172,3.721-.171,8.313-.171,8.312.076,8.312.171" transform="translate(-7.032 -22.527)" fill="#263238"/>
            <path id="Trazado_879242" data-name="Trazado 879242" d="M34.98,55.191a1.487,1.487,0,0,1-1.64,1.425,1.823,1.823,0,0,1-1.932-2.057,2.091,2.091,0,0,1,2.218-2.284,2.34,2.34,0,0,1,1.229.3l-.43.847a1.29,1.29,0,0,0-.769-.215.979.979,0,0,0-1.055.972,1.386,1.386,0,0,1,.941-.31,1.34,1.34,0,0,1,1.437,1.318m-1.145.053a.518.518,0,0,0-.573-.525.53.53,0,1,0,.006,1.056.517.517,0,0,0,.567-.531" transform="translate(-7.895 -13.14)" fill="#263238"/>
            <path id="Trazado_879243" data-name="Trazado 879243" d="M36.573,54.445c0-1.377.776-2.17,1.843-2.17s1.836.793,1.836,2.17-.776,2.17-1.836,2.17-1.843-.793-1.843-2.17m2.493,0c0-.877-.275-1.2-.65-1.2s-.657.328-.657,1.2.275,1.2.657,1.2.65-.328.65-1.2" transform="translate(-9.193 -13.14)" fill="#263238"/>
            <path id="Trazado_879244" data-name="Trazado 879244" d="M41.928,53.471A1.074,1.074,0,1,1,43,54.628a1.053,1.053,0,0,1-1.068-1.157m3.537-1.1h.859l-2.851,4.174h-.859Zm-2.117,1.1c0-.424-.149-.591-.352-.591s-.352.167-.352.591.161.59.352.59.352-.167.352-.59m1.526,1.967A1.074,1.074,0,1,1,45.941,56.6a1.049,1.049,0,0,1-1.068-1.157m1.419,0c0-.423-.155-.591-.352-.591s-.352.168-.352.591.155.59.352.59.352-.167.352-.59" transform="translate(-10.539 -13.15)" fill="#263238"/>
          </g>
        </g>
      </g>
    </g>
    <g id="Enmascarar_grupo_1098719" data-name="Enmascarar grupo 1098719" clip-path="url(#clip-path-5)">
      <g id="Grupo_1101694" data-name="Grupo 1101694" transform="translate(214.147 3080.668)">
        <g id="Grupo_1101693" data-name="Grupo 1101693" transform="translate(0)" clip-path="url(#clip-path-6)">
          <path id="Trazado_879141" data-name="Trazado 879141" d="M57.11,35.81c0,2.258,4.153,4.081,4.574,6.216.436,2.2-2.7,5.469-1.856,7.493.855,2.059,5.388,2.152,6.614,3.983s-.405,6.067,1.158,7.63,5.787-.076,7.632,1.158c1.829,1.226,1.923,5.758,3.981,6.612,2.024.839,5.291-2.292,7.491-1.856,2.135.423,3.958,4.574,6.216,4.574S97,67.469,99.136,67.046c2.2-.436,5.469,2.7,7.493,1.856,2.06-.854,2.152-5.388,3.983-6.612s6.067.405,7.63-1.159-.076-5.785,1.159-7.63,5.757-1.923,6.612-3.982c.839-2.024-2.292-5.293-1.856-7.493.421-2.135,4.574-3.958,4.574-6.216s-4.153-4.081-4.574-6.216c-.436-2.2,2.694-5.469,1.855-7.493-.854-2.059-5.386-2.152-6.612-3.983s.405-6.067-1.158-7.63-5.787.076-7.632-1.158c-1.829-1.226-1.923-5.758-3.981-6.612-2.024-.839-5.293,2.292-7.493,1.856C97,4.151,95.18,0,92.92,0S88.84,4.151,86.7,4.574c-2.2.436-5.467-2.7-7.493-1.856C77.152,3.571,77.06,8.1,75.229,9.33s-6.067-.405-7.632,1.159.078,5.787-1.158,7.63-5.758,1.923-6.612,3.983c-.839,2.022,2.292,5.291,1.856,7.491-.421,2.135-4.574,3.958-4.574,6.216" transform="translate(-48.404)" fill="#262626"/>
          <path id="Trazado_879142" data-name="Trazado 879142" d="M63.114,79.214c2.113-19.553,2.116-19.588,4.032-37.3a13.391,13.391,0,0,1,26.714,1.354c0,.165-.019.325-.025.488-.638,17.9-.638,17.9-1.357,37.585A14.73,14.73,0,0,1,63.027,80.8a14.953,14.953,0,0,1,.087-1.584" transform="translate(-22.905 17.437)" fill="#f35a38"/>
          <path id="Trazado_879143" data-name="Trazado 879143" d="M86.567,143.524q2.841-31.51,6.118-67.641a12.49,12.49,0,0,1,.716-3.141A12.08,12.08,0,0,1,116.686,78.6c0,.076-.014.149-.024.223q-4.887,35.8-9.152,67.071a11.03,11.03,0,0,1-.57,2.266,10.541,10.541,0,0,1-20.373-4.642" transform="translate(-83.054 37.876)" fill="#73716e"/>
          <path id="Trazado_879144" data-name="Trazado 879144" d="M29.316,75.575a12.08,12.08,0,0,1,23.691-3.917c.027.07.046.141.067.212q9.809,34.781,18.373,65.153a10.909,10.909,0,0,1,.382,2.306A10.541,10.541,0,0,1,51.295,143.2q-9.968-30.028-21.382-64.464a12.535,12.535,0,0,1-.6-3.164" transform="translate(52.53 36.688)" fill="#615f5d"/>
          <path id="Trazado_879145" data-name="Trazado 879145" d="M121.017,65.61l7.572,33.005a39.391,39.391,0,0,1,1,8.8v.086a39.366,39.366,0,0,1-.786,7.827l-10.638,52.444-53.939.44L41.21,69.325l24.706-8.245L92.455,58.8Z" transform="translate(-24.077 34.324)" fill="#73716e"/>
          <path id="Trazado_879146" data-name="Trazado 879146" d="M27.617,110.619c3.057-2.849,12.114-12.212,12.114-12.212l14.846,16.721S43.2,127.983,41.366,129.074a11.569,11.569,0,0,1-13.748-18.455" transform="translate(78.374 57.443)" fill="#73716e"/>
          <path id="Trazado_879147" data-name="Trazado 879147" d="M56.1,65.723l13.912-4.642L96.55,58.8l13.5,3.22c.009.147.046.293.046.442,0,7.4-12.3,13.4-27.462,13.4-12.667,0-23.362-4.45-26.537-10.141" transform="translate(-28.172 34.324)" fill="#f35a38"/>
          <path id="Trazado_879148" data-name="Trazado 879148" d="M67.3,250.58a13.179,13.179,0,1,1,26.271-1.348c-.263,26.363-.475,46.84-.667,65.3a9.228,9.228,0,0,1-16.814,5.157,9.138,9.138,0,0,1-1.543-4.237c-2.078-18.333-4.338-38.68-7.247-64.868" transform="translate(-29.25 137.71)" fill="#262626"/>
          <path id="Trazado_879149" data-name="Trazado 879149" d="M58.493,122.845h57.588l9.963,21.531,2.2,43.356L39.823,177.181Z" transform="translate(-20.535 71.709)" fill="#f35a38"/>
          <path id="Trazado_879150" data-name="Trazado 879150" d="M64.664,228.909a19.334,19.334,0,0,1,38.63-1.7c.014.3,0,.6,0,.9-.073,38.668-.136,64.428-.212,94.308l-29.819,1.314c-2.7-29.758-5.035-55.412-8.535-93.922,0-.3-.048-.594-.06-.9" transform="translate(-34.905 121.839)" fill="#f35a38"/>
          <path id="Trazado_879151" data-name="Trazado 879151" d="M25.8,183.862a27.241,27.241,0,1,1,49.979-21.156c.019.044.033.087.049.135.024.078.051.154.074.231,16.037,49.62,16.07,49.721,27.508,85.115A19.332,19.332,0,0,1,67.945,263.2c-17.459-32.866-17.5-32.938-42-79.068-.029-.052-.055-.106-.084-.158l-.059-.111" transform="translate(30.598 83.964)" fill="#f35a38"/>
          <path id="Trazado_879152" data-name="Trazado 879152" d="M62.235,174.064a27.244,27.244,0,1,1,54.435-2.4c.035.789.017,1.568-.014,2.342-2.231,53.633-2.231,53.633-3.828,91.7a19.328,19.328,0,0,1-38.477,1.7c-4.951-37.775-4.951-37.775-11.911-91-.082-.768-.169-1.544-.2-2.333" transform="translate(-44.435 85.003)" fill="#f35a38"/>
          <path id="Trazado_879153" data-name="Trazado 879153" d="M42.788,295.73c8.342-16.458,17.636-34.7,29.6-58.174A13.179,13.179,0,1,1,95.077,250.87c-14.711,21.878-26.144,38.868-36.446,54.18a9.228,9.228,0,0,1-16.881-4.933,9.115,9.115,0,0,1,1.039-4.387" transform="translate(7.328 134.454)" fill="#f35a38"/>
          <path id="Trazado_879154" data-name="Trazado 879154" d="M74.785,164.92h3.681A13.828,13.828,0,0,0,89.884,158.9l15.669-22.91-1.307-.893L88.575,158.006a12.233,12.233,0,0,1-10.109,5.331H74.785Z" transform="translate(-53.219 78.859)" fill="#262626"/>
          <path id="Trazado_879155" data-name="Trazado 879155" d="M59.3,204.2l6.637-8.558V121.8H64.357v73.3l-6.306,8.129Z" transform="translate(12.896 71.099)" fill="#262626"/>
          <rect id="Rectángulo_402422" data-name="Rectángulo 402422" width="1.584" height="29.189" transform="translate(78.314 267.217) rotate(-109.8)" fill="#262626"/>
          <rect id="Rectángulo_402423" data-name="Rectángulo 402423" width="1.584" height="12.009" transform="translate(55.611 194.554)" fill="#262626"/>
          <rect id="Rectángulo_402424" data-name="Rectángulo 402424" width="1.584" height="11.278" transform="translate(90.985 194.554)" fill="#262626"/>
          <path id="Trazado_879156" data-name="Trazado 879156" d="M22.62,284.321s34.419-70.058,34.923-71.249A19.333,19.333,0,1,1,90.88,232.115c-.588.792-39.552,63.338-39.552,63.338Z" transform="translate(40.265 117.489)" fill="#f35a38"/>
          <path id="Trazado_879157" data-name="Trazado 879157" d="M23.52,100.924c-.014,2.431,1.626,6.036,4.468,9.376a18.983,18.983,0,0,0,7.252,5.538,6.968,6.968,0,0,0,.968.277,3.174,3.174,0,0,0,2.754-.439c1.01-.879,1.113-2.608.469-4.732-.117-.38-.264-.79-.426-1.2a22.209,22.209,0,0,0-3.617-5.758c-3.443-4.029-7.545-6.387-9.933-5.86a2.106,2.106,0,0,0-1.641,1.334,3.3,3.3,0,0,0-.293,1.465" transform="translate(93.688 57.237)" fill="#262626"/>
          <path id="Trazado_879158" data-name="Trazado 879158" d="M48.692,284.863l-1.186,25.98h53.54v-6.726s-29.011-4.879-34.286-19.253Z" transform="translate(-5.509 166.284)" fill="#262626"/>
          <rect id="Rectángulo_402425" data-name="Rectángulo 402425" width="53.541" height="4.419" transform="translate(41.996 477.127)" fill="#73716e"/>
          <rect id="Rectángulo_402426" data-name="Rectángulo 402426" width="1.583" height="9.278" transform="translate(88.213 478.334) rotate(-162.465)" fill="#73716e"/>
          <rect id="Rectángulo_402427" data-name="Rectángulo 402427" width="38.638" height="1.584" transform="translate(41.996 478.544)" fill="#262626"/>
          <rect id="Rectángulo_402428" data-name="Rectángulo 402428" width="1.584" height="4.746" transform="translate(79.842 476.797)" fill="#262626"/>
          <path id="Trazado_879159" data-name="Trazado 879159" d="M76.084,267.1,60.532,280.129l31.586,43.233,5.431-3.967s-8.828-16.346-4.1-42.967Z" transform="translate(-22.641 155.916)" fill="#73716e"/>
          <path id="Trazado_879160" data-name="Trazado 879160" d="M62.151,300.819l8.348-2.794-.5-1.5-8.348,2.794Z" transform="translate(2.637 173.09)" fill="#f2eadf"/>
          <rect id="Rectángulo_402429" data-name="Rectángulo 402429" width="53.541" height="4.418" transform="translate(65.909 481.884) rotate(-126.152)" fill="#f2eadf"/>
          <rect id="Rectángulo_402430" data-name="Rectángulo 402430" width="38.639" height="1.583" transform="matrix(-0.59, -0.807, 0.807, -0.59, 58.268, 469.012)" fill="#262626"/>
          <rect id="Rectángulo_402431" data-name="Rectángulo 402431" width="1.583" height="4.417" transform="translate(57.585 470.491) rotate(-126.147)" fill="#262626"/>
          <path id="Trazado_879161" data-name="Trazado 879161" d="M76.36,286.66a6.782,6.782,0,0,0,6.774-6.774H81.55a5.186,5.186,0,1,1-.656-2.529l1.383-.773A6.775,6.775,0,1,0,76.36,286.66" transform="translate(-22.565 159.424)" fill="#f2eadf"/>
          <path id="Trazado_879162" data-name="Trazado 879162" d="M83.729,157.984h52.738c1.619,0,2.455-1.311,1.869-2.93L111.527,81.13a4.625,4.625,0,0,0-3.993-2.93H54.8c-1.619,0-2.455,1.311-1.867,2.93l26.808,73.924a4.627,4.627,0,0,0,3.993,2.93" transform="translate(-51.277 45.648)" fill="#f2eadf"/>
          <path id="Trazado_879163" data-name="Trazado 879163" d="M84.654,158.909h52.74c1.617,0,2.453-1.311,1.867-2.93L112.452,82.055a4.625,4.625,0,0,0-3.993-2.93H55.721c-1.619,0-2.455,1.311-1.867,2.93l26.808,73.924a4.627,4.627,0,0,0,3.993,2.93" transform="translate(-53.667 46.188)" fill="#262626"/>
          <path id="Trazado_879164" data-name="Trazado 879164" d="M61.239,100.986c5.914-.512,8.221-.706,12.169-1.039.057,0,.111-.006.166-.006a1.965,1.965,0,0,1,.481,3.874c-3.842.966-6.088,1.525-11.846,2.963a3.507,3.507,0,0,1-.722.089,2.945,2.945,0,0,1-.249-5.88" transform="translate(2.541 58.339)" fill="#f35a38"/>
          <path id="Trazado_879165" data-name="Trazado 879165" d="M62.351,95.072a2.973,2.973,0,0,1,.413.041c4.707.646,4.707.646,7.847,1.085.076.019.149.033.222.052,3.247.831,3.247.831,5.169,1.327a1.2,1.2,0,0,1,.877,1.129,1.162,1.162,0,0,1-1.117,1.155c-1.972.1-1.992.1-5.274.253l-7.819.844c-.106,0-.211.017-.32.017a2.952,2.952,0,1,1,0-5.9" transform="translate(-0.152 55.497)" fill="#f35a38"/>
          <path id="Trazado_879166" data-name="Trazado 879166" d="M61.082,105.55c5.659-1.783,5.8-1.829,9.582-3.011a2.383,2.383,0,0,1,.594-.09,1.962,1.962,0,0,1,.947,3.69c-3.472,1.9-3.6,1.97-8.812,4.805a3.134,3.134,0,0,1-1.425.363,2.942,2.942,0,0,1-.885-5.757" transform="translate(4.098 59.803)" fill="#f35a38"/>
          <path id="Trazado_879167" data-name="Trazado 879167" d="M60.787,109.185c4.954-2.433,4.954-2.433,8.262-4.05a2.078,2.078,0,0,1,.874-.2A1.976,1.976,0,0,1,71.9,106.9a1.955,1.955,0,0,1-.755,1.536c-2.884,2.285-2.884,2.285-7.214,5.7a3.047,3.047,0,0,1-1.845.64,2.943,2.943,0,0,1-1.3-5.594" transform="translate(5.237 61.253)" fill="#f35a38"/>
          <path id="Trazado_879168" data-name="Trazado 879168" d="M61.472,110.55c4.065-1.43,4.065-1.43,6.609-2.319a2.149,2.149,0,0,1,.524-.089,1.571,1.571,0,0,1,1.576,1.568,1.539,1.539,0,0,1-.694,1.264c-2.2,1.552-2.2,1.552-5.751,3.993a2.544,2.544,0,0,1-1.433.445,2.5,2.5,0,0,1-.831-4.862" transform="translate(5.911 63.127)" fill="#f35a38"/>
          <path id="Trazado_879169" data-name="Trazado 879169" d="M70.821,118.508,105.642,105.2l10.575-8.964,6.343-1.142,4.268,4.2-2.04,4.487,4.186,19.249h-3.281L111.2,119.907,80.237,135.654a9.912,9.912,0,0,1-2.255,1.147l-.071.036a10.155,10.155,0,0,1-3.277.554,9.814,9.814,0,0,1-3.814-18.883" transform="translate(-60.759 55.508)" fill="#f35a38"/>
          <rect id="Rectángulo_402432" data-name="Rectángulo 402432" width="1.583" height="6.869" transform="translate(65.845 165.96) rotate(-107.357)" fill="#262626"/>
          <path id="Trazado_879170" data-name="Trazado 879170" d="M.521,122.236c-.014,2.431,1.626,6.036,4.468,9.376a18.983,18.983,0,0,0,7.252,5.538,6.968,6.968,0,0,0,.968.277c1-1.582,2.079-3.324,3.223-5.171,9.376-15.163,22.647-37.65,22.647-37.65l.836-4.013L53.261,73.335,45.876,61.543l-19.615,3.9-.778,21.639L1.444,119.893l-.63.879a3.3,3.3,0,0,0-.293,1.465" transform="translate(116.688 35.925)" fill="#f35a38"/>
          <path id="Trazado_879171" data-name="Trazado 879171" d="M2.879,62.335l1.351,13L8.865,77.6l10.746-6.314L8.354,60.535Z" transform="translate(146.604 35.336)" fill="#262626"/>
          <path id="Trazado_879172" data-name="Trazado 879172" d="M.335,66.017a2.4,2.4,0,0,1,4.058-2.555c1.946,2.9,1.946,2.9,4.05,6.04a2.641,2.641,0,0,1,.436,1.579,2.6,2.6,0,0,1-4.837,1.193C2.117,69.028,2.112,69.02.346,66.035l-.011-.017" transform="translate(161.893 36.42)" fill="#f35a38"/>
          <path id="Trazado_879173" data-name="Trazado 879173" d="M9.764,65.572c.85-1.706.855-1.715,2.041-4.083a1.751,1.751,0,0,1,3.326.849,1.733,1.733,0,0,1-.393,1.012c-1.682,2.083-1.682,2.083-2.887,3.568a1.307,1.307,0,0,1-1.034.461,1.245,1.245,0,0,1-1.053-1.807" transform="translate(140.39 35.315)" fill="#73716e"/>
          <path id="Trazado_879174" data-name="Trazado 879174" d="M8.265,69.421c1.348-2.11,1.657-2.586,3.565-5.524a1.772,1.772,0,0,1,1.558-.8A1.743,1.743,0,0,1,14.6,66.013c-2.325,2.62-2.7,3.042-4.368,4.91a1.314,1.314,0,0,1-1,.418,1.253,1.253,0,0,1-1.186-1.314,1.219,1.219,0,0,1,.217-.6" transform="translate(142.98 36.833)" fill="#73716e"/>
          <path id="Trazado_879175" data-name="Trazado 879175" d="M6.6,70.863c1.194-2.089,1.194-2.089,2.949-5.119a1.752,1.752,0,0,1,3.266.968,1.736,1.736,0,0,1-.428,1.048c-2.276,2.659-2.276,2.659-3.844,4.482a1.269,1.269,0,0,1-.974.418A1.2,1.2,0,0,1,6.424,71.4a1.161,1.161,0,0,1,.171-.534" transform="translate(147.79 37.867)" fill="#73716e"/>
          <path id="Trazado_879176" data-name="Trazado 879176" d="M10.834,56.584a2.6,2.6,0,0,1,.909.22c3.014,1.275,3.185,1.155,5.358,1.007.07,0,.138-.006.209,0a1.771,1.771,0,0,1-.179,3.536,1.8,1.8,0,0,1-.209-.032c0,.008-5.432.475-5.432.475a2.891,2.891,0,0,1-.926.117,2.665,2.665,0,1,1,.271-5.323" transform="translate(139.06 33.028)" fill="#f35a38"/>
          <path id="Trazado_879177" data-name="Trazado 879177" d="M11.912,66.874c2.287-4.936,2.295-4.954,4.056-8.75a2.665,2.665,0,0,1,5.079,1.257,2.567,2.567,0,0,1-.1.576c-1.118,4.034-1.123,4.053-2.566,9.235a3.453,3.453,0,0,1-6.791-1.042,3.408,3.408,0,0,1,.32-1.276" transform="translate(131.371 33.028)" fill="#f35a38"/>
          <path id="Trazado_879178" data-name="Trazado 879178" d="M1.64,68.667c2.486-5.9,8.715-20.625,9.73-23.021a1.364,1.364,0,0,1,.917-.763,1.3,1.3,0,0,1,1.55.988,1.285,1.285,0,0,1-.021.6C13.191,49,9.26,64.491,7.684,70.7A3.2,3.2,0,1,1,1.64,68.667" transform="translate(154.729 26.181)" fill="#f35a38"/>
          <path id="Trazado_879179" data-name="Trazado 879179" d="M5.84,62.853c2.482-2.141,2.482-2.141,5.89-5.074a2.4,2.4,0,1,1,2.81,3.875L7.887,65.676A1.749,1.749,0,0,1,5.84,62.853" transform="translate(146.792 33.388)" fill="#f35a38"/>
          <path id="Trazado_879180" data-name="Trazado 879180" d="M4.258,65.454c2.482-2.141,2.482-2.141,5.89-5.074a2.4,2.4,0,1,1,2.81,3.875L6.3,68.277a1.749,1.749,0,0,1-2.046-2.824" transform="translate(150.879 34.906)" fill="#f35a38"/>
          <path id="Trazado_879181" data-name="Trazado 879181" d="M3.278,66.676c2.127-1.607,2.127-1.607,5.049-3.8A2.447,2.447,0,0,1,9.892,62.4a2.393,2.393,0,0,1,.893,4.563c-3.3,1.563-3.3,1.563-5.714,2.7a1.847,1.847,0,0,1-.835.163,1.744,1.744,0,0,1-.958-3.142" transform="translate(154.525 36.42)" fill="#f35a38"/>
          <rect id="Rectángulo_402433" data-name="Rectángulo 402433" width="1.583" height="15.719" transform="translate(107.386 167.823) rotate(-136.641)" fill="#262626"/>
          <rect id="Rectángulo_402434" data-name="Rectángulo 402434" width="15.137" height="1.584" transform="translate(18.606 255.792)" fill="#262626"/>
          <rect id="Rectángulo_402435" data-name="Rectángulo 402435" width="23.582" height="1.584" transform="translate(81.928 142.539)" fill="#262626"/>
          <rect id="Rectángulo_402436" data-name="Rectángulo 402436" width="11.341" height="1.584" transform="translate(24.765 128.065)" fill="#f2eadf"/>
          <path id="Trazado_879182" data-name="Trazado 879182" d="M14.521,77.959a2.952,2.952,0,0,1,1.142-.22,3.493,3.493,0,0,1,.675.074L15.3,79.248a.631.631,0,0,0-.234.059,2.7,2.7,0,0,0-1.348,2.1,8.772,8.772,0,0,0-.19,1.627,19.807,19.807,0,0,0,1.6,7.661c1.934,4.791,4.791,7.779,6.755,8.264a1.793,1.793,0,0,0,1.113-.03c.922-.38,1.493-1.729,1.538-3.722a5.367,5.367,0,0,0-.014-.673q.679-1.121,1.273-2.154a15.263,15.263,0,0,1,.206,2.871c-.073,2.637-.938,4.425-2.447,5.039a3.339,3.339,0,0,1-1.142.22,3.8,3.8,0,0,1-1.3-.249c-2.593-.893-5.45-4.352-7.339-9.01a22.052,22.052,0,0,1-1.685-7.6A4.92,4.92,0,0,1,12.06,83c.073-2.651.952-4.439,2.461-5.039" transform="translate(125.682 45.379)" fill="#f2eadf"/>
          <path id="Trazado_879183" data-name="Trazado 879183" d="M111.483,71.587a4.237,4.237,0,0,0,1.006-3.869l-.531-2.163,1.419-1.942-1.663-3.722,2.015-3.806-1.372-2.479,1.856-1.237a2.414,2.414,0,0,0,.405-3.658l-5.83-6.132a3.783,3.783,0,0,1-1.044-2.61,3.834,3.834,0,0,1,.3-1.492l.174-.415a9.7,9.7,0,0,0,.35-6.56l-1.5-4.986a9.718,9.718,0,0,0-2.36-4L94.7,12.278H63.992L51.423,34.137,56.2,53.873l50.7,18.832a4.211,4.211,0,0,0,4.585-1.118" transform="translate(-25.944 7.167)" fill="#f35a38"/>
          <path id="Trazado_879184" data-name="Trazado 879184" d="M56.946,30.039l2.947-1.91,6.009-.043L65.889,26.5l-6.47.046L56.086,28.71Z" transform="translate(16.047 15.47)" fill="#262626"/>
          <rect id="Rectángulo_402437" data-name="Rectángulo 402437" width="2.854" height="1.584" transform="translate(78.679 47.775) rotate(-97.125)" fill="#262626"/>
          <rect id="Rectángulo_402438" data-name="Rectángulo 402438" width="1.583" height="6.801" transform="matrix(-0.332, -0.943, 0.943, -0.332, 74.552, 50.282)" fill="#262626"/>
          <path id="Trazado_879185" data-name="Trazado 879185" d="M62.468,34.258v-4H60.884v1.7l-2.946-1.117-.561,1.481Z" transform="translate(17.435 17.664)" fill="#262626"/>
          <path id="Trazado_879186" data-name="Trazado 879186" d="M90.221,45.966l5.244,4.954a5.863,5.863,0,0,0,3.015-5.912l-.436-3.291a5.911,5.911,0,0,1,2.341-5.524l3.519-2.605a3.921,3.921,0,0,0,.8-5.47l-3.844-5.163,5.808-2.412a6.245,6.245,0,0,0,2.819-9.206c-.043-.063-33.585-.063-33.585-.063L62.9,34.459l5.575,22.3L81.994,67.671l2.55-21.529Z" transform="translate(-39.363 6.58)" fill="#262626"/>
          <path id="Trazado_879187" data-name="Trazado 879187" d="M85.681,45.7l-2.124.641-8.025-2.954a4.778,4.778,0,0,1-3.126-4.484V36.054a4.825,4.825,0,0,1,8.392-3.2l5.768,6.39Z" transform="translate(-30.464 18.257)" fill="#f35a38"/>
          <path id="Trazado_879188" data-name="Trazado 879188" d="M52.094,43.94h4.819l.881-.865a3.584,3.584,0,0,0,1.071-2.555V39.6Z" transform="translate(29.406 23.118)" fill="#262626"/>
          <path id="Trazado_879189" data-name="Trazado 879189" d="M56.911,42.342l1.433,1.6a2.049,2.049,0,0,1,.519,1.362V46.59l-6.77-4.248Z" transform="translate(29.409 24.716)" fill="#262626"/>
          <rect id="Rectángulo_402439" data-name="Rectángulo 402439" width="22.095" height="1.583" transform="translate(62.821 73.981) rotate(-159.624)" fill="#262626"/>
          <path id="Trazado_879190" data-name="Trazado 879190" d="M53.966,43.692H59.36V42.108h-3.81v-.722H53.966Z" transform="translate(25.947 24.158)" fill="#262626"/>
          <rect id="Rectángulo_402440" data-name="Rectángulo 402440" width="8.197" height="1.583" transform="translate(51.538 58.984) rotate(-132.608)" fill="#201600"/>
        </g>
      </g>
    </g>
  </g>
</svg>
