<svg xmlns="http://www.w3.org/2000/svg" width="162" height="235" viewBox="0 0 162 235">
  <g id="_7" data-name="7" transform="translate(-313.051 -2931)">
    <rect id="Rectángulo_402363" data-name="Rectángulo 402363" width="116" height="235" rx="9" transform="translate(335.051 2931)" fill="#10314b"/>
    <g id="votacion" transform="translate(313.01 2960.996)">
      <g id="Grupo_1101711" data-name="Grupo 1101711" transform="translate(2.414 2.373)">
        <g id="Grupo_1101705" data-name="Grupo 1101705" transform="translate(0.709 0.398)">
          <path id="Trazado_879245" data-name="Trazado 879245" d="M347.139,79.417H319.314a3.159,3.159,0,0,1-3.085-2.474,44.76,44.76,0,0,0-10.982-20.772q-1.011-1.1-2.1-2.117A45.283,45.283,0,0,0,282.4,42.873a3.161,3.161,0,0,1-2.449-3.079l0-27.872a3.171,3.171,0,0,1,3.629-3.132A78.559,78.559,0,0,1,350.271,75.8,3.168,3.168,0,0,1,347.139,79.417Z" transform="translate(-194.469 -8.757)" fill="#98d5b9"/>
          <path id="Trazado_879246" data-name="Trazado 879246" d="M80.131,11.922V39.769a3.161,3.161,0,0,1-2.458,3.082A44.771,44.771,0,0,0,57.318,53.592q-1.519,1.391-2.9,2.924A44.8,44.8,0,0,0,43.849,76.936a3.162,3.162,0,0,1-3.088,2.481H12.946A3.169,3.169,0,0,1,9.814,75.8a77.934,77.934,0,0,1,3.87-15.757A78.584,78.584,0,0,1,76.5,8.79a3.171,3.171,0,0,1,3.629,3.132Z" transform="translate(-9.783 -8.757)" fill="#fd9468"/>
        </g>
        <g id="Grupo_1101706" data-name="Grupo 1101706" transform="translate(0.709 86.194)">
          <path id="Trazado_879247" data-name="Trazado 879247" d="M350.271,283.533a77.964,77.964,0,0,1-3.87,15.76,78.585,78.585,0,0,1-62.818,51.254,3.171,3.171,0,0,1-3.629-3.132l0-27.872a3.161,3.161,0,0,1,2.449-3.079,45.283,45.283,0,0,0,20.743-11.182q1.092-1.02,2.1-2.117a44.759,44.759,0,0,0,10.982-20.772,3.159,3.159,0,0,1,3.085-2.474h27.824a3.168,3.168,0,0,1,3.132,3.613Z" transform="translate(-194.469 -279.92)" fill="#fe646f"/>
          <path id="Trazado_879248" data-name="Trazado 879248" d="M80.131,319.568v27.846a3.171,3.171,0,0,1-3.629,3.132A78.559,78.559,0,0,1,9.814,283.533a3.168,3.168,0,0,1,3.132-3.613H40.761a3.159,3.159,0,0,1,3.088,2.481,44.8,44.8,0,0,0,10.565,20.421q1.386,1.528,2.9,2.924a44.77,44.77,0,0,0,20.354,10.742A3.161,3.161,0,0,1,80.131,319.568Z" transform="translate(-9.783 -279.92)" fill="#fee45a"/>
        </g>
        <g id="Grupo_1101707" data-name="Grupo 1101707" transform="translate(105.134 105.134)">
          <path id="Trazado_879249" data-name="Trazado 879249" d="M387.329,340.213A78.836,78.836,0,0,1,340.3,387.5a18.1,18.1,0,0,1-.481-4.148V357.818A17.962,17.962,0,0,1,344.07,346.2a18.206,18.206,0,0,1,2.1-2.117,17.972,17.972,0,0,1,11.685-4.306h25.534A17.949,17.949,0,0,1,387.329,340.213Z" transform="translate(-339.821 -339.78)" fill="#fd4755"/>
          <path id="Trazado_879250" data-name="Trazado 879250" d="M403.9,412.408H378.371a8.546,8.546,0,0,1-8.546-8.546V378.33a8.546,8.546,0,0,1,8.546-8.546H403.9a8.546,8.546,0,0,1,8.546,8.546v25.532A8.546,8.546,0,0,1,403.9,412.408Z" transform="translate(-360.332 -360.291)" fill="#918291"/>
          <circle id="Elipse_11525" data-name="Elipse 11525" cx="10.32" cy="10.32" r="10.32" transform="translate(20.485 18.04)" fill="#ffcebf"/>
          <path id="Trazado_879251" data-name="Trazado 879251" d="M391.773,475.466H417.3a8.536,8.536,0,0,0,2.343-.328,15.261,15.261,0,0,0-30.218,0,8.536,8.536,0,0,0,2.343.328Z" transform="translate(-373.734 -423.349)" fill="#8ac9fe"/>
        </g>
        <g id="Grupo_1101708" data-name="Grupo 1101708" transform="translate(0 105.134)">
          <path id="Trazado_879252" data-name="Trazado 879252" d="M69.619,357.818v25.534a18.1,18.1,0,0,1-.481,4.148,78.836,78.836,0,0,1-47.027-47.286,17.951,17.951,0,0,1,3.936-.433H51.581a18.06,18.06,0,0,1,18.038,18.038Z" transform="translate(-17.501 -339.78)" fill="#fedf30"/>
          <path id="Trazado_879253" data-name="Trazado 879253" d="M41.619,412.408H16.087a8.546,8.546,0,0,1-8.546-8.546V378.33a8.546,8.546,0,0,1,8.546-8.546H41.619a8.546,8.546,0,0,1,8.546,8.546v25.532A8.546,8.546,0,0,1,41.619,412.408Z" transform="translate(-7.541 -360.291)" fill="#918291"/>
          <circle id="Elipse_11526" data-name="Elipse 11526" cx="10.32" cy="10.32" r="10.32" transform="translate(10.992 18.04)" fill="#ffcebf"/>
          <path id="Trazado_879254" data-name="Trazado 879254" d="M29.489,475.466H55.021a8.536,8.536,0,0,0,2.343-.328,15.262,15.262,0,0,0-30.218,0,8.536,8.536,0,0,0,2.343.328Z" transform="translate(-20.943 -423.349)" fill="#8ac9fe"/>
        </g>
        <g id="Grupo_1101709" data-name="Grupo 1101709" transform="translate(105.134)">
          <path id="Trazado_879255" data-name="Trazado 879255" d="M387.329,68.686a17.949,17.949,0,0,1-3.936.433H357.859a17.972,17.972,0,0,1-11.685-4.306,18.2,18.2,0,0,1-2.1-2.117,17.962,17.962,0,0,1-4.249-11.615V25.548A18.105,18.105,0,0,1,340.3,21.4,78.836,78.836,0,0,1,387.329,68.686Z" transform="translate(-339.821 -17.002)" fill="#57be92"/>
          <path id="Trazado_879256" data-name="Trazado 879256" d="M403.9,50.124H378.371a8.546,8.546,0,0,1-8.546-8.546V16.046A8.546,8.546,0,0,1,378.371,7.5H403.9a8.546,8.546,0,0,1,8.546,8.546V41.578A8.546,8.546,0,0,1,403.9,50.124Z" transform="translate(-360.332 -7.5)" fill="#918291"/>
          <circle id="Elipse_11527" data-name="Elipse 11527" cx="10.32" cy="10.32" r="10.32" transform="translate(20.485 8.546)" fill="#ffcebf"/>
          <path id="Trazado_879257" data-name="Trazado 879257" d="M391.773,113.182H417.3a8.536,8.536,0,0,0,2.343-.328,15.261,15.261,0,0,0-30.218,0,8.548,8.548,0,0,0,2.343.328Z" transform="translate(-373.734 -70.558)" fill="#8ac9fe"/>
        </g>
        <g id="Grupo_1101710" data-name="Grupo 1101710">
          <path id="Trazado_879258" data-name="Trazado 879258" d="M69.619,25.548V51.082A18.066,18.066,0,0,1,51.581,69.12H26.047a17.95,17.95,0,0,1-3.936-.433A78.836,78.836,0,0,1,69.138,21.4a18.105,18.105,0,0,1,.481,4.148Z" transform="translate(-17.501 -17.002)" fill="#fe7d43"/>
          <path id="Trazado_879259" data-name="Trazado 879259" d="M41.619,50.124H16.087a8.546,8.546,0,0,1-8.546-8.546V16.046A8.546,8.546,0,0,1,16.087,7.5H41.619a8.546,8.546,0,0,1,8.546,8.546V41.578A8.546,8.546,0,0,1,41.619,50.124Z" transform="translate(-7.541 -7.5)" fill="#918291"/>
          <circle id="Elipse_11528" data-name="Elipse 11528" cx="10.32" cy="10.32" r="10.32" transform="translate(10.992 8.546)" fill="#ffcebf"/>
          <path id="Trazado_879260" data-name="Trazado 879260" d="M29.489,113.182H55.021a8.537,8.537,0,0,0,2.343-.328,15.262,15.262,0,0,0-30.218,0,8.549,8.549,0,0,0,2.343.328Z" transform="translate(-20.943 -70.558)" fill="#8ac9fe"/>
        </g>
      </g>
      <path id="Trazado_879261" data-name="Trazado 879261" d="M71.7,103.483a2.371,2.371,0,0,0,3.106-1.27l17.41-41.484a2.373,2.373,0,0,0-4.376-1.837l-17.41,41.484A2.373,2.373,0,0,0,71.7,103.483ZM59.217,66.817c0,6.238,4.515,11.312,10.066,11.312s10.066-5.075,10.066-11.312S74.833,55.5,69.283,55.5,59.217,60.579,59.217,66.817Zm15.385,0c0,3.621-2.386,6.566-5.32,6.566s-5.32-2.946-5.32-6.566,2.387-6.566,5.32-6.566S74.6,63.2,74.6,66.817ZM7.438,46.782A80.321,80.321,0,0,0,.8,69.53,5.591,5.591,0,0,0,6.286,75.8H34.1a5.5,5.5,0,0,0,5.4-4.343A42.72,42.72,0,0,1,71.545,39.176a5.507,5.507,0,0,0,4.3-5.394V5.936A5.591,5.591,0,0,0,69.546.45a80.275,80.275,0,0,0-22.777,6.78A10.938,10.938,0,0,0,36.492,0H10.96A10.932,10.932,0,0,0,.041,10.919V36.451a10.934,10.934,0,0,0,7.4,10.331ZM47.411,36.451V12.186a75.548,75.548,0,0,1,22.8-7.037.76.76,0,0,1,.609.182.792.792,0,0,1,.276.6V33.783a.784.784,0,0,1-.613.768A47.486,47.486,0,0,0,34.872,70.437a.784.784,0,0,1-.769.62H6.286a.737.737,0,0,1-.787-.882A75.6,75.6,0,0,1,12.41,47.37H36.492A10.979,10.979,0,0,0,47.411,36.451ZM23.726,33.932A12.956,12.956,0,0,1,35.91,42.624H12.059a2.346,2.346,0,0,0-.458-.16A12.954,12.954,0,0,1,23.726,33.932ZM15.779,21.239a7.947,7.947,0,1,1,7.947,7.947A7.956,7.956,0,0,1,15.779,21.239ZM4.787,10.919A6.18,6.18,0,0,1,10.96,4.746H36.492a6.18,6.18,0,0,1,6.173,6.173V36.451a6.161,6.161,0,0,1-2.227,4.742,17.763,17.763,0,0,0-8.746-10.082,12.693,12.693,0,1,0-15.932,0A17.762,17.762,0,0,0,7.014,41.193a6.162,6.162,0,0,1-2.227-4.742V10.919Zm66.757,111.9A42.66,42.66,0,0,1,39.057,88.188a2.373,2.373,0,0,0-2.342-1.993H2.74A2.373,2.373,0,0,0,.377,88.782a80.631,80.631,0,0,0,4.793,21,2.373,2.373,0,1,0,4.444-1.666A75.85,75.85,0,0,1,5.383,90.941H34.739a47.419,47.419,0,0,0,35.745,36.506.784.784,0,0,1,.613.768v27.848a.733.733,0,0,1-.886.787,75.579,75.579,0,0,1-22.8-7.035V125.547a10.932,10.932,0,0,0-10.919-10.919H10.96A10.932,10.932,0,0,0,.041,125.547v25.532A10.917,10.917,0,0,0,10.96,162H36.492c3.481.389,9.225-3.222,10.275-7.23a80.311,80.311,0,0,0,22.777,6.78,5.533,5.533,0,0,0,6.3-5.485V128.214a5.507,5.507,0,0,0-4.3-5.394Zm-60,34.431a12.889,12.889,0,0,1,24.373,0Zm4.239-21.385a7.947,7.947,0,1,1,7.947,7.947,7.956,7.956,0,0,1-7.947-7.947Zm26.886,15.212a6.162,6.162,0,0,1-2.227,4.743,17.763,17.763,0,0,0-8.746-10.082,12.693,12.693,0,1,0-15.932,0,17.762,17.762,0,0,0-8.746,10.082,6.162,6.162,0,0,1-2.227-4.743V125.546a6.18,6.18,0,0,1,6.173-6.173H36.492a6.18,6.18,0,0,1,6.173,6.173v25.532Zm111.977-35.864a80.258,80.258,0,0,0,6.641-22.747,5.534,5.534,0,0,0-5.49-6.273H127.969a5.5,5.5,0,0,0-5.4,4.332A42.948,42.948,0,0,1,90.513,122.8a5.511,5.511,0,0,0-4.281,5.39l0,27.873a5.533,5.533,0,0,0,6.3,5.485,80.315,80.315,0,0,0,22.779-6.779A11,11,0,0,0,125.588,162h25.532a10.981,10.981,0,0,0,10.919-10.919V125.547a10.937,10.937,0,0,0-7.4-10.333Zm-39.974,10.333v24.268a75.58,75.58,0,0,1-22.8,7.034.756.756,0,0,1-.609-.182.792.792,0,0,1-.276-.6l0-27.873a.785.785,0,0,1,.612-.767A47.718,47.718,0,0,0,127.2,91.557a.783.783,0,0,1,.769-.617h27.825a.793.793,0,0,1,.6.275.761.761,0,0,1,.184.607,75.522,75.522,0,0,1-6.911,22.805H125.587a10.932,10.932,0,0,0-10.919,10.919Zm11.5,31.7a12.886,12.886,0,0,1,24.369,0Zm4.238-21.385a7.947,7.947,0,1,1,7.947,7.947A7.956,7.956,0,0,1,130.406,135.866Zm26.886,15.212a6.162,6.162,0,0,1-2.227,4.743,17.763,17.763,0,0,0-8.746-10.082,12.693,12.693,0,1,0-15.932,0,17.761,17.761,0,0,0-8.746,10.082,6.162,6.162,0,0,1-2.227-4.743V125.546a6.18,6.18,0,0,1,6.173-6.173h25.362a2.374,2.374,0,0,0,.277.005,6.178,6.178,0,0,1,6.066,6.168v25.532ZM151.119,0H125.587a10.937,10.937,0,0,0-10.276,7.228A80.315,80.315,0,0,0,92.534.45a5.584,5.584,0,0,0-6.3,5.485l0,27.872a5.512,5.512,0,0,0,4.28,5.391,42.948,42.948,0,0,1,32.055,32.274,5.5,5.5,0,0,0,5.4,4.332h27.825a5.6,5.6,0,0,0,5.49-6.273,80.669,80.669,0,0,0-3.991-16.277,2.373,2.373,0,1,0-4.467,1.6,75.928,75.928,0,0,1,3.755,15.317.733.733,0,0,1-.787.882H127.969a.783.783,0,0,1-.769-.617A47.718,47.718,0,0,0,91.589,34.576a.786.786,0,0,1-.611-.768l0-27.872a.74.74,0,0,1,.885-.787,75.578,75.578,0,0,1,22.8,7.034V36.451A10.986,10.986,0,0,0,125.587,47.37h25.532c5.482.156,11.062-4.908,10.919-10.919V10.919A10.931,10.931,0,0,0,151.119,0Zm-24.95,42.624a12.886,12.886,0,0,1,24.369,0Zm4.238-21.385a7.947,7.947,0,1,1,7.947,7.947A7.956,7.956,0,0,1,130.406,21.239Zm26.886,15.212a6.161,6.161,0,0,1-2.227,4.742,17.763,17.763,0,0,0-8.746-10.082,12.693,12.693,0,1,0-15.932,0,17.762,17.762,0,0,0-8.746,10.082,6.162,6.162,0,0,1-2.227-4.742V10.919a6.18,6.18,0,0,1,6.173-6.173h25.532a6.18,6.18,0,0,1,6.173,6.173V36.451ZM102.862,95.18c0-6.238-4.515-11.312-10.066-11.312S82.731,88.943,82.731,95.18s4.515,11.312,10.066,11.312S102.862,101.418,102.862,95.18Zm-15.385,0c0-3.621,2.386-6.566,5.32-6.566s5.32,2.946,5.32,6.566-2.387,6.566-5.32,6.566S87.477,98.8,87.477,95.18Z"/>
    </g>
  </g>
</svg>
