<svg xmlns="http://www.w3.org/2000/svg" width="89" height="89" viewBox="0 0 89 89">
  <g id="_8" data-name="8" transform="translate(-335 -2442)">
    <rect id="Rectángulo_400907" data-name="Rectángulo 400907" width="89" height="89" rx="44.5" transform="translate(335 2442)" fill="#3ba935"/>
    <g id="encuesta-" transform="translate(347.051 2454)">
      <g id="Grupo_1107350" data-name="Grupo 1107350">
        <path id="Trazado_880344" data-name="Trazado 880344" d="M50,20V8H24V62H62V20Z" fill="#c7e2fc"/>
      </g>
      <g id="Grupo_1107351" data-name="Grupo 1107351">
        <path id="Trazado_880345" data-name="Trazado 880345" d="M50,8H40.476A30.676,30.676,0,0,0,35,25.5c0,15.579,11.672,28.508,27,31.042V20H50Z" fill="#ebf7fe"/>
      </g>
      <g id="Grupo_1107352" data-name="Grupo 1107352">
        <path id="Trazado_880346" data-name="Trazado 880346" d="M48,50h8a2,2,0,0,1,2,2v6H46V52A2,2,0,0,1,48,50Z" fill="#3d98f7"/>
      </g>
      <g id="Grupo_1107353" data-name="Grupo 1107353">
        <path id="Trazado_880347" data-name="Trazado 880347" d="M52,40a3,3,0,0,1,3,3v2a3,3,0,0,1-6,0V43A3,3,0,0,1,52,40Z" fill="#efbe9a"/>
      </g>
      <g id="Grupo_1107354" data-name="Grupo 1107354">
        <path id="Trazado_880348" data-name="Trazado 880348" d="M21,33.719A15.984,15.984,0,1,1,33.719,21" fill="#669e4f"/>
      </g>
      <g id="Grupo_1107355" data-name="Grupo 1107355">
        <path id="Trazado_880349" data-name="Trazado 880349" d="M22,38A16,16,0,0,0,38,22L18,18Z" fill="#c66b60"/>
      </g>
      <g id="Grupo_1107356" data-name="Grupo 1107356">
        <path id="Trazado_880350" data-name="Trazado 880350" d="M62,20H50V8" fill="#8892a0"/>
      </g>
      <g id="Grupo_1107357" data-name="Grupo 1107357">
        <path id="Trazado_880351" data-name="Trazado 880351" d="M18,35A16.986,16.986,0,1,1,34.7,21.187l-1.965-.373A14.988,14.988,0,1,0,20.813,32.736l.373,1.965A17.133,17.133,0,0,1,18,35Z"/>
      </g>
      <g id="Grupo_1107358" data-name="Grupo 1107358">
        <path id="Trazado_880352" data-name="Trazado 880352" d="M22,39a1,1,0,0,1-.98-.8l-4-20A1,1,0,0,1,18.2,17.02l20,4A1,1,0,0,1,39,22,17.019,17.019,0,0,1,22,39ZM19.274,19.274l3.541,17.7A15.024,15.024,0,0,0,36.978,22.815Z"/>
      </g>
      <g id="Grupo_1107359" data-name="Grupo 1107359">
        <path id="Trazado_880353" data-name="Trazado 880353" d="M8,9h2v2H8Z"/>
      </g>
      <g id="Grupo_1107360" data-name="Grupo 1107360">
        <path id="Trazado_880354" data-name="Trazado 880354" d="M12,9H28v2H12Z"/>
      </g>
      <g id="Grupo_1107361" data-name="Grupo 1107361">
        <path id="Trazado_880355" data-name="Trazado 880355" d="M26,13h2v2H26Z"/>
      </g>
      <g id="Grupo_1107362" data-name="Grupo 1107362">
        <path id="Trazado_880356" data-name="Trazado 880356" d="M8,13H24v2H8Z"/>
      </g>
      <g id="Grupo_1107363" data-name="Grupo 1107363">
        <path id="Trazado_880357" data-name="Trazado 880357" d="M62,63H24a1,1,0,0,1-1-1V38h2V61H61V21H50a1,1,0,0,1-1-1V9H30V7H50a1,1,0,0,1,1,1V19H62a1,1,0,0,1,1,1V62A1,1,0,0,1,62,63Z"/>
      </g>
      <g id="Grupo_1107364" data-name="Grupo 1107364">
        <path id="Trazado_880358" data-name="Trazado 880358" d="M55,5.515h2V22.486H55Z" transform="translate(6.503 43.699) rotate(-45)"/>
      </g>
      <g id="Grupo_1107365" data-name="Grupo 1107365">
        <path id="Trazado_880359" data-name="Trazado 880359" d="M58,59H46a1,1,0,0,1-1-1V52a3,3,0,0,1,3-3h8a3,3,0,0,1,3,3v6A1,1,0,0,1,58,59ZM47,57H57V52a1,1,0,0,0-1-1H48a1,1,0,0,0-1,1Z"/>
      </g>
      <g id="Grupo_1107366" data-name="Grupo 1107366">
        <path id="Trazado_880360" data-name="Trazado 880360" d="M54,53h2v5H54Z"/>
      </g>
      <g id="Grupo_1107367" data-name="Grupo 1107367">
        <path id="Trazado_880361" data-name="Trazado 880361" d="M48,53h2v5H48Z"/>
      </g>
      <g id="Grupo_1107368" data-name="Grupo 1107368">
        <path id="Trazado_880362" data-name="Trazado 880362" d="M52,49a4,4,0,0,1-4-4V43a4,4,0,0,1,8,0v2A4,4,0,0,1,52,49Zm0-8a2,2,0,0,0-2,2v2a2,2,0,0,0,4,0V43A2,2,0,0,0,52,41Z"/>
      </g>
      <g id="Grupo_1107369" data-name="Grupo 1107369">
        <path id="Trazado_880363" data-name="Trazado 880363" d="M30,59c-.029,0-.06,0-.09,0a1,1,0,0,1-.805-.549l-2-4,1.789-.9L30.17,56.1l5.03-6.7,1.6,1.2-6,8a1,1,0,0,1-.8.4Z"/>
      </g>
      <g id="Grupo_1107370" data-name="Grupo 1107370">
        <path id="Trazado_880364" data-name="Trazado 880364" d="M30,47c-.029,0-.06,0-.09,0a1,1,0,0,1-.805-.549l-2-4,1.789-.9L30.17,44.1l5.03-6.7,1.6,1.2-6,8a1,1,0,0,1-.8.4Z"/>
      </g>
      <g id="Grupo_1107371" data-name="Grupo 1107371">
        <path id="Trazado_880365" data-name="Trazado 880365" d="M41,23h2v2H41Z"/>
      </g>
      <g id="Grupo_1107372" data-name="Grupo 1107372">
        <path id="Trazado_880366" data-name="Trazado 880366" d="M45,23H59v2H45Z"/>
      </g>
      <g id="Grupo_1107373" data-name="Grupo 1107373">
        <path id="Trazado_880367" data-name="Trazado 880367" d="M57,27h2v2H57Z"/>
      </g>
      <g id="Grupo_1107374" data-name="Grupo 1107374">
        <path id="Trazado_880368" data-name="Trazado 880368" d="M41,27H55v2H41Z"/>
      </g>
    </g>
  </g>
</svg>
