<svg xmlns="http://www.w3.org/2000/svg" xmlns:xlink="http://www.w3.org/1999/xlink" width="400.677" height="364.438" viewBox="0 0 400.677 364.438">
  <defs>
    <clipPath id="clip-path">
      <rect id="Rectángulo_402034" data-name="Rectángulo 402034" width="186.071" height="154.328" fill="none"/>
    </clipPath>
    <clipPath id="clip-path-2">
      <rect id="Rectángulo_402033" data-name="Rectángulo 402033" width="186.071" height="154.329" fill="none"/>
    </clipPath>
    <clipPath id="clip-path-3">
      <rect id="Rectángulo_402012" data-name="Rectángulo 402012" width="10.032" height="36.872" fill="none"/>
    </clipPath>
    <clipPath id="clip-path-4">
      <rect id="Rectángulo_402015" data-name="Rectángulo 402015" width="10.031" height="83.838" fill="none"/>
    </clipPath>
    <clipPath id="clip-path-5">
      <rect id="Rectángulo_402018" data-name="Rectángulo 402018" width="10.031" height="101.402" fill="none"/>
    </clipPath>
    <clipPath id="clip-path-7">
      <rect id="Rectángulo_402024" data-name="Rectángulo 402024" width="10.032" height="121.428" fill="none"/>
    </clipPath>
    <clipPath id="clip-path-8">
      <rect id="Rectángulo_402027" data-name="Rectángulo 402027" width="10.032" height="53.21" fill="none"/>
    </clipPath>
    <clipPath id="clip-path-9">
      <rect id="Rectángulo_402006" data-name="Rectángulo 402006" width="167.393" height="161.168" fill="none"/>
    </clipPath>
    <clipPath id="clip-path-10">
      <rect id="Rectángulo_402464" data-name="Rectángulo 402464" width="400" height="346.268" rx="27" transform="translate(180.051 4148.687)" fill="#3ba935"/>
    </clipPath>
    <clipPath id="clip-path-11">
      <rect id="Rectángulo_402463" data-name="Rectángulo 402463" width="284.933" height="732.099" fill="none"/>
    </clipPath>
    <clipPath id="clip-path-13">
      <rect id="Rectángulo_402456" data-name="Rectángulo 402456" width="6.328" height="6.189" fill="none"/>
    </clipPath>
    <clipPath id="clip-path-14">
      <rect id="Rectángulo_402457" data-name="Rectángulo 402457" width="52.908" height="68.486" fill="none"/>
    </clipPath>
    <clipPath id="clip-path-15">
      <rect id="Rectángulo_402458" data-name="Rectángulo 402458" width="6.412" height="6.394" fill="none"/>
    </clipPath>
    <clipPath id="clip-path-16">
      <rect id="Rectángulo_402459" data-name="Rectángulo 402459" width="82.414" height="6.865" fill="none"/>
    </clipPath>
    <clipPath id="clip-path-17">
      <rect id="Rectángulo_402460" data-name="Rectángulo 402460" width="15.043" height="28.216" fill="none"/>
    </clipPath>
    <clipPath id="clip-path-18">
      <rect id="Rectángulo_402461" data-name="Rectángulo 402461" width="73.232" height="38.197" fill="none"/>
    </clipPath>
  </defs>
  <g id="_9" data-name="9" transform="translate(-180.051 -4134.268)">
    <rect id="Rectángulo_402369" data-name="Rectángulo 402369" width="400" height="261.268" rx="27" transform="translate(180.051 4233.687)" fill="#3ba935"/>
    <g id="Grupo_1101038" data-name="Grupo 1101038" transform="translate(311.625 4134.268)">
      <g id="Grupo_1101037" data-name="Grupo 1101037" clip-path="url(#clip-path)">
        <g id="Grupo_1101036" data-name="Grupo 1101036" transform="translate(0 -0.001)">
          <g id="Grupo_1101035" data-name="Grupo 1101035" clip-path="url(#clip-path-2)">
            <path id="Trazado_877824" data-name="Trazado 877824" d="M177.806,154.329H8.265A8.265,8.265,0,0,1,0,146.063V8.265A8.266,8.266,0,0,1,8.265,0h169.54a8.267,8.267,0,0,1,8.265,8.265v137.8a8.266,8.266,0,0,1-8.265,8.265" transform="translate(0 0.001)" fill="#e6e6e6"/>
            <rect id="Rectángulo_402007" data-name="Rectángulo 402007" width="10.032" height="75.726" transform="translate(32.472 61.79)" fill="#e2dacc"/>
            <rect id="Rectángulo_402008" data-name="Rectángulo 402008" width="10.032" height="81.87" transform="translate(78.06 55.646)" fill="#e2dacc"/>
            <rect id="Rectángulo_402009" data-name="Rectángulo 402009" width="10.032" height="92.267" transform="translate(125.282 45.25)" fill="#e2dacc"/>
            <rect id="Rectángulo_402010" data-name="Rectángulo 402010" width="10.032" height="36.872" transform="translate(103.101 100.645)" fill="#e2dacc"/>
            <g id="Grupo_1101019" data-name="Grupo 1101019" transform="translate(103.1 100.645)" opacity="0.2">
              <g id="Grupo_1101018" data-name="Grupo 1101018">
                <g id="Grupo_1101017" data-name="Grupo 1101017" clip-path="url(#clip-path-3)">
                  <rect id="Rectángulo_402011" data-name="Rectángulo 402011" width="10.032" height="36.872" transform="translate(0)"/>
                </g>
              </g>
            </g>
            <rect id="Rectángulo_402013" data-name="Rectángulo 402013" width="10.032" height="83.838" transform="translate(44.163 53.679)" fill="#e2dacc"/>
            <g id="Grupo_1101022" data-name="Grupo 1101022" transform="translate(44.163 53.679)" opacity="0.1">
              <g id="Grupo_1101021" data-name="Grupo 1101021">
                <g id="Grupo_1101020" data-name="Grupo 1101020" clip-path="url(#clip-path-4)">
                  <rect id="Rectángulo_402014" data-name="Rectángulo 402014" width="10.032" height="83.838" transform="translate(0)"/>
                </g>
              </g>
            </g>
            <rect id="Rectángulo_402016" data-name="Rectángulo 402016" width="10.032" height="101.403" transform="translate(90.568 36.114)" fill="#e2dacc"/>
            <g id="Grupo_1101025" data-name="Grupo 1101025" transform="translate(90.568 36.114)" opacity="0.1">
              <g id="Grupo_1101024" data-name="Grupo 1101024">
                <g id="Grupo_1101023" data-name="Grupo 1101023" clip-path="url(#clip-path-5)">
                  <rect id="Rectángulo_402017" data-name="Rectángulo 402017" width="10.032" height="101.403" transform="translate(0 -0.001)"/>
                </g>
              </g>
            </g>
            <rect id="Rectángulo_402019" data-name="Rectángulo 402019" width="10.032" height="101.403" transform="translate(151.151 36.114)" fill="#e2dacc"/>
            <g id="Grupo_1101028" data-name="Grupo 1101028" transform="translate(151.152 36.114)" opacity="0.2">
              <g id="Grupo_1101027" data-name="Grupo 1101027">
                <g id="Grupo_1101026" data-name="Grupo 1101026" clip-path="url(#clip-path-5)">
                  <rect id="Rectángulo_402020" data-name="Rectángulo 402020" width="10.032" height="101.403" transform="translate(-0.001 -0.001)"/>
                </g>
              </g>
            </g>
            <rect id="Rectángulo_402022" data-name="Rectángulo 402022" width="10.032" height="121.428" transform="translate(138.061 16.089)" fill="#e2dacc"/>
            <g id="Grupo_1101031" data-name="Grupo 1101031" transform="translate(138.061 16.089)" opacity="0.1">
              <g id="Grupo_1101030" data-name="Grupo 1101030">
                <g id="Grupo_1101029" data-name="Grupo 1101029" clip-path="url(#clip-path-7)">
                  <rect id="Rectángulo_402023" data-name="Rectángulo 402023" width="10.032" height="121.428" transform="translate(0 0)"/>
                </g>
              </g>
            </g>
            <rect id="Rectángulo_402025" data-name="Rectángulo 402025" width="10.032" height="53.21" transform="translate(56.433 84.306)" fill="#e2dacc"/>
            <g id="Grupo_1101034" data-name="Grupo 1101034" transform="translate(56.433 84.307)" opacity="0.2">
              <g id="Grupo_1101033" data-name="Grupo 1101033">
                <g id="Grupo_1101032" data-name="Grupo 1101032" clip-path="url(#clip-path-8)">
                  <rect id="Rectángulo_402026" data-name="Rectángulo 402026" width="10.032" height="53.21" transform="translate(0.001 0)"/>
                </g>
              </g>
            </g>
            <path id="Trazado_877825" data-name="Trazado 877825" d="M169.228,85.058c0,.241-35.792.435-79.933.435-44.156,0-79.94-.194-79.94-.435s35.784-.435,79.94-.435c44.141,0,79.933.194,79.933.435" transform="translate(6.306 57.051)" fill="#263238"/>
            <rect id="Rectángulo_402028" data-name="Rectángulo 402028" width="6.121" height="2.017" transform="translate(11.013 124.046)" fill="#263238"/>
            <rect id="Rectángulo_402029" data-name="Rectángulo 402029" width="6.121" height="2.017" transform="translate(11.013 97.099)" fill="#263238"/>
            <rect id="Rectángulo_402030" data-name="Rectángulo 402030" width="6.121" height="2.017" transform="translate(11.013 46.383)" fill="#263238"/>
            <rect id="Rectángulo_402031" data-name="Rectángulo 402031" width="6.121" height="2.017" transform="translate(11.013 20.895)" fill="#263238"/>
            <rect id="Rectángulo_402032" data-name="Rectángulo 402032" width="6.121" height="2.017" transform="translate(11.322 71.742)" fill="#263238"/>
          </g>
        </g>
      </g>
    </g>
    <path id="Trazado_873354" data-name="Trazado 873354" d="M399.25,458.026a13.575,13.575,0,0,1-3.988,9.63l-13.784,13.78,13.784,13.78A13.621,13.621,0,1,1,376,514.48l-13.78-13.78-13.78,13.78a13.62,13.62,0,0,1-19.26-19.263l13.78-13.78-13.78-13.78a13.62,13.62,0,0,1,0-19.26h0a13.621,13.621,0,0,1,19.26,0l13.78,13.78L376,448.4a13.626,13.626,0,0,1,19.264,0h0a13.577,13.577,0,0,1,3.988,9.63Z" transform="translate(-121.625 3741.602)" fill="#10314b"/>
    <path id="Trazado_113514" data-name="Trazado 113514" d="M358.868,450.6a6.173,6.173,0,0,1-1.813,4.379l-6.268,6.267,6.268,6.267a6.194,6.194,0,1,1-8.76,8.76l-6.266-6.266-6.266,6.266a6.194,6.194,0,0,1-8.758-8.76l6.266-6.267L327,454.98a6.194,6.194,0,0,1,0-8.758h0a6.194,6.194,0,0,1,8.758,0l6.266,6.267,6.266-6.267a6.2,6.2,0,0,1,8.76,0h0a6.174,6.174,0,0,1,1.813,4.379Z" transform="translate(189.214 3807.896)" fill="#fff"/>
    <path id="Trazado_113320" data-name="Trazado 113320" d="M2630.522,1557.805a35.051,35.051,0,1,0-35.051-35.051A35.091,35.091,0,0,0,2630.522,1557.805Zm0-53.551a18.5,18.5,0,1,1-18.5,18.5A18.52,18.52,0,0,1,2630.522,1504.255Z" transform="translate(-2084.846 2940.899)" fill="#fff"/>
    <g id="Grupo_1101016" data-name="Grupo 1101016" transform="translate(395.051 4299.603)">
      <g id="Grupo_1101015" data-name="Grupo 1101015" clip-path="url(#clip-path-9)">
        <path id="Trazado_877812" data-name="Trazado 877812" d="M158.983,161.168H8.411A8.411,8.411,0,0,1,0,152.757V8.411A8.411,8.411,0,0,1,8.411,0H158.983a8.41,8.41,0,0,1,8.41,8.411V152.757a8.41,8.41,0,0,1-8.41,8.411" fill="#e6e6e6"/>
        <rect id="Rectángulo_401993" data-name="Rectángulo 401993" width="5.494" height="1.583" transform="translate(11.698 110.409)" fill="#263238"/>
        <rect id="Rectángulo_401994" data-name="Rectángulo 401994" width="7.026" height="1.583" transform="translate(24.126 118.873)" fill="#263238"/>
        <rect id="Rectángulo_401995" data-name="Rectángulo 401995" width="7.026" height="1.583" transform="translate(48.584 118.873)" fill="#263238"/>
        <rect id="Rectángulo_401996" data-name="Rectángulo 401996" width="7.026" height="1.583" transform="translate(73.041 118.873)" fill="#263238"/>
        <rect id="Rectángulo_401997" data-name="Rectángulo 401997" width="7.026" height="1.583" transform="translate(97.499 118.873)" fill="#263238"/>
        <rect id="Rectángulo_401998" data-name="Rectángulo 401998" width="7.026" height="1.583" transform="translate(121.956 118.873)" fill="#263238"/>
        <rect id="Rectángulo_401999" data-name="Rectángulo 401999" width="7.026" height="1.583" transform="translate(146.413 118.873)" fill="#263238"/>
        <rect id="Rectángulo_402000" data-name="Rectángulo 402000" width="5.494" height="1.583" transform="translate(11.698 89.265)" fill="#263238"/>
        <rect id="Rectángulo_402001" data-name="Rectángulo 402001" width="5.494" height="1.583" transform="translate(11.698 49.47)" fill="#263238"/>
        <rect id="Rectángulo_402002" data-name="Rectángulo 402002" width="5.494" height="1.583" transform="translate(11.698 29.472)" fill="#263238"/>
        <rect id="Rectángulo_402003" data-name="Rectángulo 402003" width="5.494" height="1.583" transform="translate(11.977 69.368)" fill="#263238"/>
        <path id="Trazado_877813" data-name="Trazado 877813" d="M153.242,111.992s-.2.018-.589.027l-1.729.025-6.647.049-24.448.083-80.658.076-19.114,0H19.8v-.257c.035-26.971.065-50.706.087-67.719.033-8.484.06-15.291.078-20,.019-2.328.034-4.136.044-5.383.01-.6.018-1.061.023-1.394.008-.313.024-.473.024-.473s.016.16.024.473c.006.333.014.794.024,1.394.01,1.247.025,3.055.044,5.383.018,4.707.044,11.514.077,20,.022,17.013.053,40.748.088,67.719l-.257-.257,19.114,0,80.658.076,24.448.083,6.647.048,1.729.026c.39.009.589.027.589.027" fill="#263238"/>
        <path id="Trazado_877814" data-name="Trazado 877814" d="M154.79,70.159c0,.144-28.974.26-64.706.26s-64.712-.116-64.712-.26,28.967-.26,64.712-.26,64.706.116,64.706.26" fill="#263238"/>
        <path id="Trazado_877815" data-name="Trazado 877815" d="M154.79,50.262c0,.144-28.974.26-64.706.26s-64.712-.116-64.712-.26S54.339,50,90.084,50s64.706.116,64.706.26" fill="#263238"/>
        <path id="Trazado_877816" data-name="Trazado 877816" d="M154.79,30.263c0,.144-28.974.26-64.706.26s-64.712-.116-64.712-.26S54.339,30,90.084,30s64.706.116,64.706.26" fill="#263238"/>
        <path id="Trazado_877817" data-name="Trazado 877817" d="M154.79,90.057c0,.144-28.974.26-64.706.26s-64.712-.116-64.712-.26,28.967-.26,64.712-.26,64.706.116,64.706.26" fill="#263238"/>
        <path id="Trazado_877818" data-name="Trazado 877818" d="M26.706,107.711V90.057l11-17.081L45.176,78.7,60.5,54.9l9.039,6.365L82.115,39.3l10.217,8.324,15.326-29.134,16.5,32.562,13.361-16.292,15.719-4.5v77.447Z" fill="#e2dacc"/>
        <path id="Trazado_877819" data-name="Trazado 877819" d="M154.79,24a1.481,1.481,0,0,1-.277.02l-.819.019-3.19.038-12.062.068.115-.057-12.925,16.9-.061.08h-.1L93.108,41.1l.214-.122-13.6,22.651-13.358,22.2-.195.324-.223-.306-17.528-24.1.35-.011L32.772,86.651c-1.917,2.96-3.422,5.283-4.46,6.887l-1.183,1.8c-.27.4-.423.6-.423.6s.116-.223.368-.638L28.2,93.47l4.362-6.95c3.805-6.008,9.244-14.6,15.838-25.011l.167-.263.184.252L66.347,85.557l-.418.018L79.271,63.364,92.893,40.723l.073-.121h.142l32.361.044-.163.081,13.021-16.82.044-.057h.071l12.062.068,3.19.038.819.019a1.481,1.481,0,0,1,.277.02" fill="#263238"/>
        <path id="Trazado_877820" data-name="Trazado 877820" d="M53.889,67.281a1.242,1.242,0,1,1-1.242-1.195,1.219,1.219,0,0,1,1.242,1.195" fill="#263238"/>
        <path id="Trazado_877821" data-name="Trazado 877821" d="M91.216,46.065a1.242,1.242,0,1,1-1.242-1.195,1.22,1.22,0,0,1,1.242,1.195" fill="#263238"/>
        <path id="Trazado_877822" data-name="Trazado 877822" d="M120.233,40.853a1.242,1.242,0,1,1-1.242-1.195,1.219,1.219,0,0,1,1.242,1.195" fill="#263238"/>
        <path id="Trazado_877823" data-name="Trazado 877823" d="M40.185,140.027a8.035,8.035,0,1,1-8.029-7.73,7.884,7.884,0,0,1,8.029,7.73" fill="#fff"/>
        <rect id="Rectángulo_402004" data-name="Rectángulo 402004" width="94.317" height="2.893" transform="translate(52.097 134.85)" fill="#fff"/>
        <rect id="Rectángulo_402005" data-name="Rectángulo 402005" width="39.161" height="2.893" transform="translate(52.097 142.075)" fill="#fff"/>
      </g>
    </g>
    <g id="Grupo_78298" data-name="Grupo 78298" transform="translate(192.625 4416.982)">
      <path id="Trazado_99257" data-name="Trazado 99257" d="M414.214,104.5a1.807,1.807,0,1,0,1.806-1.725A1.767,1.767,0,0,0,414.214,104.5Z" transform="translate(-349.237 -102.779)" fill="#10314b"/>
      <path id="Trazado_99258" data-name="Trazado 99258" d="M422.66,104.5a1.807,1.807,0,1,0,1.8-1.725A1.766,1.766,0,0,0,422.66,104.5Z" transform="translate(-373.927 -102.779)" fill="#10314b"/>
      <path id="Trazado_99259" data-name="Trazado 99259" d="M431.106,104.5a1.807,1.807,0,1,0,1.8-1.725A1.766,1.766,0,0,0,431.106,104.5Z" transform="translate(-398.617 -102.779)" fill="#10314b"/>
      <path id="Trazado_99260" data-name="Trazado 99260" d="M439.553,104.5a1.807,1.807,0,1,0,1.806-1.725A1.767,1.767,0,0,0,439.553,104.5Z" transform="translate(-423.309 -102.779)" fill="#10314b"/>
      <path id="Trazado_99261" data-name="Trazado 99261" d="M448,104.5a1.807,1.807,0,1,0,1.8-1.725A1.766,1.766,0,0,0,448,104.5Z" transform="translate(-447.999 -102.779)" fill="#10314b"/>
      <ellipse id="Elipse_3975" data-name="Elipse 3975" cx="1.805" cy="1.726" rx="1.805" ry="1.726" transform="translate(64.977 13.809)" fill="#10314b"/>
      <path id="Trazado_99268" data-name="Trazado 99268" d="M422.66,112.012a1.807,1.807,0,1,0,1.8-1.725A1.767,1.767,0,0,0,422.66,112.012Z" transform="translate(-373.927 -96.478)" fill="#10314b"/>
      <ellipse id="Elipse_3976" data-name="Elipse 3976" cx="1.805" cy="1.726" rx="1.805" ry="1.726" transform="translate(32.489 13.809)" fill="#10314b"/>
      <path id="Trazado_99269" data-name="Trazado 99269" d="M439.553,112.012a1.807,1.807,0,1,0,1.806-1.725A1.768,1.768,0,0,0,439.553,112.012Z" transform="translate(-423.309 -96.478)" fill="#10314b"/>
      <path id="Trazado_99270" data-name="Trazado 99270" d="M448,112.012a1.807,1.807,0,1,0,1.8-1.725A1.768,1.768,0,0,0,448,112.012Z" transform="translate(-447.999 -96.478)" fill="#10314b"/>
      <path id="Trazado_99274" data-name="Trazado 99274" d="M414.214,119.521a1.807,1.807,0,1,0,1.806-1.727A1.768,1.768,0,0,0,414.214,119.521Z" transform="translate(-349.237 -90.178)" fill="#10314b"/>
      <path id="Trazado_99275" data-name="Trazado 99275" d="M422.66,119.521a1.807,1.807,0,1,0,1.8-1.727A1.767,1.767,0,0,0,422.66,119.521Z" transform="translate(-373.927 -90.178)" fill="#10314b"/>
      <path id="Trazado_99276" data-name="Trazado 99276" d="M431.106,119.521a1.807,1.807,0,1,0,1.8-1.727A1.768,1.768,0,0,0,431.106,119.521Z" transform="translate(-398.617 -90.178)" fill="#10314b"/>
      <path id="Trazado_99277" data-name="Trazado 99277" d="M439.553,119.521a1.807,1.807,0,1,0,1.806-1.727A1.768,1.768,0,0,0,439.553,119.521Z" transform="translate(-423.309 -90.178)" fill="#10314b"/>
      <path id="Trazado_99278" data-name="Trazado 99278" d="M448,119.521a1.807,1.807,0,1,0,1.8-1.727A1.768,1.768,0,0,0,448,119.521Z" transform="translate(-447.999 -90.178)" fill="#10314b"/>
      <ellipse id="Elipse_3980" data-name="Elipse 3980" cx="1.805" cy="1.726" rx="1.805" ry="1.726" transform="translate(64.977 41.426)" fill="#10314b"/>
      <path id="Trazado_99285" data-name="Trazado 99285" d="M422.66,127.029a1.807,1.807,0,1,0,1.8-1.727A1.766,1.766,0,0,0,422.66,127.029Z" transform="translate(-373.927 -83.876)" fill="#10314b"/>
      <ellipse id="Elipse_3981" data-name="Elipse 3981" cx="1.805" cy="1.726" rx="1.805" ry="1.726" transform="translate(32.489 41.426)" fill="#10314b"/>
      <path id="Trazado_99286" data-name="Trazado 99286" d="M439.553,127.029a1.807,1.807,0,1,0,1.806-1.727A1.767,1.767,0,0,0,439.553,127.029Z" transform="translate(-423.309 -83.876)" fill="#10314b"/>
      <path id="Trazado_99287" data-name="Trazado 99287" d="M448,127.029a1.807,1.807,0,1,0,1.8-1.727A1.766,1.766,0,0,0,448,127.029Z" transform="translate(-447.999 -83.876)" fill="#10314b"/>
      <ellipse id="Elipse_3985" data-name="Elipse 3985" cx="1.805" cy="1.726" rx="1.805" ry="1.726" transform="translate(64.977 55.235)" fill="#10314b"/>
      <path id="Trazado_99291" data-name="Trazado 99291" d="M422.66,134.537a1.807,1.807,0,1,0,1.8-1.727A1.766,1.766,0,0,0,422.66,134.537Z" transform="translate(-373.927 -77.575)" fill="#10314b"/>
      <ellipse id="Elipse_3986" data-name="Elipse 3986" cx="1.805" cy="1.726" rx="1.805" ry="1.726" transform="translate(32.489 55.235)" fill="#10314b"/>
      <path id="Trazado_99292" data-name="Trazado 99292" d="M439.553,134.537a1.807,1.807,0,1,0,1.806-1.727A1.767,1.767,0,0,0,439.553,134.537Z" transform="translate(-423.309 -77.575)" fill="#10314b"/>
      <path id="Trazado_99293" data-name="Trazado 99293" d="M448,134.537a1.807,1.807,0,1,0,1.8-1.727A1.766,1.766,0,0,0,448,134.537Z" transform="translate(-447.999 -77.575)" fill="#10314b"/>
    </g>
    <g id="Enmascarar_grupo_1098724" data-name="Enmascarar grupo 1098724" clip-path="url(#clip-path-10)">
      <g id="Grupo_1101734" data-name="Grupo 1101734" transform="translate(206.051 4151.687)">
        <g id="Grupo_1101733" data-name="Grupo 1101733" clip-path="url(#clip-path-11)">
          <g id="Grupo_1101732" data-name="Grupo 1101732">
            <g id="Grupo_1101731" data-name="Grupo 1101731" clip-path="url(#clip-path-11)">
              <path id="Trazado_879262" data-name="Trazado 879262" d="M64.546,331.825,13.407,373.768l51.86,63.891c5.8-5.327-8.776-48.326-8.776-48.326L90.358,363.8Z" transform="translate(11.89 294.278)" fill="#455a64"/>
              <g id="Grupo_1101715" data-name="Grupo 1101715" transform="translate(50.051 661.032)" opacity="0.6">
                <g id="Grupo_1101714" data-name="Grupo 1101714">
                  <g id="Grupo_1101713" data-name="Grupo 1101713" clip-path="url(#clip-path-13)">
                    <path id="Trazado_879263" data-name="Trazado 879263" d="M31.59,350.911a3.358,3.358,0,0,0-4.442.613,3.229,3.229,0,0,0,.568,4.408c1.325.985,3.836.734,4.7-.674s.423-3.881-1.1-4.519" transform="translate(-26.526 -350.337)" fill="#fff"/>
                  </g>
                </g>
              </g>
              <g id="Grupo_1101718" data-name="Grupo 1101718" transform="translate(25.497 663.612)" opacity="0.6">
                <g id="Grupo_1101717" data-name="Grupo 1101717">
                  <g id="Grupo_1101716" data-name="Grupo 1101716" clip-path="url(#clip-path-14)">
                    <path id="Trazado_879264" data-name="Trazado 879264" d="M13.513,355.964l5.145-4.259,47.522,63.34s1.045,3.857-1.226,5.147Z" transform="translate(-13.513 -351.704)" fill="#fff"/>
                  </g>
                </g>
              </g>
              <path id="Trazado_879265" data-name="Trazado 879265" d="M40.769,364.413c-.321.243-1.728-1.2-3.977-1.923-2.23-.779-4.223-.474-4.332-.862-.174-.336,2.07-1.385,4.777-.464,2.715.9,3.874,3.085,3.532,3.249" transform="translate(28.778 319.969)" fill="#263238"/>
              <path id="Trazado_879266" data-name="Trazado 879266" d="M42.1,368.391c-.245.317-1.872-.6-4.051-.592-2.179-.053-3.825.838-4.062.517-.287-.253,1.364-1.953,4.076-1.915,2.71.013,4.33,1.743,4.038,1.991" transform="translate(30.114 324.941)" fill="#263238"/>
              <path id="Trazado_879267" data-name="Trazado 879267" d="M35.68,374.2c-.3-.23.909-1.928,3.268-2.515,2.355-.6,4.225.323,4.072.664-.115.385-1.8.181-3.73.692-1.94.466-3.327,1.443-3.61,1.159" transform="translate(31.603 329.45)" fill="#263238"/>
              <path id="Trazado_879268" data-name="Trazado 879268" d="M43.318,362.2c-.391.1-1.123-1.681-2.672-3.347-1.519-1.7-3.225-2.589-3.089-2.968.079-.364,2.321.038,4.121,2.026,1.813,1.974,2.009,4.243,1.64,4.289" transform="translate(33.301 315.508)" fill="#263238"/>
              <path id="Trazado_879269" data-name="Trazado 879269" d="M46.259,361.264c-.126.108-1.319-.968-2.581-3.213a18.47,18.47,0,0,1-1.689-4.181,19.789,19.789,0,0,1-.517-2.63,5.051,5.051,0,0,1-.03-1.576,1.749,1.749,0,0,1,1.543-1.491,2.2,2.2,0,0,1,1.823.789,5.33,5.33,0,0,1,.808,1.334,14.539,14.539,0,0,1,1.391,7.064c-.17,2.6-.925,4.049-1.072,3.993-.217-.058.174-1.574.083-4a16.5,16.5,0,0,0-.708-4.159,15.664,15.664,0,0,0-.925-2.3c-.372-.821-.836-1.4-1.277-1.33-.166.03-.217.06-.3.362a4.1,4.1,0,0,0,.026,1.155,21.934,21.934,0,0,0,.406,2.476,22.857,22.857,0,0,0,1.325,4.057c.976,2.243,1.868,3.517,1.694,3.649" transform="translate(36.706 308.769)" fill="#263238"/>
              <path id="Trazado_879270" data-name="Trazado 879270" d="M43.567,358.2c-.138-.072.477-1.6,2.406-3.353a13.349,13.349,0,0,1,6.461-3.168,3.407,3.407,0,0,1,3.274.73,1.926,1.926,0,0,1,.192,2.06,5.561,5.561,0,0,1-.908,1.279,9.172,9.172,0,0,1-2.153,1.753,9.468,9.468,0,0,1-4.415,1.315c-2.668.1-4.1-.9-4.013-1.015.072-.232,1.557.368,3.923.03a9.458,9.458,0,0,0,3.828-1.428,8.5,8.5,0,0,0,1.8-1.559c.6-.651.938-1.351.662-1.547a2.356,2.356,0,0,0-1.957-.27,13.746,13.746,0,0,0-2.377.615,14.836,14.836,0,0,0-3.7,1.972c-1.945,1.436-2.843,2.717-3.028,2.585" transform="translate(38.621 311.784)" fill="#263238"/>
              <path id="Trazado_879271" data-name="Trazado 879271" d="M28.23,350.012l.619,66.136,82.287-.349c-.515-7.859-43.152-23.459-43.152-23.459l1.342-42.392Z" transform="translate(25.036 310.351)" fill="#455a64"/>
              <g id="Grupo_1101721" data-name="Grupo 1101721" transform="translate(65.179 699.09)" opacity="0.6">
                <g id="Grupo_1101720" data-name="Grupo 1101720">
                  <g id="Grupo_1101719" data-name="Grupo 1101719" clip-path="url(#clip-path-15)">
                    <path id="Trazado_879272" data-name="Trazado 879272" d="M36.925,370.649a3.361,3.361,0,0,0-2.308,3.845,3.232,3.232,0,0,0,3.791,2.321c1.6-.415,2.977-2.53,2.423-4.085s-2.76-2.762-4.211-1.977" transform="translate(-34.544 -370.507)" fill="#fff"/>
                  </g>
                </g>
              </g>
              <g id="Grupo_1101724" data-name="Grupo 1101724" transform="translate(53.781 719.555)" opacity="0.6">
                <g id="Grupo_1101723" data-name="Grupo 1101723">
                  <g id="Grupo_1101722" data-name="Grupo 1101722" clip-path="url(#clip-path-16)">
                    <path id="Trazado_879273" data-name="Trazado 879273" d="M28.6,388.032l-.092-6.678,79.14,2.683s3.66,1.6,3.24,4.181Z" transform="translate(-28.503 -381.353)" fill="#fff"/>
                  </g>
                </g>
              </g>
              <path id="Trazado_879274" data-name="Trazado 879274" d="M53.521,372.362c-.011.4-2.019.592-3.991,1.892-2.006,1.249-3.017,2.994-3.389,2.836-.37-.075.219-2.481,2.634-4.013,2.4-1.553,4.83-1.085,4.745-.715" transform="translate(40.831 329.904)" fill="#263238"/>
              <path id="Trazado_879275" data-name="Trazado 879275" d="M57.14,374.138c.094.389-1.643,1.081-3,2.785-1.408,1.666-1.745,3.5-2.145,3.489-.377.064-.666-2.287,1.062-4.376,1.709-2.1,4.074-2.281,4.083-1.9" transform="translate(45.857 331.66)" fill="#263238"/>
              <path id="Trazado_879276" data-name="Trazado 879276" d="M57.439,382.791c-.364.087-.932-1.919.091-4.123,1.006-2.213,2.9-3.089,3.068-2.755.228.33-.985,1.515-1.8,3.338-.853,1.8-.962,3.5-1.36,3.54" transform="translate(50.506 333.317)" fill="#263238"/>
              <path id="Trazado_879277" data-name="Trazado 879277" d="M53.619,367.723c-.168.368-2.013-.179-4.283-.015-2.274.117-4.038.887-4.249.543-.234-.291,1.487-1.785,4.162-1.94,2.676-.175,4.566,1.094,4.37,1.411" transform="translate(39.966 324.848)" fill="#263238"/>
              <path id="Trazado_879278" data-name="Trazado 879278" d="M54.43,364.977c.006.166-1.581.421-4.121,0a18.479,18.479,0,0,1-4.317-1.306,19.4,19.4,0,0,1-2.372-1.245,5.082,5.082,0,0,1-1.249-.964,1.751,1.751,0,0,1-.192-2.136,2.2,2.2,0,0,1,1.757-.926,5.339,5.339,0,0,1,1.545.206,14.9,14.9,0,0,1,2.566.868,14.538,14.538,0,0,1,3.811,2.479c1.915,1.759,2.574,3.257,2.438,3.336-.183.134-1.117-1.121-3.066-2.572a16.366,16.366,0,0,0-3.683-2.055,15.312,15.312,0,0,0-2.37-.721c-.874-.224-1.615-.228-1.836.16-.081.149-.091.208.092.462a4.156,4.156,0,0,0,.917.7,21.408,21.408,0,0,0,2.183,1.234,22.923,22.923,0,0,0,3.991,1.511c2.36.647,3.911.751,3.906.968" transform="translate(37.156 317.839)" fill="#263238"/>
              <path id="Trazado_879279" data-name="Trazado 879279" d="M48.791,368.341c-.142.062-.947-1.374-1.106-3.976a13.322,13.322,0,0,1,1.583-7.021,3.409,3.409,0,0,1,2.619-2.092,1.927,1.927,0,0,1,1.726,1.143,5.661,5.661,0,0,1,.432,1.508,9.319,9.319,0,0,1,.013,2.776,9.508,9.508,0,0,1-1.742,4.264c-1.6,2.14-3.276,2.628-3.31,2.493-.136-.2,1.264-.983,2.483-3.038a9.462,9.462,0,0,0,1.287-3.878,8.393,8.393,0,0,0-.085-2.381c-.132-.876-.464-1.579-.791-1.489-.409,0-1.1.657-1.434,1.357a13.715,13.715,0,0,0-1.013,2.238,14.824,14.824,0,0,0-.781,4.117c-.1,2.415.334,3.917.117,3.979" transform="translate(42.273 315.053)" fill="#263238"/>
              <path id="Trazado_879280" data-name="Trazado 879280" d="M50.878,146.935s-11.531,12.348-17.195,24.18S24.4,211.18,24.4,211.18,8.473,246.649,10.894,264.8,29.53,407.052,29.53,407.052s-.8,120.651,10.685,142.163l2.562,11.612,46.39-8.236-.291-6.962L99.834,309.059l27.916-161.05Z" transform="translate(9.439 130.309)" fill="#263238"/>
              <path id="Trazado_879281" data-name="Trazado 879281" d="M135.551,181.23s27.735,152.7,30.182,179.209S73.772,526.685,73.772,526.685L30.6,481.731,92.559,366.558,72.423,250.489l28.012-102.558,29.425,1.032Z" transform="translate(27.138 131.192)" fill="#263238"/>
              <path id="Trazado_879282" data-name="Trazado 879282" d="M22.5,470.409a31.5,31.5,0,0,0,.328,3.376c.283,2.213.828,5.466,1.6,9.67,1.543,8.4,4.045,20.587,7.4,35.81l.072.317.321-.057c13.112-2.3,28.85-5.055,46.405-8.132l.355-.062.011-.357c1.291-31.839,2.832-69.894,4.487-110.705,1.711-43.913,3.3-84.629,4.6-118.034l0,.04c3.477-26.835,6.355-49.026,8.368-64.555.97-7.713,1.732-13.768,2.257-17.944q.365-3.051.562-4.715c.119-1.066.147-1.621.147-1.621s-.117.543-.279,1.6q-.241,1.656-.687,4.7c-.579,4.168-1.421,10.213-2.491,17.914-2.1,15.516-5.1,37.69-8.732,64.506l0,.019v.021c-1.357,33.4-3.008,74.115-4.789,118.026-1.592,40.813-3.079,78.87-4.325,110.711l.366-.419-46.367,8.336.389.26c-3.447-15.195-6.049-27.357-7.706-35.731-.825-4.189-1.428-7.429-1.77-9.627-.194-1.1-.3-1.938-.377-2.5s-.142-.849-.142-.849" transform="translate(19.957 171.553)" fill="#455a64"/>
              <path id="Trazado_879283" data-name="Trazado 879283" d="M114.338,19.693C115.727,11.6,109.551,3.442,101.715.98S85.122.925,78.386,5.623c-5.015,3.5-9.163,8.2-14.468,11.234-4.825,2.76-10.4,4.023-15.168,6.885A26.293,26.293,0,0,0,36.238,45.362c-.119,6.036,1.809,12.48-.894,17.88-2.943,5.878-10.363,8.3-13.719,13.949-3.043,5.123-2.045,11.612-.592,17.391s3.27,11.855,1.587,17.57c-1.532,5.2-5.725,9.18-8.064,14.076-4.649,9.732-.408,22.755,9.08,27.884l49.822-20.229Z" transform="translate(11.227 0)" fill="#263238"/>
              <path id="Trazado_879284" data-name="Trazado 879284" d="M76.909,9.486c7.676-.728,14.649,5.368,17.623,12.481s2.889,15.07,3,22.78S98.1,60.5,101.94,67.188c2.019,3.51,4.876,6.457,7.191,9.776s4.138,7.285,3.619,11.3c-.938,7.3-8.946,11.789-10.966,18.863-1.636,5.73,1,11.965-.321,17.778-1.013,4.477-4.308,8.178-8.185,10.636s-8.329,3.83-12.746,5.087l-25-19.352L61.608,7.9Z" transform="translate(49.246 7.011)" fill="#263238"/>
              <path id="Trazado_879285" data-name="Trazado 879285" d="M37.807,48.1l2.979,80.438a23.946,23.946,0,0,0,26,22.97c12.727-1.1,21.6-11.842,21.119-24.606-.23-6.055-.1-13.221-.085-13.846,0,0,20.15-4.527,20.878-24.848.351-9.821.117-26.323-.93-44.667A37.877,37.877,0,0,0,70.825,7.856l-1.962-.045c-21.18.74-32.382,19.14-31.056,40.29" transform="translate(33.435 6.927)" fill="#ffbe9d"/>
              <path id="Trazado_879286" data-name="Trazado 879286" d="M76.679,67.476s-12.872.743-26.325-8.153c0,0,5.921,14.776,26.25,13.421Z" transform="translate(44.656 52.61)" fill="#eb996e"/>
              <path id="Trazado_879287" data-name="Trazado 879287" d="M74.977,37.57a2.9,2.9,0,0,1-2.868,2.862,2.775,2.775,0,0,1-2.93-2.687,2.9,2.9,0,0,1,2.864-2.866,2.782,2.782,0,0,1,2.934,2.691" transform="translate(61.351 30.932)" fill="#263238"/>
              <path id="Trazado_879288" data-name="Trazado 879288" d="M77.862,34.173c-.368.37-2.528-1.309-5.655-1.374-3.119-.109-5.449,1.443-5.779,1.053-.162-.174.221-.849,1.236-1.551A7.954,7.954,0,0,1,72.3,30.989a7.641,7.641,0,0,1,4.489,1.566c.943.759,1.253,1.451,1.072,1.617" transform="translate(58.88 27.48)" fill="#263238"/>
              <path id="Trazado_879289" data-name="Trazado 879289" d="M59.279,37.569a2.9,2.9,0,0,1-2.868,2.862,2.774,2.774,0,0,1-2.93-2.687,2.9,2.9,0,0,1,2.864-2.864,2.779,2.779,0,0,1,2.934,2.689" transform="translate(47.429 30.933)" fill="#263238"/>
              <path id="Trazado_879290" data-name="Trazado 879290" d="M62.032,34.405c-.37.37-2.534-1.308-5.655-1.374-3.119-.109-5.449,1.443-5.779,1.053-.162-.174.217-.847,1.236-1.551a7.971,7.971,0,0,1,4.636-1.311,7.66,7.66,0,0,1,4.491,1.566c.942.76,1.253,1.453,1.072,1.617" transform="translate(44.841 27.687)" fill="#263238"/>
              <path id="Trazado_879291" data-name="Trazado 879291" d="M62.236,56.578c-.009-.177,1.94-.468,5.094-.8.8-.064,1.559-.206,1.706-.745a4.048,4.048,0,0,0-.477-2.377q-1.056-2.924-2.215-6.13C63.27,37.8,61.065,30.637,61.417,30.517s3.13,6.853,6.2,15.578q1.109,3.227,2.117,6.164a4.621,4.621,0,0,1,.342,3.14,2,2,0,0,1-1.34,1.136,5.477,5.477,0,0,1-1.359.157c-3.172.1-5.136.064-5.144-.113" transform="translate(54.435 27.062)" fill="#263238"/>
              <path id="Trazado_879292" data-name="Trazado 879292" d="M62.855,27.588c-.351.832-3.447.274-7.13.53-3.689.183-6.695,1.106-7.142.321-.2-.375.357-1.147,1.591-1.909,1.128-.655,2.181-1.423,5.668-1.421a10.731,10.731,0,0,1,5.206.774c1.317.609,1.96,1.309,1.808,1.706" transform="translate(43.05 22.241)" fill="#263238"/>
              <path id="Trazado_879293" data-name="Trazado 879293" d="M78.971,27.9c-.651.7-3.16-.06-6.189-.126-3.023-.158-5.6.415-6.179-.334-.253-.362.157-1.07,1.285-1.728A9.664,9.664,0,0,1,72.931,24.6a9.555,9.555,0,0,1,4.923,1.481c1.06.742,1.4,1.476,1.117,1.817" transform="translate(59.003 21.811)" fill="#263238"/>
              <path id="Trazado_879294" data-name="Trazado 879294" d="M66.94,51.5a7.118,7.118,0,0,0-.636-1.813,4.446,4.446,0,0,0-3.568-2.168,5.646,5.646,0,0,0-4,1.421,4.433,4.433,0,0,0-1.564,3.345,2.449,2.449,0,0,0,.24.987A5.92,5.92,0,0,0,61.6,56.761a4.94,4.94,0,0,0,4.964-1.989,3.432,3.432,0,0,0,.579-1.528,5.222,5.222,0,0,0-.2-1.742" transform="translate(50.705 42.134)" fill="#eb996e"/>
              <path id="Trazado_879295" data-name="Trazado 879295" d="M39.554,43.544a.192.192,0,1,0,.034.015.138.138,0,0,0-.166.013" transform="translate(34.853 38.609)" fill="#263238"/>
              <path id="Trazado_879296" data-name="Trazado 879296" d="M39.71,43.084a.192.192,0,1,0,.034.015.138.138,0,0,0-.166.013" transform="translate(34.992 38.201)" fill="#263238"/>
              <path id="Trazado_879297" data-name="Trazado 879297" d="M69.88,53.531c.042.236-.8.692-2.3.917a10.1,10.1,0,0,1-5.925-.868,8.966,8.966,0,0,1-4.2-4.325c-.634-1.4-.66-2.366-.426-2.453.555-.275,1.921,3.251,5.5,5.015a14.083,14.083,0,0,0,5.01,1.242c1.381.138,2.294.175,2.342.472" transform="translate(50.456 41.493)" fill="#263238"/>
              <path id="Trazado_879298" data-name="Trazado 879298" d="M34.786,69.224c-4.655-16.4-2.289-35.148,8.181-48.6S72.414.237,88.531,5.792A15.118,15.118,0,0,1,94.72,9.375,7.038,7.038,0,0,1,96.643,16c-1.083,3.632-5.47,5.076-9.255,5.247s-7.851-.308-11.121,1.609C70.5,26.241,70.63,34.732,66.53,40.021c-2.019,2.6-5.021,4.344-6.851,7.081-4.942,7.4-.855,11.846-4.021,20.161-.877,2.306-4.889,4.41-7.334,4.744s-.5.3-5.717-.266Z" transform="translate(28.831 3.429)" fill="#263238"/>
              <path id="Trazado_879299" data-name="Trazado 879299" d="M48.1,40.4c-.336-.168-13.644-4.825-13.923,8.987s13.64,11.244,13.67,10.847S48.1,40.4,48.1,40.4" transform="translate(30.305 35.042)" fill="#ffbe9d"/>
              <path id="Trazado_879300" data-name="Trazado 879300" d="M42.091,52.839c-.06-.045-.243.164-.655.342a2.4,2.4,0,0,1-1.8,0c-1.449-.564-2.63-2.908-2.645-5.4a7.942,7.942,0,0,1,.743-3.432,2.775,2.775,0,0,1,1.847-1.809,1.225,1.225,0,0,1,1.406.689c.177.391.085.664.157.689.038.036.3-.225.2-.8a1.532,1.532,0,0,0-.526-.875,1.809,1.809,0,0,0-1.323-.379,3.377,3.377,0,0,0-2.557,2.091,8.187,8.187,0,0,0-.913,3.832c.032,2.785,1.4,5.417,3.389,6.036a2.583,2.583,0,0,0,2.208-.321c.434-.332.513-.64.466-.666" transform="translate(31.951 37.122)" fill="#eb996e"/>
              <path id="Trazado_879301" data-name="Trazado 879301" d="M25.4,36.932c.064-.228,3.343,1.923,9.317,2.1a30.169,30.169,0,0,0,10.206-1.6A47.255,47.255,0,0,0,56.23,31.615c3.762-2.551,7.14-5.293,10.247-7.751s5.959-4.636,8.464-6.306a50.792,50.792,0,0,1,6.164-3.574,10.654,10.654,0,0,1,2.428-.972,17.9,17.9,0,0,1-2.251,1.309,68.827,68.827,0,0,0-5.947,3.81c-2.434,1.726-5.223,3.934-8.291,6.438s-6.453,5.274-10.266,7.859A46.053,46.053,0,0,1,45.2,38.291a29.569,29.569,0,0,1-10.515,1.432A21.454,21.454,0,0,1,27.7,38.185a13.964,13.964,0,0,1-1.743-.866c-.383-.225-.575-.357-.559-.387" transform="translate(22.521 11.535)" fill="#455a64"/>
              <path id="Trazado_879302" data-name="Trazado 879302" d="M24.819,26.381c.087-.14,1.979,1.008,5.194,2.506a61.4,61.4,0,0,0,13.1,4.362,61.286,61.286,0,0,0,13.753,1.23c3.547-.089,5.738-.385,5.762-.223a4.767,4.767,0,0,1-1.513.394,35.373,35.373,0,0,1-4.217.523,51.5,51.5,0,0,1-13.985-.964,51.468,51.468,0,0,1-13.206-4.7,35.4,35.4,0,0,1-3.657-2.162c-.828-.57-1.266-.909-1.23-.966" transform="translate(22.009 23.386)" fill="#455a64"/>
              <path id="Trazado_879303" data-name="Trazado 879303" d="M82.482,26.084c-.025.247-3.328-.355-6.385-2.966-3.083-2.581-4.225-5.74-3.983-5.8.262-.14,1.723,2.64,4.617,5.055,2.862,2.453,5.845,3.432,5.751,3.715" transform="translate(63.926 15.351)" fill="#455a64"/>
              <path id="Trazado_879304" data-name="Trazado 879304" d="M79.274,29.091c.162.209-.587,1.034-1.847,1.466s-2.357.245-2.357-.019.938-.526,2.038-.911,2-.76,2.166-.536" transform="translate(66.576 25.741)" fill="#455a64"/>
              <path id="Trazado_879305" data-name="Trazado 879305" d="M118.8,132.666s-.321-7.1,3.291-12,11.28-7.144,11.94-10.568,6.532-10.261,9.355-8.674,4.1,5.277-.072,9.542a68.99,68.99,0,0,0-7.327,9.042s36.68-6.349,39.363-5.885,5.366.93,5.378,3.189-7.1,2.881-7.1,2.881L161.67,128.5a50.567,50.567,0,0,1-9.642,9.955c-5.2,3.749-13.393,4.755-13.393,4.755l-12.693,8.112s-12.391-9.187-7.145-18.657" transform="translate(104.207 89.74)" fill="#ffbe9d"/>
              <path id="Trazado_879306" data-name="Trazado 879306" d="M156.03,112.537c-.066.03-.219-.275-.638-.668a3.947,3.947,0,0,0-2.149-.987c-2.017-.262-4.972.609-7.7,2.281a35.011,35.011,0,0,0-6.383,5.336,15.114,15.114,0,0,1-2.566,2.394,12.373,12.373,0,0,1,2.094-2.83,27.665,27.665,0,0,1,6.383-5.676c2.881-1.749,6-2.6,8.293-2.136a3.884,3.884,0,0,1,2.294,1.381c.383.521.423.889.376.9" transform="translate(121.128 97.666)" fill="#eb996e"/>
              <path id="Trazado_879307" data-name="Trazado 879307" d="M145.358,111.674c.053.245-2.417.983-5.515,1.647s-5.653,1-5.7.76,2.415-.983,5.515-1.647,5.651-1.006,5.7-.76" transform="translate(118.96 98.968)" fill="#eb996e"/>
              <path id="Trazado_879308" data-name="Trazado 879308" d="M130.053,112.619c-.038-.234,2.71-.287,5.3,1.638,2.615,1.9,3.391,4.532,3.155,4.566-.243.121-1.308-2.121-3.693-3.834-2.349-1.76-4.806-2.1-4.766-2.37" transform="translate(115.337 99.774)" fill="#eb996e"/>
              <path id="Trazado_879309" data-name="Trazado 879309" d="M80.694,74.755S98.7,83.914,103.085,96c2.3,6.347,15.934,73.946,15.934,73.946l27.42-18.635,18.576,27.925-43.871,34.156a40.7,40.7,0,0,1-25.793-1.857c-2.989-1.27-5.385-2.738-5.957-4.306-1.777-4.874-8.7-132.476-8.7-132.476" transform="translate(71.563 66.296)" fill="#706c65"/>
              <g id="Grupo_1101727" data-name="Grupo 1101727" transform="translate(175.641 236.135)" opacity="0.3">
                <g id="Grupo_1101726" data-name="Grupo 1101726">
                  <g id="Grupo_1101725" data-name="Grupo 1101725" clip-path="url(#clip-path-17)">
                    <path id="Trazado_879310" data-name="Trazado 879310" d="M96.4,136.416c-3,4.545-4.421,10.5-2.3,15.519a2.591,2.591,0,0,0,.819,1.179,2.017,2.017,0,0,0,2.681-.859,6.5,6.5,0,0,0,.638-3.057,39.2,39.2,0,0,1,9.889-23.787l0-.264c-4.328,3.308-8.723,6.723-11.727,11.268" transform="translate(-93.087 -125.148)"/>
                  </g>
                </g>
              </g>
              <path id="Trazado_879311" data-name="Trazado 879311" d="M14.887,87.459,66.944,70.575c10.112,26.884,42.688,22.308,44.35.666l30.922,7.444s10.346,65.64,7.838,79.28c-4.032,21.938,6.095,93.167,11.464,118.785,4.651,22.193-8.944,35.38-15.772,41.414C110.983,348.883,92.941,344.753,67.5,328.8,41.643,312.58,11.325,301.15,11.325,301.15c2.521-29.716,18.991-60.556,29.582-82.857l-4.825-51.828Z" transform="translate(10.044 62.589)" fill="#706c65"/>
              <path id="Trazado_879312" data-name="Trazado 879312" d="M100.411,247.634a9.686,9.686,0,0,1-.44-1.519c-.249-1.006-.632-2.485-1.057-4.4-.887-3.834-2.059-9.408-3.259-16.34s-2.36-15.242-3.232-24.508-1.385-19.493-1.53-30.225-.317-20.942-1.021-30.2a160.636,160.636,0,0,0-3.438-24.369,102.8,102.8,0,0,0-4.883-15.85c-.677-1.843-1.392-3.194-1.774-4.157A9.416,9.416,0,0,1,79.2,94.6a9.6,9.6,0,0,1,.76,1.385c.44.938,1.213,2.268,1.947,4.1a94.09,94.09,0,0,1,5.206,15.838,154.172,154.172,0,0,1,3.664,24.457c.759,9.285.942,19.523,1.1,30.25s.643,20.912,1.451,30.159,1.9,17.542,3.015,24.474,2.177,12.521,2.947,16.374q.549,2.791.877,4.442a9.465,9.465,0,0,1,.245,1.562" transform="translate(70.233 83.891)" fill="#263238"/>
              <g id="Grupo_1101730" data-name="Grupo 1101730" transform="translate(28.011 290.342)" opacity="0.3">
                <g id="Grupo_1101729" data-name="Grupo 1101729">
                  <g id="Grupo_1101728" data-name="Grupo 1101728" clip-path="url(#clip-path-18)">
                    <path id="Trazado_879313" data-name="Trazado 879313" d="M87.123,154.226c-10.934-.523-22.218-.992-32.48,2.815-15.621,5.8-26.086,20.348-39.8,29.814l1.291.462a37.835,37.835,0,0,0,40.677-2.526c5.666-4.277,10.242-10.27,16.87-12.814,2.9-1.111,6.079-1.509,8.763-3.062a11.86,11.86,0,0,0,4.677-14.689" transform="translate(-14.845 -153.877)"/>
                  </g>
                </g>
              </g>
              <path id="Trazado_879314" data-name="Trazado 879314" d="M24.931,79.609A31.149,31.149,0,0,0,11.746,94.6C8.195,103.168-1.457,218.673.187,226.07s9.368,18.482,22.187,24.24c10.774,4.84,38.641-6.906,49.924-11.059.362-.134-2.525-4.47-3.67-7.368l-9.687-30.465-15.323,1.664,5.693-57.294Z" transform="translate(0 70.601)" fill="#706c65"/>
              <path id="Trazado_879315" data-name="Trazado 879315" d="M22.238,100.192a21.24,21.24,0,0,1,.783,3.213c.4,2.091.9,5.132,1.385,8.9.985,7.546,1.889,18.014,2.738,29.576.813,11.487,1.549,21.88,2.1,29.61.308,3.66.56,6.681.751,8.959a21.11,21.11,0,0,1,.232,3.3,21.428,21.428,0,0,1-.611-3.249c-.306-2.106-.683-5.161-1.062-8.944-.772-7.566-1.543-18.038-2.385-29.6s-1.643-22.02-2.447-29.567c-.4-3.774-.787-6.819-1.074-8.921a21.547,21.547,0,0,1-.406-3.277" transform="translate(19.708 88.855)" fill="#263238"/>
              <path id="Trazado_879316" data-name="Trazado 879316" d="M55.553,143.577a32.707,32.707,0,0,1-4.981,1.04c-3.151.557-7.612,1.291-12.827,2.111l-.134.021-.128-.059a23.765,23.765,0,0,0-8.693-2.068,23.5,23.5,0,0,0-10.153,1.787,24.468,24.468,0,0,0-7.106,4.615c-3.553,3.362-4.777,6.264-4.951,6.149a6.83,6.83,0,0,1,.885-1.968,22.314,22.314,0,0,1,3.583-4.681,23.919,23.919,0,0,1,7.23-4.945,23.956,23.956,0,0,1,19.593.272l-.264-.038c5.227-.753,9.7-1.364,12.88-1.762a32.764,32.764,0,0,1,5.066-.474" transform="translate(5.83 127.305)" fill="#263238"/>
              <path id="Trazado_879317" data-name="Trazado 879317" d="M58.871,160.361a9.531,9.531,0,0,1,1.153,1.813q1.152,2.069,2.883,5.177l.181.323-.359.14c-5.21,2.023-12.889,4.915-21.455,8.068l-7.4,2.706-.281-.906.045-.011.023-.006.009,0,.006,0h0l.234.919h0l-.087.023-.043.011-.023,0-.009,0-.006,0h0l-.234-.919h0l.085-.021.268.908a34.842,34.842,0,0,1-20.929.428,6.431,6.431,0,0,1-1.609-.6c.038-.145,2.351.568,6.344,1.023a36.3,36.3,0,0,0,15.893-1.753l.268.908-.087.023-.234-.919h0l.006,0,.009,0,.023-.006.043-.011.087-.023h0l.234.919h0l0,0-.011,0-.023.006-.045.011-.281-.906c2.33-.864,4.819-1.785,7.387-2.736,8.566-3.153,16.289-5.928,21.569-7.766l-.179.462q-1.571-3.193-2.617-5.317a9.568,9.568,0,0,1-.836-1.979" transform="translate(10.043 142.215)" fill="#263238"/>
              <path id="Trazado_879318" data-name="Trazado 879318" d="M105.447,125.041c.209.236-2.857,2.766-5.276,6.9s-3.343,7.987-3.655,7.9c-.219-.019.279-4.087,2.81-8.4s6.011-6.6,6.121-6.4" transform="translate(85.555 110.881)" fill="#263238"/>
              <path id="Trazado_879319" data-name="Trazado 879319" d="M67.464,13.679a3.913,3.913,0,0,1,.013.392l0,0Z" transform="translate(59.83 12.131)" fill="#263238"/>
              <path id="Trazado_879320" data-name="Trazado 879320" d="M48.914,166.643c-.287.075-1.611-4.174-2.321-9.6-.726-5.425-.551-9.87-.253-9.872.321-.008.649,4.372,1.364,9.725.7,5.355,1.523,9.67,1.209,9.746" transform="translate(40.868 130.52)" fill="#455a64"/>
              <path id="Trazado_879321" data-name="Trazado 879321" d="M59.7,50.479,13.392,98a33.713,33.713,0,0,1,.879,33.178q19.334.62,38.669,1.243.116-5.213.234-10.427c1.011,4.194,4.885,7.881,9.223,9.119,5.874,1.676,12.131.119,18.014-1.525A363.4,363.4,0,0,1,59.7,50.479" transform="translate(11.877 44.767)" fill="#263238"/>
              <path id="Trazado_879322" data-name="Trazado 879322" d="M43.552,103.245c0,1.387-.275,86.04-.275,86.04l71.766,2.385,3.576-85.616Z" transform="translate(38.38 91.563)" fill="#ebebeb"/>
              <path id="Trazado_879323" data-name="Trazado 879323" d="M51.993,99.892c0,1.734-9.951,103.048-9.951,103.048l77.848-1.862L132.98,99.892Z" transform="translate(37.285 88.589)" fill="#f5f5f5"/>
              <path id="Trazado_879324" data-name="Trazado 879324" d="M112.833,110.958c0,.272-13.344.491-29.8.491s-29.8-.219-29.8-.491,13.342-.491,29.8-.491,29.8.219,29.8.491" transform="translate(47.203 97.967)" fill="#263238"/>
              <path id="Trazado_879325" data-name="Trazado 879325" d="M112.44,114.491c0,.272-13.346.491-29.8.491s-29.8-.219-29.8-.491S66.175,114,82.638,114s29.8.219,29.8.491" transform="translate(46.855 101.101)" fill="#263238"/>
              <path id="Trazado_879326" data-name="Trazado 879326" d="M111.733,118.966c0,.272-13.344.491-29.8.491s-29.8-.219-29.8-.491,13.342-.491,29.8-.491,29.8.219,29.8.491" transform="translate(46.228 105.069)" fill="#263238"/>
              <path id="Trazado_879327" data-name="Trazado 879327" d="M110.983,122.97c0,.272-13.344.491-29.8.491s-29.8-.219-29.8-.491,13.342-.491,29.8-.491,29.8.219,29.8.491" transform="translate(45.563 108.62)" fill="#263238"/>
              <path id="Trazado_879328" data-name="Trazado 879328" d="M110.983,126.974c0,.272-13.344.491-29.8.491s-29.8-.219-29.8-.491,13.342-.491,29.8-.491,29.8.219,29.8.491" transform="translate(45.563 112.171)" fill="#263238"/>
              <path id="Trazado_879329" data-name="Trazado 879329" d="M110.605,131.177c0,.272-13.344.491-29.8.491s-29.8-.219-29.8-.491,13.342-.491,29.8-.491,29.8.219,29.8.491" transform="translate(45.227 115.899)" fill="#263238"/>
              <path id="Trazado_879330" data-name="Trazado 879330" d="M110.228,135.38c0,.272-13.344.491-29.8.491s-29.8-.219-29.8-.491,13.342-.491,29.8-.491,29.8.219,29.8.491" transform="translate(44.893 119.626)" fill="#263238"/>
              <path id="Trazado_879331" data-name="Trazado 879331" d="M109.85,139.583c0,.272-13.344.491-29.8.491s-29.8-.219-29.8-.491,13.342-.491,29.8-.491,29.8.219,29.8.491" transform="translate(44.558 123.353)" fill="#263238"/>
              <path id="Trazado_879332" data-name="Trazado 879332" d="M109.473,143.786c0,.272-13.344.491-29.8.491s-29.8-.219-29.8-.491,13.342-.491,29.8-.491,29.8.219,29.8.491" transform="translate(44.224 127.081)" fill="#263238"/>
              <path id="Trazado_879333" data-name="Trazado 879333" d="M109.1,147.989c0,.272-13.346.491-29.8.491s-29.8-.219-29.8-.491,13.342-.491,29.8-.491,29.8.219,29.8.491" transform="translate(43.888 130.808)" fill="#263238"/>
              <path id="Trazado_879334" data-name="Trazado 879334" d="M30.84,157.138s6.2-13.685,7.489-14.461,23.469-3.3,27.888-3.357c4.774-.059,12.136.134,13.361,2.466.9,1.717.068,4.247-3.547,4.764,0,0,4.944-.259,4.41,2.84s-11.64,8.779-11.64,8.779,2.066,2.325-2.066,6.715l-1.808,2.323s.775,4.132-1.549,5.94-17.1,6.957-17.1,6.957l-5.623-1.793-3.615,1.793s-11.778-11.451-6.2-22.967" transform="translate(26.02 123.549)" fill="#ffbe9d"/>
              <path id="Trazado_879335" data-name="Trazado 879335" d="M71.4,142.833a25.431,25.431,0,0,1-4.947,1.759c-3.1.94-7.427,2.1-12.255,3.172s-9.244,1.838-12.449,2.294a25.625,25.625,0,0,1-5.228.492c-.021-.14,1.942-.547,5.11-1.177s7.545-1.506,12.357-2.568,9.144-2.117,12.283-2.883,5.091-1.225,5.13-1.089" transform="translate(32.39 126.65)" fill="#eb996e"/>
              <path id="Trazado_879336" data-name="Trazado 879336" d="M60.009,149.539c.1.232-4.425,2.236-10.364,3.511-5.938,1.3-10.883,1.347-10.891,1.094-.021-.289,4.83-.774,10.681-2.055,5.855-1.255,10.472-2.823,10.574-2.551" transform="translate(34.369 132.59)" fill="#eb996e"/>
              <path id="Trazado_879337" data-name="Trazado 879337" d="M54.867,154.044c.151.2-2.676,2.342-6.791,3.662-4.11,1.347-7.653,1.272-7.649,1.021-.023-.292,3.381-.651,7.345-1.955,3.974-1.272,6.942-2.977,7.095-2.728" transform="translate(35.853 136.592)" fill="#eb996e"/>
              <path id="Trazado_879338" data-name="Trazado 879338" d="M39.954,163.943c.008.1-1.153.153-2.591-.877a6.231,6.231,0,0,1-1.947-2.343,6.645,6.645,0,0,1-.536-3.666,2.639,2.639,0,0,0-.255-1.5,8.065,8.065,0,0,0-1.043-1.209,5.177,5.177,0,0,1-1.285-2.794c-.2-1.777.468-2.747.551-2.683a15.072,15.072,0,0,0,.132,2.559,4.882,4.882,0,0,0,1.262,2.3,7.789,7.789,0,0,1,1.211,1.336,3.509,3.509,0,0,1,.409,2.04,5.983,5.983,0,0,0,1.936,5.428c1.164,1.051,2.2,1.253,2.155,1.417" transform="translate(28.609 132.018)" fill="#eb996e"/>
              <path id="Trazado_879339" data-name="Trazado 879339" d="M40.04,162.137c.015.274-1.643.232-2.813-1.228s-.877-3.079-.613-3.008c.279.008.436,1.264,1.377,2.389.9,1.157,2.1,1.572,2.049,1.847" transform="translate(32.256 140.032)" fill="#eb996e"/>
            </g>
          </g>
        </g>
      </g>
    </g>
  </g>
</svg>
