<svg xmlns="http://www.w3.org/2000/svg" xmlns:xlink="http://www.w3.org/1999/xlink" width="295.293" height="472.859" viewBox="0 0 295.293 472.859">
  <defs>
    <clipPath id="clip-path">
      <rect id="Rectángulo_402058" data-name="Rectángulo 402058" width="265.723" height="203.49" fill="none"/>
    </clipPath>
    <clipPath id="clip-path-2">
      <rect id="Rectángulo_402056" data-name="Rectángulo 402056" width="235.293" height="358.605" fill="none"/>
    </clipPath>
    <clipPath id="clip-path-4">
      <rect id="Rectángulo_402053" data-name="Rectángulo 402053" width="112.504" height="26.833" fill="none"/>
    </clipPath>
    <clipPath id="clip-path-5">
      <rect id="Rectángulo_402054" data-name="Rectángulo 402054" width="27.449" height="71.847" fill="none"/>
    </clipPath>
  </defs>
  <g id="_9" data-name="9" transform="translate(-1020.051 -4460.1)">
    <rect id="Rectángulo_402597" data-name="Rectángulo 402597" width="259" height="319" rx="29" transform="translate(1056.051 4603)" fill="#e2dacc"/>
    <g id="Grupo_1101076" data-name="Grupo 1101076" transform="translate(1020.051 4460.1)">
      <rect id="Rectángulo_402057" data-name="Rectángulo 402057" width="259.217" height="196.648" transform="translate(4.225 2.605)" fill="#fff"/>
      <path id="Trazado_878052" data-name="Trazado 878052" d="M261.595,4.352H4.35v195H261.595Zm4.092,199.09H.26V.261H265.687Z" transform="translate(-0.126 -0.098)" fill="#e0e0e0"/>
      <g id="Grupo_1101075" data-name="Grupo 1101075">
        <g id="Grupo_1101074" data-name="Grupo 1101074" clip-path="url(#clip-path)">
          <path id="Trazado_878053" data-name="Trazado 878053" d="M264.02,201.728c0-1.105.053-77.06.133-195V6.6h-.133L6.8,6.567H6.613v.162c.006,70.154.011,136.572.016,195v.146h.146l257.244-.146L6.776,201.582l.146.146c0-58.427.011-124.845.016-195l-.162.162H6.8L264.02,6.862l-.133-.133c.08,117.939.133,193.894.133,195" transform="translate(-2.551 -2.475)" fill="#263238"/>
          <path id="Trazado_878054" data-name="Trazado 878054" d="M.134,203.345c0-1.109.053-80.373.134-203.182L.134.3l265.4.029h.022L265.4.163c.006,73.15.011,142.381.016,203.182l.146-.146L.134,203.345l265.427.146h.146v-.146c0-60.8.01-130.031.016-203.182V0h-.184L.134.03H0V.163C.081,122.972.133,202.236.134,203.345" transform="translate(0 0)" fill="#263238"/>
          <path id="Trazado_878055" data-name="Trazado 878055" d="M304.2,261.273a21.087,21.087,0,0,1,5.357,18.481c-.155.779-1.346.449-1.191-.328a19.788,19.788,0,0,0-5.039-17.279c-.548-.575.323-1.451.874-.874" transform="translate(-233.116 -98.41)" fill="#263238"/>
          <path id="Trazado_878056" data-name="Trazado 878056" d="M314.1,271.488a1.219,1.219,0,0,0,.612-.373,5.536,5.536,0,0,0,.679.279,1.7,1.7,0,0,0,.5.094,1.975,1.975,0,0,0,1.515-.541,2.575,2.575,0,0,0-.241-3.347,2.484,2.484,0,0,0-1.786-.719,2.409,2.409,0,0,0-.922.224q-.633.27-.633.627a.39.39,0,0,0,.1.262,2.772,2.772,0,0,1,.065.417c.015.168.023.363.023.588a4.073,4.073,0,0,1-.113,1.141q-.013.037-.193.432a2.218,2.218,0,0,0-.163.407.462.462,0,0,0,.169.365.588.588,0,0,0,.392.145m1.04-2.829a3.076,3.076,0,0,0-.019-.308c-.013-.116-.032-.245-.057-.388a.963.963,0,0,1,.148-.061.441.441,0,0,1,.112-.019,1.34,1.34,0,0,1,1,.447,1.613,1.613,0,0,1,.226,1.877.691.691,0,0,1-.6.283,1.411,1.411,0,0,1-.492-.085,1.524,1.524,0,0,1-.438-.254,13.038,13.038,0,0,0,.126-1.492" transform="translate(-247.537 -100.595)" fill="#263238"/>
          <path id="Trazado_878057" data-name="Trazado 878057" d="M335.827,265.856a.515.515,0,0,0,.574-.507q.058-.432.117-.868a6.465,6.465,0,0,0,.063-.868c0-.073-.005-.2-.014-.373s-.015-.3-.015-.373c0-.019,0-.069-.009-.148s-.008-.145-.008-.2c0-.232.056-.347.168-.347a.935.935,0,0,1,.7.461,3.484,3.484,0,0,1,.54,1.171c.005.094.017.22.036.378a3.275,3.275,0,0,1,.023.378,3.621,3.621,0,0,0,.027.363,3.623,3.623,0,0,1,.027.363.538.538,0,0,0,.166.406.618.618,0,0,0,.832,0,.541.541,0,0,0,.163-.4c0-.08.009-.2.025-.361s.026-.282.026-.361q0-.409-.059-1.14t-.059-1.14q0-.127.014-.382c.01-.169.015-.3.015-.378a.513.513,0,0,0-.17-.4.6.6,0,0,0-.418-.156q-.549,0-.586.658l0,.047a1.81,1.81,0,0,0-1.291-.617,1.1,1.1,0,0,0-1.094.662,3.372,3.372,0,0,0-.2,1.329v.3q0,.193,0,.273a5.067,5.067,0,0,1-.09.842,5.123,5.123,0,0,0-.09.839.507.507,0,0,0,.168.389.588.588,0,0,0,.415.155" transform="translate(-282.431 -98.371)" fill="#263238"/>
          <path id="Trazado_878058" data-name="Trazado 878058" d="M368.179,265.856a.516.516,0,0,0,.574-.507q.058-.432.117-.868a6.48,6.48,0,0,0,.063-.868c0-.073,0-.2-.015-.373s-.014-.3-.014-.373c0-.019,0-.069-.009-.148s-.008-.145-.008-.2c0-.232.056-.347.168-.347a.935.935,0,0,1,.7.461,3.487,3.487,0,0,1,.54,1.171c0,.094.017.22.035.378a3.275,3.275,0,0,1,.023.378,3.619,3.619,0,0,0,.027.363,3.618,3.618,0,0,1,.027.363.539.539,0,0,0,.166.406.618.618,0,0,0,.832,0,.542.542,0,0,0,.163-.4c0-.08.009-.2.025-.361s.026-.282.026-.361q0-.409-.059-1.14t-.059-1.14c0-.085.005-.212.014-.382s.015-.3.015-.378a.513.513,0,0,0-.17-.4.6.6,0,0,0-.417-.156q-.549,0-.586.658l0,.047a1.81,1.81,0,0,0-1.291-.617,1.1,1.1,0,0,0-1.094.662,3.372,3.372,0,0,0-.2,1.329v.3q0,.193,0,.273a5.07,5.07,0,0,1-.09.842,5.108,5.108,0,0,0-.09.839.506.506,0,0,0,.168.389.588.588,0,0,0,.415.155" transform="translate(-334.94 -98.371)" fill="#263238"/>
          <path id="Trazado_878059" data-name="Trazado 878059" d="M368.179,285.213a.516.516,0,0,0,.574-.507c.039-.287.078-.577.117-.867a6.48,6.48,0,0,0,.063-.868c0-.073,0-.2-.015-.373s-.014-.3-.014-.373c0-.019,0-.069-.009-.148s-.008-.145-.008-.2c0-.232.056-.347.168-.347a.935.935,0,0,1,.7.461,3.487,3.487,0,0,1,.54,1.171c0,.094.017.22.035.378a3.266,3.266,0,0,1,.023.378,3.621,3.621,0,0,0,.027.363,3.617,3.617,0,0,1,.027.363.54.54,0,0,0,.166.406.618.618,0,0,0,.832,0,.542.542,0,0,0,.163-.4c0-.08.009-.2.025-.361s.026-.282.026-.361q0-.409-.059-1.14t-.059-1.14c0-.085.005-.212.014-.382s.015-.3.015-.378a.512.512,0,0,0-.17-.394.6.6,0,0,0-.417-.156q-.549,0-.586.658l0,.047a1.811,1.811,0,0,0-1.291-.617,1.1,1.1,0,0,0-1.094.662,3.372,3.372,0,0,0-.2,1.329v.3q0,.194,0,.273a5.07,5.07,0,0,1-.09.842,5.107,5.107,0,0,0-.09.839.506.506,0,0,0,.168.389.588.588,0,0,0,.415.155" transform="translate(-334.94 -105.667)" fill="#263238"/>
          <path id="Trazado_878060" data-name="Trazado 878060" d="M316.893,289.51a3.047,3.047,0,0,0,1.115-.205.512.512,0,0,0,.377.155.547.547,0,0,0,.388-.151.5.5,0,0,0,.161-.378c0-.067,0-.169-.012-.308s-.012-.241-.012-.308v-4.749a1.059,1.059,0,0,0-.135-.536.522.522,0,0,0-.477-.3c-.3,0-.449.162-.449.486a1.571,1.571,0,0,0,.015.174,1.7,1.7,0,0,1,.014.174v1.605a3.052,3.052,0,0,0-.6-.257,1.9,1.9,0,0,0-.55-.087,1.989,1.989,0,0,0-1.593.717,2.439,2.439,0,0,0-.566,1.626,2.274,2.274,0,0,0,.659,1.648,2.221,2.221,0,0,0,1.66.691m-.16-3.609a1.272,1.272,0,0,1,.5.126,3.773,3.773,0,0,1,.641.378q0,.4,0,1.781a2.571,2.571,0,0,1-.985.247,1.161,1.161,0,0,1-.876-.358,1.253,1.253,0,0,1-.344-.9,1.41,1.41,0,0,1,.281-.9.946.946,0,0,1,.779-.369" transform="translate(-249.215 -106.57)" fill="#263238"/>
          <path id="Trazado_878061" data-name="Trazado 878061" d="M319.315,278.521H310.2a.618.618,0,0,1,0-1.235h9.119a.618.618,0,0,1,0,1.235" transform="translate(-247.092 -104.517)" fill="#263238"/>
          <path id="Trazado_878062" data-name="Trazado 878062" d="M357.043,271.488a1.219,1.219,0,0,0,.612-.373,5.536,5.536,0,0,0,.679.279,1.7,1.7,0,0,0,.5.094,1.975,1.975,0,0,0,1.515-.541,2.575,2.575,0,0,0-.241-3.347,2.484,2.484,0,0,0-1.786-.719,2.409,2.409,0,0,0-.922.224q-.633.27-.633.627a.389.389,0,0,0,.1.262,2.776,2.776,0,0,1,.065.417c.015.168.023.363.023.588a4.073,4.073,0,0,1-.113,1.141q-.013.037-.193.432a2.213,2.213,0,0,0-.163.407.462.462,0,0,0,.169.365.588.588,0,0,0,.392.145m1.04-2.829a3.076,3.076,0,0,0-.019-.308c-.013-.116-.032-.245-.057-.388a.96.96,0,0,1,.148-.061.441.441,0,0,1,.112-.019,1.341,1.341,0,0,1,1,.447,1.613,1.613,0,0,1,.226,1.877.691.691,0,0,1-.6.283,1.41,1.41,0,0,1-.492-.085,1.524,1.524,0,0,1-.438-.254,13.032,13.032,0,0,0,.126-1.492" transform="translate(-317.245 -100.595)" fill="#263238"/>
          <path id="Trazado_878063" data-name="Trazado 878063" d="M359.841,289.51a3.049,3.049,0,0,0,1.115-.205.511.511,0,0,0,.377.155.547.547,0,0,0,.388-.151.5.5,0,0,0,.161-.378c0-.067,0-.169-.012-.308s-.012-.241-.012-.308v-4.749a1.059,1.059,0,0,0-.135-.536.522.522,0,0,0-.477-.3c-.3,0-.449.162-.449.486a1.58,1.58,0,0,0,.015.174,1.7,1.7,0,0,1,.014.174v1.605a3.053,3.053,0,0,0-.6-.257,1.9,1.9,0,0,0-.549-.087,1.989,1.989,0,0,0-1.593.717,2.439,2.439,0,0,0-.566,1.626,2.274,2.274,0,0,0,.659,1.648,2.221,2.221,0,0,0,1.66.691m-.159-3.609a1.272,1.272,0,0,1,.5.126,3.776,3.776,0,0,1,.641.378q0,.4,0,1.781a2.571,2.571,0,0,1-.985.247,1.161,1.161,0,0,1-.876-.358,1.256,1.256,0,0,1-.344-.9,1.41,1.41,0,0,1,.281-.9.946.946,0,0,1,.779-.369" transform="translate(-318.922 -106.57)" fill="#263238"/>
          <path id="Trazado_878064" data-name="Trazado 878064" d="M362.264,278.521h-9.119a.618.618,0,0,1,0-1.235h9.119a.618.618,0,0,1,0,1.235" transform="translate(-316.801 -104.517)" fill="#263238"/>
          <path id="Trazado_878065" data-name="Trazado 878065" d="M328.317,281.928a21.747,21.747,0,0,1-1.865-18.622c.272-.741,1.465-.421,1.191.328a20.547,20.547,0,0,0,1.741,17.67c.416.68-.652,1.3-1.067.624" transform="translate(-266.359 -99.089)" fill="#263238"/>
          <path id="Trazado_878066" data-name="Trazado 878066" d="M342.882,277.064h-4.243a.618.618,0,1,1,0-1.236h4.243a.618.618,0,0,1,0,1.236" transform="translate(-288.388 -103.967)" fill="#263238"/>
          <path id="Trazado_878067" data-name="Trazado 878067" d="M342.882,280.835h-4.243a.617.617,0,1,1,0-1.235h4.243a.617.617,0,1,1,0,1.235" transform="translate(-288.388 -105.389)" fill="#263238"/>
          <path id="Trazado_878068" data-name="Trazado 878068" d="M314.1,271.488a1.219,1.219,0,0,0,.612-.373,5.536,5.536,0,0,0,.679.279,1.7,1.7,0,0,0,.5.094,1.975,1.975,0,0,0,1.515-.541,2.575,2.575,0,0,0-.241-3.347,2.484,2.484,0,0,0-1.786-.719,2.409,2.409,0,0,0-.922.224q-.633.27-.633.627a.39.39,0,0,0,.1.262,2.772,2.772,0,0,1,.065.417c.015.168.023.363.023.588a4.073,4.073,0,0,1-.113,1.141q-.013.037-.193.432a2.218,2.218,0,0,0-.163.407.462.462,0,0,0,.169.365.588.588,0,0,0,.392.145m1.04-2.829a3.076,3.076,0,0,0-.019-.308c-.013-.116-.032-.245-.057-.388a.963.963,0,0,1,.148-.061.441.441,0,0,1,.112-.019,1.34,1.34,0,0,1,1,.447,1.613,1.613,0,0,1,.226,1.877.691.691,0,0,1-.6.283,1.411,1.411,0,0,1-.492-.085,1.524,1.524,0,0,1-.438-.254,13.038,13.038,0,0,0,.126-1.492" transform="translate(-247.537 -100.595)" fill="#263238"/>
          <path id="Trazado_878069" data-name="Trazado 878069" d="M315.875,43.531V83.555a.722.722,0,0,1-.712.712H240.339c-3.434,0-6.889.113-10.321,0-.05,0-.1,0-.151,0a.712.712,0,0,1,0-1.423h81.845a27.245,27.245,0,0,1,3.3,0,1.207,1.207,0,0,0,.15,0l-.711.712V43.531a.712.712,0,0,1,1.422,0" transform="translate(-192.948 -16.149)" fill="#263238"/>
          <path id="Trazado_878070" data-name="Trazado 878070" d="M230.019,45.809,228.142,43.2l-.275-.383H229.1q-1.021,1.365-2.041,2.73a.731.731,0,0,1-.974.255.719.719,0,0,1-.255-.973l2.041-2.729a.724.724,0,0,1,1.229,0q.938,1.307,1.877,2.613c.092.128.184.255.275.383a.715.715,0,0,1-.255.973.732.732,0,0,1-.974-.255" transform="translate(-106.266 -15.739)" fill="#263238"/>
          <path id="Trazado_878071" data-name="Trazado 878071" d="M367.735,105l-2.614,1.878-.382.274v-1.228l2.73,2.041a.73.73,0,0,1,.255.973.719.719,0,0,1-.973.255l-2.729-2.042a.724.724,0,0,1,0-1.228l2.613-1.878.383-.275a.715.715,0,0,1,.973.255.732.732,0,0,1-.255.973" transform="translate(-328.959 -39.076)" fill="#263238"/>
          <path id="Trazado_878072" data-name="Trazado 878072" d="M309.094,83.53c-3.056-7.246-4.945-15.139-9.729-21.528-3.97-5.3-10.246-9.218-17.067-7.684a10.981,10.981,0,0,0-7.44,5.636c-1.7,3.151-2.444,6.752-4.644,9.639a9.221,9.221,0,0,1-3.775,3.048,8.832,8.832,0,0,1-5.32.285c-3.866-.879-6.937-3.574-10.67-4.773a9.028,9.028,0,0,0-6.082.085,12.184,12.184,0,0,0-4.655,3.32c-2.91,3.239-4.145,7.61-5.34,11.7A.712.712,0,0,1,233,82.873c1.112-3.8,2.264-7.74,4.626-10.982a13.145,13.145,0,0,1,8.63-5.585c4.064-.526,7.553,1.782,10.987,3.58a14.072,14.072,0,0,0,6,1.9,6.6,6.6,0,0,0,4.884-1.951c2.685-2.629,3.5-6.466,5.076-9.75a12.557,12.557,0,0,1,7.213-6.7,15.641,15.641,0,0,1,9.579-.128,19.86,19.86,0,0,1,8.651,5.676c6.262,6.76,8.337,15.959,11.823,24.226.355.842-1.021,1.21-1.372.378" transform="translate(-189.957 -19.812)" fill="#263238"/>
          <path id="Trazado_878073" data-name="Trazado 878073" d="M310.906,59.244a1.444,1.444,0,0,0,.728-.444,6.549,6.549,0,0,0,.808.332,2.009,2.009,0,0,0,.6.112,2.352,2.352,0,0,0,1.8-.644,3.064,3.064,0,0,0-.287-3.986,2.956,2.956,0,0,0-2.126-.856,2.853,2.853,0,0,0-1.1.267q-.753.321-.754.746a.464.464,0,0,0,.115.312,3.228,3.228,0,0,1,.077.5q.027.3.027.7a4.868,4.868,0,0,1-.135,1.36c-.011.029-.087.2-.23.513a2.617,2.617,0,0,0-.194.485.548.548,0,0,0,.2.435.694.694,0,0,0,.467.173m1.237-3.369a3.456,3.456,0,0,0-.022-.367c-.015-.138-.037-.292-.068-.462a1.123,1.123,0,0,1,.178-.072.487.487,0,0,1,.132-.022,1.6,1.6,0,0,1,1.188.531,1.922,1.922,0,0,1,.269,2.236.823.823,0,0,1-.718.337,1.672,1.672,0,0,1-.586-.1,1.826,1.826,0,0,1-.522-.3,15.631,15.631,0,0,0,.15-1.777" transform="translate(-243.021 -20.263)" fill="#263238"/>
          <path id="Trazado_878074" data-name="Trazado 878074" d="M319.947,51.33a2,2,0,0,0,.289-.032,2.009,2.009,0,0,1,.282-.032l1.1,0a3.845,3.845,0,0,1,.429.036,3.864,3.864,0,0,0,.433.036.7.7,0,0,0,.12-.015.69.69,0,0,1,.119-.015.451.451,0,0,0,.456-.272,1.407,1.407,0,0,0,.075-.53,2.081,2.081,0,0,0-.31-1.168,2.782,2.782,0,0,0-.773-.724l-1-.66a1.21,1.21,0,0,1-.589-.974q0-.141.235-.282a.9.9,0,0,1,.459-.14,1.369,1.369,0,0,1,.837.353,1.384,1.384,0,0,0,.607.352.621.621,0,0,0,.346-.1.375.375,0,0,0,.186-.332.507.507,0,0,0-.186-.392,4.533,4.533,0,0,0-.787-.582,2.1,2.1,0,0,0-2.168.075,1.169,1.169,0,0,0-.593,1.014,1.922,1.922,0,0,0,.292,1.079,2.534,2.534,0,0,0,.72.69q.466.294.933.586a1.453,1.453,0,0,1,.761,1.056q-.206-.026-.6-.06-.8-.041-1.138-.041a1.557,1.557,0,0,0-.634.138q-.388.171-.388.44a.5.5,0,0,0,.5.5" transform="translate(-256.562 -17.185)" fill="#263238"/>
          <path id="Trazado_878075" data-name="Trazado 878075" d="M332.174,57.575a3.629,3.629,0,0,0,1.328-.244.608.608,0,0,0,.449.184.653.653,0,0,0,.462-.179.589.589,0,0,0,.193-.449c0-.08-.006-.2-.015-.367s-.016-.287-.016-.367V50.5a1.265,1.265,0,0,0-.159-.639.623.623,0,0,0-.569-.355q-.534,0-.534.579a2.021,2.021,0,0,0,.017.207,1.853,1.853,0,0,1,.017.207v1.912a3.658,3.658,0,0,0-.708-.307,2.276,2.276,0,0,0-.654-.1,2.367,2.367,0,0,0-1.9.854,2.9,2.9,0,0,0-.674,1.937,2.705,2.705,0,0,0,.784,1.962,2.643,2.643,0,0,0,1.977.823m-.19-4.3a1.519,1.519,0,0,1,.6.15,4.553,4.553,0,0,1,.764.449q0,.475,0,2.122a3.067,3.067,0,0,1-1.173.295,1.385,1.385,0,0,1-1.044-.427,1.492,1.492,0,0,1-.409-1.076,1.68,1.68,0,0,1,.335-1.073,1.127,1.127,0,0,1,.928-.439" transform="translate(-274.13 -18.659)" fill="#263238"/>
          <path id="Trazado_878076" data-name="Trazado 878076" d="M349.016,59.227a2.77,2.77,0,0,0,1.842-.624,2.161,2.161,0,0,0,.784-1.738,3.714,3.714,0,0,0-.7-2.051,2.252,2.252,0,0,0-1.857-1.208,3.326,3.326,0,0,0-1.212.28q-.843.344-.843.794a.635.635,0,0,0,.169.434.588.588,0,0,0,.464.2.907.907,0,0,0,.517-.232,1.478,1.478,0,0,1,.906-.232q.386,0,.834.754a2.588,2.588,0,0,1,.43,1.257.989.989,0,0,1-.38.824,1.478,1.478,0,0,1-.948.285,1.852,1.852,0,0,1-.819-.254,1.989,1.989,0,0,0-.614-.255.627.627,0,0,0-.462.194.616.616,0,0,0-.192.444q0,.39.849.779a3.19,3.19,0,0,0,1.238.345" transform="translate(-302.08 -20.206)" fill="#263238"/>
          <path id="Trazado_878077" data-name="Trazado 878077" d="M338.628,51.08a2,2,0,0,0,.289-.032,2.01,2.01,0,0,1,.282-.032l1.1,0a3.845,3.845,0,0,1,.429.036,3.864,3.864,0,0,0,.432.036.77.77,0,0,0,.12-.015.691.691,0,0,1,.119-.015.451.451,0,0,0,.455-.272,1.407,1.407,0,0,0,.075-.53,2.081,2.081,0,0,0-.31-1.168,2.792,2.792,0,0,0-.773-.724l-1-.66a1.21,1.21,0,0,1-.589-.974q0-.141.235-.282a.9.9,0,0,1,.459-.14,1.369,1.369,0,0,1,.837.353,1.384,1.384,0,0,0,.607.352.622.622,0,0,0,.346-.1.375.375,0,0,0,.186-.332.507.507,0,0,0-.186-.392,4.53,4.53,0,0,0-.787-.582,2.1,2.1,0,0,0-2.168.075,1.169,1.169,0,0,0-.593,1.014,1.921,1.921,0,0,0,.292,1.079,2.534,2.534,0,0,0,.72.69q.466.294.933.586a1.452,1.452,0,0,1,.761,1.056q-.206-.026-.6-.06-.8-.041-1.138-.041a1.558,1.558,0,0,0-.634.138q-.388.171-.388.44a.5.5,0,0,0,.5.5" transform="translate(-286.882 -17.091)" fill="#263238"/>
          <path id="Trazado_878078" data-name="Trazado 878078" d="M357.138,51.58a2,2,0,0,0,.289-.032,2.011,2.011,0,0,1,.282-.032l1.1,0a3.845,3.845,0,0,1,.429.036,3.862,3.862,0,0,0,.433.036.7.7,0,0,0,.12-.015.689.689,0,0,1,.119-.015.451.451,0,0,0,.455-.272,1.406,1.406,0,0,0,.075-.53,2.08,2.08,0,0,0-.31-1.168,2.78,2.78,0,0,0-.773-.724l-1-.66a1.21,1.21,0,0,1-.589-.974q0-.141.235-.282a.9.9,0,0,1,.459-.14,1.369,1.369,0,0,1,.837.353,1.383,1.383,0,0,0,.607.352.62.62,0,0,0,.346-.1.375.375,0,0,0,.186-.332.507.507,0,0,0-.186-.392,4.529,4.529,0,0,0-.787-.582,2.1,2.1,0,0,0-2.168.075A1.169,1.169,0,0,0,356.7,47.2a1.921,1.921,0,0,0,.292,1.079,2.534,2.534,0,0,0,.72.69q.466.294.933.586a1.452,1.452,0,0,1,.761,1.056q-.206-.026-.6-.06-.8-.041-1.138-.041a1.558,1.558,0,0,0-.634.138q-.388.171-.388.44a.5.5,0,0,0,.5.5" transform="translate(-316.925 -17.279)" fill="#263238"/>
          <path id="Trazado_878079" data-name="Trazado 878079" d="M342.613,57.891h-2.54a.356.356,0,1,1,0-.712h2.54a.356.356,0,1,1,0,.712" transform="translate(-288.914 -21.552)" fill="#263238"/>
          <path id="Trazado_878080" data-name="Trazado 878080" d="M342.613,60.115h-2.54a.356.356,0,1,1,0-.712h2.54a.356.356,0,1,1,0,.712" transform="translate(-288.914 -22.391)" fill="#263238"/>
          <path id="Trazado_878081" data-name="Trazado 878081" d="M325.209,56.669v2.515a.356.356,0,1,1-.712,0V56.669a.356.356,0,1,1,.712,0" transform="translate(-261.671 -21.226)" fill="#263238"/>
          <path id="Trazado_878082" data-name="Trazado 878082" d="M325.4,58.873h-2.758a.356.356,0,0,1,0-.712H325.4a.356.356,0,0,1,0,.712" transform="translate(-260.844 -21.923)" fill="#263238"/>
          <path id="Trazado_878083" data-name="Trazado 878083" d="M68.344,92.425h42.689V62.548H68.344Zm42.138-.551H68.9V63.1h41.586Z" transform="translate(112.107 -23.576)" fill="#263238"/>
          <path id="Trazado_878084" data-name="Trazado 878084" d="M68.2,92.517h42.689a.234.234,0,0,0,.234-.234V62.407a.234.234,0,0,0-.234-.234H68.2a.234.234,0,0,0-.234.234V92.284a.234.234,0,0,0,.234.234m42.455-.467H68.435V62.64h42.222Zm-41.9-.083h41.586a.234.234,0,0,0,.234-.234V62.957a.234.234,0,0,0-.234-.234H68.753a.234.234,0,0,0-.234.234V91.733a.234.234,0,0,0,.234.234m41.353-.467H68.987V63.192h41.119Z" transform="translate(112.249 -23.435)" fill="#263238"/>
          <path id="Trazado_878085" data-name="Trazado 878085" d="M154.429,85.539a.284.284,0,0,0,.134-.034.276.276,0,0,0,.142-.241V55.938a.276.276,0,0,0-.13-.233L136.394,44.323a.276.276,0,0,0-.422.234V73.882a.277.277,0,0,0,.13.234L154.283,85.5a.276.276,0,0,0,.146.042m-.275-29.448V84.767L136.523,73.73V45.055Z" transform="translate(26.297 -16.691)" fill="#263238"/>
          <path id="Trazado_878086" data-name="Trazado 878086" d="M154.288,85.631a.525.525,0,0,0,.246-.062.511.511,0,0,0,.264-.447V55.8a.506.506,0,0,0-.239-.431L136.377,43.983a.51.51,0,0,0-.78.432V73.741a.508.508,0,0,0,.239.431l18.181,11.382a.516.516,0,0,0,.27.077M136.129,44.379h0l18.182,11.382.019,29.362-.042.042a.045.045,0,0,1-.023-.007l-18.18-11.381-.021-29.362.065-.036m17.883,40.479a.238.238,0,0,0,.113-.029.234.234,0,0,0,.12-.2V55.949a.232.232,0,0,0-.11-.2l-17.63-11.036a.233.233,0,0,0-.358.2V73.588a.233.233,0,0,0,.11.2l17.63,11.037a.233.233,0,0,0,.124.036m-.234-28.78V84.2L136.616,73.458V45.335Z" transform="translate(26.438 -16.549)" fill="#263238"/>
          <path id="Trazado_878087" data-name="Trazado 878087" d="M86.862,85.665l.293-.467-2.8-1.755-.293.467Zm-3.738-2.34.293-.467-2.8-1.755-.293.467Zm-3.738-2.34.293-.467-2.8-1.755-.292.467Zm-3.737-2.34.293-.467-2.8-1.755-.293.467Zm-3.738-2.339.293-.467-2.8-1.755-.293.467Zm-3.361-2.854H69.1V70.145h-.551Zm0-4.409H69.1V65.735h-.551Zm0-4.409H69.1V61.326h-.551Zm0-4.41H69.1V56.916h-.551Zm0-4.409H69.1V52.506h-.551Zm0-4.409H69.1V48.1h-.551Zm0-4.409H69.1v-2.27h-.551Z" transform="translate(135.855 -16.858)" fill="#263238"/>
          <path id="Trazado_878088" data-name="Trazado 878088" d="M86.721,85.757a.234.234,0,0,0,.2-.11l.293-.467A.231.231,0,0,0,87.241,85a.234.234,0,0,0-.1-.146l-2.8-1.755a.233.233,0,0,0-.322.074l-.293.467a.235.235,0,0,0,.074.322l2.8,1.755a.234.234,0,0,0,.123.036m-.029-.627-.044.072L84.24,83.694l.044-.072Zm-3.709-1.712a.211.211,0,0,0,.052-.006.232.232,0,0,0,.146-.1l.293-.467a.231.231,0,0,0,.029-.176.234.234,0,0,0-.1-.146l-2.8-1.755a.233.233,0,0,0-.322.074l-.293.467a.233.233,0,0,0,.074.322l2.8,1.755a.229.229,0,0,0,.123.036m-.029-.627-.045.072L80.5,81.355l.044-.071Zm-3.709-1.713a.234.234,0,0,0,.2-.11l.293-.467a.234.234,0,0,0,.03-.176.237.237,0,0,0-.1-.146l-2.8-1.755a.234.234,0,0,0-.322.074l-.293.467a.234.234,0,0,0,.074.322l2.8,1.755a.231.231,0,0,0,.123.036m-.029-.627-.045.071-2.406-1.507.044-.072Zm-3.709-1.713a.234.234,0,0,0,.2-.11L76,78.16a.234.234,0,0,0-.074-.322l-2.8-1.755a.233.233,0,0,0-.322.074l-.293.467a.239.239,0,0,0-.03.176.236.236,0,0,0,.1.146l2.8,1.755a.23.23,0,0,0,.123.036m-.029-.627-.044.072-2.408-1.507.045-.072ZM71.77,76.4a.236.236,0,0,0,.2-.11l.292-.467a.234.234,0,0,0-.074-.322l-2.8-1.755a.233.233,0,0,0-.322.074l-.293.467a.237.237,0,0,0-.03.176.234.234,0,0,0,.1.146l2.8,1.755a.234.234,0,0,0,.123.036m-.029-.627-.044.071-2.408-1.507.045-.072ZM68.41,73.544h.551a.234.234,0,0,0,.234-.234V70a.234.234,0,0,0-.234-.234H68.41a.234.234,0,0,0-.234.234V73.31a.234.234,0,0,0,.234.234m.318-.467h-.084v-2.84h.084Zm-.318-3.942h.551a.234.234,0,0,0,.234-.234V65.593a.234.234,0,0,0-.234-.234H68.41a.234.234,0,0,0-.234.234V68.9a.234.234,0,0,0,.234.234m.318-.467h-.084v-2.84h.084Zm-.318-3.942h.551a.234.234,0,0,0,.234-.234V61.184a.234.234,0,0,0-.234-.234H68.41a.234.234,0,0,0-.234.234v3.307a.234.234,0,0,0,.234.234m.318-.467h-.084v-2.84h.084Zm-.318-3.943h.551a.234.234,0,0,0,.234-.234V56.774a.234.234,0,0,0-.234-.234H68.41a.234.234,0,0,0-.234.234v3.307a.234.234,0,0,0,.234.234m.318-.467h-.084v-2.84h.084Zm-.318-3.942h.551a.234.234,0,0,0,.234-.234V52.364a.234.234,0,0,0-.234-.234H68.41a.234.234,0,0,0-.234.234v3.307a.234.234,0,0,0,.234.234m.318-.467h-.084V52.6h.084ZM68.41,51.5h.551a.234.234,0,0,0,.234-.234V47.955a.234.234,0,0,0-.234-.234H68.41a.234.234,0,0,0-.234.234v3.307a.234.234,0,0,0,.234.234m.318-.467h-.084v-2.84h.084Zm-.318-3.943h.551a.234.234,0,0,0,.234-.234v-2.27a.234.234,0,0,0-.234-.234H68.41a.234.234,0,0,0-.234.234v2.27a.234.234,0,0,0,.234.234m.318-.467h-.084v-1.8h.084Z" transform="translate(135.997 -16.716)" fill="#263238"/>
          <path id="Trazado_878089" data-name="Trazado 878089" d="M128.939,85.54a.275.275,0,0,0,.275-.275V55.938a.276.276,0,0,0-.129-.234L110.9,44.323a.276.276,0,0,0-.146-.042H68.62a.276.276,0,1,0,0,.551h42.057l17.986,11.259V85.264a.276.276,0,0,0,.275.275" transform="translate(93.925 -16.691)" fill="#263238"/>
          <path id="Trazado_878090" data-name="Trazado 878090" d="M128.8,85.632a.51.51,0,0,0,.509-.509V55.8a.507.507,0,0,0-.239-.432L110.885,43.984a.512.512,0,0,0-.27-.078H68.477a.509.509,0,0,0,0,1.019h41.991l17.819,11.154V85.123a.51.51,0,0,0,.51.509M110.614,44.373l18.2,11.388.02,29.362c0,.046-.084.046-.084,0V55.95a.232.232,0,0,0-.11-.2L110.659,44.493a.237.237,0,0,0-.124-.036H68.477a.042.042,0,0,1-.042-.042.042.042,0,0,1,.042-.042Z" transform="translate(94.068 -16.549)" fill="#263238"/>
          <path id="Trazado_878091" data-name="Trazado 878091" d="M97.967,91.9h2.45v-.551h-2.45Zm3.553,0h3.307v-.551H101.52Zm4.409,0h3.307v-.551h-3.307Zm4.409,0h3.307v-.551h-3.307Zm4.409,0h3.307v-.551h-3.307Zm4.409,0h3.307v-.551h-3.307Zm4.41,0h3.307v-.551h-3.307Zm4.409,0h3.307v-.551h-3.307Zm4.409,0h3.307v-.551h-3.307Zm4.41,0H140.1v-.551H136.8Z" transform="translate(64.578 -34.431)" fill="#263238"/>
          <path id="Trazado_878092" data-name="Trazado 878092" d="M97.826,91.991h2.45a.234.234,0,0,0,.234-.234v-.551a.234.234,0,0,0-.234-.234h-2.45a.234.234,0,0,0-.234.234v.551a.234.234,0,0,0,.234.234m2.216-.467H98.059V91.44h1.983Zm1.336.467h3.307a.234.234,0,0,0,.234-.234v-.551a.234.234,0,0,0-.234-.234h-3.307a.234.234,0,0,0-.234.234v.551a.234.234,0,0,0,.234.234m3.073-.467h-2.84V91.44h2.84Zm1.337.467H109.1a.234.234,0,0,0,.234-.234v-.551a.234.234,0,0,0-.234-.234h-3.307a.234.234,0,0,0-.234.234v.551a.234.234,0,0,0,.234.234m3.074-.467h-2.84V91.44h2.84Zm1.336.467H113.5a.234.234,0,0,0,.234-.234v-.551a.234.234,0,0,0-.234-.234H110.2a.234.234,0,0,0-.234.234v.551a.234.234,0,0,0,.234.234m3.074-.467h-2.84V91.44h2.84Zm1.336.467h3.307a.234.234,0,0,0,.234-.234v-.551a.234.234,0,0,0-.234-.234h-3.307a.234.234,0,0,0-.234.234v.551a.234.234,0,0,0,.234.234m3.074-.467h-2.84V91.44h2.84Zm1.336.467h3.308a.234.234,0,0,0,.234-.234v-.551a.234.234,0,0,0-.234-.234h-3.308a.234.234,0,0,0-.234.234v.551a.234.234,0,0,0,.234.234m3.074-.467H119.25V91.44h2.841Zm1.335.467h3.308a.234.234,0,0,0,.234-.234v-.551a.234.234,0,0,0-.234-.234h-3.308a.234.234,0,0,0-.234.234v.551a.234.234,0,0,0,.234.234m3.074-.467h-2.841V91.44H126.5Zm1.336.467h3.307a.234.234,0,0,0,.234-.234v-.551a.234.234,0,0,0-.234-.234h-3.307a.234.234,0,0,0-.234.234v.551a.234.234,0,0,0,.234.234m3.074-.467h-2.841V91.44h2.841Zm1.336.467h3.307a.234.234,0,0,0,.234-.234v-.551a.234.234,0,0,0-.234-.234h-3.307a.234.234,0,0,0-.234.234v.551a.234.234,0,0,0,.234.234m3.073-.467h-2.84V91.44h2.84Zm1.336.467h3.308a.234.234,0,0,0,.234-.234v-.551a.234.234,0,0,0-.234-.234h-3.308a.234.234,0,0,0-.234.234v.551a.234.234,0,0,0,.234.234m3.074-.467h-2.84V91.44h2.84Z" transform="translate(64.719 -34.29)" fill="#263238"/>
          <path id="Trazado_878093" data-name="Trazado 878093" d="M60.818,128.112a2.985,2.985,0,0,0,1.872-.529,1.264,1.264,0,0,0,.576-1.015.7.7,0,0,0-.178-.489.632.632,0,0,0-.491-.194.649.649,0,0,0-.618.43q-.266.576-1.207.576a3.646,3.646,0,0,1-1.558-.351q-.781-.361-.781-.791a.748.748,0,0,1,.487-.776,4.828,4.828,0,0,1,1.39-.16,3.752,3.752,0,0,0,1.451-.3,1.192,1.192,0,0,0,.851-1.113,2.192,2.192,0,0,0-.973-1.673,3.327,3.327,0,0,0-2.115-.76,3.917,3.917,0,0,0-1.132.211q-.837.262-.837.6a.624.624,0,0,0,.168.43.613.613,0,0,0,.482.211,3.452,3.452,0,0,0,.657-.093,3.478,3.478,0,0,1,.662-.093,2.474,2.474,0,0,1,1.146.29q.562.291.561.632a.341.341,0,0,1-.171.292,1.243,1.243,0,0,1-.513.162l-1.193.065a2.826,2.826,0,0,0-1.642.585,1.923,1.923,0,0,0-.664,1.553,1.978,1.978,0,0,0,1.375,1.829,5.78,5.78,0,0,0,2.4.472" transform="translate(166.913 -45.594)" fill="#263238"/>
          <path id="Trazado_878094" data-name="Trazado 878094" d="M81.557,127.64a2.493,2.493,0,0,0,.363-.04,2.488,2.488,0,0,1,.353-.04l1.376,0a4.9,4.9,0,0,1,.538.044,4.775,4.775,0,0,0,.543.044.867.867,0,0,0,.15-.019.868.868,0,0,1,.15-.019.564.564,0,0,0,.571-.341,1.767,1.767,0,0,0,.093-.664,2.6,2.6,0,0,0-.388-1.465,3.5,3.5,0,0,0-.968-.908l-1.259-.828a1.518,1.518,0,0,1-.74-1.221q0-.178.295-.353a1.121,1.121,0,0,1,.576-.175,1.719,1.719,0,0,1,1.05.442,1.739,1.739,0,0,0,.76.442.781.781,0,0,0,.435-.121.47.47,0,0,0,.234-.417.634.634,0,0,0-.234-.491,5.7,5.7,0,0,0-.987-.73,2.636,2.636,0,0,0-2.718.094A1.466,1.466,0,0,0,81,122.142a2.417,2.417,0,0,0,.365,1.353,3.191,3.191,0,0,0,.9.865q.585.369,1.169.734a1.823,1.823,0,0,1,.955,1.325q-.257-.033-.758-.075-1-.051-1.427-.052a1.958,1.958,0,0,0-.8.173q-.487.215-.487.552a.6.6,0,0,0,.173.426.592.592,0,0,0,.454.2" transform="translate(129.605 -45.399)" fill="#263238"/>
          <path id="Trazado_878095" data-name="Trazado 878095" d="M90.433,129.282a1.357,1.357,0,0,0,.683-.417,6.157,6.157,0,0,0,.758.312,1.866,1.866,0,0,0,.556.105,2.206,2.206,0,0,0,1.692-.6,2.873,2.873,0,0,0-.269-3.736,2.77,2.77,0,0,0-1.993-.8,2.685,2.685,0,0,0-1.029.25q-.707.3-.707.7a.436.436,0,0,0,.108.292,3.067,3.067,0,0,1,.072.465q.026.279.026.655a4.548,4.548,0,0,1-.126,1.274q-.014.042-.216.482a2.468,2.468,0,0,0-.183.454.515.515,0,0,0,.19.408.652.652,0,0,0,.437.162m1.16-3.158a3.162,3.162,0,0,0-.021-.344c-.014-.13-.035-.274-.063-.433a.985.985,0,0,1,.166-.067.448.448,0,0,1,.125-.021,1.5,1.5,0,0,1,1.113.5,1.8,1.8,0,0,1,.252,2.1.771.771,0,0,1-.674.317,1.564,1.564,0,0,1-.55-.1,1.7,1.7,0,0,1-.489-.283,14.644,14.644,0,0,0,.14-1.665" transform="translate(115.081 -46.792)" fill="#263238"/>
          <path id="Trazado_878096" data-name="Trazado 878096" d="M101.195,127.718a3.409,3.409,0,0,0,1.245-.229.573.573,0,0,0,.421.173.61.61,0,0,0,.433-.169.551.551,0,0,0,.18-.421c0-.075,0-.189-.014-.344s-.014-.269-.014-.344v-5.3a1.184,1.184,0,0,0-.15-.6.585.585,0,0,0-.533-.333q-.5,0-.5.543a1.836,1.836,0,0,0,.016.194,1.746,1.746,0,0,1,.017.194v1.792a3.42,3.42,0,0,0-.665-.287,2.11,2.11,0,0,0-.612-.1,2.219,2.219,0,0,0-1.778.8,2.72,2.72,0,0,0-.632,1.815,2.535,2.535,0,0,0,.735,1.839,2.479,2.479,0,0,0,1.853.772m-.178-4.029a1.414,1.414,0,0,1,.561.141,4.255,4.255,0,0,1,.716.421q0,.445,0,1.989a2.877,2.877,0,0,1-1.1.276,1.3,1.3,0,0,1-.978-.4,1.4,1.4,0,0,1-.384-1.009,1.577,1.577,0,0,1,.313-1.006,1.058,1.058,0,0,1,.87-.412" transform="translate(100.81 -45.289)" fill="#263238"/>
          <path id="Trazado_878097" data-name="Trazado 878097" d="M108.9,126.6a1.2,1.2,0,0,0,.167-.017,1.316,1.316,0,0,1,.173-.016c.085,0,.21,0,.374.007s.292.007.38.007q0,.156,0,.409c0,.215,0,.35,0,.4a.5.5,0,0,0,.171.389.661.661,0,0,0,.851,0,.514.514,0,0,0,.171-.4q0,.062.009-.8.351.019.614.019a1.36,1.36,0,0,0,.589-.121.481.481,0,0,0,.323-.44.458.458,0,0,0-.3-.478,2.066,2.066,0,0,0-.612-.06q-.267,0-.614-.019c0-.031,0-.093,0-.187s0-.17,0-.229q0-.936-.632-.936a.651.651,0,0,0-.431.152.48.48,0,0,0-.183.386c0,.05.006.127.016.232s.017.183.017.236l0,.328c-.072,0-.126,0-.164,0-.062,0-.156,0-.283-.01s-.222-.009-.287-.009q-.954,0-.955.578a.553.553,0,0,0,.161.4.589.589,0,0,0,.434.176" transform="translate(85.507 -46.786)" fill="#263238"/>
          <path id="Trazado_878098" data-name="Trazado 878098" d="M118,127.64a2.493,2.493,0,0,0,.363-.04,2.481,2.481,0,0,1,.353-.04l1.376,0a4.9,4.9,0,0,1,.538.044,4.764,4.764,0,0,0,.543.044.861.861,0,0,0,.15-.019.881.881,0,0,1,.15-.019.564.564,0,0,0,.571-.341,1.767,1.767,0,0,0,.093-.664,2.6,2.6,0,0,0-.388-1.465,3.488,3.488,0,0,0-.969-.908l-1.259-.828a1.517,1.517,0,0,1-.739-1.221c0-.118.1-.236.295-.353a1.121,1.121,0,0,1,.575-.175,1.718,1.718,0,0,1,1.051.442,1.739,1.739,0,0,0,.76.442.781.781,0,0,0,.435-.121.469.469,0,0,0,.234-.417.632.632,0,0,0-.234-.491,5.722,5.722,0,0,0-.987-.73,2.636,2.636,0,0,0-2.718.094,1.467,1.467,0,0,0-.745,1.272,2.417,2.417,0,0,0,.365,1.353,3.2,3.2,0,0,0,.9.865q.585.369,1.17.734a1.823,1.823,0,0,1,.955,1.325q-.257-.033-.758-.075-1-.051-1.427-.052a1.963,1.963,0,0,0-.8.173q-.486.215-.487.552a.631.631,0,0,0,.627.622" transform="translate(70.456 -45.399)" fill="#263238"/>
          <path id="Trazado_878099" data-name="Trazado 878099" d="M129.091,127.718a3.409,3.409,0,0,0,1.245-.229.573.573,0,0,0,.421.173.608.608,0,0,0,.432-.169.551.551,0,0,0,.18-.421c0-.075,0-.189-.014-.344s-.014-.269-.014-.344v-5.3a1.184,1.184,0,0,0-.15-.6.584.584,0,0,0-.533-.333c-.333,0-.5.181-.5.543a1.877,1.877,0,0,0,.016.194,1.743,1.743,0,0,1,.017.194v1.792a3.42,3.42,0,0,0-.665-.287,2.107,2.107,0,0,0-.612-.1,2.219,2.219,0,0,0-1.778.8,2.723,2.723,0,0,0-.631,1.815,2.533,2.533,0,0,0,.735,1.839,2.476,2.476,0,0,0,1.852.772m-.178-4.029a1.415,1.415,0,0,1,.561.141,4.282,4.282,0,0,1,.716.421q0,.445,0,1.989a2.877,2.877,0,0,1-1.1.276,1.3,1.3,0,0,1-.978-.4,1.4,1.4,0,0,1-.384-1.009,1.574,1.574,0,0,1,.314-1.006,1.055,1.055,0,0,1,.87-.412" transform="translate(55.532 -45.289)" fill="#263238"/>
          <path id="Trazado_878100" data-name="Trazado 878100" d="M137.177,129.265a2.594,2.594,0,0,0,1.727-.585,2.021,2.021,0,0,0,.735-1.628,3.479,3.479,0,0,0-.659-1.923A2.111,2.111,0,0,0,137.239,124a3.121,3.121,0,0,0-1.137.262q-.79.322-.791.744a.591.591,0,0,0,.16.407.55.55,0,0,0,.435.192.85.85,0,0,0,.484-.217,1.385,1.385,0,0,1,.85-.217q.36,0,.782.707a2.428,2.428,0,0,1,.4,1.179.928.928,0,0,1-.356.772,1.394,1.394,0,0,1-.89.267,1.734,1.734,0,0,1-.766-.239,1.887,1.887,0,0,0-.576-.239.589.589,0,0,0-.433.183.579.579,0,0,0-.18.417q0,.365.8.73a3,3,0,0,0,1.16.323" transform="translate(41.831 -46.738)" fill="#263238"/>
          <path id="Trazado_878101" data-name="Trazado 878101" d="M144.7,126.6a1.22,1.22,0,0,0,.168-.017,1.317,1.317,0,0,1,.172-.016c.085,0,.211,0,.375.007s.292.007.38.007q0,.156,0,.409,0,.322.005.4a.5.5,0,0,0,.171.389.661.661,0,0,0,.851,0,.514.514,0,0,0,.171-.4q0,.062.009-.8.35.019.613.019a1.365,1.365,0,0,0,.589-.121.482.482,0,0,0,.323-.44.458.458,0,0,0-.3-.478,2.074,2.074,0,0,0-.613-.06c-.178,0-.383-.006-.613-.019,0-.031,0-.093,0-.187s0-.17,0-.229q0-.936-.632-.936a.65.65,0,0,0-.43.152.48.48,0,0,0-.183.386c0,.05.006.127.016.232s.017.183.017.236l-.005.328c-.072,0-.126,0-.164,0-.062,0-.157,0-.283-.01s-.222-.009-.288-.009q-.954,0-.955.578a.553.553,0,0,0,.161.4.587.587,0,0,0,.434.176" transform="translate(27.406 -46.786)" fill="#263238"/>
          <path id="Trazado_878102" data-name="Trazado 878102" d="M153.8,127.64a2.493,2.493,0,0,0,.363-.04,2.481,2.481,0,0,1,.353-.04l1.376,0a4.9,4.9,0,0,1,.538.044,4.753,4.753,0,0,0,.543.044.861.861,0,0,0,.15-.019.875.875,0,0,1,.15-.019.564.564,0,0,0,.571-.341,1.767,1.767,0,0,0,.093-.664,2.6,2.6,0,0,0-.388-1.465,3.488,3.488,0,0,0-.969-.908l-1.259-.828a1.517,1.517,0,0,1-.739-1.221c0-.118.1-.236.295-.353a1.121,1.121,0,0,1,.575-.175,1.718,1.718,0,0,1,1.051.442,1.739,1.739,0,0,0,.76.442.781.781,0,0,0,.435-.121.469.469,0,0,0,.234-.417.632.632,0,0,0-.234-.491,5.722,5.722,0,0,0-.987-.73,2.636,2.636,0,0,0-2.718.094,1.467,1.467,0,0,0-.745,1.272,2.417,2.417,0,0,0,.365,1.353,3.2,3.2,0,0,0,.9.865q.585.369,1.17.734a1.823,1.823,0,0,1,.955,1.325q-.257-.033-.758-.075-1-.051-1.427-.052a1.963,1.963,0,0,0-.8.173q-.486.215-.487.552a.631.631,0,0,0,.627.622" transform="translate(12.353 -45.399)" fill="#263238"/>
          <path id="Trazado_878103" data-name="Trazado 878103" d="M162.673,129.282a1.356,1.356,0,0,0,.682-.417,6.16,6.16,0,0,0,.759.312,1.873,1.873,0,0,0,.557.105,2.207,2.207,0,0,0,1.691-.6,2.874,2.874,0,0,0-.269-3.736,2.773,2.773,0,0,0-1.993-.8,2.683,2.683,0,0,0-1.03.25q-.707.3-.706.7a.432.432,0,0,0,.107.292,3.132,3.132,0,0,1,.073.465q.025.279.025.655a4.552,4.552,0,0,1-.126,1.274q-.014.042-.215.482a2.418,2.418,0,0,0-.183.454.515.515,0,0,0,.189.408.654.654,0,0,0,.437.162m1.16-3.158a3.16,3.16,0,0,0-.021-.344c-.014-.13-.035-.274-.063-.433a.989.989,0,0,1,.166-.067.448.448,0,0,1,.123-.021,1.494,1.494,0,0,1,1.113.5,1.8,1.8,0,0,1,.252,2.1.769.769,0,0,1-.673.317,1.573,1.573,0,0,1-.55-.1,1.705,1.705,0,0,1-.489-.283,14.534,14.534,0,0,0,.141-1.665" transform="translate(-2.17 -46.792)" fill="#263238"/>
          <path id="Trazado_878104" data-name="Trazado 878104" d="M172.4,129.265a2.594,2.594,0,0,0,1.727-.585,2.021,2.021,0,0,0,.735-1.628,3.479,3.479,0,0,0-.659-1.923A2.111,2.111,0,0,0,172.459,124a3.121,3.121,0,0,0-1.137.262q-.79.322-.791.744a.591.591,0,0,0,.159.407.55.55,0,0,0,.435.192.853.853,0,0,0,.484-.217,1.381,1.381,0,0,1,.849-.217q.36,0,.782.707a2.427,2.427,0,0,1,.4,1.179.928.928,0,0,1-.356.772,1.393,1.393,0,0,1-.889.267,1.734,1.734,0,0,1-.767-.239,1.887,1.887,0,0,0-.576-.239.589.589,0,0,0-.433.183.579.579,0,0,0-.18.417q0,.365.8.73a2.989,2.989,0,0,0,1.16.323" transform="translate(-15.334 -46.738)" fill="#263238"/>
          <path id="Trazado_878105" data-name="Trazado 878105" d="M73.074,126.571H69.84a.334.334,0,0,1,0-.667h3.234a.334.334,0,0,1,0,.667" transform="translate(149.011 -47.457)" fill="#263238"/>
          <path id="Trazado_878106" data-name="Trazado 878106" d="M73.074,129.439H69.84a.334.334,0,0,1,0-.667h3.234a.334.334,0,0,1,0,.667" transform="translate(149.011 -48.538)" fill="#263238"/>
          <path id="Trazado_878107" data-name="Trazado 878107" d="M102.873,31.876a.569.569,0,0,0,.192.384.6.6,0,0,0,.416.15.684.684,0,0,0,.669-.487q.5-1.264,1.549-3.771a.671.671,0,0,0,.06-.267.546.546,0,0,0-.2-.428.7.7,0,0,0-.466-.176.593.593,0,0,0-.575.37q-.267.566-1.039,2.648-.249-.528-.684-1.609-.131-.361-.407-1.006a.618.618,0,0,0-.58-.374.7.7,0,0,0-.466.173.543.543,0,0,0-.2.431,13,13,0,0,0,.758,1.852q.618,1.376.978,2.11" transform="translate(96.947 -10.283)" fill="#263238"/>
          <path id="Trazado_878108" data-name="Trazado 878108" d="M120.781,32.513a1.355,1.355,0,0,0,.683-.417,6.2,6.2,0,0,0,.758.312,1.873,1.873,0,0,0,.557.105,2.207,2.207,0,0,0,1.692-.6,2.875,2.875,0,0,0-.269-3.736,2.772,2.772,0,0,0-1.993-.8,2.685,2.685,0,0,0-1.03.25q-.706.3-.706.7a.434.434,0,0,0,.107.292,3.138,3.138,0,0,1,.073.465q.025.279.026.655a4.578,4.578,0,0,1-.126,1.274q-.015.042-.216.482a2.467,2.467,0,0,0-.183.454.515.515,0,0,0,.189.408.655.655,0,0,0,.437.162m1.161-3.158a3.326,3.326,0,0,0-.021-.344c-.014-.13-.036-.274-.064-.433a1.01,1.01,0,0,1,.166-.067.448.448,0,0,1,.124-.021,1.494,1.494,0,0,1,1.113.5,1.8,1.8,0,0,1,.252,2.1.77.77,0,0,1-.674.317,1.569,1.569,0,0,1-.55-.1,1.691,1.691,0,0,1-.489-.283,14.534,14.534,0,0,0,.141-1.665" transform="translate(65.824 -10.317)" fill="#263238"/>
          <path id="Trazado_878109" data-name="Trazado 878109" d="M131.542,30.95a3.409,3.409,0,0,0,1.245-.229.573.573,0,0,0,.421.173.608.608,0,0,0,.432-.168.551.551,0,0,0,.18-.421c0-.075,0-.19-.014-.345s-.014-.269-.014-.343v-5.3a1.188,1.188,0,0,0-.15-.6.584.584,0,0,0-.533-.332c-.333,0-.5.181-.5.543a1.874,1.874,0,0,0,.016.194,1.732,1.732,0,0,1,.017.194v1.792a3.419,3.419,0,0,0-.665-.287,2.1,2.1,0,0,0-.612-.1,2.219,2.219,0,0,0-1.778.8,2.723,2.723,0,0,0-.631,1.815,2.533,2.533,0,0,0,.735,1.839,2.476,2.476,0,0,0,1.852.772m-.178-4.029a1.414,1.414,0,0,1,.561.141,4.237,4.237,0,0,1,.716.421q0,.445,0,1.989a2.877,2.877,0,0,1-1.1.276,1.3,1.3,0,0,1-.978-.4,1.4,1.4,0,0,1-.384-1.009,1.573,1.573,0,0,1,.314-1.006,1.055,1.055,0,0,1,.87-.412" transform="translate(51.554 -8.814)" fill="#263238"/>
          <path id="Trazado_878110" data-name="Trazado 878110" d="M139.63,32.5a2.594,2.594,0,0,0,1.727-.585,2.021,2.021,0,0,0,.735-1.628,3.479,3.479,0,0,0-.659-1.923,2.111,2.111,0,0,0-1.741-1.133,3.121,3.121,0,0,0-1.137.262q-.79.322-.791.744a.591.591,0,0,0,.159.407.55.55,0,0,0,.435.192.853.853,0,0,0,.484-.217,1.381,1.381,0,0,1,.849-.217q.36,0,.782.707a2.43,2.43,0,0,1,.4,1.179.928.928,0,0,1-.356.772,1.393,1.393,0,0,1-.889.267,1.733,1.733,0,0,1-.767-.239,1.888,1.888,0,0,0-.576-.239.589.589,0,0,0-.433.183.579.579,0,0,0-.18.417q0,.365.8.73a2.989,2.989,0,0,0,1.16.323" transform="translate(37.851 -10.263)" fill="#263238"/>
          <path id="Trazado_878111" data-name="Trazado 878111" d="M115.457,29.8h-3.234a.334.334,0,0,1,0-.667h3.234a.334.334,0,0,1,0,.667" transform="translate(80.221 -10.982)" fill="#263238"/>
          <path id="Trazado_878112" data-name="Trazado 878112" d="M115.457,32.671h-3.234a.334.334,0,0,1,0-.667h3.234a.334.334,0,0,1,0,.667" transform="translate(80.221 -12.063)" fill="#263238"/>
          <path id="Trazado_878113" data-name="Trazado 878113" d="M79.5,185.561q.258.221.665.584l.693.642-1.381,1.689a.588.588,0,0,0-.149.366.546.546,0,0,0,.19.412.62.62,0,0,0,.434.176.6.6,0,0,0,.453-.217q.407-.443,1.344-1.6.366.366,1.136,1.068a4.153,4.153,0,0,1,.371.34.6.6,0,0,0,.88.031.548.548,0,0,0,.188-.412.916.916,0,0,0-.371-.6q-.3-.257-.6-.511-.276-.277-.86-.847.253-.352.512-.705a3.855,3.855,0,0,1,.588-.647.564.564,0,0,0,.236-.439.584.584,0,0,0-.179-.419.576.576,0,0,0-.427-.183q-.322,0-.887.647l-.724.932q-.389-.325-.774-.652a4.365,4.365,0,0,1-.688-.71.584.584,0,0,0-.493-.276.638.638,0,0,0-.437.172.531.531,0,0,0-.192.407,1.242,1.242,0,0,0,.47.751" transform="translate(132.152 -69.442)" fill="#263238"/>
          <path id="Trazado_878114" data-name="Trazado 878114" d="M135.945,176.018a3.3,3.3,0,0,0,1.2-.222.554.554,0,0,0,.407.168.59.59,0,0,0,.419-.163.533.533,0,0,0,.174-.407c0-.072,0-.183-.014-.332s-.013-.26-.013-.333V169.6a1.146,1.146,0,0,0-.145-.579.565.565,0,0,0-.516-.322q-.484,0-.484.525a1.7,1.7,0,0,0,.016.188,1.566,1.566,0,0,1,.016.188v1.733a3.3,3.3,0,0,0-.642-.278,2.034,2.034,0,0,0-.593-.093,2.145,2.145,0,0,0-1.719.774,2.631,2.631,0,0,0-.611,1.756,2.453,2.453,0,0,0,.71,1.778,2.4,2.4,0,0,0,1.793.747m-.173-3.9a1.376,1.376,0,0,1,.543.136,4.055,4.055,0,0,1,.692.407q0,.43,0,1.923a2.774,2.774,0,0,1-1.063.267,1.254,1.254,0,0,1-.946-.387,1.352,1.352,0,0,1-.371-.975,1.522,1.522,0,0,1,.3-.973,1.021,1.021,0,0,1,.841-.4" transform="translate(44.429 -63.588)" fill="#263238"/>
          <path id="Trazado_878115" data-name="Trazado 878115" d="M187.111,176.018a3.3,3.3,0,0,0,1.2-.222.555.555,0,0,0,.407.168.589.589,0,0,0,.419-.163.533.533,0,0,0,.174-.407c0-.072,0-.183-.014-.332s-.013-.26-.013-.333V169.6a1.147,1.147,0,0,0-.145-.579.565.565,0,0,0-.516-.322q-.484,0-.484.525a1.7,1.7,0,0,0,.016.188,1.569,1.569,0,0,1,.016.188v1.733a3.305,3.305,0,0,0-.642-.278,2.034,2.034,0,0,0-.593-.093,2.146,2.146,0,0,0-1.72.774,2.631,2.631,0,0,0-.611,1.756,2.453,2.453,0,0,0,.71,1.778,2.4,2.4,0,0,0,1.793.747m-.172-3.9a1.376,1.376,0,0,1,.543.136,4.054,4.054,0,0,1,.692.407q0,.43,0,1.923a2.771,2.771,0,0,1-1.063.267,1.254,1.254,0,0,1-.946-.387,1.352,1.352,0,0,1-.371-.975,1.522,1.522,0,0,1,.3-.973,1.022,1.022,0,0,1,.842-.4" transform="translate(-38.617 -63.588)" fill="#263238"/>
          <path id="Trazado_878116" data-name="Trazado 878116" d="M226.45,174h1.806q1.453,0,1.453-.593a.918.918,0,0,0-.254-.557l-.421-.475q-.729-1.041-2.223-3.1a1.1,1.1,0,0,0-.918-.47.787.787,0,0,0-.462.135.528.528,0,0,0-.231.457l0,3.4a2.112,2.112,0,0,0-.791.122.5.5,0,0,0-.222.48.507.507,0,0,0,.345.516,1.7,1.7,0,0,0,.669.077q-.013.651,0,1.412a.583.583,0,0,0,.163.411.571.571,0,0,0,.43.163q.689,0,.656-.905Zm0-3.227q.439.693,1.353,2.032H226.45Z" transform="translate(-103.668 -63.629)" fill="#263238"/>
          <path id="Trazado_878117" data-name="Trazado 878117" d="M234.217,177.531a1.315,1.315,0,0,0,.661-.4,5.92,5.92,0,0,0,.733.3,1.8,1.8,0,0,0,.539.1,2.131,2.131,0,0,0,1.636-.584,2.476,2.476,0,0,0,.545-1.747,2.5,2.5,0,0,0-.8-1.867,2.685,2.685,0,0,0-1.928-.776,2.591,2.591,0,0,0-1,.242q-.683.292-.683.677a.419.419,0,0,0,.1.282,2.923,2.923,0,0,1,.07.45q.025.271.025.634a4.4,4.4,0,0,1-.122,1.232q-.014.04-.208.465a2.347,2.347,0,0,0-.176.44.5.5,0,0,0,.183.394.63.63,0,0,0,.423.157m1.122-3.055a3.258,3.258,0,0,0-.02-.333q-.021-.187-.062-.419a1.065,1.065,0,0,1,.161-.065.437.437,0,0,1,.12-.02,1.448,1.448,0,0,1,1.077.482,1.743,1.743,0,0,1,.244,2.027.746.746,0,0,1-.651.305,1.517,1.517,0,0,1-.532-.093,1.645,1.645,0,0,1-.473-.273,14.047,14.047,0,0,0,.136-1.611" transform="translate(-118.165 -65.042)" fill="#263238"/>
          <path id="Trazado_878118" data-name="Trazado 878118" d="M243.623,177.514a2.512,2.512,0,0,0,1.67-.566,1.957,1.957,0,0,0,.71-1.575,3.362,3.362,0,0,0-.637-1.859,2.043,2.043,0,0,0-1.684-1.1,3.02,3.02,0,0,0-1.1.254q-.764.312-.764.719a.574.574,0,0,0,.153.394.533.533,0,0,0,.421.186.83.83,0,0,0,.468-.211,1.339,1.339,0,0,1,.822-.21q.349,0,.756.683a2.349,2.349,0,0,1,.389,1.14.9.9,0,0,1-.344.747,1.346,1.346,0,0,1-.86.258,1.671,1.671,0,0,1-.742-.231,1.828,1.828,0,0,0-.556-.231.568.568,0,0,0-.419.176.56.56,0,0,0-.174.4q0,.353.77.706a2.886,2.886,0,0,0,1.122.312" transform="translate(-130.896 -64.99)" fill="#263238"/>
          <path id="Trazado_878119" data-name="Trazado 878119" d="M172.77,202.374a2.357,2.357,0,0,0,.35-.039,2.478,2.478,0,0,1,.342-.039l1.331,0a4.686,4.686,0,0,1,.52.043,4.673,4.673,0,0,0,.525.043.805.805,0,0,0,.145-.018.865.865,0,0,1,.145-.018.545.545,0,0,0,.551-.33,1.706,1.706,0,0,0,.091-.643,2.516,2.516,0,0,0-.376-1.416,3.362,3.362,0,0,0-.936-.878l-1.217-.8a1.468,1.468,0,0,1-.715-1.181c0-.115.095-.229.285-.342a1.087,1.087,0,0,1,.556-.169,1.664,1.664,0,0,1,1.016.427,1.681,1.681,0,0,0,.736.428.752.752,0,0,0,.421-.118.454.454,0,0,0,.226-.4.612.612,0,0,0-.226-.475,5.461,5.461,0,0,0-.955-.706,2.55,2.55,0,0,0-2.629.09,1.419,1.419,0,0,0-.72,1.231,2.335,2.335,0,0,0,.353,1.307,3.065,3.065,0,0,0,.874.837q.566.358,1.131.711a1.763,1.763,0,0,1,.923,1.28q-.249-.032-.733-.072-.964-.05-1.38-.05a1.894,1.894,0,0,0-.769.168q-.471.207-.471.534a.611.611,0,0,0,.607.6" transform="translate(-18.318 -73.657)" fill="#263238"/>
          <path id="Trazado_878120" data-name="Trazado 878120" d="M181.354,203.961a1.315,1.315,0,0,0,.661-.4,5.877,5.877,0,0,0,.733.3,1.792,1.792,0,0,0,.538.1,2.131,2.131,0,0,0,1.636-.584,2.476,2.476,0,0,0,.545-1.747,2.5,2.5,0,0,0-.805-1.867,2.684,2.684,0,0,0-1.928-.776,2.591,2.591,0,0,0-1,.242q-.683.292-.683.677a.419.419,0,0,0,.1.282,2.926,2.926,0,0,1,.07.45q.025.271.025.634a4.4,4.4,0,0,1-.122,1.232q-.014.04-.208.465a2.347,2.347,0,0,0-.176.44.5.5,0,0,0,.183.394.63.63,0,0,0,.423.157m1.122-3.055a3.254,3.254,0,0,0-.02-.333q-.021-.187-.062-.419a1.068,1.068,0,0,1,.161-.065.436.436,0,0,1,.12-.02,1.448,1.448,0,0,1,1.077.482,1.743,1.743,0,0,1,.244,2.027.746.746,0,0,1-.651.305,1.532,1.532,0,0,1-.532-.093,1.653,1.653,0,0,1-.473-.274,14.05,14.05,0,0,0,.136-1.611" transform="translate(-32.364 -75.004)" fill="#263238"/>
          <path id="Trazado_878121" data-name="Trazado 878121" d="M90.84,191.946l1.8,0q.855,0,.855-.538,0-.607-.955-.607c-.06,0-.127,0-.2,0v-4.014a1.385,1.385,0,0,0,.512.272.615.615,0,0,0,.441-.181.568.568,0,0,0,.188-.421.715.715,0,0,0-.3-.511l-.512-.371-.552-.443a1.127,1.127,0,0,0-.656-.244q-.407,0-.407.488,0,.538.045,1.516t.045,2.792v1.1h-.3a.621.621,0,0,0-.441.168.574.574,0,0,0,0,.832.621.621,0,0,0,.441.168" transform="translate(116.017 -69.689)" fill="#263238"/>
          <path id="Trazado_878122" data-name="Trazado 878122" d="M193.692,170.936a2.445,2.445,0,0,0,.35-.039,2.482,2.482,0,0,1,.342-.039l1.331,0a4.677,4.677,0,0,1,.52.043,4.677,4.677,0,0,0,.525.043.805.805,0,0,0,.145-.018.864.864,0,0,1,.145-.018.546.546,0,0,0,.551-.33,1.707,1.707,0,0,0,.091-.643,2.516,2.516,0,0,0-.376-1.416,3.361,3.361,0,0,0-.936-.878l-1.217-.8a1.468,1.468,0,0,1-.715-1.181c0-.115.095-.229.285-.342a1.087,1.087,0,0,1,.556-.169,1.664,1.664,0,0,1,1.016.427,1.682,1.682,0,0,0,.736.428.753.753,0,0,0,.421-.118.454.454,0,0,0,.226-.4.612.612,0,0,0-.226-.475,5.46,5.46,0,0,0-.955-.706,2.55,2.55,0,0,0-2.629.09,1.419,1.419,0,0,0-.72,1.231,2.335,2.335,0,0,0,.353,1.307,3.065,3.065,0,0,0,.874.837q.566.358,1.131.711a1.763,1.763,0,0,1,.923,1.28q-.249-.032-.733-.072-.964-.05-1.38-.05a1.894,1.894,0,0,0-.769.168q-.471.207-.471.534a.611.611,0,0,0,.607.6" transform="translate(-52.276 -61.807)" fill="#263238"/>
          <path id="Trazado_878123" data-name="Trazado 878123" d="M103.948,186.135h-5.14a.6.6,0,0,1,0-1.2h5.14a.6.6,0,0,1,0,1.2" transform="translate(99.991 -69.708)" fill="#263238"/>
          <path id="Trazado_878124" data-name="Trazado 878124" d="M125.956,174.895h-5.14a.6.6,0,0,1,0-1.2h5.14a.6.6,0,0,1,0,1.2" transform="translate(64.27 -65.471)" fill="#263238"/>
          <path id="Trazado_878125" data-name="Trazado 878125" d="M210.273,187.987H118.206a.6.6,0,0,1,0-1.2h92.067a.6.6,0,0,1,0,1.2" transform="translate(-18.419 -70.406)" fill="#263238"/>
          <path id="Trazado_878126" data-name="Trazado 878126" d="M211.008,174.895h-5.14a.6.6,0,0,1,0-1.2h5.14a.6.6,0,0,1,0,1.2" transform="translate(-73.775 -65.471)" fill="#263238"/>
          <path id="Trazado_878127" data-name="Trazado 878127" d="M154.393,174.895h-5.14a.6.6,0,0,1,0-1.2h5.14a.6.6,0,0,1,0,1.2" transform="translate(18.115 -65.471)" fill="#263238"/>
          <path id="Trazado_878128" data-name="Trazado 878128" d="M152.767,175.323v-5.14a.6.6,0,0,1,1.2,0v5.14a.6.6,0,0,1-1.2,0" transform="translate(16.572 -63.929)" fill="#263238"/>
          <path id="Trazado_878129" data-name="Trazado 878129" d="M104.2,190.946H98.981a.6.6,0,0,1,0-1.2H104.2a.6.6,0,0,1,0,1.2" transform="translate(99.63 -71.521)" fill="#263238"/>
          <path id="Trazado_878130" data-name="Trazado 878130" d="M224.774,164.124,221,171.31a.606.606,0,0,1-1.1-.143q-2.083-6.333-4.166-12.667-.293-.894-.588-1.789l.578.44H172.79c-1.977,0-3.976.087-5.952,0-.029,0-.058,0-.087,0a.6.6,0,0,1,0-1.2h42.937c1.978,0,3.976-.087,5.952,0,.029,0,.058,0,.087,0a.616.616,0,0,1,.578.44l4.165,12.667.589,1.79-1.1-.143,3.775-7.186c.359-.683,1.394-.078,1.035.605" transform="translate(-62.664 -58.768)" fill="#263238"/>
          <path id="Trazado_878131" data-name="Trazado 878131" d="M79.5,257.033q.258.221.665.584l.693.643-1.381,1.688a.588.588,0,0,0-.149.366.547.547,0,0,0,.19.412.619.619,0,0,0,.434.176.6.6,0,0,0,.453-.217q.407-.443,1.344-1.6.366.365,1.136,1.068a4.165,4.165,0,0,1,.371.34.6.6,0,0,0,.88.032.55.55,0,0,0,.188-.412.916.916,0,0,0-.371-.6q-.3-.258-.6-.512-.276-.276-.86-.845.253-.353.512-.707a3.9,3.9,0,0,1,.588-.647.563.563,0,0,0,.236-.439.585.585,0,0,0-.179-.419.578.578,0,0,0-.427-.183q-.322,0-.887.647l-.724.932q-.389-.325-.774-.652a4.369,4.369,0,0,1-.688-.71.584.584,0,0,0-.493-.276.638.638,0,0,0-.437.172.531.531,0,0,0-.192.408,1.242,1.242,0,0,0,.47.751" transform="translate(132.152 -96.382)" fill="#263238"/>
          <path id="Trazado_878132" data-name="Trazado 878132" d="M135.945,247.488a3.282,3.282,0,0,0,1.2-.222.554.554,0,0,0,.407.168.59.59,0,0,0,.419-.163.532.532,0,0,0,.174-.407c0-.072,0-.183-.014-.333s-.013-.26-.013-.332v-5.128a1.148,1.148,0,0,0-.145-.579.566.566,0,0,0-.516-.321q-.484,0-.484.525a1.693,1.693,0,0,0,.016.187,1.585,1.585,0,0,1,.016.188V242.8a3.31,3.31,0,0,0-.642-.279,2.054,2.054,0,0,0-.593-.092,2.147,2.147,0,0,0-1.719.773,2.632,2.632,0,0,0-.611,1.756,2.454,2.454,0,0,0,.71,1.779,2.4,2.4,0,0,0,1.793.746m-.173-3.9a1.365,1.365,0,0,1,.543.136,4.088,4.088,0,0,1,.692.407q0,.43,0,1.923a2.774,2.774,0,0,1-1.063.267,1.253,1.253,0,0,1-.946-.387,1.353,1.353,0,0,1-.371-.976,1.522,1.522,0,0,1,.3-.973,1.021,1.021,0,0,1,.841-.4" transform="translate(44.429 -90.527)" fill="#263238"/>
          <path id="Trazado_878133" data-name="Trazado 878133" d="M187.111,247.488a3.282,3.282,0,0,0,1.2-.222.554.554,0,0,0,.407.168.589.589,0,0,0,.419-.163.532.532,0,0,0,.174-.407c0-.072,0-.183-.014-.333s-.013-.26-.013-.332v-5.128a1.148,1.148,0,0,0-.145-.579.566.566,0,0,0-.516-.321q-.484,0-.484.525a1.7,1.7,0,0,0,.016.187,1.589,1.589,0,0,1,.016.188V242.8a3.311,3.311,0,0,0-.642-.279,2.053,2.053,0,0,0-.593-.092,2.147,2.147,0,0,0-1.72.773,2.632,2.632,0,0,0-.611,1.756,2.455,2.455,0,0,0,.71,1.779,2.4,2.4,0,0,0,1.793.746m-.172-3.9a1.365,1.365,0,0,1,.543.136,4.087,4.087,0,0,1,.692.407q0,.43,0,1.923a2.772,2.772,0,0,1-1.063.267,1.253,1.253,0,0,1-.946-.387,1.353,1.353,0,0,1-.371-.976,1.522,1.522,0,0,1,.3-.973,1.022,1.022,0,0,1,.842-.4" transform="translate(-38.617 -90.527)" fill="#263238"/>
          <path id="Trazado_878134" data-name="Trazado 878134" d="M226.45,245.47h1.806q1.453,0,1.453-.593a.915.915,0,0,0-.254-.556l-.421-.475q-.729-1.04-2.223-3.095a1.1,1.1,0,0,0-.918-.471.787.787,0,0,0-.462.136.527.527,0,0,0-.231.457l0,3.4a2.113,2.113,0,0,0-.791.122.5.5,0,0,0-.222.479.508.508,0,0,0,.345.517,1.708,1.708,0,0,0,.669.077q-.013.651,0,1.412a.583.583,0,0,0,.163.412.574.574,0,0,0,.43.163q.689,0,.656-.9Zm0-3.227q.439.693,1.353,2.032H226.45Z" transform="translate(-103.668 -90.568)" fill="#263238"/>
          <path id="Trazado_878135" data-name="Trazado 878135" d="M234.217,249a1.317,1.317,0,0,0,.661-.4,6.007,6.007,0,0,0,.733.3,1.811,1.811,0,0,0,.539.1,2.133,2.133,0,0,0,1.636-.583,2.78,2.78,0,0,0-.26-3.614,2.682,2.682,0,0,0-1.928-.776,2.591,2.591,0,0,0-1,.242q-.683.291-.683.677a.419.419,0,0,0,.1.282,2.9,2.9,0,0,1,.07.45q.025.271.025.634a4.4,4.4,0,0,1-.122,1.232q-.014.04-.208.466a2.369,2.369,0,0,0-.176.439.5.5,0,0,0,.183.394.631.631,0,0,0,.423.157m1.122-3.054a3.258,3.258,0,0,0-.02-.333q-.021-.188-.062-.419a1.149,1.149,0,0,1,.161-.066.463.463,0,0,1,.12-.02,1.447,1.447,0,0,1,1.077.482,1.743,1.743,0,0,1,.244,2.027.746.746,0,0,1-.651.305,1.519,1.519,0,0,1-.532-.093,1.631,1.631,0,0,1-.473-.274,14.049,14.049,0,0,0,.136-1.611" transform="translate(-118.165 -91.981)" fill="#263238"/>
          <path id="Trazado_878136" data-name="Trazado 878136" d="M243.623,248.985a2.512,2.512,0,0,0,1.67-.566,1.957,1.957,0,0,0,.71-1.574,3.364,3.364,0,0,0-.637-1.86,2.043,2.043,0,0,0-1.684-1.1,3.02,3.02,0,0,0-1.1.254q-.764.313-.764.72a.575.575,0,0,0,.153.394.535.535,0,0,0,.421.186.83.83,0,0,0,.468-.211,1.339,1.339,0,0,1,.822-.211q.349,0,.756.683a2.351,2.351,0,0,1,.389,1.141.9.9,0,0,1-.344.746,1.35,1.35,0,0,1-.86.258,1.673,1.673,0,0,1-.742-.231,1.836,1.836,0,0,0-.556-.231.566.566,0,0,0-.419.176.559.559,0,0,0-.174.4q0,.353.77.706a2.877,2.877,0,0,0,1.122.313" transform="translate(-130.896 -91.929)" fill="#263238"/>
          <path id="Trazado_878137" data-name="Trazado 878137" d="M172.77,273.844a2.425,2.425,0,0,0,.35-.038,2.508,2.508,0,0,1,.342-.039l1.331,0a4.706,4.706,0,0,1,.52.044,4.805,4.805,0,0,0,.525.042.92.92,0,0,0,.145-.017.818.818,0,0,1,.145-.019.545.545,0,0,0,.551-.33,1.7,1.7,0,0,0,.091-.642,2.518,2.518,0,0,0-.376-1.417,3.361,3.361,0,0,0-.936-.878l-1.217-.8a1.47,1.47,0,0,1-.715-1.181c0-.114.095-.228.285-.341a1.082,1.082,0,0,1,.556-.17,1.661,1.661,0,0,1,1.016.428,1.684,1.684,0,0,0,.736.427.752.752,0,0,0,.421-.118.454.454,0,0,0,.226-.4.612.612,0,0,0-.226-.475,5.461,5.461,0,0,0-.955-.706,2.55,2.55,0,0,0-2.629.09,1.419,1.419,0,0,0-.72,1.231,2.335,2.335,0,0,0,.353,1.307,3.073,3.073,0,0,0,.874.837q.566.358,1.131.711a1.761,1.761,0,0,1,.923,1.281q-.249-.033-.733-.073-.964-.05-1.38-.05a1.9,1.9,0,0,0-.769.168c-.314.138-.471.317-.471.534a.612.612,0,0,0,.607.6" transform="translate(-18.318 -100.596)" fill="#263238"/>
          <path id="Trazado_878138" data-name="Trazado 878138" d="M181.354,275.431a1.312,1.312,0,0,0,.661-.4,5.983,5.983,0,0,0,.733.3,1.81,1.81,0,0,0,.538.1,2.134,2.134,0,0,0,1.636-.583,2.78,2.78,0,0,0-.26-3.614,2.682,2.682,0,0,0-1.928-.776,2.591,2.591,0,0,0-1,.242q-.683.291-.683.677a.418.418,0,0,0,.1.282,2.905,2.905,0,0,1,.07.45q.025.271.025.634a4.4,4.4,0,0,1-.122,1.232q-.014.04-.208.466a2.368,2.368,0,0,0-.176.439.5.5,0,0,0,.183.394.63.63,0,0,0,.423.157m1.122-3.054a3.254,3.254,0,0,0-.02-.333q-.021-.188-.062-.419a1.141,1.141,0,0,1,.161-.066.461.461,0,0,1,.12-.02,1.447,1.447,0,0,1,1.077.482,1.743,1.743,0,0,1,.244,2.027.746.746,0,0,1-.651.305,1.518,1.518,0,0,1-.532-.094,1.638,1.638,0,0,1-.473-.274,14.051,14.051,0,0,0,.136-1.611" transform="translate(-32.364 -101.943)" fill="#263238"/>
          <path id="Trazado_878139" data-name="Trazado 878139" d="M90.013,263.484a2.459,2.459,0,0,0,.351-.039,2.468,2.468,0,0,1,.341-.039l1.331,0a4.844,4.844,0,0,1,.52.043,4.673,4.673,0,0,0,.525.043.924.924,0,0,0,.145-.017.807.807,0,0,1,.145-.019.546.546,0,0,0,.552-.33,1.707,1.707,0,0,0,.09-.642,2.523,2.523,0,0,0-.375-1.417,3.374,3.374,0,0,0-.937-.878l-1.217-.8a1.47,1.47,0,0,1-.715-1.181q0-.171.285-.341a1.092,1.092,0,0,1,.557-.169,1.661,1.661,0,0,1,1.016.428,1.684,1.684,0,0,0,.735.427.755.755,0,0,0,.421-.118.454.454,0,0,0,.226-.4.614.614,0,0,0-.226-.475,5.486,5.486,0,0,0-.955-.705,2.55,2.55,0,0,0-2.629.09,1.419,1.419,0,0,0-.72,1.231,2.329,2.329,0,0,0,.353,1.307,3.074,3.074,0,0,0,.874.837q.566.358,1.132.711a1.762,1.762,0,0,1,.923,1.28q-.249-.032-.733-.072-.964-.051-1.38-.05a1.9,1.9,0,0,0-.769.168c-.314.138-.47.317-.47.534a.61.61,0,0,0,.606.6" transform="translate(116.002 -96.691)" fill="#263238"/>
          <path id="Trazado_878140" data-name="Trazado 878140" d="M193.692,242.406a2.449,2.449,0,0,0,.35-.039,2.479,2.479,0,0,1,.342-.039l1.331,0a4.84,4.84,0,0,1,.52.043,4.673,4.673,0,0,0,.525.043.92.92,0,0,0,.145-.017.817.817,0,0,1,.145-.019.546.546,0,0,0,.551-.33,1.7,1.7,0,0,0,.091-.642,2.518,2.518,0,0,0-.376-1.417,3.361,3.361,0,0,0-.936-.878l-1.217-.8a1.47,1.47,0,0,1-.715-1.181c0-.114.095-.228.285-.341a1.082,1.082,0,0,1,.556-.17,1.661,1.661,0,0,1,1.016.428,1.685,1.685,0,0,0,.736.427.754.754,0,0,0,.421-.118.454.454,0,0,0,.226-.4.612.612,0,0,0-.226-.475,5.46,5.46,0,0,0-.955-.706,2.55,2.55,0,0,0-2.629.09,1.419,1.419,0,0,0-.72,1.231,2.335,2.335,0,0,0,.353,1.307,3.073,3.073,0,0,0,.874.837q.566.358,1.131.711a1.762,1.762,0,0,1,.923,1.28q-.249-.032-.733-.072-.964-.05-1.38-.05a1.9,1.9,0,0,0-.769.168c-.314.138-.471.317-.471.534a.612.612,0,0,0,.607.6" transform="translate(-52.276 -88.746)" fill="#263238"/>
          <path id="Trazado_878141" data-name="Trazado 878141" d="M103.948,257.606h-5.14a.6.6,0,0,1,0-1.2h5.14a.6.6,0,0,1,0,1.2" transform="translate(99.991 -96.647)" fill="#263238"/>
          <path id="Trazado_878142" data-name="Trazado 878142" d="M125.956,246.367h-5.14a.6.6,0,0,1,0-1.2h5.14a.6.6,0,0,1,0,1.2" transform="translate(64.27 -92.411)" fill="#263238"/>
          <path id="Trazado_878143" data-name="Trazado 878143" d="M210.273,259.458H118.206a.6.6,0,0,1,0-1.2h92.067a.6.6,0,0,1,0,1.2" transform="translate(-18.419 -97.345)" fill="#263238"/>
          <path id="Trazado_878144" data-name="Trazado 878144" d="M211.008,246.367h-5.14a.6.6,0,0,1,0-1.2h5.14a.6.6,0,0,1,0,1.2" transform="translate(-73.775 -92.411)" fill="#263238"/>
          <path id="Trazado_878145" data-name="Trazado 878145" d="M154.393,246.367h-5.14a.6.6,0,0,1,0-1.2h5.14a.6.6,0,0,1,0,1.2" transform="translate(18.115 -92.411)" fill="#263238"/>
          <path id="Trazado_878146" data-name="Trazado 878146" d="M152.767,246.794v-5.14a.6.6,0,0,1,1.2,0v5.14a.6.6,0,0,1-1.2,0" transform="translate(16.572 -90.868)" fill="#263238"/>
          <path id="Trazado_878147" data-name="Trazado 878147" d="M104.2,262.418H98.981a.6.6,0,0,1,0-1.2H104.2a.6.6,0,0,1,0,1.2" transform="translate(99.63 -98.461)" fill="#263238"/>
          <path id="Trazado_878148" data-name="Trazado 878148" d="M224.774,235.6,221,242.781a.606.606,0,0,1-1.1-.143q-2.083-6.333-4.166-12.667-.293-.894-.588-1.789l.578.44H172.79c-1.977,0-3.976.087-5.952,0-.029,0-.058,0-.087,0a.6.6,0,0,1,0-1.2h42.937c1.978,0,3.976-.087,5.952,0,.029,0,.058,0,.087,0a.616.616,0,0,1,.578.44l4.165,12.667.589,1.79-1.1-.143,3.775-7.186c.359-.683,1.394-.078,1.035.6" transform="translate(-62.664 -85.707)" fill="#263238"/>
          <path id="Trazado_878149" data-name="Trazado 878149" d="M327.829,201.336a23.05,23.05,0,0,0,19.614-10.881,18.478,18.478,0,0,0-5.95-25.446,14.842,14.842,0,0,0-20.417,4.773,11.918,11.918,0,0,0,3.834,16.394,9.579,9.579,0,0,0,13.175-3.081,7.7,7.7,0,0,0-2.479-10.6,6.209,6.209,0,0,0-8.54,2,5.011,5.011,0,0,0,1.612,6.892.215.215,0,0,0,.3-.07.218.218,0,0,0-.07-.3,4.575,4.575,0,0,1-1.47-6.292,5.774,5.774,0,0,1,7.939-1.856,7.261,7.261,0,0,1,2.338,10,9.144,9.144,0,0,1-12.574,2.941,11.483,11.483,0,0,1-3.692-15.794,14.409,14.409,0,0,1,19.816-4.633,18.042,18.042,0,0,1,5.809,24.846A22.634,22.634,0,0,1,315.94,197.5a28.313,28.313,0,0,1-9.116-38.989.219.219,0,0,0-.371-.231,28.75,28.75,0,0,0,9.256,39.59,22.906,22.906,0,0,0,12.119,3.462" transform="translate(-272.748 -59.623)" fill="#263238"/>
          <path id="Trazado_878150" data-name="Trazado 878150" d="M327.64,201.459a23.243,23.243,0,0,0,19.878-11.028,18.787,18.787,0,0,0-6.051-25.875,15.154,15.154,0,0,0-20.846,4.874,12.23,12.23,0,0,0,3.934,16.823,9.89,9.89,0,0,0,13.6-3.181,8.008,8.008,0,0,0-2.579-11.028,6.521,6.521,0,0,0-8.969,2.1,5.321,5.321,0,0,0,1.712,7.321.514.514,0,0,0,.393.069.535.535,0,0,0,.336-.239.53.53,0,0,0-.171-.73,4.263,4.263,0,0,1-1.37-5.862,5.463,5.463,0,0,1,7.51-1.756,6.95,6.95,0,0,1,2.237,9.57,8.834,8.834,0,0,1-12.145,2.841,11.171,11.171,0,0,1-3.592-15.364,14.1,14.1,0,0,1,19.387-4.533,17.732,17.732,0,0,1,5.709,24.416,22.324,22.324,0,0,1-30.7,7.178,28,28,0,0,1-9.016-38.56.531.531,0,0,0-.171-.73.519.519,0,0,0-.4-.067.528.528,0,0,0-.331.237,29.06,29.06,0,0,0,9.357,40.019,23.263,23.263,0,0,0,12.283,3.508m1.015-20.526,0,0,0,0" transform="translate(-272.558 -59.434)" fill="#263238"/>
          <path id="Trazado_878151" data-name="Trazado 878151" d="M332.231,200.4a.218.218,0,0,0,.218-.219V132.051a.218.218,0,1,0-.436,0v68.134a.218.218,0,0,0,.218.219" transform="translate(-273.594 -49.691)" fill="#263238"/>
          <path id="Trazado_878152" data-name="Trazado 878152" d="M332.042,200.528a.531.531,0,0,0,.53-.53V131.863a.53.53,0,0,0-1.06,0V200a.531.531,0,0,0,.53.53" transform="translate(-273.406 -49.503)" fill="#263238"/>
          <path id="Trazado_878153" data-name="Trazado 878153" d="M288.674,188.907H351.1a.218.218,0,0,0,0-.437H288.674a.218.218,0,0,0,0,.437" transform="translate(-265.328 -71.04)" fill="#263238"/>
          <path id="Trazado_878154" data-name="Trazado 878154" d="M288.486,189.03h62.429a.53.53,0,1,0,0-1.06H288.486a.53.53,0,1,0,0,1.06" transform="translate(-265.14 -70.851)" fill="#263238"/>
          <path id="Trazado_878155" data-name="Trazado 878155" d="M387.7,189.451a.218.218,0,0,0,.108-.407l-1.139-.654,1.247-.444a.218.218,0,1,0-.146-.411l-1.694.6a.218.218,0,0,0-.036.394l1.55.891a.221.221,0,0,0,.109.029" transform="translate(-362.804 -70.682)" fill="#263238"/>
          <path id="Trazado_878156" data-name="Trazado 878156" d="M387.512,189.574a.529.529,0,0,0,.46-.268.529.529,0,0,0-.2-.722l-.552-.317.611-.217a.53.53,0,0,0-.353-1l-1.7.6a.53.53,0,0,0-.086.958l1.551.891a.526.526,0,0,0,.264.07m.047-.611h0Z" transform="translate(-362.615 -70.493)" fill="#263238"/>
          <path id="Trazado_878157" data-name="Trazado 878157" d="M330.533,134.848a.218.218,0,0,0,.2-.139l.808-2.083.906,2.09a.222.222,0,0,0,.288.113.218.218,0,0,0,.113-.287l-1.118-2.578a.235.235,0,0,0-.2-.132.219.219,0,0,0-.2.139l-1,2.578a.22.22,0,0,0,.125.284.234.234,0,0,0,.079.014" transform="translate(-272.955 -49.692)" fill="#263238"/>
          <path id="Trazado_878158" data-name="Trazado 878158" d="M330.344,134.971a.533.533,0,0,0,.494-.338l.533-1.375.6,1.394a.53.53,0,0,0,.974-.421l-1.119-2.58a.543.543,0,0,0-.478-.318.532.532,0,0,0-.5.336l-1,2.579a.529.529,0,0,0,.3.687.549.549,0,0,0,.191.036" transform="translate(-272.766 -49.503)" fill="#263238"/>
          <path id="Trazado_878159" data-name="Trazado 878159" d="M317.1,133.976q.421.875,1.331,2.75.493,1.006.751,1.669.081.239.255.71a.5.5,0,0,0,.494.363.576.576,0,0,0,.386-.143.455.455,0,0,0,.166-.359,8.869,8.869,0,0,0-.817-2.125q.423-.836,1.345-2.464l.189-.3a.654.654,0,0,0,.1-.324.492.492,0,0,0-.166-.366.534.534,0,0,0-.381-.158.473.473,0,0,0-.4.189,14.823,14.823,0,0,0-1.275,2.194q-.413-.914-.5-1.1-.274-.575-.536-1.01a.508.508,0,0,0-.455-.278.577.577,0,0,0-.386.146.456.456,0,0,0-.169.359.573.573,0,0,0,.065.247" transform="translate(-253.113 -50.216)" fill="#263238"/>
          <path id="Trazado_878160" data-name="Trazado 878160" d="M386.463,173.522q.22.189.567.5l.59.548L386.443,176a.5.5,0,0,0-.127.313.466.466,0,0,0,.162.351.528.528,0,0,0,.37.151.511.511,0,0,0,.386-.186q.347-.378,1.145-1.361.312.312.968.91a3.633,3.633,0,0,1,.316.289.512.512,0,0,0,.75.027.469.469,0,0,0,.16-.351.778.778,0,0,0-.316-.513c-.17-.146-.339-.292-.509-.436s-.4-.4-.732-.721c.143-.2.289-.4.436-.6a3.285,3.285,0,0,1,.5-.551.482.482,0,0,0,.2-.374.526.526,0,0,0-.517-.513q-.274,0-.756.551l-.617.794q-.333-.277-.66-.555a3.7,3.7,0,0,1-.586-.605.5.5,0,0,0-.421-.236.545.545,0,0,0-.373.147.45.45,0,0,0-.163.347,1.057,1.057,0,0,0,.4.64" transform="translate(-365.395 -64.978)" fill="#263238"/>
        </g>
      </g>
    </g>
    <g id="Grupo_1101039" data-name="Grupo 1101039" transform="translate(1229.199 4577.938)">
      <path id="Trazado_873354" data-name="Trazado 873354" d="M325.19,458.026a13.575,13.575,0,0,0,3.988,9.63l13.784,13.78-13.784,13.78a13.621,13.621,0,0,0,19.264,19.263l13.78-13.78L376,514.48a13.62,13.62,0,0,0,19.26-19.263l-13.78-13.78,13.78-13.78a13.62,13.62,0,0,0,0-19.26h0a13.621,13.621,0,0,0-19.26,0l-13.78,13.78-13.78-13.78a13.626,13.626,0,0,0-19.264,0h0a13.577,13.577,0,0,0-3.988,9.63Z" transform="translate(-325.19 -444.408)" fill="#10314b"/>
    </g>
    <path id="Trazado_113320" data-name="Trazado 113320" d="M2630.522,1557.805a35.051,35.051,0,1,1,35.051-35.051A35.091,35.091,0,0,1,2630.522,1557.805Zm0-53.551a18.5,18.5,0,1,0,18.5,18.5A18.52,18.52,0,0,0,2630.522,1504.255Z" transform="translate(-1571.375 3375.153)" fill="#fff"/>
    <g id="Grupo_78298" data-name="Grupo 78298" transform="translate(1040.612 4680.445)">
      <path id="Trazado_99257" data-name="Trazado 99257" d="M417.824,104.5a1.807,1.807,0,1,1-1.806-1.725A1.767,1.767,0,0,1,417.824,104.5Z" transform="translate(-414.214 -102.779)" fill="#10314b"/>
      <path id="Trazado_99258" data-name="Trazado 99258" d="M426.27,104.5a1.807,1.807,0,1,1-1.8-1.725A1.766,1.766,0,0,1,426.27,104.5Z" transform="translate(-406.416 -102.779)" fill="#10314b"/>
      <path id="Trazado_99259" data-name="Trazado 99259" d="M434.716,104.5a1.807,1.807,0,1,1-1.8-1.725A1.766,1.766,0,0,1,434.716,104.5Z" transform="translate(-398.618 -102.779)" fill="#10314b"/>
      <path id="Trazado_99260" data-name="Trazado 99260" d="M443.163,104.5a1.807,1.807,0,1,1-1.806-1.725A1.767,1.767,0,0,1,443.163,104.5Z" transform="translate(-390.819 -102.779)" fill="#10314b"/>
      <path id="Trazado_99261" data-name="Trazado 99261" d="M451.609,104.5a1.807,1.807,0,1,1-1.8-1.725A1.766,1.766,0,0,1,451.609,104.5Z" transform="translate(-383.021 -102.779)" fill="#10314b"/>
      <ellipse id="Elipse_3975" data-name="Elipse 3975" cx="1.805" cy="1.726" rx="1.805" ry="1.726" transform="translate(0 13.809)" fill="#10314b"/>
      <path id="Trazado_99268" data-name="Trazado 99268" d="M426.27,112.012a1.807,1.807,0,1,1-1.8-1.725A1.767,1.767,0,0,1,426.27,112.012Z" transform="translate(-406.416 -96.478)" fill="#10314b"/>
      <ellipse id="Elipse_3976" data-name="Elipse 3976" cx="1.805" cy="1.726" rx="1.805" ry="1.726" transform="translate(32.488 13.809)" fill="#10314b"/>
      <path id="Trazado_99269" data-name="Trazado 99269" d="M443.163,112.012a1.807,1.807,0,1,1-1.806-1.725A1.768,1.768,0,0,1,443.163,112.012Z" transform="translate(-390.819 -96.478)" fill="#10314b"/>
      <path id="Trazado_99270" data-name="Trazado 99270" d="M451.609,112.012a1.807,1.807,0,1,1-1.8-1.725A1.768,1.768,0,0,1,451.609,112.012Z" transform="translate(-383.021 -96.478)" fill="#10314b"/>
      <path id="Trazado_99274" data-name="Trazado 99274" d="M417.824,119.521a1.807,1.807,0,1,1-1.806-1.727A1.768,1.768,0,0,1,417.824,119.521Z" transform="translate(-414.214 -90.178)" fill="#10314b"/>
      <path id="Trazado_99275" data-name="Trazado 99275" d="M426.27,119.521a1.807,1.807,0,1,1-1.8-1.727A1.767,1.767,0,0,1,426.27,119.521Z" transform="translate(-406.416 -90.178)" fill="#10314b"/>
      <path id="Trazado_99276" data-name="Trazado 99276" d="M434.716,119.521a1.807,1.807,0,1,1-1.8-1.727A1.768,1.768,0,0,1,434.716,119.521Z" transform="translate(-398.618 -90.178)" fill="#10314b"/>
      <path id="Trazado_99277" data-name="Trazado 99277" d="M443.163,119.521a1.807,1.807,0,1,1-1.806-1.727A1.768,1.768,0,0,1,443.163,119.521Z" transform="translate(-390.819 -90.178)" fill="#10314b"/>
      <path id="Trazado_99278" data-name="Trazado 99278" d="M451.609,119.521a1.807,1.807,0,1,1-1.8-1.727A1.768,1.768,0,0,1,451.609,119.521Z" transform="translate(-383.021 -90.178)" fill="#10314b"/>
      <ellipse id="Elipse_3980" data-name="Elipse 3980" cx="1.805" cy="1.726" rx="1.805" ry="1.726" transform="translate(0 41.426)" fill="#10314b"/>
      <path id="Trazado_99285" data-name="Trazado 99285" d="M426.27,127.029a1.807,1.807,0,1,1-1.8-1.727A1.766,1.766,0,0,1,426.27,127.029Z" transform="translate(-406.416 -83.876)" fill="#10314b"/>
      <ellipse id="Elipse_3981" data-name="Elipse 3981" cx="1.805" cy="1.726" rx="1.805" ry="1.726" transform="translate(32.488 41.426)" fill="#10314b"/>
      <path id="Trazado_99286" data-name="Trazado 99286" d="M443.163,127.029a1.807,1.807,0,1,1-1.806-1.727A1.767,1.767,0,0,1,443.163,127.029Z" transform="translate(-390.819 -83.876)" fill="#10314b"/>
      <path id="Trazado_99287" data-name="Trazado 99287" d="M451.609,127.029a1.807,1.807,0,1,1-1.8-1.727A1.766,1.766,0,0,1,451.609,127.029Z" transform="translate(-383.021 -83.876)" fill="#10314b"/>
      <ellipse id="Elipse_3985" data-name="Elipse 3985" cx="1.805" cy="1.726" rx="1.805" ry="1.726" transform="translate(0 55.235)" fill="#10314b"/>
      <path id="Trazado_99291" data-name="Trazado 99291" d="M426.27,134.537a1.807,1.807,0,1,1-1.8-1.727A1.766,1.766,0,0,1,426.27,134.537Z" transform="translate(-406.416 -77.575)" fill="#10314b"/>
      <ellipse id="Elipse_3986" data-name="Elipse 3986" cx="1.805" cy="1.726" rx="1.805" ry="1.726" transform="translate(32.488 55.235)" fill="#10314b"/>
      <path id="Trazado_99292" data-name="Trazado 99292" d="M443.163,134.537a1.807,1.807,0,1,1-1.806-1.727A1.767,1.767,0,0,1,443.163,134.537Z" transform="translate(-390.819 -77.575)" fill="#10314b"/>
      <path id="Trazado_99293" data-name="Trazado 99293" d="M451.609,134.537a1.807,1.807,0,1,1-1.8-1.727A1.766,1.766,0,0,1,451.609,134.537Z" transform="translate(-383.021 -77.575)" fill="#10314b"/>
    </g>
    <g id="Grupo_1101073" data-name="Grupo 1101073" transform="translate(1080.051 4563.395)">
      <g id="Grupo_1101072" data-name="Grupo 1101072" clip-path="url(#clip-path-2)">
        <g id="Grupo_1101071" data-name="Grupo 1101071">
          <g id="Grupo_1101070" data-name="Grupo 1101070" clip-path="url(#clip-path-2)">
            <path id="Trazado_878012" data-name="Trazado 878012" d="M0,201.808l10.38-58.976c5.315-46.095,6.229-102.282,13.57-116.72C37.509-.558,75.946,0,75.946,0c51.04.552,56.889,40.288,59.084,76.224.372,6.1,2.047,17.011,4.284,29.656,5.385,26.391,12.644,53.626,29.966,72.69a46.313,46.313,0,0,1,11.477,26.869c.832,9.8-5.264,21.018-15.061,21.836a22.533,22.533,0,0,1-6.461,34.993c-8.553,4.432-18.856,2.975-28.3,1.089-9.384-1.874-19.179-4.309-26.154-10.861s-10.037-16.235-12.194-25.58A219.522,219.522,0,0,1,87.5,192.684Z" transform="translate(54.461 0)" fill="#263238"/>
            <path id="Trazado_878013" data-name="Trazado 878013" d="M116.221,14.277l3.426-2.764,33.165,16.653a9.608,9.608,0,0,1,8.278,10.015l-14.456,114.41c-.581,7.583,2.3,11.363-2.775,17.027l-34.8,37.685c-12.181,13.6-8.535-18.25-15.917-34.948-.515-1.166,2.46-5.11,2.342-5.92a22.641,22.641,0,0,1-.3-2.541c-.281-9.077.3-16.879.3-16.879.2-9.924.334-13.992.326-13.9,0,0-20.812-4.147-24.269-31.586-1.719-13.646.334-32.056,2.625-50.152,3.172-25.043,21.858-38.791,42.058-37.1" transform="translate(6.251 -0.481)" fill="#ffc09d"/>
            <path id="Trazado_878014" data-name="Trazado 878014" d="M113.807,76.656a3.5,3.5,0,0,0,3.263,3.64,3.349,3.349,0,0,0,3.71-3.04,3.505,3.505,0,0,0-3.258-3.643,3.353,3.353,0,0,0-3.715,3.042" transform="translate(5.46 -3.074)" fill="#263238"/>
            <path id="Trazado_878015" data-name="Trazado 878015" d="M148.966,74.56a3.5,3.5,0,0,0,3.262,3.641,3.351,3.351,0,0,0,3.711-3.041,3.505,3.505,0,0,0-3.258-3.642,3.353,3.353,0,0,0-3.715,3.042" transform="translate(-63.39 -2.987)" fill="#263238"/>
            <path id="Trazado_878016" data-name="Trazado 878016" d="M144.106,60.77c.42.47,3.134-1.407,6.9-1.276,3.765.077,6.468,2.105,6.891,1.657.209-.2-.208-1.037-1.383-1.952a9.623,9.623,0,0,0-5.5-1.891,9.235,9.235,0,0,0-5.512,1.586c-1.187.852-1.606,1.664-1.4,1.876" transform="translate(-60.695 -2.393)" fill="#263238"/>
            <path id="Trazado_878017" data-name="Trazado 878017" d="M104.468,64.42c.467.424,2.978-1.722,6.736-1.978,3.752-.31,6.649,1.428,7.025.939.184-.218-.31-1.009-1.578-1.8a9.6,9.6,0,0,0-5.663-1.317,9.239,9.239,0,0,0-5.32,2.144c-1.09.97-1.426,1.822-1.2,2.01" transform="translate(16.986 -2.516)" fill="#263238"/>
            <path id="Trazado_878018" data-name="Trazado 878018" d="M141.452,90.611c.025-.213-2.3-.693-6.084-1.3-.958-.131-1.863-.351-2-1.013a4.894,4.894,0,0,1,.734-2.831q1.469-3.448,3.081-7.235c4.285-10.3,7.422-18.787,7.006-18.956s-4.23,8.045-8.516,18.347c-1.033,2.542-2.022,4.964-2.962,7.282-.4,1.083-1.066,2.3-.621,3.76a2.419,2.419,0,0,0,1.537,1.458,6.542,6.542,0,0,0,1.627.279c3.812.329,6.181.422,6.2.208" transform="translate(-35.358 -2.476)" fill="#263238"/>
            <path id="Trazado_878019" data-name="Trazado 878019" d="M100.727,138.043a69.492,69.492,0,0,0,36.875-8.576s-9.8,18.6-37.041,15.169Z" transform="translate(1.332 -5.408)" fill="#ff9b6c"/>
            <path id="Trazado_878020" data-name="Trazado 878020" d="M122.221,101.4a6.792,6.792,0,0,1,6.167-2.326,6.2,6.2,0,0,1,4.207,2.434,3.932,3.932,0,0,1,.154,4.5c-1.064,1.4-3.2,1.659-4.98,1.09a14.3,14.3,0,0,1-4.723-3.028,4.183,4.183,0,0,1-1.04-1.149,1.259,1.259,0,0,1,.051-1.4" transform="translate(-14.826 -4.135)" fill="#ff9b6c"/>
            <path id="Trazado_878021" data-name="Trazado 878021" d="M135.1,95.07c-.611-.056-.75,4.033-4.345,6.824s-7.932,2.2-7.982,2.771c-.065.255.945.826,2.784.934a10.186,10.186,0,0,0,6.655-2.081,8.873,8.873,0,0,0,3.382-5.73c.21-1.7-.213-2.732-.493-2.718" transform="translate(-18.003 -3.971)" fill="#263238"/>
            <path id="Trazado_878022" data-name="Trazado 878022" d="M103.29,48.882c.442,1,4.164.249,8.611.472,4.455.133,8.1,1.175,8.623.218.231-.457-.456-1.375-1.964-2.264a14.989,14.989,0,0,0-13.13-.526c-1.573.766-2.333,1.626-2.14,2.1" transform="translate(15.778 -1.901)" fill="#263238"/>
            <path id="Trazado_878023" data-name="Trazado 878023" d="M143.228,43.984c.634.877,3.259.073,6.382.131,3.123-.052,5.745.76,6.382-.116.281-.425-.108-1.3-1.237-2.144a9.242,9.242,0,0,0-10.284-.012c-1.132.844-1.522,1.713-1.243,2.141" transform="translate(-57.949 -1.683)" fill="#263238"/>
            <path id="Trazado_878024" data-name="Trazado 878024" d="M109.559,85.748s-19.71,4.4-26.675-43.928C80.5,25.3,66.551,10.923,66.551,10.923L72.8,9.592s37.016,13.8,37.613,14.329,7.945,20.387,7.945,20.387Z" transform="translate(53.164 -0.401)" fill="#263238"/>
            <path id="Trazado_878025" data-name="Trazado 878025" d="M60.465,86.5c.071-2.032,2.575-6.75,4.593-7,5.388-.663,15.039.079,14.69,13.7-.475,18.617-19.069,14.3-19.088,13.764-.015-.417-.437-13.442-.195-20.462" transform="translate(97.668 -3.314)" fill="#ffc09d"/>
            <path id="Trazado_878026" data-name="Trazado 878026" d="M65.352,100.323c.083-.057.318.236.861.5a3.232,3.232,0,0,0,2.422.112c1.986-.67,3.722-3.751,3.9-7.1a10.7,10.7,0,0,0-.79-4.668,3.748,3.748,0,0,0-2.375-2.552,1.652,1.652,0,0,0-1.937.84c-.264.514-.154.889-.254.918-.053.046-.392-.322-.222-1.086a2.078,2.078,0,0,1,.763-1.149,2.457,2.457,0,0,1,1.806-.429c1.434.137,2.691,1.491,3.314,2.974a11,11,0,0,1,.991,5.219c-.215,3.748-2.224,7.209-4.936,7.919a3.481,3.481,0,0,1-2.954-.569c-.564-.474-.652-.892-.586-.926" transform="translate(98.843 -3.579)" fill="#ff9b6c"/>
            <path id="Trazado_878027" data-name="Trazado 878027" d="M118.382,75.742a27.23,27.23,0,0,1-2.73-.789,16.81,16.81,0,0,1-6.283-4.374,23,23,0,0,1-3.109-4.315,31.1,31.1,0,0,1-2.354-5.647c-1.312-4.127-1.979-8.867-2.88-13.8a141.4,141.4,0,0,0-3.154-13.808A77.376,77.376,0,0,0,93.9,22.138,55.823,55.823,0,0,0,90.2,15.277c-.487-.782-.92-1.353-1.193-1.754a4.158,4.158,0,0,0-.449-.587,4.241,4.241,0,0,0,.367.644c.245.417.652,1,1.112,1.8a63.582,63.582,0,0,1,3.552,6.9,81.3,81.3,0,0,1,3.846,10.849c1.185,4.174,2.2,8.841,3.1,13.772s1.583,9.684,2.933,13.853a30.955,30.955,0,0,0,2.43,5.709,22.931,22.931,0,0,0,3.213,4.354,16.461,16.461,0,0,0,6.472,4.315,10.279,10.279,0,0,0,2.8.608" transform="translate(32.055 -0.54)" fill="#263238"/>
            <path id="Trazado_878028" data-name="Trazado 878028" d="M207.842,234.53l-36.534,88.7,11.522,41.9H37.848s9.558-43.763,10.145-53.6,0-65.992,4.686-85.261,18.1-60.567,18.1-60.567l39.461-6.267c18.093,9.718,32.3,8.086,51.759-3.177l35.772,17.579Z" transform="translate(-8.816 -6.527)" fill="#ff725e"/>
            <g id="Grupo_1101066" data-name="Grupo 1101066" transform="translate(36.869 311.444)" opacity="0.3">
              <g id="Grupo_1101065" data-name="Grupo 1101065">
                <g id="Grupo_1101064" data-name="Grupo 1101064" clip-path="url(#clip-path-4)">
                  <path id="Trazado_878029" data-name="Trazado 878029" d="M90.959,325.019l111.21,11.019c-8.016-.171-14.185,6.615-21.125,10.63-12.85,7.433-28.854,5.354-43.519,3.047l-36.451-5.733c-3.066-.483-6.333-1.059-8.593-3.187-4.05-3.813-2.942-10.4-1.521-15.775" transform="translate(-89.665 -325.019)"/>
                </g>
              </g>
            </g>
            <path id="Trazado_878030" data-name="Trazado 878030" d="M104.885,314.59l18.622-17.98a8.6,8.6,0,0,1,6.782-2.377c5.315.5,14.323,1.437,16.175,2.158,2.663,1.035,5.178,2.515,5.918,3.846a78.464,78.464,0,0,1,3.4,10.506,24.249,24.249,0,0,1-.3,3.788,2.633,2.633,0,0,1-3.864,2.009,4.369,4.369,0,0,1-1.758-1.654c-1.183-2.219-1.036-3.108-1.036-3.108s.592,7.991-5.918,8.138c0,0,3,6.806-5.381,9.618,0,0,.309,4.439-6.7,5.032a85.366,85.366,0,0,1-13.37,0s-12.813,9.2-21.838,9.794-29.236-3.353-29.236-3.353l-2.44-37.223Z" transform="translate(18.211 -12.288)" fill="#ffc09d"/>
            <path id="Trazado_878031" data-name="Trazado 878031" d="M70.824,303.575a19.881,19.881,0,0,0,2.983,1.25c1.87.7,4.472,1.631,7.426,2.417,1.462.416,2.938.651,4.164.986a4.531,4.531,0,0,1,2.537,2.081,20.887,20.887,0,0,0,1.343,1.952c.367.433.626.617.644.6a5.309,5.309,0,0,0-.489-.713c-.318-.452-.687-1.158-1.2-2.026a6.894,6.894,0,0,0-1.015-1.331,4.131,4.131,0,0,0-1.679-1c-1.311-.385-2.708-.614-4.176-1.032-2.931-.779-5.541-1.654-7.438-2.267a21.826,21.826,0,0,0-3.1-.916" transform="translate(77.504 -12.679)" fill="#ff9b6c"/>
            <path id="Trazado_878032" data-name="Trazado 878032" d="M77.887,315.484a9.939,9.939,0,0,0,2.073.957c1.306.525,3.129,1.2,5.165,1.884s3.9,1.238,5.261,1.605a10.025,10.025,0,0,0,2.231.483,10.763,10.763,0,0,0-2.128-.821l-5.2-1.74-5.2-1.742a10.867,10.867,0,0,0-2.193-.626" transform="translate(68.043 -13.177)" fill="#ff9b6c"/>
            <path id="Trazado_878033" data-name="Trazado 878033" d="M83.4,326.557c-.015.152,3.243.486,7.118,1.541,3.883,1.036,6.866,2.386,6.929,2.246a7.772,7.772,0,0,0-1.9-1.009,35.132,35.132,0,0,0-10-2.7,7.816,7.816,0,0,0-2.15-.082" transform="translate(57.927 -13.638)" fill="#ff9b6c"/>
            <path id="Trazado_878034" data-name="Trazado 878034" d="M209.14,343.131l-82.389-14.309s9.7-40.315,24.189-40.315c2.122,0,73.839,26.8,73.839,26.8Z" transform="translate(-110.943 -12.05)" fill="#ffc09d"/>
            <path id="Trazado_878035" data-name="Trazado 878035" d="M237.167,166.048s-11.977,2.557-20.51,19.986c-8.43,17.219-41.044,93.115-42.317,105.846s9.055,29.868,18.06,32.237l27.771-40.724-.848-5.941,23.248-77.533Z" transform="translate(-174.234 -6.935)" fill="#ff725e"/>
            <path id="Trazado_878036" data-name="Trazado 878036" d="M114.89,326.127a15.4,15.4,0,0,0,1.938-1.774l4.513-4.434c1.754-1.744,3.318-3.348,4.416-4.543a12.4,12.4,0,0,0,1.685-2.019,15.329,15.329,0,0,0-1.938,1.773l-4.514,4.436c-1.753,1.743-3.316,3.346-4.415,4.542a12.47,12.47,0,0,0-1.685,2.019" transform="translate(-2.239 -13.088)" fill="#ff9b6c"/>
            <path id="Trazado_878037" data-name="Trazado 878037" d="M201.529,196.159c-.007-.006-.063.053-.167.171l-.45.532c-.379.482-1,1.149-1.666,2.1a55.561,55.561,0,0,0-5.153,8.41A68.992,68.992,0,0,0,189,221.085a90.116,90.116,0,0,0-2.673,17.711c-.623,12.735.934,24.215,2.135,32.431.618,4.116,1.181,7.435,1.581,9.727q.3,1.67.475,2.636c.056.276.1.5.137.684a.818.818,0,0,0,.063.23.851.851,0,0,0-.013-.239c-.023-.185-.052-.412-.087-.692q-.141-.969-.383-2.651c-.342-2.344-.827-5.662-1.424-9.746-1.111-8.224-2.605-19.68-1.985-32.355a91.706,91.706,0,0,1,2.619-17.622,70.562,70.562,0,0,1,4.966-13.67,59.95,59.95,0,0,1,4.993-8.453c.644-.967,1.235-1.651,1.588-2.153l.411-.562a.858.858,0,0,0,.127-.2" transform="translate(-144.644 -8.193)" fill="#263238"/>
            <path id="Trazado_878038" data-name="Trazado 878038" d="M199.882,285.123a5.34,5.34,0,0,0,1.138-.293l3.051-.946A51.9,51.9,0,0,1,214.3,281.63a23.581,23.581,0,0,1,10.289,1.183,29.351,29.351,0,0,1,3.887,1.918,4.462,4.462,0,0,0-.919-.738,14.869,14.869,0,0,0-2.84-1.509,22.443,22.443,0,0,0-10.462-1.351,45.225,45.225,0,0,0-10.29,2.415c-1.278.44-2.3.823-3.005,1.1a5.25,5.25,0,0,0-1.075.476" transform="translate(-184.713 -11.738)" fill="#263238"/>
            <path id="Trazado_878039" data-name="Trazado 878039" d="M199.827,266.469a5.7,5.7,0,0,0,1.135.429c.739.236,1.8.612,3.091,1.113A51.124,51.124,0,0,1,222.009,279.8c.975.986,1.741,1.809,2.251,2.395a5.733,5.733,0,0,0,.844.869,5.645,5.645,0,0,0-.7-.994c-.467-.626-1.2-1.489-2.144-2.514a45.841,45.841,0,0,0-18.09-11.879c-1.316-.463-2.4-.79-3.158-.97a5.625,5.625,0,0,0-1.189-.242" transform="translate(-181.294 -11.13)" fill="#263238"/>
            <g id="Grupo_1101069" data-name="Grupo 1101069" transform="translate(19.485 205.925)" opacity="0.3">
              <g id="Grupo_1101068" data-name="Grupo 1101068">
                <g id="Grupo_1101067" data-name="Grupo 1101067" clip-path="url(#clip-path-5)">
                  <path id="Trazado_878040" data-name="Trazado 878040" d="M224.019,214.9a102.5,102.5,0,0,0-5.329,54.031l-14.919-5.573a46.561,46.561,0,0,0,15.5,13.6c-4.023-1.163-8.145-2.338-12.324-2.065s-8.5,2.286-10.378,6.027c4.877-.89,9.841-1.784,14.765-1.209s9.893,2.849,12.542,7.038a173,173,0,0,1-4.191-48.539" transform="translate(-196.57 -214.901)"/>
                </g>
              </g>
            </g>
            <path id="Trazado_878041" data-name="Trazado 878041" d="M75.413,169.465c6.96-14.8,14.745-30.239,13.546-46.549,7.721,2.49,12.609,11.6,10.419,19.408l5.61,14.979a84.786,84.786,0,0,1-39.062,59.286c-3.936-15.874,2.529-32.324,9.488-47.124" transform="translate(68.281 -5.134)" fill="#263238"/>
            <path id="Trazado_878042" data-name="Trazado 878042" d="M100.107,173.472s27.668,16.14,20.5,45.841c-8.075,33.471-82.57,83.469-82.57,83.469,3.5-20.687.775-40.475-10.555-59.017l38.571-35.736" transform="translate(87.163 -7.246)" fill="#ff725e"/>
            <path id="Trazado_878043" data-name="Trazado 878043" d="M66.138,208.028s-.247.2-.709.617l-2.037,1.85-7.762,7.121L27.436,243.622l-.115.107.081.135a81.353,81.353,0,0,1,10.34,26.354,90.024,90.024,0,0,1,.138,32.521l-.1.566.472-.322c7.854-5.358,15.806-11.2,23.789-17.417,15.589-12.2,29.865-24.674,41.265-37.542,1.449-1.586,2.77-3.247,4.123-4.844,1.273-1.661,2.6-3.245,3.76-4.921a74.1,74.1,0,0,0,6.263-10.049,39.621,39.621,0,0,0,4.524-20.567,38.239,38.239,0,0,0-4.928-16.71,47.511,47.511,0,0,0-8.042-10.478,51.533,51.533,0,0,0-6.374-5.4c-.779-.555-1.39-.952-1.805-1.211s-.642-.371-.642-.371.207.142.614.413,1.007.683,1.774,1.251a54.133,54.133,0,0,1,6.3,5.459,47.783,47.783,0,0,1,7.935,10.477,38.065,38.065,0,0,1,4.821,16.592,39.32,39.32,0,0,1-4.541,20.361,73.854,73.854,0,0,1-6.25,9.979c-1.155,1.667-2.483,3.244-3.754,4.9-1.351,1.59-2.671,3.243-4.118,4.823-11.388,12.817-25.654,25.262-41.227,37.453-7.972,6.206-15.923,12.054-23.755,17.4l.378.243a90.275,90.275,0,0,0-.179-32.69,81.487,81.487,0,0,0-10.451-26.468l-.034.242,28.078-26.131c3.324-3.109,5.917-5.536,7.692-7.2l2-1.891c.449-.428.67-.659.67-.659" transform="translate(87.08 -7.245)" fill="#263238"/>
            <path id="Trazado_878044" data-name="Trazado 878044" d="M170.088,302.01s-17.433,14.224-35.289,5.744c-2.855-1.356-6.444-4.91-8.608-10.84-11.367-31.155-12.7-113.4-12.7-113.4l31.15-2.109,14.892,62.7c10.7,15.359,14.073,34.747,10.555,57.915" transform="translate(-44.887 -7.577)" fill="#ffc09d"/>
            <path id="Trazado_878045" data-name="Trazado 878045" d="M122.582,286.6a2.672,2.672,0,0,0,.061.594c.058.386.142.957.281,1.687.263,1.46.69,3.568,1.4,6.132a44.96,44.96,0,0,0,3.331,8.724,21.275,21.275,0,0,0,7.491,8.58,21.812,21.812,0,0,0,11.041,2.831,31.573,31.573,0,0,0,9.237-1.371,33.325,33.325,0,0,0,5.847-2.329c.672-.319,1.155-.641,1.5-.831a2.624,2.624,0,0,0,.5-.327c-.023-.04-.743.356-2.08.983a37.392,37.392,0,0,1-5.861,2.165,32.176,32.176,0,0,1-9.136,1.25,21.63,21.63,0,0,1-10.788-2.8,21.081,21.081,0,0,1-7.341-8.366,46.692,46.692,0,0,1-3.4-8.608c-.746-2.536-1.226-4.627-1.547-6.073-.152-.681-.275-1.233-.372-1.665a2.656,2.656,0,0,0-.16-.576" transform="translate(-45.429 -11.971)" fill="#ff9b6c"/>
            <path id="Trazado_878046" data-name="Trazado 878046" d="M98.893,247.3a30.542,30.542,0,0,1,4.967,1.359,27.755,27.755,0,0,1,10.031,7.128,60.518,60.518,0,0,1,7.21,10.139c.774,1.318,1.42,2.416,1.92,3.268a7.652,7.652,0,0,0,.753,1.173,7.329,7.329,0,0,0-.584-1.266c-.4-.8-1-1.949-1.784-3.351a54.1,54.1,0,0,0-7.147-10.3,26.663,26.663,0,0,0-10.275-7.121,17.888,17.888,0,0,0-3.7-.934,10.163,10.163,0,0,0-1.031-.1,1.023,1.023,0,0,0-.363.006" transform="translate(16.753 -10.329)" fill="#263238"/>
            <path id="Trazado_878047" data-name="Trazado 878047" d="M159.026,170.393c.689-2.3,4.571-23.526,6.149-28.462,2.226-6.964,20.32-19.418,20.32-19.418s-2.837-6.537-10.541-3.139c-9.121,4.023-13.63,10.8-15.928,9.417s-16.625-15.963-20.532-15.5-4.764,4.467-3.385,6.076a35.658,35.658,0,0,1,2.926,4.264s-8.272-2.489-6.664,6.568c0,0-9.421-5.879-8.5,6.53,0,0-6.2-2.528-7.583,1.838s2.71,9.421,4.778,12.868,8.779,23.438,8.779,23.438l.776,12.227,32.245-1.372Z" transform="translate(-60.405 -4.731)" fill="#ffc09d"/>
            <path id="Trazado_878048" data-name="Trazado 878048" d="M129.07,188.253s.013-.3.008-.878q-.012-.9-.036-2.58c-.046-2.286-.113-5.631-.2-9.94v-.017l-.006-.016c-1.69-5.013-3.85-11.52-6.776-19.09a28.26,28.26,0,0,0-2.759-5.7,39.419,39.419,0,0,1-3.324-5.825,10.435,10.435,0,0,1-.858-3.338,5.244,5.244,0,0,1,.8-3.319,3.333,3.333,0,0,1,.591-.622,3.84,3.84,0,0,1,.766-.41,4.679,4.679,0,0,1,1.756-.313,10.446,10.446,0,0,1,3.641.709l.324.122-.022-.341a17.687,17.687,0,0,1,.07-3.53,5.585,5.585,0,0,1,1.335-3.2,3.655,3.655,0,0,1,3.283-.881,10,10,0,0,1,3.472,1.294l.412.241-.057-.48c-.057-.463-.112-.93-.17-1.4-.031-.47,0-.943,0-1.419a4.7,4.7,0,0,1,1.017-2.578,3.917,3.917,0,0,1,2.553-1.159,8.385,8.385,0,0,1,2.964.261l.583.157-.3-.511c-.568-.96-1.169-1.9-1.821-2.829-.327-.462-.666-.919-1.036-1.361a2.54,2.54,0,0,1-.616-1.407,3.849,3.849,0,0,1,.952-2.984,4.3,4.3,0,0,1,2.886-1.391,3.722,3.722,0,0,1,1.57.405,13.541,13.541,0,0,1,1.525.819c.994.61,1.953,1.3,2.9,2.014,1.889,1.435,3.717,2.993,5.538,4.581l4.238,3.782c1.412,1.253,2.756,2.536,4.261,3.693a1.712,1.712,0,0,0,1.5.346,3.907,3.907,0,0,0,1.31-.672,27.252,27.252,0,0,0,2.121-1.8c1.353-1.232,2.711-2.423,4.146-3.493a34.82,34.82,0,0,1,4.482-2.852,15.592,15.592,0,0,1,4.827-1.782,7.861,7.861,0,0,1,4.864.645,8.035,8.035,0,0,1,3.393,3.389l.08-.288a120.1,120.1,0,0,0-13.777,10.945,35.475,35.475,0,0,0-5.349,6.107,9.421,9.421,0,0,0-.932,1.737c-.12.3-.273.6-.362.909l-.258.921c-.316,1.228-.6,2.436-.863,3.624-2.1,9.5-3.507,17.643-4.916,23.793l-.009.034,0,.025,2.165,11.373q.378,1.923.577,2.941c.133.66.217.995.217.995s-.04-.342-.152-1.007l-.515-2.951c-.47-2.614-1.159-6.446-2.05-11.4l0,.058c1.468-6.182,2.915-14.288,5.047-23.781.6-2.343.929-4.921,2.388-7.057a35.1,35.1,0,0,1,5.3-6.014,120.246,120.246,0,0,1,13.743-10.87l.169-.117-.087-.172a8.476,8.476,0,0,0-3.6-3.617,8.342,8.342,0,0,0-5.152-.7,16,16,0,0,0-4.98,1.827,35.19,35.19,0,0,0-4.546,2.886c-1.455,1.082-2.832,2.287-4.185,3.52a26.987,26.987,0,0,1-2.079,1.765c-.717.531-1.568.929-2.236.324-1.442-1.108-2.813-2.412-4.216-3.659l-4.243-3.787c-1.826-1.594-3.66-3.155-5.565-4.6-.953-.722-1.923-1.417-2.94-2.041a13.915,13.915,0,0,0-1.582-.85,4.152,4.152,0,0,0-1.8-.446,4.786,4.786,0,0,0-3.224,1.56,4.34,4.34,0,0,0-1.068,3.372,3.059,3.059,0,0,0,.728,1.66c.357.425.691.873,1.013,1.327.641.909,1.24,1.848,1.8,2.79l.279-.354a8.844,8.844,0,0,0-3.156-.275,4.393,4.393,0,0,0-2.852,1.315,5.153,5.153,0,0,0-1.136,2.857c0,.5-.03,1,0,1.494q.091.73.177,1.45l.355-.24a10.422,10.422,0,0,0-3.653-1.353,5.231,5.231,0,0,0-1.96.053,3.587,3.587,0,0,0-1.712.964A6.007,6.007,0,0,0,122.6,133.1a18.039,18.039,0,0,0-.066,3.626l.3-.22a10.822,10.822,0,0,0-3.812-.732,5.079,5.079,0,0,0-1.909.349,4.2,4.2,0,0,0-.862.468,3.718,3.718,0,0,0-.675.709,5.639,5.639,0,0,0-.867,3.6,10.825,10.825,0,0,0,.9,3.467,39.76,39.76,0,0,0,3.376,5.873,27.9,27.9,0,0,1,2.75,5.624c2.952,7.541,5.151,14.038,6.883,19.032l-.006-.034c.134,4.308.24,7.651.31,9.937q.063,1.682.1,2.578c.026.581.054.877.054.877" transform="translate(-60.289 -4.721)" fill="#ff9b6c"/>
            <path id="Trazado_878049" data-name="Trazado 878049" d="M156.062,124.318a46.594,46.594,0,0,0,4,3.73,46.721,46.721,0,0,0,4.092,3.627,22.346,22.346,0,0,0-3.756-4,22.369,22.369,0,0,0-4.334-3.361" transform="translate(-78.404 -5.192)" fill="#ff9b6c"/>
            <path id="Trazado_878050" data-name="Trazado 878050" d="M166.89,130.416a13.559,13.559,0,0,0,5.09,6.562c.1-.111-1.273-1.379-2.666-3.188s-2.292-3.439-2.424-3.374" transform="translate(-96.599 -5.447)" fill="#ff9b6c"/>
            <path id="Trazado_878051" data-name="Trazado 878051" d="M176.2,137.273a21.973,21.973,0,0,0,3.866,5.359,21.977,21.977,0,0,0-3.866-5.359" transform="translate(-113.606 -5.733)" fill="#ff9b6c"/>
          </g>
        </g>
      </g>
    </g>
  </g>
</svg>
